M48
; DRILL file {KiCad (5.1.4)-1} date 4/28/2020 7:53:18 PM
; FORMAT={-:-/ absolute / inch / decimal}
; #@! TF.CreationDate,2020-04-28T19:53:18-05:00
; #@! TF.GenerationSoftware,Kicad,Pcbnew,(5.1.4)-1
; #@! TF.FileFunction,Plated,1,2,PTH
FMAT,2
INCH
T1C0.0157
T2C0.0394
T3C0.0430
T4C0.0579
%
G90
G05
T1
X-0.25Y-4.1328
X-0.25Y-4.8828
X-0.25Y-5.6328
X-0.25Y-6.3828
X1.0625Y-4.375
X1.125Y-4.1434
X1.125Y-4.8828
X1.25Y-5.6328
X1.25Y-6.3828
X1.3125Y-4.9114
X1.4688Y-4.94
X1.6625Y-4.7437
X1.7188Y-5.5625
X1.9062Y-5.9375
X1.9375Y-4.1661
X2.0938Y-4.0938
X2.0938Y-4.1947
X2.1562Y-4.25
X2.1797Y-4.8828
X2.3438Y-4.3438
X2.9375Y-4.1328
X2.9375Y-6.3828
X3.1172Y-4.8828
X3.3125Y-5.6328
X4.1656Y-4.3344
X4.4375Y-4.1328
X4.4375Y-6.3828
X4.5938Y-4.8828
X4.8125Y-5.6328
X5.5984Y-4.2234
X5.9375Y-4.1328
X6.1328Y-4.8828
X6.3125Y-5.6328
X7.4375Y-4.1328
X7.4734Y-4.9328
X7.5312Y-4.8828
X7.7188Y-6.387
X7.8125Y-5.6328
X8.7859Y-4.9328
X8.9375Y-4.1328
X9.125Y-4.8935
X9.3125Y-5.6328
X9.3125Y-6.3828
X10.1188Y-4.2875
T2
X9.3125Y-5.2527
X9.3125Y-5.5598
X3.6875Y-6.0027
X3.6875Y-6.3098
X1.125Y-4.5027
X1.125Y-4.8098
X4.8125Y-5.2527
X4.8125Y-5.5598
X7.4375Y-3.7527
X7.4375Y-4.0598
X5.375Y-4.5027
X5.375Y-4.8098
X-0.375Y-6.0027
X-0.375Y-6.3098
X8.1875Y-3.7527
X8.1875Y-4.0598
X2.2812Y-4.5027
X2.2812Y-4.8098
X4.4375Y-6.0027
X4.4375Y-6.3098
X10.7188Y-4.5027
X10.7188Y-4.8098
X-0.375Y-4.5027
X-0.375Y-4.8098
X8.5625Y-5.2527
X8.5625Y-5.5598
X6.3125Y-5.2527
X6.3125Y-5.5598
X9.3125Y-6.0027
X9.3125Y-6.3098
X-0.375Y-5.2527
X-0.375Y-5.5598
X7.8125Y-5.2527
X7.8125Y-5.5598
X7.7188Y-6.0027
X7.7188Y-6.3098
X0.5Y-3.7527
X0.5Y-4.0598
X10.0625Y-5.2527
X10.0625Y-5.5598
X8.5625Y-6.0027
X8.5625Y-6.3098
X6.6875Y-3.7527
X6.6875Y-4.0598
X2.375Y-5.2527
X2.375Y-5.5598
X3.3125Y-5.2527
X3.3125Y-5.5598
X3.6875Y-3.7527
X3.6875Y-4.0598
X-0.25Y-5.2527
X-0.25Y-5.5598
X-0.25Y-4.5027
X-0.25Y-4.8098
X3.875Y-4.5027
X3.875Y-4.8098
X5.2812Y-6.0027
X5.2812Y-6.3098
X5.1875Y-3.7527
X5.1875Y-4.0598
X0.5Y-4.5027
X0.5Y-4.8098
X6.5Y-6.0027
X6.5Y-6.3098
X9.125Y-4.5027
X9.125Y-4.8098
X0.5Y-6.0027
X0.5Y-6.3098
X5.5625Y-5.2527
X5.5625Y-5.5598
X6.125Y-4.5027
X6.125Y-4.8098
X10.8125Y-5.2527
X10.8125Y-5.5598
X3.125Y-4.5027
X3.125Y-4.8098
X2.9375Y-6.0027
X2.9375Y-6.3098
X10.0625Y-6.0027
X10.0625Y-6.3098
X8.9375Y-3.7527
X8.9375Y-4.0598
X7.0625Y-5.2527
X7.0625Y-5.5598
X2.1875Y-6.0027
X2.1875Y-6.3098
X-0.25Y-3.7527
X-0.25Y-4.0598
X0.5Y-5.2527
X0.5Y-5.5598
X2.9375Y-3.7527
X2.9375Y-4.0598
X1.25Y-5.2527
X1.25Y-5.5598
X5.9375Y-3.7527
X5.9375Y-4.0598
X9.875Y-4.5027
X9.875Y-4.8098
X1.125Y-3.7527
X1.125Y-4.0598
X8.375Y-4.5027
X8.375Y-4.8098
X9.6875Y-3.7527
X9.6875Y-4.0598
X6.875Y-4.5027
X6.875Y-4.8098
X-0.25Y-6.0027
X-0.25Y-6.3098
X7.625Y-4.5027
X7.625Y-4.8098
X10.8125Y-6.0027
X10.8125Y-6.3098
X4.625Y-4.5027
X4.625Y-4.8098
X-0.375Y-3.7527
X-0.375Y-4.0598
X2.1875Y-3.7527
X2.1875Y-4.0598
X1.25Y-6.0027
X1.25Y-6.3098
X4.4375Y-3.7527
X4.4375Y-4.0598
X4.0625Y-5.2527
X4.0625Y-5.5598
X10.625Y-3.7527
X10.625Y-4.0598
T3
X1.2625Y-3.6375
X1.2625Y-3.7375
X1.2625Y-3.8375
X1.2625Y-3.9375
X1.2625Y-4.0375
X1.2625Y-4.1375
X1.2625Y-4.2375
X1.2625Y-4.3375
X1.2625Y-4.4375
X1.2625Y-4.5375
X1.2625Y-4.6375
X1.2625Y-4.7375
X1.8625Y-3.6375
X1.8625Y-3.7375
X1.8625Y-3.8375
X1.8625Y-3.9375
X1.8625Y-4.0375
X1.8625Y-4.1375
X1.8625Y-4.2375
X1.8625Y-4.3375
X1.8625Y-4.4375
X1.8625Y-4.5375
X1.8625Y-4.6375
X1.8625Y-4.7375
T4
X3.85Y-3.8062
X3.9016Y-3.7488
X4.0984Y-3.7291
X4.1Y-3.7062
X10.225Y-5.3062
X10.2766Y-5.2488
X10.4734Y-5.2291
X10.475Y-5.2062
X6.475Y-5.3062
X6.5266Y-5.2488
X6.7234Y-5.2291
X6.725Y-5.2062
X-0.8375Y-6.0562
X-0.7859Y-5.9988
X-0.5891Y-5.9791
X-0.5875Y-5.9562
X3.475Y-5.3062
X3.5266Y-5.2488
X3.7234Y-5.2291
X3.725Y-5.2062
X5.35Y-3.8062
X5.4016Y-3.7488
X5.5984Y-3.7291
X5.6Y-3.7062
X-0.8375Y-5.3062
X-0.7859Y-5.2488
X-0.5891Y-5.2291
X-0.5875Y-5.2062
X7.7875Y-4.5562
X7.8391Y-4.4988
X8.0359Y-4.4791
X8.0375Y-4.4562
X1.4125Y-3.8062
X1.4641Y-3.7488
X1.6609Y-3.7291
X1.6625Y-3.7062
X8.5375Y-4.5562
X8.5891Y-4.4988
X8.7859Y-4.4791
X8.7875Y-4.4562
X-0.0875Y-4.5562
X-0.0359Y-4.4988
X0.1609Y-4.4791
X0.1625Y-4.4562
X2.4438Y-4.5562
X2.4953Y-4.4988
X2.6922Y-4.4791
X2.6938Y-4.4562
X4.6Y-3.8062
X4.6516Y-3.7488
X4.8484Y-3.7291
X4.85Y-3.7062
X9.2875Y-4.5562
X9.3391Y-4.4988
X9.5359Y-4.4791
X9.5375Y-4.4562
X4.6Y-6.0562
X4.6516Y-5.9988
X4.8484Y-5.9791
X4.85Y-5.9562
X4.975Y-5.3062
X5.0266Y-5.2488
X5.2234Y-5.2291
X5.225Y-5.2062
X4.0375Y-4.5562
X4.0891Y-4.4988
X4.2859Y-4.4791
X4.2875Y-4.4562
X7.8812Y-6.0562
X7.9328Y-5.9988
X8.1297Y-5.9791
X8.1312Y-5.9562
X9.1Y-3.8062
X9.1516Y-3.7488
X9.3484Y-3.7291
X9.35Y-3.7062
X9.475Y-6.0562
X9.5266Y-5.9988
X9.7234Y-5.9791
X9.725Y-5.9562
X7.225Y-5.3062
X7.2766Y-5.2488
X7.4734Y-5.2291
X7.475Y-5.2062
X0.6625Y-6.0562
X0.7141Y-5.9988
X0.9109Y-5.9791
X0.9125Y-5.9562
X5.725Y-5.3062
X5.7766Y-5.2488
X5.9734Y-5.2291
X5.975Y-5.2062
X-0.8375Y-3.8062
X-0.7859Y-3.7488
X-0.5891Y-3.7291
X-0.5875Y-3.7062
X1.4125Y-5.3062
X1.4641Y-5.2488
X1.6609Y-5.2291
X1.6625Y-5.2062
X10.225Y-6.0562
X10.2766Y-5.9988
X10.4734Y-5.9791
X10.475Y-5.9562
X10.8812Y-4.5562
X10.9328Y-4.4988
X11.1297Y-4.4791
X11.1312Y-4.4562
X3.1Y-6.0562
X3.1516Y-5.9988
X3.3484Y-5.9791
X3.35Y-5.9562
X7.0375Y-4.5562
X7.0891Y-4.4988
X7.2859Y-4.4791
X7.2875Y-4.4562
X7.6Y-3.8062
X7.6516Y-3.7488
X7.8484Y-3.7291
X7.85Y-3.7062
X3.2875Y-4.5562
X3.3391Y-4.4988
X3.5359Y-4.4791
X3.5375Y-4.4562
X8.35Y-3.8062
X8.4016Y-3.7488
X8.5984Y-3.7291
X8.6Y-3.7062
X-0.0875Y-6.0562
X-0.0359Y-5.9988
X0.1609Y-5.9791
X0.1625Y-5.9562
X5.5375Y-4.5562
X5.5891Y-4.4988
X5.7859Y-4.4791
X5.7875Y-4.4562
X6.6625Y-6.0562
X6.7141Y-5.9988
X6.9109Y-5.9791
X6.9125Y-5.9562
X1.4125Y-6.0562
X1.4641Y-5.9988
X1.6609Y-5.9791
X1.6625Y-5.9562
X1.4125Y-4.5562
X1.4641Y-4.4988
X1.6609Y-4.4791
X1.6625Y-4.4562
X3.85Y-6.0562
X3.9016Y-5.9988
X4.0984Y-5.9791
X4.1Y-5.9562
X10.7875Y-3.8062
X10.8391Y-3.7488
X11.0359Y-3.7291
X11.0375Y-3.7062
X9.475Y-5.3062
X9.5266Y-5.2488
X9.7234Y-5.2291
X9.725Y-5.2062
X3.1Y-3.8062
X3.1516Y-3.7488
X3.3484Y-3.7291
X3.35Y-3.7062
X2.35Y-6.0562
X2.4016Y-5.9988
X2.5984Y-5.9791
X2.6Y-5.9562
X0.6625Y-3.8062
X0.7141Y-3.7488
X0.9109Y-3.7291
X0.9125Y-3.7062
X8.725Y-6.0562
X8.7766Y-5.9988
X8.9734Y-5.9791
X8.975Y-5.9562
X7.975Y-5.3062
X8.0266Y-5.2488
X8.2234Y-5.2291
X8.225Y-5.2062
X10.975Y-6.0562
X11.0266Y-5.9988
X11.2234Y-5.9791
X11.225Y-5.9562
X6.1Y-3.8062
X6.1516Y-3.7488
X6.3484Y-3.7291
X6.35Y-3.7062
X4.225Y-5.3062
X4.2766Y-5.2488
X4.4734Y-5.2291
X4.475Y-5.2062
X6.85Y-3.8062
X6.9016Y-3.7488
X7.0984Y-3.7291
X7.1Y-3.7062
X0.6625Y-5.3062
X0.7141Y-5.2488
X0.9109Y-5.2291
X0.9125Y-5.2062
X5.4437Y-6.0562
X5.4953Y-5.9988
X5.6922Y-5.9791
X5.6937Y-5.9562
X9.85Y-3.8062
X9.9016Y-3.7488
X10.0984Y-3.7291
X10.1Y-3.7062
X10.0375Y-4.5562
X10.0891Y-4.4988
X10.2859Y-4.4791
X10.2875Y-4.4562
X10.975Y-5.3062
X11.0266Y-5.2488
X11.2234Y-5.2291
X11.225Y-5.2062
X2.35Y-3.8062
X2.4016Y-3.7488
X2.5984Y-3.7291
X2.6Y-3.7062
X6.2875Y-4.5562
X6.3391Y-4.4988
X6.5359Y-4.4791
X6.5375Y-4.4562
X-0.0875Y-3.8062
X-0.0359Y-3.7488
X0.1609Y-3.7291
X0.1625Y-3.7062
X2.5375Y-5.3062
X2.5891Y-5.2488
X2.7859Y-5.2291
X2.7875Y-5.2062
X-0.8375Y-4.5562
X-0.7859Y-4.4988
X-0.5891Y-4.4791
X-0.5875Y-4.4562
X8.725Y-5.3062
X8.7766Y-5.2488
X8.9734Y-5.2291
X8.975Y-5.2062
X-0.0875Y-5.3062
X-0.0359Y-5.2488
X0.1609Y-5.2291
X0.1625Y-5.2062
X4.7875Y-4.5562
X4.8391Y-4.4988
X5.0359Y-4.4791
X5.0375Y-4.4562
X0.6625Y-4.5562
X0.7141Y-4.4988
X0.9109Y-4.4791
X0.9125Y-4.4562
T0
M30
