G04 #@! TF.GenerationSoftware,KiCad,Pcbnew,(5.1.4)-1*
G04 #@! TF.CreationDate,2020-04-28T19:53:12-05:00*
G04 #@! TF.ProjectId,AugioS,41756769-6f53-42e6-9b69-6361645f7063,rev?*
G04 #@! TF.SameCoordinates,Original*
G04 #@! TF.FileFunction,Paste,Top*
G04 #@! TF.FilePolarity,Positive*
%FSLAX46Y46*%
G04 Gerber Fmt 4.6, Leading zero omitted, Abs format (unit mm)*
G04 Created by KiCad (PCBNEW (5.1.4)-1) date 2020-04-28 19:53:12*
%MOMM*%
%LPD*%
G04 APERTURE LIST*
%ADD10R,1.200000X1.600000*%
G04 APERTURE END LIST*
D10*
X165100000Y-157768750D03*
X165100000Y-154968750D03*
X-9525000Y-154968750D03*
X-9525000Y-157768750D03*
X-9525000Y-135918750D03*
X-9525000Y-138718750D03*
X-9525000Y-116868750D03*
X-9525000Y-119668750D03*
X-9525000Y-100618750D03*
X-9525000Y-97818750D03*
X255587500Y-157768750D03*
X255587500Y-154968750D03*
X217487500Y-157768750D03*
X217487500Y-154968750D03*
X134143750Y-157768750D03*
X134143750Y-154968750D03*
X93662500Y-157768750D03*
X93662500Y-154968750D03*
X55562500Y-157768750D03*
X55562500Y-154968750D03*
X12700000Y-157768750D03*
X12700000Y-154968750D03*
X274637500Y-157768750D03*
X274637500Y-154968750D03*
X236537500Y-157768750D03*
X236537500Y-154968750D03*
X196056250Y-157768750D03*
X196056250Y-154968750D03*
X112712500Y-157768750D03*
X112712500Y-154968750D03*
X74612500Y-157768750D03*
X74612500Y-154968750D03*
X31750000Y-157768750D03*
X31750000Y-154968750D03*
X-6350000Y-157768750D03*
X-6350000Y-154968750D03*
X255587500Y-138718750D03*
X255587500Y-135918750D03*
X217487500Y-138718750D03*
X217487500Y-135918750D03*
X179387500Y-138718750D03*
X179387500Y-135918750D03*
X141287500Y-138718750D03*
X141287500Y-135918750D03*
X103187500Y-138718750D03*
X103187500Y-135918750D03*
X60325000Y-138718750D03*
X60325000Y-135918750D03*
X12700000Y-138718750D03*
X12700000Y-135918750D03*
X274637500Y-138718750D03*
X274637500Y-135918750D03*
X236537500Y-138718750D03*
X236537500Y-135918750D03*
X198437500Y-138718750D03*
X198437500Y-135918750D03*
X160337500Y-138718750D03*
X160337500Y-135918750D03*
X122237500Y-138718750D03*
X122237500Y-135918750D03*
X84137500Y-138718750D03*
X84137500Y-135918750D03*
X31750000Y-138718750D03*
X31750000Y-135918750D03*
X-6350000Y-138718750D03*
X-6350000Y-135918750D03*
X250825000Y-119668750D03*
X250825000Y-116868750D03*
X212725000Y-119668750D03*
X212725000Y-116868750D03*
X174625000Y-119668750D03*
X174625000Y-116868750D03*
X136525000Y-119668750D03*
X136525000Y-116868750D03*
X98425000Y-119668750D03*
X98425000Y-116868750D03*
X57943750Y-119668750D03*
X57943750Y-116868750D03*
X12700000Y-119668750D03*
X12700000Y-116868750D03*
X272256250Y-119668750D03*
X272256250Y-116868750D03*
X231775000Y-119668750D03*
X231775000Y-116868750D03*
X193675000Y-119668750D03*
X193675000Y-116868750D03*
X155575000Y-119668750D03*
X155575000Y-116868750D03*
X117475000Y-119668750D03*
X117475000Y-116868750D03*
X79375000Y-119668750D03*
X79375000Y-116868750D03*
X28575000Y-119668750D03*
X28575000Y-116868750D03*
X-6350000Y-119668750D03*
X-6350000Y-116868750D03*
X246062500Y-100618750D03*
X246062500Y-97818750D03*
X207962500Y-100618750D03*
X207962500Y-97818750D03*
X169862500Y-100618750D03*
X169862500Y-97818750D03*
X131762500Y-100618750D03*
X131762500Y-97818750D03*
X93662500Y-100618750D03*
X93662500Y-97818750D03*
X55562500Y-100618750D03*
X55562500Y-97818750D03*
X12700000Y-100618750D03*
X12700000Y-97818750D03*
X269875000Y-100618750D03*
X269875000Y-97818750D03*
X227012500Y-100618750D03*
X227012500Y-97818750D03*
X188912500Y-100618750D03*
X188912500Y-97818750D03*
X150812500Y-100618750D03*
X150812500Y-97818750D03*
X112712500Y-100618750D03*
X112712500Y-97818750D03*
X74612500Y-100618750D03*
X74612500Y-97818750D03*
X28575000Y-100618750D03*
X28575000Y-97818750D03*
X-6350000Y-100618750D03*
X-6350000Y-97818750D03*
M02*
