<?xml version="1.0"?>
<!-- Generated by SVGo -->
<svg width="345.089mm" height="102.202mm"
     viewBox="0.000 0.000 345.089 102.202"
     xmlns="http://www.w3.org/2000/svg" 
     xmlns:xlink="http://www.w3.org/1999/xlink">
<polygon points="338.089,5.001 338.246,5.007 338.402,5.025 338.556,5.056 338.707,5.098 338.854,5.153 338.997,5.218 339.134,5.295 339.265,5.382 339.388,5.480 339.503,5.586 339.610,5.702 339.707,5.825 339.794,5.956 339.871,6.093 339.937,6.235 339.991,6.382 340.034,6.534 340.064,6.688 340.083,6.844 340.089,7.001 340.089,95.202 340.083,95.358 340.064,95.514 340.034,95.668 339.991,95.820 339.937,95.967 339.871,96.109 339.794,96.246 339.707,96.377 339.610,96.500 339.503,96.616 339.388,96.722 339.265,96.820 339.134,96.907 338.997,96.984 338.854,97.049 338.707,97.104 338.556,97.146 338.402,97.177 338.246,97.195 338.089,97.201 7.001,97.202 6.844,97.195 6.688,97.177 6.534,97.146 6.382,97.104 6.235,97.049 6.093,96.984 5.956,96.907 5.825,96.820 5.702,96.722 5.586,96.616 5.480,96.500 5.382,96.377 5.295,96.246 5.218,96.109 5.153,95.967 5.098,95.820 5.056,95.668 5.025,95.514 5.007,95.358 5.000,95.202 5.001,7.001 5.007,6.844 5.025,6.688 5.056,6.534 5.098,6.382 5.153,6.235 5.218,6.093 5.295,5.956 5.382,5.825 5.480,5.702 5.586,5.586 5.702,5.480 5.825,5.382 5.956,5.295 6.093,5.218 6.235,5.153 6.382,5.098 6.534,5.056 6.688,5.025 6.844,5.007 7.001,5.000" style="fill:none;stroke-width:0.050000mm;stroke:blue"/>
<polygon points="7.037,93.275 6.619,93.488 6.287,93.820 6.074,94.238 6.000,94.702 6.074,95.165 6.287,95.583 6.619,95.915 7.037,96.128 7.501,96.202 7.964,96.128 8.382,95.915 8.714,95.583 8.927,95.165 9.001,94.702 8.927,94.238 8.714,93.820 8.382,93.488 7.964,93.275 7.501,93.202" style="fill:none;stroke-width:0.050000mm;stroke:blue"/>
<polygon points="117.066,93.275 116.648,93.488 116.316,93.820 116.103,94.238 116.030,94.702 116.103,95.165 116.316,95.583 116.648,95.915 117.066,96.128 117.530,96.202 117.994,96.128 118.412,95.915 118.744,95.583 118.957,95.165 119.030,94.702 118.957,94.238 118.744,93.820 118.412,93.488 117.994,93.275 117.530,93.202" style="fill:none;stroke-width:0.050000mm;stroke:blue"/>
<polygon points="227.096,93.275 226.678,93.488 226.346,93.820 226.133,94.238 226.060,94.702 226.133,95.165 226.346,95.583 226.678,95.915 227.096,96.128 227.560,96.202 228.023,96.128 228.441,95.915 228.773,95.583 228.986,95.165 229.060,94.702 228.986,94.238 228.773,93.820 228.441,93.488 228.023,93.275 227.560,93.202" style="fill:none;stroke-width:0.050000mm;stroke:blue"/>
<polygon points="337.125,93.275 336.707,93.488 336.375,93.820 336.162,94.238 336.089,94.702 336.162,95.165 336.375,95.583 336.707,95.915 337.125,96.128 337.589,96.202 338.053,96.128 338.471,95.915 338.803,95.583 339.016,95.165 339.089,94.702 339.016,94.238 338.803,93.820 338.471,93.488 338.053,93.275 337.589,93.202" style="fill:none;stroke-width:0.050000mm;stroke:blue"/>
<polygon points="93.962,12.999 93.962,89.202 332.089,89.202 332.089,12.999 217.787,12.999 217.787,70.150 208.264,70.150 208.264,12.999" style="fill:none;stroke-width:0.050000mm;stroke:blue"/>
<polygon points="12.999,12.999 12.999,89.202 89.202,89.202 89.202,12.999" style="fill:none;stroke-width:0.050000mm;stroke:blue"/>
<polygon points="7.037,6.074 6.619,6.287 6.287,6.619 6.074,7.037 6.000,7.501 6.074,7.964 6.287,8.382 6.619,8.714 7.037,8.927 7.501,9.001 7.964,8.927 8.382,8.714 8.714,8.382 8.927,7.964 9.001,7.501 8.927,7.037 8.714,6.619 8.382,6.287 7.964,6.074 7.501,6.001" style="fill:none;stroke-width:0.050000mm;stroke:blue"/>
<polygon points="337.125,6.074 336.707,6.287 336.375,6.619 336.162,7.037 336.089,7.501 336.162,7.964 336.375,8.382 336.707,8.714 337.125,8.927 337.589,9.001 338.053,8.927 338.471,8.714 338.803,8.382 339.016,7.964 339.089,7.501 339.016,7.037 338.803,6.619 338.471,6.287 338.053,6.074 337.589,6.001" style="fill:none;stroke-width:0.050000mm;stroke:blue"/>
<polygon points="227.096,6.074 226.678,6.287 226.346,6.619 226.133,7.037 226.060,7.501 226.133,7.964 226.346,8.382 226.678,8.714 227.096,8.927 227.560,9.001 228.023,8.927 228.441,8.714 228.773,8.382 228.986,7.964 229.060,7.501 228.986,7.037 228.773,6.619 228.441,6.287 228.023,6.074 227.560,6.001" style="fill:none;stroke-width:0.050000mm;stroke:blue"/>
<polygon points="117.066,6.074 116.648,6.287 116.316,6.619 116.103,7.037 116.030,7.501 116.103,7.964 116.316,8.382 116.648,8.714 117.066,8.927 117.530,9.001 117.994,8.927 118.412,8.714 118.744,8.382 118.957,7.964 119.030,7.501 118.957,7.037 118.744,6.619 118.412,6.287 117.994,6.074 117.530,6.001" style="fill:none;stroke-width:0.050000mm;stroke:blue"/>
</svg>
