<?xml version="1.0"?>
<!-- Generated by SVGo -->
<svg width="329.090mm" height="86.202mm"
     viewBox="0.000 0.000 329.090 86.202"
     xmlns="http://www.w3.org/2000/svg" 
     xmlns:xlink="http://www.w3.org/1999/xlink">
<polygon points="322.089,5.001 322.246,5.007 322.402,5.025 322.556,5.056 322.707,5.098 322.854,5.153 322.997,5.218 323.134,5.295 323.265,5.382 323.388,5.480 323.503,5.586 323.610,5.702 323.707,5.825 323.794,5.956 323.871,6.093 323.937,6.235 323.991,6.382 324.034,6.534 324.064,6.688 324.083,6.844 324.089,7.001 324.089,79.202 324.083,79.358 324.064,79.514 324.034,79.668 323.991,79.820 323.937,79.967 323.871,80.109 323.794,80.246 323.707,80.377 323.610,80.500 323.503,80.616 323.388,80.722 323.265,80.820 323.134,80.907 322.997,80.984 322.854,81.049 322.707,81.104 322.556,81.146 322.402,81.177 322.246,81.195 322.089,81.201 7.001,81.202 6.844,81.195 6.688,81.177 6.534,81.146 6.382,81.104 6.235,81.049 6.093,80.984 5.956,80.907 5.825,80.820 5.702,80.722 5.586,80.616 5.480,80.500 5.382,80.377 5.295,80.246 5.218,80.109 5.153,79.967 5.098,79.820 5.056,79.668 5.025,79.514 5.007,79.358 5.000,79.202 5.001,7.001 5.007,6.844 5.025,6.688 5.056,6.534 5.098,6.382 5.153,6.235 5.218,6.093 5.295,5.956 5.382,5.825 5.480,5.702 5.586,5.586 5.702,5.480 5.825,5.382 5.956,5.295 6.093,5.218 6.235,5.153 6.382,5.098 6.534,5.056 6.688,5.025 6.844,5.007 7.001,5.000" style="fill:none;stroke-width:0.050000mm;stroke:black"/>
<polygon points="198.026,64.676 198.026,65.275 197.226,65.275 197.226,69.376 196.501,69.376 196.501,66.146 194.776,66.146 194.776,65.225 191.476,65.225 191.476,66.146 189.751,66.146 189.751,69.376 188.926,69.376 188.926,72.176 189.751,72.176 189.751,78.446 191.476,78.446 191.476,79.426 194.776,79.426 194.776,78.446 196.501,78.446 196.501,73.976 197.226,73.976 197.226,78.076 198.026,78.076 198.026,78.676 212.026,78.676 212.026,78.076 212.826,78.076 212.826,73.976 213.551,73.976 213.551,78.446 215.276,78.446 215.276,79.426 218.576,79.426 218.576,78.446 220.301,78.446 220.301,72.176 221.126,72.176 221.126,69.376 220.301,69.376 220.301,66.146 218.576,66.146 218.576,65.225 215.276,65.225 215.276,66.146 213.551,66.146 213.551,69.376 212.826,69.376 212.826,65.275 212.026,65.275 212.026,64.676" style="fill:none;stroke-width:0.050000mm;stroke:black"/>
<polygon points="307.563,64.676 307.563,65.275 306.763,65.275 306.763,78.076 307.563,78.076 307.563,78.676 321.563,78.676 321.563,78.076 322.363,78.076 322.363,65.275 321.563,65.275 321.563,64.676" style="fill:none;stroke-width:0.050000mm;stroke:black"/>
<polygon points="288.513,64.676 288.513,65.275 287.713,65.275 287.713,78.076 288.513,78.076 288.513,78.676 302.513,78.676 302.513,78.076 303.313,78.076 303.313,65.275 302.513,65.275 302.513,64.676" style="fill:none;stroke-width:0.050000mm;stroke:black"/>
<polygon points="269.463,64.676 269.463,65.275 268.663,65.275 268.663,78.076 269.463,78.076 269.463,78.676 283.463,78.676 283.463,78.076 284.263,78.076 284.263,65.275 283.463,65.275 283.463,64.676" style="fill:none;stroke-width:0.050000mm;stroke:black"/>
<polygon points="250.413,64.676 250.413,65.275 249.613,65.275 249.613,78.076 250.413,78.076 250.413,78.676 264.413,78.676 264.413,78.076 265.213,78.076 265.213,65.275 264.413,65.275 264.413,64.676" style="fill:none;stroke-width:0.050000mm;stroke:black"/>
<polygon points="228.982,64.676 228.982,65.275 228.182,65.275 228.182,78.076 228.982,78.076 228.982,78.676 242.982,78.676 242.982,78.076 243.782,78.076 243.782,65.275 242.982,65.275 242.982,64.676" style="fill:none;stroke-width:0.050000mm;stroke:black"/>
<polygon points="167.069,64.676 167.069,65.275 166.269,65.275 166.269,78.076 167.069,78.076 167.069,78.676 181.069,78.676 181.069,78.076 181.869,78.076 181.869,65.275 181.069,65.275 181.069,64.676" style="fill:none;stroke-width:0.050000mm;stroke:black"/>
<polygon points="145.638,64.676 145.638,65.275 144.838,65.275 144.838,78.076 145.638,78.076 145.638,78.676 159.638,78.676 159.638,78.076 160.438,78.076 160.438,65.275 159.638,65.275 159.638,64.676" style="fill:none;stroke-width:0.050000mm;stroke:black"/>
<polygon points="126.588,64.676 126.588,65.275 125.788,65.275 125.788,78.076 126.588,78.076 126.588,78.676 140.588,78.676 140.588,78.076 141.388,78.076 141.388,65.275 140.588,65.275 140.588,64.676" style="fill:none;stroke-width:0.050000mm;stroke:black"/>
<polygon points="107.538,64.676 107.538,65.275 106.738,65.275 106.738,78.076 107.538,78.076 107.538,78.676 121.538,78.676 121.538,78.076 122.338,78.076 122.338,65.275 121.538,65.275 121.538,64.676" style="fill:none;stroke-width:0.050000mm;stroke:black"/>
<polygon points="88.488,64.676 88.488,65.275 87.688,65.275 87.688,78.076 88.488,78.076 88.488,78.676 102.488,78.676 102.488,78.076 103.288,78.076 103.288,65.275 102.488,65.275 102.488,64.676" style="fill:none;stroke-width:0.050000mm;stroke:black"/>
<polygon points="64.676,64.676 64.676,65.275 63.876,65.275 63.876,78.076 64.676,78.076 64.676,78.676 78.676,78.676 78.676,78.076 79.476,78.076 79.476,65.275 78.676,65.275 78.676,64.676" style="fill:none;stroke-width:0.050000mm;stroke:black"/>
<polygon points="45.626,64.676 45.626,65.275 44.826,65.275 44.826,78.076 45.626,78.076 45.626,78.676 59.626,78.676 59.626,78.076 60.426,78.076 60.426,65.275 59.626,65.275 59.626,64.676" style="fill:none;stroke-width:0.050000mm;stroke:black"/>
<polygon points="26.576,64.676 26.576,65.275 25.776,65.275 25.776,78.076 26.576,78.076 26.576,78.676 40.576,78.676 40.576,78.076 41.376,78.076 41.376,65.275 40.576,65.275 40.576,64.676" style="fill:none;stroke-width:0.050000mm;stroke:black"/>
<polygon points="7.526,64.676 7.526,65.275 6.726,65.275 6.726,78.076 7.526,78.076 7.526,78.676 21.526,78.676 21.526,78.076 22.326,78.076 22.326,65.275 21.526,65.275 21.526,64.676" style="fill:none;stroke-width:0.050000mm;stroke:black"/>
<polygon points="307.563,45.626 307.563,46.226 306.763,46.226 306.763,59.026 307.563,59.026 307.563,59.626 321.563,59.626 321.563,59.026 322.363,59.026 322.363,46.226 321.563,46.226 321.563,45.626" style="fill:none;stroke-width:0.050000mm;stroke:black"/>
<polygon points="288.513,45.626 288.513,46.226 287.713,46.226 287.713,59.026 288.513,59.026 288.513,59.626 302.513,59.626 302.513,59.026 303.313,59.026 303.313,46.226 302.513,46.226 302.513,45.626" style="fill:none;stroke-width:0.050000mm;stroke:black"/>
<polygon points="269.463,45.626 269.463,46.226 268.663,46.226 268.663,59.026 269.463,59.026 269.463,59.626 283.463,59.626 283.463,59.026 284.263,59.026 284.263,46.226 283.463,46.226 283.463,45.626" style="fill:none;stroke-width:0.050000mm;stroke:black"/>
<polygon points="250.413,45.626 250.413,46.226 249.613,46.226 249.613,59.026 250.413,59.026 250.413,59.626 264.413,59.626 264.413,59.026 265.213,59.026 265.213,46.226 264.413,46.226 264.413,45.626" style="fill:none;stroke-width:0.050000mm;stroke:black"/>
<polygon points="231.363,45.626 231.363,46.226 230.563,46.226 230.563,59.026 231.363,59.026 231.363,59.626 245.363,59.626 245.363,59.026 246.163,59.026 246.163,46.226 245.363,46.226 245.363,45.626" style="fill:none;stroke-width:0.050000mm;stroke:black"/>
<polygon points="212.313,45.626 212.313,46.226 211.513,46.226 211.513,59.026 212.313,59.026 212.313,59.626 226.313,59.626 226.313,59.026 227.113,59.026 227.113,46.226 226.313,46.226 226.313,45.626" style="fill:none;stroke-width:0.050000mm;stroke:black"/>
<polygon points="183.738,45.626 183.738,46.226 182.938,46.226 182.938,59.026 183.738,59.026 183.738,59.626 197.738,59.626 197.738,59.026 198.538,59.026 198.538,46.226 197.738,46.226 197.738,45.626" style="fill:none;stroke-width:0.050000mm;stroke:black"/>
<polygon points="164.688,45.626 164.688,46.226 163.888,46.226 163.888,59.026 164.688,59.026 164.688,59.626 178.688,59.626 178.688,59.026 179.488,59.026 179.488,46.226 178.688,46.226 178.688,45.626" style="fill:none;stroke-width:0.050000mm;stroke:black"/>
<polygon points="145.638,45.626 145.638,46.226 144.838,46.226 144.838,59.026 145.638,59.026 145.638,59.626 159.638,59.626 159.638,59.026 160.438,59.026 160.438,46.226 159.638,46.226 159.638,45.626" style="fill:none;stroke-width:0.050000mm;stroke:black"/>
<polygon points="126.588,45.626 126.588,46.226 125.788,46.226 125.788,59.026 126.588,59.026 126.588,59.626 140.588,59.626 140.588,59.026 141.388,59.026 141.388,46.226 140.588,46.226 140.588,45.626" style="fill:none;stroke-width:0.050000mm;stroke:black"/>
<polygon points="107.538,45.626 107.538,46.226 106.738,46.226 106.738,59.026 107.538,59.026 107.538,59.626 121.538,59.626 121.538,59.026 122.338,59.026 122.338,46.226 121.538,46.226 121.538,45.626" style="fill:none;stroke-width:0.050000mm;stroke:black"/>
<polygon points="88.488,45.626 88.488,46.226 87.688,46.226 87.688,59.026 88.488,59.026 88.488,59.626 102.488,59.626 102.488,59.026 103.288,59.026 103.288,46.226 102.488,46.226 102.488,45.626" style="fill:none;stroke-width:0.050000mm;stroke:black"/>
<polygon points="64.676,45.626 64.676,46.226 63.876,46.226 63.876,59.026 64.676,59.026 64.676,59.626 78.676,59.626 78.676,59.026 79.476,59.026 79.476,46.226 78.676,46.226 78.676,45.626" style="fill:none;stroke-width:0.050000mm;stroke:black"/>
<polygon points="45.626,45.626 45.626,46.226 44.826,46.226 44.826,59.026 45.626,59.026 45.626,59.626 59.626,59.626 59.626,59.026 60.426,59.026 60.426,46.226 59.626,46.226 59.626,45.626" style="fill:none;stroke-width:0.050000mm;stroke:black"/>
<polygon points="26.576,45.626 26.576,46.226 25.776,46.226 25.776,59.026 26.576,59.026 26.576,59.626 40.576,59.626 40.576,59.026 41.376,59.026 41.376,46.226 40.576,46.226 40.576,45.626" style="fill:none;stroke-width:0.050000mm;stroke:black"/>
<polygon points="7.526,45.626 7.526,46.226 6.726,46.226 6.726,59.026 7.526,59.026 7.526,59.626 21.526,59.626 21.526,59.026 22.326,59.026 22.326,46.226 21.526,46.226 21.526,45.626" style="fill:none;stroke-width:0.050000mm;stroke:black"/>
<polygon points="307.563,26.576 307.563,27.176 306.763,27.176 306.763,39.976 307.563,39.976 307.563,40.576 321.563,40.576 321.563,39.976 322.363,39.976 322.363,27.176 321.563,27.176 321.563,26.576" style="fill:none;stroke-width:0.050000mm;stroke:black"/>
<polygon points="288.513,26.576 288.513,27.176 287.713,27.176 287.713,39.976 288.513,39.976 288.513,40.576 302.513,40.576 302.513,39.976 303.313,39.976 303.313,27.176 302.513,27.176 302.513,26.576" style="fill:none;stroke-width:0.050000mm;stroke:black"/>
<polygon points="269.463,26.576 269.463,27.176 268.663,27.176 268.663,39.976 269.463,39.976 269.463,40.576 283.463,40.576 283.463,39.976 284.263,39.976 284.263,27.176 283.463,27.176 283.463,26.576" style="fill:none;stroke-width:0.050000mm;stroke:black"/>
<polygon points="250.413,26.576 250.413,27.176 249.613,27.176 249.613,39.976 250.413,39.976 250.413,40.576 264.413,40.576 264.413,39.976 265.213,39.976 265.213,27.176 264.413,27.176 264.413,26.576" style="fill:none;stroke-width:0.050000mm;stroke:black"/>
<polygon points="231.363,26.576 231.363,27.176 230.563,27.176 230.563,39.976 231.363,39.976 231.363,40.576 245.363,40.576 245.363,39.976 246.163,39.976 246.163,27.176 245.363,27.176 245.363,26.576" style="fill:none;stroke-width:0.050000mm;stroke:black"/>
<polygon points="212.313,26.576 212.313,27.176 211.513,27.176 211.513,39.976 212.313,39.976 212.313,40.576 226.313,40.576 226.313,39.976 227.113,39.976 227.113,27.176 226.313,27.176 226.313,26.576" style="fill:none;stroke-width:0.050000mm;stroke:black"/>
<polygon points="183.738,26.576 183.738,27.176 182.938,27.176 182.938,39.976 183.738,39.976 183.738,40.576 197.738,40.576 197.738,39.976 198.538,39.976 198.538,27.176 197.738,27.176 197.738,26.576" style="fill:none;stroke-width:0.050000mm;stroke:black"/>
<polygon points="164.688,26.576 164.688,27.176 163.888,27.176 163.888,39.976 164.688,39.976 164.688,40.576 178.688,40.576 178.688,39.976 179.488,39.976 179.488,27.176 178.688,27.176 178.688,26.576" style="fill:none;stroke-width:0.050000mm;stroke:black"/>
<polygon points="145.638,26.576 145.638,27.176 144.838,27.176 144.838,39.976 145.638,39.976 145.638,40.576 159.638,40.576 159.638,39.976 160.438,39.976 160.438,27.176 159.638,27.176 159.638,26.576" style="fill:none;stroke-width:0.050000mm;stroke:black"/>
<polygon points="126.588,26.576 126.588,27.176 125.788,27.176 125.788,39.976 126.588,39.976 126.588,40.576 140.588,40.576 140.588,39.976 141.388,39.976 141.388,27.176 140.588,27.176 140.588,26.576" style="fill:none;stroke-width:0.050000mm;stroke:black"/>
<polygon points="107.538,26.576 107.538,27.176 106.738,27.176 106.738,39.976 107.538,39.976 107.538,40.576 121.538,40.576 121.538,39.976 122.338,39.976 122.338,27.176 121.538,27.176 121.538,26.576" style="fill:none;stroke-width:0.050000mm;stroke:black"/>
<polygon points="88.488,26.576 88.488,27.176 87.688,27.176 87.688,39.976 88.488,39.976 88.488,40.576 102.488,40.576 102.488,39.976 103.288,39.976 103.288,27.176 102.488,27.176 102.488,26.576" style="fill:none;stroke-width:0.050000mm;stroke:black"/>
<polygon points="64.676,26.576 64.676,27.176 63.876,27.176 63.876,39.976 64.676,39.976 64.676,40.576 78.676,40.576 78.676,39.976 79.476,39.976 79.476,27.176 78.676,27.176 78.676,26.576" style="fill:none;stroke-width:0.050000mm;stroke:black"/>
<polygon points="45.626,26.576 45.626,27.176 44.826,27.176 44.826,39.976 45.626,39.976 45.626,40.576 59.626,40.576 59.626,39.976 60.426,39.976 60.426,27.176 59.626,27.176 59.626,26.576" style="fill:none;stroke-width:0.050000mm;stroke:black"/>
<polygon points="26.576,26.576 26.576,27.176 25.776,27.176 25.776,39.976 26.576,39.976 26.576,40.576 40.576,40.576 40.576,39.976 41.376,39.976 41.376,27.176 40.576,27.176 40.576,26.576" style="fill:none;stroke-width:0.050000mm;stroke:black"/>
<polygon points="7.526,26.576 7.526,27.176 6.726,27.176 6.726,39.976 7.526,39.976 7.526,40.576 21.526,40.576 21.526,39.976 22.326,39.976 22.326,27.176 21.526,27.176 21.526,26.576" style="fill:none;stroke-width:0.050000mm;stroke:black"/>
<polygon points="307.563,7.526 307.563,8.126 306.763,8.126 306.763,20.926 307.563,20.926 307.563,21.526 321.563,21.526 321.563,20.926 322.363,20.926 322.363,8.126 321.563,8.126 321.563,7.526" style="fill:none;stroke-width:0.050000mm;stroke:black"/>
<polygon points="288.513,7.526 288.513,8.126 287.713,8.126 287.713,20.926 288.513,20.926 288.513,21.526 302.513,21.526 302.513,20.926 303.313,20.926 303.313,8.126 302.513,8.126 302.513,7.526" style="fill:none;stroke-width:0.050000mm;stroke:black"/>
<polygon points="269.463,7.526 269.463,8.126 268.663,8.126 268.663,20.926 269.463,20.926 269.463,21.526 283.463,21.526 283.463,20.926 284.263,20.926 284.263,8.126 283.463,8.126 283.463,7.526" style="fill:none;stroke-width:0.050000mm;stroke:black"/>
<polygon points="250.413,7.526 250.413,8.126 249.613,8.126 249.613,20.926 250.413,20.926 250.413,21.526 264.413,21.526 264.413,20.926 265.213,20.926 265.213,8.126 264.413,8.126 264.413,7.526" style="fill:none;stroke-width:0.050000mm;stroke:black"/>
<polygon points="231.363,7.526 231.363,8.126 230.563,8.126 230.563,20.926 231.363,20.926 231.363,21.526 245.363,21.526 245.363,20.926 246.163,20.926 246.163,8.126 245.363,8.126 245.363,7.526" style="fill:none;stroke-width:0.050000mm;stroke:black"/>
<polygon points="212.313,7.526 212.313,8.126 211.513,8.126 211.513,20.926 212.313,20.926 212.313,21.526 226.313,21.526 226.313,20.926 227.113,20.926 227.113,8.126 226.313,8.126 226.313,7.526" style="fill:none;stroke-width:0.050000mm;stroke:black"/>
<polygon points="183.738,7.526 183.738,8.126 182.938,8.126 182.938,20.926 183.738,20.926 183.738,21.526 197.738,21.526 197.738,20.926 198.538,20.926 198.538,8.126 197.738,8.126 197.738,7.526" style="fill:none;stroke-width:0.050000mm;stroke:black"/>
<polygon points="164.688,7.526 164.688,8.126 163.888,8.126 163.888,20.926 164.688,20.926 164.688,21.526 178.688,21.526 178.688,20.926 179.488,20.926 179.488,8.126 178.688,8.126 178.688,7.526" style="fill:none;stroke-width:0.050000mm;stroke:black"/>
<polygon points="145.638,7.526 145.638,8.126 144.838,8.126 144.838,20.926 145.638,20.926 145.638,21.526 159.638,21.526 159.638,20.926 160.438,20.926 160.438,8.126 159.638,8.126 159.638,7.526" style="fill:none;stroke-width:0.050000mm;stroke:black"/>
<polygon points="126.588,7.526 126.588,8.126 125.788,8.126 125.788,20.926 126.588,20.926 126.588,21.526 140.588,21.526 140.588,20.926 141.388,20.926 141.388,8.126 140.588,8.126 140.588,7.526" style="fill:none;stroke-width:0.050000mm;stroke:black"/>
<polygon points="107.538,7.526 107.538,8.126 106.738,8.126 106.738,20.926 107.538,20.926 107.538,21.526 121.538,21.526 121.538,20.926 122.338,20.926 122.338,8.126 121.538,8.126 121.538,7.526" style="fill:none;stroke-width:0.050000mm;stroke:black"/>
<polygon points="88.488,7.526 88.488,8.126 87.688,8.126 87.688,20.926 88.488,20.926 88.488,21.526 102.488,21.526 102.488,20.926 103.288,20.926 103.288,8.126 102.488,8.126 102.488,7.526" style="fill:none;stroke-width:0.050000mm;stroke:black"/>
<polygon points="64.676,7.526 64.676,8.126 63.876,8.126 63.876,20.926 64.676,20.926 64.676,21.526 78.676,21.526 78.676,20.926 79.476,20.926 79.476,8.126 78.676,8.126 78.676,7.526" style="fill:none;stroke-width:0.050000mm;stroke:black"/>
<polygon points="45.626,7.526 45.626,8.126 44.826,8.126 44.826,20.926 45.626,20.926 45.626,21.526 59.626,21.526 59.626,20.926 60.426,20.926 60.426,8.126 59.626,8.126 59.626,7.526" style="fill:none;stroke-width:0.050000mm;stroke:black"/>
<polygon points="26.576,7.526 26.576,8.126 25.776,8.126 25.776,20.926 26.576,20.926 26.576,21.526 40.576,21.526 40.576,20.926 41.376,20.926 41.376,8.126 40.576,8.126 40.576,7.526" style="fill:none;stroke-width:0.050000mm;stroke:black"/>
<polygon points="7.526,7.526 7.526,8.126 6.726,8.126 6.726,20.926 7.526,20.926 7.526,21.526 21.526,21.526 21.526,20.926 22.326,20.926 22.326,8.126 21.526,8.126 21.526,7.526" style="fill:none;stroke-width:0.050000mm;stroke:black"/>
</svg>
