M48
; DRILL file {KiCad (5.1.4)-1} date 5/1/2020 4:15:30 AM
; FORMAT={-:-/ absolute / inch / decimal}
; #@! TF.CreationDate,2020-05-01T04:15:30-05:00
; #@! TF.GenerationSoftware,Kicad,Pcbnew,(5.1.4)-1
; #@! TF.FileFunction,Plated,1,2,PTH
FMAT,2
INCH
T1C0.0157
T2C0.0394
T3C0.0430
T4C0.0591
%
G90
G05
T1
X-0.375Y-4.1562
X-0.375Y-4.9062
X-0.375Y-5.6562
X-0.375Y-5.8657
X-0.375Y-6.4062
X-0.25Y-4.1875
X-0.25Y-4.9375
X-0.25Y-5.6875
X-0.25Y-6.4375
X0.1609Y-5.0359
X0.5Y-4.1562
X0.5Y-4.9062
X0.5Y-5.6562
X0.5Y-6.4062
X1.125Y-4.1875
X1.125Y-4.9375
X1.1875Y-4.9688
X1.2188Y-5.0
X1.25Y-5.0312
X1.25Y-5.6875
X1.25Y-6.4375
X1.3125Y-5.0312
X1.3169Y-4.1858
X1.6625Y-4.7562
X1.875Y-6.4062
X1.9062Y-6.4375
X1.9375Y-4.1875
X1.9385Y-5.6562
X1.9688Y-5.6875
X2.0Y-4.2188
X2.0Y-4.9062
X2.0312Y-4.9375
X2.125Y-3.6875
X2.1875Y-4.1562
X2.1875Y-4.9062
X2.1875Y-5.6562
X2.1875Y-6.4062
X2.6242Y-5.032
X2.9375Y-4.1875
X2.9375Y-4.9375
X2.9375Y-5.6875
X2.9375Y-6.4375
X3.6875Y-4.1562
X3.6875Y-4.9062
X3.6875Y-5.6562
X3.6875Y-6.4062
X4.15Y-4.3687
X4.4375Y-4.1875
X4.4375Y-4.9375
X4.4375Y-5.6875
X4.4375Y-6.4375
X5.1875Y-4.1562
X5.1875Y-4.9062
X5.1875Y-5.6562
X5.2812Y-6.4062
X5.65Y-5.0062
X5.9375Y-4.1875
X5.9375Y-4.9375
X5.9375Y-5.6875
X6.6875Y-5.7188
X7.0625Y-4.1562
X7.0625Y-4.9062
X7.0625Y-5.6562
X7.5Y-5.7188
X7.525Y-4.975
X7.7188Y-6.4375
X7.8125Y-4.1875
X7.8125Y-4.9375
X7.8125Y-5.6875
X8.5625Y-4.1562
X8.5625Y-4.9062
X8.5625Y-5.6562
X8.5625Y-6.4062
X9.025Y-4.1187
X9.025Y-4.2447
X9.3125Y-4.1875
X9.3125Y-4.9375
X9.3125Y-5.6875
X9.3125Y-6.4375
X9.7234Y-4.2453
X10.0625Y-4.1562
X10.0625Y-4.9062
X10.0625Y-5.6562
X10.0625Y-6.4062
X10.475Y-4.15
X10.8125Y-4.1875
X10.8125Y-4.9375
X10.8125Y-5.6875
X10.8125Y-6.4375
X11.275Y-4.15
T2
X-0.375Y-3.7527
X-0.375Y-4.0598
X9.3125Y-5.2527
X9.3125Y-5.5598
X9.3125Y-6.0027
X9.3125Y-6.3098
X10.0625Y-5.2527
X10.0625Y-5.5598
X7.8125Y-3.7527
X7.8125Y-4.0598
X5.9375Y-4.5027
X5.9375Y-4.8098
X3.6875Y-5.2527
X3.6875Y-5.5598
X1.125Y-3.7527
X1.125Y-4.0598
X4.4375Y-4.5027
X4.4375Y-4.8098
X7.0625Y-4.5027
X7.0625Y-4.8098
X10.0625Y-3.7527
X10.0625Y-4.0598
X-0.375Y-4.5027
X-0.375Y-4.8098
X10.8125Y-3.7527
X10.8125Y-4.0598
X2.1875Y-5.2527
X2.1875Y-5.5598
X3.6875Y-4.5027
X3.6875Y-4.8098
X10.0625Y-6.0027
X10.0625Y-6.3098
X5.1875Y-5.2527
X5.1875Y-5.5598
X7.8125Y-4.5027
X7.8125Y-4.8098
X0.5Y-6.0027
X0.5Y-6.3098
X0.5Y-5.2527
X0.5Y-5.5598
X2.9375Y-6.0027
X2.9375Y-6.3098
X7.0625Y-5.2527
X7.0625Y-5.5598
X1.25Y-6.0027
X1.25Y-6.3098
X-0.25Y-3.7527
X-0.25Y-4.0598
X1.25Y-5.2527
X1.25Y-5.5598
X1.125Y-4.5027
X1.125Y-4.8098
X8.5625Y-5.2527
X8.5625Y-5.5598
X4.4375Y-3.7527
X4.4375Y-4.0598
X2.1875Y-4.5027
X2.1875Y-4.8098
X5.1875Y-3.7527
X5.1875Y-4.0598
X0.5Y-3.7527
X0.5Y-4.0598
X0.5Y-4.5027
X0.5Y-4.8098
X5.9375Y-3.7527
X5.9375Y-4.0598
X9.3125Y-4.5027
X9.3125Y-4.8098
X2.1875Y-6.0027
X2.1875Y-6.3098
X10.8125Y-5.2527
X10.8125Y-5.5598
X10.8125Y-4.5027
X10.8125Y-4.8098
X5.2812Y-6.0027
X5.2812Y-6.3098
X10.0625Y-4.5027
X10.0625Y-4.8098
X-0.375Y-5.2527
X-0.375Y-5.5598
X7.8125Y-5.2527
X7.8125Y-5.5598
X7.1562Y-6.0027
X7.1562Y-6.3098
X4.4375Y-5.2527
X4.4375Y-5.5598
X3.6875Y-6.0027
X3.6875Y-6.3098
X2.1875Y-3.7527
X2.1875Y-4.0598
X-0.25Y-5.2527
X-0.25Y-5.5598
X10.8125Y-6.0027
X10.8125Y-6.3098
X8.5625Y-3.7527
X8.5625Y-4.0598
X-0.25Y-6.0027
X-0.25Y-6.3098
X9.3125Y-3.7527
X9.3125Y-4.0598
X7.0625Y-3.7527
X7.0625Y-4.0598
X3.6875Y-3.7527
X3.6875Y-4.0598
X2.9375Y-3.7527
X2.9375Y-4.0598
X-0.25Y-4.5027
X-0.25Y-4.8098
X8.5625Y-6.0027
X8.5625Y-6.3098
X5.1875Y-4.5027
X5.1875Y-4.8098
X-0.375Y-6.0027
X-0.375Y-6.3098
X2.9375Y-5.2527
X2.9375Y-5.5598
X2.9375Y-4.5027
X2.9375Y-4.8098
X7.7188Y-6.0027
X7.7188Y-6.3098
X8.5625Y-4.5027
X8.5625Y-4.8098
X4.4375Y-6.0027
X4.4375Y-6.3098
X5.9375Y-5.2527
X5.9375Y-5.5598
T3
X1.2625Y-3.6062
X1.2625Y-3.7062
X1.2625Y-3.8062
X1.2625Y-3.9062
X1.2625Y-4.0062
X1.2625Y-4.1063
X1.2625Y-4.2062
X1.2625Y-4.3062
X1.2625Y-4.4062
X1.2625Y-4.5062
X1.2625Y-4.6063
X1.2625Y-4.7062
X1.8625Y-3.6062
X1.8625Y-3.7062
X1.8625Y-3.8062
X1.8625Y-3.9062
X1.8625Y-4.0062
X1.8625Y-4.1063
X1.8625Y-4.2062
X1.8625Y-4.3062
X1.8625Y-4.4062
X1.8625Y-4.5062
X1.8625Y-4.6063
X1.8625Y-4.7062
T4
X3.85Y-3.8062
X3.9Y-3.7062
X3.9016Y-3.7291
X3.9016Y-3.7488
X4.0984Y-3.7291
X4.0984Y-3.7488
X4.1Y-3.7062
X4.15Y-3.8062
X5.35Y-5.3062
X5.4Y-5.2062
X5.4016Y-5.2291
X5.4016Y-5.2488
X5.5984Y-5.2291
X5.5984Y-5.2488
X5.6Y-5.2062
X5.65Y-5.3062
X6.1Y-3.8062
X6.15Y-3.7062
X6.1516Y-3.7291
X6.1516Y-3.7488
X6.3484Y-3.7291
X6.3484Y-3.7488
X6.35Y-3.7062
X6.4Y-3.8062
X9.475Y-6.0562
X9.525Y-5.9562
X9.5266Y-5.9791
X9.5266Y-5.9988
X9.7234Y-5.9791
X9.7234Y-5.9988
X9.725Y-5.9562
X9.775Y-6.0562
X3.85Y-5.3062
X3.9Y-5.2062
X3.9016Y-5.2291
X3.9016Y-5.2488
X4.0984Y-5.2291
X4.0984Y-5.2488
X4.1Y-5.2062
X4.15Y-5.3062
X1.4125Y-3.8062
X1.4625Y-3.7062
X1.4641Y-3.7291
X1.4641Y-3.7488
X1.6609Y-3.7291
X1.6609Y-3.7488
X1.6625Y-3.7062
X1.7125Y-3.8062
X4.6Y-4.5562
X4.65Y-4.4562
X4.6516Y-4.4791
X4.6516Y-4.4988
X4.8484Y-4.4791
X4.8484Y-4.4988
X4.85Y-4.4562
X4.9Y-4.5562
X7.8812Y-6.0562
X7.9312Y-5.9562
X7.9328Y-5.9791
X7.9328Y-5.9988
X8.1297Y-5.9791
X8.1297Y-5.9988
X8.1312Y-5.9562
X8.1813Y-6.0562
X10.975Y-5.3062
X11.025Y-5.2062
X11.0266Y-5.2291
X11.0266Y-5.2488
X11.2234Y-5.2291
X11.2234Y-5.2488
X11.225Y-5.2062
X11.275Y-5.3062
X0.6625Y-4.5562
X0.7125Y-4.4562
X0.7141Y-4.4791
X0.7141Y-4.4988
X0.9109Y-4.4791
X0.9109Y-4.4988
X0.9125Y-4.4562
X0.9625Y-4.5562
X1.4125Y-5.3062
X1.4625Y-5.2062
X1.4641Y-5.2291
X1.4641Y-5.2488
X1.6609Y-5.2291
X1.6609Y-5.2488
X1.6625Y-5.2062
X1.7125Y-5.3062
X4.6Y-6.0562
X4.65Y-5.9562
X4.6516Y-5.9791
X4.6516Y-5.9988
X4.8484Y-5.9791
X4.8484Y-5.9988
X4.85Y-5.9562
X4.9Y-6.0562
X-0.0875Y-4.5562
X-0.0375Y-4.4562
X-0.0359Y-4.4791
X-0.0359Y-4.4988
X0.1609Y-4.4791
X0.1609Y-4.4988
X0.1625Y-4.4562
X0.2125Y-4.5562
X3.1Y-4.5562
X3.15Y-4.4562
X3.1516Y-4.4791
X3.1516Y-4.4988
X3.3484Y-4.4791
X3.3484Y-4.4988
X3.35Y-4.4562
X3.4Y-4.5562
X0.6625Y-6.0562
X0.7125Y-5.9562
X0.7141Y-5.9791
X0.7141Y-5.9988
X0.9109Y-5.9791
X0.9109Y-5.9988
X0.9125Y-5.9562
X0.9625Y-6.0562
X10.225Y-3.8062
X10.275Y-3.7062
X10.2766Y-3.7291
X10.2766Y-3.7488
X10.4734Y-3.7291
X10.4734Y-3.7488
X10.475Y-3.7062
X10.525Y-3.8062
X2.35Y-4.5562
X2.4Y-4.4562
X2.4016Y-4.4791
X2.4016Y-4.4988
X2.5984Y-4.4791
X2.5984Y-4.4988
X2.6Y-4.4562
X2.65Y-4.5562
X1.4125Y-6.0562
X1.4625Y-5.9562
X1.4641Y-5.9791
X1.4641Y-5.9988
X1.6609Y-5.9791
X1.6609Y-5.9988
X1.6625Y-5.9562
X1.7125Y-6.0562
X5.4437Y-6.0562
X5.4937Y-5.9562
X5.4953Y-5.9791
X5.4953Y-5.9988
X5.6922Y-5.9791
X5.6922Y-5.9988
X5.6937Y-5.9562
X5.7437Y-6.0562
X8.725Y-5.3062
X8.775Y-5.2062
X8.7766Y-5.2291
X8.7766Y-5.2488
X8.9734Y-5.2291
X8.9734Y-5.2488
X8.975Y-5.2062
X9.025Y-5.3062
X8.725Y-4.5562
X8.775Y-4.4562
X8.7766Y-4.4791
X8.7766Y-4.4988
X8.9734Y-4.4791
X8.9734Y-4.4988
X8.975Y-4.4562
X9.025Y-4.5562
X8.725Y-6.0562
X8.775Y-5.9562
X8.7766Y-5.9791
X8.7766Y-5.9988
X8.9734Y-5.9791
X8.9734Y-5.9988
X8.975Y-5.9562
X9.025Y-6.0562
X1.4125Y-4.5562
X1.4625Y-4.4562
X1.4641Y-4.4791
X1.4641Y-4.4988
X1.6609Y-4.4791
X1.6609Y-4.4988
X1.6625Y-4.4562
X1.7125Y-4.5562
X3.1Y-3.8062
X3.15Y-3.7062
X3.1516Y-3.7291
X3.1516Y-3.7488
X3.3484Y-3.7291
X3.3484Y-3.7488
X3.35Y-3.7062
X3.4Y-3.8062
X-0.8375Y-6.0562
X-0.7875Y-5.9562
X-0.7859Y-5.9791
X-0.7859Y-5.9988
X-0.5891Y-5.9791
X-0.5891Y-5.9988
X-0.5875Y-5.9562
X-0.5375Y-6.0562
X2.35Y-3.8062
X2.4Y-3.7062
X2.4016Y-3.7291
X2.4016Y-3.7488
X2.5984Y-3.7291
X2.5984Y-3.7488
X2.6Y-3.7062
X2.65Y-3.8062
X7.225Y-5.3062
X7.275Y-5.2062
X7.2766Y-5.2291
X7.2766Y-5.2488
X7.4734Y-5.2291
X7.4734Y-5.2488
X7.475Y-5.2062
X7.525Y-5.3062
X0.6625Y-3.8062
X0.7125Y-3.7062
X0.7141Y-3.7291
X0.7141Y-3.7488
X0.9109Y-3.7291
X0.9109Y-3.7488
X0.9125Y-3.7062
X0.9625Y-3.8062
X2.35Y-5.3062
X2.4Y-5.2062
X2.4016Y-5.2291
X2.4016Y-5.2488
X2.5984Y-5.2291
X2.5984Y-5.2488
X2.6Y-5.2062
X2.65Y-5.3062
X3.1Y-5.3062
X3.15Y-5.2062
X3.1516Y-5.2291
X3.1516Y-5.2488
X3.3484Y-5.2291
X3.3484Y-5.2488
X3.35Y-5.2062
X3.4Y-5.3062
X8.725Y-3.8062
X8.775Y-3.7062
X8.7766Y-3.7291
X8.7766Y-3.7488
X8.9734Y-3.7291
X8.9734Y-3.7488
X8.975Y-3.7062
X9.025Y-3.8062
X9.475Y-4.5562
X9.525Y-4.4562
X9.5266Y-4.4791
X9.5266Y-4.4988
X9.7234Y-4.4791
X9.7234Y-4.4988
X9.725Y-4.4562
X9.775Y-4.5562
X10.225Y-5.3062
X10.275Y-5.2062
X10.2766Y-5.2291
X10.2766Y-5.2488
X10.4734Y-5.2291
X10.4734Y-5.2488
X10.475Y-5.2062
X10.525Y-5.3062
X7.975Y-3.8062
X8.025Y-3.7062
X8.0266Y-3.7291
X8.0266Y-3.7488
X8.2234Y-3.7291
X8.2234Y-3.7488
X8.225Y-3.7062
X8.275Y-3.8062
X10.975Y-4.5562
X11.025Y-4.4562
X11.0266Y-4.4791
X11.0266Y-4.4988
X11.2234Y-4.4791
X11.2234Y-4.4988
X11.225Y-4.4562
X11.275Y-4.5562
X-0.0875Y-6.0562
X-0.0375Y-5.9562
X-0.0359Y-5.9791
X-0.0359Y-5.9988
X0.1609Y-5.9791
X0.1609Y-5.9988
X0.1625Y-5.9562
X0.2125Y-6.0562
X7.225Y-3.8062
X7.275Y-3.7062
X7.2766Y-3.7291
X7.2766Y-3.7488
X7.4734Y-3.7291
X7.4734Y-3.7488
X7.475Y-3.7062
X7.525Y-3.8062
X7.975Y-4.5562
X8.025Y-4.4562
X8.0266Y-4.4791
X8.0266Y-4.4988
X8.2234Y-4.4791
X8.2234Y-4.4988
X8.225Y-4.4562
X8.275Y-4.5562
X9.475Y-5.3062
X9.525Y-5.2062
X9.5266Y-5.2291
X9.5266Y-5.2488
X9.7234Y-5.2291
X9.7234Y-5.2488
X9.725Y-5.2062
X9.775Y-5.3062
X-0.0875Y-5.3062
X-0.0375Y-5.2062
X-0.0359Y-5.2291
X-0.0359Y-5.2488
X0.1609Y-5.2291
X0.1609Y-5.2488
X0.1625Y-5.2062
X0.2125Y-5.3062
X0.6625Y-5.3062
X0.7125Y-5.2062
X0.7141Y-5.2291
X0.7141Y-5.2488
X0.9109Y-5.2291
X0.9109Y-5.2488
X0.9125Y-5.2062
X0.9625Y-5.3062
X4.6Y-3.8062
X4.65Y-3.7062
X4.6516Y-3.7291
X4.6516Y-3.7488
X4.8484Y-3.7291
X4.8484Y-3.7488
X4.85Y-3.7062
X4.9Y-3.8062
X7.975Y-5.3062
X8.025Y-5.2062
X8.0266Y-5.2291
X8.0266Y-5.2488
X8.2234Y-5.2291
X8.2234Y-5.2488
X8.225Y-5.2062
X8.275Y-5.3062
X9.475Y-3.8062
X9.525Y-3.7062
X9.5266Y-3.7291
X9.5266Y-3.7488
X9.7234Y-3.7291
X9.7234Y-3.7488
X9.725Y-3.7062
X9.775Y-3.8062
X10.975Y-6.0562
X11.025Y-5.9562
X11.0266Y-5.9791
X11.0266Y-5.9988
X11.2234Y-5.9791
X11.2234Y-5.9988
X11.225Y-5.9562
X11.275Y-6.0562
X4.6Y-5.3062
X4.65Y-5.2062
X4.6516Y-5.2291
X4.6516Y-5.2488
X4.8484Y-5.2291
X4.8484Y-5.2488
X4.85Y-5.2062
X4.9Y-5.3062
X5.35Y-3.8062
X5.4Y-3.7062
X5.4016Y-3.7291
X5.4016Y-3.7488
X5.5984Y-3.7291
X5.5984Y-3.7488
X5.6Y-3.7062
X5.65Y-3.8062
X-0.8375Y-5.3062
X-0.7875Y-5.2062
X-0.7859Y-5.2291
X-0.7859Y-5.2488
X-0.5891Y-5.2291
X-0.5891Y-5.2488
X-0.5875Y-5.2062
X-0.5375Y-5.3062
X6.1Y-5.3062
X6.15Y-5.2062
X6.1516Y-5.2291
X6.1516Y-5.2488
X6.3484Y-5.2291
X6.3484Y-5.2488
X6.35Y-5.2062
X6.4Y-5.3062
X-0.0875Y-3.8062
X-0.0375Y-3.7062
X-0.0359Y-3.7291
X-0.0359Y-3.7488
X0.1609Y-3.7291
X0.1609Y-3.7488
X0.1625Y-3.7062
X0.2125Y-3.8062
X3.85Y-4.5562
X3.9Y-4.4562
X3.9016Y-4.4791
X3.9016Y-4.4988
X4.0984Y-4.4791
X4.0984Y-4.4988
X4.1Y-4.4562
X4.15Y-4.5562
X3.85Y-6.0562
X3.9Y-5.9562
X3.9016Y-5.9791
X3.9016Y-5.9988
X4.0984Y-5.9791
X4.0984Y-5.9988
X4.1Y-5.9562
X4.15Y-6.0562
X10.975Y-3.8062
X11.025Y-3.7062
X11.0266Y-3.7291
X11.0266Y-3.7488
X11.2234Y-3.7291
X11.2234Y-3.7488
X11.225Y-3.7062
X11.275Y-3.8062
X7.225Y-4.5562
X7.275Y-4.4562
X7.2766Y-4.4791
X7.2766Y-4.4988
X7.4734Y-4.4791
X7.4734Y-4.4988
X7.475Y-4.4562
X7.525Y-4.5562
X2.35Y-6.0562
X2.4Y-5.9562
X2.4016Y-5.9791
X2.4016Y-5.9988
X2.5984Y-5.9791
X2.5984Y-5.9988
X2.6Y-5.9562
X2.65Y-6.0562
X-0.8375Y-4.5562
X-0.7875Y-4.4562
X-0.7859Y-4.4791
X-0.7859Y-4.4988
X-0.5891Y-4.4791
X-0.5891Y-4.4988
X-0.5875Y-4.4562
X-0.5375Y-4.5562
X10.225Y-4.5562
X10.275Y-4.4562
X10.2766Y-4.4791
X10.2766Y-4.4988
X10.4734Y-4.4791
X10.4734Y-4.4988
X10.475Y-4.4562
X10.525Y-4.5562
X3.1Y-6.0562
X3.15Y-5.9562
X3.1516Y-5.9791
X3.1516Y-5.9988
X3.3484Y-5.9791
X3.3484Y-5.9988
X3.35Y-5.9562
X3.4Y-6.0562
X6.1Y-4.5562
X6.15Y-4.4562
X6.1516Y-4.4791
X6.1516Y-4.4988
X6.3484Y-4.4791
X6.3484Y-4.4988
X6.35Y-4.4562
X6.4Y-4.5562
X10.225Y-6.0562
X10.275Y-5.9562
X10.2766Y-5.9791
X10.2766Y-5.9988
X10.4734Y-5.9791
X10.4734Y-5.9988
X10.475Y-5.9562
X10.525Y-6.0562
X-0.8375Y-3.8062
X-0.7875Y-3.7062
X-0.7859Y-3.7291
X-0.7859Y-3.7488
X-0.5891Y-3.7291
X-0.5891Y-3.7488
X-0.5875Y-3.7062
X-0.5375Y-3.8062
X5.35Y-4.5562
X5.4Y-4.4562
X5.4016Y-4.4791
X5.4016Y-4.4988
X5.5984Y-4.4791
X5.5984Y-4.4988
X5.6Y-4.4562
X5.65Y-4.5562
T4
G00X6.6944Y-6.3137
M15
G01X6.6625Y-6.2563
M16
G05
G00X6.7125Y-6.3562
M15
G01X6.7141Y-6.3334
M16
G05
G00X6.9125Y-6.3562
M15
G01X6.9109Y-6.3334
M16
G05
G00X6.9306Y-6.3137
M15
G01X6.9625Y-6.2563
M16
G05
T0
M30
