M48
; DRILL file {KiCad (5.1.4)-1} date 5/1/2020 4:15:30 AM
; FORMAT={-:-/ absolute / inch / decimal}
; #@! TF.CreationDate,2020-05-01T04:15:30-05:00
; #@! TF.GenerationSoftware,Kicad,Pcbnew,(5.1.4)-1
; #@! TF.FileFunction,NonPlated,1,2,NPTH
FMAT,2
INCH
T1C0.0709
T2C0.1200
T3C0.1260
T4C0.1570
%
G90
G05
T1
X4.55Y-5.4062
X4.95Y-5.4062
X5.3Y-3.9062
X5.7Y-3.9062
X-0.8875Y-5.4062
X-0.4875Y-5.4062
X6.05Y-5.4062
X6.45Y-5.4062
X-0.1375Y-3.9062
X0.2625Y-3.9062
X3.8Y-4.6562
X4.2Y-4.6562
X3.8Y-6.1562
X4.2Y-6.1562
X10.925Y-3.9062
X11.325Y-3.9062
X7.175Y-4.6562
X7.575Y-4.6562
X6.6125Y-6.1562
X7.0125Y-6.1562
X2.3Y-6.1562
X2.7Y-6.1562
X-0.8875Y-4.6562
X-0.4875Y-4.6562
X10.175Y-4.6562
X10.575Y-4.6562
X3.05Y-6.1562
X3.45Y-6.1562
X6.05Y-4.6562
X6.45Y-4.6562
X10.175Y-6.1562
X10.575Y-6.1562
X-0.8875Y-3.9062
X-0.4875Y-3.9062
X5.3Y-4.6562
X5.7Y-4.6562
X3.8Y-3.9062
X4.2Y-3.9062
X5.3Y-5.4062
X5.7Y-5.4062
X6.05Y-3.9062
X6.45Y-3.9062
X9.425Y-6.1562
X9.825Y-6.1562
X3.8Y-5.4062
X4.2Y-5.4062
X1.3625Y-3.9062
X1.7625Y-3.9062
X4.55Y-4.6562
X4.95Y-4.6562
X7.8312Y-6.1562
X8.2312Y-6.1562
X10.925Y-5.4062
X11.325Y-5.4062
X0.6125Y-4.6562
X1.0125Y-4.6562
X1.3625Y-5.4062
X1.7625Y-5.4062
X4.55Y-6.1562
X4.95Y-6.1562
X-0.1375Y-4.6562
X0.2625Y-4.6562
X3.05Y-4.6562
X3.45Y-4.6562
X0.6125Y-6.1562
X1.0125Y-6.1562
X10.175Y-3.9062
X10.575Y-3.9062
X2.3Y-4.6562
X2.7Y-4.6562
X1.3625Y-6.1562
X1.7625Y-6.1562
X5.3937Y-6.1562
X5.7938Y-6.1562
X8.675Y-5.4062
X9.075Y-5.4062
X8.675Y-4.6562
X9.075Y-4.6562
X8.675Y-6.1562
X9.075Y-6.1562
X1.3625Y-4.6562
X1.7625Y-4.6562
X3.05Y-3.9062
X3.45Y-3.9062
X-0.8875Y-6.1562
X-0.4875Y-6.1562
X2.3Y-3.9062
X2.7Y-3.9062
X7.175Y-5.4062
X7.575Y-5.4062
X0.6125Y-3.9062
X1.0125Y-3.9062
X2.3Y-5.4062
X2.7Y-5.4062
X3.05Y-5.4062
X3.45Y-5.4062
X8.675Y-3.9062
X9.075Y-3.9062
X9.425Y-4.6562
X9.825Y-4.6562
X10.175Y-5.4062
X10.575Y-5.4062
X7.925Y-3.9062
X8.325Y-3.9062
X10.925Y-4.6562
X11.325Y-4.6562
X-0.1375Y-6.1562
X0.2625Y-6.1562
X7.175Y-3.9062
X7.575Y-3.9062
X7.925Y-4.6562
X8.325Y-4.6562
X9.425Y-5.4062
X9.825Y-5.4062
X-0.1375Y-5.4062
X0.2625Y-5.4062
X0.6125Y-5.4062
X1.0125Y-5.4062
X4.55Y-3.9062
X4.95Y-3.9062
X7.925Y-5.4062
X8.325Y-5.4062
X9.425Y-3.9062
X9.825Y-3.9062
X10.925Y-6.1562
X11.325Y-6.1562
T2
X6.3425Y-6.4312
X7.2825Y-6.4312
T3
X-0.3125Y-4.2812
X-0.3125Y-5.7812
X2.6875Y-4.2812
X2.6875Y-5.7812
X7.75Y-4.2812
X7.75Y-5.7812
X10.75Y-4.2812
X10.75Y-5.7812
T4
X4.0Y-3.9062
X5.5Y-5.4062
X6.25Y-3.9062
X9.625Y-6.1562
X4.0Y-5.4062
X1.5625Y-3.9062
X4.75Y-4.6562
X8.0312Y-6.1562
X11.125Y-5.4062
X0.8125Y-4.6562
X1.5625Y-5.4062
X4.75Y-6.1562
X0.0625Y-4.6562
X3.25Y-4.6562
X0.8125Y-6.1562
X10.375Y-3.9062
X2.5Y-4.6562
X1.5625Y-6.1562
X5.5938Y-6.1562
X8.875Y-5.4062
X8.875Y-4.6562
X8.875Y-6.1562
X1.5625Y-4.6562
X3.25Y-3.9062
X-0.6875Y-6.1562
X2.5Y-3.9062
X7.375Y-5.4062
X0.8125Y-3.9062
X2.5Y-5.4062
X3.25Y-5.4062
X8.875Y-3.9062
X9.625Y-4.6562
X10.375Y-5.4062
X8.125Y-3.9062
X11.125Y-4.6562
X0.0625Y-6.1562
X7.375Y-3.9062
X8.125Y-4.6562
X9.625Y-5.4062
X0.0625Y-5.4062
X0.8125Y-5.4062
X4.75Y-3.9062
X8.125Y-5.4062
X9.625Y-3.9062
X11.125Y-6.1562
X4.75Y-5.4062
X5.5Y-3.9062
X-0.6875Y-5.4062
X6.25Y-5.4062
X0.0625Y-3.9062
X4.0Y-4.6562
X4.0Y-6.1562
X11.125Y-3.9062
X7.375Y-4.6562
X6.3425Y-5.8312
X6.8125Y-6.1562
X7.2825Y-5.8312
X2.5Y-6.1562
X-0.6875Y-4.6562
X10.375Y-4.6562
X3.25Y-6.1562
X6.25Y-4.6562
X10.375Y-6.1562
X-0.6875Y-3.9062
X5.5Y-4.6562
T0
M30
