G04 #@! TF.GenerationSoftware,KiCad,Pcbnew,(5.1.4)-1*
G04 #@! TF.CreationDate,2020-05-01T04:15:23-05:00*
G04 #@! TF.ProjectId,Augio,41756769-6f2e-46b6-9963-61645f706362,rev?*
G04 #@! TF.SameCoordinates,Original*
G04 #@! TF.FileFunction,Copper,L2,Bot*
G04 #@! TF.FilePolarity,Positive*
%FSLAX46Y46*%
G04 Gerber Fmt 4.6, Leading zero omitted, Abs format (unit mm)*
G04 Created by KiCad (PCBNEW (5.1.4)-1) date 2020-05-01 04:15:23*
%MOMM*%
%LPD*%
G04 APERTURE LIST*
%ADD10C,2.500000*%
%ADD11C,2.500000*%
%ADD12C,2.000000*%
%ADD13R,0.500000X2.900000*%
%ADD14R,1.600000X1.600000*%
%ADD15C,1.600000*%
%ADD16R,1.200000X1.600000*%
%ADD17C,1.752600*%
%ADD18R,1.752600X1.752600*%
%ADD19C,0.800000*%
%ADD20C,0.254000*%
G04 APERTURE END LIST*
D10*
X42207500Y-151578750D03*
D11*
X42227499Y-151288750D02*
X42187501Y-151868750D01*
D12*
X37147500Y-151288750D03*
X37187500Y-151868750D03*
D10*
X37167500Y-151578750D03*
D11*
X37147501Y-151288750D02*
X37187499Y-151868750D01*
D12*
X43497500Y-153828750D03*
X42187500Y-152368750D03*
D10*
X36532500Y-153098750D03*
D11*
X35877505Y-153828754D02*
X37187495Y-152368746D01*
D10*
X42842500Y-153098750D03*
D11*
X43497495Y-153828754D02*
X42187505Y-152368746D01*
D12*
X35877500Y-153828750D03*
X37187500Y-152368750D03*
X42227500Y-151288750D03*
X42187500Y-151868750D03*
D10*
X285095000Y-151578750D03*
D11*
X285114999Y-151288750D02*
X285075001Y-151868750D01*
D12*
X280035000Y-151288750D03*
X280075000Y-151868750D03*
D10*
X280055000Y-151578750D03*
D11*
X280035001Y-151288750D02*
X280074999Y-151868750D01*
D12*
X286385000Y-153828750D03*
X285075000Y-152368750D03*
D10*
X279420000Y-153098750D03*
D11*
X278765005Y-153828754D02*
X280074995Y-152368746D01*
D10*
X285730000Y-153098750D03*
D11*
X286384995Y-153828754D02*
X285075005Y-152368746D01*
D12*
X278765000Y-153828750D03*
X280075000Y-152368750D03*
X285115000Y-151288750D03*
X285075000Y-151868750D03*
D10*
X266045000Y-151578750D03*
D11*
X266064999Y-151288750D02*
X266025001Y-151868750D01*
D12*
X260985000Y-151288750D03*
X261025000Y-151868750D03*
D10*
X261005000Y-151578750D03*
D11*
X260985001Y-151288750D02*
X261024999Y-151868750D01*
D12*
X267335000Y-153828750D03*
X266025000Y-152368750D03*
D10*
X260370000Y-153098750D03*
D11*
X259715005Y-153828754D02*
X261024995Y-152368746D01*
D10*
X266680000Y-153098750D03*
D11*
X267334995Y-153828754D02*
X266025005Y-152368746D01*
D12*
X259715000Y-153828750D03*
X261025000Y-152368750D03*
X266065000Y-151288750D03*
X266025000Y-151868750D03*
D10*
X246995000Y-151578750D03*
D11*
X247014999Y-151288750D02*
X246975001Y-151868750D01*
D12*
X241935000Y-151288750D03*
X241975000Y-151868750D03*
D10*
X241955000Y-151578750D03*
D11*
X241935001Y-151288750D02*
X241974999Y-151868750D01*
D12*
X248285000Y-153828750D03*
X246975000Y-152368750D03*
D10*
X241320000Y-153098750D03*
D11*
X240665005Y-153828754D02*
X241974995Y-152368746D01*
D10*
X247630000Y-153098750D03*
D11*
X248284995Y-153828754D02*
X246975005Y-152368746D01*
D12*
X240665000Y-153828750D03*
X241975000Y-152368750D03*
X247015000Y-151288750D03*
X246975000Y-151868750D03*
D10*
X227945000Y-151578750D03*
D11*
X227964999Y-151288750D02*
X227925001Y-151868750D01*
D12*
X222885000Y-151288750D03*
X222925000Y-151868750D03*
D10*
X222905000Y-151578750D03*
D11*
X222885001Y-151288750D02*
X222924999Y-151868750D01*
D12*
X229235000Y-153828750D03*
X227925000Y-152368750D03*
D10*
X222270000Y-153098750D03*
D11*
X221615005Y-153828754D02*
X222924995Y-152368746D01*
D10*
X228580000Y-153098750D03*
D11*
X229234995Y-153828754D02*
X227925005Y-152368746D01*
D12*
X221615000Y-153828750D03*
X222925000Y-152368750D03*
X227965000Y-151288750D03*
X227925000Y-151868750D03*
D10*
X206513750Y-151578750D03*
D11*
X206533749Y-151288750D02*
X206493751Y-151868750D01*
D12*
X201453750Y-151288750D03*
X201493750Y-151868750D03*
D10*
X201473750Y-151578750D03*
D11*
X201453751Y-151288750D02*
X201493749Y-151868750D01*
D12*
X207803750Y-153828750D03*
X206493750Y-152368750D03*
D10*
X200838750Y-153098750D03*
D11*
X200183755Y-153828754D02*
X201493745Y-152368746D01*
D10*
X207148750Y-153098750D03*
D11*
X207803745Y-153828754D02*
X206493755Y-152368746D01*
D12*
X200183750Y-153828750D03*
X201493750Y-152368750D03*
X206533750Y-151288750D03*
X206493750Y-151868750D03*
D10*
X170517500Y-161158750D03*
D11*
X170497776Y-161448078D02*
X170537224Y-160869422D01*
D10*
X176442500Y-159638750D03*
D11*
X176037047Y-160368704D02*
X176847953Y-158908796D01*
D10*
X169632500Y-159638750D03*
D11*
X170037953Y-160368704D02*
X169227047Y-158908796D01*
D10*
X175557500Y-161158750D03*
D11*
X175577224Y-161448078D02*
X175537776Y-160869422D01*
D10*
X144601250Y-151578750D03*
D11*
X144621249Y-151288750D02*
X144581251Y-151868750D01*
D12*
X139541250Y-151288750D03*
X139581250Y-151868750D03*
D10*
X139561250Y-151578750D03*
D11*
X139541251Y-151288750D02*
X139581249Y-151868750D01*
D12*
X145891250Y-153828750D03*
X144581250Y-152368750D03*
D10*
X138926250Y-153098750D03*
D11*
X138271255Y-153828754D02*
X139581245Y-152368746D01*
D10*
X145236250Y-153098750D03*
D11*
X145891245Y-153828754D02*
X144581255Y-152368746D01*
D12*
X138271250Y-153828750D03*
X139581250Y-152368750D03*
X144621250Y-151288750D03*
X144581250Y-151868750D03*
D10*
X123170000Y-151578750D03*
D11*
X123189999Y-151288750D02*
X123150001Y-151868750D01*
D12*
X118110000Y-151288750D03*
X118150000Y-151868750D03*
D10*
X118130000Y-151578750D03*
D11*
X118110001Y-151288750D02*
X118149999Y-151868750D01*
D12*
X124460000Y-153828750D03*
X123150000Y-152368750D03*
D10*
X117495000Y-153098750D03*
D11*
X116840005Y-153828754D02*
X118149995Y-152368746D01*
D10*
X123805000Y-153098750D03*
D11*
X124459995Y-153828754D02*
X123150005Y-152368746D01*
D12*
X116840000Y-153828750D03*
X118150000Y-152368750D03*
X123190000Y-151288750D03*
X123150000Y-151868750D03*
D10*
X104120000Y-151578750D03*
D11*
X104139999Y-151288750D02*
X104100001Y-151868750D01*
D12*
X99060000Y-151288750D03*
X99100000Y-151868750D03*
D10*
X99080000Y-151578750D03*
D11*
X99060001Y-151288750D02*
X99099999Y-151868750D01*
D12*
X105410000Y-153828750D03*
X104100000Y-152368750D03*
D10*
X98445000Y-153098750D03*
D11*
X97790005Y-153828754D02*
X99099995Y-152368746D01*
D10*
X104755000Y-153098750D03*
D11*
X105409995Y-153828754D02*
X104100005Y-152368746D01*
D12*
X97790000Y-153828750D03*
X99100000Y-152368750D03*
X104140000Y-151288750D03*
X104100000Y-151868750D03*
D10*
X85070000Y-151578750D03*
D11*
X85089999Y-151288750D02*
X85050001Y-151868750D01*
D12*
X80010000Y-151288750D03*
X80050000Y-151868750D03*
D10*
X80030000Y-151578750D03*
D11*
X80010001Y-151288750D02*
X80049999Y-151868750D01*
D12*
X86360000Y-153828750D03*
X85050000Y-152368750D03*
D10*
X79395000Y-153098750D03*
D11*
X78740005Y-153828754D02*
X80049995Y-152368746D01*
D10*
X85705000Y-153098750D03*
D11*
X86359995Y-153828754D02*
X85050005Y-152368746D01*
D12*
X78740000Y-153828750D03*
X80050000Y-152368750D03*
X85090000Y-151288750D03*
X85050000Y-151868750D03*
D10*
X66020000Y-151578750D03*
D11*
X66039999Y-151288750D02*
X66000001Y-151868750D01*
D12*
X60960000Y-151288750D03*
X61000000Y-151868750D03*
D10*
X60980000Y-151578750D03*
D11*
X60960001Y-151288750D02*
X60999999Y-151868750D01*
D12*
X67310000Y-153828750D03*
X66000000Y-152368750D03*
D10*
X60345000Y-153098750D03*
D11*
X59690005Y-153828754D02*
X60999995Y-152368746D01*
D10*
X66655000Y-153098750D03*
D11*
X67309995Y-153828754D02*
X66000005Y-152368746D01*
D12*
X59690000Y-153828750D03*
X61000000Y-152368750D03*
X66040000Y-151288750D03*
X66000000Y-151868750D03*
D10*
X23157500Y-151578750D03*
D11*
X23177499Y-151288750D02*
X23137501Y-151868750D01*
D12*
X18097500Y-151288750D03*
X18137500Y-151868750D03*
D10*
X18117500Y-151578750D03*
D11*
X18097501Y-151288750D02*
X18137499Y-151868750D01*
D12*
X24447500Y-153828750D03*
X23137500Y-152368750D03*
D10*
X17482500Y-153098750D03*
D11*
X16827505Y-153828754D02*
X18137495Y-152368746D01*
D10*
X23792500Y-153098750D03*
D11*
X24447495Y-153828754D02*
X23137505Y-152368746D01*
D12*
X16827500Y-153828750D03*
X18137500Y-152368750D03*
X23177500Y-151288750D03*
X23137500Y-151868750D03*
D10*
X4107500Y-151578750D03*
D11*
X4127499Y-151288750D02*
X4087501Y-151868750D01*
D12*
X-952500Y-151288750D03*
X-912500Y-151868750D03*
D10*
X-932500Y-151578750D03*
D11*
X-952499Y-151288750D02*
X-912501Y-151868750D01*
D12*
X5397500Y-153828750D03*
X4087500Y-152368750D03*
D10*
X-1567500Y-153098750D03*
D11*
X-2222495Y-153828754D02*
X-912505Y-152368746D01*
D10*
X4742500Y-153098750D03*
D11*
X5397495Y-153828754D02*
X4087505Y-152368746D01*
D12*
X-2222500Y-153828750D03*
X-912500Y-152368750D03*
X4127500Y-151288750D03*
X4087500Y-151868750D03*
D10*
X-14942500Y-151578750D03*
D11*
X-14922501Y-151288750D02*
X-14962499Y-151868750D01*
D12*
X-20002500Y-151288750D03*
X-19962500Y-151868750D03*
D10*
X-19982500Y-151578750D03*
D11*
X-20002499Y-151288750D02*
X-19962501Y-151868750D01*
D12*
X-13652500Y-153828750D03*
X-14962500Y-152368750D03*
D10*
X-20617500Y-153098750D03*
D11*
X-21272495Y-153828754D02*
X-19962505Y-152368746D01*
D10*
X-14307500Y-153098750D03*
D11*
X-13652505Y-153828754D02*
X-14962495Y-152368746D01*
D12*
X-21272500Y-153828750D03*
X-19962500Y-152368750D03*
X-14922500Y-151288750D03*
X-14962500Y-151868750D03*
D10*
X285095000Y-132528750D03*
D11*
X285114999Y-132238750D02*
X285075001Y-132818750D01*
D12*
X280035000Y-132238750D03*
X280075000Y-132818750D03*
D10*
X280055000Y-132528750D03*
D11*
X280035001Y-132238750D02*
X280074999Y-132818750D01*
D12*
X286385000Y-134778750D03*
X285075000Y-133318750D03*
D10*
X279420000Y-134048750D03*
D11*
X278765005Y-134778754D02*
X280074995Y-133318746D01*
D10*
X285730000Y-134048750D03*
D11*
X286384995Y-134778754D02*
X285075005Y-133318746D01*
D12*
X278765000Y-134778750D03*
X280075000Y-133318750D03*
X285115000Y-132238750D03*
X285075000Y-132818750D03*
D10*
X266045000Y-132528750D03*
D11*
X266064999Y-132238750D02*
X266025001Y-132818750D01*
D12*
X260985000Y-132238750D03*
X261025000Y-132818750D03*
D10*
X261005000Y-132528750D03*
D11*
X260985001Y-132238750D02*
X261024999Y-132818750D01*
D12*
X267335000Y-134778750D03*
X266025000Y-133318750D03*
D10*
X260370000Y-134048750D03*
D11*
X259715005Y-134778754D02*
X261024995Y-133318746D01*
D10*
X266680000Y-134048750D03*
D11*
X267334995Y-134778754D02*
X266025005Y-133318746D01*
D12*
X259715000Y-134778750D03*
X261025000Y-133318750D03*
X266065000Y-132238750D03*
X266025000Y-132818750D03*
D10*
X246995000Y-132528750D03*
D11*
X247014999Y-132238750D02*
X246975001Y-132818750D01*
D12*
X241935000Y-132238750D03*
X241975000Y-132818750D03*
D10*
X241955000Y-132528750D03*
D11*
X241935001Y-132238750D02*
X241974999Y-132818750D01*
D12*
X248285000Y-134778750D03*
X246975000Y-133318750D03*
D10*
X241320000Y-134048750D03*
D11*
X240665005Y-134778754D02*
X241974995Y-133318746D01*
D10*
X247630000Y-134048750D03*
D11*
X248284995Y-134778754D02*
X246975005Y-133318746D01*
D12*
X240665000Y-134778750D03*
X241975000Y-133318750D03*
X247015000Y-132238750D03*
X246975000Y-132818750D03*
D10*
X227945000Y-132528750D03*
D11*
X227964999Y-132238750D02*
X227925001Y-132818750D01*
D12*
X222885000Y-132238750D03*
X222925000Y-132818750D03*
D10*
X222905000Y-132528750D03*
D11*
X222885001Y-132238750D02*
X222924999Y-132818750D01*
D12*
X229235000Y-134778750D03*
X227925000Y-133318750D03*
D10*
X222270000Y-134048750D03*
D11*
X221615005Y-134778754D02*
X222924995Y-133318746D01*
D10*
X228580000Y-134048750D03*
D11*
X229234995Y-134778754D02*
X227925005Y-133318746D01*
D12*
X221615000Y-134778750D03*
X222925000Y-133318750D03*
X227965000Y-132238750D03*
X227925000Y-132818750D03*
D10*
X208895000Y-132528750D03*
D11*
X208914999Y-132238750D02*
X208875001Y-132818750D01*
D12*
X203835000Y-132238750D03*
X203875000Y-132818750D03*
D10*
X203855000Y-132528750D03*
D11*
X203835001Y-132238750D02*
X203874999Y-132818750D01*
D12*
X210185000Y-134778750D03*
X208875000Y-133318750D03*
D10*
X203220000Y-134048750D03*
D11*
X202565005Y-134778754D02*
X203874995Y-133318746D01*
D10*
X209530000Y-134048750D03*
D11*
X210184995Y-134778754D02*
X208875005Y-133318746D01*
D12*
X202565000Y-134778750D03*
X203875000Y-133318750D03*
X208915000Y-132238750D03*
X208875000Y-132818750D03*
D10*
X189845000Y-132528750D03*
D11*
X189864999Y-132238750D02*
X189825001Y-132818750D01*
D12*
X184785000Y-132238750D03*
X184825000Y-132818750D03*
D10*
X184805000Y-132528750D03*
D11*
X184785001Y-132238750D02*
X184824999Y-132818750D01*
D12*
X191135000Y-134778750D03*
X189825000Y-133318750D03*
D10*
X184170000Y-134048750D03*
D11*
X183515005Y-134778754D02*
X184824995Y-133318746D01*
D10*
X190480000Y-134048750D03*
D11*
X191134995Y-134778754D02*
X189825005Y-133318746D01*
D12*
X183515000Y-134778750D03*
X184825000Y-133318750D03*
X189865000Y-132238750D03*
X189825000Y-132818750D03*
D10*
X161270000Y-132528750D03*
D11*
X161289999Y-132238750D02*
X161250001Y-132818750D01*
D12*
X156210000Y-132238750D03*
X156250000Y-132818750D03*
D10*
X156230000Y-132528750D03*
D11*
X156210001Y-132238750D02*
X156249999Y-132818750D01*
D12*
X162560000Y-134778750D03*
X161250000Y-133318750D03*
D10*
X155595000Y-134048750D03*
D11*
X154940005Y-134778754D02*
X156249995Y-133318746D01*
D10*
X161905000Y-134048750D03*
D11*
X162559995Y-134778754D02*
X161250005Y-133318746D01*
D12*
X154940000Y-134778750D03*
X156250000Y-133318750D03*
X161290000Y-132238750D03*
X161250000Y-132818750D03*
D10*
X142220000Y-132528750D03*
D11*
X142239999Y-132238750D02*
X142200001Y-132818750D01*
D12*
X137160000Y-132238750D03*
X137200000Y-132818750D03*
D10*
X137180000Y-132528750D03*
D11*
X137160001Y-132238750D02*
X137199999Y-132818750D01*
D12*
X143510000Y-134778750D03*
X142200000Y-133318750D03*
D10*
X136545000Y-134048750D03*
D11*
X135890005Y-134778754D02*
X137199995Y-133318746D01*
D10*
X142855000Y-134048750D03*
D11*
X143509995Y-134778754D02*
X142200005Y-133318746D01*
D12*
X135890000Y-134778750D03*
X137200000Y-133318750D03*
X142240000Y-132238750D03*
X142200000Y-132818750D03*
D10*
X123170000Y-132528750D03*
D11*
X123189999Y-132238750D02*
X123150001Y-132818750D01*
D12*
X118110000Y-132238750D03*
X118150000Y-132818750D03*
D10*
X118130000Y-132528750D03*
D11*
X118110001Y-132238750D02*
X118149999Y-132818750D01*
D12*
X124460000Y-134778750D03*
X123150000Y-133318750D03*
D10*
X117495000Y-134048750D03*
D11*
X116840005Y-134778754D02*
X118149995Y-133318746D01*
D10*
X123805000Y-134048750D03*
D11*
X124459995Y-134778754D02*
X123150005Y-133318746D01*
D12*
X116840000Y-134778750D03*
X118150000Y-133318750D03*
X123190000Y-132238750D03*
X123150000Y-132818750D03*
D10*
X104120000Y-132528750D03*
D11*
X104139999Y-132238750D02*
X104100001Y-132818750D01*
D12*
X99060000Y-132238750D03*
X99100000Y-132818750D03*
D10*
X99080000Y-132528750D03*
D11*
X99060001Y-132238750D02*
X99099999Y-132818750D01*
D12*
X105410000Y-134778750D03*
X104100000Y-133318750D03*
D10*
X98445000Y-134048750D03*
D11*
X97790005Y-134778754D02*
X99099995Y-133318746D01*
D10*
X104755000Y-134048750D03*
D11*
X105409995Y-134778754D02*
X104100005Y-133318746D01*
D12*
X97790000Y-134778750D03*
X99100000Y-133318750D03*
X104140000Y-132238750D03*
X104100000Y-132818750D03*
D10*
X85070000Y-132528750D03*
D11*
X85089999Y-132238750D02*
X85050001Y-132818750D01*
D12*
X80010000Y-132238750D03*
X80050000Y-132818750D03*
D10*
X80030000Y-132528750D03*
D11*
X80010001Y-132238750D02*
X80049999Y-132818750D01*
D12*
X86360000Y-134778750D03*
X85050000Y-133318750D03*
D10*
X79395000Y-134048750D03*
D11*
X78740005Y-134778754D02*
X80049995Y-133318746D01*
D10*
X85705000Y-134048750D03*
D11*
X86359995Y-134778754D02*
X85050005Y-133318746D01*
D12*
X78740000Y-134778750D03*
X80050000Y-133318750D03*
X85090000Y-132238750D03*
X85050000Y-132818750D03*
D10*
X66020000Y-132528750D03*
D11*
X66039999Y-132238750D02*
X66000001Y-132818750D01*
D12*
X60960000Y-132238750D03*
X61000000Y-132818750D03*
D10*
X60980000Y-132528750D03*
D11*
X60960001Y-132238750D02*
X60999999Y-132818750D01*
D12*
X67310000Y-134778750D03*
X66000000Y-133318750D03*
D10*
X60345000Y-134048750D03*
D11*
X59690005Y-134778754D02*
X60999995Y-133318746D01*
D10*
X66655000Y-134048750D03*
D11*
X67309995Y-134778754D02*
X66000005Y-133318746D01*
D12*
X59690000Y-134778750D03*
X61000000Y-133318750D03*
X66040000Y-132238750D03*
X66000000Y-132818750D03*
D10*
X42207500Y-132528750D03*
D11*
X42227499Y-132238750D02*
X42187501Y-132818750D01*
D12*
X37147500Y-132238750D03*
X37187500Y-132818750D03*
D10*
X37167500Y-132528750D03*
D11*
X37147501Y-132238750D02*
X37187499Y-132818750D01*
D12*
X43497500Y-134778750D03*
X42187500Y-133318750D03*
D10*
X36532500Y-134048750D03*
D11*
X35877505Y-134778754D02*
X37187495Y-133318746D01*
D10*
X42842500Y-134048750D03*
D11*
X43497495Y-134778754D02*
X42187505Y-133318746D01*
D12*
X35877500Y-134778750D03*
X37187500Y-133318750D03*
X42227500Y-132238750D03*
X42187500Y-132818750D03*
D10*
X23157500Y-132528750D03*
D11*
X23177499Y-132238750D02*
X23137501Y-132818750D01*
D12*
X18097500Y-132238750D03*
X18137500Y-132818750D03*
D10*
X18117500Y-132528750D03*
D11*
X18097501Y-132238750D02*
X18137499Y-132818750D01*
D12*
X24447500Y-134778750D03*
X23137500Y-133318750D03*
D10*
X17482500Y-134048750D03*
D11*
X16827505Y-134778754D02*
X18137495Y-133318746D01*
D10*
X23792500Y-134048750D03*
D11*
X24447495Y-134778754D02*
X23137505Y-133318746D01*
D12*
X16827500Y-134778750D03*
X18137500Y-133318750D03*
X23177500Y-132238750D03*
X23137500Y-132818750D03*
D10*
X4107500Y-132528750D03*
D11*
X4127499Y-132238750D02*
X4087501Y-132818750D01*
D12*
X-952500Y-132238750D03*
X-912500Y-132818750D03*
D10*
X-932500Y-132528750D03*
D11*
X-952499Y-132238750D02*
X-912501Y-132818750D01*
D12*
X5397500Y-134778750D03*
X4087500Y-133318750D03*
D10*
X-1567500Y-134048750D03*
D11*
X-2222495Y-134778754D02*
X-912505Y-133318746D01*
D10*
X4742500Y-134048750D03*
D11*
X5397495Y-134778754D02*
X4087505Y-133318746D01*
D12*
X-2222500Y-134778750D03*
X-912500Y-133318750D03*
X4127500Y-132238750D03*
X4087500Y-132818750D03*
D10*
X-14942500Y-132528750D03*
D11*
X-14922501Y-132238750D02*
X-14962499Y-132818750D01*
D12*
X-20002500Y-132238750D03*
X-19962500Y-132818750D03*
D10*
X-19982500Y-132528750D03*
D11*
X-20002499Y-132238750D02*
X-19962501Y-132818750D01*
D12*
X-13652500Y-134778750D03*
X-14962500Y-133318750D03*
D10*
X-20617500Y-134048750D03*
D11*
X-21272495Y-134778754D02*
X-19962505Y-133318746D01*
D10*
X-14307500Y-134048750D03*
D11*
X-13652505Y-134778754D02*
X-14962495Y-133318746D01*
D12*
X-21272500Y-134778750D03*
X-19962500Y-133318750D03*
X-14922500Y-132238750D03*
X-14962500Y-132818750D03*
D10*
X285095000Y-113478750D03*
D11*
X285114999Y-113188750D02*
X285075001Y-113768750D01*
D12*
X280035000Y-113188750D03*
X280075000Y-113768750D03*
D10*
X280055000Y-113478750D03*
D11*
X280035001Y-113188750D02*
X280074999Y-113768750D01*
D12*
X286385000Y-115728750D03*
X285075000Y-114268750D03*
D10*
X279420000Y-114998750D03*
D11*
X278765005Y-115728754D02*
X280074995Y-114268746D01*
D10*
X285730000Y-114998750D03*
D11*
X286384995Y-115728754D02*
X285075005Y-114268746D01*
D12*
X278765000Y-115728750D03*
X280075000Y-114268750D03*
X285115000Y-113188750D03*
X285075000Y-113768750D03*
D10*
X266045000Y-113478750D03*
D11*
X266064999Y-113188750D02*
X266025001Y-113768750D01*
D12*
X260985000Y-113188750D03*
X261025000Y-113768750D03*
D10*
X261005000Y-113478750D03*
D11*
X260985001Y-113188750D02*
X261024999Y-113768750D01*
D12*
X267335000Y-115728750D03*
X266025000Y-114268750D03*
D10*
X260370000Y-114998750D03*
D11*
X259715005Y-115728754D02*
X261024995Y-114268746D01*
D10*
X266680000Y-114998750D03*
D11*
X267334995Y-115728754D02*
X266025005Y-114268746D01*
D12*
X259715000Y-115728750D03*
X261025000Y-114268750D03*
X266065000Y-113188750D03*
X266025000Y-113768750D03*
D10*
X246995000Y-113478750D03*
D11*
X247014999Y-113188750D02*
X246975001Y-113768750D01*
D12*
X241935000Y-113188750D03*
X241975000Y-113768750D03*
D10*
X241955000Y-113478750D03*
D11*
X241935001Y-113188750D02*
X241974999Y-113768750D01*
D12*
X248285000Y-115728750D03*
X246975000Y-114268750D03*
D10*
X241320000Y-114998750D03*
D11*
X240665005Y-115728754D02*
X241974995Y-114268746D01*
D10*
X247630000Y-114998750D03*
D11*
X248284995Y-115728754D02*
X246975005Y-114268746D01*
D12*
X240665000Y-115728750D03*
X241975000Y-114268750D03*
X247015000Y-113188750D03*
X246975000Y-113768750D03*
D10*
X227945000Y-113478750D03*
D11*
X227964999Y-113188750D02*
X227925001Y-113768750D01*
D12*
X222885000Y-113188750D03*
X222925000Y-113768750D03*
D10*
X222905000Y-113478750D03*
D11*
X222885001Y-113188750D02*
X222924999Y-113768750D01*
D12*
X229235000Y-115728750D03*
X227925000Y-114268750D03*
D10*
X222270000Y-114998750D03*
D11*
X221615005Y-115728754D02*
X222924995Y-114268746D01*
D10*
X228580000Y-114998750D03*
D11*
X229234995Y-115728754D02*
X227925005Y-114268746D01*
D12*
X221615000Y-115728750D03*
X222925000Y-114268750D03*
X227965000Y-113188750D03*
X227925000Y-113768750D03*
D10*
X208895000Y-113478750D03*
D11*
X208914999Y-113188750D02*
X208875001Y-113768750D01*
D12*
X203835000Y-113188750D03*
X203875000Y-113768750D03*
D10*
X203855000Y-113478750D03*
D11*
X203835001Y-113188750D02*
X203874999Y-113768750D01*
D12*
X210185000Y-115728750D03*
X208875000Y-114268750D03*
D10*
X203220000Y-114998750D03*
D11*
X202565005Y-115728754D02*
X203874995Y-114268746D01*
D10*
X209530000Y-114998750D03*
D11*
X210184995Y-115728754D02*
X208875005Y-114268746D01*
D12*
X202565000Y-115728750D03*
X203875000Y-114268750D03*
X208915000Y-113188750D03*
X208875000Y-113768750D03*
D10*
X189845000Y-113478750D03*
D11*
X189864999Y-113188750D02*
X189825001Y-113768750D01*
D12*
X184785000Y-113188750D03*
X184825000Y-113768750D03*
D10*
X184805000Y-113478750D03*
D11*
X184785001Y-113188750D02*
X184824999Y-113768750D01*
D12*
X191135000Y-115728750D03*
X189825000Y-114268750D03*
D10*
X184170000Y-114998750D03*
D11*
X183515005Y-115728754D02*
X184824995Y-114268746D01*
D10*
X190480000Y-114998750D03*
D11*
X191134995Y-115728754D02*
X189825005Y-114268746D01*
D12*
X183515000Y-115728750D03*
X184825000Y-114268750D03*
X189865000Y-113188750D03*
X189825000Y-113768750D03*
D10*
X161270000Y-113478750D03*
D11*
X161289999Y-113188750D02*
X161250001Y-113768750D01*
D12*
X156210000Y-113188750D03*
X156250000Y-113768750D03*
D10*
X156230000Y-113478750D03*
D11*
X156210001Y-113188750D02*
X156249999Y-113768750D01*
D12*
X162560000Y-115728750D03*
X161250000Y-114268750D03*
D10*
X155595000Y-114998750D03*
D11*
X154940005Y-115728754D02*
X156249995Y-114268746D01*
D10*
X161905000Y-114998750D03*
D11*
X162559995Y-115728754D02*
X161250005Y-114268746D01*
D12*
X154940000Y-115728750D03*
X156250000Y-114268750D03*
X161290000Y-113188750D03*
X161250000Y-113768750D03*
D10*
X142220000Y-113478750D03*
D11*
X142239999Y-113188750D02*
X142200001Y-113768750D01*
D12*
X137160000Y-113188750D03*
X137200000Y-113768750D03*
D10*
X137180000Y-113478750D03*
D11*
X137160001Y-113188750D02*
X137199999Y-113768750D01*
D12*
X143510000Y-115728750D03*
X142200000Y-114268750D03*
D10*
X136545000Y-114998750D03*
D11*
X135890005Y-115728754D02*
X137199995Y-114268746D01*
D10*
X142855000Y-114998750D03*
D11*
X143509995Y-115728754D02*
X142200005Y-114268746D01*
D12*
X135890000Y-115728750D03*
X137200000Y-114268750D03*
X142240000Y-113188750D03*
X142200000Y-113768750D03*
D10*
X123170000Y-113478750D03*
D11*
X123189999Y-113188750D02*
X123150001Y-113768750D01*
D12*
X118110000Y-113188750D03*
X118150000Y-113768750D03*
D10*
X118130000Y-113478750D03*
D11*
X118110001Y-113188750D02*
X118149999Y-113768750D01*
D12*
X124460000Y-115728750D03*
X123150000Y-114268750D03*
D10*
X117495000Y-114998750D03*
D11*
X116840005Y-115728754D02*
X118149995Y-114268746D01*
D10*
X123805000Y-114998750D03*
D11*
X124459995Y-115728754D02*
X123150005Y-114268746D01*
D12*
X116840000Y-115728750D03*
X118150000Y-114268750D03*
X123190000Y-113188750D03*
X123150000Y-113768750D03*
D10*
X104120000Y-113478750D03*
D11*
X104139999Y-113188750D02*
X104100001Y-113768750D01*
D12*
X99060000Y-113188750D03*
X99100000Y-113768750D03*
D10*
X99080000Y-113478750D03*
D11*
X99060001Y-113188750D02*
X99099999Y-113768750D01*
D12*
X105410000Y-115728750D03*
X104100000Y-114268750D03*
D10*
X98445000Y-114998750D03*
D11*
X97790005Y-115728754D02*
X99099995Y-114268746D01*
D10*
X104755000Y-114998750D03*
D11*
X105409995Y-115728754D02*
X104100005Y-114268746D01*
D12*
X97790000Y-115728750D03*
X99100000Y-114268750D03*
X104140000Y-113188750D03*
X104100000Y-113768750D03*
D10*
X85070000Y-113478750D03*
D11*
X85089999Y-113188750D02*
X85050001Y-113768750D01*
D12*
X80010000Y-113188750D03*
X80050000Y-113768750D03*
D10*
X80030000Y-113478750D03*
D11*
X80010001Y-113188750D02*
X80049999Y-113768750D01*
D12*
X86360000Y-115728750D03*
X85050000Y-114268750D03*
D10*
X79395000Y-114998750D03*
D11*
X78740005Y-115728754D02*
X80049995Y-114268746D01*
D10*
X85705000Y-114998750D03*
D11*
X86359995Y-115728754D02*
X85050005Y-114268746D01*
D12*
X78740000Y-115728750D03*
X80050000Y-114268750D03*
X85090000Y-113188750D03*
X85050000Y-113768750D03*
D10*
X66020000Y-113478750D03*
D11*
X66039999Y-113188750D02*
X66000001Y-113768750D01*
D12*
X60960000Y-113188750D03*
X61000000Y-113768750D03*
D10*
X60980000Y-113478750D03*
D11*
X60960001Y-113188750D02*
X60999999Y-113768750D01*
D12*
X67310000Y-115728750D03*
X66000000Y-114268750D03*
D10*
X60345000Y-114998750D03*
D11*
X59690005Y-115728754D02*
X60999995Y-114268746D01*
D10*
X66655000Y-114998750D03*
D11*
X67309995Y-115728754D02*
X66000005Y-114268746D01*
D12*
X59690000Y-115728750D03*
X61000000Y-114268750D03*
X66040000Y-113188750D03*
X66000000Y-113768750D03*
D10*
X42207500Y-113478750D03*
D11*
X42227499Y-113188750D02*
X42187501Y-113768750D01*
D12*
X37147500Y-113188750D03*
X37187500Y-113768750D03*
D10*
X37167500Y-113478750D03*
D11*
X37147501Y-113188750D02*
X37187499Y-113768750D01*
D12*
X43497500Y-115728750D03*
X42187500Y-114268750D03*
D10*
X36532500Y-114998750D03*
D11*
X35877505Y-115728754D02*
X37187495Y-114268746D01*
D10*
X42842500Y-114998750D03*
D11*
X43497495Y-115728754D02*
X42187505Y-114268746D01*
D12*
X35877500Y-115728750D03*
X37187500Y-114268750D03*
X42227500Y-113188750D03*
X42187500Y-113768750D03*
D10*
X23157500Y-113478750D03*
D11*
X23177499Y-113188750D02*
X23137501Y-113768750D01*
D12*
X18097500Y-113188750D03*
X18137500Y-113768750D03*
D10*
X18117500Y-113478750D03*
D11*
X18097501Y-113188750D02*
X18137499Y-113768750D01*
D12*
X24447500Y-115728750D03*
X23137500Y-114268750D03*
D10*
X17482500Y-114998750D03*
D11*
X16827505Y-115728754D02*
X18137495Y-114268746D01*
D10*
X23792500Y-114998750D03*
D11*
X24447495Y-115728754D02*
X23137505Y-114268746D01*
D12*
X16827500Y-115728750D03*
X18137500Y-114268750D03*
X23177500Y-113188750D03*
X23137500Y-113768750D03*
D10*
X4107500Y-113478750D03*
D11*
X4127499Y-113188750D02*
X4087501Y-113768750D01*
D12*
X-952500Y-113188750D03*
X-912500Y-113768750D03*
D10*
X-932500Y-113478750D03*
D11*
X-952499Y-113188750D02*
X-912501Y-113768750D01*
D12*
X5397500Y-115728750D03*
X4087500Y-114268750D03*
D10*
X-1567500Y-114998750D03*
D11*
X-2222495Y-115728754D02*
X-912505Y-114268746D01*
D10*
X4742500Y-114998750D03*
D11*
X5397495Y-115728754D02*
X4087505Y-114268746D01*
D12*
X-2222500Y-115728750D03*
X-912500Y-114268750D03*
X4127500Y-113188750D03*
X4087500Y-113768750D03*
D10*
X-14942500Y-113478750D03*
D11*
X-14922501Y-113188750D02*
X-14962499Y-113768750D01*
D12*
X-20002500Y-113188750D03*
X-19962500Y-113768750D03*
D10*
X-19982500Y-113478750D03*
D11*
X-20002499Y-113188750D02*
X-19962501Y-113768750D01*
D12*
X-13652500Y-115728750D03*
X-14962500Y-114268750D03*
D10*
X-20617500Y-114998750D03*
D11*
X-21272495Y-115728754D02*
X-19962505Y-114268746D01*
D10*
X-14307500Y-114998750D03*
D11*
X-13652505Y-115728754D02*
X-14962495Y-114268746D01*
D12*
X-21272500Y-115728750D03*
X-19962500Y-114268750D03*
X-14922500Y-113188750D03*
X-14962500Y-113768750D03*
D10*
X285095000Y-94428750D03*
D11*
X285114999Y-94138750D02*
X285075001Y-94718750D01*
D12*
X280035000Y-94138750D03*
X280075000Y-94718750D03*
D10*
X280055000Y-94428750D03*
D11*
X280035001Y-94138750D02*
X280074999Y-94718750D01*
D12*
X286385000Y-96678750D03*
X285075000Y-95218750D03*
D10*
X279420000Y-95948750D03*
D11*
X278765005Y-96678754D02*
X280074995Y-95218746D01*
D10*
X285730000Y-95948750D03*
D11*
X286384995Y-96678754D02*
X285075005Y-95218746D01*
D12*
X278765000Y-96678750D03*
X280075000Y-95218750D03*
X285115000Y-94138750D03*
X285075000Y-94718750D03*
D10*
X266045000Y-94428750D03*
D11*
X266064999Y-94138750D02*
X266025001Y-94718750D01*
D12*
X260985000Y-94138750D03*
X261025000Y-94718750D03*
D10*
X261005000Y-94428750D03*
D11*
X260985001Y-94138750D02*
X261024999Y-94718750D01*
D12*
X267335000Y-96678750D03*
X266025000Y-95218750D03*
D10*
X260370000Y-95948750D03*
D11*
X259715005Y-96678754D02*
X261024995Y-95218746D01*
D10*
X266680000Y-95948750D03*
D11*
X267334995Y-96678754D02*
X266025005Y-95218746D01*
D12*
X259715000Y-96678750D03*
X261025000Y-95218750D03*
X266065000Y-94138750D03*
X266025000Y-94718750D03*
D10*
X246995000Y-94428750D03*
D11*
X247014999Y-94138750D02*
X246975001Y-94718750D01*
D12*
X241935000Y-94138750D03*
X241975000Y-94718750D03*
D10*
X241955000Y-94428750D03*
D11*
X241935001Y-94138750D02*
X241974999Y-94718750D01*
D12*
X248285000Y-96678750D03*
X246975000Y-95218750D03*
D10*
X241320000Y-95948750D03*
D11*
X240665005Y-96678754D02*
X241974995Y-95218746D01*
D10*
X247630000Y-95948750D03*
D11*
X248284995Y-96678754D02*
X246975005Y-95218746D01*
D12*
X240665000Y-96678750D03*
X241975000Y-95218750D03*
X247015000Y-94138750D03*
X246975000Y-94718750D03*
D10*
X227945000Y-94428750D03*
D11*
X227964999Y-94138750D02*
X227925001Y-94718750D01*
D12*
X222885000Y-94138750D03*
X222925000Y-94718750D03*
D10*
X222905000Y-94428750D03*
D11*
X222885001Y-94138750D02*
X222924999Y-94718750D01*
D12*
X229235000Y-96678750D03*
X227925000Y-95218750D03*
D10*
X222270000Y-95948750D03*
D11*
X221615005Y-96678754D02*
X222924995Y-95218746D01*
D10*
X228580000Y-95948750D03*
D11*
X229234995Y-96678754D02*
X227925005Y-95218746D01*
D12*
X221615000Y-96678750D03*
X222925000Y-95218750D03*
X227965000Y-94138750D03*
X227925000Y-94718750D03*
D10*
X208895000Y-94428750D03*
D11*
X208914999Y-94138750D02*
X208875001Y-94718750D01*
D12*
X203835000Y-94138750D03*
X203875000Y-94718750D03*
D10*
X203855000Y-94428750D03*
D11*
X203835001Y-94138750D02*
X203874999Y-94718750D01*
D12*
X210185000Y-96678750D03*
X208875000Y-95218750D03*
D10*
X203220000Y-95948750D03*
D11*
X202565005Y-96678754D02*
X203874995Y-95218746D01*
D10*
X209530000Y-95948750D03*
D11*
X210184995Y-96678754D02*
X208875005Y-95218746D01*
D12*
X202565000Y-96678750D03*
X203875000Y-95218750D03*
X208915000Y-94138750D03*
X208875000Y-94718750D03*
D10*
X189845000Y-94428750D03*
D11*
X189864999Y-94138750D02*
X189825001Y-94718750D01*
D12*
X184785000Y-94138750D03*
X184825000Y-94718750D03*
D10*
X184805000Y-94428750D03*
D11*
X184785001Y-94138750D02*
X184824999Y-94718750D01*
D12*
X191135000Y-96678750D03*
X189825000Y-95218750D03*
D10*
X184170000Y-95948750D03*
D11*
X183515005Y-96678754D02*
X184824995Y-95218746D01*
D10*
X190480000Y-95948750D03*
D11*
X191134995Y-96678754D02*
X189825005Y-95218746D01*
D12*
X183515000Y-96678750D03*
X184825000Y-95218750D03*
X189865000Y-94138750D03*
X189825000Y-94718750D03*
D10*
X161270000Y-94428750D03*
D11*
X161289999Y-94138750D02*
X161250001Y-94718750D01*
D12*
X156210000Y-94138750D03*
X156250000Y-94718750D03*
D10*
X156230000Y-94428750D03*
D11*
X156210001Y-94138750D02*
X156249999Y-94718750D01*
D12*
X162560000Y-96678750D03*
X161250000Y-95218750D03*
D10*
X155595000Y-95948750D03*
D11*
X154940005Y-96678754D02*
X156249995Y-95218746D01*
D10*
X161905000Y-95948750D03*
D11*
X162559995Y-96678754D02*
X161250005Y-95218746D01*
D12*
X154940000Y-96678750D03*
X156250000Y-95218750D03*
X161290000Y-94138750D03*
X161250000Y-94718750D03*
D10*
X142220000Y-94428750D03*
D11*
X142239999Y-94138750D02*
X142200001Y-94718750D01*
D12*
X137160000Y-94138750D03*
X137200000Y-94718750D03*
D10*
X137180000Y-94428750D03*
D11*
X137160001Y-94138750D02*
X137199999Y-94718750D01*
D12*
X143510000Y-96678750D03*
X142200000Y-95218750D03*
D10*
X136545000Y-95948750D03*
D11*
X135890005Y-96678754D02*
X137199995Y-95218746D01*
D10*
X142855000Y-95948750D03*
D11*
X143509995Y-96678754D02*
X142200005Y-95218746D01*
D12*
X135890000Y-96678750D03*
X137200000Y-95218750D03*
X142240000Y-94138750D03*
X142200000Y-94718750D03*
D10*
X123170000Y-94428750D03*
D11*
X123189999Y-94138750D02*
X123150001Y-94718750D01*
D12*
X118110000Y-94138750D03*
X118150000Y-94718750D03*
D10*
X118130000Y-94428750D03*
D11*
X118110001Y-94138750D02*
X118149999Y-94718750D01*
D12*
X124460000Y-96678750D03*
X123150000Y-95218750D03*
D10*
X117495000Y-95948750D03*
D11*
X116840005Y-96678754D02*
X118149995Y-95218746D01*
D10*
X123805000Y-95948750D03*
D11*
X124459995Y-96678754D02*
X123150005Y-95218746D01*
D12*
X116840000Y-96678750D03*
X118150000Y-95218750D03*
X123190000Y-94138750D03*
X123150000Y-94718750D03*
D10*
X104120000Y-94428750D03*
D11*
X104139999Y-94138750D02*
X104100001Y-94718750D01*
D12*
X99060000Y-94138750D03*
X99100000Y-94718750D03*
D10*
X99080000Y-94428750D03*
D11*
X99060001Y-94138750D02*
X99099999Y-94718750D01*
D12*
X105410000Y-96678750D03*
X104100000Y-95218750D03*
D10*
X98445000Y-95948750D03*
D11*
X97790005Y-96678754D02*
X99099995Y-95218746D01*
D10*
X104755000Y-95948750D03*
D11*
X105409995Y-96678754D02*
X104100005Y-95218746D01*
D12*
X97790000Y-96678750D03*
X99100000Y-95218750D03*
X104140000Y-94138750D03*
X104100000Y-94718750D03*
D10*
X85070000Y-94428750D03*
D11*
X85089999Y-94138750D02*
X85050001Y-94718750D01*
D12*
X80010000Y-94138750D03*
X80050000Y-94718750D03*
D10*
X80030000Y-94428750D03*
D11*
X80010001Y-94138750D02*
X80049999Y-94718750D01*
D12*
X86360000Y-96678750D03*
X85050000Y-95218750D03*
D10*
X79395000Y-95948750D03*
D11*
X78740005Y-96678754D02*
X80049995Y-95218746D01*
D10*
X85705000Y-95948750D03*
D11*
X86359995Y-96678754D02*
X85050005Y-95218746D01*
D12*
X78740000Y-96678750D03*
X80050000Y-95218750D03*
X85090000Y-94138750D03*
X85050000Y-94718750D03*
D10*
X66020000Y-94428750D03*
D11*
X66039999Y-94138750D02*
X66000001Y-94718750D01*
D12*
X60960000Y-94138750D03*
X61000000Y-94718750D03*
D10*
X60980000Y-94428750D03*
D11*
X60960001Y-94138750D02*
X60999999Y-94718750D01*
D12*
X67310000Y-96678750D03*
X66000000Y-95218750D03*
D10*
X60345000Y-95948750D03*
D11*
X59690005Y-96678754D02*
X60999995Y-95218746D01*
D10*
X66655000Y-95948750D03*
D11*
X67309995Y-96678754D02*
X66000005Y-95218746D01*
D12*
X59690000Y-96678750D03*
X61000000Y-95218750D03*
X66040000Y-94138750D03*
X66000000Y-94718750D03*
D10*
X42207500Y-94428750D03*
D11*
X42227499Y-94138750D02*
X42187501Y-94718750D01*
D12*
X37147500Y-94138750D03*
X37187500Y-94718750D03*
D10*
X37167500Y-94428750D03*
D11*
X37147501Y-94138750D02*
X37187499Y-94718750D01*
D12*
X43497500Y-96678750D03*
X42187500Y-95218750D03*
D10*
X36532500Y-95948750D03*
D11*
X35877505Y-96678754D02*
X37187495Y-95218746D01*
D10*
X42842500Y-95948750D03*
D11*
X43497495Y-96678754D02*
X42187505Y-95218746D01*
D12*
X35877500Y-96678750D03*
X37187500Y-95218750D03*
X42227500Y-94138750D03*
X42187500Y-94718750D03*
D10*
X23157500Y-94428750D03*
D11*
X23177499Y-94138750D02*
X23137501Y-94718750D01*
D12*
X18097500Y-94138750D03*
X18137500Y-94718750D03*
D10*
X18117500Y-94428750D03*
D11*
X18097501Y-94138750D02*
X18137499Y-94718750D01*
D12*
X24447500Y-96678750D03*
X23137500Y-95218750D03*
D10*
X17482500Y-95948750D03*
D11*
X16827505Y-96678754D02*
X18137495Y-95218746D01*
D10*
X23792500Y-95948750D03*
D11*
X24447495Y-96678754D02*
X23137505Y-95218746D01*
D12*
X16827500Y-96678750D03*
X18137500Y-95218750D03*
X23177500Y-94138750D03*
X23137500Y-94718750D03*
D10*
X4107500Y-94428750D03*
D11*
X4127499Y-94138750D02*
X4087501Y-94718750D01*
D12*
X-952500Y-94138750D03*
X-912500Y-94718750D03*
D10*
X-932500Y-94428750D03*
D11*
X-952499Y-94138750D02*
X-912501Y-94718750D01*
D12*
X5397500Y-96678750D03*
X4087500Y-95218750D03*
D10*
X-1567500Y-95948750D03*
D11*
X-2222495Y-96678754D02*
X-912505Y-95218746D01*
D10*
X4742500Y-95948750D03*
D11*
X5397495Y-96678754D02*
X4087505Y-95218746D01*
D12*
X-2222500Y-96678750D03*
X-912500Y-95218750D03*
X4127500Y-94138750D03*
X4087500Y-94718750D03*
D10*
X-14942500Y-94428750D03*
D11*
X-14922501Y-94138750D02*
X-14962499Y-94718750D01*
D12*
X-20002500Y-94138750D03*
X-19962500Y-94718750D03*
D10*
X-19982500Y-94428750D03*
D11*
X-20002499Y-94138750D02*
X-19962501Y-94718750D01*
D12*
X-13652500Y-96678750D03*
X-14962500Y-95218750D03*
D10*
X-20617500Y-95948750D03*
D11*
X-21272495Y-96678754D02*
X-19962505Y-95218746D01*
D10*
X-14307500Y-95948750D03*
D11*
X-13652505Y-96678754D02*
X-14962495Y-95218746D01*
D12*
X-21272500Y-96678750D03*
X-19962500Y-95218750D03*
X-14922500Y-94138750D03*
X-14962500Y-94718750D03*
D13*
X181768750Y-158868750D03*
X181768750Y-153868750D03*
D14*
X181768750Y-160268750D03*
D15*
X181768750Y-152468750D03*
D16*
X181768750Y-154968750D03*
X181768750Y-157768750D03*
X-9525000Y-157768750D03*
X-9525000Y-154968750D03*
D15*
X-9525000Y-152468750D03*
D14*
X-9525000Y-160268750D03*
D13*
X-9525000Y-153868750D03*
X-9525000Y-158868750D03*
D16*
X-9525000Y-138718750D03*
X-9525000Y-135918750D03*
D15*
X-9525000Y-133418750D03*
D14*
X-9525000Y-141218750D03*
D13*
X-9525000Y-134818750D03*
X-9525000Y-139818750D03*
D16*
X-9525000Y-119668750D03*
X-9525000Y-116868750D03*
D15*
X-9525000Y-114368750D03*
D14*
X-9525000Y-122168750D03*
D13*
X-9525000Y-115768750D03*
X-9525000Y-120768750D03*
X-9525000Y-101718750D03*
X-9525000Y-96718750D03*
D14*
X-9525000Y-103118750D03*
D15*
X-9525000Y-95318750D03*
D16*
X-9525000Y-97818750D03*
X-9525000Y-100618750D03*
D13*
X255587500Y-158868750D03*
X255587500Y-153868750D03*
D14*
X255587500Y-160268750D03*
D15*
X255587500Y-152468750D03*
D16*
X255587500Y-154968750D03*
X255587500Y-157768750D03*
D13*
X217487500Y-158868750D03*
X217487500Y-153868750D03*
D14*
X217487500Y-160268750D03*
D15*
X217487500Y-152468750D03*
D16*
X217487500Y-154968750D03*
X217487500Y-157768750D03*
D13*
X134143750Y-158868750D03*
X134143750Y-153868750D03*
D14*
X134143750Y-160268750D03*
D15*
X134143750Y-152468750D03*
D16*
X134143750Y-154968750D03*
X134143750Y-157768750D03*
D13*
X93662500Y-158868750D03*
X93662500Y-153868750D03*
D14*
X93662500Y-160268750D03*
D15*
X93662500Y-152468750D03*
D16*
X93662500Y-154968750D03*
X93662500Y-157768750D03*
D13*
X55562500Y-158868750D03*
X55562500Y-153868750D03*
D14*
X55562500Y-160268750D03*
D15*
X55562500Y-152468750D03*
D16*
X55562500Y-154968750D03*
X55562500Y-157768750D03*
D13*
X12700000Y-158868750D03*
X12700000Y-153868750D03*
D14*
X12700000Y-160268750D03*
D15*
X12700000Y-152468750D03*
D16*
X12700000Y-154968750D03*
X12700000Y-157768750D03*
D13*
X274637500Y-158868750D03*
X274637500Y-153868750D03*
D14*
X274637500Y-160268750D03*
D15*
X274637500Y-152468750D03*
D16*
X274637500Y-154968750D03*
X274637500Y-157768750D03*
D13*
X236537500Y-158868750D03*
X236537500Y-153868750D03*
D14*
X236537500Y-160268750D03*
D15*
X236537500Y-152468750D03*
D16*
X236537500Y-154968750D03*
X236537500Y-157768750D03*
D13*
X196056250Y-158868750D03*
X196056250Y-153868750D03*
D14*
X196056250Y-160268750D03*
D15*
X196056250Y-152468750D03*
D16*
X196056250Y-154968750D03*
X196056250Y-157768750D03*
D13*
X112712500Y-158868750D03*
X112712500Y-153868750D03*
D14*
X112712500Y-160268750D03*
D15*
X112712500Y-152468750D03*
D16*
X112712500Y-154968750D03*
X112712500Y-157768750D03*
D13*
X74612500Y-158868750D03*
X74612500Y-153868750D03*
D14*
X74612500Y-160268750D03*
D15*
X74612500Y-152468750D03*
D16*
X74612500Y-154968750D03*
X74612500Y-157768750D03*
D13*
X31750000Y-158868750D03*
X31750000Y-153868750D03*
D14*
X31750000Y-160268750D03*
D15*
X31750000Y-152468750D03*
D16*
X31750000Y-154968750D03*
X31750000Y-157768750D03*
D13*
X-6350000Y-158868750D03*
X-6350000Y-153868750D03*
D14*
X-6350000Y-160268750D03*
D15*
X-6350000Y-152468750D03*
D16*
X-6350000Y-154968750D03*
X-6350000Y-157768750D03*
D13*
X255587500Y-139818750D03*
X255587500Y-134818750D03*
D14*
X255587500Y-141218750D03*
D15*
X255587500Y-133418750D03*
D16*
X255587500Y-135918750D03*
X255587500Y-138718750D03*
D13*
X217487500Y-139818750D03*
X217487500Y-134818750D03*
D14*
X217487500Y-141218750D03*
D15*
X217487500Y-133418750D03*
D16*
X217487500Y-135918750D03*
X217487500Y-138718750D03*
D13*
X179387500Y-139818750D03*
X179387500Y-134818750D03*
D14*
X179387500Y-141218750D03*
D15*
X179387500Y-133418750D03*
D16*
X179387500Y-135918750D03*
X179387500Y-138718750D03*
D13*
X131762500Y-139818750D03*
X131762500Y-134818750D03*
D14*
X131762500Y-141218750D03*
D15*
X131762500Y-133418750D03*
D16*
X131762500Y-135918750D03*
X131762500Y-138718750D03*
D13*
X93662500Y-139818750D03*
X93662500Y-134818750D03*
D14*
X93662500Y-141218750D03*
D15*
X93662500Y-133418750D03*
D16*
X93662500Y-135918750D03*
X93662500Y-138718750D03*
D13*
X55562500Y-139818750D03*
X55562500Y-134818750D03*
D14*
X55562500Y-141218750D03*
D15*
X55562500Y-133418750D03*
D16*
X55562500Y-135918750D03*
X55562500Y-138718750D03*
D13*
X12700000Y-139818750D03*
X12700000Y-134818750D03*
D14*
X12700000Y-141218750D03*
D15*
X12700000Y-133418750D03*
D16*
X12700000Y-135918750D03*
X12700000Y-138718750D03*
D13*
X274637500Y-139818750D03*
X274637500Y-134818750D03*
D14*
X274637500Y-141218750D03*
D15*
X274637500Y-133418750D03*
D16*
X274637500Y-135918750D03*
X274637500Y-138718750D03*
D13*
X236537500Y-139818750D03*
X236537500Y-134818750D03*
D14*
X236537500Y-141218750D03*
D15*
X236537500Y-133418750D03*
D16*
X236537500Y-135918750D03*
X236537500Y-138718750D03*
D13*
X198437500Y-139818750D03*
X198437500Y-134818750D03*
D14*
X198437500Y-141218750D03*
D15*
X198437500Y-133418750D03*
D16*
X198437500Y-135918750D03*
X198437500Y-138718750D03*
D13*
X150812500Y-139818750D03*
X150812500Y-134818750D03*
D14*
X150812500Y-141218750D03*
D15*
X150812500Y-133418750D03*
D16*
X150812500Y-135918750D03*
X150812500Y-138718750D03*
D13*
X112712500Y-139818750D03*
X112712500Y-134818750D03*
D14*
X112712500Y-141218750D03*
D15*
X112712500Y-133418750D03*
D16*
X112712500Y-135918750D03*
X112712500Y-138718750D03*
D13*
X74612500Y-139818750D03*
X74612500Y-134818750D03*
D14*
X74612500Y-141218750D03*
D15*
X74612500Y-133418750D03*
D16*
X74612500Y-135918750D03*
X74612500Y-138718750D03*
D13*
X31750000Y-139818750D03*
X31750000Y-134818750D03*
D14*
X31750000Y-141218750D03*
D15*
X31750000Y-133418750D03*
D16*
X31750000Y-135918750D03*
X31750000Y-138718750D03*
D13*
X-6350000Y-139818750D03*
X-6350000Y-134818750D03*
D14*
X-6350000Y-141218750D03*
D15*
X-6350000Y-133418750D03*
D16*
X-6350000Y-135918750D03*
X-6350000Y-138718750D03*
D13*
X255587500Y-120768750D03*
X255587500Y-115768750D03*
D14*
X255587500Y-122168750D03*
D15*
X255587500Y-114368750D03*
D16*
X255587500Y-116868750D03*
X255587500Y-119668750D03*
D13*
X217487500Y-120768750D03*
X217487500Y-115768750D03*
D14*
X217487500Y-122168750D03*
D15*
X217487500Y-114368750D03*
D16*
X217487500Y-116868750D03*
X217487500Y-119668750D03*
D13*
X179387500Y-120768750D03*
X179387500Y-115768750D03*
D14*
X179387500Y-122168750D03*
D15*
X179387500Y-114368750D03*
D16*
X179387500Y-116868750D03*
X179387500Y-119668750D03*
D13*
X131762500Y-120768750D03*
X131762500Y-115768750D03*
D14*
X131762500Y-122168750D03*
D15*
X131762500Y-114368750D03*
D16*
X131762500Y-116868750D03*
X131762500Y-119668750D03*
D13*
X93662500Y-120768750D03*
X93662500Y-115768750D03*
D14*
X93662500Y-122168750D03*
D15*
X93662500Y-114368750D03*
D16*
X93662500Y-116868750D03*
X93662500Y-119668750D03*
D13*
X55562500Y-120768750D03*
X55562500Y-115768750D03*
D14*
X55562500Y-122168750D03*
D15*
X55562500Y-114368750D03*
D16*
X55562500Y-116868750D03*
X55562500Y-119668750D03*
D13*
X12700000Y-120768750D03*
X12700000Y-115768750D03*
D14*
X12700000Y-122168750D03*
D15*
X12700000Y-114368750D03*
D16*
X12700000Y-116868750D03*
X12700000Y-119668750D03*
D13*
X274637500Y-120768750D03*
X274637500Y-115768750D03*
D14*
X274637500Y-122168750D03*
D15*
X274637500Y-114368750D03*
D16*
X274637500Y-116868750D03*
X274637500Y-119668750D03*
D13*
X236537500Y-120768750D03*
X236537500Y-115768750D03*
D14*
X236537500Y-122168750D03*
D15*
X236537500Y-114368750D03*
D16*
X236537500Y-116868750D03*
X236537500Y-119668750D03*
D13*
X198437500Y-120768750D03*
X198437500Y-115768750D03*
D14*
X198437500Y-122168750D03*
D15*
X198437500Y-114368750D03*
D16*
X198437500Y-116868750D03*
X198437500Y-119668750D03*
D13*
X150812500Y-120768750D03*
X150812500Y-115768750D03*
D14*
X150812500Y-122168750D03*
D15*
X150812500Y-114368750D03*
D16*
X150812500Y-116868750D03*
X150812500Y-119668750D03*
D13*
X112712500Y-120768750D03*
X112712500Y-115768750D03*
D14*
X112712500Y-122168750D03*
D15*
X112712500Y-114368750D03*
D16*
X112712500Y-116868750D03*
X112712500Y-119668750D03*
D13*
X74612500Y-120768750D03*
X74612500Y-115768750D03*
D14*
X74612500Y-122168750D03*
D15*
X74612500Y-114368750D03*
D16*
X74612500Y-116868750D03*
X74612500Y-119668750D03*
D13*
X28575000Y-120768750D03*
X28575000Y-115768750D03*
D14*
X28575000Y-122168750D03*
D15*
X28575000Y-114368750D03*
D16*
X28575000Y-116868750D03*
X28575000Y-119668750D03*
D13*
X-6350000Y-120768750D03*
X-6350000Y-115768750D03*
D14*
X-6350000Y-122168750D03*
D15*
X-6350000Y-114368750D03*
D16*
X-6350000Y-116868750D03*
X-6350000Y-119668750D03*
D13*
X255587500Y-101718750D03*
X255587500Y-96718750D03*
D14*
X255587500Y-103118750D03*
D15*
X255587500Y-95318750D03*
D16*
X255587500Y-97818750D03*
X255587500Y-100618750D03*
D13*
X217487500Y-101718750D03*
X217487500Y-96718750D03*
D14*
X217487500Y-103118750D03*
D15*
X217487500Y-95318750D03*
D16*
X217487500Y-97818750D03*
X217487500Y-100618750D03*
D13*
X179387500Y-101718750D03*
X179387500Y-96718750D03*
D14*
X179387500Y-103118750D03*
D15*
X179387500Y-95318750D03*
D16*
X179387500Y-97818750D03*
X179387500Y-100618750D03*
D13*
X131762500Y-101718750D03*
X131762500Y-96718750D03*
D14*
X131762500Y-103118750D03*
D15*
X131762500Y-95318750D03*
D16*
X131762500Y-97818750D03*
X131762500Y-100618750D03*
D13*
X93662500Y-101718750D03*
X93662500Y-96718750D03*
D14*
X93662500Y-103118750D03*
D15*
X93662500Y-95318750D03*
D16*
X93662500Y-97818750D03*
X93662500Y-100618750D03*
D13*
X55562500Y-101718750D03*
X55562500Y-96718750D03*
D14*
X55562500Y-103118750D03*
D15*
X55562500Y-95318750D03*
D16*
X55562500Y-97818750D03*
X55562500Y-100618750D03*
D13*
X12700000Y-101718750D03*
X12700000Y-96718750D03*
D14*
X12700000Y-103118750D03*
D15*
X12700000Y-95318750D03*
D16*
X12700000Y-97818750D03*
X12700000Y-100618750D03*
D13*
X274637500Y-101718750D03*
X274637500Y-96718750D03*
D14*
X274637500Y-103118750D03*
D15*
X274637500Y-95318750D03*
D16*
X274637500Y-97818750D03*
X274637500Y-100618750D03*
D13*
X236537500Y-101718750D03*
X236537500Y-96718750D03*
D14*
X236537500Y-103118750D03*
D15*
X236537500Y-95318750D03*
D16*
X236537500Y-97818750D03*
X236537500Y-100618750D03*
D13*
X198437500Y-101718750D03*
X198437500Y-96718750D03*
D14*
X198437500Y-103118750D03*
D15*
X198437500Y-95318750D03*
D16*
X198437500Y-97818750D03*
X198437500Y-100618750D03*
D13*
X150812500Y-101718750D03*
X150812500Y-96718750D03*
D14*
X150812500Y-103118750D03*
D15*
X150812500Y-95318750D03*
D16*
X150812500Y-97818750D03*
X150812500Y-100618750D03*
D13*
X112712500Y-101718750D03*
X112712500Y-96718750D03*
D14*
X112712500Y-103118750D03*
D15*
X112712500Y-95318750D03*
D16*
X112712500Y-97818750D03*
X112712500Y-100618750D03*
D13*
X74612500Y-101718750D03*
X74612500Y-96718750D03*
D14*
X74612500Y-103118750D03*
D15*
X74612500Y-95318750D03*
D16*
X74612500Y-97818750D03*
X74612500Y-100618750D03*
D13*
X28575000Y-101718750D03*
X28575000Y-96718750D03*
D14*
X28575000Y-103118750D03*
D15*
X28575000Y-95318750D03*
D16*
X28575000Y-97818750D03*
X28575000Y-100618750D03*
D13*
X-6350000Y-101718750D03*
X-6350000Y-96718750D03*
D14*
X-6350000Y-103118750D03*
D15*
X-6350000Y-95318750D03*
D16*
X-6350000Y-97818750D03*
X-6350000Y-100618750D03*
D17*
X47307500Y-91598750D03*
X32067500Y-119538750D03*
X47307500Y-94138750D03*
X47307500Y-96678750D03*
X47307500Y-99218750D03*
X47307500Y-101758750D03*
X47307500Y-104298750D03*
X47307500Y-106838750D03*
X47307500Y-109378750D03*
X47307500Y-111918750D03*
X47307500Y-114458750D03*
X47307500Y-116998750D03*
X47307500Y-119538750D03*
X32067500Y-116998750D03*
X32067500Y-114458750D03*
X32067500Y-111918750D03*
X32067500Y-109378750D03*
X32067500Y-106838750D03*
X32067500Y-104298750D03*
X32067500Y-101758750D03*
X32067500Y-99218750D03*
X32067500Y-96678750D03*
X32067500Y-94138750D03*
D18*
X32067500Y-91598750D03*
D19*
X49212500Y-106362500D03*
X74612500Y-106362500D03*
X112712500Y-106362500D03*
X150812500Y-106362500D03*
X198437500Y-106362500D03*
X236537500Y-106362500D03*
X274637500Y-106362500D03*
X-6350000Y-106362500D03*
X28575000Y-106362500D03*
X12700000Y-105568750D03*
X-9525000Y-105568750D03*
X55562500Y-105568750D03*
X93662500Y-105568750D03*
X179387500Y-105568750D03*
X217487500Y-105568750D03*
X255587500Y-105568750D03*
X131762500Y-105568750D03*
X-6350000Y-125412500D03*
X28575000Y-125412500D03*
X274637500Y-125412500D03*
X236537500Y-125412500D03*
X198437500Y-125412500D03*
X150812500Y-125412500D03*
X112712500Y-125412500D03*
X74612500Y-125412500D03*
X51593750Y-125412500D03*
X-9525000Y-124618750D03*
X12700000Y-124618750D03*
X55562500Y-124618750D03*
X93662500Y-124618750D03*
X131762500Y-124618750D03*
X179387500Y-124618750D03*
X217487500Y-124618750D03*
X255587500Y-124618750D03*
X50800000Y-124618750D03*
X-6350000Y-144462500D03*
X31750000Y-144462500D03*
X74612500Y-144462500D03*
X112712500Y-144462500D03*
X150812500Y-144462500D03*
X198437500Y-144462500D03*
X236537500Y-144462500D03*
X274637500Y-144462500D03*
X50006250Y-144462500D03*
X-9525000Y-143668750D03*
X12700000Y-143668750D03*
X55562500Y-143668750D03*
X93662500Y-143668750D03*
X131762500Y-143668750D03*
X179387500Y-143668750D03*
X217487500Y-143668750D03*
X255587500Y-143668750D03*
X49237801Y-143668750D03*
X-6350000Y-163512500D03*
X31750000Y-163512500D03*
X274637500Y-163512500D03*
X236537500Y-163512500D03*
X196056250Y-163512500D03*
X112712500Y-163512500D03*
X74612500Y-163512500D03*
X48418750Y-163512500D03*
X-9525000Y-162718750D03*
X12700000Y-162718750D03*
X55562500Y-162718750D03*
X255587500Y-162718750D03*
X217487500Y-162718750D03*
X134143750Y-162718750D03*
X93662500Y-162718750D03*
X47625000Y-162718750D03*
X-9525000Y-148987702D03*
X31750000Y-127793750D03*
X4087500Y-127912500D03*
X42227500Y-120808750D03*
X33337500Y-127793750D03*
X66655000Y-127813750D03*
X105410000Y-110966250D03*
X30956250Y-127000000D03*
X143510000Y-127158750D03*
X190500000Y-145256250D03*
X169862500Y-145256250D03*
X30162500Y-126206250D03*
X191135000Y-126365000D03*
X229235000Y-104616250D03*
X246975000Y-107831250D03*
X229235000Y-107816500D03*
X33449805Y-106320386D03*
X266065000Y-105410000D03*
X286385000Y-105410000D03*
X50800000Y-107156250D03*
X53975000Y-93662500D03*
D20*
X-2197500Y-95318750D02*
X-1567500Y-95948750D01*
X-6350000Y-95318750D02*
X-2197500Y-95318750D01*
X49212500Y-106362500D02*
X74612500Y-106362500D01*
X74612500Y-106362500D02*
X112712500Y-106362500D01*
X112712500Y-106362500D02*
X150812500Y-106362500D01*
X150812500Y-106362500D02*
X198437500Y-106362500D01*
X198437500Y-106362500D02*
X236537500Y-106362500D01*
X236537500Y-106362500D02*
X274637500Y-106362500D01*
X-6350000Y-106362500D02*
X28575000Y-106362500D01*
X46068225Y-101758750D02*
X47307500Y-101758750D01*
X38792566Y-101758750D02*
X46068225Y-101758750D01*
X37589265Y-100555449D02*
X38792566Y-101758750D01*
X30242301Y-100555449D02*
X37589265Y-100555449D01*
X29079000Y-101718750D02*
X30242301Y-100555449D01*
X28575000Y-101718750D02*
X29079000Y-101718750D01*
X35773287Y-95218750D02*
X37187500Y-95218750D01*
X35649986Y-95342051D02*
X35773287Y-95218750D01*
X31489915Y-95342051D02*
X35649986Y-95342051D01*
X31466614Y-95318750D02*
X31489915Y-95342051D01*
X28575000Y-95318750D02*
X31466614Y-95318750D01*
X79950000Y-95318750D02*
X80050000Y-95218750D01*
X74612500Y-95318750D02*
X79950000Y-95318750D01*
X118050000Y-95318750D02*
X118150000Y-95218750D01*
X112712500Y-95318750D02*
X118050000Y-95318750D01*
X155920000Y-94428750D02*
X156230000Y-94428750D01*
X155030000Y-95318750D02*
X155920000Y-94428750D01*
X150812500Y-95318750D02*
X155030000Y-95318750D01*
X202965000Y-95318750D02*
X203855000Y-94428750D01*
X198437500Y-95318750D02*
X202965000Y-95318750D01*
X241875000Y-95318750D02*
X241975000Y-95218750D01*
X236537500Y-95318750D02*
X241875000Y-95318750D01*
X278790000Y-95318750D02*
X279420000Y-95948750D01*
X274637500Y-95318750D02*
X278790000Y-95318750D01*
X-20002500Y-94138750D02*
X-17938750Y-92075000D01*
X-12768750Y-92075000D02*
X-9525000Y-95318750D01*
X-17938750Y-92075000D02*
X-12768750Y-92075000D01*
X29016614Y-105568750D02*
X12700000Y-105568750D01*
X47307500Y-104298750D02*
X46037500Y-105568750D01*
X46037500Y-105568750D02*
X29016614Y-105568750D01*
X12700000Y-105568750D02*
X-9525000Y-105568750D01*
X47307500Y-104298750D02*
X48577500Y-105568750D01*
X48577500Y-105568750D02*
X55562500Y-105568750D01*
X55562500Y-105568750D02*
X93662500Y-105568750D01*
X93662500Y-105568750D02*
X128587500Y-105568750D01*
X179387500Y-105568750D02*
X217487500Y-105568750D01*
X217487500Y-105568750D02*
X255587500Y-105568750D01*
X128587500Y-105568750D02*
X131762500Y-105568750D01*
X131762500Y-105568750D02*
X179387500Y-105568750D01*
X17482500Y-95883750D02*
X17482500Y-95948750D01*
X16917500Y-95318750D02*
X17482500Y-95883750D01*
X12700000Y-95318750D02*
X16917500Y-95318750D01*
X59880000Y-95218750D02*
X61000000Y-95218750D01*
X59780000Y-95318750D02*
X59880000Y-95218750D01*
X55562500Y-95318750D02*
X59780000Y-95318750D01*
X98500000Y-95318750D02*
X99100000Y-94718750D01*
X93662500Y-95318750D02*
X98500000Y-95318750D01*
X136870000Y-94428750D02*
X137180000Y-94428750D01*
X135980000Y-95318750D02*
X136870000Y-94428750D01*
X137100000Y-95318750D02*
X137200000Y-95218750D01*
X131762500Y-95318750D02*
X137100000Y-95318750D01*
X183540000Y-95318750D02*
X184170000Y-95948750D01*
X179387500Y-95318750D02*
X183540000Y-95318750D01*
X221640000Y-95318750D02*
X222270000Y-95948750D01*
X217487500Y-95318750D02*
X221640000Y-95318750D01*
X260115000Y-95318750D02*
X261005000Y-94428750D01*
X255587500Y-95318750D02*
X260115000Y-95318750D01*
X-6350000Y-125412500D02*
X28575000Y-125412500D01*
X274637500Y-125412500D02*
X236537500Y-125412500D01*
X236537500Y-125412500D02*
X198437500Y-125412500D01*
X198437500Y-125412500D02*
X150812500Y-125412500D01*
X150812500Y-125412500D02*
X112712500Y-125412500D01*
X112712500Y-125412500D02*
X74612500Y-125412500D01*
X74612500Y-125412500D02*
X28575000Y-125412500D01*
X-2197500Y-114368750D02*
X-1567500Y-114998750D01*
X-6350000Y-114368750D02*
X-2197500Y-114368750D01*
X36187501Y-113268751D02*
X37187500Y-114268750D01*
X36174199Y-113255449D02*
X36187501Y-113268751D01*
X29688301Y-113255449D02*
X36174199Y-113255449D01*
X28575000Y-114368750D02*
X29688301Y-113255449D01*
X79950000Y-114368750D02*
X80050000Y-114268750D01*
X74612500Y-114368750D02*
X79950000Y-114368750D01*
X117820000Y-113478750D02*
X118130000Y-113478750D01*
X116930000Y-114368750D02*
X117820000Y-113478750D01*
X112712500Y-114368750D02*
X116930000Y-114368750D01*
X156150000Y-114368750D02*
X156250000Y-114268750D01*
X150812500Y-114368750D02*
X156150000Y-114368750D01*
X202965000Y-114368750D02*
X203855000Y-113478750D01*
X198437500Y-114368750D02*
X202965000Y-114368750D01*
X241375000Y-114368750D02*
X241975000Y-113768750D01*
X236537500Y-114368750D02*
X241375000Y-114368750D01*
X278790000Y-114368750D02*
X279420000Y-114998750D01*
X274637500Y-114368750D02*
X278790000Y-114368750D01*
X-9525000Y-124618750D02*
X12700000Y-124618750D01*
X12700000Y-124618750D02*
X55562500Y-124618750D01*
X55562500Y-124618750D02*
X93662500Y-124618750D01*
X93662500Y-124618750D02*
X131762500Y-124618750D01*
X131762500Y-124618750D02*
X179387500Y-124618750D01*
X179387500Y-124618750D02*
X217487500Y-124618750D01*
X217487500Y-124618750D02*
X255587500Y-124618750D01*
X-18962501Y-113268751D02*
X-19962500Y-114268750D01*
X-17938750Y-111125000D02*
X-20002500Y-113188750D01*
X-12700000Y-111125000D02*
X-17938750Y-111125000D01*
X-10324999Y-113500001D02*
X-12700000Y-111125000D01*
X-9525000Y-114368750D02*
X-10324999Y-113568751D01*
X-10324999Y-113568751D02*
X-10324999Y-113500001D01*
X18037500Y-114368750D02*
X18137500Y-114268750D01*
X12700000Y-114368750D02*
X18037500Y-114368750D01*
X60400000Y-114368750D02*
X61000000Y-113768750D01*
X55562500Y-114368750D02*
X60400000Y-114368750D01*
X99000000Y-114368750D02*
X99100000Y-114268750D01*
X93662500Y-114368750D02*
X99000000Y-114368750D01*
X136290000Y-114368750D02*
X137180000Y-113478750D01*
X131762500Y-114368750D02*
X136290000Y-114368750D01*
X184725000Y-114368750D02*
X184825000Y-114268750D01*
X179387500Y-114368750D02*
X184725000Y-114368750D01*
X222325000Y-114368750D02*
X222925000Y-113768750D01*
X217487500Y-114368750D02*
X222325000Y-114368750D01*
X-6350000Y-144462500D02*
X31750000Y-144462500D01*
X74612500Y-144462500D02*
X112712500Y-144462500D01*
X112712500Y-144462500D02*
X150812500Y-144462500D01*
X150812500Y-144462500D02*
X198437500Y-144462500D01*
X198437500Y-144462500D02*
X236537500Y-144462500D01*
X236537500Y-144462500D02*
X274637500Y-144462500D01*
X31750000Y-144462500D02*
X50006250Y-144462500D01*
X50006250Y-144462500D02*
X74612500Y-144462500D01*
X259740000Y-114368750D02*
X260370000Y-114998750D01*
X255587500Y-114368750D02*
X259740000Y-114368750D01*
X-1512500Y-133418750D02*
X-912500Y-132818750D01*
X-6350000Y-133418750D02*
X-1512500Y-133418750D01*
X35902500Y-133418750D02*
X36532500Y-134048750D01*
X31750000Y-133418750D02*
X35902500Y-133418750D01*
X78765000Y-133418750D02*
X79395000Y-134048750D01*
X74612500Y-133418750D02*
X78765000Y-133418750D01*
X117030000Y-133318750D02*
X118150000Y-133318750D01*
X116930000Y-133418750D02*
X117030000Y-133318750D01*
X112712500Y-133418750D02*
X116930000Y-133418750D01*
X155650000Y-133418750D02*
X156250000Y-132818750D01*
X150812500Y-133418750D02*
X155650000Y-133418750D01*
X203775000Y-133418750D02*
X203875000Y-133318750D01*
X198437500Y-133418750D02*
X203775000Y-133418750D01*
X240690000Y-133418750D02*
X241320000Y-134048750D01*
X236537500Y-133418750D02*
X240690000Y-133418750D01*
X-9525000Y-143668750D02*
X12700000Y-143668750D01*
X12700000Y-143668750D02*
X55562500Y-143668750D01*
X55562500Y-143668750D02*
X93662500Y-143668750D01*
X93662500Y-143668750D02*
X131762500Y-143668750D01*
X131762500Y-143668750D02*
X179387500Y-143668750D01*
X179387500Y-143668750D02*
X217487500Y-143668750D01*
X217487500Y-143668750D02*
X255587500Y-143668750D01*
X278790000Y-133418750D02*
X279420000Y-134048750D01*
X274637500Y-133418750D02*
X278790000Y-133418750D01*
X-18974531Y-132405781D02*
X-20617500Y-134048750D01*
X-9525000Y-133418750D02*
X-12768750Y-130175000D01*
X-18962501Y-131818751D02*
X-19962500Y-132818750D01*
X-17318750Y-130175000D02*
X-18962501Y-131818751D01*
X-12768750Y-130175000D02*
X-17318750Y-130175000D01*
X16852500Y-133418750D02*
X17482500Y-134048750D01*
X12700000Y-133418750D02*
X16852500Y-133418750D01*
X59715000Y-133418750D02*
X60345000Y-134048750D01*
X55562500Y-133418750D02*
X59715000Y-133418750D01*
X98190000Y-133418750D02*
X99080000Y-132528750D01*
X93662500Y-133418750D02*
X98190000Y-133418750D01*
X137100000Y-133418750D02*
X137200000Y-133318750D01*
X131762500Y-133418750D02*
X137100000Y-133418750D01*
X183915000Y-133418750D02*
X184805000Y-132528750D01*
X179387500Y-133418750D02*
X183915000Y-133418750D01*
X-6350000Y-163512500D02*
X31750000Y-163512500D01*
X274637500Y-163512500D02*
X236537500Y-163512500D01*
X236537500Y-163512500D02*
X196056250Y-163512500D01*
X74612500Y-163512500D02*
X112712500Y-163512500D01*
X187556232Y-163512500D02*
X196056250Y-163512500D01*
X185863981Y-165204751D02*
X187556232Y-163512500D01*
X160211019Y-165204751D02*
X185863981Y-165204751D01*
X112712500Y-163512500D02*
X158518768Y-163512500D01*
X158518768Y-163512500D02*
X160211019Y-165204751D01*
X74612500Y-163512500D02*
X48418750Y-163512500D01*
X48418750Y-163512500D02*
X31750000Y-163512500D01*
X222015000Y-133418750D02*
X222905000Y-132528750D01*
X217487500Y-133418750D02*
X222015000Y-133418750D01*
X259740000Y-133418750D02*
X260370000Y-134048750D01*
X255587500Y-133418750D02*
X259740000Y-133418750D01*
X-1512500Y-152468750D02*
X-912500Y-151868750D01*
X-6350000Y-152468750D02*
X-1512500Y-152468750D01*
X37087500Y-152468750D02*
X37187500Y-152368750D01*
X31750000Y-152468750D02*
X37087500Y-152468750D01*
X79950000Y-152468750D02*
X80050000Y-152368750D01*
X74612500Y-152468750D02*
X79950000Y-152468750D01*
X117240000Y-152468750D02*
X118130000Y-151578750D01*
X112712500Y-152468750D02*
X117240000Y-152468750D01*
X200208750Y-152468750D02*
X200838750Y-153098750D01*
X196056250Y-152468750D02*
X200208750Y-152468750D01*
X-9525000Y-162718750D02*
X12700000Y-162718750D01*
X12700000Y-162718750D02*
X55562500Y-162718750D01*
X255587500Y-162718750D02*
X217487500Y-162718750D01*
X182822750Y-160268750D02*
X181768750Y-160268750D01*
X184629982Y-160268750D02*
X182822750Y-160268750D01*
X187079982Y-162718750D02*
X184629982Y-160268750D01*
X217487500Y-162718750D02*
X187079982Y-162718750D01*
X134143750Y-162718750D02*
X93662500Y-162718750D01*
X93662500Y-162718750D02*
X55562500Y-162718750D01*
X134143750Y-162718750D02*
X158750000Y-162718750D01*
X159966001Y-161502749D02*
X162296499Y-161502749D01*
X181768750Y-161322750D02*
X181768750Y-160268750D01*
X162296499Y-161502749D02*
X165544491Y-164750741D01*
X158750000Y-162718750D02*
X159966001Y-161502749D01*
X165544491Y-164750741D02*
X178340759Y-164750741D01*
X178340759Y-164750741D02*
X181768750Y-161322750D01*
X241065000Y-152468750D02*
X241955000Y-151578750D01*
X236537500Y-152468750D02*
X241065000Y-152468750D01*
X279475000Y-152468750D02*
X280075000Y-151868750D01*
X274637500Y-152468750D02*
X279475000Y-152468750D01*
X-19002501Y-150288751D02*
X-20002500Y-151288750D01*
X-17701452Y-148987702D02*
X-19002501Y-150288751D01*
X-9525000Y-148987702D02*
X-17701452Y-148987702D01*
X16852500Y-152468750D02*
X17482500Y-153098750D01*
X12700000Y-152468750D02*
X16852500Y-152468750D01*
X60090000Y-152468750D02*
X60980000Y-151578750D01*
X55562500Y-152468750D02*
X60090000Y-152468750D01*
X97815000Y-152468750D02*
X98445000Y-153098750D01*
X93662500Y-152468750D02*
X97815000Y-152468750D01*
X-13962501Y-150868751D02*
X-14962500Y-151868750D01*
X4206250Y-127793750D02*
X4087500Y-127912500D01*
X31750000Y-127793750D02*
X4206250Y-127793750D01*
X4127500Y-151288750D02*
X2063750Y-149225000D01*
X2063750Y-149225000D02*
X-4762500Y-149225000D01*
X-13843490Y-150479740D02*
X-14942500Y-151578750D01*
X-6017240Y-150479740D02*
X-13843490Y-150479740D01*
X-4762500Y-149225000D02*
X-6017240Y-150479740D01*
X32067500Y-116998750D02*
X33270801Y-118202051D01*
X33270801Y-118202051D02*
X33270801Y-118748013D01*
X33270801Y-118748013D02*
X35331538Y-120808750D01*
X35331538Y-120808750D02*
X42227500Y-120808750D01*
X42227500Y-151288750D02*
X40163750Y-149225000D01*
X25241250Y-149225000D02*
X23177500Y-151288750D01*
X40163750Y-149225000D02*
X25241250Y-149225000D01*
X66635000Y-127793750D02*
X66655000Y-127813750D01*
X33337500Y-127793750D02*
X66635000Y-127793750D01*
X86360000Y-153828750D02*
X81756250Y-149225000D01*
X67119010Y-150479740D02*
X66020000Y-151578750D01*
X68373750Y-149225000D02*
X67119010Y-150479740D01*
X81756250Y-149225000D02*
X68373750Y-149225000D01*
X123170000Y-151578750D02*
X120816250Y-149225000D01*
X106743750Y-149225000D02*
X104100000Y-151868750D01*
X120816250Y-149225000D02*
X106743750Y-149225000D01*
X105159199Y-110715449D02*
X105410000Y-110966250D01*
X33270801Y-110715449D02*
X105159199Y-110715449D01*
X32067500Y-111918750D02*
X33270801Y-110715449D01*
X143351250Y-127000000D02*
X143510000Y-127158750D01*
X30956250Y-127000000D02*
X143351250Y-127000000D01*
X143319010Y-131429740D02*
X142220000Y-132528750D01*
X144573750Y-130175000D02*
X143319010Y-131429740D01*
X159226250Y-130175000D02*
X144573750Y-130175000D01*
X161290000Y-132238750D02*
X159226250Y-130175000D01*
X190824999Y-131818751D02*
X189825000Y-132818750D01*
X190500000Y-145256250D02*
X169862500Y-145256250D01*
X190976250Y-126206250D02*
X191135000Y-126365000D01*
X30162500Y-126206250D02*
X190976250Y-126206250D01*
X207820272Y-131454022D02*
X207654022Y-131454022D01*
X208895000Y-132528750D02*
X207820272Y-131454022D01*
X207654022Y-131454022D02*
X205581250Y-129381250D01*
X190864999Y-131238751D02*
X189865000Y-132238750D01*
X192722500Y-129381250D02*
X190864999Y-131238751D01*
X205581250Y-129381250D02*
X192722500Y-129381250D01*
X228924999Y-150868751D02*
X227925000Y-151868750D01*
X230568750Y-149225000D02*
X228924999Y-150868751D01*
X244641250Y-149225000D02*
X230568750Y-149225000D01*
X246995000Y-151578750D02*
X244641250Y-149225000D01*
X32067500Y-104298750D02*
X33270801Y-103095449D01*
X33270801Y-103095449D02*
X47885085Y-103095449D01*
X47885085Y-103095449D02*
X49405886Y-104616250D01*
X49405886Y-104616250D02*
X229235000Y-104616250D01*
X246975000Y-107831250D02*
X229249750Y-107831250D01*
X229249750Y-107831250D02*
X229235000Y-107816500D01*
X35171470Y-108042051D02*
X33449805Y-106320386D01*
X49120449Y-108042051D02*
X35171470Y-108042051D01*
X266065000Y-105410000D02*
X286385000Y-105410000D01*
X49120449Y-108042051D02*
X49914199Y-108042051D01*
X49914199Y-108042051D02*
X50800000Y-107156250D01*
X264970272Y-93354022D02*
X266045000Y-94428750D01*
X262897500Y-91281250D02*
X264970272Y-93354022D01*
X56356250Y-91281250D02*
X262897500Y-91281250D01*
X53975000Y-93662500D02*
X56356250Y-91281250D01*
X138671250Y-152468750D02*
X139561250Y-151578750D01*
X134143750Y-152468750D02*
X138671250Y-152468750D01*
X176442500Y-157629572D02*
X176442500Y-159638750D01*
X176442500Y-156227788D02*
X176442500Y-157629572D01*
X180201538Y-152468750D02*
X176442500Y-156227788D01*
X181768750Y-152468750D02*
X180201538Y-152468750D01*
X221640000Y-152468750D02*
X222270000Y-153098750D01*
X217487500Y-152468750D02*
X221640000Y-152468750D01*
X260425000Y-152468750D02*
X261025000Y-151868750D01*
X255587500Y-152468750D02*
X260425000Y-152468750D01*
G36*
X46133596Y-90635352D02*
G01*
X45968203Y-90882881D01*
X45854278Y-91157920D01*
X45796200Y-91449900D01*
X45796200Y-91747600D01*
X45854278Y-92039580D01*
X45968203Y-92314619D01*
X46133596Y-92562148D01*
X46344102Y-92772654D01*
X46507309Y-92881705D01*
X46439937Y-93091581D01*
X47307500Y-93959145D01*
X48175063Y-93091581D01*
X48107691Y-92881705D01*
X48270898Y-92772654D01*
X48481404Y-92562148D01*
X48646797Y-92314619D01*
X48760722Y-92039580D01*
X48818800Y-91747600D01*
X48818800Y-91449900D01*
X48760722Y-91157920D01*
X48646797Y-90882881D01*
X48481404Y-90635352D01*
X48460552Y-90614500D01*
X55987180Y-90614500D01*
X55930858Y-90644605D01*
X55814828Y-90739828D01*
X55790971Y-90768898D01*
X53932370Y-92627500D01*
X53873061Y-92627500D01*
X53673102Y-92667274D01*
X53484744Y-92745295D01*
X53315226Y-92858563D01*
X53171063Y-93002726D01*
X53057795Y-93172244D01*
X52979774Y-93360602D01*
X52940000Y-93560561D01*
X52940000Y-93764439D01*
X52979774Y-93964398D01*
X53057795Y-94152756D01*
X53171063Y-94322274D01*
X53315226Y-94466437D01*
X53484744Y-94579705D01*
X53673102Y-94657726D01*
X53873061Y-94697500D01*
X54076939Y-94697500D01*
X54276898Y-94657726D01*
X54284352Y-94654638D01*
X54182647Y-94900176D01*
X54127500Y-95177415D01*
X54127500Y-95460085D01*
X54182647Y-95737324D01*
X54290820Y-95998477D01*
X54447863Y-96233509D01*
X54647741Y-96433387D01*
X54674428Y-96451219D01*
X54674428Y-96452709D01*
X54608006Y-96488213D01*
X54511315Y-96567565D01*
X54431963Y-96664256D01*
X54372998Y-96774570D01*
X54336688Y-96894268D01*
X54324428Y-97018750D01*
X54324428Y-98618750D01*
X54336688Y-98743232D01*
X54372998Y-98862930D01*
X54431963Y-98973244D01*
X54511315Y-99069935D01*
X54608006Y-99149287D01*
X54718320Y-99208252D01*
X54752927Y-99218750D01*
X54718320Y-99229248D01*
X54608006Y-99288213D01*
X54511315Y-99367565D01*
X54431963Y-99464256D01*
X54372998Y-99574570D01*
X54336688Y-99694268D01*
X54324428Y-99818750D01*
X54324428Y-101418750D01*
X54336688Y-101543232D01*
X54372998Y-101662930D01*
X54431963Y-101773244D01*
X54433197Y-101774748D01*
X54408006Y-101788213D01*
X54311315Y-101867565D01*
X54231963Y-101964256D01*
X54172998Y-102074570D01*
X54136688Y-102194268D01*
X54124428Y-102318750D01*
X54124428Y-103854250D01*
X49721517Y-103854250D01*
X48524667Y-102657401D01*
X48646797Y-102474619D01*
X48760722Y-102199580D01*
X48818800Y-101907600D01*
X48818800Y-101609900D01*
X48760722Y-101317920D01*
X48646797Y-101042881D01*
X48481404Y-100795352D01*
X48270898Y-100584846D01*
X48127080Y-100488750D01*
X48270898Y-100392654D01*
X48481404Y-100182148D01*
X48646797Y-99934619D01*
X48760722Y-99659580D01*
X48818800Y-99367600D01*
X48818800Y-99069900D01*
X48760722Y-98777920D01*
X48646797Y-98502881D01*
X48481404Y-98255352D01*
X48270898Y-98044846D01*
X48127080Y-97948750D01*
X48270898Y-97852654D01*
X48481404Y-97642148D01*
X48646797Y-97394619D01*
X48760722Y-97119580D01*
X48818800Y-96827600D01*
X48818800Y-96529900D01*
X48760722Y-96237920D01*
X48646797Y-95962881D01*
X48481404Y-95715352D01*
X48270898Y-95504846D01*
X48107691Y-95395795D01*
X48175063Y-95185919D01*
X47307500Y-94318355D01*
X46439937Y-95185919D01*
X46507309Y-95395795D01*
X46344102Y-95504846D01*
X46133596Y-95715352D01*
X45968203Y-95962881D01*
X45854278Y-96237920D01*
X45796200Y-96529900D01*
X45796200Y-96827600D01*
X45854278Y-97119580D01*
X45968203Y-97394619D01*
X46133596Y-97642148D01*
X46344102Y-97852654D01*
X46487920Y-97948750D01*
X46344102Y-98044846D01*
X46133596Y-98255352D01*
X46051751Y-98377842D01*
X45959812Y-98240245D01*
X45746005Y-98026438D01*
X45494595Y-97858451D01*
X45215243Y-97742739D01*
X45073858Y-97714616D01*
X45205674Y-97497177D01*
X45332518Y-97148201D01*
X45388843Y-96781186D01*
X45372485Y-96410234D01*
X45284072Y-96049600D01*
X45127001Y-95713146D01*
X44962361Y-95488810D01*
X44090856Y-94517502D01*
X44112321Y-94206241D01*
X45790387Y-94206241D01*
X45832704Y-94500917D01*
X45931698Y-94781677D01*
X46008571Y-94925496D01*
X46260331Y-95006313D01*
X47127895Y-94138750D01*
X47487105Y-94138750D01*
X48354669Y-95006313D01*
X48606429Y-94925496D01*
X48734957Y-94656971D01*
X48808629Y-94368531D01*
X48824613Y-94071259D01*
X48782296Y-93776583D01*
X48683302Y-93495823D01*
X48606429Y-93352004D01*
X48354669Y-93271187D01*
X47487105Y-94138750D01*
X47127895Y-94138750D01*
X46260331Y-93271187D01*
X46008571Y-93352004D01*
X45880043Y-93620529D01*
X45806371Y-93908969D01*
X45790387Y-94206241D01*
X44112321Y-94206241D01*
X44114403Y-94176058D01*
X44106245Y-93897911D01*
X44023160Y-93536013D01*
X43871068Y-93197278D01*
X43655815Y-92894724D01*
X43385673Y-92639977D01*
X43071023Y-92442826D01*
X42723956Y-92310850D01*
X42357811Y-92249118D01*
X41986660Y-92260004D01*
X41624762Y-92343089D01*
X41286027Y-92495181D01*
X40983473Y-92710433D01*
X40728726Y-92980575D01*
X40531575Y-93295226D01*
X40399599Y-93642293D01*
X40353336Y-93916687D01*
X40300597Y-94681443D01*
X40308756Y-94959589D01*
X40315621Y-94989490D01*
X40296157Y-95116315D01*
X40312515Y-95487265D01*
X40400929Y-95847899D01*
X40557999Y-96184354D01*
X40722639Y-96408689D01*
X42156308Y-98006539D01*
X42361548Y-98194444D01*
X42679072Y-98386933D01*
X43028048Y-98513777D01*
X43375924Y-98567165D01*
X43291489Y-98771007D01*
X43232500Y-99067566D01*
X43232500Y-99369934D01*
X43291489Y-99666493D01*
X43407201Y-99945845D01*
X43575188Y-100197255D01*
X43788995Y-100411062D01*
X44040405Y-100579049D01*
X44319757Y-100694761D01*
X44616316Y-100753750D01*
X44918684Y-100753750D01*
X45215243Y-100694761D01*
X45494595Y-100579049D01*
X45746005Y-100411062D01*
X45959812Y-100197255D01*
X46051751Y-100059658D01*
X46133596Y-100182148D01*
X46344102Y-100392654D01*
X46487920Y-100488750D01*
X46344102Y-100584846D01*
X46133596Y-100795352D01*
X45999027Y-100996750D01*
X41627326Y-100996750D01*
X41729500Y-100894576D01*
X42017201Y-100464001D01*
X42215373Y-99985572D01*
X42316400Y-99477674D01*
X42316400Y-98959826D01*
X42215373Y-98451928D01*
X42017201Y-97973499D01*
X41729500Y-97542924D01*
X41363326Y-97176750D01*
X40932751Y-96889049D01*
X40454322Y-96690877D01*
X39946424Y-96589850D01*
X39428576Y-96589850D01*
X38920678Y-96690877D01*
X38442249Y-96889049D01*
X38011674Y-97176750D01*
X37645500Y-97542924D01*
X37357799Y-97973499D01*
X37159627Y-98451928D01*
X37058600Y-98959826D01*
X37058600Y-99477674D01*
X37121411Y-99793449D01*
X36030924Y-99793449D01*
X36083511Y-99666493D01*
X36142500Y-99369934D01*
X36142500Y-99067566D01*
X36083511Y-98771007D01*
X35999076Y-98567165D01*
X36346952Y-98513777D01*
X36695927Y-98386932D01*
X37013451Y-98194444D01*
X37218693Y-98006539D01*
X38652361Y-96408690D01*
X38817001Y-96184354D01*
X38974072Y-95847900D01*
X39062485Y-95487266D01*
X39078843Y-95116314D01*
X39059380Y-94989492D01*
X39066245Y-94959589D01*
X39074403Y-94681442D01*
X39021664Y-93916687D01*
X38975401Y-93642293D01*
X38843425Y-93295227D01*
X38646274Y-92980576D01*
X38391527Y-92710434D01*
X38088973Y-92495181D01*
X37750238Y-92343089D01*
X37388340Y-92260005D01*
X37017189Y-92249118D01*
X36651044Y-92310850D01*
X36303978Y-92442826D01*
X35989327Y-92639977D01*
X35719185Y-92894724D01*
X35503932Y-93197278D01*
X35351840Y-93536013D01*
X35268756Y-93897911D01*
X35260597Y-94176057D01*
X35284144Y-94517503D01*
X35228023Y-94580051D01*
X33520527Y-94580051D01*
X33520722Y-94579580D01*
X33578800Y-94287600D01*
X33578800Y-93989900D01*
X33520722Y-93697920D01*
X33406797Y-93422881D01*
X33241404Y-93175352D01*
X33143958Y-93077906D01*
X33187980Y-93064552D01*
X33298294Y-93005587D01*
X33394985Y-92926235D01*
X33474337Y-92829544D01*
X33533302Y-92719230D01*
X33569612Y-92599532D01*
X33581872Y-92475050D01*
X33581872Y-90722450D01*
X33571240Y-90614500D01*
X46154448Y-90614500D01*
X46133596Y-90635352D01*
X46133596Y-90635352D01*
G37*
X46133596Y-90635352D02*
X45968203Y-90882881D01*
X45854278Y-91157920D01*
X45796200Y-91449900D01*
X45796200Y-91747600D01*
X45854278Y-92039580D01*
X45968203Y-92314619D01*
X46133596Y-92562148D01*
X46344102Y-92772654D01*
X46507309Y-92881705D01*
X46439937Y-93091581D01*
X47307500Y-93959145D01*
X48175063Y-93091581D01*
X48107691Y-92881705D01*
X48270898Y-92772654D01*
X48481404Y-92562148D01*
X48646797Y-92314619D01*
X48760722Y-92039580D01*
X48818800Y-91747600D01*
X48818800Y-91449900D01*
X48760722Y-91157920D01*
X48646797Y-90882881D01*
X48481404Y-90635352D01*
X48460552Y-90614500D01*
X55987180Y-90614500D01*
X55930858Y-90644605D01*
X55814828Y-90739828D01*
X55790971Y-90768898D01*
X53932370Y-92627500D01*
X53873061Y-92627500D01*
X53673102Y-92667274D01*
X53484744Y-92745295D01*
X53315226Y-92858563D01*
X53171063Y-93002726D01*
X53057795Y-93172244D01*
X52979774Y-93360602D01*
X52940000Y-93560561D01*
X52940000Y-93764439D01*
X52979774Y-93964398D01*
X53057795Y-94152756D01*
X53171063Y-94322274D01*
X53315226Y-94466437D01*
X53484744Y-94579705D01*
X53673102Y-94657726D01*
X53873061Y-94697500D01*
X54076939Y-94697500D01*
X54276898Y-94657726D01*
X54284352Y-94654638D01*
X54182647Y-94900176D01*
X54127500Y-95177415D01*
X54127500Y-95460085D01*
X54182647Y-95737324D01*
X54290820Y-95998477D01*
X54447863Y-96233509D01*
X54647741Y-96433387D01*
X54674428Y-96451219D01*
X54674428Y-96452709D01*
X54608006Y-96488213D01*
X54511315Y-96567565D01*
X54431963Y-96664256D01*
X54372998Y-96774570D01*
X54336688Y-96894268D01*
X54324428Y-97018750D01*
X54324428Y-98618750D01*
X54336688Y-98743232D01*
X54372998Y-98862930D01*
X54431963Y-98973244D01*
X54511315Y-99069935D01*
X54608006Y-99149287D01*
X54718320Y-99208252D01*
X54752927Y-99218750D01*
X54718320Y-99229248D01*
X54608006Y-99288213D01*
X54511315Y-99367565D01*
X54431963Y-99464256D01*
X54372998Y-99574570D01*
X54336688Y-99694268D01*
X54324428Y-99818750D01*
X54324428Y-101418750D01*
X54336688Y-101543232D01*
X54372998Y-101662930D01*
X54431963Y-101773244D01*
X54433197Y-101774748D01*
X54408006Y-101788213D01*
X54311315Y-101867565D01*
X54231963Y-101964256D01*
X54172998Y-102074570D01*
X54136688Y-102194268D01*
X54124428Y-102318750D01*
X54124428Y-103854250D01*
X49721517Y-103854250D01*
X48524667Y-102657401D01*
X48646797Y-102474619D01*
X48760722Y-102199580D01*
X48818800Y-101907600D01*
X48818800Y-101609900D01*
X48760722Y-101317920D01*
X48646797Y-101042881D01*
X48481404Y-100795352D01*
X48270898Y-100584846D01*
X48127080Y-100488750D01*
X48270898Y-100392654D01*
X48481404Y-100182148D01*
X48646797Y-99934619D01*
X48760722Y-99659580D01*
X48818800Y-99367600D01*
X48818800Y-99069900D01*
X48760722Y-98777920D01*
X48646797Y-98502881D01*
X48481404Y-98255352D01*
X48270898Y-98044846D01*
X48127080Y-97948750D01*
X48270898Y-97852654D01*
X48481404Y-97642148D01*
X48646797Y-97394619D01*
X48760722Y-97119580D01*
X48818800Y-96827600D01*
X48818800Y-96529900D01*
X48760722Y-96237920D01*
X48646797Y-95962881D01*
X48481404Y-95715352D01*
X48270898Y-95504846D01*
X48107691Y-95395795D01*
X48175063Y-95185919D01*
X47307500Y-94318355D01*
X46439937Y-95185919D01*
X46507309Y-95395795D01*
X46344102Y-95504846D01*
X46133596Y-95715352D01*
X45968203Y-95962881D01*
X45854278Y-96237920D01*
X45796200Y-96529900D01*
X45796200Y-96827600D01*
X45854278Y-97119580D01*
X45968203Y-97394619D01*
X46133596Y-97642148D01*
X46344102Y-97852654D01*
X46487920Y-97948750D01*
X46344102Y-98044846D01*
X46133596Y-98255352D01*
X46051751Y-98377842D01*
X45959812Y-98240245D01*
X45746005Y-98026438D01*
X45494595Y-97858451D01*
X45215243Y-97742739D01*
X45073858Y-97714616D01*
X45205674Y-97497177D01*
X45332518Y-97148201D01*
X45388843Y-96781186D01*
X45372485Y-96410234D01*
X45284072Y-96049600D01*
X45127001Y-95713146D01*
X44962361Y-95488810D01*
X44090856Y-94517502D01*
X44112321Y-94206241D01*
X45790387Y-94206241D01*
X45832704Y-94500917D01*
X45931698Y-94781677D01*
X46008571Y-94925496D01*
X46260331Y-95006313D01*
X47127895Y-94138750D01*
X47487105Y-94138750D01*
X48354669Y-95006313D01*
X48606429Y-94925496D01*
X48734957Y-94656971D01*
X48808629Y-94368531D01*
X48824613Y-94071259D01*
X48782296Y-93776583D01*
X48683302Y-93495823D01*
X48606429Y-93352004D01*
X48354669Y-93271187D01*
X47487105Y-94138750D01*
X47127895Y-94138750D01*
X46260331Y-93271187D01*
X46008571Y-93352004D01*
X45880043Y-93620529D01*
X45806371Y-93908969D01*
X45790387Y-94206241D01*
X44112321Y-94206241D01*
X44114403Y-94176058D01*
X44106245Y-93897911D01*
X44023160Y-93536013D01*
X43871068Y-93197278D01*
X43655815Y-92894724D01*
X43385673Y-92639977D01*
X43071023Y-92442826D01*
X42723956Y-92310850D01*
X42357811Y-92249118D01*
X41986660Y-92260004D01*
X41624762Y-92343089D01*
X41286027Y-92495181D01*
X40983473Y-92710433D01*
X40728726Y-92980575D01*
X40531575Y-93295226D01*
X40399599Y-93642293D01*
X40353336Y-93916687D01*
X40300597Y-94681443D01*
X40308756Y-94959589D01*
X40315621Y-94989490D01*
X40296157Y-95116315D01*
X40312515Y-95487265D01*
X40400929Y-95847899D01*
X40557999Y-96184354D01*
X40722639Y-96408689D01*
X42156308Y-98006539D01*
X42361548Y-98194444D01*
X42679072Y-98386933D01*
X43028048Y-98513777D01*
X43375924Y-98567165D01*
X43291489Y-98771007D01*
X43232500Y-99067566D01*
X43232500Y-99369934D01*
X43291489Y-99666493D01*
X43407201Y-99945845D01*
X43575188Y-100197255D01*
X43788995Y-100411062D01*
X44040405Y-100579049D01*
X44319757Y-100694761D01*
X44616316Y-100753750D01*
X44918684Y-100753750D01*
X45215243Y-100694761D01*
X45494595Y-100579049D01*
X45746005Y-100411062D01*
X45959812Y-100197255D01*
X46051751Y-100059658D01*
X46133596Y-100182148D01*
X46344102Y-100392654D01*
X46487920Y-100488750D01*
X46344102Y-100584846D01*
X46133596Y-100795352D01*
X45999027Y-100996750D01*
X41627326Y-100996750D01*
X41729500Y-100894576D01*
X42017201Y-100464001D01*
X42215373Y-99985572D01*
X42316400Y-99477674D01*
X42316400Y-98959826D01*
X42215373Y-98451928D01*
X42017201Y-97973499D01*
X41729500Y-97542924D01*
X41363326Y-97176750D01*
X40932751Y-96889049D01*
X40454322Y-96690877D01*
X39946424Y-96589850D01*
X39428576Y-96589850D01*
X38920678Y-96690877D01*
X38442249Y-96889049D01*
X38011674Y-97176750D01*
X37645500Y-97542924D01*
X37357799Y-97973499D01*
X37159627Y-98451928D01*
X37058600Y-98959826D01*
X37058600Y-99477674D01*
X37121411Y-99793449D01*
X36030924Y-99793449D01*
X36083511Y-99666493D01*
X36142500Y-99369934D01*
X36142500Y-99067566D01*
X36083511Y-98771007D01*
X35999076Y-98567165D01*
X36346952Y-98513777D01*
X36695927Y-98386932D01*
X37013451Y-98194444D01*
X37218693Y-98006539D01*
X38652361Y-96408690D01*
X38817001Y-96184354D01*
X38974072Y-95847900D01*
X39062485Y-95487266D01*
X39078843Y-95116314D01*
X39059380Y-94989492D01*
X39066245Y-94959589D01*
X39074403Y-94681442D01*
X39021664Y-93916687D01*
X38975401Y-93642293D01*
X38843425Y-93295227D01*
X38646274Y-92980576D01*
X38391527Y-92710434D01*
X38088973Y-92495181D01*
X37750238Y-92343089D01*
X37388340Y-92260005D01*
X37017189Y-92249118D01*
X36651044Y-92310850D01*
X36303978Y-92442826D01*
X35989327Y-92639977D01*
X35719185Y-92894724D01*
X35503932Y-93197278D01*
X35351840Y-93536013D01*
X35268756Y-93897911D01*
X35260597Y-94176057D01*
X35284144Y-94517503D01*
X35228023Y-94580051D01*
X33520527Y-94580051D01*
X33520722Y-94579580D01*
X33578800Y-94287600D01*
X33578800Y-93989900D01*
X33520722Y-93697920D01*
X33406797Y-93422881D01*
X33241404Y-93175352D01*
X33143958Y-93077906D01*
X33187980Y-93064552D01*
X33298294Y-93005587D01*
X33394985Y-92926235D01*
X33474337Y-92829544D01*
X33533302Y-92719230D01*
X33569612Y-92599532D01*
X33581872Y-92475050D01*
X33581872Y-90722450D01*
X33571240Y-90614500D01*
X46154448Y-90614500D01*
X46133596Y-90635352D01*
G36*
X30640043Y-96160529D02*
G01*
X30566371Y-96448969D01*
X30550387Y-96746241D01*
X30592704Y-97040917D01*
X30691698Y-97321677D01*
X30768571Y-97465496D01*
X31020331Y-97546313D01*
X31887895Y-96678750D01*
X31873752Y-96664608D01*
X32053358Y-96485003D01*
X32067500Y-96499145D01*
X32081643Y-96485003D01*
X32261248Y-96664608D01*
X32247105Y-96678750D01*
X33114669Y-97546313D01*
X33366429Y-97465496D01*
X33494957Y-97196971D01*
X33568629Y-96908531D01*
X33584613Y-96611259D01*
X33542296Y-96316583D01*
X33467359Y-96104051D01*
X34077580Y-96104051D01*
X34002515Y-96410235D01*
X33986157Y-96781185D01*
X34042482Y-97148201D01*
X34169327Y-97497176D01*
X34301142Y-97714616D01*
X34159757Y-97742739D01*
X33880405Y-97858451D01*
X33628995Y-98026438D01*
X33415188Y-98240245D01*
X33301076Y-98411025D01*
X33114669Y-98351187D01*
X32247105Y-99218750D01*
X32261248Y-99232892D01*
X32081643Y-99412498D01*
X32067500Y-99398355D01*
X32053358Y-99412498D01*
X31873752Y-99232892D01*
X31887895Y-99218750D01*
X31020331Y-98351187D01*
X30768571Y-98432004D01*
X30640043Y-98700529D01*
X30566371Y-98988969D01*
X30550387Y-99286241D01*
X30592704Y-99580917D01*
X30667641Y-99793449D01*
X30279723Y-99793449D01*
X30242300Y-99789763D01*
X30204877Y-99793449D01*
X30204875Y-99793449D01*
X30092923Y-99804475D01*
X29949286Y-99848047D01*
X29816909Y-99918804D01*
X29813072Y-99921953D01*
X29813072Y-99818750D01*
X29800812Y-99694268D01*
X29764502Y-99574570D01*
X29705537Y-99464256D01*
X29626185Y-99367565D01*
X29529494Y-99288213D01*
X29419180Y-99229248D01*
X29384573Y-99218750D01*
X29419180Y-99208252D01*
X29529494Y-99149287D01*
X29626185Y-99069935D01*
X29705537Y-98973244D01*
X29764502Y-98862930D01*
X29800812Y-98743232D01*
X29813072Y-98618750D01*
X29813072Y-97725919D01*
X31199937Y-97725919D01*
X31271468Y-97948750D01*
X31199937Y-98171581D01*
X32067500Y-99039145D01*
X32935063Y-98171581D01*
X32863532Y-97948750D01*
X32935063Y-97725919D01*
X32067500Y-96858355D01*
X31199937Y-97725919D01*
X29813072Y-97725919D01*
X29813072Y-97018750D01*
X29800812Y-96894268D01*
X29764502Y-96774570D01*
X29705537Y-96664256D01*
X29626185Y-96567565D01*
X29529494Y-96488213D01*
X29463072Y-96452709D01*
X29463072Y-96451219D01*
X29489759Y-96433387D01*
X29689637Y-96233509D01*
X29791707Y-96080750D01*
X30678229Y-96080750D01*
X30640043Y-96160529D01*
X30640043Y-96160529D01*
G37*
X30640043Y-96160529D02*
X30566371Y-96448969D01*
X30550387Y-96746241D01*
X30592704Y-97040917D01*
X30691698Y-97321677D01*
X30768571Y-97465496D01*
X31020331Y-97546313D01*
X31887895Y-96678750D01*
X31873752Y-96664608D01*
X32053358Y-96485003D01*
X32067500Y-96499145D01*
X32081643Y-96485003D01*
X32261248Y-96664608D01*
X32247105Y-96678750D01*
X33114669Y-97546313D01*
X33366429Y-97465496D01*
X33494957Y-97196971D01*
X33568629Y-96908531D01*
X33584613Y-96611259D01*
X33542296Y-96316583D01*
X33467359Y-96104051D01*
X34077580Y-96104051D01*
X34002515Y-96410235D01*
X33986157Y-96781185D01*
X34042482Y-97148201D01*
X34169327Y-97497176D01*
X34301142Y-97714616D01*
X34159757Y-97742739D01*
X33880405Y-97858451D01*
X33628995Y-98026438D01*
X33415188Y-98240245D01*
X33301076Y-98411025D01*
X33114669Y-98351187D01*
X32247105Y-99218750D01*
X32261248Y-99232892D01*
X32081643Y-99412498D01*
X32067500Y-99398355D01*
X32053358Y-99412498D01*
X31873752Y-99232892D01*
X31887895Y-99218750D01*
X31020331Y-98351187D01*
X30768571Y-98432004D01*
X30640043Y-98700529D01*
X30566371Y-98988969D01*
X30550387Y-99286241D01*
X30592704Y-99580917D01*
X30667641Y-99793449D01*
X30279723Y-99793449D01*
X30242300Y-99789763D01*
X30204877Y-99793449D01*
X30204875Y-99793449D01*
X30092923Y-99804475D01*
X29949286Y-99848047D01*
X29816909Y-99918804D01*
X29813072Y-99921953D01*
X29813072Y-99818750D01*
X29800812Y-99694268D01*
X29764502Y-99574570D01*
X29705537Y-99464256D01*
X29626185Y-99367565D01*
X29529494Y-99288213D01*
X29419180Y-99229248D01*
X29384573Y-99218750D01*
X29419180Y-99208252D01*
X29529494Y-99149287D01*
X29626185Y-99069935D01*
X29705537Y-98973244D01*
X29764502Y-98862930D01*
X29800812Y-98743232D01*
X29813072Y-98618750D01*
X29813072Y-97725919D01*
X31199937Y-97725919D01*
X31271468Y-97948750D01*
X31199937Y-98171581D01*
X32067500Y-99039145D01*
X32935063Y-98171581D01*
X32863532Y-97948750D01*
X32935063Y-97725919D01*
X32067500Y-96858355D01*
X31199937Y-97725919D01*
X29813072Y-97725919D01*
X29813072Y-97018750D01*
X29800812Y-96894268D01*
X29764502Y-96774570D01*
X29705537Y-96664256D01*
X29626185Y-96567565D01*
X29529494Y-96488213D01*
X29463072Y-96452709D01*
X29463072Y-96451219D01*
X29489759Y-96433387D01*
X29689637Y-96233509D01*
X29791707Y-96080750D01*
X30678229Y-96080750D01*
X30640043Y-96160529D01*
M02*
