G04 #@! TF.GenerationSoftware,KiCad,Pcbnew,(5.1.4)-1*
G04 #@! TF.CreationDate,2020-05-01T04:15:23-05:00*
G04 #@! TF.ProjectId,Augio,41756769-6f2e-46b6-9963-61645f706362,rev?*
G04 #@! TF.SameCoordinates,Original*
G04 #@! TF.FileFunction,Paste,Top*
G04 #@! TF.FilePolarity,Positive*
%FSLAX46Y46*%
G04 Gerber Fmt 4.6, Leading zero omitted, Abs format (unit mm)*
G04 Created by KiCad (PCBNEW (5.1.4)-1) date 2020-05-01 04:15:23*
%MOMM*%
%LPD*%
G04 APERTURE LIST*
%ADD10C,2.500000*%
%ADD11C,2.500000*%
%ADD12R,1.200000X1.600000*%
G04 APERTURE END LIST*
D10*
X42842500Y-153098750D03*
D11*
X43497495Y-153828754D02*
X42187505Y-152368746D01*
D10*
X37167500Y-151578750D03*
D11*
X37147501Y-151288750D02*
X37187499Y-151868750D01*
D10*
X36532500Y-153098750D03*
D11*
X35877505Y-153828754D02*
X37187495Y-152368746D01*
D10*
X42207500Y-151578750D03*
D11*
X42227499Y-151288750D02*
X42187501Y-151868750D01*
D10*
X285730000Y-153098750D03*
D11*
X286384995Y-153828754D02*
X285075005Y-152368746D01*
D10*
X280055000Y-151578750D03*
D11*
X280035001Y-151288750D02*
X280074999Y-151868750D01*
D10*
X279420000Y-153098750D03*
D11*
X278765005Y-153828754D02*
X280074995Y-152368746D01*
D10*
X285095000Y-151578750D03*
D11*
X285114999Y-151288750D02*
X285075001Y-151868750D01*
D10*
X266680000Y-153098750D03*
D11*
X267334995Y-153828754D02*
X266025005Y-152368746D01*
D10*
X261005000Y-151578750D03*
D11*
X260985001Y-151288750D02*
X261024999Y-151868750D01*
D10*
X260370000Y-153098750D03*
D11*
X259715005Y-153828754D02*
X261024995Y-152368746D01*
D10*
X266045000Y-151578750D03*
D11*
X266064999Y-151288750D02*
X266025001Y-151868750D01*
D10*
X247630000Y-153098750D03*
D11*
X248284995Y-153828754D02*
X246975005Y-152368746D01*
D10*
X241955000Y-151578750D03*
D11*
X241935001Y-151288750D02*
X241974999Y-151868750D01*
D10*
X241320000Y-153098750D03*
D11*
X240665005Y-153828754D02*
X241974995Y-152368746D01*
D10*
X246995000Y-151578750D03*
D11*
X247014999Y-151288750D02*
X246975001Y-151868750D01*
D10*
X228580000Y-153098750D03*
D11*
X229234995Y-153828754D02*
X227925005Y-152368746D01*
D10*
X222905000Y-151578750D03*
D11*
X222885001Y-151288750D02*
X222924999Y-151868750D01*
D10*
X222270000Y-153098750D03*
D11*
X221615005Y-153828754D02*
X222924995Y-152368746D01*
D10*
X227945000Y-151578750D03*
D11*
X227964999Y-151288750D02*
X227925001Y-151868750D01*
D10*
X207148750Y-153098750D03*
D11*
X207803745Y-153828754D02*
X206493755Y-152368746D01*
D10*
X201473750Y-151578750D03*
D11*
X201453751Y-151288750D02*
X201493749Y-151868750D01*
D10*
X200838750Y-153098750D03*
D11*
X200183755Y-153828754D02*
X201493745Y-152368746D01*
D10*
X206513750Y-151578750D03*
D11*
X206533749Y-151288750D02*
X206493751Y-151868750D01*
D10*
X145236250Y-153098750D03*
D11*
X145891245Y-153828754D02*
X144581255Y-152368746D01*
D10*
X139561250Y-151578750D03*
D11*
X139541251Y-151288750D02*
X139581249Y-151868750D01*
D10*
X138926250Y-153098750D03*
D11*
X138271255Y-153828754D02*
X139581245Y-152368746D01*
D10*
X144601250Y-151578750D03*
D11*
X144621249Y-151288750D02*
X144581251Y-151868750D01*
D10*
X123805000Y-153098750D03*
D11*
X124459995Y-153828754D02*
X123150005Y-152368746D01*
D10*
X118130000Y-151578750D03*
D11*
X118110001Y-151288750D02*
X118149999Y-151868750D01*
D10*
X117495000Y-153098750D03*
D11*
X116840005Y-153828754D02*
X118149995Y-152368746D01*
D10*
X123170000Y-151578750D03*
D11*
X123189999Y-151288750D02*
X123150001Y-151868750D01*
D10*
X104755000Y-153098750D03*
D11*
X105409995Y-153828754D02*
X104100005Y-152368746D01*
D10*
X99080000Y-151578750D03*
D11*
X99060001Y-151288750D02*
X99099999Y-151868750D01*
D10*
X98445000Y-153098750D03*
D11*
X97790005Y-153828754D02*
X99099995Y-152368746D01*
D10*
X104120000Y-151578750D03*
D11*
X104139999Y-151288750D02*
X104100001Y-151868750D01*
D10*
X85705000Y-153098750D03*
D11*
X86359995Y-153828754D02*
X85050005Y-152368746D01*
D10*
X80030000Y-151578750D03*
D11*
X80010001Y-151288750D02*
X80049999Y-151868750D01*
D10*
X79395000Y-153098750D03*
D11*
X78740005Y-153828754D02*
X80049995Y-152368746D01*
D10*
X85070000Y-151578750D03*
D11*
X85089999Y-151288750D02*
X85050001Y-151868750D01*
D10*
X66655000Y-153098750D03*
D11*
X67309995Y-153828754D02*
X66000005Y-152368746D01*
D10*
X60980000Y-151578750D03*
D11*
X60960001Y-151288750D02*
X60999999Y-151868750D01*
D10*
X60345000Y-153098750D03*
D11*
X59690005Y-153828754D02*
X60999995Y-152368746D01*
D10*
X66020000Y-151578750D03*
D11*
X66039999Y-151288750D02*
X66000001Y-151868750D01*
D10*
X23792500Y-153098750D03*
D11*
X24447495Y-153828754D02*
X23137505Y-152368746D01*
D10*
X18117500Y-151578750D03*
D11*
X18097501Y-151288750D02*
X18137499Y-151868750D01*
D10*
X17482500Y-153098750D03*
D11*
X16827505Y-153828754D02*
X18137495Y-152368746D01*
D10*
X23157500Y-151578750D03*
D11*
X23177499Y-151288750D02*
X23137501Y-151868750D01*
D10*
X4742500Y-153098750D03*
D11*
X5397495Y-153828754D02*
X4087505Y-152368746D01*
D10*
X-932500Y-151578750D03*
D11*
X-952499Y-151288750D02*
X-912501Y-151868750D01*
D10*
X-1567500Y-153098750D03*
D11*
X-2222495Y-153828754D02*
X-912505Y-152368746D01*
D10*
X4107500Y-151578750D03*
D11*
X4127499Y-151288750D02*
X4087501Y-151868750D01*
D10*
X-14307500Y-153098750D03*
D11*
X-13652505Y-153828754D02*
X-14962495Y-152368746D01*
D10*
X-19982500Y-151578750D03*
D11*
X-20002499Y-151288750D02*
X-19962501Y-151868750D01*
D10*
X-20617500Y-153098750D03*
D11*
X-21272495Y-153828754D02*
X-19962505Y-152368746D01*
D10*
X-14942500Y-151578750D03*
D11*
X-14922501Y-151288750D02*
X-14962499Y-151868750D01*
D10*
X285730000Y-134048750D03*
D11*
X286384995Y-134778754D02*
X285075005Y-133318746D01*
D10*
X280055000Y-132528750D03*
D11*
X280035001Y-132238750D02*
X280074999Y-132818750D01*
D10*
X279420000Y-134048750D03*
D11*
X278765005Y-134778754D02*
X280074995Y-133318746D01*
D10*
X285095000Y-132528750D03*
D11*
X285114999Y-132238750D02*
X285075001Y-132818750D01*
D10*
X266680000Y-134048750D03*
D11*
X267334995Y-134778754D02*
X266025005Y-133318746D01*
D10*
X261005000Y-132528750D03*
D11*
X260985001Y-132238750D02*
X261024999Y-132818750D01*
D10*
X260370000Y-134048750D03*
D11*
X259715005Y-134778754D02*
X261024995Y-133318746D01*
D10*
X266045000Y-132528750D03*
D11*
X266064999Y-132238750D02*
X266025001Y-132818750D01*
D10*
X247630000Y-134048750D03*
D11*
X248284995Y-134778754D02*
X246975005Y-133318746D01*
D10*
X241955000Y-132528750D03*
D11*
X241935001Y-132238750D02*
X241974999Y-132818750D01*
D10*
X241320000Y-134048750D03*
D11*
X240665005Y-134778754D02*
X241974995Y-133318746D01*
D10*
X246995000Y-132528750D03*
D11*
X247014999Y-132238750D02*
X246975001Y-132818750D01*
D10*
X228580000Y-134048750D03*
D11*
X229234995Y-134778754D02*
X227925005Y-133318746D01*
D10*
X222905000Y-132528750D03*
D11*
X222885001Y-132238750D02*
X222924999Y-132818750D01*
D10*
X222270000Y-134048750D03*
D11*
X221615005Y-134778754D02*
X222924995Y-133318746D01*
D10*
X227945000Y-132528750D03*
D11*
X227964999Y-132238750D02*
X227925001Y-132818750D01*
D10*
X209530000Y-134048750D03*
D11*
X210184995Y-134778754D02*
X208875005Y-133318746D01*
D10*
X203855000Y-132528750D03*
D11*
X203835001Y-132238750D02*
X203874999Y-132818750D01*
D10*
X203220000Y-134048750D03*
D11*
X202565005Y-134778754D02*
X203874995Y-133318746D01*
D10*
X208895000Y-132528750D03*
D11*
X208914999Y-132238750D02*
X208875001Y-132818750D01*
D10*
X190480000Y-134048750D03*
D11*
X191134995Y-134778754D02*
X189825005Y-133318746D01*
D10*
X184805000Y-132528750D03*
D11*
X184785001Y-132238750D02*
X184824999Y-132818750D01*
D10*
X184170000Y-134048750D03*
D11*
X183515005Y-134778754D02*
X184824995Y-133318746D01*
D10*
X189845000Y-132528750D03*
D11*
X189864999Y-132238750D02*
X189825001Y-132818750D01*
D10*
X161905000Y-134048750D03*
D11*
X162559995Y-134778754D02*
X161250005Y-133318746D01*
D10*
X156230000Y-132528750D03*
D11*
X156210001Y-132238750D02*
X156249999Y-132818750D01*
D10*
X155595000Y-134048750D03*
D11*
X154940005Y-134778754D02*
X156249995Y-133318746D01*
D10*
X161270000Y-132528750D03*
D11*
X161289999Y-132238750D02*
X161250001Y-132818750D01*
D10*
X142855000Y-134048750D03*
D11*
X143509995Y-134778754D02*
X142200005Y-133318746D01*
D10*
X137180000Y-132528750D03*
D11*
X137160001Y-132238750D02*
X137199999Y-132818750D01*
D10*
X136545000Y-134048750D03*
D11*
X135890005Y-134778754D02*
X137199995Y-133318746D01*
D10*
X142220000Y-132528750D03*
D11*
X142239999Y-132238750D02*
X142200001Y-132818750D01*
D10*
X123805000Y-134048750D03*
D11*
X124459995Y-134778754D02*
X123150005Y-133318746D01*
D10*
X118130000Y-132528750D03*
D11*
X118110001Y-132238750D02*
X118149999Y-132818750D01*
D10*
X117495000Y-134048750D03*
D11*
X116840005Y-134778754D02*
X118149995Y-133318746D01*
D10*
X123170000Y-132528750D03*
D11*
X123189999Y-132238750D02*
X123150001Y-132818750D01*
D10*
X104755000Y-134048750D03*
D11*
X105409995Y-134778754D02*
X104100005Y-133318746D01*
D10*
X99080000Y-132528750D03*
D11*
X99060001Y-132238750D02*
X99099999Y-132818750D01*
D10*
X98445000Y-134048750D03*
D11*
X97790005Y-134778754D02*
X99099995Y-133318746D01*
D10*
X104120000Y-132528750D03*
D11*
X104139999Y-132238750D02*
X104100001Y-132818750D01*
D10*
X85705000Y-134048750D03*
D11*
X86359995Y-134778754D02*
X85050005Y-133318746D01*
D10*
X80030000Y-132528750D03*
D11*
X80010001Y-132238750D02*
X80049999Y-132818750D01*
D10*
X79395000Y-134048750D03*
D11*
X78740005Y-134778754D02*
X80049995Y-133318746D01*
D10*
X85070000Y-132528750D03*
D11*
X85089999Y-132238750D02*
X85050001Y-132818750D01*
D10*
X66655000Y-134048750D03*
D11*
X67309995Y-134778754D02*
X66000005Y-133318746D01*
D10*
X60980000Y-132528750D03*
D11*
X60960001Y-132238750D02*
X60999999Y-132818750D01*
D10*
X60345000Y-134048750D03*
D11*
X59690005Y-134778754D02*
X60999995Y-133318746D01*
D10*
X66020000Y-132528750D03*
D11*
X66039999Y-132238750D02*
X66000001Y-132818750D01*
D10*
X42842500Y-134048750D03*
D11*
X43497495Y-134778754D02*
X42187505Y-133318746D01*
D10*
X37167500Y-132528750D03*
D11*
X37147501Y-132238750D02*
X37187499Y-132818750D01*
D10*
X36532500Y-134048750D03*
D11*
X35877505Y-134778754D02*
X37187495Y-133318746D01*
D10*
X42207500Y-132528750D03*
D11*
X42227499Y-132238750D02*
X42187501Y-132818750D01*
D10*
X23792500Y-134048750D03*
D11*
X24447495Y-134778754D02*
X23137505Y-133318746D01*
D10*
X18117500Y-132528750D03*
D11*
X18097501Y-132238750D02*
X18137499Y-132818750D01*
D10*
X17482500Y-134048750D03*
D11*
X16827505Y-134778754D02*
X18137495Y-133318746D01*
D10*
X23157500Y-132528750D03*
D11*
X23177499Y-132238750D02*
X23137501Y-132818750D01*
D10*
X4742500Y-134048750D03*
D11*
X5397495Y-134778754D02*
X4087505Y-133318746D01*
D10*
X-932500Y-132528750D03*
D11*
X-952499Y-132238750D02*
X-912501Y-132818750D01*
D10*
X-1567500Y-134048750D03*
D11*
X-2222495Y-134778754D02*
X-912505Y-133318746D01*
D10*
X4107500Y-132528750D03*
D11*
X4127499Y-132238750D02*
X4087501Y-132818750D01*
D10*
X-14307500Y-134048750D03*
D11*
X-13652505Y-134778754D02*
X-14962495Y-133318746D01*
D10*
X-19982500Y-132528750D03*
D11*
X-20002499Y-132238750D02*
X-19962501Y-132818750D01*
D10*
X-20617500Y-134048750D03*
D11*
X-21272495Y-134778754D02*
X-19962505Y-133318746D01*
D10*
X-14942500Y-132528750D03*
D11*
X-14922501Y-132238750D02*
X-14962499Y-132818750D01*
D10*
X285730000Y-114998750D03*
D11*
X286384995Y-115728754D02*
X285075005Y-114268746D01*
D10*
X280055000Y-113478750D03*
D11*
X280035001Y-113188750D02*
X280074999Y-113768750D01*
D10*
X279420000Y-114998750D03*
D11*
X278765005Y-115728754D02*
X280074995Y-114268746D01*
D10*
X285095000Y-113478750D03*
D11*
X285114999Y-113188750D02*
X285075001Y-113768750D01*
D10*
X266680000Y-114998750D03*
D11*
X267334995Y-115728754D02*
X266025005Y-114268746D01*
D10*
X261005000Y-113478750D03*
D11*
X260985001Y-113188750D02*
X261024999Y-113768750D01*
D10*
X260370000Y-114998750D03*
D11*
X259715005Y-115728754D02*
X261024995Y-114268746D01*
D10*
X266045000Y-113478750D03*
D11*
X266064999Y-113188750D02*
X266025001Y-113768750D01*
D10*
X247630000Y-114998750D03*
D11*
X248284995Y-115728754D02*
X246975005Y-114268746D01*
D10*
X241955000Y-113478750D03*
D11*
X241935001Y-113188750D02*
X241974999Y-113768750D01*
D10*
X241320000Y-114998750D03*
D11*
X240665005Y-115728754D02*
X241974995Y-114268746D01*
D10*
X246995000Y-113478750D03*
D11*
X247014999Y-113188750D02*
X246975001Y-113768750D01*
D10*
X228580000Y-114998750D03*
D11*
X229234995Y-115728754D02*
X227925005Y-114268746D01*
D10*
X222905000Y-113478750D03*
D11*
X222885001Y-113188750D02*
X222924999Y-113768750D01*
D10*
X222270000Y-114998750D03*
D11*
X221615005Y-115728754D02*
X222924995Y-114268746D01*
D10*
X227945000Y-113478750D03*
D11*
X227964999Y-113188750D02*
X227925001Y-113768750D01*
D10*
X209530000Y-114998750D03*
D11*
X210184995Y-115728754D02*
X208875005Y-114268746D01*
D10*
X203855000Y-113478750D03*
D11*
X203835001Y-113188750D02*
X203874999Y-113768750D01*
D10*
X203220000Y-114998750D03*
D11*
X202565005Y-115728754D02*
X203874995Y-114268746D01*
D10*
X208895000Y-113478750D03*
D11*
X208914999Y-113188750D02*
X208875001Y-113768750D01*
D10*
X190480000Y-114998750D03*
D11*
X191134995Y-115728754D02*
X189825005Y-114268746D01*
D10*
X184805000Y-113478750D03*
D11*
X184785001Y-113188750D02*
X184824999Y-113768750D01*
D10*
X184170000Y-114998750D03*
D11*
X183515005Y-115728754D02*
X184824995Y-114268746D01*
D10*
X189845000Y-113478750D03*
D11*
X189864999Y-113188750D02*
X189825001Y-113768750D01*
D10*
X161905000Y-114998750D03*
D11*
X162559995Y-115728754D02*
X161250005Y-114268746D01*
D10*
X156230000Y-113478750D03*
D11*
X156210001Y-113188750D02*
X156249999Y-113768750D01*
D10*
X155595000Y-114998750D03*
D11*
X154940005Y-115728754D02*
X156249995Y-114268746D01*
D10*
X161270000Y-113478750D03*
D11*
X161289999Y-113188750D02*
X161250001Y-113768750D01*
D10*
X142855000Y-114998750D03*
D11*
X143509995Y-115728754D02*
X142200005Y-114268746D01*
D10*
X137180000Y-113478750D03*
D11*
X137160001Y-113188750D02*
X137199999Y-113768750D01*
D10*
X136545000Y-114998750D03*
D11*
X135890005Y-115728754D02*
X137199995Y-114268746D01*
D10*
X142220000Y-113478750D03*
D11*
X142239999Y-113188750D02*
X142200001Y-113768750D01*
D10*
X123805000Y-114998750D03*
D11*
X124459995Y-115728754D02*
X123150005Y-114268746D01*
D10*
X118130000Y-113478750D03*
D11*
X118110001Y-113188750D02*
X118149999Y-113768750D01*
D10*
X117495000Y-114998750D03*
D11*
X116840005Y-115728754D02*
X118149995Y-114268746D01*
D10*
X123170000Y-113478750D03*
D11*
X123189999Y-113188750D02*
X123150001Y-113768750D01*
D10*
X104755000Y-114998750D03*
D11*
X105409995Y-115728754D02*
X104100005Y-114268746D01*
D10*
X99080000Y-113478750D03*
D11*
X99060001Y-113188750D02*
X99099999Y-113768750D01*
D10*
X98445000Y-114998750D03*
D11*
X97790005Y-115728754D02*
X99099995Y-114268746D01*
D10*
X104120000Y-113478750D03*
D11*
X104139999Y-113188750D02*
X104100001Y-113768750D01*
D10*
X85705000Y-114998750D03*
D11*
X86359995Y-115728754D02*
X85050005Y-114268746D01*
D10*
X80030000Y-113478750D03*
D11*
X80010001Y-113188750D02*
X80049999Y-113768750D01*
D10*
X79395000Y-114998750D03*
D11*
X78740005Y-115728754D02*
X80049995Y-114268746D01*
D10*
X85070000Y-113478750D03*
D11*
X85089999Y-113188750D02*
X85050001Y-113768750D01*
D10*
X66655000Y-114998750D03*
D11*
X67309995Y-115728754D02*
X66000005Y-114268746D01*
D10*
X60980000Y-113478750D03*
D11*
X60960001Y-113188750D02*
X60999999Y-113768750D01*
D10*
X60345000Y-114998750D03*
D11*
X59690005Y-115728754D02*
X60999995Y-114268746D01*
D10*
X66020000Y-113478750D03*
D11*
X66039999Y-113188750D02*
X66000001Y-113768750D01*
D10*
X42842500Y-114998750D03*
D11*
X43497495Y-115728754D02*
X42187505Y-114268746D01*
D10*
X37167500Y-113478750D03*
D11*
X37147501Y-113188750D02*
X37187499Y-113768750D01*
D10*
X36532500Y-114998750D03*
D11*
X35877505Y-115728754D02*
X37187495Y-114268746D01*
D10*
X42207500Y-113478750D03*
D11*
X42227499Y-113188750D02*
X42187501Y-113768750D01*
D10*
X23792500Y-114998750D03*
D11*
X24447495Y-115728754D02*
X23137505Y-114268746D01*
D10*
X18117500Y-113478750D03*
D11*
X18097501Y-113188750D02*
X18137499Y-113768750D01*
D10*
X17482500Y-114998750D03*
D11*
X16827505Y-115728754D02*
X18137495Y-114268746D01*
D10*
X23157500Y-113478750D03*
D11*
X23177499Y-113188750D02*
X23137501Y-113768750D01*
D10*
X4742500Y-114998750D03*
D11*
X5397495Y-115728754D02*
X4087505Y-114268746D01*
D10*
X-932500Y-113478750D03*
D11*
X-952499Y-113188750D02*
X-912501Y-113768750D01*
D10*
X-1567500Y-114998750D03*
D11*
X-2222495Y-115728754D02*
X-912505Y-114268746D01*
D10*
X4107500Y-113478750D03*
D11*
X4127499Y-113188750D02*
X4087501Y-113768750D01*
D10*
X-14307500Y-114998750D03*
D11*
X-13652505Y-115728754D02*
X-14962495Y-114268746D01*
D10*
X-19982500Y-113478750D03*
D11*
X-20002499Y-113188750D02*
X-19962501Y-113768750D01*
D10*
X-20617500Y-114998750D03*
D11*
X-21272495Y-115728754D02*
X-19962505Y-114268746D01*
D10*
X-14942500Y-113478750D03*
D11*
X-14922501Y-113188750D02*
X-14962499Y-113768750D01*
D10*
X285730000Y-95948750D03*
D11*
X286384995Y-96678754D02*
X285075005Y-95218746D01*
D10*
X280055000Y-94428750D03*
D11*
X280035001Y-94138750D02*
X280074999Y-94718750D01*
D10*
X279420000Y-95948750D03*
D11*
X278765005Y-96678754D02*
X280074995Y-95218746D01*
D10*
X285095000Y-94428750D03*
D11*
X285114999Y-94138750D02*
X285075001Y-94718750D01*
D10*
X266680000Y-95948750D03*
D11*
X267334995Y-96678754D02*
X266025005Y-95218746D01*
D10*
X261005000Y-94428750D03*
D11*
X260985001Y-94138750D02*
X261024999Y-94718750D01*
D10*
X260370000Y-95948750D03*
D11*
X259715005Y-96678754D02*
X261024995Y-95218746D01*
D10*
X266045000Y-94428750D03*
D11*
X266064999Y-94138750D02*
X266025001Y-94718750D01*
D10*
X247630000Y-95948750D03*
D11*
X248284995Y-96678754D02*
X246975005Y-95218746D01*
D10*
X241955000Y-94428750D03*
D11*
X241935001Y-94138750D02*
X241974999Y-94718750D01*
D10*
X241320000Y-95948750D03*
D11*
X240665005Y-96678754D02*
X241974995Y-95218746D01*
D10*
X246995000Y-94428750D03*
D11*
X247014999Y-94138750D02*
X246975001Y-94718750D01*
D10*
X228580000Y-95948750D03*
D11*
X229234995Y-96678754D02*
X227925005Y-95218746D01*
D10*
X222905000Y-94428750D03*
D11*
X222885001Y-94138750D02*
X222924999Y-94718750D01*
D10*
X222270000Y-95948750D03*
D11*
X221615005Y-96678754D02*
X222924995Y-95218746D01*
D10*
X227945000Y-94428750D03*
D11*
X227964999Y-94138750D02*
X227925001Y-94718750D01*
D10*
X209530000Y-95948750D03*
D11*
X210184995Y-96678754D02*
X208875005Y-95218746D01*
D10*
X203855000Y-94428750D03*
D11*
X203835001Y-94138750D02*
X203874999Y-94718750D01*
D10*
X203220000Y-95948750D03*
D11*
X202565005Y-96678754D02*
X203874995Y-95218746D01*
D10*
X208895000Y-94428750D03*
D11*
X208914999Y-94138750D02*
X208875001Y-94718750D01*
D10*
X190480000Y-95948750D03*
D11*
X191134995Y-96678754D02*
X189825005Y-95218746D01*
D10*
X184805000Y-94428750D03*
D11*
X184785001Y-94138750D02*
X184824999Y-94718750D01*
D10*
X184170000Y-95948750D03*
D11*
X183515005Y-96678754D02*
X184824995Y-95218746D01*
D10*
X189845000Y-94428750D03*
D11*
X189864999Y-94138750D02*
X189825001Y-94718750D01*
D10*
X161905000Y-95948750D03*
D11*
X162559995Y-96678754D02*
X161250005Y-95218746D01*
D10*
X156230000Y-94428750D03*
D11*
X156210001Y-94138750D02*
X156249999Y-94718750D01*
D10*
X155595000Y-95948750D03*
D11*
X154940005Y-96678754D02*
X156249995Y-95218746D01*
D10*
X161270000Y-94428750D03*
D11*
X161289999Y-94138750D02*
X161250001Y-94718750D01*
D10*
X142855000Y-95948750D03*
D11*
X143509995Y-96678754D02*
X142200005Y-95218746D01*
D10*
X137180000Y-94428750D03*
D11*
X137160001Y-94138750D02*
X137199999Y-94718750D01*
D10*
X136545000Y-95948750D03*
D11*
X135890005Y-96678754D02*
X137199995Y-95218746D01*
D10*
X142220000Y-94428750D03*
D11*
X142239999Y-94138750D02*
X142200001Y-94718750D01*
D10*
X123805000Y-95948750D03*
D11*
X124459995Y-96678754D02*
X123150005Y-95218746D01*
D10*
X118130000Y-94428750D03*
D11*
X118110001Y-94138750D02*
X118149999Y-94718750D01*
D10*
X117495000Y-95948750D03*
D11*
X116840005Y-96678754D02*
X118149995Y-95218746D01*
D10*
X123170000Y-94428750D03*
D11*
X123189999Y-94138750D02*
X123150001Y-94718750D01*
D10*
X104755000Y-95948750D03*
D11*
X105409995Y-96678754D02*
X104100005Y-95218746D01*
D10*
X99080000Y-94428750D03*
D11*
X99060001Y-94138750D02*
X99099999Y-94718750D01*
D10*
X98445000Y-95948750D03*
D11*
X97790005Y-96678754D02*
X99099995Y-95218746D01*
D10*
X104120000Y-94428750D03*
D11*
X104139999Y-94138750D02*
X104100001Y-94718750D01*
D10*
X85705000Y-95948750D03*
D11*
X86359995Y-96678754D02*
X85050005Y-95218746D01*
D10*
X80030000Y-94428750D03*
D11*
X80010001Y-94138750D02*
X80049999Y-94718750D01*
D10*
X79395000Y-95948750D03*
D11*
X78740005Y-96678754D02*
X80049995Y-95218746D01*
D10*
X85070000Y-94428750D03*
D11*
X85089999Y-94138750D02*
X85050001Y-94718750D01*
D10*
X66655000Y-95948750D03*
D11*
X67309995Y-96678754D02*
X66000005Y-95218746D01*
D10*
X60980000Y-94428750D03*
D11*
X60960001Y-94138750D02*
X60999999Y-94718750D01*
D10*
X60345000Y-95948750D03*
D11*
X59690005Y-96678754D02*
X60999995Y-95218746D01*
D10*
X66020000Y-94428750D03*
D11*
X66039999Y-94138750D02*
X66000001Y-94718750D01*
D10*
X42842500Y-95948750D03*
D11*
X43497495Y-96678754D02*
X42187505Y-95218746D01*
D10*
X37167500Y-94428750D03*
D11*
X37147501Y-94138750D02*
X37187499Y-94718750D01*
D10*
X36532500Y-95948750D03*
D11*
X35877505Y-96678754D02*
X37187495Y-95218746D01*
D10*
X42207500Y-94428750D03*
D11*
X42227499Y-94138750D02*
X42187501Y-94718750D01*
D10*
X23792500Y-95948750D03*
D11*
X24447495Y-96678754D02*
X23137505Y-95218746D01*
D10*
X18117500Y-94428750D03*
D11*
X18097501Y-94138750D02*
X18137499Y-94718750D01*
D10*
X17482500Y-95948750D03*
D11*
X16827505Y-96678754D02*
X18137495Y-95218746D01*
D10*
X23157500Y-94428750D03*
D11*
X23177499Y-94138750D02*
X23137501Y-94718750D01*
D10*
X4742500Y-95948750D03*
D11*
X5397495Y-96678754D02*
X4087505Y-95218746D01*
D10*
X-932500Y-94428750D03*
D11*
X-952499Y-94138750D02*
X-912501Y-94718750D01*
D10*
X-1567500Y-95948750D03*
D11*
X-2222495Y-96678754D02*
X-912505Y-95218746D01*
D10*
X4107500Y-94428750D03*
D11*
X4127499Y-94138750D02*
X4087501Y-94718750D01*
D10*
X-14307500Y-95948750D03*
D11*
X-13652505Y-96678754D02*
X-14962495Y-95218746D01*
D10*
X-19982500Y-94428750D03*
D11*
X-20002499Y-94138750D02*
X-19962501Y-94718750D01*
D10*
X-20617500Y-95948750D03*
D11*
X-21272495Y-96678754D02*
X-19962505Y-95218746D01*
D10*
X-14942500Y-94428750D03*
D11*
X-14922501Y-94138750D02*
X-14962499Y-94718750D01*
D12*
X181768750Y-157768750D03*
X181768750Y-154968750D03*
X-9525000Y-154968750D03*
X-9525000Y-157768750D03*
X-9525000Y-135918750D03*
X-9525000Y-138718750D03*
X-9525000Y-116868750D03*
X-9525000Y-119668750D03*
X-9525000Y-100618750D03*
X-9525000Y-97818750D03*
X255587500Y-157768750D03*
X255587500Y-154968750D03*
X217487500Y-157768750D03*
X217487500Y-154968750D03*
X134143750Y-157768750D03*
X134143750Y-154968750D03*
X93662500Y-157768750D03*
X93662500Y-154968750D03*
X55562500Y-157768750D03*
X55562500Y-154968750D03*
X12700000Y-157768750D03*
X12700000Y-154968750D03*
X274637500Y-157768750D03*
X274637500Y-154968750D03*
X236537500Y-157768750D03*
X236537500Y-154968750D03*
X196056250Y-157768750D03*
X196056250Y-154968750D03*
X112712500Y-157768750D03*
X112712500Y-154968750D03*
X74612500Y-157768750D03*
X74612500Y-154968750D03*
X31750000Y-157768750D03*
X31750000Y-154968750D03*
X-6350000Y-157768750D03*
X-6350000Y-154968750D03*
X255587500Y-138718750D03*
X255587500Y-135918750D03*
X217487500Y-138718750D03*
X217487500Y-135918750D03*
X179387500Y-138718750D03*
X179387500Y-135918750D03*
X131762500Y-138718750D03*
X131762500Y-135918750D03*
X93662500Y-138718750D03*
X93662500Y-135918750D03*
X55562500Y-138718750D03*
X55562500Y-135918750D03*
X12700000Y-138718750D03*
X12700000Y-135918750D03*
X274637500Y-138718750D03*
X274637500Y-135918750D03*
X236537500Y-138718750D03*
X236537500Y-135918750D03*
X198437500Y-138718750D03*
X198437500Y-135918750D03*
X150812500Y-138718750D03*
X150812500Y-135918750D03*
X112712500Y-138718750D03*
X112712500Y-135918750D03*
X74612500Y-138718750D03*
X74612500Y-135918750D03*
X31750000Y-138718750D03*
X31750000Y-135918750D03*
X-6350000Y-138718750D03*
X-6350000Y-135918750D03*
X255587500Y-119668750D03*
X255587500Y-116868750D03*
X217487500Y-119668750D03*
X217487500Y-116868750D03*
X179387500Y-119668750D03*
X179387500Y-116868750D03*
X131762500Y-119668750D03*
X131762500Y-116868750D03*
X93662500Y-119668750D03*
X93662500Y-116868750D03*
X55562500Y-119668750D03*
X55562500Y-116868750D03*
X12700000Y-119668750D03*
X12700000Y-116868750D03*
X274637500Y-119668750D03*
X274637500Y-116868750D03*
X236537500Y-119668750D03*
X236537500Y-116868750D03*
X198437500Y-119668750D03*
X198437500Y-116868750D03*
X150812500Y-119668750D03*
X150812500Y-116868750D03*
X112712500Y-119668750D03*
X112712500Y-116868750D03*
X74612500Y-119668750D03*
X74612500Y-116868750D03*
X28575000Y-119668750D03*
X28575000Y-116868750D03*
X-6350000Y-119668750D03*
X-6350000Y-116868750D03*
X255587500Y-100618750D03*
X255587500Y-97818750D03*
X217487500Y-100618750D03*
X217487500Y-97818750D03*
X179387500Y-100618750D03*
X179387500Y-97818750D03*
X131762500Y-100618750D03*
X131762500Y-97818750D03*
X93662500Y-100618750D03*
X93662500Y-97818750D03*
X55562500Y-100618750D03*
X55562500Y-97818750D03*
X12700000Y-100618750D03*
X12700000Y-97818750D03*
X274637500Y-100618750D03*
X274637500Y-97818750D03*
X236537500Y-100618750D03*
X236537500Y-97818750D03*
X198437500Y-100618750D03*
X198437500Y-97818750D03*
X150812500Y-100618750D03*
X150812500Y-97818750D03*
X112712500Y-100618750D03*
X112712500Y-97818750D03*
X74612500Y-100618750D03*
X74612500Y-97818750D03*
X28575000Y-100618750D03*
X28575000Y-97818750D03*
X-6350000Y-100618750D03*
X-6350000Y-97818750D03*
M02*
