  0
SECTION
  2
HEADER
  9
$ACADVER
  1
AC1009
  9
$EXTMIN
 10
0.0
 20
0.0
 30
0.0
  9
$EXTMAX
 10
1000.0
 20
1000.0
 30
0.0
  9
$FILLMODE
 70
 0
  9
$SPLFRAME
 70
 1
  0
ENDSEC
  0
SECTION
  2
TABLES
  0
TABLE
  2
LAYER
 70
1
  0
LAYER
  2
0
 70
     0
 62
     7
  6
CONTINUOUS
  0
ENDTAB
  0
ENDSEC
  0
SECTION
  2
ENTITIES
  0
LINE
  8
0
 62
     5
 10
333.183
 20
92.3325
 30
0.0
 11
333.34
 21
92.3258
 31
0.0
  0
LINE
  8
0
 62
     5
 10
333.34
 20
92.3258
 30
0.0
 11
333.496
 21
92.3078
 31
0.0
  0
LINE
  8
0
 62
     5
 10
333.496
 20
92.3078
 30
0.0
 11
333.651
 21
92.2775
 31
0.0
  0
LINE
  8
0
 62
     5
 10
333.651
 20
92.2775
 30
0.0
 11
333.801
 21
92.2348
 31
0.0
  0
LINE
  8
0
 62
     5
 10
333.801
 20
92.2348
 30
0.0
 11
333.948
 21
92.1798
 31
0.0
  0
LINE
  8
0
 62
     5
 10
333.948
 20
92.1798
 30
0.0
 11
334.091
 21
92.1149
 31
0.0
  0
LINE
  8
0
 62
     5
 10
334.091
 20
92.1149
 30
0.0
 11
334.228
 21
92.038
 31
0.0
  0
LINE
  8
0
 62
     5
 10
334.228
 20
92.038
 30
0.0
 11
334.359
 21
91.9508
 31
0.0
  0
LINE
  8
0
 62
     5
 10
334.359
 20
91.9508
 30
0.0
 11
334.483
 21
91.8531
 31
0.0
  0
LINE
  8
0
 62
     5
 10
334.483
 20
91.8531
 30
0.0
 11
334.597
 21
91.7469
 31
0.0
  0
LINE
  8
0
 62
     5
 10
334.597
 20
91.7469
 30
0.0
 11
334.705
 21
91.6312
 31
0.0
  0
LINE
  8
0
 62
     5
 10
334.705
 20
91.6312
 30
0.0
 11
334.801
 21
91.5088
 31
0.0
  0
LINE
  8
0
 62
     5
 10
334.801
 20
91.5088
 30
0.0
 11
334.888
 21
91.3776
 31
0.0
  0
LINE
  8
0
 62
     5
 10
334.888
 20
91.3776
 30
0.0
 11
334.965
 21
91.24
 31
0.0
  0
LINE
  8
0
 62
     5
 10
334.965
 20
91.24
 30
0.0
 11
335.031
 21
91.0978
 31
0.0
  0
LINE
  8
0
 62
     5
 10
335.031
 20
91.0978
 30
0.0
 11
335.085
 21
90.9518
 31
0.0
  0
LINE
  8
0
 62
     5
 10
335.085
 20
90.9518
 30
0.0
 11
335.128
 21
90.799
 31
0.0
  0
LINE
  8
0
 62
     5
 10
335.128
 20
90.799
 30
0.0
 11
335.158
 21
90.6459
 31
0.0
  0
LINE
  8
0
 62
     5
 10
335.158
 20
90.6459
 30
0.0
 11
335.177
 21
90.4889
 31
0.0
  0
LINE
  8
0
 62
     5
 10
335.177
 20
90.4889
 30
0.0
 11
335.183
 21
90.3319
 31
0.0
  0
LINE
  8
0
 62
     5
 10
335.183
 20
90.3319
 30
0.0
 11
335.183
 21
2.13183
 31
0.0
  0
LINE
  8
0
 62
     5
 10
335.183
 20
2.13183
 30
0.0
 11
335.177
 21
1.97473
 31
0.0
  0
LINE
  8
0
 62
     5
 10
335.177
 20
1.97473
 30
0.0
 11
335.158
 21
1.81901
 31
0.0
  0
LINE
  8
0
 62
     5
 10
335.158
 20
1.81901
 30
0.0
 11
335.128
 21
1.66467
 31
0.0
  0
LINE
  8
0
 62
     5
 10
335.128
 20
1.66467
 30
0.0
 11
335.085
 21
1.51309
 31
0.0
  0
LINE
  8
0
 62
     5
 10
335.085
 20
1.51309
 30
0.0
 11
335.031
 21
1.36563
 31
0.0
  0
LINE
  8
0
 62
     5
 10
335.031
 20
1.36563
 30
0.0
 11
334.965
 21
1.2237
 31
0.0
  0
LINE
  8
0
 62
     5
 10
334.965
 20
1.2237
 30
0.0
 11
334.888
 21
1.08727
 31
0.0
  0
LINE
  8
0
 62
     5
 10
334.888
 20
1.08727
 30
0.0
 11
334.801
 21
0.956359
 31
0.0
  0
LINE
  8
0
 62
     5
 10
334.801
 20
0.956359
 30
0.0
 11
334.705
 21
0.833713
 31
0.0
  0
LINE
  8
0
 62
     5
 10
334.705
 20
0.833713
 30
0.0
 11
334.597
 21
0.717959
 31
0.0
  0
LINE
  8
0
 62
     5
 10
334.597
 20
0.717959
 30
0.0
 11
334.483
 21
0.611851
 31
0.0
  0
LINE
  8
0
 62
     5
 10
334.483
 20
0.611851
 30
0.0
 11
334.359
 21
0.512632
 31
0.0
  0
LINE
  8
0
 62
     5
 10
334.359
 20
0.512632
 30
0.0
 11
334.228
 21
0.425813
 31
0.0
  0
LINE
  8
0
 62
     5
 10
334.228
 20
0.425813
 30
0.0
 11
334.091
 21
0.348644
 31
0.0
  0
LINE
  8
0
 62
     5
 10
334.091
 20
0.348644
 30
0.0
 11
333.948
 21
0.283876
 31
0.0
  0
LINE
  8
0
 62
     5
 10
333.948
 20
0.283876
 30
0.0
 11
333.801
 21
0.228755
 31
0.0
  0
LINE
  8
0
 62
     5
 10
333.801
 20
0.228755
 30
0.0
 11
333.651
 21
0.187413
 31
0.0
  0
LINE
  8
0
 62
     5
 10
333.651
 20
0.187413
 30
0.0
 11
333.496
 21
0.155718
 31
0.0
  0
LINE
  8
0
 62
     5
 10
333.496
 20
0.155718
 30
0.0
 11
333.34
 21
0.137804
 31
0.0
  0
LINE
  8
0
 62
     5
 10
333.34
 20
0.137804
 30
0.0
 11
333.183
 21
0.132292
 31
0.0
  0
LINE
  8
0
 62
     5
 10
333.183
 20
0.132292
 30
0.0
 11
2.096
 21
0.130914
 31
0.0
  0
LINE
  8
0
 62
     5
 10
2.096
 20
0.130914
 30
0.0
 11
1.9389
 21
0.137804
 31
0.0
  0
LINE
  8
0
 62
     5
 10
1.9389
 20
0.137804
 30
0.0
 11
1.7818
 21
0.155718
 31
0.0
  0
LINE
  8
0
 62
     5
 10
1.7818
 20
0.155718
 30
0.0
 11
1.62884
 21
0.187413
 31
0.0
  0
LINE
  8
0
 62
     5
 10
1.62884
 20
0.187413
 30
0.0
 11
1.47588
 21
0.228755
 31
0.0
  0
LINE
  8
0
 62
     5
 10
1.47588
 20
0.228755
 30
0.0
 11
1.32981
 21
0.283876
 31
0.0
  0
LINE
  8
0
 62
     5
 10
1.32981
 20
0.283876
 30
0.0
 11
1.18787
 21
0.348644
 31
0.0
  0
LINE
  8
0
 62
     5
 10
1.18787
 20
0.348644
 30
0.0
 11
1.05006
 21
0.425813
 31
0.0
  0
LINE
  8
0
 62
     5
 10
1.05006
 20
0.425813
 30
0.0
 11
0.919152
 21
0.512632
 31
0.0
  0
LINE
  8
0
 62
     5
 10
0.919152
 20
0.512632
 30
0.0
 11
0.796505
 21
0.611851
 31
0.0
  0
LINE
  8
0
 62
     5
 10
0.796505
 20
0.611851
 30
0.0
 11
0.680752
 21
0.717959
 31
0.0
  0
LINE
  8
0
 62
     5
 10
0.680752
 20
0.717959
 30
0.0
 11
0.574643
 21
0.833713
 31
0.0
  0
LINE
  8
0
 62
     5
 10
0.574643
 20
0.833713
 30
0.0
 11
0.4768
 21
0.956359
 31
0.0
  0
LINE
  8
0
 62
     5
 10
0.4768
 20
0.956359
 30
0.0
 11
0.389985
 21
1.08727
 31
0.0
  0
LINE
  8
0
 62
     5
 10
0.389985
 20
1.08727
 30
0.0
 11
0.312815
 21
1.2237
 31
0.0
  0
LINE
  8
0
 62
     5
 10
0.312815
 20
1.2237
 30
0.0
 11
0.248047
 21
1.36563
 31
0.0
  0
LINE
  8
0
 62
     5
 10
0.248047
 20
1.36563
 30
0.0
 11
0.192925
 21
1.51309
 31
0.0
  0
LINE
  8
0
 62
     5
 10
0.192925
 20
1.51309
 30
0.0
 11
0.150206
 21
1.66467
 31
0.0
  0
LINE
  8
0
 62
     5
 10
0.150206
 20
1.66467
 30
0.0
 11
0.119889
 21
1.81901
 31
0.0
  0
LINE
  8
0
 62
     5
 10
0.119889
 20
1.81901
 30
0.0
 11
0.101975
 21
1.97473
 31
0.0
  0
LINE
  8
0
 62
     5
 10
0.101975
 20
1.97473
 30
0.0
 11
0.0950846
 21
2.13183
 31
0.0
  0
LINE
  8
0
 62
     5
 10
0.0950846
 20
2.13183
 30
0.0
 11
0.0950846
 21
90.3319
 31
0.0
  0
LINE
  8
0
 62
     5
 10
0.0950846
 20
90.3319
 30
0.0
 11
0.101975
 21
90.4889
 31
0.0
  0
LINE
  8
0
 62
     5
 10
0.101975
 20
90.4889
 30
0.0
 11
0.119889
 21
90.6459
 31
0.0
  0
LINE
  8
0
 62
     5
 10
0.119889
 20
90.6459
 30
0.0
 11
0.150206
 21
90.799
 31
0.0
  0
LINE
  8
0
 62
     5
 10
0.150206
 20
90.799
 30
0.0
 11
0.192925
 21
90.9518
 31
0.0
  0
LINE
  8
0
 62
     5
 10
0.192925
 20
90.9518
 30
0.0
 11
0.248047
 21
91.0978
 31
0.0
  0
LINE
  8
0
 62
     5
 10
0.248047
 20
91.0978
 30
0.0
 11
0.312815
 21
91.24
 31
0.0
  0
LINE
  8
0
 62
     5
 10
0.312815
 20
91.24
 30
0.0
 11
0.389985
 21
91.3776
 31
0.0
  0
LINE
  8
0
 62
     5
 10
0.389985
 20
91.3776
 30
0.0
 11
0.4768
 21
91.5088
 31
0.0
  0
LINE
  8
0
 62
     5
 10
0.4768
 20
91.5088
 30
0.0
 11
0.574643
 21
91.6312
 31
0.0
  0
LINE
  8
0
 62
     5
 10
0.574643
 20
91.6312
 30
0.0
 11
0.680752
 21
91.7469
 31
0.0
  0
LINE
  8
0
 62
     5
 10
0.680752
 20
91.7469
 30
0.0
 11
0.796505
 21
91.8531
 31
0.0
  0
LINE
  8
0
 62
     5
 10
0.796505
 20
91.8531
 30
0.0
 11
0.919152
 21
91.9508
 31
0.0
  0
LINE
  8
0
 62
     5
 10
0.919152
 20
91.9508
 30
0.0
 11
1.05006
 21
92.038
 31
0.0
  0
LINE
  8
0
 62
     5
 10
1.05006
 20
92.038
 30
0.0
 11
1.18787
 21
92.1149
 31
0.0
  0
LINE
  8
0
 62
     5
 10
1.18787
 20
92.1149
 30
0.0
 11
1.32981
 21
92.1798
 31
0.0
  0
LINE
  8
0
 62
     5
 10
1.32981
 20
92.1798
 30
0.0
 11
1.47588
 21
92.2348
 31
0.0
  0
LINE
  8
0
 62
     5
 10
1.47588
 20
92.2348
 30
0.0
 11
1.62884
 21
92.2775
 31
0.0
  0
LINE
  8
0
 62
     5
 10
1.62884
 20
92.2775
 30
0.0
 11
1.7818
 21
92.3078
 31
0.0
  0
LINE
  8
0
 62
     5
 10
1.7818
 20
92.3078
 30
0.0
 11
1.9389
 21
92.3258
 31
0.0
  0
LINE
  8
0
 62
     5
 10
1.9389
 20
92.3258
 30
0.0
 11
2.096
 21
92.3325
 31
0.0
  0
LINE
  8
0
 62
     5
 10
2.096
 20
92.3325
 30
0.0
 11
333.183
 21
92.3325
 31
0.0
  0
LINE
  8
0
 62
     5
 10
2.27101
 20
3.62977
 30
0.0
 11
1.97749
 21
3.48093
 31
0.0
  0
LINE
  8
0
 62
     5
 10
1.97749
 20
3.48093
 30
0.0
 11
1.74597
 21
3.24942
 31
0.0
  0
LINE
  8
0
 62
     5
 10
1.74597
 20
3.24942
 30
0.0
 11
1.59714
 21
2.95589
 31
0.0
  0
LINE
  8
0
 62
     5
 10
1.59714
 20
2.95589
 30
0.0
 11
1.54478
 21
2.63067
 31
0.0
  0
LINE
  8
0
 62
     5
 10
1.54478
 20
2.63067
 30
0.0
 11
1.59714
 21
2.30684
 31
0.0
  0
LINE
  8
0
 62
     5
 10
1.59714
 20
2.30684
 30
0.0
 11
1.74597
 21
2.01469
 31
0.0
  0
LINE
  8
0
 62
     5
 10
1.74597
 20
2.01469
 30
0.0
 11
1.97749
 21
1.7818
 31
0.0
  0
LINE
  8
0
 62
     5
 10
1.97749
 20
1.7818
 30
0.0
 11
2.27101
 21
1.63298
 31
0.0
  0
LINE
  8
0
 62
     5
 10
2.27101
 20
1.63298
 30
0.0
 11
2.59485
 21
1.58061
 31
0.0
  0
LINE
  8
0
 62
     5
 10
2.59485
 20
1.58061
 30
0.0
 11
2.92006
 21
1.63298
 31
0.0
  0
LINE
  8
0
 62
     5
 10
2.92006
 20
1.63298
 30
0.0
 11
3.21221
 21
1.7818
 31
0.0
  0
LINE
  8
0
 62
     5
 10
3.21221
 20
1.7818
 30
0.0
 11
3.4451
 21
2.01469
 31
0.0
  0
LINE
  8
0
 62
     5
 10
3.4451
 20
2.01469
 30
0.0
 11
3.59392
 21
2.30684
 31
0.0
  0
LINE
  8
0
 62
     5
 10
3.59392
 20
2.30684
 30
0.0
 11
3.6449
 21
2.63067
 31
0.0
  0
LINE
  8
0
 62
     5
 10
3.6449
 20
2.63067
 30
0.0
 11
3.59392
 21
2.95589
 31
0.0
  0
LINE
  8
0
 62
     5
 10
3.59392
 20
2.95589
 30
0.0
 11
3.4451
 21
3.24942
 31
0.0
  0
LINE
  8
0
 62
     5
 10
3.4451
 20
3.24942
 30
0.0
 11
3.21221
 21
3.48093
 31
0.0
  0
LINE
  8
0
 62
     5
 10
3.21221
 20
3.48093
 30
0.0
 11
2.92006
 21
3.62977
 31
0.0
  0
LINE
  8
0
 62
     5
 10
2.92006
 20
3.62977
 30
0.0
 11
2.59485
 21
3.68074
 31
0.0
  0
LINE
  8
0
 62
     5
 10
2.59485
 20
3.68074
 30
0.0
 11
2.27101
 21
3.62977
 31
0.0
  0
LINE
  8
0
 62
     5
 10
112.3
 20
3.62977
 30
0.0
 11
112.007
 21
3.48093
 31
0.0
  0
LINE
  8
0
 62
     5
 10
112.007
 20
3.48093
 30
0.0
 11
111.776
 21
3.24942
 31
0.0
  0
LINE
  8
0
 62
     5
 10
111.776
 20
3.24942
 30
0.0
 11
111.625
 21
2.95589
 31
0.0
  0
LINE
  8
0
 62
     5
 10
111.625
 20
2.95589
 30
0.0
 11
111.574
 21
2.63067
 31
0.0
  0
LINE
  8
0
 62
     5
 10
111.574
 20
2.63067
 30
0.0
 11
111.625
 21
2.30684
 31
0.0
  0
LINE
  8
0
 62
     5
 10
111.625
 20
2.30684
 30
0.0
 11
111.776
 21
2.01469
 31
0.0
  0
LINE
  8
0
 62
     5
 10
111.776
 20
2.01469
 30
0.0
 11
112.007
 21
1.7818
 31
0.0
  0
LINE
  8
0
 62
     5
 10
112.007
 20
1.7818
 30
0.0
 11
112.3
 21
1.63298
 31
0.0
  0
LINE
  8
0
 62
     5
 10
112.3
 20
1.63298
 30
0.0
 11
112.624
 21
1.58061
 31
0.0
  0
LINE
  8
0
 62
     5
 10
112.624
 20
1.58061
 30
0.0
 11
112.948
 21
1.63298
 31
0.0
  0
LINE
  8
0
 62
     5
 10
112.948
 20
1.63298
 30
0.0
 11
113.242
 21
1.7818
 31
0.0
  0
LINE
  8
0
 62
     5
 10
113.242
 20
1.7818
 30
0.0
 11
113.473
 21
2.01469
 31
0.0
  0
LINE
  8
0
 62
     5
 10
113.473
 20
2.01469
 30
0.0
 11
113.623
 21
2.30684
 31
0.0
  0
LINE
  8
0
 62
     5
 10
113.623
 20
2.30684
 30
0.0
 11
113.675
 21
2.63067
 31
0.0
  0
LINE
  8
0
 62
     5
 10
113.675
 20
2.63067
 30
0.0
 11
113.623
 21
2.95589
 31
0.0
  0
LINE
  8
0
 62
     5
 10
113.623
 20
2.95589
 30
0.0
 11
113.473
 21
3.24942
 31
0.0
  0
LINE
  8
0
 62
     5
 10
113.473
 20
3.24942
 30
0.0
 11
113.242
 21
3.48093
 31
0.0
  0
LINE
  8
0
 62
     5
 10
113.242
 20
3.48093
 30
0.0
 11
112.948
 21
3.62977
 31
0.0
  0
LINE
  8
0
 62
     5
 10
112.948
 20
3.62977
 30
0.0
 11
112.624
 21
3.68074
 31
0.0
  0
LINE
  8
0
 62
     5
 10
112.624
 20
3.68074
 30
0.0
 11
112.3
 21
3.62977
 31
0.0
  0
LINE
  8
0
 62
     5
 10
222.33
 20
3.62977
 30
0.0
 11
222.037
 21
3.48093
 31
0.0
  0
LINE
  8
0
 62
     5
 10
222.037
 20
3.48093
 30
0.0
 11
221.805
 21
3.24942
 31
0.0
  0
LINE
  8
0
 62
     5
 10
221.805
 20
3.24942
 30
0.0
 11
221.656
 21
2.95589
 31
0.0
  0
LINE
  8
0
 62
     5
 10
221.656
 20
2.95589
 30
0.0
 11
221.605
 21
2.63067
 31
0.0
  0
LINE
  8
0
 62
     5
 10
221.605
 20
2.63067
 30
0.0
 11
221.656
 21
2.30684
 31
0.0
  0
LINE
  8
0
 62
     5
 10
221.656
 20
2.30684
 30
0.0
 11
221.805
 21
2.01469
 31
0.0
  0
LINE
  8
0
 62
     5
 10
221.805
 20
2.01469
 30
0.0
 11
222.037
 21
1.7818
 31
0.0
  0
LINE
  8
0
 62
     5
 10
222.037
 20
1.7818
 30
0.0
 11
222.33
 21
1.63298
 31
0.0
  0
LINE
  8
0
 62
     5
 10
222.33
 20
1.63298
 30
0.0
 11
222.655
 21
1.58061
 31
0.0
  0
LINE
  8
0
 62
     5
 10
222.655
 20
1.58061
 30
0.0
 11
222.979
 21
1.63298
 31
0.0
  0
LINE
  8
0
 62
     5
 10
222.979
 20
1.63298
 30
0.0
 11
223.271
 21
1.7818
 31
0.0
  0
LINE
  8
0
 62
     5
 10
223.271
 20
1.7818
 30
0.0
 11
223.504
 21
2.01469
 31
0.0
  0
LINE
  8
0
 62
     5
 10
223.504
 20
2.01469
 30
0.0
 11
223.653
 21
2.30684
 31
0.0
  0
LINE
  8
0
 62
     5
 10
223.653
 20
2.30684
 30
0.0
 11
223.704
 21
2.63067
 31
0.0
  0
LINE
  8
0
 62
     5
 10
223.704
 20
2.63067
 30
0.0
 11
223.653
 21
2.95589
 31
0.0
  0
LINE
  8
0
 62
     5
 10
223.653
 20
2.95589
 30
0.0
 11
223.504
 21
3.24942
 31
0.0
  0
LINE
  8
0
 62
     5
 10
223.504
 20
3.24942
 30
0.0
 11
223.271
 21
3.48093
 31
0.0
  0
LINE
  8
0
 62
     5
 10
223.271
 20
3.48093
 30
0.0
 11
222.979
 21
3.62977
 31
0.0
  0
LINE
  8
0
 62
     5
 10
222.979
 20
3.62977
 30
0.0
 11
222.655
 21
3.68074
 31
0.0
  0
LINE
  8
0
 62
     5
 10
222.655
 20
3.68074
 30
0.0
 11
222.33
 21
3.62977
 31
0.0
  0
LINE
  8
0
 62
     5
 10
332.359
 20
3.62977
 30
0.0
 11
332.066
 21
3.48093
 31
0.0
  0
LINE
  8
0
 62
     5
 10
332.066
 20
3.48093
 30
0.0
 11
331.834
 21
3.24942
 31
0.0
  0
LINE
  8
0
 62
     5
 10
331.834
 20
3.24942
 30
0.0
 11
331.684
 21
2.95589
 31
0.0
  0
LINE
  8
0
 62
     5
 10
331.684
 20
2.95589
 30
0.0
 11
331.633
 21
2.63067
 31
0.0
  0
LINE
  8
0
 62
     5
 10
331.633
 20
2.63067
 30
0.0
 11
331.684
 21
2.30684
 31
0.0
  0
LINE
  8
0
 62
     5
 10
331.684
 20
2.30684
 30
0.0
 11
331.834
 21
2.01469
 31
0.0
  0
LINE
  8
0
 62
     5
 10
331.834
 20
2.01469
 30
0.0
 11
332.066
 21
1.7818
 31
0.0
  0
LINE
  8
0
 62
     5
 10
332.066
 20
1.7818
 30
0.0
 11
332.359
 21
1.63298
 31
0.0
  0
LINE
  8
0
 62
     5
 10
332.359
 20
1.63298
 30
0.0
 11
332.683
 21
1.58061
 31
0.0
  0
LINE
  8
0
 62
     5
 10
332.683
 20
1.58061
 30
0.0
 11
333.007
 21
1.63298
 31
0.0
  0
LINE
  8
0
 62
     5
 10
333.007
 20
1.63298
 30
0.0
 11
333.301
 21
1.7818
 31
0.0
  0
LINE
  8
0
 62
     5
 10
333.301
 20
1.7818
 30
0.0
 11
333.532
 21
2.01469
 31
0.0
  0
LINE
  8
0
 62
     5
 10
333.532
 20
2.01469
 30
0.0
 11
333.682
 21
2.30684
 31
0.0
  0
LINE
  8
0
 62
     5
 10
333.682
 20
2.30684
 30
0.0
 11
333.733
 21
2.63067
 31
0.0
  0
LINE
  8
0
 62
     5
 10
333.733
 20
2.63067
 30
0.0
 11
333.682
 21
2.95589
 31
0.0
  0
LINE
  8
0
 62
     5
 10
333.682
 20
2.95589
 30
0.0
 11
333.532
 21
3.24942
 31
0.0
  0
LINE
  8
0
 62
     5
 10
333.532
 20
3.24942
 30
0.0
 11
333.301
 21
3.48093
 31
0.0
  0
LINE
  8
0
 62
     5
 10
333.301
 20
3.48093
 30
0.0
 11
333.007
 21
3.62977
 31
0.0
  0
LINE
  8
0
 62
     5
 10
333.007
 20
3.62977
 30
0.0
 11
332.683
 21
3.68074
 31
0.0
  0
LINE
  8
0
 62
     5
 10
332.683
 20
3.68074
 30
0.0
 11
332.359
 21
3.62977
 31
0.0
  0
LINE
  8
0
 62
     5
 10
201.12
 20
24.6572
 30
0.0
 11
201.12
 21
24.0578
 31
0.0
  0
LINE
  8
0
 62
     5
 10
201.12
 20
24.0578
 30
0.0
 11
200.32
 21
24.0578
 31
0.0
  0
LINE
  8
0
 62
     5
 10
200.32
 20
24.0578
 30
0.0
 11
200.32
 21
19.9567
 31
0.0
  0
LINE
  8
0
 62
     5
 10
200.32
 20
19.9567
 30
0.0
 11
199.595
 21
19.9567
 31
0.0
  0
LINE
  8
0
 62
     5
 10
199.595
 20
19.9567
 30
0.0
 11
199.595
 21
23.1869
 31
0.0
  0
LINE
  8
0
 62
     5
 10
199.595
 20
23.1869
 30
0.0
 11
197.871
 21
23.1869
 31
0.0
  0
LINE
  8
0
 62
     5
 10
197.871
 20
23.1869
 30
0.0
 11
197.871
 21
24.1074
 31
0.0
  0
LINE
  8
0
 62
     5
 10
197.871
 20
24.1074
 30
0.0
 11
194.571
 21
24.1074
 31
0.0
  0
LINE
  8
0
 62
     5
 10
194.571
 20
24.1074
 30
0.0
 11
194.571
 21
23.1869
 31
0.0
  0
LINE
  8
0
 62
     5
 10
194.571
 20
23.1869
 30
0.0
 11
192.845
 21
23.1869
 31
0.0
  0
LINE
  8
0
 62
     5
 10
192.845
 20
23.1869
 30
0.0
 11
192.845
 21
19.9567
 31
0.0
  0
LINE
  8
0
 62
     5
 10
192.845
 20
19.9567
 30
0.0
 11
192.02
 21
19.9567
 31
0.0
  0
LINE
  8
0
 62
     5
 10
192.02
 20
19.9567
 30
0.0
 11
192.02
 21
17.1579
 31
0.0
  0
LINE
  8
0
 62
     5
 10
192.02
 20
17.1579
 30
0.0
 11
192.845
 21
17.1579
 31
0.0
  0
LINE
  8
0
 62
     5
 10
192.845
 20
17.1579
 30
0.0
 11
192.845
 21
10.8879
 31
0.0
  0
LINE
  8
0
 62
     5
 10
192.845
 20
10.8879
 30
0.0
 11
194.571
 21
10.8879
 31
0.0
  0
LINE
  8
0
 62
     5
 10
194.571
 20
10.8879
 30
0.0
 11
194.571
 21
9.90671
 31
0.0
  0
LINE
  8
0
 62
     5
 10
194.571
 20
9.90671
 30
0.0
 11
197.871
 21
9.90671
 31
0.0
  0
LINE
  8
0
 62
     5
 10
197.871
 20
9.90671
 30
0.0
 11
197.871
 21
10.8879
 31
0.0
  0
LINE
  8
0
 62
     5
 10
197.871
 20
10.8879
 30
0.0
 11
199.595
 21
10.8879
 31
0.0
  0
LINE
  8
0
 62
     5
 10
199.595
 20
10.8879
 30
0.0
 11
199.595
 21
15.3569
 31
0.0
  0
LINE
  8
0
 62
     5
 10
199.595
 20
15.3569
 30
0.0
 11
200.32
 21
15.3569
 31
0.0
  0
LINE
  8
0
 62
     5
 10
200.32
 20
15.3569
 30
0.0
 11
200.32
 21
11.2572
 31
0.0
  0
LINE
  8
0
 62
     5
 10
200.32
 20
11.2572
 30
0.0
 11
201.12
 21
11.2572
 31
0.0
  0
LINE
  8
0
 62
     5
 10
201.12
 20
11.2572
 30
0.0
 11
201.12
 21
10.6577
 31
0.0
  0
LINE
  8
0
 62
     5
 10
201.12
 20
10.6577
 30
0.0
 11
215.12
 21
10.6577
 31
0.0
  0
LINE
  8
0
 62
     5
 10
215.12
 20
10.6577
 30
0.0
 11
215.12
 21
11.2572
 31
0.0
  0
LINE
  8
0
 62
     5
 10
215.12
 20
11.2572
 30
0.0
 11
215.921
 21
11.2572
 31
0.0
  0
LINE
  8
0
 62
     5
 10
215.921
 20
11.2572
 30
0.0
 11
215.921
 21
15.3569
 31
0.0
  0
LINE
  8
0
 62
     5
 10
215.921
 20
15.3569
 30
0.0
 11
216.645
 21
15.3569
 31
0.0
  0
LINE
  8
0
 62
     5
 10
216.645
 20
15.3569
 30
0.0
 11
216.645
 21
10.8879
 31
0.0
  0
LINE
  8
0
 62
     5
 10
216.645
 20
10.8879
 30
0.0
 11
218.371
 21
10.8879
 31
0.0
  0
LINE
  8
0
 62
     5
 10
218.371
 20
10.8879
 30
0.0
 11
218.371
 21
9.90671
 31
0.0
  0
LINE
  8
0
 62
     5
 10
218.371
 20
9.90671
 30
0.0
 11
221.67
 21
9.90671
 31
0.0
  0
LINE
  8
0
 62
     5
 10
221.67
 20
9.90671
 30
0.0
 11
221.67
 21
10.8879
 31
0.0
  0
LINE
  8
0
 62
     5
 10
221.67
 20
10.8879
 30
0.0
 11
223.395
 21
10.8879
 31
0.0
  0
LINE
  8
0
 62
     5
 10
223.395
 20
10.8879
 30
0.0
 11
223.395
 21
17.1579
 31
0.0
  0
LINE
  8
0
 62
     5
 10
223.395
 20
17.1579
 30
0.0
 11
224.221
 21
17.1579
 31
0.0
  0
LINE
  8
0
 62
     5
 10
224.221
 20
17.1579
 30
0.0
 11
224.221
 21
19.9567
 31
0.0
  0
LINE
  8
0
 62
     5
 10
224.221
 20
19.9567
 30
0.0
 11
223.395
 21
19.9567
 31
0.0
  0
LINE
  8
0
 62
     5
 10
223.395
 20
19.9567
 30
0.0
 11
223.395
 21
23.1869
 31
0.0
  0
LINE
  8
0
 62
     5
 10
223.395
 20
23.1869
 30
0.0
 11
221.67
 21
23.1869
 31
0.0
  0
LINE
  8
0
 62
     5
 10
221.67
 20
23.1869
 30
0.0
 11
221.67
 21
24.1074
 31
0.0
  0
LINE
  8
0
 62
     5
 10
221.67
 20
24.1074
 30
0.0
 11
218.371
 21
24.1074
 31
0.0
  0
LINE
  8
0
 62
     5
 10
218.371
 20
24.1074
 30
0.0
 11
218.371
 21
23.1869
 31
0.0
  0
LINE
  8
0
 62
     5
 10
218.371
 20
23.1869
 30
0.0
 11
216.645
 21
23.1869
 31
0.0
  0
LINE
  8
0
 62
     5
 10
216.645
 20
23.1869
 30
0.0
 11
216.645
 21
19.9567
 31
0.0
  0
LINE
  8
0
 62
     5
 10
216.645
 20
19.9567
 30
0.0
 11
215.921
 21
19.9567
 31
0.0
  0
LINE
  8
0
 62
     5
 10
215.921
 20
19.9567
 30
0.0
 11
215.921
 21
24.0578
 31
0.0
  0
LINE
  8
0
 62
     5
 10
215.921
 20
24.0578
 30
0.0
 11
215.12
 21
24.0578
 31
0.0
  0
LINE
  8
0
 62
     5
 10
215.12
 20
24.0578
 30
0.0
 11
215.12
 21
24.6572
 31
0.0
  0
LINE
  8
0
 62
     5
 10
215.12
 20
24.6572
 30
0.0
 11
201.12
 21
24.6572
 31
0.0
  0
LINE
  8
0
 62
     5
 10
310.658
 20
24.6572
 30
0.0
 11
310.658
 21
24.0578
 31
0.0
  0
LINE
  8
0
 62
     5
 10
310.658
 20
24.0578
 30
0.0
 11
309.857
 21
24.0578
 31
0.0
  0
LINE
  8
0
 62
     5
 10
309.857
 20
24.0578
 30
0.0
 11
309.857
 21
11.2572
 31
0.0
  0
LINE
  8
0
 62
     5
 10
309.857
 20
11.2572
 30
0.0
 11
310.658
 21
11.2572
 31
0.0
  0
LINE
  8
0
 62
     5
 10
310.658
 20
11.2572
 30
0.0
 11
310.658
 21
10.6577
 31
0.0
  0
LINE
  8
0
 62
     5
 10
310.658
 20
10.6577
 30
0.0
 11
324.658
 21
10.6577
 31
0.0
  0
LINE
  8
0
 62
     5
 10
324.658
 20
10.6577
 30
0.0
 11
324.658
 21
11.2572
 31
0.0
  0
LINE
  8
0
 62
     5
 10
324.658
 20
11.2572
 30
0.0
 11
325.458
 21
11.2572
 31
0.0
  0
LINE
  8
0
 62
     5
 10
325.458
 20
11.2572
 30
0.0
 11
325.458
 21
24.0578
 31
0.0
  0
LINE
  8
0
 62
     5
 10
325.458
 20
24.0578
 30
0.0
 11
324.658
 21
24.0578
 31
0.0
  0
LINE
  8
0
 62
     5
 10
324.658
 20
24.0578
 30
0.0
 11
324.658
 21
24.6572
 31
0.0
  0
LINE
  8
0
 62
     5
 10
324.658
 20
24.6572
 30
0.0
 11
310.658
 21
24.6572
 31
0.0
  0
LINE
  8
0
 62
     5
 10
291.608
 20
24.6572
 30
0.0
 11
291.608
 21
24.0578
 31
0.0
  0
LINE
  8
0
 62
     5
 10
291.608
 20
24.0578
 30
0.0
 11
290.807
 21
24.0578
 31
0.0
  0
LINE
  8
0
 62
     5
 10
290.807
 20
24.0578
 30
0.0
 11
290.807
 21
11.2572
 31
0.0
  0
LINE
  8
0
 62
     5
 10
290.807
 20
11.2572
 30
0.0
 11
291.608
 21
11.2572
 31
0.0
  0
LINE
  8
0
 62
     5
 10
291.608
 20
11.2572
 30
0.0
 11
291.608
 21
10.6577
 31
0.0
  0
LINE
  8
0
 62
     5
 10
291.608
 20
10.6577
 30
0.0
 11
305.608
 21
10.6577
 31
0.0
  0
LINE
  8
0
 62
     5
 10
305.608
 20
10.6577
 30
0.0
 11
305.608
 21
11.2572
 31
0.0
  0
LINE
  8
0
 62
     5
 10
305.608
 20
11.2572
 30
0.0
 11
306.408
 21
11.2572
 31
0.0
  0
LINE
  8
0
 62
     5
 10
306.408
 20
11.2572
 30
0.0
 11
306.408
 21
24.0578
 31
0.0
  0
LINE
  8
0
 62
     5
 10
306.408
 20
24.0578
 30
0.0
 11
305.608
 21
24.0578
 31
0.0
  0
LINE
  8
0
 62
     5
 10
305.608
 20
24.0578
 30
0.0
 11
305.608
 21
24.6572
 31
0.0
  0
LINE
  8
0
 62
     5
 10
305.608
 20
24.6572
 30
0.0
 11
291.608
 21
24.6572
 31
0.0
  0
LINE
  8
0
 62
     5
 10
272.558
 20
24.6572
 30
0.0
 11
272.558
 21
24.0578
 31
0.0
  0
LINE
  8
0
 62
     5
 10
272.558
 20
24.0578
 30
0.0
 11
271.757
 21
24.0578
 31
0.0
  0
LINE
  8
0
 62
     5
 10
271.757
 20
24.0578
 30
0.0
 11
271.757
 21
11.2572
 31
0.0
  0
LINE
  8
0
 62
     5
 10
271.757
 20
11.2572
 30
0.0
 11
272.558
 21
11.2572
 31
0.0
  0
LINE
  8
0
 62
     5
 10
272.558
 20
11.2572
 30
0.0
 11
272.558
 21
10.6577
 31
0.0
  0
LINE
  8
0
 62
     5
 10
272.558
 20
10.6577
 30
0.0
 11
286.558
 21
10.6577
 31
0.0
  0
LINE
  8
0
 62
     5
 10
286.558
 20
10.6577
 30
0.0
 11
286.558
 21
11.2572
 31
0.0
  0
LINE
  8
0
 62
     5
 10
286.558
 20
11.2572
 30
0.0
 11
287.358
 21
11.2572
 31
0.0
  0
LINE
  8
0
 62
     5
 10
287.358
 20
11.2572
 30
0.0
 11
287.358
 21
24.0578
 31
0.0
  0
LINE
  8
0
 62
     5
 10
287.358
 20
24.0578
 30
0.0
 11
286.558
 21
24.0578
 31
0.0
  0
LINE
  8
0
 62
     5
 10
286.558
 20
24.0578
 30
0.0
 11
286.558
 21
24.6572
 31
0.0
  0
LINE
  8
0
 62
     5
 10
286.558
 20
24.6572
 30
0.0
 11
272.558
 21
24.6572
 31
0.0
  0
LINE
  8
0
 62
     5
 10
253.507
 20
24.6572
 30
0.0
 11
253.507
 21
24.0578
 31
0.0
  0
LINE
  8
0
 62
     5
 10
253.507
 20
24.0578
 30
0.0
 11
252.707
 21
24.0578
 31
0.0
  0
LINE
  8
0
 62
     5
 10
252.707
 20
24.0578
 30
0.0
 11
252.707
 21
11.2572
 31
0.0
  0
LINE
  8
0
 62
     5
 10
252.707
 20
11.2572
 30
0.0
 11
253.507
 21
11.2572
 31
0.0
  0
LINE
  8
0
 62
     5
 10
253.507
 20
11.2572
 30
0.0
 11
253.507
 21
10.6577
 31
0.0
  0
LINE
  8
0
 62
     5
 10
253.507
 20
10.6577
 30
0.0
 11
267.508
 21
10.6577
 31
0.0
  0
LINE
  8
0
 62
     5
 10
267.508
 20
10.6577
 30
0.0
 11
267.508
 21
11.2572
 31
0.0
  0
LINE
  8
0
 62
     5
 10
267.508
 20
11.2572
 30
0.0
 11
268.308
 21
11.2572
 31
0.0
  0
LINE
  8
0
 62
     5
 10
268.308
 20
11.2572
 30
0.0
 11
268.308
 21
24.0578
 31
0.0
  0
LINE
  8
0
 62
     5
 10
268.308
 20
24.0578
 30
0.0
 11
267.508
 21
24.0578
 31
0.0
  0
LINE
  8
0
 62
     5
 10
267.508
 20
24.0578
 30
0.0
 11
267.508
 21
24.6572
 31
0.0
  0
LINE
  8
0
 62
     5
 10
267.508
 20
24.6572
 30
0.0
 11
253.507
 21
24.6572
 31
0.0
  0
LINE
  8
0
 62
     5
 10
232.077
 20
24.6572
 30
0.0
 11
232.077
 21
24.0578
 31
0.0
  0
LINE
  8
0
 62
     5
 10
232.077
 20
24.0578
 30
0.0
 11
231.276
 21
24.0578
 31
0.0
  0
LINE
  8
0
 62
     5
 10
231.276
 20
24.0578
 30
0.0
 11
231.276
 21
11.2572
 31
0.0
  0
LINE
  8
0
 62
     5
 10
231.276
 20
11.2572
 30
0.0
 11
232.077
 21
11.2572
 31
0.0
  0
LINE
  8
0
 62
     5
 10
232.077
 20
11.2572
 30
0.0
 11
232.077
 21
10.6577
 31
0.0
  0
LINE
  8
0
 62
     5
 10
232.077
 20
10.6577
 30
0.0
 11
246.076
 21
10.6577
 31
0.0
  0
LINE
  8
0
 62
     5
 10
246.076
 20
10.6577
 30
0.0
 11
246.076
 21
11.2572
 31
0.0
  0
LINE
  8
0
 62
     5
 10
246.076
 20
11.2572
 30
0.0
 11
246.877
 21
11.2572
 31
0.0
  0
LINE
  8
0
 62
     5
 10
246.877
 20
11.2572
 30
0.0
 11
246.877
 21
24.0578
 31
0.0
  0
LINE
  8
0
 62
     5
 10
246.877
 20
24.0578
 30
0.0
 11
246.076
 21
24.0578
 31
0.0
  0
LINE
  8
0
 62
     5
 10
246.076
 20
24.0578
 30
0.0
 11
246.076
 21
24.6572
 31
0.0
  0
LINE
  8
0
 62
     5
 10
246.076
 20
24.6572
 30
0.0
 11
232.077
 21
24.6572
 31
0.0
  0
LINE
  8
0
 62
     5
 10
170.163
 20
24.6572
 30
0.0
 11
170.163
 21
24.0578
 31
0.0
  0
LINE
  8
0
 62
     5
 10
170.163
 20
24.0578
 30
0.0
 11
169.364
 21
24.0578
 31
0.0
  0
LINE
  8
0
 62
     5
 10
169.364
 20
24.0578
 30
0.0
 11
169.364
 21
11.2572
 31
0.0
  0
LINE
  8
0
 62
     5
 10
169.364
 20
11.2572
 30
0.0
 11
170.163
 21
11.2572
 31
0.0
  0
LINE
  8
0
 62
     5
 10
170.163
 20
11.2572
 30
0.0
 11
170.163
 21
10.6577
 31
0.0
  0
LINE
  8
0
 62
     5
 10
170.163
 20
10.6577
 30
0.0
 11
184.164
 21
10.6577
 31
0.0
  0
LINE
  8
0
 62
     5
 10
184.164
 20
10.6577
 30
0.0
 11
184.164
 21
11.2572
 31
0.0
  0
LINE
  8
0
 62
     5
 10
184.164
 20
11.2572
 30
0.0
 11
184.963
 21
11.2572
 31
0.0
  0
LINE
  8
0
 62
     5
 10
184.963
 20
11.2572
 30
0.0
 11
184.963
 21
24.0578
 31
0.0
  0
LINE
  8
0
 62
     5
 10
184.963
 20
24.0578
 30
0.0
 11
184.164
 21
24.0578
 31
0.0
  0
LINE
  8
0
 62
     5
 10
184.164
 20
24.0578
 30
0.0
 11
184.164
 21
24.6572
 31
0.0
  0
LINE
  8
0
 62
     5
 10
184.164
 20
24.6572
 30
0.0
 11
170.163
 21
24.6572
 31
0.0
  0
LINE
  8
0
 62
     5
 10
148.733
 20
24.6572
 30
0.0
 11
148.733
 21
24.0578
 31
0.0
  0
LINE
  8
0
 62
     5
 10
148.733
 20
24.0578
 30
0.0
 11
147.932
 21
24.0578
 31
0.0
  0
LINE
  8
0
 62
     5
 10
147.932
 20
24.0578
 30
0.0
 11
147.932
 21
11.2572
 31
0.0
  0
LINE
  8
0
 62
     5
 10
147.932
 20
11.2572
 30
0.0
 11
148.733
 21
11.2572
 31
0.0
  0
LINE
  8
0
 62
     5
 10
148.733
 20
11.2572
 30
0.0
 11
148.733
 21
10.6577
 31
0.0
  0
LINE
  8
0
 62
     5
 10
148.733
 20
10.6577
 30
0.0
 11
162.733
 21
10.6577
 31
0.0
  0
LINE
  8
0
 62
     5
 10
162.733
 20
10.6577
 30
0.0
 11
162.733
 21
11.2572
 31
0.0
  0
LINE
  8
0
 62
     5
 10
162.733
 20
11.2572
 30
0.0
 11
163.533
 21
11.2572
 31
0.0
  0
LINE
  8
0
 62
     5
 10
163.533
 20
11.2572
 30
0.0
 11
163.533
 21
24.0578
 31
0.0
  0
LINE
  8
0
 62
     5
 10
163.533
 20
24.0578
 30
0.0
 11
162.733
 21
24.0578
 31
0.0
  0
LINE
  8
0
 62
     5
 10
162.733
 20
24.0578
 30
0.0
 11
162.733
 21
24.6572
 31
0.0
  0
LINE
  8
0
 62
     5
 10
162.733
 20
24.6572
 30
0.0
 11
148.733
 21
24.6572
 31
0.0
  0
LINE
  8
0
 62
     5
 10
129.683
 20
24.6572
 30
0.0
 11
129.683
 21
24.0578
 31
0.0
  0
LINE
  8
0
 62
     5
 10
129.683
 20
24.0578
 30
0.0
 11
128.882
 21
24.0578
 31
0.0
  0
LINE
  8
0
 62
     5
 10
128.882
 20
24.0578
 30
0.0
 11
128.882
 21
11.2572
 31
0.0
  0
LINE
  8
0
 62
     5
 10
128.882
 20
11.2572
 30
0.0
 11
129.683
 21
11.2572
 31
0.0
  0
LINE
  8
0
 62
     5
 10
129.683
 20
11.2572
 30
0.0
 11
129.683
 21
10.6577
 31
0.0
  0
LINE
  8
0
 62
     5
 10
129.683
 20
10.6577
 30
0.0
 11
143.683
 21
10.6577
 31
0.0
  0
LINE
  8
0
 62
     5
 10
143.683
 20
10.6577
 30
0.0
 11
143.683
 21
11.2572
 31
0.0
  0
LINE
  8
0
 62
     5
 10
143.683
 20
11.2572
 30
0.0
 11
144.483
 21
11.2572
 31
0.0
  0
LINE
  8
0
 62
     5
 10
144.483
 20
11.2572
 30
0.0
 11
144.483
 21
24.0578
 31
0.0
  0
LINE
  8
0
 62
     5
 10
144.483
 20
24.0578
 30
0.0
 11
143.683
 21
24.0578
 31
0.0
  0
LINE
  8
0
 62
     5
 10
143.683
 20
24.0578
 30
0.0
 11
143.683
 21
24.6572
 31
0.0
  0
LINE
  8
0
 62
     5
 10
143.683
 20
24.6572
 30
0.0
 11
129.683
 21
24.6572
 31
0.0
  0
LINE
  8
0
 62
     5
 10
110.633
 20
24.6572
 30
0.0
 11
110.633
 21
24.0578
 31
0.0
  0
LINE
  8
0
 62
     5
 10
110.633
 20
24.0578
 30
0.0
 11
109.832
 21
24.0578
 31
0.0
  0
LINE
  8
0
 62
     5
 10
109.832
 20
24.0578
 30
0.0
 11
109.832
 21
11.2572
 31
0.0
  0
LINE
  8
0
 62
     5
 10
109.832
 20
11.2572
 30
0.0
 11
110.633
 21
11.2572
 31
0.0
  0
LINE
  8
0
 62
     5
 10
110.633
 20
11.2572
 30
0.0
 11
110.633
 21
10.6577
 31
0.0
  0
LINE
  8
0
 62
     5
 10
110.633
 20
10.6577
 30
0.0
 11
124.633
 21
10.6577
 31
0.0
  0
LINE
  8
0
 62
     5
 10
124.633
 20
10.6577
 30
0.0
 11
124.633
 21
11.2572
 31
0.0
  0
LINE
  8
0
 62
     5
 10
124.633
 20
11.2572
 30
0.0
 11
125.432
 21
11.2572
 31
0.0
  0
LINE
  8
0
 62
     5
 10
125.432
 20
11.2572
 30
0.0
 11
125.432
 21
24.0578
 31
0.0
  0
LINE
  8
0
 62
     5
 10
125.432
 20
24.0578
 30
0.0
 11
124.633
 21
24.0578
 31
0.0
  0
LINE
  8
0
 62
     5
 10
124.633
 20
24.0578
 30
0.0
 11
124.633
 21
24.6572
 31
0.0
  0
LINE
  8
0
 62
     5
 10
124.633
 20
24.6572
 30
0.0
 11
110.633
 21
24.6572
 31
0.0
  0
LINE
  8
0
 62
     5
 10
91.5829
 20
24.6572
 30
0.0
 11
91.5829
 21
24.0578
 31
0.0
  0
LINE
  8
0
 62
     5
 10
91.5829
 20
24.0578
 30
0.0
 11
90.7824
 21
24.0578
 31
0.0
  0
LINE
  8
0
 62
     5
 10
90.7824
 20
24.0578
 30
0.0
 11
90.7824
 21
11.2572
 31
0.0
  0
LINE
  8
0
 62
     5
 10
90.7824
 20
11.2572
 30
0.0
 11
91.5829
 21
11.2572
 31
0.0
  0
LINE
  8
0
 62
     5
 10
91.5829
 20
11.2572
 30
0.0
 11
91.5829
 21
10.6577
 31
0.0
  0
LINE
  8
0
 62
     5
 10
91.5829
 20
10.6577
 30
0.0
 11
105.583
 21
10.6577
 31
0.0
  0
LINE
  8
0
 62
     5
 10
105.583
 20
10.6577
 30
0.0
 11
105.583
 21
11.2572
 31
0.0
  0
LINE
  8
0
 62
     5
 10
105.583
 20
11.2572
 30
0.0
 11
106.383
 21
11.2572
 31
0.0
  0
LINE
  8
0
 62
     5
 10
106.383
 20
11.2572
 30
0.0
 11
106.383
 21
24.0578
 31
0.0
  0
LINE
  8
0
 62
     5
 10
106.383
 20
24.0578
 30
0.0
 11
105.583
 21
24.0578
 31
0.0
  0
LINE
  8
0
 62
     5
 10
105.583
 20
24.0578
 30
0.0
 11
105.583
 21
24.6572
 31
0.0
  0
LINE
  8
0
 62
     5
 10
105.583
 20
24.6572
 30
0.0
 11
91.5829
 21
24.6572
 31
0.0
  0
LINE
  8
0
 62
     5
 10
67.7704
 20
24.6572
 30
0.0
 11
67.7704
 21
24.0578
 31
0.0
  0
LINE
  8
0
 62
     5
 10
67.7704
 20
24.0578
 30
0.0
 11
66.9699
 21
24.0578
 31
0.0
  0
LINE
  8
0
 62
     5
 10
66.9699
 20
24.0578
 30
0.0
 11
66.9699
 21
11.2572
 31
0.0
  0
LINE
  8
0
 62
     5
 10
66.9699
 20
11.2572
 30
0.0
 11
67.7704
 21
11.2572
 31
0.0
  0
LINE
  8
0
 62
     5
 10
67.7704
 20
11.2572
 30
0.0
 11
67.7704
 21
10.6577
 31
0.0
  0
LINE
  8
0
 62
     5
 10
67.7704
 20
10.6577
 30
0.0
 11
81.77
 21
10.6577
 31
0.0
  0
LINE
  8
0
 62
     5
 10
81.77
 20
10.6577
 30
0.0
 11
81.77
 21
11.2572
 31
0.0
  0
LINE
  8
0
 62
     5
 10
81.77
 20
11.2572
 30
0.0
 11
82.5708
 21
11.2572
 31
0.0
  0
LINE
  8
0
 62
     5
 10
82.5708
 20
11.2572
 30
0.0
 11
82.5708
 21
24.0578
 31
0.0
  0
LINE
  8
0
 62
     5
 10
82.5708
 20
24.0578
 30
0.0
 11
81.77
 21
24.0578
 31
0.0
  0
LINE
  8
0
 62
     5
 10
81.77
 20
24.0578
 30
0.0
 11
81.77
 21
24.6572
 31
0.0
  0
LINE
  8
0
 62
     5
 10
81.77
 20
24.6572
 30
0.0
 11
67.7704
 21
24.6572
 31
0.0
  0
LINE
  8
0
 62
     5
 10
48.7204
 20
24.6572
 30
0.0
 11
48.7204
 21
24.0578
 31
0.0
  0
LINE
  8
0
 62
     5
 10
48.7204
 20
24.0578
 30
0.0
 11
47.9199
 21
24.0578
 31
0.0
  0
LINE
  8
0
 62
     5
 10
47.9199
 20
24.0578
 30
0.0
 11
47.9199
 21
11.2572
 31
0.0
  0
LINE
  8
0
 62
     5
 10
47.9199
 20
11.2572
 30
0.0
 11
48.7204
 21
11.2572
 31
0.0
  0
LINE
  8
0
 62
     5
 10
48.7204
 20
11.2572
 30
0.0
 11
48.7204
 21
10.6577
 31
0.0
  0
LINE
  8
0
 62
     5
 10
48.7204
 20
10.6577
 30
0.0
 11
62.72
 21
10.6577
 31
0.0
  0
LINE
  8
0
 62
     5
 10
62.72
 20
10.6577
 30
0.0
 11
62.72
 21
11.2572
 31
0.0
  0
LINE
  8
0
 62
     5
 10
62.72
 20
11.2572
 30
0.0
 11
63.5208
 21
11.2572
 31
0.0
  0
LINE
  8
0
 62
     5
 10
63.5208
 20
11.2572
 30
0.0
 11
63.5208
 21
24.0578
 31
0.0
  0
LINE
  8
0
 62
     5
 10
63.5208
 20
24.0578
 30
0.0
 11
62.72
 21
24.0578
 31
0.0
  0
LINE
  8
0
 62
     5
 10
62.72
 20
24.0578
 30
0.0
 11
62.72
 21
24.6572
 31
0.0
  0
LINE
  8
0
 62
     5
 10
62.72
 20
24.6572
 30
0.0
 11
48.7204
 21
24.6572
 31
0.0
  0
LINE
  8
0
 62
     5
 10
29.6706
 20
24.6572
 30
0.0
 11
29.6706
 21
24.0578
 31
0.0
  0
LINE
  8
0
 62
     5
 10
29.6706
 20
24.0578
 30
0.0
 11
28.8699
 21
24.0578
 31
0.0
  0
LINE
  8
0
 62
     5
 10
28.8699
 20
24.0578
 30
0.0
 11
28.8699
 21
11.2572
 31
0.0
  0
LINE
  8
0
 62
     5
 10
28.8699
 20
11.2572
 30
0.0
 11
29.6706
 21
11.2572
 31
0.0
  0
LINE
  8
0
 62
     5
 10
29.6706
 20
11.2572
 30
0.0
 11
29.6706
 21
10.6577
 31
0.0
  0
LINE
  8
0
 62
     5
 10
29.6706
 20
10.6577
 30
0.0
 11
43.67
 21
10.6577
 31
0.0
  0
LINE
  8
0
 62
     5
 10
43.67
 20
10.6577
 30
0.0
 11
43.67
 21
11.2572
 31
0.0
  0
LINE
  8
0
 62
     5
 10
43.67
 20
11.2572
 30
0.0
 11
44.4708
 21
11.2572
 31
0.0
  0
LINE
  8
0
 62
     5
 10
44.4708
 20
11.2572
 30
0.0
 11
44.4708
 21
24.0578
 31
0.0
  0
LINE
  8
0
 62
     5
 10
44.4708
 20
24.0578
 30
0.0
 11
43.67
 21
24.0578
 31
0.0
  0
LINE
  8
0
 62
     5
 10
43.67
 20
24.0578
 30
0.0
 11
43.67
 21
24.6572
 31
0.0
  0
LINE
  8
0
 62
     5
 10
43.67
 20
24.6572
 30
0.0
 11
29.6706
 21
24.6572
 31
0.0
  0
LINE
  8
0
 62
     5
 10
10.6192
 20
24.6572
 30
0.0
 11
10.6192
 21
24.0578
 31
0.0
  0
LINE
  8
0
 62
     5
 10
10.6192
 20
24.0578
 30
0.0
 11
9.81989
 21
24.0578
 31
0.0
  0
LINE
  8
0
 62
     5
 10
9.81989
 20
24.0578
 30
0.0
 11
9.81989
 21
11.2572
 31
0.0
  0
LINE
  8
0
 62
     5
 10
9.81989
 20
11.2572
 30
0.0
 11
10.6192
 21
11.2572
 31
0.0
  0
LINE
  8
0
 62
     5
 10
10.6192
 20
11.2572
 30
0.0
 11
10.6192
 21
10.6577
 31
0.0
  0
LINE
  8
0
 62
     5
 10
10.6192
 20
10.6577
 30
0.0
 11
24.62
 21
10.6577
 31
0.0
  0
LINE
  8
0
 62
     5
 10
24.62
 20
10.6577
 30
0.0
 11
24.62
 21
11.2572
 31
0.0
  0
LINE
  8
0
 62
     5
 10
24.62
 20
11.2572
 30
0.0
 11
25.4207
 21
11.2572
 31
0.0
  0
LINE
  8
0
 62
     5
 10
25.4207
 20
11.2572
 30
0.0
 11
25.4207
 21
24.0578
 31
0.0
  0
LINE
  8
0
 62
     5
 10
25.4207
 20
24.0578
 30
0.0
 11
24.62
 21
24.0578
 31
0.0
  0
LINE
  8
0
 62
     5
 10
24.62
 20
24.0578
 30
0.0
 11
24.62
 21
24.6572
 31
0.0
  0
LINE
  8
0
 62
     5
 10
24.62
 20
24.6572
 30
0.0
 11
10.6192
 21
24.6572
 31
0.0
  0
LINE
  8
0
 62
     5
 10
310.658
 20
43.7074
 30
0.0
 11
310.658
 21
43.1077
 31
0.0
  0
LINE
  8
0
 62
     5
 10
310.658
 20
43.1077
 30
0.0
 11
309.857
 21
43.1077
 31
0.0
  0
LINE
  8
0
 62
     5
 10
309.857
 20
43.1077
 30
0.0
 11
309.857
 21
30.3072
 31
0.0
  0
LINE
  8
0
 62
     5
 10
309.857
 20
30.3072
 30
0.0
 11
310.658
 21
30.3072
 31
0.0
  0
LINE
  8
0
 62
     5
 10
310.658
 20
30.3072
 30
0.0
 11
310.658
 21
29.7077
 31
0.0
  0
LINE
  8
0
 62
     5
 10
310.658
 20
29.7077
 30
0.0
 11
324.658
 21
29.7077
 31
0.0
  0
LINE
  8
0
 62
     5
 10
324.658
 20
29.7077
 30
0.0
 11
324.658
 21
30.3072
 31
0.0
  0
LINE
  8
0
 62
     5
 10
324.658
 20
30.3072
 30
0.0
 11
325.458
 21
30.3072
 31
0.0
  0
LINE
  8
0
 62
     5
 10
325.458
 20
30.3072
 30
0.0
 11
325.458
 21
43.1077
 31
0.0
  0
LINE
  8
0
 62
     5
 10
325.458
 20
43.1077
 30
0.0
 11
324.658
 21
43.1077
 31
0.0
  0
LINE
  8
0
 62
     5
 10
324.658
 20
43.1077
 30
0.0
 11
324.658
 21
43.7074
 31
0.0
  0
LINE
  8
0
 62
     5
 10
324.658
 20
43.7074
 30
0.0
 11
310.658
 21
43.7074
 31
0.0
  0
LINE
  8
0
 62
     5
 10
291.608
 20
43.7074
 30
0.0
 11
291.608
 21
43.1077
 31
0.0
  0
LINE
  8
0
 62
     5
 10
291.608
 20
43.1077
 30
0.0
 11
290.807
 21
43.1077
 31
0.0
  0
LINE
  8
0
 62
     5
 10
290.807
 20
43.1077
 30
0.0
 11
290.807
 21
30.3072
 31
0.0
  0
LINE
  8
0
 62
     5
 10
290.807
 20
30.3072
 30
0.0
 11
291.608
 21
30.3072
 31
0.0
  0
LINE
  8
0
 62
     5
 10
291.608
 20
30.3072
 30
0.0
 11
291.608
 21
29.7077
 31
0.0
  0
LINE
  8
0
 62
     5
 10
291.608
 20
29.7077
 30
0.0
 11
305.608
 21
29.7077
 31
0.0
  0
LINE
  8
0
 62
     5
 10
305.608
 20
29.7077
 30
0.0
 11
305.608
 21
30.3072
 31
0.0
  0
LINE
  8
0
 62
     5
 10
305.608
 20
30.3072
 30
0.0
 11
306.408
 21
30.3072
 31
0.0
  0
LINE
  8
0
 62
     5
 10
306.408
 20
30.3072
 30
0.0
 11
306.408
 21
43.1077
 31
0.0
  0
LINE
  8
0
 62
     5
 10
306.408
 20
43.1077
 30
0.0
 11
305.608
 21
43.1077
 31
0.0
  0
LINE
  8
0
 62
     5
 10
305.608
 20
43.1077
 30
0.0
 11
305.608
 21
43.7074
 31
0.0
  0
LINE
  8
0
 62
     5
 10
305.608
 20
43.7074
 30
0.0
 11
291.608
 21
43.7074
 31
0.0
  0
LINE
  8
0
 62
     5
 10
272.558
 20
43.7074
 30
0.0
 11
272.558
 21
43.1077
 31
0.0
  0
LINE
  8
0
 62
     5
 10
272.558
 20
43.1077
 30
0.0
 11
271.757
 21
43.1077
 31
0.0
  0
LINE
  8
0
 62
     5
 10
271.757
 20
43.1077
 30
0.0
 11
271.757
 21
30.3072
 31
0.0
  0
LINE
  8
0
 62
     5
 10
271.757
 20
30.3072
 30
0.0
 11
272.558
 21
30.3072
 31
0.0
  0
LINE
  8
0
 62
     5
 10
272.558
 20
30.3072
 30
0.0
 11
272.558
 21
29.7077
 31
0.0
  0
LINE
  8
0
 62
     5
 10
272.558
 20
29.7077
 30
0.0
 11
286.558
 21
29.7077
 31
0.0
  0
LINE
  8
0
 62
     5
 10
286.558
 20
29.7077
 30
0.0
 11
286.558
 21
30.3072
 31
0.0
  0
LINE
  8
0
 62
     5
 10
286.558
 20
30.3072
 30
0.0
 11
287.358
 21
30.3072
 31
0.0
  0
LINE
  8
0
 62
     5
 10
287.358
 20
30.3072
 30
0.0
 11
287.358
 21
43.1077
 31
0.0
  0
LINE
  8
0
 62
     5
 10
287.358
 20
43.1077
 30
0.0
 11
286.558
 21
43.1077
 31
0.0
  0
LINE
  8
0
 62
     5
 10
286.558
 20
43.1077
 30
0.0
 11
286.558
 21
43.7074
 31
0.0
  0
LINE
  8
0
 62
     5
 10
286.558
 20
43.7074
 30
0.0
 11
272.558
 21
43.7074
 31
0.0
  0
LINE
  8
0
 62
     5
 10
253.507
 20
43.7074
 30
0.0
 11
253.507
 21
43.1077
 31
0.0
  0
LINE
  8
0
 62
     5
 10
253.507
 20
43.1077
 30
0.0
 11
252.707
 21
43.1077
 31
0.0
  0
LINE
  8
0
 62
     5
 10
252.707
 20
43.1077
 30
0.0
 11
252.707
 21
30.3072
 31
0.0
  0
LINE
  8
0
 62
     5
 10
252.707
 20
30.3072
 30
0.0
 11
253.507
 21
30.3072
 31
0.0
  0
LINE
  8
0
 62
     5
 10
253.507
 20
30.3072
 30
0.0
 11
253.507
 21
29.7077
 31
0.0
  0
LINE
  8
0
 62
     5
 10
253.507
 20
29.7077
 30
0.0
 11
267.508
 21
29.7077
 31
0.0
  0
LINE
  8
0
 62
     5
 10
267.508
 20
29.7077
 30
0.0
 11
267.508
 21
30.3072
 31
0.0
  0
LINE
  8
0
 62
     5
 10
267.508
 20
30.3072
 30
0.0
 11
268.308
 21
30.3072
 31
0.0
  0
LINE
  8
0
 62
     5
 10
268.308
 20
30.3072
 30
0.0
 11
268.308
 21
43.1077
 31
0.0
  0
LINE
  8
0
 62
     5
 10
268.308
 20
43.1077
 30
0.0
 11
267.508
 21
43.1077
 31
0.0
  0
LINE
  8
0
 62
     5
 10
267.508
 20
43.1077
 30
0.0
 11
267.508
 21
43.7074
 31
0.0
  0
LINE
  8
0
 62
     5
 10
267.508
 20
43.7074
 30
0.0
 11
253.507
 21
43.7074
 31
0.0
  0
LINE
  8
0
 62
     5
 10
234.458
 20
43.7074
 30
0.0
 11
234.458
 21
43.1077
 31
0.0
  0
LINE
  8
0
 62
     5
 10
234.458
 20
43.1077
 30
0.0
 11
233.657
 21
43.1077
 31
0.0
  0
LINE
  8
0
 62
     5
 10
233.657
 20
43.1077
 30
0.0
 11
233.657
 21
30.3072
 31
0.0
  0
LINE
  8
0
 62
     5
 10
233.657
 20
30.3072
 30
0.0
 11
234.458
 21
30.3072
 31
0.0
  0
LINE
  8
0
 62
     5
 10
234.458
 20
30.3072
 30
0.0
 11
234.458
 21
29.7077
 31
0.0
  0
LINE
  8
0
 62
     5
 10
234.458
 20
29.7077
 30
0.0
 11
248.458
 21
29.7077
 31
0.0
  0
LINE
  8
0
 62
     5
 10
248.458
 20
29.7077
 30
0.0
 11
248.458
 21
30.3072
 31
0.0
  0
LINE
  8
0
 62
     5
 10
248.458
 20
30.3072
 30
0.0
 11
249.258
 21
30.3072
 31
0.0
  0
LINE
  8
0
 62
     5
 10
249.258
 20
30.3072
 30
0.0
 11
249.258
 21
43.1077
 31
0.0
  0
LINE
  8
0
 62
     5
 10
249.258
 20
43.1077
 30
0.0
 11
248.458
 21
43.1077
 31
0.0
  0
LINE
  8
0
 62
     5
 10
248.458
 20
43.1077
 30
0.0
 11
248.458
 21
43.7074
 31
0.0
  0
LINE
  8
0
 62
     5
 10
248.458
 20
43.7074
 30
0.0
 11
234.458
 21
43.7074
 31
0.0
  0
LINE
  8
0
 62
     5
 10
215.408
 20
43.7074
 30
0.0
 11
215.408
 21
43.1077
 31
0.0
  0
LINE
  8
0
 62
     5
 10
215.408
 20
43.1077
 30
0.0
 11
214.607
 21
43.1077
 31
0.0
  0
LINE
  8
0
 62
     5
 10
214.607
 20
43.1077
 30
0.0
 11
214.607
 21
30.3072
 31
0.0
  0
LINE
  8
0
 62
     5
 10
214.607
 20
30.3072
 30
0.0
 11
215.408
 21
30.3072
 31
0.0
  0
LINE
  8
0
 62
     5
 10
215.408
 20
30.3072
 30
0.0
 11
215.408
 21
29.7077
 31
0.0
  0
LINE
  8
0
 62
     5
 10
215.408
 20
29.7077
 30
0.0
 11
229.408
 21
29.7077
 31
0.0
  0
LINE
  8
0
 62
     5
 10
229.408
 20
29.7077
 30
0.0
 11
229.408
 21
30.3072
 31
0.0
  0
LINE
  8
0
 62
     5
 10
229.408
 20
30.3072
 30
0.0
 11
230.208
 21
30.3072
 31
0.0
  0
LINE
  8
0
 62
     5
 10
230.208
 20
30.3072
 30
0.0
 11
230.208
 21
43.1077
 31
0.0
  0
LINE
  8
0
 62
     5
 10
230.208
 20
43.1077
 30
0.0
 11
229.408
 21
43.1077
 31
0.0
  0
LINE
  8
0
 62
     5
 10
229.408
 20
43.1077
 30
0.0
 11
229.408
 21
43.7074
 31
0.0
  0
LINE
  8
0
 62
     5
 10
229.408
 20
43.7074
 30
0.0
 11
215.408
 21
43.7074
 31
0.0
  0
LINE
  8
0
 62
     5
 10
186.833
 20
43.7074
 30
0.0
 11
186.833
 21
43.1077
 31
0.0
  0
LINE
  8
0
 62
     5
 10
186.833
 20
43.1077
 30
0.0
 11
186.032
 21
43.1077
 31
0.0
  0
LINE
  8
0
 62
     5
 10
186.032
 20
43.1077
 30
0.0
 11
186.032
 21
30.3072
 31
0.0
  0
LINE
  8
0
 62
     5
 10
186.032
 20
30.3072
 30
0.0
 11
186.833
 21
30.3072
 31
0.0
  0
LINE
  8
0
 62
     5
 10
186.833
 20
30.3072
 30
0.0
 11
186.833
 21
29.7077
 31
0.0
  0
LINE
  8
0
 62
     5
 10
186.833
 20
29.7077
 30
0.0
 11
200.833
 21
29.7077
 31
0.0
  0
LINE
  8
0
 62
     5
 10
200.833
 20
29.7077
 30
0.0
 11
200.833
 21
30.3072
 31
0.0
  0
LINE
  8
0
 62
     5
 10
200.833
 20
30.3072
 30
0.0
 11
201.633
 21
30.3072
 31
0.0
  0
LINE
  8
0
 62
     5
 10
201.633
 20
30.3072
 30
0.0
 11
201.633
 21
43.1077
 31
0.0
  0
LINE
  8
0
 62
     5
 10
201.633
 20
43.1077
 30
0.0
 11
200.833
 21
43.1077
 31
0.0
  0
LINE
  8
0
 62
     5
 10
200.833
 20
43.1077
 30
0.0
 11
200.833
 21
43.7074
 31
0.0
  0
LINE
  8
0
 62
     5
 10
200.833
 20
43.7074
 30
0.0
 11
186.833
 21
43.7074
 31
0.0
  0
LINE
  8
0
 62
     5
 10
167.783
 20
43.7074
 30
0.0
 11
167.783
 21
43.1077
 31
0.0
  0
LINE
  8
0
 62
     5
 10
167.783
 20
43.1077
 30
0.0
 11
166.982
 21
43.1077
 31
0.0
  0
LINE
  8
0
 62
     5
 10
166.982
 20
43.1077
 30
0.0
 11
166.982
 21
30.3072
 31
0.0
  0
LINE
  8
0
 62
     5
 10
166.982
 20
30.3072
 30
0.0
 11
167.783
 21
30.3072
 31
0.0
  0
LINE
  8
0
 62
     5
 10
167.783
 20
30.3072
 30
0.0
 11
167.783
 21
29.7077
 31
0.0
  0
LINE
  8
0
 62
     5
 10
167.783
 20
29.7077
 30
0.0
 11
181.783
 21
29.7077
 31
0.0
  0
LINE
  8
0
 62
     5
 10
181.783
 20
29.7077
 30
0.0
 11
181.783
 21
30.3072
 31
0.0
  0
LINE
  8
0
 62
     5
 10
181.783
 20
30.3072
 30
0.0
 11
182.583
 21
30.3072
 31
0.0
  0
LINE
  8
0
 62
     5
 10
182.583
 20
30.3072
 30
0.0
 11
182.583
 21
43.1077
 31
0.0
  0
LINE
  8
0
 62
     5
 10
182.583
 20
43.1077
 30
0.0
 11
181.783
 21
43.1077
 31
0.0
  0
LINE
  8
0
 62
     5
 10
181.783
 20
43.1077
 30
0.0
 11
181.783
 21
43.7074
 31
0.0
  0
LINE
  8
0
 62
     5
 10
181.783
 20
43.7074
 30
0.0
 11
167.783
 21
43.7074
 31
0.0
  0
LINE
  8
0
 62
     5
 10
148.733
 20
43.7074
 30
0.0
 11
148.733
 21
43.1077
 31
0.0
  0
LINE
  8
0
 62
     5
 10
148.733
 20
43.1077
 30
0.0
 11
147.932
 21
43.1077
 31
0.0
  0
LINE
  8
0
 62
     5
 10
147.932
 20
43.1077
 30
0.0
 11
147.932
 21
30.3072
 31
0.0
  0
LINE
  8
0
 62
     5
 10
147.932
 20
30.3072
 30
0.0
 11
148.733
 21
30.3072
 31
0.0
  0
LINE
  8
0
 62
     5
 10
148.733
 20
30.3072
 30
0.0
 11
148.733
 21
29.7077
 31
0.0
  0
LINE
  8
0
 62
     5
 10
148.733
 20
29.7077
 30
0.0
 11
162.733
 21
29.7077
 31
0.0
  0
LINE
  8
0
 62
     5
 10
162.733
 20
29.7077
 30
0.0
 11
162.733
 21
30.3072
 31
0.0
  0
LINE
  8
0
 62
     5
 10
162.733
 20
30.3072
 30
0.0
 11
163.533
 21
30.3072
 31
0.0
  0
LINE
  8
0
 62
     5
 10
163.533
 20
30.3072
 30
0.0
 11
163.533
 21
43.1077
 31
0.0
  0
LINE
  8
0
 62
     5
 10
163.533
 20
43.1077
 30
0.0
 11
162.733
 21
43.1077
 31
0.0
  0
LINE
  8
0
 62
     5
 10
162.733
 20
43.1077
 30
0.0
 11
162.733
 21
43.7074
 31
0.0
  0
LINE
  8
0
 62
     5
 10
162.733
 20
43.7074
 30
0.0
 11
148.733
 21
43.7074
 31
0.0
  0
LINE
  8
0
 62
     5
 10
129.683
 20
43.7074
 30
0.0
 11
129.683
 21
43.1077
 31
0.0
  0
LINE
  8
0
 62
     5
 10
129.683
 20
43.1077
 30
0.0
 11
128.882
 21
43.1077
 31
0.0
  0
LINE
  8
0
 62
     5
 10
128.882
 20
43.1077
 30
0.0
 11
128.882
 21
30.3072
 31
0.0
  0
LINE
  8
0
 62
     5
 10
128.882
 20
30.3072
 30
0.0
 11
129.683
 21
30.3072
 31
0.0
  0
LINE
  8
0
 62
     5
 10
129.683
 20
30.3072
 30
0.0
 11
129.683
 21
29.7077
 31
0.0
  0
LINE
  8
0
 62
     5
 10
129.683
 20
29.7077
 30
0.0
 11
143.683
 21
29.7077
 31
0.0
  0
LINE
  8
0
 62
     5
 10
143.683
 20
29.7077
 30
0.0
 11
143.683
 21
30.3072
 31
0.0
  0
LINE
  8
0
 62
     5
 10
143.683
 20
30.3072
 30
0.0
 11
144.483
 21
30.3072
 31
0.0
  0
LINE
  8
0
 62
     5
 10
144.483
 20
30.3072
 30
0.0
 11
144.483
 21
43.1077
 31
0.0
  0
LINE
  8
0
 62
     5
 10
144.483
 20
43.1077
 30
0.0
 11
143.683
 21
43.1077
 31
0.0
  0
LINE
  8
0
 62
     5
 10
143.683
 20
43.1077
 30
0.0
 11
143.683
 21
43.7074
 31
0.0
  0
LINE
  8
0
 62
     5
 10
143.683
 20
43.7074
 30
0.0
 11
129.683
 21
43.7074
 31
0.0
  0
LINE
  8
0
 62
     5
 10
110.633
 20
43.7074
 30
0.0
 11
110.633
 21
43.1077
 31
0.0
  0
LINE
  8
0
 62
     5
 10
110.633
 20
43.1077
 30
0.0
 11
109.832
 21
43.1077
 31
0.0
  0
LINE
  8
0
 62
     5
 10
109.832
 20
43.1077
 30
0.0
 11
109.832
 21
30.3072
 31
0.0
  0
LINE
  8
0
 62
     5
 10
109.832
 20
30.3072
 30
0.0
 11
110.633
 21
30.3072
 31
0.0
  0
LINE
  8
0
 62
     5
 10
110.633
 20
30.3072
 30
0.0
 11
110.633
 21
29.7077
 31
0.0
  0
LINE
  8
0
 62
     5
 10
110.633
 20
29.7077
 30
0.0
 11
124.633
 21
29.7077
 31
0.0
  0
LINE
  8
0
 62
     5
 10
124.633
 20
29.7077
 30
0.0
 11
124.633
 21
30.3072
 31
0.0
  0
LINE
  8
0
 62
     5
 10
124.633
 20
30.3072
 30
0.0
 11
125.432
 21
30.3072
 31
0.0
  0
LINE
  8
0
 62
     5
 10
125.432
 20
30.3072
 30
0.0
 11
125.432
 21
43.1077
 31
0.0
  0
LINE
  8
0
 62
     5
 10
125.432
 20
43.1077
 30
0.0
 11
124.633
 21
43.1077
 31
0.0
  0
LINE
  8
0
 62
     5
 10
124.633
 20
43.1077
 30
0.0
 11
124.633
 21
43.7074
 31
0.0
  0
LINE
  8
0
 62
     5
 10
124.633
 20
43.7074
 30
0.0
 11
110.633
 21
43.7074
 31
0.0
  0
LINE
  8
0
 62
     5
 10
91.5829
 20
43.7074
 30
0.0
 11
91.5829
 21
43.1077
 31
0.0
  0
LINE
  8
0
 62
     5
 10
91.5829
 20
43.1077
 30
0.0
 11
90.7824
 21
43.1077
 31
0.0
  0
LINE
  8
0
 62
     5
 10
90.7824
 20
43.1077
 30
0.0
 11
90.7824
 21
30.3072
 31
0.0
  0
LINE
  8
0
 62
     5
 10
90.7824
 20
30.3072
 30
0.0
 11
91.5829
 21
30.3072
 31
0.0
  0
LINE
  8
0
 62
     5
 10
91.5829
 20
30.3072
 30
0.0
 11
91.5829
 21
29.7077
 31
0.0
  0
LINE
  8
0
 62
     5
 10
91.5829
 20
29.7077
 30
0.0
 11
105.583
 21
29.7077
 31
0.0
  0
LINE
  8
0
 62
     5
 10
105.583
 20
29.7077
 30
0.0
 11
105.583
 21
30.3072
 31
0.0
  0
LINE
  8
0
 62
     5
 10
105.583
 20
30.3072
 30
0.0
 11
106.383
 21
30.3072
 31
0.0
  0
LINE
  8
0
 62
     5
 10
106.383
 20
30.3072
 30
0.0
 11
106.383
 21
43.1077
 31
0.0
  0
LINE
  8
0
 62
     5
 10
106.383
 20
43.1077
 30
0.0
 11
105.583
 21
43.1077
 31
0.0
  0
LINE
  8
0
 62
     5
 10
105.583
 20
43.1077
 30
0.0
 11
105.583
 21
43.7074
 31
0.0
  0
LINE
  8
0
 62
     5
 10
105.583
 20
43.7074
 30
0.0
 11
91.5829
 21
43.7074
 31
0.0
  0
LINE
  8
0
 62
     5
 10
67.7704
 20
43.7074
 30
0.0
 11
67.7704
 21
43.1077
 31
0.0
  0
LINE
  8
0
 62
     5
 10
67.7704
 20
43.1077
 30
0.0
 11
66.9699
 21
43.1077
 31
0.0
  0
LINE
  8
0
 62
     5
 10
66.9699
 20
43.1077
 30
0.0
 11
66.9699
 21
30.3072
 31
0.0
  0
LINE
  8
0
 62
     5
 10
66.9699
 20
30.3072
 30
0.0
 11
67.7704
 21
30.3072
 31
0.0
  0
LINE
  8
0
 62
     5
 10
67.7704
 20
30.3072
 30
0.0
 11
67.7704
 21
29.7077
 31
0.0
  0
LINE
  8
0
 62
     5
 10
67.7704
 20
29.7077
 30
0.0
 11
81.77
 21
29.7077
 31
0.0
  0
LINE
  8
0
 62
     5
 10
81.77
 20
29.7077
 30
0.0
 11
81.77
 21
30.3072
 31
0.0
  0
LINE
  8
0
 62
     5
 10
81.77
 20
30.3072
 30
0.0
 11
82.5708
 21
30.3072
 31
0.0
  0
LINE
  8
0
 62
     5
 10
82.5708
 20
30.3072
 30
0.0
 11
82.5708
 21
43.1077
 31
0.0
  0
LINE
  8
0
 62
     5
 10
82.5708
 20
43.1077
 30
0.0
 11
81.77
 21
43.1077
 31
0.0
  0
LINE
  8
0
 62
     5
 10
81.77
 20
43.1077
 30
0.0
 11
81.77
 21
43.7074
 31
0.0
  0
LINE
  8
0
 62
     5
 10
81.77
 20
43.7074
 30
0.0
 11
67.7704
 21
43.7074
 31
0.0
  0
LINE
  8
0
 62
     5
 10
48.7204
 20
43.7074
 30
0.0
 11
48.7204
 21
43.1077
 31
0.0
  0
LINE
  8
0
 62
     5
 10
48.7204
 20
43.1077
 30
0.0
 11
47.9199
 21
43.1077
 31
0.0
  0
LINE
  8
0
 62
     5
 10
47.9199
 20
43.1077
 30
0.0
 11
47.9199
 21
30.3072
 31
0.0
  0
LINE
  8
0
 62
     5
 10
47.9199
 20
30.3072
 30
0.0
 11
48.7204
 21
30.3072
 31
0.0
  0
LINE
  8
0
 62
     5
 10
48.7204
 20
30.3072
 30
0.0
 11
48.7204
 21
29.7077
 31
0.0
  0
LINE
  8
0
 62
     5
 10
48.7204
 20
29.7077
 30
0.0
 11
62.72
 21
29.7077
 31
0.0
  0
LINE
  8
0
 62
     5
 10
62.72
 20
29.7077
 30
0.0
 11
62.72
 21
30.3072
 31
0.0
  0
LINE
  8
0
 62
     5
 10
62.72
 20
30.3072
 30
0.0
 11
63.5208
 21
30.3072
 31
0.0
  0
LINE
  8
0
 62
     5
 10
63.5208
 20
30.3072
 30
0.0
 11
63.5208
 21
43.1077
 31
0.0
  0
LINE
  8
0
 62
     5
 10
63.5208
 20
43.1077
 30
0.0
 11
62.72
 21
43.1077
 31
0.0
  0
LINE
  8
0
 62
     5
 10
62.72
 20
43.1077
 30
0.0
 11
62.72
 21
43.7074
 31
0.0
  0
LINE
  8
0
 62
     5
 10
62.72
 20
43.7074
 30
0.0
 11
48.7204
 21
43.7074
 31
0.0
  0
LINE
  8
0
 62
     5
 10
29.6706
 20
43.7074
 30
0.0
 11
29.6706
 21
43.1077
 31
0.0
  0
LINE
  8
0
 62
     5
 10
29.6706
 20
43.1077
 30
0.0
 11
28.8699
 21
43.1077
 31
0.0
  0
LINE
  8
0
 62
     5
 10
28.8699
 20
43.1077
 30
0.0
 11
28.8699
 21
30.3072
 31
0.0
  0
LINE
  8
0
 62
     5
 10
28.8699
 20
30.3072
 30
0.0
 11
29.6706
 21
30.3072
 31
0.0
  0
LINE
  8
0
 62
     5
 10
29.6706
 20
30.3072
 30
0.0
 11
29.6706
 21
29.7077
 31
0.0
  0
LINE
  8
0
 62
     5
 10
29.6706
 20
29.7077
 30
0.0
 11
43.67
 21
29.7077
 31
0.0
  0
LINE
  8
0
 62
     5
 10
43.67
 20
29.7077
 30
0.0
 11
43.67
 21
30.3072
 31
0.0
  0
LINE
  8
0
 62
     5
 10
43.67
 20
30.3072
 30
0.0
 11
44.4708
 21
30.3072
 31
0.0
  0
LINE
  8
0
 62
     5
 10
44.4708
 20
30.3072
 30
0.0
 11
44.4708
 21
43.1077
 31
0.0
  0
LINE
  8
0
 62
     5
 10
44.4708
 20
43.1077
 30
0.0
 11
43.67
 21
43.1077
 31
0.0
  0
LINE
  8
0
 62
     5
 10
43.67
 20
43.1077
 30
0.0
 11
43.67
 21
43.7074
 31
0.0
  0
LINE
  8
0
 62
     5
 10
43.67
 20
43.7074
 30
0.0
 11
29.6706
 21
43.7074
 31
0.0
  0
LINE
  8
0
 62
     5
 10
10.6192
 20
43.7074
 30
0.0
 11
10.6192
 21
43.1077
 31
0.0
  0
LINE
  8
0
 62
     5
 10
10.6192
 20
43.1077
 30
0.0
 11
9.81989
 21
43.1077
 31
0.0
  0
LINE
  8
0
 62
     5
 10
9.81989
 20
43.1077
 30
0.0
 11
9.81989
 21
30.3072
 31
0.0
  0
LINE
  8
0
 62
     5
 10
9.81989
 20
30.3072
 30
0.0
 11
10.6192
 21
30.3072
 31
0.0
  0
LINE
  8
0
 62
     5
 10
10.6192
 20
30.3072
 30
0.0
 11
10.6192
 21
29.7077
 31
0.0
  0
LINE
  8
0
 62
     5
 10
10.6192
 20
29.7077
 30
0.0
 11
24.62
 21
29.7077
 31
0.0
  0
LINE
  8
0
 62
     5
 10
24.62
 20
29.7077
 30
0.0
 11
24.62
 21
30.3072
 31
0.0
  0
LINE
  8
0
 62
     5
 10
24.62
 20
30.3072
 30
0.0
 11
25.4207
 21
30.3072
 31
0.0
  0
LINE
  8
0
 62
     5
 10
25.4207
 20
30.3072
 30
0.0
 11
25.4207
 21
43.1077
 31
0.0
  0
LINE
  8
0
 62
     5
 10
25.4207
 20
43.1077
 30
0.0
 11
24.62
 21
43.1077
 31
0.0
  0
LINE
  8
0
 62
     5
 10
24.62
 20
43.1077
 30
0.0
 11
24.62
 21
43.7074
 31
0.0
  0
LINE
  8
0
 62
     5
 10
24.62
 20
43.7074
 30
0.0
 11
10.6192
 21
43.7074
 31
0.0
  0
LINE
  8
0
 62
     5
 10
310.658
 20
62.7574
 30
0.0
 11
310.658
 21
62.1577
 31
0.0
  0
LINE
  8
0
 62
     5
 10
310.658
 20
62.1577
 30
0.0
 11
309.857
 21
62.1577
 31
0.0
  0
LINE
  8
0
 62
     5
 10
309.857
 20
62.1577
 30
0.0
 11
309.857
 21
49.3571
 31
0.0
  0
LINE
  8
0
 62
     5
 10
309.857
 20
49.3571
 30
0.0
 11
310.658
 21
49.3571
 31
0.0
  0
LINE
  8
0
 62
     5
 10
310.658
 20
49.3571
 30
0.0
 11
310.658
 21
48.7578
 31
0.0
  0
LINE
  8
0
 62
     5
 10
310.658
 20
48.7578
 30
0.0
 11
324.658
 21
48.7578
 31
0.0
  0
LINE
  8
0
 62
     5
 10
324.658
 20
48.7578
 30
0.0
 11
324.658
 21
49.3571
 31
0.0
  0
LINE
  8
0
 62
     5
 10
324.658
 20
49.3571
 30
0.0
 11
325.458
 21
49.3571
 31
0.0
  0
LINE
  8
0
 62
     5
 10
325.458
 20
49.3571
 30
0.0
 11
325.458
 21
62.1577
 31
0.0
  0
LINE
  8
0
 62
     5
 10
325.458
 20
62.1577
 30
0.0
 11
324.658
 21
62.1577
 31
0.0
  0
LINE
  8
0
 62
     5
 10
324.658
 20
62.1577
 30
0.0
 11
324.658
 21
62.7574
 31
0.0
  0
LINE
  8
0
 62
     5
 10
324.658
 20
62.7574
 30
0.0
 11
310.658
 21
62.7574
 31
0.0
  0
LINE
  8
0
 62
     5
 10
291.608
 20
62.7574
 30
0.0
 11
291.608
 21
62.1577
 31
0.0
  0
LINE
  8
0
 62
     5
 10
291.608
 20
62.1577
 30
0.0
 11
290.807
 21
62.1577
 31
0.0
  0
LINE
  8
0
 62
     5
 10
290.807
 20
62.1577
 30
0.0
 11
290.807
 21
49.3571
 31
0.0
  0
LINE
  8
0
 62
     5
 10
290.807
 20
49.3571
 30
0.0
 11
291.608
 21
49.3571
 31
0.0
  0
LINE
  8
0
 62
     5
 10
291.608
 20
49.3571
 30
0.0
 11
291.608
 21
48.7578
 31
0.0
  0
LINE
  8
0
 62
     5
 10
291.608
 20
48.7578
 30
0.0
 11
305.608
 21
48.7578
 31
0.0
  0
LINE
  8
0
 62
     5
 10
305.608
 20
48.7578
 30
0.0
 11
305.608
 21
49.3571
 31
0.0
  0
LINE
  8
0
 62
     5
 10
305.608
 20
49.3571
 30
0.0
 11
306.408
 21
49.3571
 31
0.0
  0
LINE
  8
0
 62
     5
 10
306.408
 20
49.3571
 30
0.0
 11
306.408
 21
62.1577
 31
0.0
  0
LINE
  8
0
 62
     5
 10
306.408
 20
62.1577
 30
0.0
 11
305.608
 21
62.1577
 31
0.0
  0
LINE
  8
0
 62
     5
 10
305.608
 20
62.1577
 30
0.0
 11
305.608
 21
62.7574
 31
0.0
  0
LINE
  8
0
 62
     5
 10
305.608
 20
62.7574
 30
0.0
 11
291.608
 21
62.7574
 31
0.0
  0
LINE
  8
0
 62
     5
 10
272.558
 20
62.7574
 30
0.0
 11
272.558
 21
62.1577
 31
0.0
  0
LINE
  8
0
 62
     5
 10
272.558
 20
62.1577
 30
0.0
 11
271.757
 21
62.1577
 31
0.0
  0
LINE
  8
0
 62
     5
 10
271.757
 20
62.1577
 30
0.0
 11
271.757
 21
49.3571
 31
0.0
  0
LINE
  8
0
 62
     5
 10
271.757
 20
49.3571
 30
0.0
 11
272.558
 21
49.3571
 31
0.0
  0
LINE
  8
0
 62
     5
 10
272.558
 20
49.3571
 30
0.0
 11
272.558
 21
48.7578
 31
0.0
  0
LINE
  8
0
 62
     5
 10
272.558
 20
48.7578
 30
0.0
 11
286.558
 21
48.7578
 31
0.0
  0
LINE
  8
0
 62
     5
 10
286.558
 20
48.7578
 30
0.0
 11
286.558
 21
49.3571
 31
0.0
  0
LINE
  8
0
 62
     5
 10
286.558
 20
49.3571
 30
0.0
 11
287.358
 21
49.3571
 31
0.0
  0
LINE
  8
0
 62
     5
 10
287.358
 20
49.3571
 30
0.0
 11
287.358
 21
62.1577
 31
0.0
  0
LINE
  8
0
 62
     5
 10
287.358
 20
62.1577
 30
0.0
 11
286.558
 21
62.1577
 31
0.0
  0
LINE
  8
0
 62
     5
 10
286.558
 20
62.1577
 30
0.0
 11
286.558
 21
62.7574
 31
0.0
  0
LINE
  8
0
 62
     5
 10
286.558
 20
62.7574
 30
0.0
 11
272.558
 21
62.7574
 31
0.0
  0
LINE
  8
0
 62
     5
 10
253.507
 20
62.7574
 30
0.0
 11
253.507
 21
62.1577
 31
0.0
  0
LINE
  8
0
 62
     5
 10
253.507
 20
62.1577
 30
0.0
 11
252.707
 21
62.1577
 31
0.0
  0
LINE
  8
0
 62
     5
 10
252.707
 20
62.1577
 30
0.0
 11
252.707
 21
49.3571
 31
0.0
  0
LINE
  8
0
 62
     5
 10
252.707
 20
49.3571
 30
0.0
 11
253.507
 21
49.3571
 31
0.0
  0
LINE
  8
0
 62
     5
 10
253.507
 20
49.3571
 30
0.0
 11
253.507
 21
48.7578
 31
0.0
  0
LINE
  8
0
 62
     5
 10
253.507
 20
48.7578
 30
0.0
 11
267.508
 21
48.7578
 31
0.0
  0
LINE
  8
0
 62
     5
 10
267.508
 20
48.7578
 30
0.0
 11
267.508
 21
49.3571
 31
0.0
  0
LINE
  8
0
 62
     5
 10
267.508
 20
49.3571
 30
0.0
 11
268.308
 21
49.3571
 31
0.0
  0
LINE
  8
0
 62
     5
 10
268.308
 20
49.3571
 30
0.0
 11
268.308
 21
62.1577
 31
0.0
  0
LINE
  8
0
 62
     5
 10
268.308
 20
62.1577
 30
0.0
 11
267.508
 21
62.1577
 31
0.0
  0
LINE
  8
0
 62
     5
 10
267.508
 20
62.1577
 30
0.0
 11
267.508
 21
62.7574
 31
0.0
  0
LINE
  8
0
 62
     5
 10
267.508
 20
62.7574
 30
0.0
 11
253.507
 21
62.7574
 31
0.0
  0
LINE
  8
0
 62
     5
 10
234.458
 20
62.7574
 30
0.0
 11
234.458
 21
62.1577
 31
0.0
  0
LINE
  8
0
 62
     5
 10
234.458
 20
62.1577
 30
0.0
 11
233.657
 21
62.1577
 31
0.0
  0
LINE
  8
0
 62
     5
 10
233.657
 20
62.1577
 30
0.0
 11
233.657
 21
49.3571
 31
0.0
  0
LINE
  8
0
 62
     5
 10
233.657
 20
49.3571
 30
0.0
 11
234.458
 21
49.3571
 31
0.0
  0
LINE
  8
0
 62
     5
 10
234.458
 20
49.3571
 30
0.0
 11
234.458
 21
48.7578
 31
0.0
  0
LINE
  8
0
 62
     5
 10
234.458
 20
48.7578
 30
0.0
 11
248.458
 21
48.7578
 31
0.0
  0
LINE
  8
0
 62
     5
 10
248.458
 20
48.7578
 30
0.0
 11
248.458
 21
49.3571
 31
0.0
  0
LINE
  8
0
 62
     5
 10
248.458
 20
49.3571
 30
0.0
 11
249.258
 21
49.3571
 31
0.0
  0
LINE
  8
0
 62
     5
 10
249.258
 20
49.3571
 30
0.0
 11
249.258
 21
62.1577
 31
0.0
  0
LINE
  8
0
 62
     5
 10
249.258
 20
62.1577
 30
0.0
 11
248.458
 21
62.1577
 31
0.0
  0
LINE
  8
0
 62
     5
 10
248.458
 20
62.1577
 30
0.0
 11
248.458
 21
62.7574
 31
0.0
  0
LINE
  8
0
 62
     5
 10
248.458
 20
62.7574
 30
0.0
 11
234.458
 21
62.7574
 31
0.0
  0
LINE
  8
0
 62
     5
 10
215.408
 20
62.7574
 30
0.0
 11
215.408
 21
62.1577
 31
0.0
  0
LINE
  8
0
 62
     5
 10
215.408
 20
62.1577
 30
0.0
 11
214.607
 21
62.1577
 31
0.0
  0
LINE
  8
0
 62
     5
 10
214.607
 20
62.1577
 30
0.0
 11
214.607
 21
49.3571
 31
0.0
  0
LINE
  8
0
 62
     5
 10
214.607
 20
49.3571
 30
0.0
 11
215.408
 21
49.3571
 31
0.0
  0
LINE
  8
0
 62
     5
 10
215.408
 20
49.3571
 30
0.0
 11
215.408
 21
48.7578
 31
0.0
  0
LINE
  8
0
 62
     5
 10
215.408
 20
48.7578
 30
0.0
 11
229.408
 21
48.7578
 31
0.0
  0
LINE
  8
0
 62
     5
 10
229.408
 20
48.7578
 30
0.0
 11
229.408
 21
49.3571
 31
0.0
  0
LINE
  8
0
 62
     5
 10
229.408
 20
49.3571
 30
0.0
 11
230.208
 21
49.3571
 31
0.0
  0
LINE
  8
0
 62
     5
 10
230.208
 20
49.3571
 30
0.0
 11
230.208
 21
62.1577
 31
0.0
  0
LINE
  8
0
 62
     5
 10
230.208
 20
62.1577
 30
0.0
 11
229.408
 21
62.1577
 31
0.0
  0
LINE
  8
0
 62
     5
 10
229.408
 20
62.1577
 30
0.0
 11
229.408
 21
62.7574
 31
0.0
  0
LINE
  8
0
 62
     5
 10
229.408
 20
62.7574
 30
0.0
 11
215.408
 21
62.7574
 31
0.0
  0
LINE
  8
0
 62
     5
 10
186.833
 20
62.7574
 30
0.0
 11
186.833
 21
62.1577
 31
0.0
  0
LINE
  8
0
 62
     5
 10
186.833
 20
62.1577
 30
0.0
 11
186.032
 21
62.1577
 31
0.0
  0
LINE
  8
0
 62
     5
 10
186.032
 20
62.1577
 30
0.0
 11
186.032
 21
49.3571
 31
0.0
  0
LINE
  8
0
 62
     5
 10
186.032
 20
49.3571
 30
0.0
 11
186.833
 21
49.3571
 31
0.0
  0
LINE
  8
0
 62
     5
 10
186.833
 20
49.3571
 30
0.0
 11
186.833
 21
48.7578
 31
0.0
  0
LINE
  8
0
 62
     5
 10
186.833
 20
48.7578
 30
0.0
 11
200.833
 21
48.7578
 31
0.0
  0
LINE
  8
0
 62
     5
 10
200.833
 20
48.7578
 30
0.0
 11
200.833
 21
49.3571
 31
0.0
  0
LINE
  8
0
 62
     5
 10
200.833
 20
49.3571
 30
0.0
 11
201.633
 21
49.3571
 31
0.0
  0
LINE
  8
0
 62
     5
 10
201.633
 20
49.3571
 30
0.0
 11
201.633
 21
62.1577
 31
0.0
  0
LINE
  8
0
 62
     5
 10
201.633
 20
62.1577
 30
0.0
 11
200.833
 21
62.1577
 31
0.0
  0
LINE
  8
0
 62
     5
 10
200.833
 20
62.1577
 30
0.0
 11
200.833
 21
62.7574
 31
0.0
  0
LINE
  8
0
 62
     5
 10
200.833
 20
62.7574
 30
0.0
 11
186.833
 21
62.7574
 31
0.0
  0
LINE
  8
0
 62
     5
 10
167.783
 20
62.7574
 30
0.0
 11
167.783
 21
62.1577
 31
0.0
  0
LINE
  8
0
 62
     5
 10
167.783
 20
62.1577
 30
0.0
 11
166.982
 21
62.1577
 31
0.0
  0
LINE
  8
0
 62
     5
 10
166.982
 20
62.1577
 30
0.0
 11
166.982
 21
49.3571
 31
0.0
  0
LINE
  8
0
 62
     5
 10
166.982
 20
49.3571
 30
0.0
 11
167.783
 21
49.3571
 31
0.0
  0
LINE
  8
0
 62
     5
 10
167.783
 20
49.3571
 30
0.0
 11
167.783
 21
48.7578
 31
0.0
  0
LINE
  8
0
 62
     5
 10
167.783
 20
48.7578
 30
0.0
 11
181.783
 21
48.7578
 31
0.0
  0
LINE
  8
0
 62
     5
 10
181.783
 20
48.7578
 30
0.0
 11
181.783
 21
49.3571
 31
0.0
  0
LINE
  8
0
 62
     5
 10
181.783
 20
49.3571
 30
0.0
 11
182.583
 21
49.3571
 31
0.0
  0
LINE
  8
0
 62
     5
 10
182.583
 20
49.3571
 30
0.0
 11
182.583
 21
62.1577
 31
0.0
  0
LINE
  8
0
 62
     5
 10
182.583
 20
62.1577
 30
0.0
 11
181.783
 21
62.1577
 31
0.0
  0
LINE
  8
0
 62
     5
 10
181.783
 20
62.1577
 30
0.0
 11
181.783
 21
62.7574
 31
0.0
  0
LINE
  8
0
 62
     5
 10
181.783
 20
62.7574
 30
0.0
 11
167.783
 21
62.7574
 31
0.0
  0
LINE
  8
0
 62
     5
 10
148.733
 20
62.7574
 30
0.0
 11
148.733
 21
62.1577
 31
0.0
  0
LINE
  8
0
 62
     5
 10
148.733
 20
62.1577
 30
0.0
 11
147.932
 21
62.1577
 31
0.0
  0
LINE
  8
0
 62
     5
 10
147.932
 20
62.1577
 30
0.0
 11
147.932
 21
49.3571
 31
0.0
  0
LINE
  8
0
 62
     5
 10
147.932
 20
49.3571
 30
0.0
 11
148.733
 21
49.3571
 31
0.0
  0
LINE
  8
0
 62
     5
 10
148.733
 20
49.3571
 30
0.0
 11
148.733
 21
48.7578
 31
0.0
  0
LINE
  8
0
 62
     5
 10
148.733
 20
48.7578
 30
0.0
 11
162.733
 21
48.7578
 31
0.0
  0
LINE
  8
0
 62
     5
 10
162.733
 20
48.7578
 30
0.0
 11
162.733
 21
49.3571
 31
0.0
  0
LINE
  8
0
 62
     5
 10
162.733
 20
49.3571
 30
0.0
 11
163.533
 21
49.3571
 31
0.0
  0
LINE
  8
0
 62
     5
 10
163.533
 20
49.3571
 30
0.0
 11
163.533
 21
62.1577
 31
0.0
  0
LINE
  8
0
 62
     5
 10
163.533
 20
62.1577
 30
0.0
 11
162.733
 21
62.1577
 31
0.0
  0
LINE
  8
0
 62
     5
 10
162.733
 20
62.1577
 30
0.0
 11
162.733
 21
62.7574
 31
0.0
  0
LINE
  8
0
 62
     5
 10
162.733
 20
62.7574
 30
0.0
 11
148.733
 21
62.7574
 31
0.0
  0
LINE
  8
0
 62
     5
 10
129.683
 20
62.7574
 30
0.0
 11
129.683
 21
62.1577
 31
0.0
  0
LINE
  8
0
 62
     5
 10
129.683
 20
62.1577
 30
0.0
 11
128.882
 21
62.1577
 31
0.0
  0
LINE
  8
0
 62
     5
 10
128.882
 20
62.1577
 30
0.0
 11
128.882
 21
49.3571
 31
0.0
  0
LINE
  8
0
 62
     5
 10
128.882
 20
49.3571
 30
0.0
 11
129.683
 21
49.3571
 31
0.0
  0
LINE
  8
0
 62
     5
 10
129.683
 20
49.3571
 30
0.0
 11
129.683
 21
48.7578
 31
0.0
  0
LINE
  8
0
 62
     5
 10
129.683
 20
48.7578
 30
0.0
 11
143.683
 21
48.7578
 31
0.0
  0
LINE
  8
0
 62
     5
 10
143.683
 20
48.7578
 30
0.0
 11
143.683
 21
49.3571
 31
0.0
  0
LINE
  8
0
 62
     5
 10
143.683
 20
49.3571
 30
0.0
 11
144.483
 21
49.3571
 31
0.0
  0
LINE
  8
0
 62
     5
 10
144.483
 20
49.3571
 30
0.0
 11
144.483
 21
62.1577
 31
0.0
  0
LINE
  8
0
 62
     5
 10
144.483
 20
62.1577
 30
0.0
 11
143.683
 21
62.1577
 31
0.0
  0
LINE
  8
0
 62
     5
 10
143.683
 20
62.1577
 30
0.0
 11
143.683
 21
62.7574
 31
0.0
  0
LINE
  8
0
 62
     5
 10
143.683
 20
62.7574
 30
0.0
 11
129.683
 21
62.7574
 31
0.0
  0
LINE
  8
0
 62
     5
 10
110.633
 20
62.7574
 30
0.0
 11
110.633
 21
62.1577
 31
0.0
  0
LINE
  8
0
 62
     5
 10
110.633
 20
62.1577
 30
0.0
 11
109.832
 21
62.1577
 31
0.0
  0
LINE
  8
0
 62
     5
 10
109.832
 20
62.1577
 30
0.0
 11
109.832
 21
49.3571
 31
0.0
  0
LINE
  8
0
 62
     5
 10
109.832
 20
49.3571
 30
0.0
 11
110.633
 21
49.3571
 31
0.0
  0
LINE
  8
0
 62
     5
 10
110.633
 20
49.3571
 30
0.0
 11
110.633
 21
48.7578
 31
0.0
  0
LINE
  8
0
 62
     5
 10
110.633
 20
48.7578
 30
0.0
 11
124.633
 21
48.7578
 31
0.0
  0
LINE
  8
0
 62
     5
 10
124.633
 20
48.7578
 30
0.0
 11
124.633
 21
49.3571
 31
0.0
  0
LINE
  8
0
 62
     5
 10
124.633
 20
49.3571
 30
0.0
 11
125.432
 21
49.3571
 31
0.0
  0
LINE
  8
0
 62
     5
 10
125.432
 20
49.3571
 30
0.0
 11
125.432
 21
62.1577
 31
0.0
  0
LINE
  8
0
 62
     5
 10
125.432
 20
62.1577
 30
0.0
 11
124.633
 21
62.1577
 31
0.0
  0
LINE
  8
0
 62
     5
 10
124.633
 20
62.1577
 30
0.0
 11
124.633
 21
62.7574
 31
0.0
  0
LINE
  8
0
 62
     5
 10
124.633
 20
62.7574
 30
0.0
 11
110.633
 21
62.7574
 31
0.0
  0
LINE
  8
0
 62
     5
 10
91.5829
 20
62.7574
 30
0.0
 11
91.5829
 21
62.1577
 31
0.0
  0
LINE
  8
0
 62
     5
 10
91.5829
 20
62.1577
 30
0.0
 11
90.7824
 21
62.1577
 31
0.0
  0
LINE
  8
0
 62
     5
 10
90.7824
 20
62.1577
 30
0.0
 11
90.7824
 21
49.3571
 31
0.0
  0
LINE
  8
0
 62
     5
 10
90.7824
 20
49.3571
 30
0.0
 11
91.5829
 21
49.3571
 31
0.0
  0
LINE
  8
0
 62
     5
 10
91.5829
 20
49.3571
 30
0.0
 11
91.5829
 21
48.7578
 31
0.0
  0
LINE
  8
0
 62
     5
 10
91.5829
 20
48.7578
 30
0.0
 11
105.583
 21
48.7578
 31
0.0
  0
LINE
  8
0
 62
     5
 10
105.583
 20
48.7578
 30
0.0
 11
105.583
 21
49.3571
 31
0.0
  0
LINE
  8
0
 62
     5
 10
105.583
 20
49.3571
 30
0.0
 11
106.383
 21
49.3571
 31
0.0
  0
LINE
  8
0
 62
     5
 10
106.383
 20
49.3571
 30
0.0
 11
106.383
 21
62.1577
 31
0.0
  0
LINE
  8
0
 62
     5
 10
106.383
 20
62.1577
 30
0.0
 11
105.583
 21
62.1577
 31
0.0
  0
LINE
  8
0
 62
     5
 10
105.583
 20
62.1577
 30
0.0
 11
105.583
 21
62.7574
 31
0.0
  0
LINE
  8
0
 62
     5
 10
105.583
 20
62.7574
 30
0.0
 11
91.5829
 21
62.7574
 31
0.0
  0
LINE
  8
0
 62
     5
 10
67.7704
 20
62.7574
 30
0.0
 11
67.7704
 21
62.1577
 31
0.0
  0
LINE
  8
0
 62
     5
 10
67.7704
 20
62.1577
 30
0.0
 11
66.9699
 21
62.1577
 31
0.0
  0
LINE
  8
0
 62
     5
 10
66.9699
 20
62.1577
 30
0.0
 11
66.9699
 21
49.3571
 31
0.0
  0
LINE
  8
0
 62
     5
 10
66.9699
 20
49.3571
 30
0.0
 11
67.7704
 21
49.3571
 31
0.0
  0
LINE
  8
0
 62
     5
 10
67.7704
 20
49.3571
 30
0.0
 11
67.7704
 21
48.7578
 31
0.0
  0
LINE
  8
0
 62
     5
 10
67.7704
 20
48.7578
 30
0.0
 11
81.77
 21
48.7578
 31
0.0
  0
LINE
  8
0
 62
     5
 10
81.77
 20
48.7578
 30
0.0
 11
81.77
 21
49.3571
 31
0.0
  0
LINE
  8
0
 62
     5
 10
81.77
 20
49.3571
 30
0.0
 11
82.5708
 21
49.3571
 31
0.0
  0
LINE
  8
0
 62
     5
 10
82.5708
 20
49.3571
 30
0.0
 11
82.5708
 21
62.1577
 31
0.0
  0
LINE
  8
0
 62
     5
 10
82.5708
 20
62.1577
 30
0.0
 11
81.77
 21
62.1577
 31
0.0
  0
LINE
  8
0
 62
     5
 10
81.77
 20
62.1577
 30
0.0
 11
81.77
 21
62.7574
 31
0.0
  0
LINE
  8
0
 62
     5
 10
81.77
 20
62.7574
 30
0.0
 11
67.7704
 21
62.7574
 31
0.0
  0
LINE
  8
0
 62
     5
 10
48.7204
 20
62.7574
 30
0.0
 11
48.7204
 21
62.1577
 31
0.0
  0
LINE
  8
0
 62
     5
 10
48.7204
 20
62.1577
 30
0.0
 11
47.9199
 21
62.1577
 31
0.0
  0
LINE
  8
0
 62
     5
 10
47.9199
 20
62.1577
 30
0.0
 11
47.9199
 21
49.3571
 31
0.0
  0
LINE
  8
0
 62
     5
 10
47.9199
 20
49.3571
 30
0.0
 11
48.7204
 21
49.3571
 31
0.0
  0
LINE
  8
0
 62
     5
 10
48.7204
 20
49.3571
 30
0.0
 11
48.7204
 21
48.7578
 31
0.0
  0
LINE
  8
0
 62
     5
 10
48.7204
 20
48.7578
 30
0.0
 11
62.72
 21
48.7578
 31
0.0
  0
LINE
  8
0
 62
     5
 10
62.72
 20
48.7578
 30
0.0
 11
62.72
 21
49.3571
 31
0.0
  0
LINE
  8
0
 62
     5
 10
62.72
 20
49.3571
 30
0.0
 11
63.5208
 21
49.3571
 31
0.0
  0
LINE
  8
0
 62
     5
 10
63.5208
 20
49.3571
 30
0.0
 11
63.5208
 21
62.1577
 31
0.0
  0
LINE
  8
0
 62
     5
 10
63.5208
 20
62.1577
 30
0.0
 11
62.72
 21
62.1577
 31
0.0
  0
LINE
  8
0
 62
     5
 10
62.72
 20
62.1577
 30
0.0
 11
62.72
 21
62.7574
 31
0.0
  0
LINE
  8
0
 62
     5
 10
62.72
 20
62.7574
 30
0.0
 11
48.7204
 21
62.7574
 31
0.0
  0
LINE
  8
0
 62
     5
 10
29.6706
 20
62.7574
 30
0.0
 11
29.6706
 21
62.1577
 31
0.0
  0
LINE
  8
0
 62
     5
 10
29.6706
 20
62.1577
 30
0.0
 11
28.8699
 21
62.1577
 31
0.0
  0
LINE
  8
0
 62
     5
 10
28.8699
 20
62.1577
 30
0.0
 11
28.8699
 21
49.3571
 31
0.0
  0
LINE
  8
0
 62
     5
 10
28.8699
 20
49.3571
 30
0.0
 11
29.6706
 21
49.3571
 31
0.0
  0
LINE
  8
0
 62
     5
 10
29.6706
 20
49.3571
 30
0.0
 11
29.6706
 21
48.7578
 31
0.0
  0
LINE
  8
0
 62
     5
 10
29.6706
 20
48.7578
 30
0.0
 11
43.67
 21
48.7578
 31
0.0
  0
LINE
  8
0
 62
     5
 10
43.67
 20
48.7578
 30
0.0
 11
43.67
 21
49.3571
 31
0.0
  0
LINE
  8
0
 62
     5
 10
43.67
 20
49.3571
 30
0.0
 11
44.4708
 21
49.3571
 31
0.0
  0
LINE
  8
0
 62
     5
 10
44.4708
 20
49.3571
 30
0.0
 11
44.4708
 21
62.1577
 31
0.0
  0
LINE
  8
0
 62
     5
 10
44.4708
 20
62.1577
 30
0.0
 11
43.67
 21
62.1577
 31
0.0
  0
LINE
  8
0
 62
     5
 10
43.67
 20
62.1577
 30
0.0
 11
43.67
 21
62.7574
 31
0.0
  0
LINE
  8
0
 62
     5
 10
43.67
 20
62.7574
 30
0.0
 11
29.6706
 21
62.7574
 31
0.0
  0
LINE
  8
0
 62
     5
 10
10.6192
 20
62.7574
 30
0.0
 11
10.6192
 21
62.1577
 31
0.0
  0
LINE
  8
0
 62
     5
 10
10.6192
 20
62.1577
 30
0.0
 11
9.81989
 21
62.1577
 31
0.0
  0
LINE
  8
0
 62
     5
 10
9.81989
 20
62.1577
 30
0.0
 11
9.81989
 21
49.3571
 31
0.0
  0
LINE
  8
0
 62
     5
 10
9.81989
 20
49.3571
 30
0.0
 11
10.6192
 21
49.3571
 31
0.0
  0
LINE
  8
0
 62
     5
 10
10.6192
 20
49.3571
 30
0.0
 11
10.6192
 21
48.7578
 31
0.0
  0
LINE
  8
0
 62
     5
 10
10.6192
 20
48.7578
 30
0.0
 11
24.62
 21
48.7578
 31
0.0
  0
LINE
  8
0
 62
     5
 10
24.62
 20
48.7578
 30
0.0
 11
24.62
 21
49.3571
 31
0.0
  0
LINE
  8
0
 62
     5
 10
24.62
 20
49.3571
 30
0.0
 11
25.4207
 21
49.3571
 31
0.0
  0
LINE
  8
0
 62
     5
 10
25.4207
 20
49.3571
 30
0.0
 11
25.4207
 21
62.1577
 31
0.0
  0
LINE
  8
0
 62
     5
 10
25.4207
 20
62.1577
 30
0.0
 11
24.62
 21
62.1577
 31
0.0
  0
LINE
  8
0
 62
     5
 10
24.62
 20
62.1577
 30
0.0
 11
24.62
 21
62.7574
 31
0.0
  0
LINE
  8
0
 62
     5
 10
24.62
 20
62.7574
 30
0.0
 11
10.6192
 21
62.7574
 31
0.0
  0
LINE
  8
0
 62
     5
 10
310.658
 20
81.8085
 30
0.0
 11
310.658
 21
81.2077
 31
0.0
  0
LINE
  8
0
 62
     5
 10
310.658
 20
81.2077
 30
0.0
 11
309.857
 21
81.2077
 31
0.0
  0
LINE
  8
0
 62
     5
 10
309.857
 20
81.2077
 30
0.0
 11
309.857
 21
68.4086
 31
0.0
  0
LINE
  8
0
 62
     5
 10
309.857
 20
68.4086
 30
0.0
 11
310.658
 21
68.4086
 31
0.0
  0
LINE
  8
0
 62
     5
 10
310.658
 20
68.4086
 30
0.0
 11
310.658
 21
67.8078
 31
0.0
  0
LINE
  8
0
 62
     5
 10
310.658
 20
67.8078
 30
0.0
 11
324.658
 21
67.8078
 31
0.0
  0
LINE
  8
0
 62
     5
 10
324.658
 20
67.8078
 30
0.0
 11
324.658
 21
68.4086
 31
0.0
  0
LINE
  8
0
 62
     5
 10
324.658
 20
68.4086
 30
0.0
 11
325.458
 21
68.4086
 31
0.0
  0
LINE
  8
0
 62
     5
 10
325.458
 20
68.4086
 30
0.0
 11
325.458
 21
81.2077
 31
0.0
  0
LINE
  8
0
 62
     5
 10
325.458
 20
81.2077
 30
0.0
 11
324.658
 21
81.2077
 31
0.0
  0
LINE
  8
0
 62
     5
 10
324.658
 20
81.2077
 30
0.0
 11
324.658
 21
81.8085
 31
0.0
  0
LINE
  8
0
 62
     5
 10
324.658
 20
81.8085
 30
0.0
 11
310.658
 21
81.8085
 31
0.0
  0
LINE
  8
0
 62
     5
 10
291.608
 20
81.8085
 30
0.0
 11
291.608
 21
81.2077
 31
0.0
  0
LINE
  8
0
 62
     5
 10
291.608
 20
81.2077
 30
0.0
 11
290.807
 21
81.2077
 31
0.0
  0
LINE
  8
0
 62
     5
 10
290.807
 20
81.2077
 30
0.0
 11
290.807
 21
68.4086
 31
0.0
  0
LINE
  8
0
 62
     5
 10
290.807
 20
68.4086
 30
0.0
 11
291.608
 21
68.4086
 31
0.0
  0
LINE
  8
0
 62
     5
 10
291.608
 20
68.4086
 30
0.0
 11
291.608
 21
67.8078
 31
0.0
  0
LINE
  8
0
 62
     5
 10
291.608
 20
67.8078
 30
0.0
 11
305.608
 21
67.8078
 31
0.0
  0
LINE
  8
0
 62
     5
 10
305.608
 20
67.8078
 30
0.0
 11
305.608
 21
68.4086
 31
0.0
  0
LINE
  8
0
 62
     5
 10
305.608
 20
68.4086
 30
0.0
 11
306.408
 21
68.4086
 31
0.0
  0
LINE
  8
0
 62
     5
 10
306.408
 20
68.4086
 30
0.0
 11
306.408
 21
81.2077
 31
0.0
  0
LINE
  8
0
 62
     5
 10
306.408
 20
81.2077
 30
0.0
 11
305.608
 21
81.2077
 31
0.0
  0
LINE
  8
0
 62
     5
 10
305.608
 20
81.2077
 30
0.0
 11
305.608
 21
81.8085
 31
0.0
  0
LINE
  8
0
 62
     5
 10
305.608
 20
81.8085
 30
0.0
 11
291.608
 21
81.8085
 31
0.0
  0
LINE
  8
0
 62
     5
 10
272.558
 20
81.8085
 30
0.0
 11
272.558
 21
81.2077
 31
0.0
  0
LINE
  8
0
 62
     5
 10
272.558
 20
81.2077
 30
0.0
 11
271.757
 21
81.2077
 31
0.0
  0
LINE
  8
0
 62
     5
 10
271.757
 20
81.2077
 30
0.0
 11
271.757
 21
68.4086
 31
0.0
  0
LINE
  8
0
 62
     5
 10
271.757
 20
68.4086
 30
0.0
 11
272.558
 21
68.4086
 31
0.0
  0
LINE
  8
0
 62
     5
 10
272.558
 20
68.4086
 30
0.0
 11
272.558
 21
67.8078
 31
0.0
  0
LINE
  8
0
 62
     5
 10
272.558
 20
67.8078
 30
0.0
 11
286.558
 21
67.8078
 31
0.0
  0
LINE
  8
0
 62
     5
 10
286.558
 20
67.8078
 30
0.0
 11
286.558
 21
68.4086
 31
0.0
  0
LINE
  8
0
 62
     5
 10
286.558
 20
68.4086
 30
0.0
 11
287.358
 21
68.4086
 31
0.0
  0
LINE
  8
0
 62
     5
 10
287.358
 20
68.4086
 30
0.0
 11
287.358
 21
81.2077
 31
0.0
  0
LINE
  8
0
 62
     5
 10
287.358
 20
81.2077
 30
0.0
 11
286.558
 21
81.2077
 31
0.0
  0
LINE
  8
0
 62
     5
 10
286.558
 20
81.2077
 30
0.0
 11
286.558
 21
81.8085
 31
0.0
  0
LINE
  8
0
 62
     5
 10
286.558
 20
81.8085
 30
0.0
 11
272.558
 21
81.8085
 31
0.0
  0
LINE
  8
0
 62
     5
 10
253.507
 20
81.8085
 30
0.0
 11
253.507
 21
81.2077
 31
0.0
  0
LINE
  8
0
 62
     5
 10
253.507
 20
81.2077
 30
0.0
 11
252.707
 21
81.2077
 31
0.0
  0
LINE
  8
0
 62
     5
 10
252.707
 20
81.2077
 30
0.0
 11
252.707
 21
68.4086
 31
0.0
  0
LINE
  8
0
 62
     5
 10
252.707
 20
68.4086
 30
0.0
 11
253.507
 21
68.4086
 31
0.0
  0
LINE
  8
0
 62
     5
 10
253.507
 20
68.4086
 30
0.0
 11
253.507
 21
67.8078
 31
0.0
  0
LINE
  8
0
 62
     5
 10
253.507
 20
67.8078
 30
0.0
 11
267.508
 21
67.8078
 31
0.0
  0
LINE
  8
0
 62
     5
 10
267.508
 20
67.8078
 30
0.0
 11
267.508
 21
68.4086
 31
0.0
  0
LINE
  8
0
 62
     5
 10
267.508
 20
68.4086
 30
0.0
 11
268.308
 21
68.4086
 31
0.0
  0
LINE
  8
0
 62
     5
 10
268.308
 20
68.4086
 30
0.0
 11
268.308
 21
81.2077
 31
0.0
  0
LINE
  8
0
 62
     5
 10
268.308
 20
81.2077
 30
0.0
 11
267.508
 21
81.2077
 31
0.0
  0
LINE
  8
0
 62
     5
 10
267.508
 20
81.2077
 30
0.0
 11
267.508
 21
81.8085
 31
0.0
  0
LINE
  8
0
 62
     5
 10
267.508
 20
81.8085
 30
0.0
 11
253.507
 21
81.8085
 31
0.0
  0
LINE
  8
0
 62
     5
 10
234.458
 20
81.8085
 30
0.0
 11
234.458
 21
81.2077
 31
0.0
  0
LINE
  8
0
 62
     5
 10
234.458
 20
81.2077
 30
0.0
 11
233.657
 21
81.2077
 31
0.0
  0
LINE
  8
0
 62
     5
 10
233.657
 20
81.2077
 30
0.0
 11
233.657
 21
68.4086
 31
0.0
  0
LINE
  8
0
 62
     5
 10
233.657
 20
68.4086
 30
0.0
 11
234.458
 21
68.4086
 31
0.0
  0
LINE
  8
0
 62
     5
 10
234.458
 20
68.4086
 30
0.0
 11
234.458
 21
67.8078
 31
0.0
  0
LINE
  8
0
 62
     5
 10
234.458
 20
67.8078
 30
0.0
 11
248.458
 21
67.8078
 31
0.0
  0
LINE
  8
0
 62
     5
 10
248.458
 20
67.8078
 30
0.0
 11
248.458
 21
68.4086
 31
0.0
  0
LINE
  8
0
 62
     5
 10
248.458
 20
68.4086
 30
0.0
 11
249.258
 21
68.4086
 31
0.0
  0
LINE
  8
0
 62
     5
 10
249.258
 20
68.4086
 30
0.0
 11
249.258
 21
81.2077
 31
0.0
  0
LINE
  8
0
 62
     5
 10
249.258
 20
81.2077
 30
0.0
 11
248.458
 21
81.2077
 31
0.0
  0
LINE
  8
0
 62
     5
 10
248.458
 20
81.2077
 30
0.0
 11
248.458
 21
81.8085
 31
0.0
  0
LINE
  8
0
 62
     5
 10
248.458
 20
81.8085
 30
0.0
 11
234.458
 21
81.8085
 31
0.0
  0
LINE
  8
0
 62
     5
 10
215.408
 20
81.8085
 30
0.0
 11
215.408
 21
81.2077
 31
0.0
  0
LINE
  8
0
 62
     5
 10
215.408
 20
81.2077
 30
0.0
 11
214.607
 21
81.2077
 31
0.0
  0
LINE
  8
0
 62
     5
 10
214.607
 20
81.2077
 30
0.0
 11
214.607
 21
68.4086
 31
0.0
  0
LINE
  8
0
 62
     5
 10
214.607
 20
68.4086
 30
0.0
 11
215.408
 21
68.4086
 31
0.0
  0
LINE
  8
0
 62
     5
 10
215.408
 20
68.4086
 30
0.0
 11
215.408
 21
67.8078
 31
0.0
  0
LINE
  8
0
 62
     5
 10
215.408
 20
67.8078
 30
0.0
 11
229.408
 21
67.8078
 31
0.0
  0
LINE
  8
0
 62
     5
 10
229.408
 20
67.8078
 30
0.0
 11
229.408
 21
68.4086
 31
0.0
  0
LINE
  8
0
 62
     5
 10
229.408
 20
68.4086
 30
0.0
 11
230.208
 21
68.4086
 31
0.0
  0
LINE
  8
0
 62
     5
 10
230.208
 20
68.4086
 30
0.0
 11
230.208
 21
81.2077
 31
0.0
  0
LINE
  8
0
 62
     5
 10
230.208
 20
81.2077
 30
0.0
 11
229.408
 21
81.2077
 31
0.0
  0
LINE
  8
0
 62
     5
 10
229.408
 20
81.2077
 30
0.0
 11
229.408
 21
81.8085
 31
0.0
  0
LINE
  8
0
 62
     5
 10
229.408
 20
81.8085
 30
0.0
 11
215.408
 21
81.8085
 31
0.0
  0
LINE
  8
0
 62
     5
 10
186.833
 20
81.8085
 30
0.0
 11
186.833
 21
81.2077
 31
0.0
  0
LINE
  8
0
 62
     5
 10
186.833
 20
81.2077
 30
0.0
 11
186.032
 21
81.2077
 31
0.0
  0
LINE
  8
0
 62
     5
 10
186.032
 20
81.2077
 30
0.0
 11
186.032
 21
68.4086
 31
0.0
  0
LINE
  8
0
 62
     5
 10
186.032
 20
68.4086
 30
0.0
 11
186.833
 21
68.4086
 31
0.0
  0
LINE
  8
0
 62
     5
 10
186.833
 20
68.4086
 30
0.0
 11
186.833
 21
67.8078
 31
0.0
  0
LINE
  8
0
 62
     5
 10
186.833
 20
67.8078
 30
0.0
 11
200.833
 21
67.8078
 31
0.0
  0
LINE
  8
0
 62
     5
 10
200.833
 20
67.8078
 30
0.0
 11
200.833
 21
68.4086
 31
0.0
  0
LINE
  8
0
 62
     5
 10
200.833
 20
68.4086
 30
0.0
 11
201.633
 21
68.4086
 31
0.0
  0
LINE
  8
0
 62
     5
 10
201.633
 20
68.4086
 30
0.0
 11
201.633
 21
81.2077
 31
0.0
  0
LINE
  8
0
 62
     5
 10
201.633
 20
81.2077
 30
0.0
 11
200.833
 21
81.2077
 31
0.0
  0
LINE
  8
0
 62
     5
 10
200.833
 20
81.2077
 30
0.0
 11
200.833
 21
81.8085
 31
0.0
  0
LINE
  8
0
 62
     5
 10
200.833
 20
81.8085
 30
0.0
 11
186.833
 21
81.8085
 31
0.0
  0
LINE
  8
0
 62
     5
 10
167.783
 20
81.8085
 30
0.0
 11
167.783
 21
81.2077
 31
0.0
  0
LINE
  8
0
 62
     5
 10
167.783
 20
81.2077
 30
0.0
 11
166.982
 21
81.2077
 31
0.0
  0
LINE
  8
0
 62
     5
 10
166.982
 20
81.2077
 30
0.0
 11
166.982
 21
68.4086
 31
0.0
  0
LINE
  8
0
 62
     5
 10
166.982
 20
68.4086
 30
0.0
 11
167.783
 21
68.4086
 31
0.0
  0
LINE
  8
0
 62
     5
 10
167.783
 20
68.4086
 30
0.0
 11
167.783
 21
67.8078
 31
0.0
  0
LINE
  8
0
 62
     5
 10
167.783
 20
67.8078
 30
0.0
 11
181.783
 21
67.8078
 31
0.0
  0
LINE
  8
0
 62
     5
 10
181.783
 20
67.8078
 30
0.0
 11
181.783
 21
68.4086
 31
0.0
  0
LINE
  8
0
 62
     5
 10
181.783
 20
68.4086
 30
0.0
 11
182.583
 21
68.4086
 31
0.0
  0
LINE
  8
0
 62
     5
 10
182.583
 20
68.4086
 30
0.0
 11
182.583
 21
81.2077
 31
0.0
  0
LINE
  8
0
 62
     5
 10
182.583
 20
81.2077
 30
0.0
 11
181.783
 21
81.2077
 31
0.0
  0
LINE
  8
0
 62
     5
 10
181.783
 20
81.2077
 30
0.0
 11
181.783
 21
81.8085
 31
0.0
  0
LINE
  8
0
 62
     5
 10
181.783
 20
81.8085
 30
0.0
 11
167.783
 21
81.8085
 31
0.0
  0
LINE
  8
0
 62
     5
 10
148.733
 20
81.8085
 30
0.0
 11
148.733
 21
81.2077
 31
0.0
  0
LINE
  8
0
 62
     5
 10
148.733
 20
81.2077
 30
0.0
 11
147.932
 21
81.2077
 31
0.0
  0
LINE
  8
0
 62
     5
 10
147.932
 20
81.2077
 30
0.0
 11
147.932
 21
68.4086
 31
0.0
  0
LINE
  8
0
 62
     5
 10
147.932
 20
68.4086
 30
0.0
 11
148.733
 21
68.4086
 31
0.0
  0
LINE
  8
0
 62
     5
 10
148.733
 20
68.4086
 30
0.0
 11
148.733
 21
67.8078
 31
0.0
  0
LINE
  8
0
 62
     5
 10
148.733
 20
67.8078
 30
0.0
 11
162.733
 21
67.8078
 31
0.0
  0
LINE
  8
0
 62
     5
 10
162.733
 20
67.8078
 30
0.0
 11
162.733
 21
68.4086
 31
0.0
  0
LINE
  8
0
 62
     5
 10
162.733
 20
68.4086
 30
0.0
 11
163.533
 21
68.4086
 31
0.0
  0
LINE
  8
0
 62
     5
 10
163.533
 20
68.4086
 30
0.0
 11
163.533
 21
81.2077
 31
0.0
  0
LINE
  8
0
 62
     5
 10
163.533
 20
81.2077
 30
0.0
 11
162.733
 21
81.2077
 31
0.0
  0
LINE
  8
0
 62
     5
 10
162.733
 20
81.2077
 30
0.0
 11
162.733
 21
81.8085
 31
0.0
  0
LINE
  8
0
 62
     5
 10
162.733
 20
81.8085
 30
0.0
 11
148.733
 21
81.8085
 31
0.0
  0
LINE
  8
0
 62
     5
 10
129.683
 20
81.8085
 30
0.0
 11
129.683
 21
81.2077
 31
0.0
  0
LINE
  8
0
 62
     5
 10
129.683
 20
81.2077
 30
0.0
 11
128.882
 21
81.2077
 31
0.0
  0
LINE
  8
0
 62
     5
 10
128.882
 20
81.2077
 30
0.0
 11
128.882
 21
68.4086
 31
0.0
  0
LINE
  8
0
 62
     5
 10
128.882
 20
68.4086
 30
0.0
 11
129.683
 21
68.4086
 31
0.0
  0
LINE
  8
0
 62
     5
 10
129.683
 20
68.4086
 30
0.0
 11
129.683
 21
67.8078
 31
0.0
  0
LINE
  8
0
 62
     5
 10
129.683
 20
67.8078
 30
0.0
 11
143.683
 21
67.8078
 31
0.0
  0
LINE
  8
0
 62
     5
 10
143.683
 20
67.8078
 30
0.0
 11
143.683
 21
68.4086
 31
0.0
  0
LINE
  8
0
 62
     5
 10
143.683
 20
68.4086
 30
0.0
 11
144.483
 21
68.4086
 31
0.0
  0
LINE
  8
0
 62
     5
 10
144.483
 20
68.4086
 30
0.0
 11
144.483
 21
81.2077
 31
0.0
  0
LINE
  8
0
 62
     5
 10
144.483
 20
81.2077
 30
0.0
 11
143.683
 21
81.2077
 31
0.0
  0
LINE
  8
0
 62
     5
 10
143.683
 20
81.2077
 30
0.0
 11
143.683
 21
81.8085
 31
0.0
  0
LINE
  8
0
 62
     5
 10
143.683
 20
81.8085
 30
0.0
 11
129.683
 21
81.8085
 31
0.0
  0
LINE
  8
0
 62
     5
 10
110.633
 20
81.8085
 30
0.0
 11
110.633
 21
81.2077
 31
0.0
  0
LINE
  8
0
 62
     5
 10
110.633
 20
81.2077
 30
0.0
 11
109.832
 21
81.2077
 31
0.0
  0
LINE
  8
0
 62
     5
 10
109.832
 20
81.2077
 30
0.0
 11
109.832
 21
68.4086
 31
0.0
  0
LINE
  8
0
 62
     5
 10
109.832
 20
68.4086
 30
0.0
 11
110.633
 21
68.4086
 31
0.0
  0
LINE
  8
0
 62
     5
 10
110.633
 20
68.4086
 30
0.0
 11
110.633
 21
67.8078
 31
0.0
  0
LINE
  8
0
 62
     5
 10
110.633
 20
67.8078
 30
0.0
 11
124.633
 21
67.8078
 31
0.0
  0
LINE
  8
0
 62
     5
 10
124.633
 20
67.8078
 30
0.0
 11
124.633
 21
68.4086
 31
0.0
  0
LINE
  8
0
 62
     5
 10
124.633
 20
68.4086
 30
0.0
 11
125.432
 21
68.4086
 31
0.0
  0
LINE
  8
0
 62
     5
 10
125.432
 20
68.4086
 30
0.0
 11
125.432
 21
81.2077
 31
0.0
  0
LINE
  8
0
 62
     5
 10
125.432
 20
81.2077
 30
0.0
 11
124.633
 21
81.2077
 31
0.0
  0
LINE
  8
0
 62
     5
 10
124.633
 20
81.2077
 30
0.0
 11
124.633
 21
81.8085
 31
0.0
  0
LINE
  8
0
 62
     5
 10
124.633
 20
81.8085
 30
0.0
 11
110.633
 21
81.8085
 31
0.0
  0
LINE
  8
0
 62
     5
 10
91.5829
 20
81.8085
 30
0.0
 11
91.5829
 21
81.2077
 31
0.0
  0
LINE
  8
0
 62
     5
 10
91.5829
 20
81.2077
 30
0.0
 11
90.7824
 21
81.2077
 31
0.0
  0
LINE
  8
0
 62
     5
 10
90.7824
 20
81.2077
 30
0.0
 11
90.7824
 21
68.4086
 31
0.0
  0
LINE
  8
0
 62
     5
 10
90.7824
 20
68.4086
 30
0.0
 11
91.5829
 21
68.4086
 31
0.0
  0
LINE
  8
0
 62
     5
 10
91.5829
 20
68.4086
 30
0.0
 11
91.5829
 21
67.8078
 31
0.0
  0
LINE
  8
0
 62
     5
 10
91.5829
 20
67.8078
 30
0.0
 11
105.583
 21
67.8078
 31
0.0
  0
LINE
  8
0
 62
     5
 10
105.583
 20
67.8078
 30
0.0
 11
105.583
 21
68.4086
 31
0.0
  0
LINE
  8
0
 62
     5
 10
105.583
 20
68.4086
 30
0.0
 11
106.383
 21
68.4086
 31
0.0
  0
LINE
  8
0
 62
     5
 10
106.383
 20
68.4086
 30
0.0
 11
106.383
 21
81.2077
 31
0.0
  0
LINE
  8
0
 62
     5
 10
106.383
 20
81.2077
 30
0.0
 11
105.583
 21
81.2077
 31
0.0
  0
LINE
  8
0
 62
     5
 10
105.583
 20
81.2077
 30
0.0
 11
105.583
 21
81.8085
 31
0.0
  0
LINE
  8
0
 62
     5
 10
105.583
 20
81.8085
 30
0.0
 11
91.5829
 21
81.8085
 31
0.0
  0
LINE
  8
0
 62
     5
 10
67.7704
 20
81.8085
 30
0.0
 11
67.7704
 21
81.2077
 31
0.0
  0
LINE
  8
0
 62
     5
 10
67.7704
 20
81.2077
 30
0.0
 11
66.9699
 21
81.2077
 31
0.0
  0
LINE
  8
0
 62
     5
 10
66.9699
 20
81.2077
 30
0.0
 11
66.9699
 21
68.4086
 31
0.0
  0
LINE
  8
0
 62
     5
 10
66.9699
 20
68.4086
 30
0.0
 11
67.7704
 21
68.4086
 31
0.0
  0
LINE
  8
0
 62
     5
 10
67.7704
 20
68.4086
 30
0.0
 11
67.7704
 21
67.8078
 31
0.0
  0
LINE
  8
0
 62
     5
 10
67.7704
 20
67.8078
 30
0.0
 11
81.77
 21
67.8078
 31
0.0
  0
LINE
  8
0
 62
     5
 10
81.77
 20
67.8078
 30
0.0
 11
81.77
 21
68.4086
 31
0.0
  0
LINE
  8
0
 62
     5
 10
81.77
 20
68.4086
 30
0.0
 11
82.5708
 21
68.4086
 31
0.0
  0
LINE
  8
0
 62
     5
 10
82.5708
 20
68.4086
 30
0.0
 11
82.5708
 21
81.2077
 31
0.0
  0
LINE
  8
0
 62
     5
 10
82.5708
 20
81.2077
 30
0.0
 11
81.77
 21
81.2077
 31
0.0
  0
LINE
  8
0
 62
     5
 10
81.77
 20
81.2077
 30
0.0
 11
81.77
 21
81.8085
 31
0.0
  0
LINE
  8
0
 62
     5
 10
81.77
 20
81.8085
 30
0.0
 11
67.7704
 21
81.8085
 31
0.0
  0
LINE
  8
0
 62
     5
 10
48.7204
 20
81.8085
 30
0.0
 11
48.7204
 21
81.2077
 31
0.0
  0
LINE
  8
0
 62
     5
 10
48.7204
 20
81.2077
 30
0.0
 11
47.9199
 21
81.2077
 31
0.0
  0
LINE
  8
0
 62
     5
 10
47.9199
 20
81.2077
 30
0.0
 11
47.9199
 21
68.4086
 31
0.0
  0
LINE
  8
0
 62
     5
 10
47.9199
 20
68.4086
 30
0.0
 11
48.7204
 21
68.4086
 31
0.0
  0
LINE
  8
0
 62
     5
 10
48.7204
 20
68.4086
 30
0.0
 11
48.7204
 21
67.8078
 31
0.0
  0
LINE
  8
0
 62
     5
 10
48.7204
 20
67.8078
 30
0.0
 11
62.72
 21
67.8078
 31
0.0
  0
LINE
  8
0
 62
     5
 10
62.72
 20
67.8078
 30
0.0
 11
62.72
 21
68.4086
 31
0.0
  0
LINE
  8
0
 62
     5
 10
62.72
 20
68.4086
 30
0.0
 11
63.5208
 21
68.4086
 31
0.0
  0
LINE
  8
0
 62
     5
 10
63.5208
 20
68.4086
 30
0.0
 11
63.5208
 21
81.2077
 31
0.0
  0
LINE
  8
0
 62
     5
 10
63.5208
 20
81.2077
 30
0.0
 11
62.72
 21
81.2077
 31
0.0
  0
LINE
  8
0
 62
     5
 10
62.72
 20
81.2077
 30
0.0
 11
62.72
 21
81.8085
 31
0.0
  0
LINE
  8
0
 62
     5
 10
62.72
 20
81.8085
 30
0.0
 11
48.7204
 21
81.8085
 31
0.0
  0
LINE
  8
0
 62
     5
 10
29.6706
 20
81.8085
 30
0.0
 11
29.6706
 21
81.2077
 31
0.0
  0
LINE
  8
0
 62
     5
 10
29.6706
 20
81.2077
 30
0.0
 11
28.8699
 21
81.2077
 31
0.0
  0
LINE
  8
0
 62
     5
 10
28.8699
 20
81.2077
 30
0.0
 11
28.8699
 21
68.4086
 31
0.0
  0
LINE
  8
0
 62
     5
 10
28.8699
 20
68.4086
 30
0.0
 11
29.6706
 21
68.4086
 31
0.0
  0
LINE
  8
0
 62
     5
 10
29.6706
 20
68.4086
 30
0.0
 11
29.6706
 21
67.8078
 31
0.0
  0
LINE
  8
0
 62
     5
 10
29.6706
 20
67.8078
 30
0.0
 11
43.67
 21
67.8078
 31
0.0
  0
LINE
  8
0
 62
     5
 10
43.67
 20
67.8078
 30
0.0
 11
43.67
 21
68.4086
 31
0.0
  0
LINE
  8
0
 62
     5
 10
43.67
 20
68.4086
 30
0.0
 11
44.4708
 21
68.4086
 31
0.0
  0
LINE
  8
0
 62
     5
 10
44.4708
 20
68.4086
 30
0.0
 11
44.4708
 21
81.2077
 31
0.0
  0
LINE
  8
0
 62
     5
 10
44.4708
 20
81.2077
 30
0.0
 11
43.67
 21
81.2077
 31
0.0
  0
LINE
  8
0
 62
     5
 10
43.67
 20
81.2077
 30
0.0
 11
43.67
 21
81.8085
 31
0.0
  0
LINE
  8
0
 62
     5
 10
43.67
 20
81.8085
 30
0.0
 11
29.6706
 21
81.8085
 31
0.0
  0
LINE
  8
0
 62
     5
 10
10.6192
 20
81.8085
 30
0.0
 11
10.6192
 21
81.2077
 31
0.0
  0
LINE
  8
0
 62
     5
 10
10.6192
 20
81.2077
 30
0.0
 11
9.81989
 21
81.2077
 31
0.0
  0
LINE
  8
0
 62
     5
 10
9.81989
 20
81.2077
 30
0.0
 11
9.81989
 21
68.4086
 31
0.0
  0
LINE
  8
0
 62
     5
 10
9.81989
 20
68.4086
 30
0.0
 11
10.6192
 21
68.4086
 31
0.0
  0
LINE
  8
0
 62
     5
 10
10.6192
 20
68.4086
 30
0.0
 11
10.6192
 21
67.8078
 31
0.0
  0
LINE
  8
0
 62
     5
 10
10.6192
 20
67.8078
 30
0.0
 11
24.62
 21
67.8078
 31
0.0
  0
LINE
  8
0
 62
     5
 10
24.62
 20
67.8078
 30
0.0
 11
24.62
 21
68.4086
 31
0.0
  0
LINE
  8
0
 62
     5
 10
24.62
 20
68.4086
 30
0.0
 11
25.4207
 21
68.4086
 31
0.0
  0
LINE
  8
0
 62
     5
 10
25.4207
 20
68.4086
 30
0.0
 11
25.4207
 21
81.2077
 31
0.0
  0
LINE
  8
0
 62
     5
 10
25.4207
 20
81.2077
 30
0.0
 11
24.62
 21
81.2077
 31
0.0
  0
LINE
  8
0
 62
     5
 10
24.62
 20
81.2077
 30
0.0
 11
24.62
 21
81.8085
 31
0.0
  0
LINE
  8
0
 62
     5
 10
24.62
 20
81.8085
 30
0.0
 11
10.6192
 21
81.8085
 31
0.0
  0
LINE
  8
0
 62
     5
 10
2.27101
 20
90.8308
 30
0.0
 11
1.97749
 21
90.6819
 31
0.0
  0
LINE
  8
0
 62
     5
 10
1.97749
 20
90.6819
 30
0.0
 11
1.74597
 21
90.4505
 31
0.0
  0
LINE
  8
0
 62
     5
 10
1.74597
 20
90.4505
 30
0.0
 11
1.59714
 21
90.1569
 31
0.0
  0
LINE
  8
0
 62
     5
 10
1.59714
 20
90.1569
 30
0.0
 11
1.54478
 21
89.8331
 31
0.0
  0
LINE
  8
0
 62
     5
 10
1.54478
 20
89.8331
 30
0.0
 11
1.59714
 21
89.5078
 31
0.0
  0
LINE
  8
0
 62
     5
 10
1.59714
 20
89.5078
 30
0.0
 11
1.74597
 21
89.2157
 31
0.0
  0
LINE
  8
0
 62
     5
 10
1.74597
 20
89.2157
 30
0.0
 11
1.97749
 21
88.9825
 31
0.0
  0
LINE
  8
0
 62
     5
 10
1.97749
 20
88.9825
 30
0.0
 11
2.27101
 21
88.834
 31
0.0
  0
LINE
  8
0
 62
     5
 10
2.27101
 20
88.834
 30
0.0
 11
2.59485
 21
88.7829
 31
0.0
  0
LINE
  8
0
 62
     5
 10
2.59485
 20
88.7829
 30
0.0
 11
2.92006
 21
88.834
 31
0.0
  0
LINE
  8
0
 62
     5
 10
2.92006
 20
88.834
 30
0.0
 11
3.21221
 21
88.9825
 31
0.0
  0
LINE
  8
0
 62
     5
 10
3.21221
 20
88.9825
 30
0.0
 11
3.4451
 21
89.2157
 31
0.0
  0
LINE
  8
0
 62
     5
 10
3.4451
 20
89.2157
 30
0.0
 11
3.59392
 21
89.5078
 31
0.0
  0
LINE
  8
0
 62
     5
 10
3.59392
 20
89.5078
 30
0.0
 11
3.6449
 21
89.8331
 31
0.0
  0
LINE
  8
0
 62
     5
 10
3.6449
 20
89.8331
 30
0.0
 11
3.59392
 21
90.1569
 31
0.0
  0
LINE
  8
0
 62
     5
 10
3.59392
 20
90.1569
 30
0.0
 11
3.4451
 21
90.4505
 31
0.0
  0
LINE
  8
0
 62
     5
 10
3.4451
 20
90.4505
 30
0.0
 11
3.21221
 21
90.6819
 31
0.0
  0
LINE
  8
0
 62
     5
 10
3.21221
 20
90.6819
 30
0.0
 11
2.92006
 21
90.8308
 31
0.0
  0
LINE
  8
0
 62
     5
 10
2.92006
 20
90.8308
 30
0.0
 11
2.59485
 21
90.8816
 31
0.0
  0
LINE
  8
0
 62
     5
 10
2.59485
 20
90.8816
 30
0.0
 11
2.27101
 21
90.8308
 31
0.0
  0
LINE
  8
0
 62
     5
 10
332.359
 20
90.8308
 30
0.0
 11
332.066
 21
90.6819
 31
0.0
  0
LINE
  8
0
 62
     5
 10
332.066
 20
90.6819
 30
0.0
 11
331.834
 21
90.4505
 31
0.0
  0
LINE
  8
0
 62
     5
 10
331.834
 20
90.4505
 30
0.0
 11
331.684
 21
90.1569
 31
0.0
  0
LINE
  8
0
 62
     5
 10
331.684
 20
90.1569
 30
0.0
 11
331.633
 21
89.8331
 31
0.0
  0
LINE
  8
0
 62
     5
 10
331.633
 20
89.8331
 30
0.0
 11
331.684
 21
89.5078
 31
0.0
  0
LINE
  8
0
 62
     5
 10
331.684
 20
89.5078
 30
0.0
 11
331.834
 21
89.2157
 31
0.0
  0
LINE
  8
0
 62
     5
 10
331.834
 20
89.2157
 30
0.0
 11
332.066
 21
88.9825
 31
0.0
  0
LINE
  8
0
 62
     5
 10
332.066
 20
88.9825
 30
0.0
 11
332.359
 21
88.834
 31
0.0
  0
LINE
  8
0
 62
     5
 10
332.359
 20
88.834
 30
0.0
 11
332.683
 21
88.7829
 31
0.0
  0
LINE
  8
0
 62
     5
 10
332.683
 20
88.7829
 30
0.0
 11
333.007
 21
88.834
 31
0.0
  0
LINE
  8
0
 62
     5
 10
333.007
 20
88.834
 30
0.0
 11
333.301
 21
88.9825
 31
0.0
  0
LINE
  8
0
 62
     5
 10
333.301
 20
88.9825
 30
0.0
 11
333.532
 21
89.2157
 31
0.0
  0
LINE
  8
0
 62
     5
 10
333.532
 20
89.2157
 30
0.0
 11
333.682
 21
89.5078
 31
0.0
  0
LINE
  8
0
 62
     5
 10
333.682
 20
89.5078
 30
0.0
 11
333.733
 21
89.8331
 31
0.0
  0
LINE
  8
0
 62
     5
 10
333.733
 20
89.8331
 30
0.0
 11
333.682
 21
90.1569
 31
0.0
  0
LINE
  8
0
 62
     5
 10
333.682
 20
90.1569
 30
0.0
 11
333.532
 21
90.4505
 31
0.0
  0
LINE
  8
0
 62
     5
 10
333.532
 20
90.4505
 30
0.0
 11
333.301
 21
90.6819
 31
0.0
  0
LINE
  8
0
 62
     5
 10
333.301
 20
90.6819
 30
0.0
 11
333.007
 21
90.8308
 31
0.0
  0
LINE
  8
0
 62
     5
 10
333.007
 20
90.8308
 30
0.0
 11
332.683
 21
90.8816
 31
0.0
  0
LINE
  8
0
 62
     5
 10
332.683
 20
90.8816
 30
0.0
 11
332.359
 21
90.8308
 31
0.0
  0
LINE
  8
0
 62
     5
 10
222.33
 20
90.8308
 30
0.0
 11
222.037
 21
90.6819
 31
0.0
  0
LINE
  8
0
 62
     5
 10
222.037
 20
90.6819
 30
0.0
 11
221.805
 21
90.4505
 31
0.0
  0
LINE
  8
0
 62
     5
 10
221.805
 20
90.4505
 30
0.0
 11
221.656
 21
90.1569
 31
0.0
  0
LINE
  8
0
 62
     5
 10
221.656
 20
90.1569
 30
0.0
 11
221.605
 21
89.8331
 31
0.0
  0
LINE
  8
0
 62
     5
 10
221.605
 20
89.8331
 30
0.0
 11
221.656
 21
89.5078
 31
0.0
  0
LINE
  8
0
 62
     5
 10
221.656
 20
89.5078
 30
0.0
 11
221.805
 21
89.2157
 31
0.0
  0
LINE
  8
0
 62
     5
 10
221.805
 20
89.2157
 30
0.0
 11
222.037
 21
88.9825
 31
0.0
  0
LINE
  8
0
 62
     5
 10
222.037
 20
88.9825
 30
0.0
 11
222.33
 21
88.834
 31
0.0
  0
LINE
  8
0
 62
     5
 10
222.33
 20
88.834
 30
0.0
 11
222.655
 21
88.7829
 31
0.0
  0
LINE
  8
0
 62
     5
 10
222.655
 20
88.7829
 30
0.0
 11
222.979
 21
88.834
 31
0.0
  0
LINE
  8
0
 62
     5
 10
222.979
 20
88.834
 30
0.0
 11
223.271
 21
88.9825
 31
0.0
  0
LINE
  8
0
 62
     5
 10
223.271
 20
88.9825
 30
0.0
 11
223.504
 21
89.2157
 31
0.0
  0
LINE
  8
0
 62
     5
 10
223.504
 20
89.2157
 30
0.0
 11
223.653
 21
89.5078
 31
0.0
  0
LINE
  8
0
 62
     5
 10
223.653
 20
89.5078
 30
0.0
 11
223.704
 21
89.8331
 31
0.0
  0
LINE
  8
0
 62
     5
 10
223.704
 20
89.8331
 30
0.0
 11
223.653
 21
90.1569
 31
0.0
  0
LINE
  8
0
 62
     5
 10
223.653
 20
90.1569
 30
0.0
 11
223.504
 21
90.4505
 31
0.0
  0
LINE
  8
0
 62
     5
 10
223.504
 20
90.4505
 30
0.0
 11
223.271
 21
90.6819
 31
0.0
  0
LINE
  8
0
 62
     5
 10
223.271
 20
90.6819
 30
0.0
 11
222.979
 21
90.8308
 31
0.0
  0
LINE
  8
0
 62
     5
 10
222.979
 20
90.8308
 30
0.0
 11
222.655
 21
90.8816
 31
0.0
  0
LINE
  8
0
 62
     5
 10
222.655
 20
90.8816
 30
0.0
 11
222.33
 21
90.8308
 31
0.0
  0
LINE
  8
0
 62
     5
 10
112.3
 20
90.8308
 30
0.0
 11
112.007
 21
90.6819
 31
0.0
  0
LINE
  8
0
 62
     5
 10
112.007
 20
90.6819
 30
0.0
 11
111.776
 21
90.4505
 31
0.0
  0
LINE
  8
0
 62
     5
 10
111.776
 20
90.4505
 30
0.0
 11
111.625
 21
90.1569
 31
0.0
  0
LINE
  8
0
 62
     5
 10
111.625
 20
90.1569
 30
0.0
 11
111.574
 21
89.8331
 31
0.0
  0
LINE
  8
0
 62
     5
 10
111.574
 20
89.8331
 30
0.0
 11
111.625
 21
89.5078
 31
0.0
  0
LINE
  8
0
 62
     5
 10
111.625
 20
89.5078
 30
0.0
 11
111.776
 21
89.2157
 31
0.0
  0
LINE
  8
0
 62
     5
 10
111.776
 20
89.2157
 30
0.0
 11
112.007
 21
88.9825
 31
0.0
  0
LINE
  8
0
 62
     5
 10
112.007
 20
88.9825
 30
0.0
 11
112.3
 21
88.834
 31
0.0
  0
LINE
  8
0
 62
     5
 10
112.3
 20
88.834
 30
0.0
 11
112.624
 21
88.7829
 31
0.0
  0
LINE
  8
0
 62
     5
 10
112.624
 20
88.7829
 30
0.0
 11
112.948
 21
88.834
 31
0.0
  0
LINE
  8
0
 62
     5
 10
112.948
 20
88.834
 30
0.0
 11
113.242
 21
88.9825
 31
0.0
  0
LINE
  8
0
 62
     5
 10
113.242
 20
88.9825
 30
0.0
 11
113.473
 21
89.2157
 31
0.0
  0
LINE
  8
0
 62
     5
 10
113.473
 20
89.2157
 30
0.0
 11
113.623
 21
89.5078
 31
0.0
  0
LINE
  8
0
 62
     5
 10
113.623
 20
89.5078
 30
0.0
 11
113.675
 21
89.8331
 31
0.0
  0
LINE
  8
0
 62
     5
 10
113.675
 20
89.8331
 30
0.0
 11
113.623
 21
90.1569
 31
0.0
  0
LINE
  8
0
 62
     5
 10
113.623
 20
90.1569
 30
0.0
 11
113.473
 21
90.4505
 31
0.0
  0
LINE
  8
0
 62
     5
 10
113.473
 20
90.4505
 30
0.0
 11
113.242
 21
90.6819
 31
0.0
  0
LINE
  8
0
 62
     5
 10
113.242
 20
90.6819
 30
0.0
 11
112.948
 21
90.8308
 31
0.0
  0
LINE
  8
0
 62
     5
 10
112.948
 20
90.8308
 30
0.0
 11
112.624
 21
90.8816
 31
0.0
  0
LINE
  8
0
 62
     5
 10
112.624
 20
90.8816
 30
0.0
 11
112.3
 21
90.8308
 31
0.0
  0
ENDSEC
  0
EOF
