  0
SECTION
  2
HEADER
  9
$ACADVER
  1
AC1009
  9
$EXTMIN
 10
0.0
 20
0.0
 30
0.0
  9
$EXTMAX
 10
1000.0
 20
1000.0
 30
0.0
  9
$FILLMODE
 70
 0
  9
$SPLFRAME
 70
 1
  0
ENDSEC
  0
SECTION
  2
TABLES
  0
TABLE
  2
LAYER
 70
1
  0
LAYER
  2
0
 70
     0
 62
     7
  6
CONTINUOUS
  0
ENDTAB
  0
ENDSEC
  0
SECTION
  2
ENTITIES
  0
LINE
  8
0
 62
     5
 10
333.183
 20
92.3325
 30
0.0
 11
333.34
 21
92.3258
 31
0.0
  0
LINE
  8
0
 62
     5
 10
333.34
 20
92.3258
 30
0.0
 11
333.496
 21
92.3078
 31
0.0
  0
LINE
  8
0
 62
     5
 10
333.496
 20
92.3078
 30
0.0
 11
333.651
 21
92.2775
 31
0.0
  0
LINE
  8
0
 62
     5
 10
333.651
 20
92.2775
 30
0.0
 11
333.801
 21
92.2348
 31
0.0
  0
LINE
  8
0
 62
     5
 10
333.801
 20
92.2348
 30
0.0
 11
333.948
 21
92.1798
 31
0.0
  0
LINE
  8
0
 62
     5
 10
333.948
 20
92.1798
 30
0.0
 11
334.091
 21
92.1149
 31
0.0
  0
LINE
  8
0
 62
     5
 10
334.091
 20
92.1149
 30
0.0
 11
334.228
 21
92.038
 31
0.0
  0
LINE
  8
0
 62
     5
 10
334.228
 20
92.038
 30
0.0
 11
334.359
 21
91.9508
 31
0.0
  0
LINE
  8
0
 62
     5
 10
334.359
 20
91.9508
 30
0.0
 11
334.483
 21
91.8531
 31
0.0
  0
LINE
  8
0
 62
     5
 10
334.483
 20
91.8531
 30
0.0
 11
334.597
 21
91.7469
 31
0.0
  0
LINE
  8
0
 62
     5
 10
334.597
 20
91.7469
 30
0.0
 11
334.705
 21
91.6312
 31
0.0
  0
LINE
  8
0
 62
     5
 10
334.705
 20
91.6312
 30
0.0
 11
334.801
 21
91.5088
 31
0.0
  0
LINE
  8
0
 62
     5
 10
334.801
 20
91.5088
 30
0.0
 11
334.888
 21
91.3776
 31
0.0
  0
LINE
  8
0
 62
     5
 10
334.888
 20
91.3776
 30
0.0
 11
334.965
 21
91.24
 31
0.0
  0
LINE
  8
0
 62
     5
 10
334.965
 20
91.24
 30
0.0
 11
335.031
 21
91.0978
 31
0.0
  0
LINE
  8
0
 62
     5
 10
335.031
 20
91.0978
 30
0.0
 11
335.085
 21
90.9518
 31
0.0
  0
LINE
  8
0
 62
     5
 10
335.085
 20
90.9518
 30
0.0
 11
335.128
 21
90.799
 31
0.0
  0
LINE
  8
0
 62
     5
 10
335.128
 20
90.799
 30
0.0
 11
335.158
 21
90.6459
 31
0.0
  0
LINE
  8
0
 62
     5
 10
335.158
 20
90.6459
 30
0.0
 11
335.177
 21
90.4889
 31
0.0
  0
LINE
  8
0
 62
     5
 10
335.177
 20
90.4889
 30
0.0
 11
335.183
 21
90.3319
 31
0.0
  0
LINE
  8
0
 62
     5
 10
335.183
 20
90.3319
 30
0.0
 11
335.183
 21
2.13183
 31
0.0
  0
LINE
  8
0
 62
     5
 10
335.183
 20
2.13183
 30
0.0
 11
335.177
 21
1.97473
 31
0.0
  0
LINE
  8
0
 62
     5
 10
335.177
 20
1.97473
 30
0.0
 11
335.158
 21
1.81901
 31
0.0
  0
LINE
  8
0
 62
     5
 10
335.158
 20
1.81901
 30
0.0
 11
335.128
 21
1.66467
 31
0.0
  0
LINE
  8
0
 62
     5
 10
335.128
 20
1.66467
 30
0.0
 11
335.085
 21
1.51309
 31
0.0
  0
LINE
  8
0
 62
     5
 10
335.085
 20
1.51309
 30
0.0
 11
335.031
 21
1.36563
 31
0.0
  0
LINE
  8
0
 62
     5
 10
335.031
 20
1.36563
 30
0.0
 11
334.965
 21
1.2237
 31
0.0
  0
LINE
  8
0
 62
     5
 10
334.965
 20
1.2237
 30
0.0
 11
334.888
 21
1.08727
 31
0.0
  0
LINE
  8
0
 62
     5
 10
334.888
 20
1.08727
 30
0.0
 11
334.801
 21
0.956359
 31
0.0
  0
LINE
  8
0
 62
     5
 10
334.801
 20
0.956359
 30
0.0
 11
334.705
 21
0.833713
 31
0.0
  0
LINE
  8
0
 62
     5
 10
334.705
 20
0.833713
 30
0.0
 11
334.597
 21
0.717959
 31
0.0
  0
LINE
  8
0
 62
     5
 10
334.597
 20
0.717959
 30
0.0
 11
334.483
 21
0.611851
 31
0.0
  0
LINE
  8
0
 62
     5
 10
334.483
 20
0.611851
 30
0.0
 11
334.359
 21
0.512632
 31
0.0
  0
LINE
  8
0
 62
     5
 10
334.359
 20
0.512632
 30
0.0
 11
334.228
 21
0.425813
 31
0.0
  0
LINE
  8
0
 62
     5
 10
334.228
 20
0.425813
 30
0.0
 11
334.091
 21
0.348644
 31
0.0
  0
LINE
  8
0
 62
     5
 10
334.091
 20
0.348644
 30
0.0
 11
333.948
 21
0.283876
 31
0.0
  0
LINE
  8
0
 62
     5
 10
333.948
 20
0.283876
 30
0.0
 11
333.801
 21
0.228755
 31
0.0
  0
LINE
  8
0
 62
     5
 10
333.801
 20
0.228755
 30
0.0
 11
333.651
 21
0.187413
 31
0.0
  0
LINE
  8
0
 62
     5
 10
333.651
 20
0.187413
 30
0.0
 11
333.496
 21
0.155718
 31
0.0
  0
LINE
  8
0
 62
     5
 10
333.496
 20
0.155718
 30
0.0
 11
333.34
 21
0.137804
 31
0.0
  0
LINE
  8
0
 62
     5
 10
333.34
 20
0.137804
 30
0.0
 11
333.183
 21
0.132292
 31
0.0
  0
LINE
  8
0
 62
     5
 10
333.183
 20
0.132292
 30
0.0
 11
2.096
 21
0.130914
 31
0.0
  0
LINE
  8
0
 62
     5
 10
2.096
 20
0.130914
 30
0.0
 11
1.9389
 21
0.137804
 31
0.0
  0
LINE
  8
0
 62
     5
 10
1.9389
 20
0.137804
 30
0.0
 11
1.7818
 21
0.155718
 31
0.0
  0
LINE
  8
0
 62
     5
 10
1.7818
 20
0.155718
 30
0.0
 11
1.62884
 21
0.187413
 31
0.0
  0
LINE
  8
0
 62
     5
 10
1.62884
 20
0.187413
 30
0.0
 11
1.47588
 21
0.228755
 31
0.0
  0
LINE
  8
0
 62
     5
 10
1.47588
 20
0.228755
 30
0.0
 11
1.32981
 21
0.283876
 31
0.0
  0
LINE
  8
0
 62
     5
 10
1.32981
 20
0.283876
 30
0.0
 11
1.18787
 21
0.348644
 31
0.0
  0
LINE
  8
0
 62
     5
 10
1.18787
 20
0.348644
 30
0.0
 11
1.05006
 21
0.425813
 31
0.0
  0
LINE
  8
0
 62
     5
 10
1.05006
 20
0.425813
 30
0.0
 11
0.919152
 21
0.512632
 31
0.0
  0
LINE
  8
0
 62
     5
 10
0.919152
 20
0.512632
 30
0.0
 11
0.796505
 21
0.611851
 31
0.0
  0
LINE
  8
0
 62
     5
 10
0.796505
 20
0.611851
 30
0.0
 11
0.680752
 21
0.717959
 31
0.0
  0
LINE
  8
0
 62
     5
 10
0.680752
 20
0.717959
 30
0.0
 11
0.574643
 21
0.833713
 31
0.0
  0
LINE
  8
0
 62
     5
 10
0.574643
 20
0.833713
 30
0.0
 11
0.4768
 21
0.956359
 31
0.0
  0
LINE
  8
0
 62
     5
 10
0.4768
 20
0.956359
 30
0.0
 11
0.389985
 21
1.08727
 31
0.0
  0
LINE
  8
0
 62
     5
 10
0.389985
 20
1.08727
 30
0.0
 11
0.312815
 21
1.2237
 31
0.0
  0
LINE
  8
0
 62
     5
 10
0.312815
 20
1.2237
 30
0.0
 11
0.248047
 21
1.36563
 31
0.0
  0
LINE
  8
0
 62
     5
 10
0.248047
 20
1.36563
 30
0.0
 11
0.192925
 21
1.51309
 31
0.0
  0
LINE
  8
0
 62
     5
 10
0.192925
 20
1.51309
 30
0.0
 11
0.150206
 21
1.66467
 31
0.0
  0
LINE
  8
0
 62
     5
 10
0.150206
 20
1.66467
 30
0.0
 11
0.119889
 21
1.81901
 31
0.0
  0
LINE
  8
0
 62
     5
 10
0.119889
 20
1.81901
 30
0.0
 11
0.101975
 21
1.97473
 31
0.0
  0
LINE
  8
0
 62
     5
 10
0.101975
 20
1.97473
 30
0.0
 11
0.0950846
 21
2.13183
 31
0.0
  0
LINE
  8
0
 62
     5
 10
0.0950846
 20
2.13183
 30
0.0
 11
0.0950846
 21
90.3319
 31
0.0
  0
LINE
  8
0
 62
     5
 10
0.0950846
 20
90.3319
 30
0.0
 11
0.101975
 21
90.4889
 31
0.0
  0
LINE
  8
0
 62
     5
 10
0.101975
 20
90.4889
 30
0.0
 11
0.119889
 21
90.6459
 31
0.0
  0
LINE
  8
0
 62
     5
 10
0.119889
 20
90.6459
 30
0.0
 11
0.150206
 21
90.799
 31
0.0
  0
LINE
  8
0
 62
     5
 10
0.150206
 20
90.799
 30
0.0
 11
0.192925
 21
90.9518
 31
0.0
  0
LINE
  8
0
 62
     5
 10
0.192925
 20
90.9518
 30
0.0
 11
0.248047
 21
91.0978
 31
0.0
  0
LINE
  8
0
 62
     5
 10
0.248047
 20
91.0978
 30
0.0
 11
0.312815
 21
91.24
 31
0.0
  0
LINE
  8
0
 62
     5
 10
0.312815
 20
91.24
 30
0.0
 11
0.389985
 21
91.3776
 31
0.0
  0
LINE
  8
0
 62
     5
 10
0.389985
 20
91.3776
 30
0.0
 11
0.4768
 21
91.5088
 31
0.0
  0
LINE
  8
0
 62
     5
 10
0.4768
 20
91.5088
 30
0.0
 11
0.574643
 21
91.6312
 31
0.0
  0
LINE
  8
0
 62
     5
 10
0.574643
 20
91.6312
 30
0.0
 11
0.680752
 21
91.7469
 31
0.0
  0
LINE
  8
0
 62
     5
 10
0.680752
 20
91.7469
 30
0.0
 11
0.796505
 21
91.8531
 31
0.0
  0
LINE
  8
0
 62
     5
 10
0.796505
 20
91.8531
 30
0.0
 11
0.919152
 21
91.9508
 31
0.0
  0
LINE
  8
0
 62
     5
 10
0.919152
 20
91.9508
 30
0.0
 11
1.05006
 21
92.038
 31
0.0
  0
LINE
  8
0
 62
     5
 10
1.05006
 20
92.038
 30
0.0
 11
1.18787
 21
92.1149
 31
0.0
  0
LINE
  8
0
 62
     5
 10
1.18787
 20
92.1149
 30
0.0
 11
1.32981
 21
92.1798
 31
0.0
  0
LINE
  8
0
 62
     5
 10
1.32981
 20
92.1798
 30
0.0
 11
1.47588
 21
92.2348
 31
0.0
  0
LINE
  8
0
 62
     5
 10
1.47588
 20
92.2348
 30
0.0
 11
1.62884
 21
92.2775
 31
0.0
  0
LINE
  8
0
 62
     5
 10
1.62884
 20
92.2775
 30
0.0
 11
1.7818
 21
92.3078
 31
0.0
  0
LINE
  8
0
 62
     5
 10
1.7818
 20
92.3078
 30
0.0
 11
1.9389
 21
92.3258
 31
0.0
  0
LINE
  8
0
 62
     5
 10
1.9389
 20
92.3258
 30
0.0
 11
2.096
 21
92.3325
 31
0.0
  0
LINE
  8
0
 62
     5
 10
2.096
 20
92.3325
 30
0.0
 11
333.183
 21
92.3325
 31
0.0
  0
LINE
  8
0
 62
     5
 10
2.27101
 20
3.62977
 30
0.0
 11
1.97749
 21
3.48093
 31
0.0
  0
LINE
  8
0
 62
     5
 10
1.97749
 20
3.48093
 30
0.0
 11
1.74597
 21
3.24942
 31
0.0
  0
LINE
  8
0
 62
     5
 10
1.74597
 20
3.24942
 30
0.0
 11
1.59714
 21
2.95589
 31
0.0
  0
LINE
  8
0
 62
     5
 10
1.59714
 20
2.95589
 30
0.0
 11
1.54478
 21
2.63067
 31
0.0
  0
LINE
  8
0
 62
     5
 10
1.54478
 20
2.63067
 30
0.0
 11
1.59714
 21
2.30684
 31
0.0
  0
LINE
  8
0
 62
     5
 10
1.59714
 20
2.30684
 30
0.0
 11
1.74597
 21
2.01469
 31
0.0
  0
LINE
  8
0
 62
     5
 10
1.74597
 20
2.01469
 30
0.0
 11
1.97749
 21
1.7818
 31
0.0
  0
LINE
  8
0
 62
     5
 10
1.97749
 20
1.7818
 30
0.0
 11
2.27101
 21
1.63298
 31
0.0
  0
LINE
  8
0
 62
     5
 10
2.27101
 20
1.63298
 30
0.0
 11
2.59485
 21
1.58061
 31
0.0
  0
LINE
  8
0
 62
     5
 10
2.59485
 20
1.58061
 30
0.0
 11
2.92006
 21
1.63298
 31
0.0
  0
LINE
  8
0
 62
     5
 10
2.92006
 20
1.63298
 30
0.0
 11
3.21221
 21
1.7818
 31
0.0
  0
LINE
  8
0
 62
     5
 10
3.21221
 20
1.7818
 30
0.0
 11
3.4451
 21
2.01469
 31
0.0
  0
LINE
  8
0
 62
     5
 10
3.4451
 20
2.01469
 30
0.0
 11
3.59392
 21
2.30684
 31
0.0
  0
LINE
  8
0
 62
     5
 10
3.59392
 20
2.30684
 30
0.0
 11
3.6449
 21
2.63067
 31
0.0
  0
LINE
  8
0
 62
     5
 10
3.6449
 20
2.63067
 30
0.0
 11
3.59392
 21
2.95589
 31
0.0
  0
LINE
  8
0
 62
     5
 10
3.59392
 20
2.95589
 30
0.0
 11
3.4451
 21
3.24942
 31
0.0
  0
LINE
  8
0
 62
     5
 10
3.4451
 20
3.24942
 30
0.0
 11
3.21221
 21
3.48093
 31
0.0
  0
LINE
  8
0
 62
     5
 10
3.21221
 20
3.48093
 30
0.0
 11
2.92006
 21
3.62977
 31
0.0
  0
LINE
  8
0
 62
     5
 10
2.92006
 20
3.62977
 30
0.0
 11
2.59485
 21
3.68074
 31
0.0
  0
LINE
  8
0
 62
     5
 10
2.59485
 20
3.68074
 30
0.0
 11
2.27101
 21
3.62977
 31
0.0
  0
LINE
  8
0
 62
     5
 10
112.3
 20
3.62977
 30
0.0
 11
112.007
 21
3.48093
 31
0.0
  0
LINE
  8
0
 62
     5
 10
112.007
 20
3.48093
 30
0.0
 11
111.776
 21
3.24942
 31
0.0
  0
LINE
  8
0
 62
     5
 10
111.776
 20
3.24942
 30
0.0
 11
111.625
 21
2.95589
 31
0.0
  0
LINE
  8
0
 62
     5
 10
111.625
 20
2.95589
 30
0.0
 11
111.574
 21
2.63067
 31
0.0
  0
LINE
  8
0
 62
     5
 10
111.574
 20
2.63067
 30
0.0
 11
111.625
 21
2.30684
 31
0.0
  0
LINE
  8
0
 62
     5
 10
111.625
 20
2.30684
 30
0.0
 11
111.776
 21
2.01469
 31
0.0
  0
LINE
  8
0
 62
     5
 10
111.776
 20
2.01469
 30
0.0
 11
112.007
 21
1.7818
 31
0.0
  0
LINE
  8
0
 62
     5
 10
112.007
 20
1.7818
 30
0.0
 11
112.3
 21
1.63298
 31
0.0
  0
LINE
  8
0
 62
     5
 10
112.3
 20
1.63298
 30
0.0
 11
112.624
 21
1.58061
 31
0.0
  0
LINE
  8
0
 62
     5
 10
112.624
 20
1.58061
 30
0.0
 11
112.948
 21
1.63298
 31
0.0
  0
LINE
  8
0
 62
     5
 10
112.948
 20
1.63298
 30
0.0
 11
113.242
 21
1.7818
 31
0.0
  0
LINE
  8
0
 62
     5
 10
113.242
 20
1.7818
 30
0.0
 11
113.473
 21
2.01469
 31
0.0
  0
LINE
  8
0
 62
     5
 10
113.473
 20
2.01469
 30
0.0
 11
113.623
 21
2.30684
 31
0.0
  0
LINE
  8
0
 62
     5
 10
113.623
 20
2.30684
 30
0.0
 11
113.675
 21
2.63067
 31
0.0
  0
LINE
  8
0
 62
     5
 10
113.675
 20
2.63067
 30
0.0
 11
113.623
 21
2.95589
 31
0.0
  0
LINE
  8
0
 62
     5
 10
113.623
 20
2.95589
 30
0.0
 11
113.473
 21
3.24942
 31
0.0
  0
LINE
  8
0
 62
     5
 10
113.473
 20
3.24942
 30
0.0
 11
113.242
 21
3.48093
 31
0.0
  0
LINE
  8
0
 62
     5
 10
113.242
 20
3.48093
 30
0.0
 11
112.948
 21
3.62977
 31
0.0
  0
LINE
  8
0
 62
     5
 10
112.948
 20
3.62977
 30
0.0
 11
112.624
 21
3.68074
 31
0.0
  0
LINE
  8
0
 62
     5
 10
112.624
 20
3.68074
 30
0.0
 11
112.3
 21
3.62977
 31
0.0
  0
LINE
  8
0
 62
     5
 10
222.33
 20
3.62977
 30
0.0
 11
222.037
 21
3.48093
 31
0.0
  0
LINE
  8
0
 62
     5
 10
222.037
 20
3.48093
 30
0.0
 11
221.805
 21
3.24942
 31
0.0
  0
LINE
  8
0
 62
     5
 10
221.805
 20
3.24942
 30
0.0
 11
221.656
 21
2.95589
 31
0.0
  0
LINE
  8
0
 62
     5
 10
221.656
 20
2.95589
 30
0.0
 11
221.605
 21
2.63067
 31
0.0
  0
LINE
  8
0
 62
     5
 10
221.605
 20
2.63067
 30
0.0
 11
221.656
 21
2.30684
 31
0.0
  0
LINE
  8
0
 62
     5
 10
221.656
 20
2.30684
 30
0.0
 11
221.805
 21
2.01469
 31
0.0
  0
LINE
  8
0
 62
     5
 10
221.805
 20
2.01469
 30
0.0
 11
222.037
 21
1.7818
 31
0.0
  0
LINE
  8
0
 62
     5
 10
222.037
 20
1.7818
 30
0.0
 11
222.33
 21
1.63298
 31
0.0
  0
LINE
  8
0
 62
     5
 10
222.33
 20
1.63298
 30
0.0
 11
222.655
 21
1.58061
 31
0.0
  0
LINE
  8
0
 62
     5
 10
222.655
 20
1.58061
 30
0.0
 11
222.979
 21
1.63298
 31
0.0
  0
LINE
  8
0
 62
     5
 10
222.979
 20
1.63298
 30
0.0
 11
223.271
 21
1.7818
 31
0.0
  0
LINE
  8
0
 62
     5
 10
223.271
 20
1.7818
 30
0.0
 11
223.504
 21
2.01469
 31
0.0
  0
LINE
  8
0
 62
     5
 10
223.504
 20
2.01469
 30
0.0
 11
223.653
 21
2.30684
 31
0.0
  0
LINE
  8
0
 62
     5
 10
223.653
 20
2.30684
 30
0.0
 11
223.704
 21
2.63067
 31
0.0
  0
LINE
  8
0
 62
     5
 10
223.704
 20
2.63067
 30
0.0
 11
223.653
 21
2.95589
 31
0.0
  0
LINE
  8
0
 62
     5
 10
223.653
 20
2.95589
 30
0.0
 11
223.504
 21
3.24942
 31
0.0
  0
LINE
  8
0
 62
     5
 10
223.504
 20
3.24942
 30
0.0
 11
223.271
 21
3.48093
 31
0.0
  0
LINE
  8
0
 62
     5
 10
223.271
 20
3.48093
 30
0.0
 11
222.979
 21
3.62977
 31
0.0
  0
LINE
  8
0
 62
     5
 10
222.979
 20
3.62977
 30
0.0
 11
222.655
 21
3.68074
 31
0.0
  0
LINE
  8
0
 62
     5
 10
222.655
 20
3.68074
 30
0.0
 11
222.33
 21
3.62977
 31
0.0
  0
LINE
  8
0
 62
     5
 10
332.359
 20
3.62977
 30
0.0
 11
332.066
 21
3.48093
 31
0.0
  0
LINE
  8
0
 62
     5
 10
332.066
 20
3.48093
 30
0.0
 11
331.834
 21
3.24942
 31
0.0
  0
LINE
  8
0
 62
     5
 10
331.834
 20
3.24942
 30
0.0
 11
331.684
 21
2.95589
 31
0.0
  0
LINE
  8
0
 62
     5
 10
331.684
 20
2.95589
 30
0.0
 11
331.633
 21
2.63067
 31
0.0
  0
LINE
  8
0
 62
     5
 10
331.633
 20
2.63067
 30
0.0
 11
331.684
 21
2.30684
 31
0.0
  0
LINE
  8
0
 62
     5
 10
331.684
 20
2.30684
 30
0.0
 11
331.834
 21
2.01469
 31
0.0
  0
LINE
  8
0
 62
     5
 10
331.834
 20
2.01469
 30
0.0
 11
332.066
 21
1.7818
 31
0.0
  0
LINE
  8
0
 62
     5
 10
332.066
 20
1.7818
 30
0.0
 11
332.359
 21
1.63298
 31
0.0
  0
LINE
  8
0
 62
     5
 10
332.359
 20
1.63298
 30
0.0
 11
332.683
 21
1.58061
 31
0.0
  0
LINE
  8
0
 62
     5
 10
332.683
 20
1.58061
 30
0.0
 11
333.007
 21
1.63298
 31
0.0
  0
LINE
  8
0
 62
     5
 10
333.007
 20
1.63298
 30
0.0
 11
333.301
 21
1.7818
 31
0.0
  0
LINE
  8
0
 62
     5
 10
333.301
 20
1.7818
 30
0.0
 11
333.532
 21
2.01469
 31
0.0
  0
LINE
  8
0
 62
     5
 10
333.532
 20
2.01469
 30
0.0
 11
333.682
 21
2.30684
 31
0.0
  0
LINE
  8
0
 62
     5
 10
333.682
 20
2.30684
 30
0.0
 11
333.733
 21
2.63067
 31
0.0
  0
LINE
  8
0
 62
     5
 10
333.733
 20
2.63067
 30
0.0
 11
333.682
 21
2.95589
 31
0.0
  0
LINE
  8
0
 62
     5
 10
333.682
 20
2.95589
 30
0.0
 11
333.532
 21
3.24942
 31
0.0
  0
LINE
  8
0
 62
     5
 10
333.532
 20
3.24942
 30
0.0
 11
333.301
 21
3.48093
 31
0.0
  0
LINE
  8
0
 62
     5
 10
333.301
 20
3.48093
 30
0.0
 11
333.007
 21
3.62977
 31
0.0
  0
LINE
  8
0
 62
     5
 10
333.007
 20
3.62977
 30
0.0
 11
332.683
 21
3.68074
 31
0.0
  0
LINE
  8
0
 62
     5
 10
332.683
 20
3.68074
 30
0.0
 11
332.359
 21
3.62977
 31
0.0
  0
LINE
  8
0
 62
     5
 10
5.09598
 20
87.3319
 30
0.0
 11
330.183
 21
87.3319
 31
0.0
  0
LINE
  8
0
 62
     5
 10
330.183
 20
87.3319
 30
0.0
 11
330.183
 21
5.13182
 31
0.0
  0
LINE
  8
0
 62
     5
 10
330.183
 20
5.13182
 30
0.0
 11
5.09598
 21
5.13182
 31
0.0
  0
LINE
  8
0
 62
     5
 10
5.09598
 20
5.13182
 30
0.0
 11
5.09598
 21
87.3319
 31
0.0
  0
LINE
  8
0
 62
     5
 10
2.27101
 20
90.8308
 30
0.0
 11
1.97749
 21
90.6819
 31
0.0
  0
LINE
  8
0
 62
     5
 10
1.97749
 20
90.6819
 30
0.0
 11
1.74597
 21
90.4505
 31
0.0
  0
LINE
  8
0
 62
     5
 10
1.74597
 20
90.4505
 30
0.0
 11
1.59714
 21
90.1569
 31
0.0
  0
LINE
  8
0
 62
     5
 10
1.59714
 20
90.1569
 30
0.0
 11
1.54478
 21
89.8331
 31
0.0
  0
LINE
  8
0
 62
     5
 10
1.54478
 20
89.8331
 30
0.0
 11
1.59714
 21
89.5078
 31
0.0
  0
LINE
  8
0
 62
     5
 10
1.59714
 20
89.5078
 30
0.0
 11
1.74597
 21
89.2157
 31
0.0
  0
LINE
  8
0
 62
     5
 10
1.74597
 20
89.2157
 30
0.0
 11
1.97749
 21
88.9825
 31
0.0
  0
LINE
  8
0
 62
     5
 10
1.97749
 20
88.9825
 30
0.0
 11
2.27101
 21
88.834
 31
0.0
  0
LINE
  8
0
 62
     5
 10
2.27101
 20
88.834
 30
0.0
 11
2.59485
 21
88.7829
 31
0.0
  0
LINE
  8
0
 62
     5
 10
2.59485
 20
88.7829
 30
0.0
 11
2.92006
 21
88.834
 31
0.0
  0
LINE
  8
0
 62
     5
 10
2.92006
 20
88.834
 30
0.0
 11
3.21221
 21
88.9825
 31
0.0
  0
LINE
  8
0
 62
     5
 10
3.21221
 20
88.9825
 30
0.0
 11
3.4451
 21
89.2157
 31
0.0
  0
LINE
  8
0
 62
     5
 10
3.4451
 20
89.2157
 30
0.0
 11
3.59392
 21
89.5078
 31
0.0
  0
LINE
  8
0
 62
     5
 10
3.59392
 20
89.5078
 30
0.0
 11
3.6449
 21
89.8331
 31
0.0
  0
LINE
  8
0
 62
     5
 10
3.6449
 20
89.8331
 30
0.0
 11
3.59392
 21
90.1569
 31
0.0
  0
LINE
  8
0
 62
     5
 10
3.59392
 20
90.1569
 30
0.0
 11
3.4451
 21
90.4505
 31
0.0
  0
LINE
  8
0
 62
     5
 10
3.4451
 20
90.4505
 30
0.0
 11
3.21221
 21
90.6819
 31
0.0
  0
LINE
  8
0
 62
     5
 10
3.21221
 20
90.6819
 30
0.0
 11
2.92006
 21
90.8308
 31
0.0
  0
LINE
  8
0
 62
     5
 10
2.92006
 20
90.8308
 30
0.0
 11
2.59485
 21
90.8816
 31
0.0
  0
LINE
  8
0
 62
     5
 10
2.59485
 20
90.8816
 30
0.0
 11
2.27101
 21
90.8308
 31
0.0
  0
LINE
  8
0
 62
     5
 10
332.359
 20
90.8308
 30
0.0
 11
332.066
 21
90.6819
 31
0.0
  0
LINE
  8
0
 62
     5
 10
332.066
 20
90.6819
 30
0.0
 11
331.834
 21
90.4505
 31
0.0
  0
LINE
  8
0
 62
     5
 10
331.834
 20
90.4505
 30
0.0
 11
331.684
 21
90.1569
 31
0.0
  0
LINE
  8
0
 62
     5
 10
331.684
 20
90.1569
 30
0.0
 11
331.633
 21
89.8331
 31
0.0
  0
LINE
  8
0
 62
     5
 10
331.633
 20
89.8331
 30
0.0
 11
331.684
 21
89.5078
 31
0.0
  0
LINE
  8
0
 62
     5
 10
331.684
 20
89.5078
 30
0.0
 11
331.834
 21
89.2157
 31
0.0
  0
LINE
  8
0
 62
     5
 10
331.834
 20
89.2157
 30
0.0
 11
332.066
 21
88.9825
 31
0.0
  0
LINE
  8
0
 62
     5
 10
332.066
 20
88.9825
 30
0.0
 11
332.359
 21
88.834
 31
0.0
  0
LINE
  8
0
 62
     5
 10
332.359
 20
88.834
 30
0.0
 11
332.683
 21
88.7829
 31
0.0
  0
LINE
  8
0
 62
     5
 10
332.683
 20
88.7829
 30
0.0
 11
333.007
 21
88.834
 31
0.0
  0
LINE
  8
0
 62
     5
 10
333.007
 20
88.834
 30
0.0
 11
333.301
 21
88.9825
 31
0.0
  0
LINE
  8
0
 62
     5
 10
333.301
 20
88.9825
 30
0.0
 11
333.532
 21
89.2157
 31
0.0
  0
LINE
  8
0
 62
     5
 10
333.532
 20
89.2157
 30
0.0
 11
333.682
 21
89.5078
 31
0.0
  0
LINE
  8
0
 62
     5
 10
333.682
 20
89.5078
 30
0.0
 11
333.733
 21
89.8331
 31
0.0
  0
LINE
  8
0
 62
     5
 10
333.733
 20
89.8331
 30
0.0
 11
333.682
 21
90.1569
 31
0.0
  0
LINE
  8
0
 62
     5
 10
333.682
 20
90.1569
 30
0.0
 11
333.532
 21
90.4505
 31
0.0
  0
LINE
  8
0
 62
     5
 10
333.532
 20
90.4505
 30
0.0
 11
333.301
 21
90.6819
 31
0.0
  0
LINE
  8
0
 62
     5
 10
333.301
 20
90.6819
 30
0.0
 11
333.007
 21
90.8308
 31
0.0
  0
LINE
  8
0
 62
     5
 10
333.007
 20
90.8308
 30
0.0
 11
332.683
 21
90.8816
 31
0.0
  0
LINE
  8
0
 62
     5
 10
332.683
 20
90.8816
 30
0.0
 11
332.359
 21
90.8308
 31
0.0
  0
LINE
  8
0
 62
     5
 10
222.33
 20
90.8308
 30
0.0
 11
222.037
 21
90.6819
 31
0.0
  0
LINE
  8
0
 62
     5
 10
222.037
 20
90.6819
 30
0.0
 11
221.805
 21
90.4505
 31
0.0
  0
LINE
  8
0
 62
     5
 10
221.805
 20
90.4505
 30
0.0
 11
221.656
 21
90.1569
 31
0.0
  0
LINE
  8
0
 62
     5
 10
221.656
 20
90.1569
 30
0.0
 11
221.605
 21
89.8331
 31
0.0
  0
LINE
  8
0
 62
     5
 10
221.605
 20
89.8331
 30
0.0
 11
221.656
 21
89.5078
 31
0.0
  0
LINE
  8
0
 62
     5
 10
221.656
 20
89.5078
 30
0.0
 11
221.805
 21
89.2157
 31
0.0
  0
LINE
  8
0
 62
     5
 10
221.805
 20
89.2157
 30
0.0
 11
222.037
 21
88.9825
 31
0.0
  0
LINE
  8
0
 62
     5
 10
222.037
 20
88.9825
 30
0.0
 11
222.33
 21
88.834
 31
0.0
  0
LINE
  8
0
 62
     5
 10
222.33
 20
88.834
 30
0.0
 11
222.655
 21
88.7829
 31
0.0
  0
LINE
  8
0
 62
     5
 10
222.655
 20
88.7829
 30
0.0
 11
222.979
 21
88.834
 31
0.0
  0
LINE
  8
0
 62
     5
 10
222.979
 20
88.834
 30
0.0
 11
223.271
 21
88.9825
 31
0.0
  0
LINE
  8
0
 62
     5
 10
223.271
 20
88.9825
 30
0.0
 11
223.504
 21
89.2157
 31
0.0
  0
LINE
  8
0
 62
     5
 10
223.504
 20
89.2157
 30
0.0
 11
223.653
 21
89.5078
 31
0.0
  0
LINE
  8
0
 62
     5
 10
223.653
 20
89.5078
 30
0.0
 11
223.704
 21
89.8331
 31
0.0
  0
LINE
  8
0
 62
     5
 10
223.704
 20
89.8331
 30
0.0
 11
223.653
 21
90.1569
 31
0.0
  0
LINE
  8
0
 62
     5
 10
223.653
 20
90.1569
 30
0.0
 11
223.504
 21
90.4505
 31
0.0
  0
LINE
  8
0
 62
     5
 10
223.504
 20
90.4505
 30
0.0
 11
223.271
 21
90.6819
 31
0.0
  0
LINE
  8
0
 62
     5
 10
223.271
 20
90.6819
 30
0.0
 11
222.979
 21
90.8308
 31
0.0
  0
LINE
  8
0
 62
     5
 10
222.979
 20
90.8308
 30
0.0
 11
222.655
 21
90.8816
 31
0.0
  0
LINE
  8
0
 62
     5
 10
222.655
 20
90.8816
 30
0.0
 11
222.33
 21
90.8308
 31
0.0
  0
LINE
  8
0
 62
     5
 10
112.3
 20
90.8308
 30
0.0
 11
112.007
 21
90.6819
 31
0.0
  0
LINE
  8
0
 62
     5
 10
112.007
 20
90.6819
 30
0.0
 11
111.776
 21
90.4505
 31
0.0
  0
LINE
  8
0
 62
     5
 10
111.776
 20
90.4505
 30
0.0
 11
111.625
 21
90.1569
 31
0.0
  0
LINE
  8
0
 62
     5
 10
111.625
 20
90.1569
 30
0.0
 11
111.574
 21
89.8331
 31
0.0
  0
LINE
  8
0
 62
     5
 10
111.574
 20
89.8331
 30
0.0
 11
111.625
 21
89.5078
 31
0.0
  0
LINE
  8
0
 62
     5
 10
111.625
 20
89.5078
 30
0.0
 11
111.776
 21
89.2157
 31
0.0
  0
LINE
  8
0
 62
     5
 10
111.776
 20
89.2157
 30
0.0
 11
112.007
 21
88.9825
 31
0.0
  0
LINE
  8
0
 62
     5
 10
112.007
 20
88.9825
 30
0.0
 11
112.3
 21
88.834
 31
0.0
  0
LINE
  8
0
 62
     5
 10
112.3
 20
88.834
 30
0.0
 11
112.624
 21
88.7829
 31
0.0
  0
LINE
  8
0
 62
     5
 10
112.624
 20
88.7829
 30
0.0
 11
112.948
 21
88.834
 31
0.0
  0
LINE
  8
0
 62
     5
 10
112.948
 20
88.834
 30
0.0
 11
113.242
 21
88.9825
 31
0.0
  0
LINE
  8
0
 62
     5
 10
113.242
 20
88.9825
 30
0.0
 11
113.473
 21
89.2157
 31
0.0
  0
LINE
  8
0
 62
     5
 10
113.473
 20
89.2157
 30
0.0
 11
113.623
 21
89.5078
 31
0.0
  0
LINE
  8
0
 62
     5
 10
113.623
 20
89.5078
 30
0.0
 11
113.675
 21
89.8331
 31
0.0
  0
LINE
  8
0
 62
     5
 10
113.675
 20
89.8331
 30
0.0
 11
113.623
 21
90.1569
 31
0.0
  0
LINE
  8
0
 62
     5
 10
113.623
 20
90.1569
 30
0.0
 11
113.473
 21
90.4505
 31
0.0
  0
LINE
  8
0
 62
     5
 10
113.473
 20
90.4505
 30
0.0
 11
113.242
 21
90.6819
 31
0.0
  0
LINE
  8
0
 62
     5
 10
113.242
 20
90.6819
 30
0.0
 11
112.948
 21
90.8308
 31
0.0
  0
LINE
  8
0
 62
     5
 10
112.948
 20
90.8308
 30
0.0
 11
112.624
 21
90.8816
 31
0.0
  0
LINE
  8
0
 62
     5
 10
112.624
 20
90.8816
 30
0.0
 11
112.3
 21
90.8308
 31
0.0
  0
ENDSEC
  0
EOF
