<?xml version="1.0"?>
<!-- Generated by SVGo -->
<svg width="345.089mm" height="102.202mm"
     viewBox="0.000 0.000 345.089 102.202"
     xmlns="http://www.w3.org/2000/svg" 
     xmlns:xlink="http://www.w3.org/1999/xlink">
<polygon points="338.089,5.001 338.246,5.007 338.402,5.025 338.556,5.056 338.707,5.098 338.854,5.153 338.997,5.218 339.134,5.295 339.265,5.382 339.388,5.480 339.503,5.586 339.610,5.702 339.707,5.825 339.794,5.956 339.871,6.093 339.937,6.235 339.991,6.382 340.034,6.534 340.064,6.688 340.083,6.844 340.089,7.001 340.089,95.202 340.083,95.358 340.064,95.514 340.034,95.668 339.991,95.820 339.937,95.967 339.871,96.109 339.794,96.246 339.707,96.377 339.610,96.500 339.503,96.616 339.388,96.722 339.265,96.820 339.134,96.907 338.997,96.984 338.854,97.049 338.707,97.104 338.556,97.146 338.402,97.177 338.246,97.195 338.089,97.201 7.001,97.202 6.844,97.195 6.688,97.177 6.534,97.146 6.382,97.104 6.235,97.049 6.093,96.984 5.956,96.907 5.825,96.820 5.702,96.722 5.586,96.616 5.480,96.500 5.382,96.377 5.295,96.246 5.218,96.109 5.153,95.967 5.098,95.820 5.056,95.668 5.025,95.514 5.007,95.358 5.000,95.202 5.001,7.001 5.007,6.844 5.025,6.688 5.056,6.534 5.098,6.382 5.153,6.235 5.218,6.093 5.295,5.956 5.382,5.825 5.480,5.702 5.586,5.586 5.702,5.480 5.825,5.382 5.956,5.295 6.093,5.218 6.235,5.153 6.382,5.098 6.534,5.056 6.688,5.025 6.844,5.007 7.001,5.000" style="fill:none;stroke-width:0.050000mm;stroke:blue"/>
<polygon points="7.176,93.703 6.883,93.852 6.651,94.084 6.502,94.377 6.450,94.702 6.502,95.026 6.651,95.319 6.883,95.551 7.176,95.700 7.501,95.752 7.825,95.700 8.118,95.551 8.350,95.319 8.499,95.026 8.551,94.702 8.499,94.377 8.350,94.084 8.118,93.852 7.825,93.703 7.501,93.652" style="fill:none;stroke-width:0.050000mm;stroke:blue"/>
<polygon points="117.206,93.703 116.913,93.852 116.681,94.084 116.531,94.377 116.480,94.702 116.531,95.026 116.681,95.319 116.913,95.551 117.206,95.700 117.530,95.752 117.854,95.700 118.147,95.551 118.379,95.319 118.529,95.026 118.580,94.702 118.529,94.377 118.379,94.084 118.147,93.852 117.854,93.703 117.530,93.652" style="fill:none;stroke-width:0.050000mm;stroke:blue"/>
<polygon points="227.235,93.703 226.942,93.852 226.710,94.084 226.561,94.377 226.510,94.702 226.561,95.026 226.710,95.319 226.942,95.551 227.235,95.700 227.560,95.752 227.884,95.700 228.177,95.551 228.409,95.319 228.558,95.026 228.610,94.702 228.558,94.377 228.409,94.084 228.177,93.852 227.884,93.703 227.560,93.652" style="fill:none;stroke-width:0.050000mm;stroke:blue"/>
<polygon points="337.265,93.703 336.972,93.852 336.740,94.084 336.590,94.377 336.539,94.702 336.590,95.026 336.740,95.319 336.972,95.551 337.265,95.700 337.589,95.752 337.913,95.700 338.206,95.551 338.438,95.319 338.588,95.026 338.639,94.702 338.588,94.377 338.438,94.084 338.206,93.852 337.913,93.703 337.589,93.652" style="fill:none;stroke-width:0.050000mm;stroke:blue"/>
<polygon points="7.176,6.502 6.883,6.651 6.651,6.883 6.502,7.176 6.450,7.501 6.502,7.825 6.651,8.118 6.883,8.350 7.176,8.499 7.501,8.551 7.825,8.499 8.118,8.350 8.350,8.118 8.499,7.825 8.551,7.501 8.499,7.176 8.350,6.883 8.118,6.651 7.825,6.502 7.501,6.451" style="fill:none;stroke-width:0.050000mm;stroke:blue"/>
<polygon points="337.265,6.502 336.972,6.651 336.740,6.883 336.590,7.176 336.539,7.501 336.590,7.825 336.740,8.118 336.972,8.350 337.265,8.499 337.589,8.551 337.913,8.499 338.206,8.350 338.438,8.118 338.588,7.825 338.639,7.501 338.588,7.176 338.438,6.883 338.206,6.651 337.913,6.502 337.589,6.451" style="fill:none;stroke-width:0.050000mm;stroke:blue"/>
<polygon points="227.235,6.502 226.942,6.651 226.710,6.883 226.561,7.176 226.510,7.501 226.561,7.825 226.710,8.118 226.942,8.350 227.235,8.499 227.560,8.551 227.884,8.499 228.177,8.350 228.409,8.118 228.558,7.825 228.610,7.501 228.558,7.176 228.409,6.883 228.177,6.651 227.884,6.502 227.560,6.451" style="fill:none;stroke-width:0.050000mm;stroke:blue"/>
<polygon points="117.206,6.502 116.913,6.651 116.681,6.883 116.531,7.176 116.480,7.501 116.531,7.825 116.681,8.118 116.913,8.350 117.206,8.499 117.530,8.551 117.854,8.499 118.147,8.350 118.379,8.118 118.529,7.825 118.580,7.501 118.529,7.176 118.379,6.883 118.147,6.651 117.854,6.502 117.530,6.451" style="fill:none;stroke-width:0.050000mm;stroke:blue"/>
</svg>
