<?xml version="1.0" standalone="no"?>
 <!DOCTYPE svg PUBLIC "-//W3C//DTD SVG 1.1//EN" 
 "http://www.w3.org/Graphics/SVG/1.1/DTD/svg11.dtd"> 
<svg xmlns="http://www.w3.org/2000/svg" version="1.1" 
    width="29.7002cm" height="21.0007cm" viewBox="0 0 116930 82680 ">
<title>SVG Picture created as augio_switchplate-F_SilkS.svg date 2020/04/28 20:42:29 </title>
  <desc>Picture generated by PCBNEW </desc>
<g style="fill:#000000; fill-opacity:1;stroke:#000000; stroke-opacity:1;
stroke-linecap:round; stroke-linejoin:round; "
 transform="translate(0 0) scale(1 1)">
</g>
<g style="fill:#000000; fill-opacity:0.0; 
stroke:#000000; stroke-width:-0.000393701; stroke-opacity:1; 
stroke-linecap:round; stroke-linejoin:round;">
</g>
<g style="fill:#000000; fill-opacity:0.0; 
stroke:#000000; stroke-width:39.3701; stroke-opacity:1; 
stroke-linecap:round; stroke-linejoin:round;">
</g>
<g style="fill:#000000; fill-opacity:0.0; 
stroke:#000000; stroke-width:59.0551; stroke-opacity:1; 
stroke-linecap:round; stroke-linejoin:round;">
<rect x="69685.9" y="65357.2" width="42519.7" height="12598.4" rx="0" />
</g>
<g style="fill:#000000; fill-opacity:0.0; 
stroke:#000000; stroke-width:39.3701; stroke-opacity:1; 
stroke-linecap:round; stroke-linejoin:round;">
</g>
<g style="fill:#000000; fill-opacity:0.0; 
stroke:#000000; stroke-width:59.0551; stroke-opacity:1; 
stroke-linecap:round; stroke-linejoin:round;">
<rect x="3937.01" y="3937.01" width="109056" height="74806" rx="0" />
</g>
<g style="fill:#000000; fill-opacity:0.0; 
stroke:#000000; stroke-width:39.3701; stroke-opacity:1; 
stroke-linecap:round; stroke-linejoin:round;">
</g>
<g style="fill:#000000; fill-opacity:0.0; 
stroke:#000000; stroke-width:59.0551; stroke-opacity:1; 
stroke-linecap:round; stroke-linejoin:round;">
<rect x="4724.41" y="4724.41" width="107481" height="73231.2" rx="0" />
</g>
<g style="fill:#000000; fill-opacity:0.0; 
stroke:#000000; stroke-width:39.3701; stroke-opacity:1; 
stroke-linecap:round; stroke-linejoin:round;">
</g>
<g style="fill:#000000; fill-opacity:0.0; 
stroke:#000000; stroke-width:59.0551; stroke-opacity:1; 
stroke-linecap:round; stroke-linejoin:round;">
<path d="M23622 4724
L23622 3937
" />
</g>
<g style="fill:#000000; fill-opacity:0.0; 
stroke:#000000; stroke-width:39.3701; stroke-opacity:1; 
stroke-linecap:round; stroke-linejoin:round;">
</g>
<g style="fill:#000000; fill-opacity:0.0; 
stroke:#000000; stroke-width:59.0551; stroke-opacity:1; 
stroke-linecap:round; stroke-linejoin:round;">
<path d="M43307 4724
L43307 3937
" />
</g>
<g style="fill:#000000; fill-opacity:0.0; 
stroke:#000000; stroke-width:39.3701; stroke-opacity:1; 
stroke-linecap:round; stroke-linejoin:round;">
</g>
<g style="fill:#000000; fill-opacity:0.0; 
stroke:#000000; stroke-width:59.0551; stroke-opacity:1; 
stroke-linecap:round; stroke-linejoin:round;">
<path d="M62992 4724
L62992 3937
" />
</g>
<g style="fill:#000000; fill-opacity:0.0; 
stroke:#000000; stroke-width:39.3701; stroke-opacity:1; 
stroke-linecap:round; stroke-linejoin:round;">
</g>
<g style="fill:#000000; fill-opacity:0.0; 
stroke:#000000; stroke-width:59.0551; stroke-opacity:1; 
stroke-linecap:round; stroke-linejoin:round;">
<path d="M82677 4724
L82677 3937
" />
</g>
<g style="fill:#000000; fill-opacity:0.0; 
stroke:#000000; stroke-width:39.3701; stroke-opacity:1; 
stroke-linecap:round; stroke-linejoin:round;">
</g>
<g style="fill:#000000; fill-opacity:0.0; 
stroke:#000000; stroke-width:59.0551; stroke-opacity:1; 
stroke-linecap:round; stroke-linejoin:round;">
<path d="M102362 4724
L102362 3937
" />
</g>
<g style="fill:#000000; fill-opacity:0.0; 
stroke:#000000; stroke-width:39.3701; stroke-opacity:1; 
stroke-linecap:round; stroke-linejoin:round;">
</g>
<g style="fill:#000000; fill-opacity:0.0; 
stroke:#000000; stroke-width:59.0551; stroke-opacity:1; 
stroke-linecap:round; stroke-linejoin:round;">
<path d="M14199 4562
L13906 4562
" />
<path d="M14052 4562
L14052 4050
L14004 4123
L13955 4172
L13906 4196
" />
</g>
<g style="fill:#000000; fill-opacity:0.0; 
stroke:#000000; stroke-width:39.3701; stroke-opacity:1; 
stroke-linecap:round; stroke-linejoin:round;">
</g>
<g style="fill:#000000; fill-opacity:0.0; 
stroke:#000000; stroke-width:59.0551; stroke-opacity:1; 
stroke-linecap:round; stroke-linejoin:round;">
<path d="M33591 4099
L33615 4074
L33664 4050
L33786 4050
L33835 4074
L33859 4099
L33884 4147
L33884 4196
L33859 4269
L33567 4562
L33884 4562
" />
</g>
<g style="fill:#000000; fill-opacity:0.0; 
stroke:#000000; stroke-width:39.3701; stroke-opacity:1; 
stroke-linecap:round; stroke-linejoin:round;">
</g>
<g style="fill:#000000; fill-opacity:0.0; 
stroke:#000000; stroke-width:59.0551; stroke-opacity:1; 
stroke-linecap:round; stroke-linejoin:round;">
<path d="M53252 4050
L53569 4050
L53398 4245
L53471 4245
L53520 4269
L53544 4294
L53569 4342
L53569 4464
L53544 4513
L53520 4537
L53471 4562
L53325 4562
L53276 4537
L53252 4513
" />
</g>
<g style="fill:#000000; fill-opacity:0.0; 
stroke:#000000; stroke-width:39.3701; stroke-opacity:1; 
stroke-linecap:round; stroke-linejoin:round;">
</g>
<g style="fill:#000000; fill-opacity:0.0; 
stroke:#000000; stroke-width:59.0551; stroke-opacity:1; 
stroke-linecap:round; stroke-linejoin:round;">
<path d="M73205 4221
L73205 4562
" />
<path d="M73083 4026
L72961 4391
L73278 4391
" />
</g>
<g style="fill:#000000; fill-opacity:0.0; 
stroke:#000000; stroke-width:39.3701; stroke-opacity:1; 
stroke-linecap:round; stroke-linejoin:round;">
</g>
<g style="fill:#000000; fill-opacity:0.0; 
stroke:#000000; stroke-width:59.0551; stroke-opacity:1; 
stroke-linecap:round; stroke-linejoin:round;">
<path d="M92914 4050
L92671 4050
L92646 4294
L92671 4269
L92719 4245
L92841 4245
L92890 4269
L92914 4294
L92939 4342
L92939 4464
L92914 4513
L92890 4537
L92841 4562
L92719 4562
L92671 4537
L92646 4513
" />
</g>
<g style="fill:#000000; fill-opacity:0.0; 
stroke:#000000; stroke-width:39.3701; stroke-opacity:1; 
stroke-linecap:round; stroke-linejoin:round;">
</g>
<g style="fill:#000000; fill-opacity:0.0; 
stroke:#000000; stroke-width:59.0551; stroke-opacity:1; 
stroke-linecap:round; stroke-linejoin:round;">
<path d="M112575 4050
L112477 4050
L112429 4074
L112404 4099
L112356 4172
L112331 4269
L112331 4464
L112356 4513
L112380 4537
L112429 4562
L112526 4562
L112575 4537
L112599 4513
L112624 4464
L112624 4342
L112599 4294
L112575 4269
L112526 4245
L112429 4245
L112380 4269
L112356 4294
L112331 4342
" />
</g>
<g style="fill:#000000; fill-opacity:0.0; 
stroke:#000000; stroke-width:39.3701; stroke-opacity:1; 
stroke-linecap:round; stroke-linejoin:round;">
</g>
<g style="fill:#000000; fill-opacity:0.0; 
stroke:#000000; stroke-width:59.0551; stroke-opacity:1; 
stroke-linecap:round; stroke-linejoin:round;">
<path d="M23622 77955
L23622 78742
" />
</g>
<g style="fill:#000000; fill-opacity:0.0; 
stroke:#000000; stroke-width:39.3701; stroke-opacity:1; 
stroke-linecap:round; stroke-linejoin:round;">
</g>
<g style="fill:#000000; fill-opacity:0.0; 
stroke:#000000; stroke-width:59.0551; stroke-opacity:1; 
stroke-linecap:round; stroke-linejoin:round;">
<path d="M43307 77955
L43307 78742
" />
</g>
<g style="fill:#000000; fill-opacity:0.0; 
stroke:#000000; stroke-width:39.3701; stroke-opacity:1; 
stroke-linecap:round; stroke-linejoin:round;">
</g>
<g style="fill:#000000; fill-opacity:0.0; 
stroke:#000000; stroke-width:59.0551; stroke-opacity:1; 
stroke-linecap:round; stroke-linejoin:round;">
<path d="M62992 77955
L62992 78742
" />
</g>
<g style="fill:#000000; fill-opacity:0.0; 
stroke:#000000; stroke-width:39.3701; stroke-opacity:1; 
stroke-linecap:round; stroke-linejoin:round;">
</g>
<g style="fill:#000000; fill-opacity:0.0; 
stroke:#000000; stroke-width:59.0551; stroke-opacity:1; 
stroke-linecap:round; stroke-linejoin:round;">
<path d="M82677 77955
L82677 78742
" />
</g>
<g style="fill:#000000; fill-opacity:0.0; 
stroke:#000000; stroke-width:39.3701; stroke-opacity:1; 
stroke-linecap:round; stroke-linejoin:round;">
</g>
<g style="fill:#000000; fill-opacity:0.0; 
stroke:#000000; stroke-width:59.0551; stroke-opacity:1; 
stroke-linecap:round; stroke-linejoin:round;">
<path d="M102362 77955
L102362 78742
" />
</g>
<g style="fill:#000000; fill-opacity:0.0; 
stroke:#000000; stroke-width:39.3701; stroke-opacity:1; 
stroke-linecap:round; stroke-linejoin:round;">
</g>
<g style="fill:#000000; fill-opacity:0.0; 
stroke:#000000; stroke-width:59.0551; stroke-opacity:1; 
stroke-linecap:round; stroke-linejoin:round;">
<path d="M14199 78580
L13906 78580
" />
<path d="M14052 78580
L14052 78069
L14004 78142
L13955 78190
L13906 78215
" />
</g>
<g style="fill:#000000; fill-opacity:0.0; 
stroke:#000000; stroke-width:39.3701; stroke-opacity:1; 
stroke-linecap:round; stroke-linejoin:round;">
</g>
<g style="fill:#000000; fill-opacity:0.0; 
stroke:#000000; stroke-width:59.0551; stroke-opacity:1; 
stroke-linecap:round; stroke-linejoin:round;">
<path d="M33591 78117
L33615 78093
L33664 78069
L33786 78069
L33835 78093
L33859 78117
L33884 78166
L33884 78215
L33859 78288
L33567 78580
L33884 78580
" />
</g>
<g style="fill:#000000; fill-opacity:0.0; 
stroke:#000000; stroke-width:39.3701; stroke-opacity:1; 
stroke-linecap:round; stroke-linejoin:round;">
</g>
<g style="fill:#000000; fill-opacity:0.0; 
stroke:#000000; stroke-width:59.0551; stroke-opacity:1; 
stroke-linecap:round; stroke-linejoin:round;">
<path d="M53252 78069
L53569 78069
L53398 78263
L53471 78263
L53520 78288
L53544 78312
L53569 78361
L53569 78483
L53544 78532
L53520 78556
L53471 78580
L53325 78580
L53276 78556
L53252 78532
" />
</g>
<g style="fill:#000000; fill-opacity:0.0; 
stroke:#000000; stroke-width:39.3701; stroke-opacity:1; 
stroke-linecap:round; stroke-linejoin:round;">
</g>
<g style="fill:#000000; fill-opacity:0.0; 
stroke:#000000; stroke-width:59.0551; stroke-opacity:1; 
stroke-linecap:round; stroke-linejoin:round;">
<path d="M73205 78239
L73205 78580
" />
<path d="M73083 78044
L72961 78410
L73278 78410
" />
</g>
<g style="fill:#000000; fill-opacity:0.0; 
stroke:#000000; stroke-width:39.3701; stroke-opacity:1; 
stroke-linecap:round; stroke-linejoin:round;">
</g>
<g style="fill:#000000; fill-opacity:0.0; 
stroke:#000000; stroke-width:59.0551; stroke-opacity:1; 
stroke-linecap:round; stroke-linejoin:round;">
<path d="M92914 78069
L92671 78069
L92646 78312
L92671 78288
L92719 78263
L92841 78263
L92890 78288
L92914 78312
L92939 78361
L92939 78483
L92914 78532
L92890 78556
L92841 78580
L92719 78580
L92671 78556
L92646 78532
" />
</g>
<g style="fill:#000000; fill-opacity:0.0; 
stroke:#000000; stroke-width:39.3701; stroke-opacity:1; 
stroke-linecap:round; stroke-linejoin:round;">
</g>
<g style="fill:#000000; fill-opacity:0.0; 
stroke:#000000; stroke-width:59.0551; stroke-opacity:1; 
stroke-linecap:round; stroke-linejoin:round;">
<path d="M112575 78069
L112477 78069
L112429 78093
L112404 78117
L112356 78190
L112331 78288
L112331 78483
L112356 78532
L112380 78556
L112429 78580
L112526 78580
L112575 78556
L112599 78532
L112624 78483
L112624 78361
L112599 78312
L112575 78288
L112526 78263
L112429 78263
L112380 78288
L112356 78312
L112331 78361
" />
</g>
<g style="fill:#000000; fill-opacity:0.0; 
stroke:#000000; stroke-width:39.3701; stroke-opacity:1; 
stroke-linecap:round; stroke-linejoin:round;">
</g>
<g style="fill:#000000; fill-opacity:0.0; 
stroke:#000000; stroke-width:59.0551; stroke-opacity:1; 
stroke-linecap:round; stroke-linejoin:round;">
<path d="M3937 23622
L4724 23622
" />
</g>
<g style="fill:#000000; fill-opacity:0.0; 
stroke:#000000; stroke-width:39.3701; stroke-opacity:1; 
stroke-linecap:round; stroke-linejoin:round;">
</g>
<g style="fill:#000000; fill-opacity:0.0; 
stroke:#000000; stroke-width:59.0551; stroke-opacity:1; 
stroke-linecap:round; stroke-linejoin:round;">
<path d="M3937 43307
L4724 43307
" />
</g>
<g style="fill:#000000; fill-opacity:0.0; 
stroke:#000000; stroke-width:39.3701; stroke-opacity:1; 
stroke-linecap:round; stroke-linejoin:round;">
</g>
<g style="fill:#000000; fill-opacity:0.0; 
stroke:#000000; stroke-width:59.0551; stroke-opacity:1; 
stroke-linecap:round; stroke-linejoin:round;">
<path d="M3937 62992
L4724 62992
" />
</g>
<g style="fill:#000000; fill-opacity:0.0; 
stroke:#000000; stroke-width:39.3701; stroke-opacity:1; 
stroke-linecap:round; stroke-linejoin:round;">
</g>
<g style="fill:#000000; fill-opacity:0.0; 
stroke:#000000; stroke-width:59.0551; stroke-opacity:1; 
stroke-linecap:round; stroke-linejoin:round;">
<path d="M4208 13864
L4452 13864
" />
<path d="M4160 14011
L4330 13499
L4501 14011
" />
</g>
<g style="fill:#000000; fill-opacity:0.0; 
stroke:#000000; stroke-width:39.3701; stroke-opacity:1; 
stroke-linecap:round; stroke-linejoin:round;">
</g>
<g style="fill:#000000; fill-opacity:0.0; 
stroke:#000000; stroke-width:59.0551; stroke-opacity:1; 
stroke-linecap:round; stroke-linejoin:round;">
<path d="M4367 33428
L4440 33452
L4464 33476
L4489 33525
L4489 33598
L4464 33647
L4440 33671
L4391 33696
L4196 33696
L4196 33184
L4367 33184
L4416 33208
L4440 33233
L4464 33281
L4464 33330
L4440 33379
L4416 33403
L4367 33428
L4196 33428
" />
</g>
<g style="fill:#000000; fill-opacity:0.0; 
stroke:#000000; stroke-width:39.3701; stroke-opacity:1; 
stroke-linecap:round; stroke-linejoin:round;">
</g>
<g style="fill:#000000; fill-opacity:0.0; 
stroke:#000000; stroke-width:59.0551; stroke-opacity:1; 
stroke-linecap:round; stroke-linejoin:round;">
<path d="M4489 53332
L4464 53356
L4391 53381
L4342 53381
L4269 53356
L4221 53308
L4196 53259
L4172 53161
L4172 53088
L4196 52991
L4221 52942
L4269 52893
L4342 52869
L4391 52869
L4464 52893
L4489 52918
" />
</g>
<g style="fill:#000000; fill-opacity:0.0; 
stroke:#000000; stroke-width:39.3701; stroke-opacity:1; 
stroke-linecap:round; stroke-linejoin:round;">
</g>
<g style="fill:#000000; fill-opacity:0.0; 
stroke:#000000; stroke-width:59.0551; stroke-opacity:1; 
stroke-linecap:round; stroke-linejoin:round;">
<path d="M4196 73066
L4196 72554
L4318 72554
L4391 72578
L4440 72627
L4464 72676
L4489 72773
L4489 72846
L4464 72944
L4440 72993
L4391 73041
L4318 73066
L4196 73066
" />
</g>
<g style="fill:#000000; fill-opacity:0.0; 
stroke:#000000; stroke-width:39.3701; stroke-opacity:1; 
stroke-linecap:round; stroke-linejoin:round;">
</g>
<g style="fill:#000000; fill-opacity:0.0; 
stroke:#000000; stroke-width:59.0551; stroke-opacity:1; 
stroke-linecap:round; stroke-linejoin:round;">
<path d="M112992 23622
L112205 23622
" />
</g>
<g style="fill:#000000; fill-opacity:0.0; 
stroke:#000000; stroke-width:39.3701; stroke-opacity:1; 
stroke-linecap:round; stroke-linejoin:round;">
</g>
<g style="fill:#000000; fill-opacity:0.0; 
stroke:#000000; stroke-width:59.0551; stroke-opacity:1; 
stroke-linecap:round; stroke-linejoin:round;">
<path d="M112992 43307
L112205 43307
" />
</g>
<g style="fill:#000000; fill-opacity:0.0; 
stroke:#000000; stroke-width:39.3701; stroke-opacity:1; 
stroke-linecap:round; stroke-linejoin:round;">
</g>
<g style="fill:#000000; fill-opacity:0.0; 
stroke:#000000; stroke-width:59.0551; stroke-opacity:1; 
stroke-linecap:round; stroke-linejoin:round;">
<path d="M112992 62992
L112205 62992
" />
</g>
<g style="fill:#000000; fill-opacity:0.0; 
stroke:#000000; stroke-width:39.3701; stroke-opacity:1; 
stroke-linecap:round; stroke-linejoin:round;">
</g>
<g style="fill:#000000; fill-opacity:0.0; 
stroke:#000000; stroke-width:59.0551; stroke-opacity:1; 
stroke-linecap:round; stroke-linejoin:round;">
<path d="M112477 13864
L112721 13864
" />
<path d="M112428 14011
L112599 13499
L112769 14011
" />
</g>
<g style="fill:#000000; fill-opacity:0.0; 
stroke:#000000; stroke-width:39.3701; stroke-opacity:1; 
stroke-linecap:round; stroke-linejoin:round;">
</g>
<g style="fill:#000000; fill-opacity:0.0; 
stroke:#000000; stroke-width:59.0551; stroke-opacity:1; 
stroke-linecap:round; stroke-linejoin:round;">
<path d="M112635 33428
L112708 33452
L112733 33476
L112757 33525
L112757 33598
L112733 33647
L112708 33671
L112660 33696
L112465 33696
L112465 33184
L112635 33184
L112684 33208
L112708 33233
L112733 33281
L112733 33330
L112708 33379
L112684 33403
L112635 33428
L112465 33428
" />
</g>
<g style="fill:#000000; fill-opacity:0.0; 
stroke:#000000; stroke-width:39.3701; stroke-opacity:1; 
stroke-linecap:round; stroke-linejoin:round;">
</g>
<g style="fill:#000000; fill-opacity:0.0; 
stroke:#000000; stroke-width:59.0551; stroke-opacity:1; 
stroke-linecap:round; stroke-linejoin:round;">
<path d="M112757 53332
L112733 53356
L112660 53381
L112611 53381
L112538 53356
L112489 53308
L112465 53259
L112440 53161
L112440 53088
L112465 52991
L112489 52942
L112538 52893
L112611 52869
L112660 52869
L112733 52893
L112757 52918
" />
</g>
<g style="fill:#000000; fill-opacity:0.0; 
stroke:#000000; stroke-width:39.3701; stroke-opacity:1; 
stroke-linecap:round; stroke-linejoin:round;">
</g>
<g style="fill:#000000; fill-opacity:0.0; 
stroke:#000000; stroke-width:59.0551; stroke-opacity:1; 
stroke-linecap:round; stroke-linejoin:round;">
<path d="M112465 73066
L112465 72554
L112587 72554
L112660 72578
L112708 72627
L112733 72676
L112757 72773
L112757 72846
L112733 72944
L112708 72993
L112660 73041
L112587 73066
L112465 73066
" />
</g>
<g style="fill:#000000; fill-opacity:0.0; 
stroke:#000000; stroke-width:39.3701; stroke-opacity:1; 
stroke-linecap:round; stroke-linejoin:round;">
</g>
<g style="fill:#000000; fill-opacity:0.0; 
stroke:#000000; stroke-width:59.0551; stroke-opacity:1; 
stroke-linecap:round; stroke-linejoin:round;">
<path d="M78911 76293
L78911 75703
L79051 75703
L79136 75731
L79192 75787
L79220 75843
L79248 75956
L79248 76040
L79220 76153
L79192 76209
L79136 76265
L79051 76293
L78911 76293
" />
<path d="M79754 76293
L79754 75984
L79726 75928
L79670 75899
L79557 75899
L79501 75928
" />
<path d="M79754 76265
L79698 76293
L79557 76293
L79501 76265
L79473 76209
L79473 76153
L79501 76096
L79557 76068
L79698 76068
L79754 76040
" />
<path d="M79951 75899
L80176 75899
" />
<path d="M80036 75703
L80036 76209
L80064 76265
L80120 76293
L80176 76293
" />
<path d="M80598 76265
L80542 76293
L80429 76293
L80373 76265
L80345 76209
L80345 75984
L80373 75928
L80429 75899
L80542 75899
L80598 75928
L80626 75984
L80626 76040
L80345 76096
" />
<path d="M80879 76237
L80907 76265
L80879 76293
L80851 76265
L80879 76237
L80879 76293
" />
<path d="M80879 75928
L80907 75956
L80879 75984
L80851 75956
L80879 75928
L80879 75984
" />
</g>
<g style="fill:#000000; fill-opacity:0.0; 
stroke:#000000; stroke-width:39.3701; stroke-opacity:1; 
stroke-linecap:round; stroke-linejoin:round;">
</g>
<g style="fill:#000000; fill-opacity:0.0; 
stroke:#000000; stroke-width:59.0551; stroke-opacity:1; 
stroke-linecap:round; stroke-linejoin:round;">
<path d="M69685 76577
L112205 76577
" />
</g>
<g style="fill:#000000; fill-opacity:0.0; 
stroke:#000000; stroke-width:39.3701; stroke-opacity:1; 
stroke-linecap:round; stroke-linejoin:round;">
</g>
<g style="fill:#000000; fill-opacity:0.0; 
stroke:#000000; stroke-width:59.0551; stroke-opacity:1; 
stroke-linecap:round; stroke-linejoin:round;">
<path d="M70249 77395
L70249 76805
" />
<path d="M70587 77395
L70334 77058
" />
<path d="M70587 76805
L70249 77142
" />
<path d="M70840 77395
L70840 77002
" />
<path d="M70840 76805
L70812 76833
L70840 76861
L70868 76833
L70840 76805
L70840 76861
" />
<path d="M71458 77339
L71430 77367
L71346 77395
L71290 77395
L71205 77367
L71149 77311
L71121 77255
L71093 77142
L71093 77058
L71121 76946
L71149 76889
L71205 76833
L71290 76805
L71346 76805
L71430 76833
L71458 76861
" />
<path d="M71965 77395
L71965 77086
L71937 77030
L71880 77002
L71768 77002
L71712 77030
" />
<path d="M71965 77367
L71908 77395
L71768 77395
L71712 77367
L71683 77311
L71683 77255
L71712 77199
L71768 77171
L71908 77171
L71965 77142
" />
<path d="M72499 77395
L72499 76805
" />
<path d="M72499 77367
L72443 77395
L72330 77395
L72274 77367
L72246 77339
L72218 77283
L72218 77114
L72246 77058
L72274 77030
L72330 77002
L72443 77002
L72499 77030
" />
<path d="M73230 77086
L73427 77086
" />
<path d="M73511 77395
L73230 77395
L73230 76805
L73511 76805
" />
<path d="M73764 77339
L73793 77367
L73764 77395
L73736 77367
L73764 77339
L73764 77395
" />
<path d="M74046 77395
L74046 76805
L74186 76805
L74271 76833
L74327 76889
L74355 76946
L74383 77058
L74383 77142
L74355 77255
L74327 77311
L74271 77367
L74186 77395
L74046 77395
" />
<path d="M74636 77339
L74664 77367
L74636 77395
L74608 77367
L74636 77339
L74636 77395
" />
<path d="M74889 77227
L75171 77227
" />
<path d="M74833 77395
L75030 76805
L75227 77395
" />
<path d="M75424 77339
L75452 77367
L75424 77395
L75395 77367
L75424 77339
L75424 77395
" />
<path d="M76605 77395
L76605 76805
" />
<path d="M76661 77171
L76830 77395
" />
<path d="M76830 77002
L76605 77227
" />
<path d="M77083 77395
L77083 77002
" />
<path d="M77083 76805
L77055 76833
L77083 76861
L77111 76833
L77083 76805
L77083 76861
" />
<path d="M77617 77367
L77561 77395
L77448 77395
L77392 77367
L77364 77339
L77336 77283
L77336 77114
L77364 77058
L77392 77030
L77448 77002
L77561 77002
L77617 77030
" />
<path d="M78123 77395
L78123 77086
L78095 77030
L78039 77002
L77926 77002
L77870 77030
" />
<path d="M78123 77367
L78067 77395
L77926 77395
L77870 77367
L77842 77311
L77842 77255
L77870 77199
L77926 77171
L78067 77171
L78123 77142
" />
<path d="M78658 77395
L78658 76805
" />
<path d="M78658 77367
L78601 77395
L78489 77395
L78433 77367
L78404 77339
L78376 77283
L78376 77114
L78404 77058
L78433 77030
L78489 77002
L78601 77002
L78658 77030
" />
<path d="M79557 77620
L79529 77592
L79473 77508
L79445 77452
L79417 77367
L79389 77227
L79389 77114
L79417 76974
L79445 76889
L79473 76833
L79529 76749
L79557 76721
" />
<path d="M80064 76805
L79782 76805
L79754 77086
L79782 77058
L79839 77030
L79979 77030
L80036 77058
L80064 77086
L80092 77142
L80092 77283
L80064 77339
L80036 77367
L79979 77395
L79839 77395
L79782 77367
L79754 77339
" />
<path d="M80345 77339
L80373 77367
L80345 77395
L80317 77367
L80345 77339
L80345 77395
" />
<path d="M80935 77395
L80598 77395
" />
<path d="M80767 77395
L80767 76805
L80710 76889
L80654 76946
L80598 76974
" />
<path d="M81188 77339
L81217 77367
L81188 77395
L81160 77367
L81188 77339
L81188 77395
" />
<path d="M81723 77002
L81723 77395
" />
<path d="M81582 76777
L81442 77199
L81807 77199
" />
<path d="M81976 77620
L82004 77592
L82060 77508
L82088 77452
L82117 77367
L82145 77227
L82145 77114
L82117 76974
L82088 76889
L82060 76833
L82004 76749
L81976 76721
" />
<path d="M82426 77171
L82876 77171
" />
<path d="M83466 77395
L83129 77395
" />
<path d="M83298 77395
L83298 76805
L83241 76889
L83185 76946
L83129 76974
" />
</g>
<g style="fill:#000000; fill-opacity:0.0; 
stroke:#000000; stroke-width:39.3701; stroke-opacity:1; 
stroke-linecap:round; stroke-linejoin:round;">
</g>
<g style="fill:#000000; fill-opacity:0.0; 
stroke:#000000; stroke-width:59.0551; stroke-opacity:1; 
stroke-linecap:round; stroke-linejoin:round;">
<path d="M69685 75396
L112205 75396
" />
</g>
<g style="fill:#000000; fill-opacity:0.0; 
stroke:#000000; stroke-width:39.3701; stroke-opacity:1; 
stroke-linecap:round; stroke-linejoin:round;">
</g>
<g style="fill:#000000; fill-opacity:0.0; 
stroke:#000000; stroke-width:118.11; stroke-opacity:1; 
stroke-linecap:round; stroke-linejoin:round;">
<path d="M104099 76293
L103902 76012
" />
<path d="M103761 76293
L103761 75703
L103986 75703
L104042 75731
L104070 75759
L104099 75815
L104099 75899
L104070 75956
L104042 75984
L103986 76012
L103761 76012
" />
<path d="M104577 76265
L104520 76293
L104408 76293
L104352 76265
L104323 76209
L104323 75984
L104352 75928
L104408 75899
L104520 75899
L104577 75928
L104605 75984
L104605 76040
L104323 76096
" />
<path d="M104802 75899
L104942 76293
L105083 75899
" />
<path d="M105308 76237
L105336 76265
L105308 76293
L105280 76265
L105308 76237
L105308 76293
" />
<path d="M105308 75928
L105336 75956
L105308 75984
L105280 75956
L105308 75928
L105308 75984
" />
</g>
<g style="fill:#000000; fill-opacity:0.0; 
stroke:#000000; stroke-width:39.3701; stroke-opacity:1; 
stroke-linecap:round; stroke-linejoin:round;">
</g>
<g style="fill:#000000; fill-opacity:0.0; 
stroke:#000000; stroke-width:59.0551; stroke-opacity:1; 
stroke-linecap:round; stroke-linejoin:round;">
<path d="M70221 76265
L70305 76293
L70446 76293
L70502 76265
L70530 76237
L70559 76181
L70559 76124
L70530 76068
L70502 76040
L70446 76012
L70334 75984
L70277 75956
L70249 75928
L70221 75871
L70221 75815
L70249 75759
L70277 75731
L70334 75703
L70474 75703
L70559 75731
" />
<path d="M70812 76293
L70812 75899
" />
<path d="M70812 75703
L70784 75731
L70812 75759
L70840 75731
L70812 75703
L70812 75759
" />
<path d="M71037 75899
L71346 75899
L71037 76293
L71346 76293
" />
<path d="M71796 76265
L71740 76293
L71627 76293
L71571 76265
L71543 76209
L71543 75984
L71571 75928
L71627 75899
L71740 75899
L71796 75928
L71824 75984
L71824 76040
L71543 76096
" />
<path d="M72077 76237
L72105 76265
L72077 76293
L72049 76265
L72077 76237
L72077 76293
" />
<path d="M72077 75928
L72105 75956
L72077 75984
L72049 75956
L72077 75928
L72077 75984
" />
<path d="M72780 76124
L73061 76124
" />
<path d="M72724 76293
L72921 75703
L73118 76293
" />
<path d="M73568 75899
L73568 76293
" />
<path d="M73427 75674
L73286 76096
L73652 76096
" />
</g>
<g style="fill:#000000; fill-opacity:0.0; 
stroke:#000000; stroke-width:39.3701; stroke-opacity:1; 
stroke-linecap:round; stroke-linejoin:round;">
</g>
<g style="fill:#000000; fill-opacity:0.0; 
stroke:#000000; stroke-width:59.0551; stroke-opacity:1; 
stroke-linecap:round; stroke-linejoin:round;">
<path d="M103714 77395
L103714 76805
" />
<path d="M104248 77395
L104248 76805
" />
<path d="M104248 77367
L104192 77395
L104079 77395
L104023 77367
L103995 77339
L103967 77283
L103967 77114
L103995 77058
L104023 77030
L104079 77002
L104192 77002
L104248 77030
" />
<path d="M104529 77339
L104557 77367
L104529 77395
L104501 77367
L104529 77339
L104529 77395
" />
<path d="M104529 77030
L104557 77058
L104529 77086
L104501 77058
L104529 77030
L104529 77086
" />
<path d="M105570 77395
L105232 77395
" />
<path d="M105401 77395
L105401 76805
L105345 76889
L105289 76946
L105232 76974
" />
<path d="M106245 76777
L105739 77536
" />
<path d="M106751 77395
L106413 77395
" />
<path d="M106582 77395
L106582 76805
L106526 76889
L106470 76946
L106413 76974
" />
</g>
<g style="fill:#000000; fill-opacity:0.0; 
stroke:#000000; stroke-width:39.3701; stroke-opacity:1; 
stroke-linecap:round; stroke-linejoin:round;">
</g>
<g style="fill:#000000; fill-opacity:0.0; 
stroke:#000000; stroke-width:59.0551; stroke-opacity:1; 
stroke-linecap:round; stroke-linejoin:round;">
<path d="M69685 73821
L112205 73821
" />
</g>
<g style="fill:#000000; fill-opacity:0.0; 
stroke:#000000; stroke-width:39.3701; stroke-opacity:1; 
stroke-linecap:round; stroke-linejoin:round;">
</g>
<g style="fill:#000000; fill-opacity:0.0; 
stroke:#000000; stroke-width:157.48; stroke-opacity:1; 
stroke-linecap:round; stroke-linejoin:round;">
<path d="M70360 74099
L70810 74099
" />
<path d="M70486 74886
L70585 74099
" />
<path d="M70974 74886
L71039 74361
" />
<path d="M71072 74099
L71030 74136
L71063 74174
L71105 74136
L71072 74099
L71063 74174
" />
<path d="M71302 74361
L71602 74361
" />
<path d="M71447 74099
L71363 74774
L71391 74849
L71461 74886
L71536 74886
" />
<path d="M71911 74886
L71841 74849
L71813 74774
L71897 74099
" />
<path d="M72516 74849
L72436 74886
L72286 74886
L72216 74849
L72187 74774
L72225 74474
L72272 74399
L72352 74361
L72501 74361
L72572 74399
L72600 74474
L72591 74549
L72206 74624
" />
<path d="M72895 74811
L72928 74849
L72886 74886
L72853 74849
L72895 74811
L72886 74886
" />
<path d="M72947 74399
L72980 74436
L72937 74474
L72905 74436
L72947 74399
L72937 74474
" />
</g>
<g style="fill:#000000; fill-opacity:0.0; 
stroke:#000000; stroke-width:39.3701; stroke-opacity:1; 
stroke-linecap:round; stroke-linejoin:round;">
</g>
<g style="fill:#000000; fill-opacity:0.0; 
stroke:#000000; stroke-width:59.0551; stroke-opacity:1; 
stroke-linecap:round; stroke-linejoin:round;">
<path d="M70446 73070
L70249 73070
" />
<path d="M70249 73380
L70249 72789
L70530 72789
" />
<path d="M70755 73380
L70755 72986
" />
<path d="M70755 72789
L70727 72817
L70755 72845
L70784 72817
L70755 72789
L70755 72845
" />
<path d="M71121 73380
L71065 73352
L71037 73295
L71037 72789
" />
<path d="M71571 73352
L71515 73380
L71402 73380
L71346 73352
L71318 73295
L71318 73070
L71346 73014
L71402 72986
L71515 72986
L71571 73014
L71599 73070
L71599 73127
L71318 73183
" />
<path d="M71852 73323
L71880 73352
L71852 73380
L71824 73352
L71852 73323
L71852 73380
" />
<path d="M71852 73014
L71880 73042
L71852 73070
L71824 73042
L71852 73014
L71852 73070
" />
<path d="M72836 73380
L72836 73070
L72808 73014
L72752 72986
L72640 72986
L72583 73014
" />
<path d="M72836 73352
L72780 73380
L72640 73380
L72583 73352
L72555 73295
L72555 73239
L72583 73183
L72640 73155
L72780 73155
L72836 73127
" />
<path d="M73371 72986
L73371 73380
" />
<path d="M73118 72986
L73118 73295
L73146 73352
L73202 73380
L73286 73380
L73343 73352
L73371 73323
" />
<path d="M73905 72986
L73905 73464
L73877 73520
L73849 73548
L73793 73577
L73708 73577
L73652 73548
" />
<path d="M73905 73352
L73849 73380
L73736 73380
L73680 73352
L73652 73323
L73624 73267
L73624 73099
L73652 73042
L73680 73014
L73736 72986
L73849 72986
L73905 73014
" />
<path d="M74186 73380
L74186 72986
" />
<path d="M74186 72789
L74158 72817
L74186 72845
L74214 72817
L74186 72789
L74186 72845
" />
<path d="M74552 73380
L74496 73352
L74467 73323
L74439 73267
L74439 73099
L74467 73042
L74496 73014
L74552 72986
L74636 72986
L74692 73014
L74721 73042
L74749 73099
L74749 73267
L74721 73323
L74692 73352
L74636 73380
L74552 73380
" />
<path d="M74861 73436
L75311 73436
" />
<path d="M75424 73352
L75480 73380
L75592 73380
L75649 73352
L75677 73295
L75677 73267
L75649 73211
L75592 73183
L75508 73183
L75452 73155
L75424 73099
L75424 73070
L75452 73014
L75508 72986
L75592 72986
L75649 73014
" />
<path d="M75874 72986
L75986 73380
L76099 73099
L76211 73380
L76323 72986
" />
<path d="M76548 73380
L76548 72986
" />
<path d="M76548 72789
L76520 72817
L76548 72845
L76577 72817
L76548 72789
L76548 72845
" />
<path d="M76745 72986
L76970 72986
" />
<path d="M76830 72789
L76830 73295
L76858 73352
L76914 73380
L76970 73380
" />
<path d="M77420 73352
L77364 73380
L77251 73380
L77195 73352
L77167 73323
L77139 73267
L77139 73099
L77167 73042
L77195 73014
L77251 72986
L77364 72986
L77420 73014
" />
<path d="M77673 73380
L77673 72789
" />
<path d="M77926 73380
L77926 73070
L77898 73014
L77842 72986
L77758 72986
L77701 73014
L77673 73042
" />
<path d="M78208 72986
L78208 73577
" />
<path d="M78208 73014
L78264 72986
L78376 72986
L78433 73014
L78461 73042
L78489 73099
L78489 73267
L78461 73323
L78433 73352
L78376 73380
L78264 73380
L78208 73352
" />
<path d="M78826 73380
L78770 73352
L78742 73295
L78742 72789
" />
<path d="M79304 73380
L79304 73070
L79276 73014
L79220 72986
L79108 72986
L79051 73014
" />
<path d="M79304 73352
L79248 73380
L79108 73380
L79051 73352
L79023 73295
L79023 73239
L79051 73183
L79108 73155
L79248 73155
L79304 73127
" />
<path d="M79501 72986
L79726 72986
" />
<path d="M79586 72789
L79586 73295
L79614 73352
L79670 73380
L79726 73380
" />
<path d="M80148 73352
L80092 73380
L79979 73380
L79923 73352
L79895 73295
L79895 73070
L79923 73014
L79979 72986
L80092 72986
L80148 73014
L80176 73070
L80176 73127
L79895 73183
" />
<path d="M80429 73323
L80457 73352
L80429 73380
L80401 73352
L80429 73323
L80429 73380
" />
<path d="M80710 73380
L80710 72789
" />
<path d="M80767 73155
L80935 73380
" />
<path d="M80935 72986
L80710 73211
" />
<path d="M81188 73380
L81188 72986
" />
<path d="M81188 72789
L81160 72817
L81188 72845
L81217 72817
L81188 72789
L81188 72845
" />
<path d="M81723 73352
L81667 73380
L81554 73380
L81498 73352
L81470 73323
L81442 73267
L81442 73099
L81470 73042
L81498 73014
L81554 72986
L81667 72986
L81723 73014
" />
<path d="M82229 73380
L82229 73070
L82201 73014
L82145 72986
L82032 72986
L81976 73014
" />
<path d="M82229 73352
L82173 73380
L82032 73380
L81976 73352
L81948 73295
L81948 73239
L81976 73183
L82032 73155
L82173 73155
L82229 73127
" />
<path d="M82763 73380
L82763 72789
" />
<path d="M82763 73352
L82707 73380
L82595 73380
L82538 73352
L82510 73323
L82482 73267
L82482 73099
L82510 73042
L82538 73014
L82595 72986
L82707 72986
L82763 73014
" />
<path d="M82904 73436
L83354 73436
" />
<path d="M83494 72986
L83494 73577
" />
<path d="M83494 73014
L83551 72986
L83663 72986
L83719 73014
L83748 73042
L83776 73099
L83776 73267
L83748 73323
L83719 73352
L83663 73380
L83551 73380
L83494 73352
" />
<path d="M84282 73352
L84226 73380
L84113 73380
L84057 73352
L84029 73323
L84001 73267
L84001 73099
L84029 73042
L84057 73014
L84113 72986
L84226 72986
L84282 73014
" />
<path d="M84535 73380
L84535 72789
" />
<path d="M84535 73014
L84591 72986
L84704 72986
L84760 73014
L84788 73042
L84816 73099
L84816 73267
L84788 73323
L84760 73352
L84704 73380
L84591 73380
L84535 73352
" />
</g>
<g style="fill:#000000; fill-opacity:0.0; 
stroke:#000000; stroke-width:39.3701; stroke-opacity:1; 
stroke-linecap:round; stroke-linejoin:round;">
</g>
<g style="fill:#000000; fill-opacity:0.0; 
stroke:#000000; stroke-width:59.0551; stroke-opacity:1; 
stroke-linecap:round; stroke-linejoin:round;">
<path d="M69685 71459
L112205 71459
" />
</g>
<g style="fill:#000000; fill-opacity:0.0; 
stroke:#000000; stroke-width:39.3701; stroke-opacity:1; 
stroke-linecap:round; stroke-linejoin:round;">
</g>
<g style="fill:#000000; fill-opacity:0.0; 
stroke:#000000; stroke-width:59.0551; stroke-opacity:1; 
stroke-linecap:round; stroke-linejoin:round;">
<path d="M70221 72289
L70305 72317
L70446 72317
L70502 72289
L70530 72260
L70559 72204
L70559 72148
L70530 72092
L70502 72064
L70446 72036
L70334 72007
L70277 71979
L70249 71951
L70221 71895
L70221 71839
L70249 71782
L70277 71754
L70334 71726
L70474 71726
L70559 71754
" />
<path d="M70812 72317
L70812 71726
" />
<path d="M71065 72317
L71065 72007
L71037 71951
L70980 71923
L70896 71923
L70840 71951
L70812 71979
" />
<path d="M71571 72289
L71515 72317
L71402 72317
L71346 72289
L71318 72232
L71318 72007
L71346 71951
L71402 71923
L71515 71923
L71571 71951
L71599 72007
L71599 72064
L71318 72120
" />
<path d="M72077 72289
L72021 72317
L71908 72317
L71852 72289
L71824 72232
L71824 72007
L71852 71951
L71908 71923
L72021 71923
L72077 71951
L72105 72007
L72105 72064
L71824 72120
" />
<path d="M72274 71923
L72499 71923
" />
<path d="M72358 71726
L72358 72232
L72386 72289
L72443 72317
L72499 72317
" />
<path d="M72696 72260
L72724 72289
L72696 72317
L72668 72289
L72696 72260
L72696 72317
" />
<path d="M72696 71951
L72724 71979
L72696 72007
L72668 71979
L72696 71951
L72696 72007
" />
</g>
<g style="fill:#000000; fill-opacity:0.0; 
stroke:#000000; stroke-width:39.3701; stroke-opacity:1; 
stroke-linecap:round; stroke-linejoin:round;">
</g>
<g style="fill:#000000; fill-opacity:0.0; 
stroke:#000000; stroke-width:59.0551; stroke-opacity:1; 
stroke-linecap:round; stroke-linejoin:round;">
<path d="M77559 75396
L77559 76577
" />
</g>
<g style="fill:#000000; fill-opacity:0.0; 
stroke:#000000; stroke-width:39.3701; stroke-opacity:1; 
stroke-linecap:round; stroke-linejoin:round;">
</g>
<g style="fill:#000000; fill-opacity:0.0; 
stroke:#000000; stroke-width:59.0551; stroke-opacity:1; 
stroke-linecap:round; stroke-linejoin:round;">
<path d="M102756 75396
L102756 77955
" />
</g>
<g style="fill:#008484; fill-opacity:0.0; 
stroke:#008484; stroke-width:59.0551; stroke-opacity:1; 
stroke-linecap:round; stroke-linejoin:round;">
</g>
<g style="fill:#008484; fill-opacity:1.0; 
stroke:#008484; stroke-width:3.93701; stroke-opacity:1; 
stroke-linecap:round; stroke-linejoin:round;">
<path style="fill:#008484; fill-opacity:1.0; 
stroke:#008484; stroke-width:3.93701; stroke-opacity:1; 
stroke-linecap:round; stroke-linejoin:round;fill-rule:evenodd;"
d="M 80172,44375
80123,44518
80050,44629
79995,44660
79909,44673
79811,44668
79726,44647
79620,44583
79529,44485
79464,44366
79455,44338
79429,44236
79422,44155
79436,44071
79457,43997
79518,43871
79608,43783
79721,43735
79779,43733
79779,43898
79621,43898
79610,43979
79600,44103
79602,44226
79614,44334
79636,44415
79654,44446
79722,44488
79813,44496
79909,44470
79918,44466
79981,44408
80018,44317
80029,44205
80011,44081
79975,43979
79952,43935
79925,43911
79880,43901
79803,43898
79779,43898
79779,43733
79850,43731
79973,43767
80058,43816
80116,43884
80139,43928
80182,44065
80192,44219
80172,44375
Z" /> 
<path style="fill:#008484; fill-opacity:1.0; 
stroke:#008484; stroke-width:3.93701; stroke-opacity:1; 
stroke-linecap:round; stroke-linejoin:round;fill-rule:evenodd;"
d="M 80961,33917
80941,33991
80916,34068
80885,34152
80858,34201
80826,34225
80785,34236
80711,34237
80622,34224
80593,34217
80481,34184
80473,33982
80472,33871
80479,33800
80494,33760
80502,33751
80543,33742
80600,33746
80600,33828
80576,33856
80569,33922
80568,33973
80571,34060
80582,34112
80607,34145
80628,34161
80700,34183
80771,34162
80826,34103
80840,34071
80855,33988
80831,33927
80763,33879
80735,33867
80650,33834
80600,33828
80600,33746
80615,33747
80704,33763
80797,33787
80880,33816
80942,33846
80968,33872
80968,33874
80961,33917
Z" /> 
<path style="fill:#008484; fill-opacity:1.0; 
stroke:#008484; stroke-width:3.93701; stroke-opacity:1; 
stroke-linecap:round; stroke-linejoin:round;fill-rule:evenodd;"
d="M 81647,41935
81639,42061
81632,42117
81614,42223
81167,42223
81023,42222
80896,42219
80796,42213
80730,42207
80707,42200
80694,42164
80678,42096
80668,42046
80649,41959
80625,41902
80586,41869
80522,41853
80422,41848
80362,41848
80246,41852
80112,41863
79973,41879
79840,41898
79725,41919
79642,41940
79612,41952
79576,41998
79573,42081
79603,42201
79610,42222
79632,42298
79640,42358
79637,42377
79607,42405
79544,42437
79486,42458
79412,42477
79311,42497
79194,42516
79072,42533
78955,42546
78854,42555
78779,42559
78742,42554
78740,42553
78719,42504
78700,42412
78684,42286
78671,42131
78661,41956
78655,41769
78654,41575
78657,41384
78664,41202
78669,41139
78678,41023
78687,40926
78695,40859
78701,40832
78733,40821
78805,40808
78907,40793
79028,40779
79159,40766
79224,40760
79443,40744
79443,40814
79453,40883
79477,40966
79486,40988
79528,41091
79917,41123
80145,41139
80329,41145
80473,41140
80581,41123
80659,41094
80712,41050
80743,40992
80752,40960
80770,40874
80788,40794
80790,40786
80808,40711
81150,40719
81150,40854
81043,40858
81020,40860
80947,40873
80908,40891
80889,40929
80879,40981
80837,41092
80756,41187
80649,41255
80605,41270
80523,41287
80428,41295
80311,41294
80163,41284
79976,41265
79943,41261
79809,41246
79680,41234
79571,41226
79501,41223
79372,41223
79355,41061
79339,40952
79313,40887
79271,40859
79205,40862
79133,40882
79040,40906
78950,40921
78913,40923
78824,40923
78799,41267
78788,41448
78782,41634
78780,41816
78783,41986
78789,42134
78800,42252
78814,42331
78818,42343
78842,42396
78873,42415
78929,42409
78940,42407
79009,42399
79109,42392
79218,42388
79231,42388
79431,42386
79432,42161
79433,42055
79435,41966
79437,41907
79438,41895
79466,41863
79537,41831
79645,41802
79784,41775
79945,41753
80124,41736
80312,41726
80474,41723
80732,41723
80764,41842
80784,41924
80798,41994
80801,42015
80807,42040
80825,42060
80862,42075
80926,42086
81022,42097
81159,42108
81221,42113
81354,42119
81439,42116
81477,42104
81478,42103
81494,42051
81505,41963
81511,41853
81512,41734
81506,41621
81495,41527
81493,41519
81477,41415
81465,41287
81459,41159
81458,41141
81454,41024
81445,40949
81430,40909
81419,40899
81356,40876
81260,40860
81150,40854
81150,40719
81182,40720
81313,40723
81425,40727
81509,40731
81556,40734
81563,40735
81568,40761
81578,40827
81591,40923
81606,41041
81609,41064
81625,41231
81638,41414
81646,41600
81649,41777
81647,41935
Z" /> 
<path style="fill:#008484; fill-opacity:1.0; 
stroke:#008484; stroke-width:3.93701; stroke-opacity:1; 
stroke-linecap:round; stroke-linejoin:round;fill-rule:evenodd;"
d="M 81667,33612
81657,33739
81643,33881
81626,34031
81607,34178
81587,34316
81567,34435
81553,34503
81531,34592
81511,34644
81485,34671
81446,34685
81435,34687
81391,34698
81306,34720
81186,34752
81038,34792
80869,34837
80686,34887
80631,34902
80385,34968
80146,35029
79919,35086
79709,35136
79522,35179
79364,35212
79240,35236
79157,35247
79136,35248
79122,35242
79151,35225
79215,35199
79309,35166
79426,35129
79560,35088
79705,35047
79854,35006
80002,34968
80141,34934
80203,34921
80471,34861
80695,34806
80880,34754
81032,34703
81155,34650
81256,34594
81339,34532
81411,34463
81421,34451
81500,34344
81552,34226
81582,34087
81590,33917
81587,33803
81576,33660
81561,33562
81542,33512
81539,33509
81503,33489
81425,33457
81311,33415
81168,33364
81002,33308
80818,33247
80624,33184
80425,33120
80227,33059
80037,33001
79861,32950
79704,32906
79593,32877
79379,32824
79188,32780
79024,32744
78891,32719
78795,32704
78740,32701
78729,32704
78722,32735
78717,32805
78714,32901
78712,33013
78713,33129
78716,33238
78720,33328
78726,33382
78743,33457
78769,33502
78821,33535
78858,33552
78925,33576
79027,33606
79152,33638
79286,33669
79303,33673
79508,33720
79668,33766
79792,33814
79886,33865
79955,33922
79956,33924
80000,33975
80011,34014
79997,34064
79995,34070
79958,34142
79911,34199
79848,34242
79761,34273
79645,34295
79492,34310
79297,34321
79281,34321
79098,34330
78960,34340
78858,34354
78786,34375
78738,34404
78707,34445
78686,34499
78677,34536
78656,34661
78647,34796
78650,34926
78663,35034
78678,35083
78735,35174
78820,35229
78938,35251
78955,35252
79015,35254
79036,35257
79015,35262
78950,35272
78895,35279
78799,35291
78739,35294
78703,35285
78676,35264
78664,35249
78615,35161
78577,35039
78553,34898
78544,34753
78554,34621
78560,34586
78593,34466
78630,34367
78669,34297
78694,34273
78734,34263
78814,34253
78926,34243
79061,34234
79187,34227
79357,34219
79486,34210
79581,34200
79651,34187
79703,34171
79730,34159
79792,34124
79831,34092
79836,34084
79828,34039
79789,33977
79731,33910
79664,33853
79630,33831
79558,33801
79455,33769
79343,33741
79318,33736
79126,33698
78978,33666
78865,33636
78783,33608
78724,33579
78691,33555
78618,33494
78618,33147
78620,33008
78625,32876
78633,32764
78643,32686
78644,32678
78663,32605
78684,32570
78714,32562
78726,32563
78774,32569
78858,32580
78962,32592
79018,32599
79304,32642
79608,32705
79935,32790
80289,32898
80677,33030
81095,33186
81252,33246
81392,33301
81511,33347
81600,33382
81653,33404
81666,33409
81672,33439
81672,33509
81667,33612
Z" /> 
<path style="fill:#008484; fill-opacity:1.0; 
stroke:#008484; stroke-width:3.93701; stroke-opacity:1; 
stroke-linecap:round; stroke-linejoin:round;fill-rule:evenodd;"
d="M 81594,39617
81535,39841
81478,39969
81427,40070
81387,40140
81349,40184
81301,40207
81235,40215
81139,40210
81004,40200
80996,40199
80811,40181
80670,40157
80576,40128
80528,40094
80525,40065
80573,39927
80601,39814
80614,39709
80615,39593
80614,39563
80607,39451
80594,39371
80569,39305
80531,39236
80430,39118
80299,39030
80147,38971
79984,38942
79818,38944
79660,38978
79518,39044
79403,39143
79382,39168
79339,39261
79321,39378
79329,39501
79363,39612
79366,39619
79401,39680
79428,39718
79435,39723
79480,39699
79529,39630
79580,39520
79606,39446
79661,39306
79719,39211
79788,39154
79874,39129
79965,39129
80051,39142
80111,39168
80154,39219
80189,39303
80210,39371
80233,39498
80242,39657
80238,39831
80221,40003
80192,40158
80165,40246
80118,40354
80063,40429
79988,40481
79880,40521
79818,40538
79607,40567
79401,40550
79204,40488
79022,40385
78859,40243
78719,40066
78607,39857
78556,39720
78513,39548
78487,39367
78479,39194
78492,39048
78492,39048
78559,38809
78665,38601
78808,38425
78985,38283
79194,38177
79434,38107
79703,38075
79789,38073
79818,38075
79818,38319
79537,38344
79276,38402
79043,38491
78974,38528
78890,38582
78831,38643
78778,38729
78767,38751
78672,38991
78626,39240
78628,39493
78643,39599
78706,39808
78806,39995
78940,40153
79102,40275
79175,40313
79258,40348
79331,40369
79412,40380
79518,40384
79568,40384
79686,40381
79796,40373
79882,40360
79906,40354
80006,40324
80050,40043
80075,39854
80089,39689
80092,39553
80083,39453
80063,39395
80062,39394
80020,39356
79957,39313
79948,39308
79892,39279
79862,39275
79838,39297
79832,39305
79813,39349
79790,39428
79767,39527
79760,39564
79730,39703
79696,39795
79651,39845
79589,39857
79503,39835
79389,39783
79267,39699
79186,39593
79150,39470
79160,39337
79169,39307
79248,39142
79364,38999
79510,38880
79678,38791
79859,38735
80044,38715
80225,38736
80338,38773
80412,38813
80473,38865
80523,38937
80565,39032
80601,39158
80632,39319
80662,39520
80680,39673
80699,39825
80718,39934
80740,40006
80771,40048
80812,40066
80870,40068
80915,40063
81010,40054
81117,40049
81157,40048
81288,40048
81358,39879
81391,39793
81412,39717
81424,39634
81428,39527
81429,39448
81429,39325
81424,39238
81412,39170
81391,39108
81360,39041
81247,38866
81092,38710
80902,38575
80681,38465
80435,38384
80171,38334
80111,38328
79818,38319
79818,38075
80107,38096
80411,38162
80696,38270
80958,38418
81191,38603
81348,38769
81481,38966
81567,39175
81605,39394
81594,39617
Z" /> 
<path style="fill:#008484; fill-opacity:1.0; 
stroke:#008484; stroke-width:3.93701; stroke-opacity:1; 
stroke-linecap:round; stroke-linejoin:round;fill-rule:evenodd;"
d="M 81503,37639
81490,37706
81465,37739
81414,37756
81397,37759
80921,37832
80485,37877
80091,37894
79738,37882
79425,37842
79281,37811
79050,37732
78844,37623
78671,37487
78534,37329
78466,37211
78396,37015
78356,36798
78349,36581
78359,36473
78384,36316
78409,36195
78439,36098
78480,36011
78536,35921
78614,35815
78651,35767
78718,35683
78775,35622
78832,35578
78874,35560
78874,35748
78774,35942
78681,36142
78614,36330
78584,36448
78576,36536
78576,36651
78584,36777
78599,36897
78618,36995
78631,37036
78733,37215
78875,37375
78993,37471
79204,37597
79432,37687
79682,37744
79962,37768
80179,37767
80454,37746
80696,37704
80921,37637
81138,37544
81235,37496
81293,37463
81320,37440
81321,37420
81304,37397
81300,37392
81269,37334
81260,37245
81261,37223
81261,37149
81249,37108
81218,37085
81198,37076
81112,37048
81006,37024
80872,37004
80702,36986
80540,36974
80331,36957
80164,36939
80030,36918
79924,36894
79835,36864
79758,36827
79651,36748
79583,36651
79557,36546
79574,36441
79635,36344
79652,36326
79713,36283
79792,36253
79896,36236
80031,36231
80203,36238
80409,36255
80613,36272
80775,36280
80903,36277
81003,36264
81081,36239
81137,36209
81189,36159
81228,36094
81248,36030
81241,35983
81240,35982
81206,35962
81136,35936
81045,35908
81023,35903
80787,35849
80530,35807
80246,35777
79928,35758
79571,35749
79402,35748
78874,35748
78874,35560
78900,35548
78988,35527
79106,35510
79253,35494
79353,35485
79458,35480
79572,35479
79703,35483
79857,35491
80038,35504
80254,35522
80510,35546
80681,35562
80834,35575
80986,35586
81123,35592
81230,35594
81263,35593
81357,35590
81413,35593
81442,35605
81456,35629
81460,35644
81462,35697
81453,35781
81436,35879
81434,35889
81413,36009
81398,36137
81393,36234
81393,36394
81232,36411
81133,36416
80993,36412
80822,36402
80650,36386
80480,36370
80349,36361
80248,36358
80165,36360
80092,36369
80069,36373
79968,36397
79862,36432
79768,36470
79704,36507
79695,36514
79701,36538
79738,36581
79795,36632
79862,36683
79906,36711
79991,36755
80083,36790
80190,36817
80318,36838
80475,36853
80669,36864
80881,36871
81431,36886
81447,37061
81460,37179
81478,37305
81491,37386
81504,37488
81507,37588
81503,37639
Z" /> 
<path style="fill:#008484; fill-opacity:1.0; 
stroke:#008484; stroke-width:3.93701; stroke-opacity:1; 
stroke-linecap:round; stroke-linejoin:round;fill-rule:evenodd;"
d="M 81369,44496
81314,44709
81235,44880
81111,45044
80952,45179
80764,45284
80553,45360
80324,45405
80083,45421
79836,45408
79587,45365
79343,45292
79110,45190
78892,45058
78696,44897
78673,44874
78506,44675
78379,44453
78293,44216
78251,43970
78255,43723
78279,43583
78353,43365
78469,43173
78623,43009
78812,42876
79033,42778
79199,42732
79362,42710
79555,42703
79760,42712
79790,42715
79790,42805
79528,42809
79290,42855
79080,42939
78900,43058
78752,43208
78640,43386
78565,43590
78532,43815
78541,44058
78585,44273
78664,44485
78780,44690
78925,44879
79091,45040
79270,45165
79320,45192
79493,45265
79663,45313
79846,45338
80056,45343
80131,45341
80328,45329
80481,45307
80594,45277
80670,45234
80715,45180
80720,45170
80745,45121
80793,45041
80857,44939
80931,44826
80959,44785
81058,44635
81132,44517
81185,44422
81219,44342
81238,44267
81247,44190
81249,44111
81231,43916
81177,43735
81082,43563
80945,43391
80834,43280
80598,43089
80350,42947
80089,42853
79815,42807
79790,42805
79790,42715
79958,42734
80132,42770
80143,42773
80419,42872
80671,43002
80893,43160
81080,43343
81226,43545
81265,43616
81341,43815
81383,44036
81393,44267
81369,44496
Z" /> 
</g>
<g style="fill:#008484; fill-opacity:0.0; 
stroke:#008484; stroke-width:3.93701; stroke-opacity:1; 
stroke-linecap:round; stroke-linejoin:round;">
</g>
<g style="fill:#008484; fill-opacity:0.0; 
stroke:#008484; stroke-width:59.0551; stroke-opacity:1; 
stroke-linecap:round; stroke-linejoin:round;">
<path d="M8193 34191
L8062 34004
" />
<path d="M7968 34191
L7968 33798
L8118 33798
L8156 33816
L8174 33835
L8193 33873
L8193 33929
L8174 33966
L8156 33985
L8118 34004
L7968 34004
" />
<path d="M8362 33985
L8493 33985
" />
<path d="M8549 34191
L8362 34191
L8362 33798
L8549 33798
" />
<path d="M8849 33985
L8718 33985
" />
<path d="M8718 34191
L8718 33798
L8906 33798
" />
<path d="M9112 33798
L9112 33891
" />
<path d="M9018 33854
L9112 33891
L9206 33854
" />
<path d="M9056 33966
L9112 33891
L9168 33966
" />
<path d="M9412 33798
L9412 33891
" />
<path d="M9318 33854
L9412 33891
L9506 33854
" />
<path d="M9356 33966
L9412 33891
L9468 33966
" />
<path d="M88818 49191
L88687 49004
" />
<path d="M88593 49191
L88593 48798
L88743 48798
L88781 48816
L88799 48835
L88818 48873
L88818 48929
L88799 48966
L88781 48985
L88743 49004
L88593 49004
" />
<path d="M88987 48985
L89118 48985
" />
<path d="M89174 49191
L88987 49191
L88987 48798
L89174 48798
" />
<path d="M89474 48985
L89343 48985
" />
<path d="M89343 49191
L89343 48798
L89531 48798
" />
<path d="M89737 48798
L89737 48891
" />
<path d="M89643 48854
L89737 48891
L89831 48854
" />
<path d="M89681 48966
L89737 48891
L89793 48966
" />
<path d="M90037 48798
L90037 48891
" />
<path d="M89943 48854
L90037 48891
L90131 48854
" />
<path d="M89981 48966
L90037 48891
L90093 48966
" />
<path d="M88818 34191
L88687 34004
" />
<path d="M88593 34191
L88593 33798
L88743 33798
L88781 33816
L88799 33835
L88818 33873
L88818 33929
L88799 33966
L88781 33985
L88743 34004
L88593 34004
" />
<path d="M88987 33985
L89118 33985
" />
<path d="M89174 34191
L88987 34191
L88987 33798
L89174 33798
" />
<path d="M89474 33985
L89343 33985
" />
<path d="M89343 34191
L89343 33798
L89531 33798
" />
<path d="M89737 33798
L89737 33891
" />
<path d="M89643 33854
L89737 33891
L89831 33854
" />
<path d="M89681 33966
L89737 33891
L89793 33966
" />
<path d="M90037 33798
L90037 33891
" />
<path d="M89943 33854
L90037 33891
L90131 33854
" />
<path d="M89981 33966
L90037 33891
L90093 33966
" />
<path d="M118818 34191
L118687 34004
" />
<path d="M118593 34191
L118593 33798
L118743 33798
L118781 33816
L118799 33835
L118818 33873
L118818 33929
L118799 33966
L118781 33985
L118743 34004
L118593 34004
" />
<path d="M118987 33985
L119118 33985
" />
<path d="M119174 34191
L118987 34191
L118987 33798
L119174 33798
" />
<path d="M119474 33985
L119343 33985
" />
<path d="M119343 34191
L119343 33798
L119531 33798
" />
<path d="M119737 33798
L119737 33891
" />
<path d="M119643 33854
L119737 33891
L119831 33854
" />
<path d="M119681 33966
L119737 33891
L119793 33966
" />
<path d="M120037 33798
L120037 33891
" />
<path d="M119943 33854
L120037 33891
L120131 33854
" />
<path d="M119981 33966
L120037 33891
L120093 33966
" />
<path d="M118818 49191
L118687 49004
" />
<path d="M118593 49191
L118593 48798
L118743 48798
L118781 48816
L118799 48835
L118818 48873
L118818 48929
L118799 48966
L118781 48985
L118743 49004
L118593 49004
" />
<path d="M118987 48985
L119118 48985
" />
<path d="M119174 49191
L118987 49191
L118987 48798
L119174 48798
" />
<path d="M119474 48985
L119343 48985
" />
<path d="M119343 49191
L119343 48798
L119531 48798
" />
<path d="M119737 48798
L119737 48891
" />
<path d="M119643 48854
L119737 48891
L119831 48854
" />
<path d="M119681 48966
L119737 48891
L119793 48966
" />
<path d="M120037 48798
L120037 48891
" />
<path d="M119943 48854
L120037 48891
L120131 48854
" />
<path d="M119981 48966
L120037 48891
L120093 48966
" />
<path d="M38193 49191
L38062 49004
" />
<path d="M37968 49191
L37968 48798
L38118 48798
L38156 48816
L38174 48835
L38193 48873
L38193 48929
L38174 48966
L38156 48985
L38118 49004
L37968 49004
" />
<path d="M38362 48985
L38493 48985
" />
<path d="M38549 49191
L38362 49191
L38362 48798
L38549 48798
" />
<path d="M38849 48985
L38718 48985
" />
<path d="M38718 49191
L38718 48798
L38906 48798
" />
<path d="M39112 48798
L39112 48891
" />
<path d="M39018 48854
L39112 48891
L39206 48854
" />
<path d="M39056 48966
L39112 48891
L39168 48966
" />
<path d="M39412 48798
L39412 48891
" />
<path d="M39318 48854
L39412 48891
L39506 48854
" />
<path d="M39356 48966
L39412 48891
L39468 48966
" />
<path d="M38193 34191
L38062 34004
" />
<path d="M37968 34191
L37968 33798
L38118 33798
L38156 33816
L38174 33835
L38193 33873
L38193 33929
L38174 33966
L38156 33985
L38118 34004
L37968 34004
" />
<path d="M38362 33985
L38493 33985
" />
<path d="M38549 34191
L38362 34191
L38362 33798
L38549 33798
" />
<path d="M38849 33985
L38718 33985
" />
<path d="M38718 34191
L38718 33798
L38906 33798
" />
<path d="M39112 33798
L39112 33891
" />
<path d="M39018 33854
L39112 33891
L39206 33854
" />
<path d="M39056 33966
L39112 33891
L39168 33966
" />
<path d="M39412 33798
L39412 33891
" />
<path d="M39318 33854
L39412 33891
L39506 33854
" />
<path d="M39356 33966
L39412 33891
L39468 33966
" />
<path d="M8193 49191
L8062 49004
" />
<path d="M7968 49191
L7968 48798
L8118 48798
L8156 48816
L8174 48835
L8193 48873
L8193 48929
L8174 48966
L8156 48985
L8118 49004
L7968 49004
" />
<path d="M8362 48985
L8493 48985
" />
<path d="M8549 49191
L8362 49191
L8362 48798
L8549 48798
" />
<path d="M8849 48985
L8718 48985
" />
<path d="M8718 49191
L8718 48798
L8906 48798
" />
<path d="M9112 48798
L9112 48891
" />
<path d="M9018 48854
L9112 48891
L9206 48854
" />
<path d="M9056 48966
L9112 48891
L9168 48966
" />
<path d="M9412 48798
L9412 48891
" />
<path d="M9318 48854
L9412 48891
L9506 48854
" />
<path d="M9356 48966
L9412 48891
L9468 48966
" />
<g >
</g>
</g>
<g style="fill:#000000; fill-opacity:0.0; 
stroke:#000000; stroke-width:59.0551; stroke-opacity:1; 
stroke-linecap:round; stroke-linejoin:round;">
</g>
<g style="fill:#C2C200; fill-opacity:0.0; 
stroke:#C2C200; stroke-width:59.0551; stroke-opacity:1; 
stroke-linecap:round; stroke-linejoin:round;">
</g>
<g style="fill:#C2C200; fill-opacity:0.0; 
stroke:#C2C200; stroke-width:78.7402; stroke-opacity:1; 
stroke-linecap:round; stroke-linejoin:round;">
<path d="M7724 28767
L2212 28767
" />
<path d="M7724 29003
L7724 28767
" />
<path d="M8039 29003
L7724 29003
" />
<path d="M8039 34043
L8039 29003
" />
<path d="M7724 34043
L8039 34043
" />
<path d="M7724 34279
L7724 34043
" />
<path d="M2212 34279
L7724 34279
" />
<path d="M2212 34043
L2212 34279
" />
<path d="M1897 34043
L2212 34043
" />
<path d="M1897 29003
L1897 34043
" />
<path d="M2212 29003
L1897 29003
" />
<path d="M2212 28767
L2212 29003
" />
<path d="M15224 28767
L9712 28767
" />
<path d="M15224 29003
L15224 28767
" />
<path d="M15539 29003
L15224 29003
" />
<path d="M15539 34043
L15539 29003
" />
<path d="M15224 34043
L15539 34043
" />
<path d="M15224 34279
L15224 34043
" />
<path d="M9712 34279
L15224 34279
" />
<path d="M9712 34043
L9712 34279
" />
<path d="M9397 34043
L9712 34043
" />
<path d="M9397 29003
L9397 34043
" />
<path d="M9712 29003
L9397 29003
" />
<path d="M9712 28767
L9712 29003
" />
<path d="M22724 28767
L17213 28767
" />
<path d="M22724 29003
L22724 28767
" />
<path d="M23039 29003
L22724 29003
" />
<path d="M23039 34043
L23039 29003
" />
<path d="M22724 34043
L23039 34043
" />
<path d="M22724 34279
L22724 34043
" />
<path d="M17213 34279
L22724 34279
" />
<path d="M17213 34043
L17213 34279
" />
<path d="M16897 34043
L17213 34043
" />
<path d="M16897 29003
L16897 34043
" />
<path d="M17213 29003
L16897 29003
" />
<path d="M17213 28767
L17213 29003
" />
<path d="M30224 28767
L24713 28767
" />
<path d="M30224 29003
L30224 28767
" />
<path d="M30539 29003
L30224 29003
" />
<path d="M30539 34043
L30539 29003
" />
<path d="M30224 34043
L30539 34043
" />
<path d="M30224 34279
L30224 34043
" />
<path d="M24713 34279
L30224 34279
" />
<path d="M24713 34043
L24713 34279
" />
<path d="M24397 34043
L24713 34043
" />
<path d="M24397 29003
L24397 34043
" />
<path d="M24713 29003
L24397 29003
" />
<path d="M24713 28767
L24713 29003
" />
<path d="M39599 28767
L34087 28767
" />
<path d="M39599 29003
L39599 28767
" />
<path d="M39914 29003
L39599 29003
" />
<path d="M39914 34043
L39914 29003
" />
<path d="M39599 34043
L39914 34043
" />
<path d="M39599 34279
L39599 34043
" />
<path d="M34087 34279
L39599 34279
" />
<path d="M34087 34043
L34087 34279
" />
<path d="M33772 34043
L34087 34043
" />
<path d="M33772 29003
L33772 34043
" />
<path d="M34087 29003
L33772 29003
" />
<path d="M34087 28767
L34087 29003
" />
<path d="M47099 28767
L41587 28767
" />
<path d="M47099 29003
L47099 28767
" />
<path d="M47414 29003
L47099 29003
" />
<path d="M47414 34043
L47414 29003
" />
<path d="M47099 34043
L47414 34043
" />
<path d="M47099 34279
L47099 34043
" />
<path d="M41587 34279
L47099 34279
" />
<path d="M41587 34043
L41587 34279
" />
<path d="M41272 34043
L41587 34043
" />
<path d="M41272 29003
L41272 34043
" />
<path d="M41587 29003
L41272 29003
" />
<path d="M41587 28767
L41587 29003
" />
<path d="M54599 28767
L49087 28767
" />
<path d="M54599 29003
L54599 28767
" />
<path d="M54914 29003
L54599 29003
" />
<path d="M54914 34043
L54914 29003
" />
<path d="M54599 34043
L54914 34043
" />
<path d="M54599 34279
L54599 34043
" />
<path d="M49087 34279
L54599 34279
" />
<path d="M49087 34043
L49087 34279
" />
<path d="M48772 34043
L49087 34043
" />
<path d="M48772 29003
L48772 34043
" />
<path d="M49087 29003
L48772 29003
" />
<path d="M49087 28767
L49087 29003
" />
<path d="M62099 28767
L56587 28767
" />
<path d="M62099 29003
L62099 28767
" />
<path d="M62414 29003
L62099 29003
" />
<path d="M62414 34043
L62414 29003
" />
<path d="M62099 34043
L62414 34043
" />
<path d="M62099 34279
L62099 34043
" />
<path d="M56587 34279
L62099 34279
" />
<path d="M56587 34043
L56587 34279
" />
<path d="M56272 34043
L56587 34043
" />
<path d="M56272 29003
L56272 34043
" />
<path d="M56587 29003
L56272 29003
" />
<path d="M56587 28767
L56587 29003
" />
<path d="M69599 28767
L64087 28767
" />
<path d="M69599 29003
L69599 28767
" />
<path d="M69914 29003
L69599 29003
" />
<path d="M69914 34043
L69914 29003
" />
<path d="M69599 34043
L69914 34043
" />
<path d="M69599 34279
L69599 34043
" />
<path d="M64087 34279
L69599 34279
" />
<path d="M64087 34043
L64087 34279
" />
<path d="M63772 34043
L64087 34043
" />
<path d="M63772 29003
L63772 34043
" />
<path d="M64087 29003
L63772 29003
" />
<path d="M64087 28767
L64087 29003
" />
<path d="M77099 28767
L71587 28767
" />
<path d="M77099 29003
L77099 28767
" />
<path d="M77414 29003
L77099 29003
" />
<path d="M77414 34043
L77414 29003
" />
<path d="M77099 34043
L77414 34043
" />
<path d="M77099 34279
L77099 34043
" />
<path d="M71587 34279
L77099 34279
" />
<path d="M71587 34043
L71587 34279
" />
<path d="M71272 34043
L71587 34043
" />
<path d="M71272 29003
L71272 34043
" />
<path d="M71587 29003
L71272 29003
" />
<path d="M71587 28767
L71587 29003
" />
<path d="M88349 28767
L82837 28767
" />
<path d="M88349 29003
L88349 28767
" />
<path d="M88664 29003
L88349 29003
" />
<path d="M88664 34043
L88664 29003
" />
<path d="M88349 34043
L88664 34043
" />
<path d="M88349 34279
L88349 34043
" />
<path d="M82837 34279
L88349 34279
" />
<path d="M82837 34043
L82837 34279
" />
<path d="M82522 34043
L82837 34043
" />
<path d="M82522 29003
L82522 34043
" />
<path d="M82837 29003
L82522 29003
" />
<path d="M82837 28767
L82837 29003
" />
<path d="M95849 28767
L90337 28767
" />
<path d="M95849 29003
L95849 28767
" />
<path d="M96164 29003
L95849 29003
" />
<path d="M96164 34043
L96164 29003
" />
<path d="M95849 34043
L96164 34043
" />
<path d="M95849 34279
L95849 34043
" />
<path d="M90337 34279
L95849 34279
" />
<path d="M90337 34043
L90337 34279
" />
<path d="M90022 34043
L90337 34043
" />
<path d="M90022 29003
L90022 34043
" />
<path d="M90337 29003
L90022 29003
" />
<path d="M90337 28767
L90337 29003
" />
<path d="M103349 28767
L97837 28767
" />
<path d="M103349 29003
L103349 28767
" />
<path d="M103664 29003
L103349 29003
" />
<path d="M103664 34043
L103664 29003
" />
<path d="M103349 34043
L103664 34043
" />
<path d="M103349 34279
L103349 34043
" />
<path d="M97837 34279
L103349 34279
" />
<path d="M97837 34043
L97837 34279
" />
<path d="M97522 34043
L97837 34043
" />
<path d="M97522 29003
L97522 34043
" />
<path d="M97837 29003
L97522 29003
" />
<path d="M97837 28767
L97837 29003
" />
<path d="M110849 28767
L105337 28767
" />
<path d="M110849 29003
L110849 28767
" />
<path d="M111164 29003
L110849 29003
" />
<path d="M111164 34043
L111164 29003
" />
<path d="M110849 34043
L111164 34043
" />
<path d="M110849 34279
L110849 34043
" />
<path d="M105337 34279
L110849 34279
" />
<path d="M105337 34043
L105337 34279
" />
<path d="M105022 34043
L105337 34043
" />
<path d="M105022 29003
L105022 34043
" />
<path d="M105337 29003
L105022 29003
" />
<path d="M105337 28767
L105337 29003
" />
<path d="M118349 28767
L112837 28767
" />
<path d="M118349 29003
L118349 28767
" />
<path d="M118664 29003
L118349 29003
" />
<path d="M118664 34043
L118664 29003
" />
<path d="M118349 34043
L118664 34043
" />
<path d="M118349 34279
L118349 34043
" />
<path d="M112837 34279
L118349 34279
" />
<path d="M112837 34043
L112837 34279
" />
<path d="M112522 34043
L112837 34043
" />
<path d="M112522 29003
L112522 34043
" />
<path d="M112837 29003
L112522 29003
" />
<path d="M112837 28767
L112837 29003
" />
<path d="M125849 28767
L120337 28767
" />
<path d="M125849 29003
L125849 28767
" />
<path d="M126164 29003
L125849 29003
" />
<path d="M126164 34043
L126164 29003
" />
<path d="M125849 34043
L126164 34043
" />
<path d="M125849 34279
L125849 34043
" />
<path d="M120337 34279
L125849 34279
" />
<path d="M120337 34043
L120337 34279
" />
<path d="M120022 34043
L120337 34043
" />
<path d="M120022 29003
L120022 34043
" />
<path d="M120337 29003
L120022 29003
" />
<path d="M120337 28767
L120337 29003
" />
<path d="M7724 36268
L2212 36268
" />
<path d="M7724 36504
L7724 36268
" />
<path d="M8039 36504
L7724 36504
" />
<path d="M8039 41543
L8039 36504
" />
<path d="M7724 41543
L8039 41543
" />
<path d="M7724 41779
L7724 41543
" />
<path d="M2212 41779
L7724 41779
" />
<path d="M2212 41543
L2212 41779
" />
<path d="M1897 41543
L2212 41543
" />
<path d="M1897 36504
L1897 41543
" />
<path d="M2212 36504
L1897 36504
" />
<path d="M2212 36268
L2212 36504
" />
<path d="M15224 36268
L9712 36268
" />
<path d="M15224 36504
L15224 36268
" />
<path d="M15539 36504
L15224 36504
" />
<path d="M15539 41543
L15539 36504
" />
<path d="M15224 41543
L15539 41543
" />
<path d="M15224 41779
L15224 41543
" />
<path d="M9712 41779
L15224 41779
" />
<path d="M9712 41543
L9712 41779
" />
<path d="M9397 41543
L9712 41543
" />
<path d="M9397 36504
L9397 41543
" />
<path d="M9712 36504
L9397 36504
" />
<path d="M9712 36268
L9712 36504
" />
<path d="M22724 36268
L17213 36268
" />
<path d="M22724 36504
L22724 36268
" />
<path d="M23039 36504
L22724 36504
" />
<path d="M23039 41543
L23039 36504
" />
<path d="M22724 41543
L23039 41543
" />
<path d="M22724 41779
L22724 41543
" />
<path d="M17213 41779
L22724 41779
" />
<path d="M17213 41543
L17213 41779
" />
<path d="M16897 41543
L17213 41543
" />
<path d="M16897 36504
L16897 41543
" />
<path d="M17213 36504
L16897 36504
" />
<path d="M17213 36268
L17213 36504
" />
<path d="M30224 36268
L24713 36268
" />
<path d="M30224 36504
L30224 36268
" />
<path d="M30539 36504
L30224 36504
" />
<path d="M30539 41543
L30539 36504
" />
<path d="M30224 41543
L30539 41543
" />
<path d="M30224 41779
L30224 41543
" />
<path d="M24713 41779
L30224 41779
" />
<path d="M24713 41543
L24713 41779
" />
<path d="M24397 41543
L24713 41543
" />
<path d="M24397 36504
L24397 41543
" />
<path d="M24713 36504
L24397 36504
" />
<path d="M24713 36268
L24713 36504
" />
<path d="M39599 36268
L34087 36268
" />
<path d="M39599 36504
L39599 36268
" />
<path d="M39914 36504
L39599 36504
" />
<path d="M39914 41543
L39914 36504
" />
<path d="M39599 41543
L39914 41543
" />
<path d="M39599 41779
L39599 41543
" />
<path d="M34087 41779
L39599 41779
" />
<path d="M34087 41543
L34087 41779
" />
<path d="M33772 41543
L34087 41543
" />
<path d="M33772 36504
L33772 41543
" />
<path d="M34087 36504
L33772 36504
" />
<path d="M34087 36268
L34087 36504
" />
<path d="M47099 36268
L41587 36268
" />
<path d="M47099 36504
L47099 36268
" />
<path d="M47414 36504
L47099 36504
" />
<path d="M47414 41543
L47414 36504
" />
<path d="M47099 41543
L47414 41543
" />
<path d="M47099 41779
L47099 41543
" />
<path d="M41587 41779
L47099 41779
" />
<path d="M41587 41543
L41587 41779
" />
<path d="M41272 41543
L41587 41543
" />
<path d="M41272 36504
L41272 41543
" />
<path d="M41587 36504
L41272 36504
" />
<path d="M41587 36268
L41587 36504
" />
<path d="M54599 36268
L49087 36268
" />
<path d="M54599 36504
L54599 36268
" />
<path d="M54914 36504
L54599 36504
" />
<path d="M54914 41543
L54914 36504
" />
<path d="M54599 41543
L54914 41543
" />
<path d="M54599 41779
L54599 41543
" />
<path d="M49087 41779
L54599 41779
" />
<path d="M49087 41543
L49087 41779
" />
<path d="M48772 41543
L49087 41543
" />
<path d="M48772 36504
L48772 41543
" />
<path d="M49087 36504
L48772 36504
" />
<path d="M49087 36268
L49087 36504
" />
<path d="M62099 36268
L56587 36268
" />
<path d="M62099 36504
L62099 36268
" />
<path d="M62414 36504
L62099 36504
" />
<path d="M62414 41543
L62414 36504
" />
<path d="M62099 41543
L62414 41543
" />
<path d="M62099 41779
L62099 41543
" />
<path d="M56587 41779
L62099 41779
" />
<path d="M56587 41543
L56587 41779
" />
<path d="M56272 41543
L56587 41543
" />
<path d="M56272 36504
L56272 41543
" />
<path d="M56587 36504
L56272 36504
" />
<path d="M56587 36268
L56587 36504
" />
<path d="M69599 36268
L64087 36268
" />
<path d="M69599 36504
L69599 36268
" />
<path d="M69914 36504
L69599 36504
" />
<path d="M69914 41543
L69914 36504
" />
<path d="M69599 41543
L69914 41543
" />
<path d="M69599 41779
L69599 41543
" />
<path d="M64087 41779
L69599 41779
" />
<path d="M64087 41543
L64087 41779
" />
<path d="M63772 41543
L64087 41543
" />
<path d="M63772 36504
L63772 41543
" />
<path d="M64087 36504
L63772 36504
" />
<path d="M64087 36268
L64087 36504
" />
<path d="M77099 36268
L71587 36268
" />
<path d="M77099 36504
L77099 36268
" />
<path d="M77414 36504
L77099 36504
" />
<path d="M77414 41543
L77414 36504
" />
<path d="M77099 41543
L77414 41543
" />
<path d="M77099 41779
L77099 41543
" />
<path d="M71587 41779
L77099 41779
" />
<path d="M71587 41543
L71587 41779
" />
<path d="M71272 41543
L71587 41543
" />
<path d="M71272 36504
L71272 41543
" />
<path d="M71587 36504
L71272 36504
" />
<path d="M71587 36268
L71587 36504
" />
<path d="M88349 36268
L82837 36268
" />
<path d="M88349 36504
L88349 36268
" />
<path d="M88664 36504
L88349 36504
" />
<path d="M88664 41543
L88664 36504
" />
<path d="M88349 41543
L88664 41543
" />
<path d="M88349 41779
L88349 41543
" />
<path d="M82837 41779
L88349 41779
" />
<path d="M82837 41543
L82837 41779
" />
<path d="M82522 41543
L82837 41543
" />
<path d="M82522 36504
L82522 41543
" />
<path d="M82837 36504
L82522 36504
" />
<path d="M82837 36268
L82837 36504
" />
<path d="M95849 36268
L90337 36268
" />
<path d="M95849 36504
L95849 36268
" />
<path d="M96164 36504
L95849 36504
" />
<path d="M96164 41543
L96164 36504
" />
<path d="M95849 41543
L96164 41543
" />
<path d="M95849 41779
L95849 41543
" />
<path d="M90337 41779
L95849 41779
" />
<path d="M90337 41543
L90337 41779
" />
<path d="M90022 41543
L90337 41543
" />
<path d="M90022 36504
L90022 41543
" />
<path d="M90337 36504
L90022 36504
" />
<path d="M90337 36268
L90337 36504
" />
<path d="M103349 36268
L97837 36268
" />
<path d="M103349 36504
L103349 36268
" />
<path d="M103664 36504
L103349 36504
" />
<path d="M103664 41543
L103664 36504
" />
<path d="M103349 41543
L103664 41543
" />
<path d="M103349 41779
L103349 41543
" />
<path d="M97837 41779
L103349 41779
" />
<path d="M97837 41543
L97837 41779
" />
<path d="M97522 41543
L97837 41543
" />
<path d="M97522 36504
L97522 41543
" />
<path d="M97837 36504
L97522 36504
" />
<path d="M97837 36268
L97837 36504
" />
<path d="M110849 36268
L105337 36268
" />
<path d="M110849 36504
L110849 36268
" />
<path d="M111164 36504
L110849 36504
" />
<path d="M111164 41543
L111164 36504
" />
<path d="M110849 41543
L111164 41543
" />
<path d="M110849 41779
L110849 41543
" />
<path d="M105337 41779
L110849 41779
" />
<path d="M105337 41543
L105337 41779
" />
<path d="M105022 41543
L105337 41543
" />
<path d="M105022 36504
L105022 41543
" />
<path d="M105337 36504
L105022 36504
" />
<path d="M105337 36268
L105337 36504
" />
<path d="M118349 36268
L112837 36268
" />
<path d="M118349 36504
L118349 36268
" />
<path d="M118664 36504
L118349 36504
" />
<path d="M118664 41543
L118664 36504
" />
<path d="M118349 41543
L118664 41543
" />
<path d="M118349 41779
L118349 41543
" />
<path d="M112837 41779
L118349 41779
" />
<path d="M112837 41543
L112837 41779
" />
<path d="M112522 41543
L112837 41543
" />
<path d="M112522 36504
L112522 41543
" />
<path d="M112837 36504
L112522 36504
" />
<path d="M112837 36268
L112837 36504
" />
<path d="M125849 36268
L120337 36268
" />
<path d="M125849 36504
L125849 36268
" />
<path d="M126164 36504
L125849 36504
" />
<path d="M126164 41543
L126164 36504
" />
<path d="M125849 41543
L126164 41543
" />
<path d="M125849 41779
L125849 41543
" />
<path d="M120337 41779
L125849 41779
" />
<path d="M120337 41543
L120337 41779
" />
<path d="M120022 41543
L120337 41543
" />
<path d="M120022 36504
L120022 41543
" />
<path d="M120337 36504
L120022 36504
" />
<path d="M120337 36268
L120337 36504
" />
<path d="M7724 43768
L2212 43768
" />
<path d="M7724 44004
L7724 43768
" />
<path d="M8039 44004
L7724 44004
" />
<path d="M8039 49043
L8039 44004
" />
<path d="M7724 49043
L8039 49043
" />
<path d="M7724 49279
L7724 49043
" />
<path d="M2212 49279
L7724 49279
" />
<path d="M2212 49043
L2212 49279
" />
<path d="M1897 49043
L2212 49043
" />
<path d="M1897 44004
L1897 49043
" />
<path d="M2212 44004
L1897 44004
" />
<path d="M2212 43768
L2212 44004
" />
<path d="M15224 43768
L9712 43768
" />
<path d="M15224 44004
L15224 43768
" />
<path d="M15539 44004
L15224 44004
" />
<path d="M15539 49043
L15539 44004
" />
<path d="M15224 49043
L15539 49043
" />
<path d="M15224 49279
L15224 49043
" />
<path d="M9712 49279
L15224 49279
" />
<path d="M9712 49043
L9712 49279
" />
<path d="M9397 49043
L9712 49043
" />
<path d="M9397 44004
L9397 49043
" />
<path d="M9712 44004
L9397 44004
" />
<path d="M9712 43768
L9712 44004
" />
<path d="M22724 43768
L17213 43768
" />
<path d="M22724 44004
L22724 43768
" />
<path d="M23039 44004
L22724 44004
" />
<path d="M23039 49043
L23039 44004
" />
<path d="M22724 49043
L23039 49043
" />
<path d="M22724 49279
L22724 49043
" />
<path d="M17213 49279
L22724 49279
" />
<path d="M17213 49043
L17213 49279
" />
<path d="M16897 49043
L17213 49043
" />
<path d="M16897 44004
L16897 49043
" />
<path d="M17213 44004
L16897 44004
" />
<path d="M17213 43768
L17213 44004
" />
<path d="M30224 43768
L24713 43768
" />
<path d="M30224 44004
L30224 43768
" />
<path d="M30539 44004
L30224 44004
" />
<path d="M30539 49043
L30539 44004
" />
<path d="M30224 49043
L30539 49043
" />
<path d="M30224 49279
L30224 49043
" />
<path d="M24713 49279
L30224 49279
" />
<path d="M24713 49043
L24713 49279
" />
<path d="M24397 49043
L24713 49043
" />
<path d="M24397 44004
L24397 49043
" />
<path d="M24713 44004
L24397 44004
" />
<path d="M24713 43768
L24713 44004
" />
<path d="M39599 43768
L34087 43768
" />
<path d="M39599 44004
L39599 43768
" />
<path d="M39914 44004
L39599 44004
" />
<path d="M39914 49043
L39914 44004
" />
<path d="M39599 49043
L39914 49043
" />
<path d="M39599 49279
L39599 49043
" />
<path d="M34087 49279
L39599 49279
" />
<path d="M34087 49043
L34087 49279
" />
<path d="M33772 49043
L34087 49043
" />
<path d="M33772 44004
L33772 49043
" />
<path d="M34087 44004
L33772 44004
" />
<path d="M34087 43768
L34087 44004
" />
<path d="M47099 43768
L41587 43768
" />
<path d="M47099 44004
L47099 43768
" />
<path d="M47414 44004
L47099 44004
" />
<path d="M47414 49043
L47414 44004
" />
<path d="M47099 49043
L47414 49043
" />
<path d="M47099 49279
L47099 49043
" />
<path d="M41587 49279
L47099 49279
" />
<path d="M41587 49043
L41587 49279
" />
<path d="M41272 49043
L41587 49043
" />
<path d="M41272 44004
L41272 49043
" />
<path d="M41587 44004
L41272 44004
" />
<path d="M41587 43768
L41587 44004
" />
<path d="M54599 43768
L49087 43768
" />
<path d="M54599 44004
L54599 43768
" />
<path d="M54914 44004
L54599 44004
" />
<path d="M54914 49043
L54914 44004
" />
<path d="M54599 49043
L54914 49043
" />
<path d="M54599 49279
L54599 49043
" />
<path d="M49087 49279
L54599 49279
" />
<path d="M49087 49043
L49087 49279
" />
<path d="M48772 49043
L49087 49043
" />
<path d="M48772 44004
L48772 49043
" />
<path d="M49087 44004
L48772 44004
" />
<path d="M49087 43768
L49087 44004
" />
<path d="M62099 43768
L56587 43768
" />
<path d="M62099 44004
L62099 43768
" />
<path d="M62414 44004
L62099 44004
" />
<path d="M62414 49043
L62414 44004
" />
<path d="M62099 49043
L62414 49043
" />
<path d="M62099 49279
L62099 49043
" />
<path d="M56587 49279
L62099 49279
" />
<path d="M56587 49043
L56587 49279
" />
<path d="M56272 49043
L56587 49043
" />
<path d="M56272 44004
L56272 49043
" />
<path d="M56587 44004
L56272 44004
" />
<path d="M56587 43768
L56587 44004
" />
<path d="M69599 43768
L64087 43768
" />
<path d="M69599 44004
L69599 43768
" />
<path d="M69914 44004
L69599 44004
" />
<path d="M69914 49043
L69914 44004
" />
<path d="M69599 49043
L69914 49043
" />
<path d="M69599 49279
L69599 49043
" />
<path d="M64087 49279
L69599 49279
" />
<path d="M64087 49043
L64087 49279
" />
<path d="M63772 49043
L64087 49043
" />
<path d="M63772 44004
L63772 49043
" />
<path d="M64087 44004
L63772 44004
" />
<path d="M64087 43768
L64087 44004
" />
<path d="M77099 43768
L71587 43768
" />
<path d="M77099 44004
L77099 43768
" />
<path d="M77414 44004
L77099 44004
" />
<path d="M77414 49043
L77414 44004
" />
<path d="M77099 49043
L77414 49043
" />
<path d="M77099 49279
L77099 49043
" />
<path d="M71587 49279
L77099 49279
" />
<path d="M71587 49043
L71587 49279
" />
<path d="M71272 49043
L71587 49043
" />
<path d="M71272 44004
L71272 49043
" />
<path d="M71587 44004
L71272 44004
" />
<path d="M71587 43768
L71587 44004
" />
<path d="M88349 43768
L82837 43768
" />
<path d="M88349 44004
L88349 43768
" />
<path d="M88664 44004
L88349 44004
" />
<path d="M88664 49043
L88664 44004
" />
<path d="M88349 49043
L88664 49043
" />
<path d="M88349 49279
L88349 49043
" />
<path d="M82837 49279
L88349 49279
" />
<path d="M82837 49043
L82837 49279
" />
<path d="M82522 49043
L82837 49043
" />
<path d="M82522 44004
L82522 49043
" />
<path d="M82837 44004
L82522 44004
" />
<path d="M82837 43768
L82837 44004
" />
<path d="M95849 43768
L90337 43768
" />
<path d="M95849 44004
L95849 43768
" />
<path d="M96164 44004
L95849 44004
" />
<path d="M96164 49043
L96164 44004
" />
<path d="M95849 49043
L96164 49043
" />
<path d="M95849 49279
L95849 49043
" />
<path d="M90337 49279
L95849 49279
" />
<path d="M90337 49043
L90337 49279
" />
<path d="M90022 49043
L90337 49043
" />
<path d="M90022 44004
L90022 49043
" />
<path d="M90337 44004
L90022 44004
" />
<path d="M90337 43768
L90337 44004
" />
<path d="M103349 43768
L97837 43768
" />
<path d="M103349 44004
L103349 43768
" />
<path d="M103664 44004
L103349 44004
" />
<path d="M103664 49043
L103664 44004
" />
<path d="M103349 49043
L103664 49043
" />
<path d="M103349 49279
L103349 49043
" />
<path d="M97837 49279
L103349 49279
" />
<path d="M97837 49043
L97837 49279
" />
<path d="M97522 49043
L97837 49043
" />
<path d="M97522 44004
L97522 49043
" />
<path d="M97837 44004
L97522 44004
" />
<path d="M97837 43768
L97837 44004
" />
<path d="M110849 43768
L105337 43768
" />
<path d="M110849 44004
L110849 43768
" />
<path d="M111164 44004
L110849 44004
" />
<path d="M111164 49043
L111164 44004
" />
<path d="M110849 49043
L111164 49043
" />
<path d="M110849 49279
L110849 49043
" />
<path d="M105337 49279
L110849 49279
" />
<path d="M105337 49043
L105337 49279
" />
<path d="M105022 49043
L105337 49043
" />
<path d="M105022 44004
L105022 49043
" />
<path d="M105337 44004
L105022 44004
" />
<path d="M105337 43768
L105337 44004
" />
<path d="M118349 43768
L112837 43768
" />
<path d="M118349 44004
L118349 43768
" />
<path d="M118664 44004
L118349 44004
" />
<path d="M118664 49043
L118664 44004
" />
<path d="M118349 49043
L118664 49043
" />
<path d="M118349 49279
L118349 49043
" />
<path d="M112837 49279
L118349 49279
" />
<path d="M112837 49043
L112837 49279
" />
<path d="M112522 49043
L112837 49043
" />
<path d="M112522 44004
L112522 49043
" />
<path d="M112837 44004
L112522 44004
" />
<path d="M112837 43768
L112837 44004
" />
<path d="M125849 43768
L120337 43768
" />
<path d="M125849 44004
L125849 43768
" />
<path d="M126164 44004
L125849 44004
" />
<path d="M126164 49043
L126164 44004
" />
<path d="M125849 49043
L126164 49043
" />
<path d="M125849 49279
L125849 49043
" />
<path d="M120337 49279
L125849 49279
" />
<path d="M120337 49043
L120337 49279
" />
<path d="M120022 49043
L120337 49043
" />
<path d="M120022 44004
L120022 49043
" />
<path d="M120337 44004
L120022 44004
" />
<path d="M120337 43768
L120337 44004
" />
<path d="M7724 51268
L2212 51268
" />
<path d="M7724 51503
L7724 51268
" />
<path d="M8039 51503
L7724 51503
" />
<path d="M8039 56543
L8039 51503
" />
<path d="M7724 56543
L8039 56543
" />
<path d="M7724 56779
L7724 56543
" />
<path d="M2212 56779
L7724 56779
" />
<path d="M2212 56543
L2212 56779
" />
<path d="M1897 56543
L2212 56543
" />
<path d="M1897 51503
L1897 56543
" />
<path d="M2212 51503
L1897 51503
" />
<path d="M2212 51268
L2212 51503
" />
<path d="M15224 51268
L9712 51268
" />
<path d="M15224 51503
L15224 51268
" />
<path d="M15539 51503
L15224 51503
" />
<path d="M15539 56543
L15539 51503
" />
<path d="M15224 56543
L15539 56543
" />
<path d="M15224 56779
L15224 56543
" />
<path d="M9712 56779
L15224 56779
" />
<path d="M9712 56543
L9712 56779
" />
<path d="M9397 56543
L9712 56543
" />
<path d="M9397 51503
L9397 56543
" />
<path d="M9712 51503
L9397 51503
" />
<path d="M9712 51268
L9712 51503
" />
<path d="M22724 51268
L17213 51268
" />
<path d="M22724 51503
L22724 51268
" />
<path d="M23039 51503
L22724 51503
" />
<path d="M23039 56543
L23039 51503
" />
<path d="M22724 56543
L23039 56543
" />
<path d="M22724 56779
L22724 56543
" />
<path d="M17213 56779
L22724 56779
" />
<path d="M17213 56543
L17213 56779
" />
<path d="M16897 56543
L17213 56543
" />
<path d="M16897 51503
L16897 56543
" />
<path d="M17213 51503
L16897 51503
" />
<path d="M17213 51268
L17213 51503
" />
<path d="M30224 51268
L24713 51268
" />
<path d="M30224 51503
L30224 51268
" />
<path d="M30539 51503
L30224 51503
" />
<path d="M30539 56543
L30539 51503
" />
<path d="M30224 56543
L30539 56543
" />
<path d="M30224 56779
L30224 56543
" />
<path d="M24713 56779
L30224 56779
" />
<path d="M24713 56543
L24713 56779
" />
<path d="M24397 56543
L24713 56543
" />
<path d="M24397 51503
L24397 56543
" />
<path d="M24713 51503
L24397 51503
" />
<path d="M24713 51268
L24713 51503
" />
<path d="M39599 51268
L34087 51268
" />
<path d="M39599 51503
L39599 51268
" />
<path d="M39914 51503
L39599 51503
" />
<path d="M39914 56543
L39914 51503
" />
<path d="M39599 56543
L39914 56543
" />
<path d="M39599 56779
L39599 56543
" />
<path d="M34087 56779
L39599 56779
" />
<path d="M34087 56543
L34087 56779
" />
<path d="M33772 56543
L34087 56543
" />
<path d="M33772 51503
L33772 56543
" />
<path d="M34087 51503
L33772 51503
" />
<path d="M34087 51268
L34087 51503
" />
<path d="M47099 51268
L41587 51268
" />
<path d="M47099 51503
L47099 51268
" />
<path d="M47414 51503
L47099 51503
" />
<path d="M47414 56543
L47414 51503
" />
<path d="M47099 56543
L47414 56543
" />
<path d="M47099 56779
L47099 56543
" />
<path d="M41587 56779
L47099 56779
" />
<path d="M41587 56543
L41587 56779
" />
<path d="M41272 56543
L41587 56543
" />
<path d="M41272 51503
L41272 56543
" />
<path d="M41587 51503
L41272 51503
" />
<path d="M41587 51268
L41587 51503
" />
<path d="M54599 51268
L49087 51268
" />
<path d="M54599 51503
L54599 51268
" />
<path d="M54914 51503
L54599 51503
" />
<path d="M54914 56543
L54914 51503
" />
<path d="M54599 56543
L54914 56543
" />
<path d="M54599 56779
L54599 56543
" />
<path d="M49087 56779
L54599 56779
" />
<path d="M49087 56543
L49087 56779
" />
<path d="M48772 56543
L49087 56543
" />
<path d="M48772 51503
L48772 56543
" />
<path d="M49087 51503
L48772 51503
" />
<path d="M49087 51268
L49087 51503
" />
<path d="M62099 51268
L56587 51268
" />
<path d="M62099 51503
L62099 51268
" />
<path d="M62414 51503
L62099 51503
" />
<path d="M62414 56543
L62414 51503
" />
<path d="M62099 56543
L62414 56543
" />
<path d="M62099 56779
L62099 56543
" />
<path d="M56587 56779
L62099 56779
" />
<path d="M56587 56543
L56587 56779
" />
<path d="M56272 56543
L56587 56543
" />
<path d="M56272 51503
L56272 56543
" />
<path d="M56587 51503
L56272 51503
" />
<path d="M56587 51268
L56587 51503
" />
<path d="M70536 51268
L65024 51268
" />
<path d="M70536 51503
L70536 51268
" />
<path d="M70851 51503
L70536 51503
" />
<path d="M70851 56543
L70851 51503
" />
<path d="M70536 56543
L70851 56543
" />
<path d="M70536 56779
L70536 56543
" />
<path d="M65024 56779
L70536 56779
" />
<path d="M65024 56543
L65024 56779
" />
<path d="M64710 56543
L65024 56543
" />
<path d="M64710 51503
L64710 56543
" />
<path d="M65024 51503
L64710 51503
" />
<path d="M65024 51268
L65024 51503
" />
<path d="M94912 51268
L89400 51268
" />
<path d="M94912 51503
L94912 51268
" />
<path d="M95226 51503
L94912 51503
" />
<path d="M95226 56543
L95226 51503
" />
<path d="M94912 56543
L95226 56543
" />
<path d="M94912 56779
L94912 56543
" />
<path d="M89400 56779
L94912 56779
" />
<path d="M89400 56543
L89400 56779
" />
<path d="M89085 56543
L89400 56543
" />
<path d="M89085 51503
L89085 56543
" />
<path d="M89400 51503
L89085 51503
" />
<path d="M89400 51268
L89400 51503
" />
<path d="M103349 51268
L97837 51268
" />
<path d="M103349 51503
L103349 51268
" />
<path d="M103664 51503
L103349 51503
" />
<path d="M103664 56543
L103664 51503
" />
<path d="M103349 56543
L103664 56543
" />
<path d="M103349 56779
L103349 56543
" />
<path d="M97837 56779
L103349 56779
" />
<path d="M97837 56543
L97837 56779
" />
<path d="M97522 56543
L97837 56543
" />
<path d="M97522 51503
L97522 56543
" />
<path d="M97837 51503
L97522 51503
" />
<path d="M97837 51268
L97837 51503
" />
<path d="M110849 51268
L105337 51268
" />
<path d="M110849 51503
L110849 51268
" />
<path d="M111164 51503
L110849 51503
" />
<path d="M111164 56543
L111164 51503
" />
<path d="M110849 56543
L111164 56543
" />
<path d="M110849 56779
L110849 56543
" />
<path d="M105337 56779
L110849 56779
" />
<path d="M105337 56543
L105337 56779
" />
<path d="M105022 56543
L105337 56543
" />
<path d="M105022 51503
L105022 56543
" />
<path d="M105337 51503
L105022 51503
" />
<path d="M105337 51268
L105337 51503
" />
<path d="M118349 51268
L112837 51268
" />
<path d="M118349 51503
L118349 51268
" />
<path d="M118664 51503
L118349 51503
" />
<path d="M118664 56543
L118664 51503
" />
<path d="M118349 56543
L118664 56543
" />
<path d="M118349 56779
L118349 56543
" />
<path d="M112837 56779
L118349 56779
" />
<path d="M112837 56543
L112837 56779
" />
<path d="M112522 56543
L112837 56543
" />
<path d="M112522 51503
L112522 56543
" />
<path d="M112837 51503
L112522 51503
" />
<path d="M112837 51268
L112837 51503
" />
<path d="M125849 51268
L120337 51268
" />
<path d="M125849 51503
L125849 51268
" />
<path d="M126164 51503
L125849 51503
" />
<path d="M126164 56543
L126164 51503
" />
<path d="M125849 56543
L126164 56543
" />
<path d="M125849 56779
L125849 56543
" />
<path d="M120337 56779
L125849 56779
" />
<path d="M120337 56543
L120337 56779
" />
<path d="M120022 56543
L120337 56543
" />
<path d="M120022 51503
L120022 56543
" />
<path d="M120337 51503
L120022 51503
" />
<path d="M120337 51268
L120337 51503
" />
<path d="M82724 51268
L77212 51268
" />
<path d="M82724 51503
L82724 51268
" />
<path d="M83039 51503
L82724 51503
" />
<path d="M83039 53118
L83039 51503
" />
<path d="M83325 53118
L83039 53118
" />
<path d="M83325 51846
L83325 53118
" />
<path d="M84003 51846
L83325 51846
" />
<path d="M84003 51484
L84003 51846
" />
<path d="M85303 51484
L84003 51484
" />
<path d="M85303 51846
L85303 51484
" />
<path d="M85982 51846
L85303 51846
" />
<path d="M85982 53118
L85982 51846
" />
<path d="M86307 53118
L85982 53118
" />
<path d="M86307 54220
L86307 53118
" />
<path d="M85982 54220
L86307 54220
" />
<path d="M85982 56689
L85982 54220
" />
<path d="M85303 56689
L85982 56689
" />
<path d="M85303 57074
L85303 56689
" />
<path d="M84003 57074
L85303 57074
" />
<path d="M84003 56689
L84003 57074
" />
<path d="M83325 56689
L84003 56689
" />
<path d="M83325 54929
L83325 56689
" />
<path d="M83039 54929
L83325 54929
" />
<path d="M83039 56543
L83039 54929
" />
<path d="M82724 56543
L83039 56543
" />
<path d="M82724 56779
L82724 56543
" />
<path d="M77212 56779
L82724 56779
" />
<path d="M77212 56543
L77212 56779
" />
<path d="M76897 56543
L77212 56543
" />
<path d="M76897 54929
L76897 56543
" />
<path d="M76612 54929
L76897 54929
" />
<path d="M76612 56689
L76612 54929
" />
<path d="M75933 56689
L76612 56689
" />
<path d="M75933 57074
L75933 56689
" />
<path d="M74633 57074
L75933 57074
" />
<path d="M74633 56689
L74633 57074
" />
<path d="M73955 56689
L74633 56689
" />
<path d="M73955 54220
L73955 56689
" />
<path d="M73630 54220
L73955 54220
" />
<path d="M73630 53118
L73630 54220
" />
<path d="M73955 53118
L73630 53118
" />
<path d="M73955 51846
L73955 53118
" />
<path d="M74633 51846
L73955 51846
" />
<path d="M74633 51484
L74633 51846
" />
<path d="M75933 51484
L74633 51484
" />
<path d="M75933 51846
L75933 51484
" />
<path d="M76612 51846
L75933 51846
" />
<path d="M76612 53118
L76612 51846
" />
<path d="M76897 53118
L76612 53118
" />
<path d="M76897 51503
L76897 53118
" />
<path d="M77212 51503
L76897 51503
" />
<path d="M77212 51268
L77212 51503
" />
<path d="M825 26592
L127237 26592
" />
<path d="M763 26595
L825 26592
" />
<path d="M701 26602
L763 26595
" />
<path d="M641 26614
L701 26602
" />
<path d="M581 26631
L641 26614
" />
<path d="M523 26652
L581 26631
" />
<path d="M467 26678
L523 26652
" />
<path d="M413 26708
L467 26678
" />
<path d="M361 26742
L413 26708
" />
<path d="M313 26781
L361 26742
" />
<path d="M268 26823
L313 26781
" />
<path d="M226 26868
L268 26823
" />
<path d="M187 26916
L226 26868
" />
<path d="M153 26968
L187 26916
" />
<path d="M123 27022
L153 26968
" />
<path d="M97 27078
L123 27022
" />
<path d="M75 27136
L97 27078
" />
<path d="M59 27196
L75 27136
" />
<path d="M47 27256
L59 27196
" />
<path d="M40 27318
L47 27256
" />
<path d="M37 27380
L40 27318
" />
<path d="M37 58168
L37 27380
" />
<path d="M40 58229
L37 58168
" />
<path d="M47 58290
L40 58229
" />
<path d="M59 58351
L47 58290
" />
<path d="M75 58411
L59 58351
" />
<path d="M97 58469
L75 58411
" />
<path d="M123 58525
L97 58469
" />
<path d="M153 58578
L123 58525
" />
<path d="M187 58630
L153 58578
" />
<path d="M226 58679
L187 58630
" />
<path d="M268 58724
L226 58679
" />
<path d="M313 58766
L268 58724
" />
<path d="M361 58805
L313 58766
" />
<path d="M413 58839
L361 58805
" />
<path d="M467 58869
L413 58839
" />
<path d="M523 58895
L467 58869
" />
<path d="M581 58916
L523 58895
" />
<path d="M641 58933
L581 58916
" />
<path d="M701 58945
L641 58933
" />
<path d="M763 58952
L701 58945
" />
<path d="M825 58955
L763 58952
" />
<path d="M127237 58954
L825 58955
" />
<path d="M127299 58952
L127237 58954
" />
<path d="M127360 58945
L127299 58952
" />
<path d="M127421 58933
L127360 58945
" />
<path d="M127481 58916
L127421 58933
" />
<path d="M127538 58895
L127481 58916
" />
<path d="M127594 58869
L127538 58895
" />
<path d="M127649 58839
L127594 58869
" />
<path d="M127700 58805
L127649 58839
" />
<path d="M127749 58766
L127700 58805
" />
<path d="M127794 58724
L127749 58766
" />
<path d="M127836 58679
L127794 58724
" />
<path d="M127874 58630
L127836 58679
" />
<path d="M127909 58578
L127874 58630
" />
<path d="M127938 58525
L127909 58578
" />
<path d="M127964 58469
L127938 58525
" />
<path d="M127986 58411
L127964 58469
" />
<path d="M128003 58351
L127986 58411
" />
<path d="M128015 58290
L128003 58351
" />
<path d="M128022 58229
L128015 58290
" />
<path d="M128025 58168
L128022 58229
" />
<path d="M128025 27380
L128025 58168
" />
<path d="M128022 27318
L128025 27380
" />
<path d="M128015 27256
L128022 27318
" />
<path d="M128003 27196
L128015 27256
" />
<path d="M127986 27136
L128003 27196
" />
<path d="M127964 27078
L127986 27136
" />
<path d="M127938 27022
L127964 27078
" />
<path d="M127909 26968
L127938 27022
" />
<path d="M127874 26916
L127909 26968
" />
<path d="M127836 26868
L127874 26916
" />
<path d="M127794 26823
L127836 26868
" />
<path d="M127749 26781
L127794 26823
" />
<path d="M127700 26742
L127749 26781
" />
<path d="M127649 26708
L127700 26742
" />
<path d="M127594 26678
L127649 26708
" />
<path d="M127538 26652
L127594 26678
" />
<path d="M127481 26631
L127538 26652
" />
<path d="M127421 26614
L127481 26631
" />
<path d="M127360 26602
L127421 26614
" />
<path d="M127299 26595
L127360 26602
" />
<path d="M127237 26592
L127299 26595
" />
<g >
</g>
<g >
</g>
<g >
</g>
<g >
</g>
</g> 
</svg>
