<?xml version="1.0" standalone="no"?>
 <!DOCTYPE svg PUBLIC "-//W3C//DTD SVG 1.1//EN" 
 "http://www.w3.org/Graphics/SVG/1.1/DTD/svg11.dtd"> 
<svg xmlns="http://www.w3.org/2000/svg" version="1.1" 
    width="29.7002cm" height="21.0007cm" viewBox="0 0 116930 82680 ">
<title>SVG Picture created as augio_switchplate-B_SilkS.svg date 2020/04/28 20:42:29 </title>
  <desc>Picture generated by PCBNEW </desc>
<g style="fill:#000000; fill-opacity:1;stroke:#000000; stroke-opacity:1;
stroke-linecap:round; stroke-linejoin:round; "
 transform="translate(0 0) scale(1 1)">
</g>
<g style="fill:#000000; fill-opacity:0.0; 
stroke:#000000; stroke-width:-0.000393701; stroke-opacity:1; 
stroke-linecap:round; stroke-linejoin:round;">
</g>
<g style="fill:#000000; fill-opacity:0.0; 
stroke:#000000; stroke-width:39.3701; stroke-opacity:1; 
stroke-linecap:round; stroke-linejoin:round;">
</g>
<g style="fill:#000000; fill-opacity:0.0; 
stroke:#000000; stroke-width:59.0551; stroke-opacity:1; 
stroke-linecap:round; stroke-linejoin:round;">
<rect x="69685.9" y="65357.2" width="42519.7" height="12598.4" rx="0" />
</g>
<g style="fill:#000000; fill-opacity:0.0; 
stroke:#000000; stroke-width:39.3701; stroke-opacity:1; 
stroke-linecap:round; stroke-linejoin:round;">
</g>
<g style="fill:#000000; fill-opacity:0.0; 
stroke:#000000; stroke-width:59.0551; stroke-opacity:1; 
stroke-linecap:round; stroke-linejoin:round;">
<rect x="3937.01" y="3937.01" width="109056" height="74806" rx="0" />
</g>
<g style="fill:#000000; fill-opacity:0.0; 
stroke:#000000; stroke-width:39.3701; stroke-opacity:1; 
stroke-linecap:round; stroke-linejoin:round;">
</g>
<g style="fill:#000000; fill-opacity:0.0; 
stroke:#000000; stroke-width:59.0551; stroke-opacity:1; 
stroke-linecap:round; stroke-linejoin:round;">
<rect x="4724.41" y="4724.41" width="107481" height="73231.2" rx="0" />
</g>
<g style="fill:#000000; fill-opacity:0.0; 
stroke:#000000; stroke-width:39.3701; stroke-opacity:1; 
stroke-linecap:round; stroke-linejoin:round;">
</g>
<g style="fill:#000000; fill-opacity:0.0; 
stroke:#000000; stroke-width:59.0551; stroke-opacity:1; 
stroke-linecap:round; stroke-linejoin:round;">
<path d="M23622 4724
L23622 3937
" />
</g>
<g style="fill:#000000; fill-opacity:0.0; 
stroke:#000000; stroke-width:39.3701; stroke-opacity:1; 
stroke-linecap:round; stroke-linejoin:round;">
</g>
<g style="fill:#000000; fill-opacity:0.0; 
stroke:#000000; stroke-width:59.0551; stroke-opacity:1; 
stroke-linecap:round; stroke-linejoin:round;">
<path d="M43307 4724
L43307 3937
" />
</g>
<g style="fill:#000000; fill-opacity:0.0; 
stroke:#000000; stroke-width:39.3701; stroke-opacity:1; 
stroke-linecap:round; stroke-linejoin:round;">
</g>
<g style="fill:#000000; fill-opacity:0.0; 
stroke:#000000; stroke-width:59.0551; stroke-opacity:1; 
stroke-linecap:round; stroke-linejoin:round;">
<path d="M62992 4724
L62992 3937
" />
</g>
<g style="fill:#000000; fill-opacity:0.0; 
stroke:#000000; stroke-width:39.3701; stroke-opacity:1; 
stroke-linecap:round; stroke-linejoin:round;">
</g>
<g style="fill:#000000; fill-opacity:0.0; 
stroke:#000000; stroke-width:59.0551; stroke-opacity:1; 
stroke-linecap:round; stroke-linejoin:round;">
<path d="M82677 4724
L82677 3937
" />
</g>
<g style="fill:#000000; fill-opacity:0.0; 
stroke:#000000; stroke-width:39.3701; stroke-opacity:1; 
stroke-linecap:round; stroke-linejoin:round;">
</g>
<g style="fill:#000000; fill-opacity:0.0; 
stroke:#000000; stroke-width:59.0551; stroke-opacity:1; 
stroke-linecap:round; stroke-linejoin:round;">
<path d="M102362 4724
L102362 3937
" />
</g>
<g style="fill:#000000; fill-opacity:0.0; 
stroke:#000000; stroke-width:39.3701; stroke-opacity:1; 
stroke-linecap:round; stroke-linejoin:round;">
</g>
<g style="fill:#000000; fill-opacity:0.0; 
stroke:#000000; stroke-width:59.0551; stroke-opacity:1; 
stroke-linecap:round; stroke-linejoin:round;">
<path d="M14199 4562
L13906 4562
" />
<path d="M14052 4562
L14052 4050
L14004 4123
L13955 4172
L13906 4196
" />
</g>
<g style="fill:#000000; fill-opacity:0.0; 
stroke:#000000; stroke-width:39.3701; stroke-opacity:1; 
stroke-linecap:round; stroke-linejoin:round;">
</g>
<g style="fill:#000000; fill-opacity:0.0; 
stroke:#000000; stroke-width:59.0551; stroke-opacity:1; 
stroke-linecap:round; stroke-linejoin:round;">
<path d="M33591 4099
L33615 4074
L33664 4050
L33786 4050
L33835 4074
L33859 4099
L33884 4147
L33884 4196
L33859 4269
L33567 4562
L33884 4562
" />
</g>
<g style="fill:#000000; fill-opacity:0.0; 
stroke:#000000; stroke-width:39.3701; stroke-opacity:1; 
stroke-linecap:round; stroke-linejoin:round;">
</g>
<g style="fill:#000000; fill-opacity:0.0; 
stroke:#000000; stroke-width:59.0551; stroke-opacity:1; 
stroke-linecap:round; stroke-linejoin:round;">
<path d="M53252 4050
L53569 4050
L53398 4245
L53471 4245
L53520 4269
L53544 4294
L53569 4342
L53569 4464
L53544 4513
L53520 4537
L53471 4562
L53325 4562
L53276 4537
L53252 4513
" />
</g>
<g style="fill:#000000; fill-opacity:0.0; 
stroke:#000000; stroke-width:39.3701; stroke-opacity:1; 
stroke-linecap:round; stroke-linejoin:round;">
</g>
<g style="fill:#000000; fill-opacity:0.0; 
stroke:#000000; stroke-width:59.0551; stroke-opacity:1; 
stroke-linecap:round; stroke-linejoin:round;">
<path d="M73205 4221
L73205 4562
" />
<path d="M73083 4026
L72961 4391
L73278 4391
" />
</g>
<g style="fill:#000000; fill-opacity:0.0; 
stroke:#000000; stroke-width:39.3701; stroke-opacity:1; 
stroke-linecap:round; stroke-linejoin:round;">
</g>
<g style="fill:#000000; fill-opacity:0.0; 
stroke:#000000; stroke-width:59.0551; stroke-opacity:1; 
stroke-linecap:round; stroke-linejoin:round;">
<path d="M92914 4050
L92671 4050
L92646 4294
L92671 4269
L92719 4245
L92841 4245
L92890 4269
L92914 4294
L92939 4342
L92939 4464
L92914 4513
L92890 4537
L92841 4562
L92719 4562
L92671 4537
L92646 4513
" />
</g>
<g style="fill:#000000; fill-opacity:0.0; 
stroke:#000000; stroke-width:39.3701; stroke-opacity:1; 
stroke-linecap:round; stroke-linejoin:round;">
</g>
<g style="fill:#000000; fill-opacity:0.0; 
stroke:#000000; stroke-width:59.0551; stroke-opacity:1; 
stroke-linecap:round; stroke-linejoin:round;">
<path d="M112575 4050
L112477 4050
L112429 4074
L112404 4099
L112356 4172
L112331 4269
L112331 4464
L112356 4513
L112380 4537
L112429 4562
L112526 4562
L112575 4537
L112599 4513
L112624 4464
L112624 4342
L112599 4294
L112575 4269
L112526 4245
L112429 4245
L112380 4269
L112356 4294
L112331 4342
" />
</g>
<g style="fill:#000000; fill-opacity:0.0; 
stroke:#000000; stroke-width:39.3701; stroke-opacity:1; 
stroke-linecap:round; stroke-linejoin:round;">
</g>
<g style="fill:#000000; fill-opacity:0.0; 
stroke:#000000; stroke-width:59.0551; stroke-opacity:1; 
stroke-linecap:round; stroke-linejoin:round;">
<path d="M23622 77955
L23622 78742
" />
</g>
<g style="fill:#000000; fill-opacity:0.0; 
stroke:#000000; stroke-width:39.3701; stroke-opacity:1; 
stroke-linecap:round; stroke-linejoin:round;">
</g>
<g style="fill:#000000; fill-opacity:0.0; 
stroke:#000000; stroke-width:59.0551; stroke-opacity:1; 
stroke-linecap:round; stroke-linejoin:round;">
<path d="M43307 77955
L43307 78742
" />
</g>
<g style="fill:#000000; fill-opacity:0.0; 
stroke:#000000; stroke-width:39.3701; stroke-opacity:1; 
stroke-linecap:round; stroke-linejoin:round;">
</g>
<g style="fill:#000000; fill-opacity:0.0; 
stroke:#000000; stroke-width:59.0551; stroke-opacity:1; 
stroke-linecap:round; stroke-linejoin:round;">
<path d="M62992 77955
L62992 78742
" />
</g>
<g style="fill:#000000; fill-opacity:0.0; 
stroke:#000000; stroke-width:39.3701; stroke-opacity:1; 
stroke-linecap:round; stroke-linejoin:round;">
</g>
<g style="fill:#000000; fill-opacity:0.0; 
stroke:#000000; stroke-width:59.0551; stroke-opacity:1; 
stroke-linecap:round; stroke-linejoin:round;">
<path d="M82677 77955
L82677 78742
" />
</g>
<g style="fill:#000000; fill-opacity:0.0; 
stroke:#000000; stroke-width:39.3701; stroke-opacity:1; 
stroke-linecap:round; stroke-linejoin:round;">
</g>
<g style="fill:#000000; fill-opacity:0.0; 
stroke:#000000; stroke-width:59.0551; stroke-opacity:1; 
stroke-linecap:round; stroke-linejoin:round;">
<path d="M102362 77955
L102362 78742
" />
</g>
<g style="fill:#000000; fill-opacity:0.0; 
stroke:#000000; stroke-width:39.3701; stroke-opacity:1; 
stroke-linecap:round; stroke-linejoin:round;">
</g>
<g style="fill:#000000; fill-opacity:0.0; 
stroke:#000000; stroke-width:59.0551; stroke-opacity:1; 
stroke-linecap:round; stroke-linejoin:round;">
<path d="M14199 78580
L13906 78580
" />
<path d="M14052 78580
L14052 78069
L14004 78142
L13955 78190
L13906 78215
" />
</g>
<g style="fill:#000000; fill-opacity:0.0; 
stroke:#000000; stroke-width:39.3701; stroke-opacity:1; 
stroke-linecap:round; stroke-linejoin:round;">
</g>
<g style="fill:#000000; fill-opacity:0.0; 
stroke:#000000; stroke-width:59.0551; stroke-opacity:1; 
stroke-linecap:round; stroke-linejoin:round;">
<path d="M33591 78117
L33615 78093
L33664 78069
L33786 78069
L33835 78093
L33859 78117
L33884 78166
L33884 78215
L33859 78288
L33567 78580
L33884 78580
" />
</g>
<g style="fill:#000000; fill-opacity:0.0; 
stroke:#000000; stroke-width:39.3701; stroke-opacity:1; 
stroke-linecap:round; stroke-linejoin:round;">
</g>
<g style="fill:#000000; fill-opacity:0.0; 
stroke:#000000; stroke-width:59.0551; stroke-opacity:1; 
stroke-linecap:round; stroke-linejoin:round;">
<path d="M53252 78069
L53569 78069
L53398 78263
L53471 78263
L53520 78288
L53544 78312
L53569 78361
L53569 78483
L53544 78532
L53520 78556
L53471 78580
L53325 78580
L53276 78556
L53252 78532
" />
</g>
<g style="fill:#000000; fill-opacity:0.0; 
stroke:#000000; stroke-width:39.3701; stroke-opacity:1; 
stroke-linecap:round; stroke-linejoin:round;">
</g>
<g style="fill:#000000; fill-opacity:0.0; 
stroke:#000000; stroke-width:59.0551; stroke-opacity:1; 
stroke-linecap:round; stroke-linejoin:round;">
<path d="M73205 78239
L73205 78580
" />
<path d="M73083 78044
L72961 78410
L73278 78410
" />
</g>
<g style="fill:#000000; fill-opacity:0.0; 
stroke:#000000; stroke-width:39.3701; stroke-opacity:1; 
stroke-linecap:round; stroke-linejoin:round;">
</g>
<g style="fill:#000000; fill-opacity:0.0; 
stroke:#000000; stroke-width:59.0551; stroke-opacity:1; 
stroke-linecap:round; stroke-linejoin:round;">
<path d="M92914 78069
L92671 78069
L92646 78312
L92671 78288
L92719 78263
L92841 78263
L92890 78288
L92914 78312
L92939 78361
L92939 78483
L92914 78532
L92890 78556
L92841 78580
L92719 78580
L92671 78556
L92646 78532
" />
</g>
<g style="fill:#000000; fill-opacity:0.0; 
stroke:#000000; stroke-width:39.3701; stroke-opacity:1; 
stroke-linecap:round; stroke-linejoin:round;">
</g>
<g style="fill:#000000; fill-opacity:0.0; 
stroke:#000000; stroke-width:59.0551; stroke-opacity:1; 
stroke-linecap:round; stroke-linejoin:round;">
<path d="M112575 78069
L112477 78069
L112429 78093
L112404 78117
L112356 78190
L112331 78288
L112331 78483
L112356 78532
L112380 78556
L112429 78580
L112526 78580
L112575 78556
L112599 78532
L112624 78483
L112624 78361
L112599 78312
L112575 78288
L112526 78263
L112429 78263
L112380 78288
L112356 78312
L112331 78361
" />
</g>
<g style="fill:#000000; fill-opacity:0.0; 
stroke:#000000; stroke-width:39.3701; stroke-opacity:1; 
stroke-linecap:round; stroke-linejoin:round;">
</g>
<g style="fill:#000000; fill-opacity:0.0; 
stroke:#000000; stroke-width:59.0551; stroke-opacity:1; 
stroke-linecap:round; stroke-linejoin:round;">
<path d="M3937 23622
L4724 23622
" />
</g>
<g style="fill:#000000; fill-opacity:0.0; 
stroke:#000000; stroke-width:39.3701; stroke-opacity:1; 
stroke-linecap:round; stroke-linejoin:round;">
</g>
<g style="fill:#000000; fill-opacity:0.0; 
stroke:#000000; stroke-width:59.0551; stroke-opacity:1; 
stroke-linecap:round; stroke-linejoin:round;">
<path d="M3937 43307
L4724 43307
" />
</g>
<g style="fill:#000000; fill-opacity:0.0; 
stroke:#000000; stroke-width:39.3701; stroke-opacity:1; 
stroke-linecap:round; stroke-linejoin:round;">
</g>
<g style="fill:#000000; fill-opacity:0.0; 
stroke:#000000; stroke-width:59.0551; stroke-opacity:1; 
stroke-linecap:round; stroke-linejoin:round;">
<path d="M3937 62992
L4724 62992
" />
</g>
<g style="fill:#000000; fill-opacity:0.0; 
stroke:#000000; stroke-width:39.3701; stroke-opacity:1; 
stroke-linecap:round; stroke-linejoin:round;">
</g>
<g style="fill:#000000; fill-opacity:0.0; 
stroke:#000000; stroke-width:59.0551; stroke-opacity:1; 
stroke-linecap:round; stroke-linejoin:round;">
<path d="M4208 13864
L4452 13864
" />
<path d="M4160 14011
L4330 13499
L4501 14011
" />
</g>
<g style="fill:#000000; fill-opacity:0.0; 
stroke:#000000; stroke-width:39.3701; stroke-opacity:1; 
stroke-linecap:round; stroke-linejoin:round;">
</g>
<g style="fill:#000000; fill-opacity:0.0; 
stroke:#000000; stroke-width:59.0551; stroke-opacity:1; 
stroke-linecap:round; stroke-linejoin:round;">
<path d="M4367 33428
L4440 33452
L4464 33476
L4489 33525
L4489 33598
L4464 33647
L4440 33671
L4391 33696
L4196 33696
L4196 33184
L4367 33184
L4416 33208
L4440 33233
L4464 33281
L4464 33330
L4440 33379
L4416 33403
L4367 33428
L4196 33428
" />
</g>
<g style="fill:#000000; fill-opacity:0.0; 
stroke:#000000; stroke-width:39.3701; stroke-opacity:1; 
stroke-linecap:round; stroke-linejoin:round;">
</g>
<g style="fill:#000000; fill-opacity:0.0; 
stroke:#000000; stroke-width:59.0551; stroke-opacity:1; 
stroke-linecap:round; stroke-linejoin:round;">
<path d="M4489 53332
L4464 53356
L4391 53381
L4342 53381
L4269 53356
L4221 53308
L4196 53259
L4172 53161
L4172 53088
L4196 52991
L4221 52942
L4269 52893
L4342 52869
L4391 52869
L4464 52893
L4489 52918
" />
</g>
<g style="fill:#000000; fill-opacity:0.0; 
stroke:#000000; stroke-width:39.3701; stroke-opacity:1; 
stroke-linecap:round; stroke-linejoin:round;">
</g>
<g style="fill:#000000; fill-opacity:0.0; 
stroke:#000000; stroke-width:59.0551; stroke-opacity:1; 
stroke-linecap:round; stroke-linejoin:round;">
<path d="M4196 73066
L4196 72554
L4318 72554
L4391 72578
L4440 72627
L4464 72676
L4489 72773
L4489 72846
L4464 72944
L4440 72993
L4391 73041
L4318 73066
L4196 73066
" />
</g>
<g style="fill:#000000; fill-opacity:0.0; 
stroke:#000000; stroke-width:39.3701; stroke-opacity:1; 
stroke-linecap:round; stroke-linejoin:round;">
</g>
<g style="fill:#000000; fill-opacity:0.0; 
stroke:#000000; stroke-width:59.0551; stroke-opacity:1; 
stroke-linecap:round; stroke-linejoin:round;">
<path d="M112992 23622
L112205 23622
" />
</g>
<g style="fill:#000000; fill-opacity:0.0; 
stroke:#000000; stroke-width:39.3701; stroke-opacity:1; 
stroke-linecap:round; stroke-linejoin:round;">
</g>
<g style="fill:#000000; fill-opacity:0.0; 
stroke:#000000; stroke-width:59.0551; stroke-opacity:1; 
stroke-linecap:round; stroke-linejoin:round;">
<path d="M112992 43307
L112205 43307
" />
</g>
<g style="fill:#000000; fill-opacity:0.0; 
stroke:#000000; stroke-width:39.3701; stroke-opacity:1; 
stroke-linecap:round; stroke-linejoin:round;">
</g>
<g style="fill:#000000; fill-opacity:0.0; 
stroke:#000000; stroke-width:59.0551; stroke-opacity:1; 
stroke-linecap:round; stroke-linejoin:round;">
<path d="M112992 62992
L112205 62992
" />
</g>
<g style="fill:#000000; fill-opacity:0.0; 
stroke:#000000; stroke-width:39.3701; stroke-opacity:1; 
stroke-linecap:round; stroke-linejoin:round;">
</g>
<g style="fill:#000000; fill-opacity:0.0; 
stroke:#000000; stroke-width:59.0551; stroke-opacity:1; 
stroke-linecap:round; stroke-linejoin:round;">
<path d="M112477 13864
L112721 13864
" />
<path d="M112428 14011
L112599 13499
L112769 14011
" />
</g>
<g style="fill:#000000; fill-opacity:0.0; 
stroke:#000000; stroke-width:39.3701; stroke-opacity:1; 
stroke-linecap:round; stroke-linejoin:round;">
</g>
<g style="fill:#000000; fill-opacity:0.0; 
stroke:#000000; stroke-width:59.0551; stroke-opacity:1; 
stroke-linecap:round; stroke-linejoin:round;">
<path d="M112635 33428
L112708 33452
L112733 33476
L112757 33525
L112757 33598
L112733 33647
L112708 33671
L112660 33696
L112465 33696
L112465 33184
L112635 33184
L112684 33208
L112708 33233
L112733 33281
L112733 33330
L112708 33379
L112684 33403
L112635 33428
L112465 33428
" />
</g>
<g style="fill:#000000; fill-opacity:0.0; 
stroke:#000000; stroke-width:39.3701; stroke-opacity:1; 
stroke-linecap:round; stroke-linejoin:round;">
</g>
<g style="fill:#000000; fill-opacity:0.0; 
stroke:#000000; stroke-width:59.0551; stroke-opacity:1; 
stroke-linecap:round; stroke-linejoin:round;">
<path d="M112757 53332
L112733 53356
L112660 53381
L112611 53381
L112538 53356
L112489 53308
L112465 53259
L112440 53161
L112440 53088
L112465 52991
L112489 52942
L112538 52893
L112611 52869
L112660 52869
L112733 52893
L112757 52918
" />
</g>
<g style="fill:#000000; fill-opacity:0.0; 
stroke:#000000; stroke-width:39.3701; stroke-opacity:1; 
stroke-linecap:round; stroke-linejoin:round;">
</g>
<g style="fill:#000000; fill-opacity:0.0; 
stroke:#000000; stroke-width:59.0551; stroke-opacity:1; 
stroke-linecap:round; stroke-linejoin:round;">
<path d="M112465 73066
L112465 72554
L112587 72554
L112660 72578
L112708 72627
L112733 72676
L112757 72773
L112757 72846
L112733 72944
L112708 72993
L112660 73041
L112587 73066
L112465 73066
" />
</g>
<g style="fill:#000000; fill-opacity:0.0; 
stroke:#000000; stroke-width:39.3701; stroke-opacity:1; 
stroke-linecap:round; stroke-linejoin:round;">
</g>
<g style="fill:#000000; fill-opacity:0.0; 
stroke:#000000; stroke-width:59.0551; stroke-opacity:1; 
stroke-linecap:round; stroke-linejoin:round;">
<path d="M78911 76293
L78911 75703
L79051 75703
L79136 75731
L79192 75787
L79220 75843
L79248 75956
L79248 76040
L79220 76153
L79192 76209
L79136 76265
L79051 76293
L78911 76293
" />
<path d="M79754 76293
L79754 75984
L79726 75928
L79670 75899
L79557 75899
L79501 75928
" />
<path d="M79754 76265
L79698 76293
L79557 76293
L79501 76265
L79473 76209
L79473 76153
L79501 76096
L79557 76068
L79698 76068
L79754 76040
" />
<path d="M79951 75899
L80176 75899
" />
<path d="M80036 75703
L80036 76209
L80064 76265
L80120 76293
L80176 76293
" />
<path d="M80598 76265
L80542 76293
L80429 76293
L80373 76265
L80345 76209
L80345 75984
L80373 75928
L80429 75899
L80542 75899
L80598 75928
L80626 75984
L80626 76040
L80345 76096
" />
<path d="M80879 76237
L80907 76265
L80879 76293
L80851 76265
L80879 76237
L80879 76293
" />
<path d="M80879 75928
L80907 75956
L80879 75984
L80851 75956
L80879 75928
L80879 75984
" />
</g>
<g style="fill:#000000; fill-opacity:0.0; 
stroke:#000000; stroke-width:39.3701; stroke-opacity:1; 
stroke-linecap:round; stroke-linejoin:round;">
</g>
<g style="fill:#000000; fill-opacity:0.0; 
stroke:#000000; stroke-width:59.0551; stroke-opacity:1; 
stroke-linecap:round; stroke-linejoin:round;">
<path d="M69685 76577
L112205 76577
" />
</g>
<g style="fill:#000000; fill-opacity:0.0; 
stroke:#000000; stroke-width:39.3701; stroke-opacity:1; 
stroke-linecap:round; stroke-linejoin:round;">
</g>
<g style="fill:#000000; fill-opacity:0.0; 
stroke:#000000; stroke-width:59.0551; stroke-opacity:1; 
stroke-linecap:round; stroke-linejoin:round;">
<path d="M70249 77395
L70249 76805
" />
<path d="M70587 77395
L70334 77058
" />
<path d="M70587 76805
L70249 77142
" />
<path d="M70840 77395
L70840 77002
" />
<path d="M70840 76805
L70812 76833
L70840 76861
L70868 76833
L70840 76805
L70840 76861
" />
<path d="M71458 77339
L71430 77367
L71346 77395
L71290 77395
L71205 77367
L71149 77311
L71121 77255
L71093 77142
L71093 77058
L71121 76946
L71149 76889
L71205 76833
L71290 76805
L71346 76805
L71430 76833
L71458 76861
" />
<path d="M71965 77395
L71965 77086
L71937 77030
L71880 77002
L71768 77002
L71712 77030
" />
<path d="M71965 77367
L71908 77395
L71768 77395
L71712 77367
L71683 77311
L71683 77255
L71712 77199
L71768 77171
L71908 77171
L71965 77142
" />
<path d="M72499 77395
L72499 76805
" />
<path d="M72499 77367
L72443 77395
L72330 77395
L72274 77367
L72246 77339
L72218 77283
L72218 77114
L72246 77058
L72274 77030
L72330 77002
L72443 77002
L72499 77030
" />
<path d="M73230 77086
L73427 77086
" />
<path d="M73511 77395
L73230 77395
L73230 76805
L73511 76805
" />
<path d="M73764 77339
L73793 77367
L73764 77395
L73736 77367
L73764 77339
L73764 77395
" />
<path d="M74046 77395
L74046 76805
L74186 76805
L74271 76833
L74327 76889
L74355 76946
L74383 77058
L74383 77142
L74355 77255
L74327 77311
L74271 77367
L74186 77395
L74046 77395
" />
<path d="M74636 77339
L74664 77367
L74636 77395
L74608 77367
L74636 77339
L74636 77395
" />
<path d="M74889 77227
L75171 77227
" />
<path d="M74833 77395
L75030 76805
L75227 77395
" />
<path d="M75424 77339
L75452 77367
L75424 77395
L75395 77367
L75424 77339
L75424 77395
" />
<path d="M76605 77395
L76605 76805
" />
<path d="M76661 77171
L76830 77395
" />
<path d="M76830 77002
L76605 77227
" />
<path d="M77083 77395
L77083 77002
" />
<path d="M77083 76805
L77055 76833
L77083 76861
L77111 76833
L77083 76805
L77083 76861
" />
<path d="M77617 77367
L77561 77395
L77448 77395
L77392 77367
L77364 77339
L77336 77283
L77336 77114
L77364 77058
L77392 77030
L77448 77002
L77561 77002
L77617 77030
" />
<path d="M78123 77395
L78123 77086
L78095 77030
L78039 77002
L77926 77002
L77870 77030
" />
<path d="M78123 77367
L78067 77395
L77926 77395
L77870 77367
L77842 77311
L77842 77255
L77870 77199
L77926 77171
L78067 77171
L78123 77142
" />
<path d="M78658 77395
L78658 76805
" />
<path d="M78658 77367
L78601 77395
L78489 77395
L78433 77367
L78404 77339
L78376 77283
L78376 77114
L78404 77058
L78433 77030
L78489 77002
L78601 77002
L78658 77030
" />
<path d="M79557 77620
L79529 77592
L79473 77508
L79445 77452
L79417 77367
L79389 77227
L79389 77114
L79417 76974
L79445 76889
L79473 76833
L79529 76749
L79557 76721
" />
<path d="M80064 76805
L79782 76805
L79754 77086
L79782 77058
L79839 77030
L79979 77030
L80036 77058
L80064 77086
L80092 77142
L80092 77283
L80064 77339
L80036 77367
L79979 77395
L79839 77395
L79782 77367
L79754 77339
" />
<path d="M80345 77339
L80373 77367
L80345 77395
L80317 77367
L80345 77339
L80345 77395
" />
<path d="M80935 77395
L80598 77395
" />
<path d="M80767 77395
L80767 76805
L80710 76889
L80654 76946
L80598 76974
" />
<path d="M81188 77339
L81217 77367
L81188 77395
L81160 77367
L81188 77339
L81188 77395
" />
<path d="M81723 77002
L81723 77395
" />
<path d="M81582 76777
L81442 77199
L81807 77199
" />
<path d="M81976 77620
L82004 77592
L82060 77508
L82088 77452
L82117 77367
L82145 77227
L82145 77114
L82117 76974
L82088 76889
L82060 76833
L82004 76749
L81976 76721
" />
<path d="M82426 77171
L82876 77171
" />
<path d="M83466 77395
L83129 77395
" />
<path d="M83298 77395
L83298 76805
L83241 76889
L83185 76946
L83129 76974
" />
</g>
<g style="fill:#000000; fill-opacity:0.0; 
stroke:#000000; stroke-width:39.3701; stroke-opacity:1; 
stroke-linecap:round; stroke-linejoin:round;">
</g>
<g style="fill:#000000; fill-opacity:0.0; 
stroke:#000000; stroke-width:59.0551; stroke-opacity:1; 
stroke-linecap:round; stroke-linejoin:round;">
<path d="M69685 75396
L112205 75396
" />
</g>
<g style="fill:#000000; fill-opacity:0.0; 
stroke:#000000; stroke-width:39.3701; stroke-opacity:1; 
stroke-linecap:round; stroke-linejoin:round;">
</g>
<g style="fill:#000000; fill-opacity:0.0; 
stroke:#000000; stroke-width:118.11; stroke-opacity:1; 
stroke-linecap:round; stroke-linejoin:round;">
<path d="M104099 76293
L103902 76012
" />
<path d="M103761 76293
L103761 75703
L103986 75703
L104042 75731
L104070 75759
L104099 75815
L104099 75899
L104070 75956
L104042 75984
L103986 76012
L103761 76012
" />
<path d="M104577 76265
L104520 76293
L104408 76293
L104352 76265
L104323 76209
L104323 75984
L104352 75928
L104408 75899
L104520 75899
L104577 75928
L104605 75984
L104605 76040
L104323 76096
" />
<path d="M104802 75899
L104942 76293
L105083 75899
" />
<path d="M105308 76237
L105336 76265
L105308 76293
L105280 76265
L105308 76237
L105308 76293
" />
<path d="M105308 75928
L105336 75956
L105308 75984
L105280 75956
L105308 75928
L105308 75984
" />
</g>
<g style="fill:#000000; fill-opacity:0.0; 
stroke:#000000; stroke-width:39.3701; stroke-opacity:1; 
stroke-linecap:round; stroke-linejoin:round;">
</g>
<g style="fill:#000000; fill-opacity:0.0; 
stroke:#000000; stroke-width:59.0551; stroke-opacity:1; 
stroke-linecap:round; stroke-linejoin:round;">
<path d="M70221 76265
L70305 76293
L70446 76293
L70502 76265
L70530 76237
L70559 76181
L70559 76124
L70530 76068
L70502 76040
L70446 76012
L70334 75984
L70277 75956
L70249 75928
L70221 75871
L70221 75815
L70249 75759
L70277 75731
L70334 75703
L70474 75703
L70559 75731
" />
<path d="M70812 76293
L70812 75899
" />
<path d="M70812 75703
L70784 75731
L70812 75759
L70840 75731
L70812 75703
L70812 75759
" />
<path d="M71037 75899
L71346 75899
L71037 76293
L71346 76293
" />
<path d="M71796 76265
L71740 76293
L71627 76293
L71571 76265
L71543 76209
L71543 75984
L71571 75928
L71627 75899
L71740 75899
L71796 75928
L71824 75984
L71824 76040
L71543 76096
" />
<path d="M72077 76237
L72105 76265
L72077 76293
L72049 76265
L72077 76237
L72077 76293
" />
<path d="M72077 75928
L72105 75956
L72077 75984
L72049 75956
L72077 75928
L72077 75984
" />
<path d="M72780 76124
L73061 76124
" />
<path d="M72724 76293
L72921 75703
L73118 76293
" />
<path d="M73568 75899
L73568 76293
" />
<path d="M73427 75674
L73286 76096
L73652 76096
" />
</g>
<g style="fill:#000000; fill-opacity:0.0; 
stroke:#000000; stroke-width:39.3701; stroke-opacity:1; 
stroke-linecap:round; stroke-linejoin:round;">
</g>
<g style="fill:#000000; fill-opacity:0.0; 
stroke:#000000; stroke-width:59.0551; stroke-opacity:1; 
stroke-linecap:round; stroke-linejoin:round;">
<path d="M103714 77395
L103714 76805
" />
<path d="M104248 77395
L104248 76805
" />
<path d="M104248 77367
L104192 77395
L104079 77395
L104023 77367
L103995 77339
L103967 77283
L103967 77114
L103995 77058
L104023 77030
L104079 77002
L104192 77002
L104248 77030
" />
<path d="M104529 77339
L104557 77367
L104529 77395
L104501 77367
L104529 77339
L104529 77395
" />
<path d="M104529 77030
L104557 77058
L104529 77086
L104501 77058
L104529 77030
L104529 77086
" />
<path d="M105570 77395
L105232 77395
" />
<path d="M105401 77395
L105401 76805
L105345 76889
L105289 76946
L105232 76974
" />
<path d="M106245 76777
L105739 77536
" />
<path d="M106751 77395
L106413 77395
" />
<path d="M106582 77395
L106582 76805
L106526 76889
L106470 76946
L106413 76974
" />
</g>
<g style="fill:#000000; fill-opacity:0.0; 
stroke:#000000; stroke-width:39.3701; stroke-opacity:1; 
stroke-linecap:round; stroke-linejoin:round;">
</g>
<g style="fill:#000000; fill-opacity:0.0; 
stroke:#000000; stroke-width:59.0551; stroke-opacity:1; 
stroke-linecap:round; stroke-linejoin:round;">
<path d="M69685 73821
L112205 73821
" />
</g>
<g style="fill:#000000; fill-opacity:0.0; 
stroke:#000000; stroke-width:39.3701; stroke-opacity:1; 
stroke-linecap:round; stroke-linejoin:round;">
</g>
<g style="fill:#000000; fill-opacity:0.0; 
stroke:#000000; stroke-width:157.48; stroke-opacity:1; 
stroke-linecap:round; stroke-linejoin:round;">
<path d="M70360 74099
L70810 74099
" />
<path d="M70486 74886
L70585 74099
" />
<path d="M70974 74886
L71039 74361
" />
<path d="M71072 74099
L71030 74136
L71063 74174
L71105 74136
L71072 74099
L71063 74174
" />
<path d="M71302 74361
L71602 74361
" />
<path d="M71447 74099
L71363 74774
L71391 74849
L71461 74886
L71536 74886
" />
<path d="M71911 74886
L71841 74849
L71813 74774
L71897 74099
" />
<path d="M72516 74849
L72436 74886
L72286 74886
L72216 74849
L72187 74774
L72225 74474
L72272 74399
L72352 74361
L72501 74361
L72572 74399
L72600 74474
L72591 74549
L72206 74624
" />
<path d="M72895 74811
L72928 74849
L72886 74886
L72853 74849
L72895 74811
L72886 74886
" />
<path d="M72947 74399
L72980 74436
L72937 74474
L72905 74436
L72947 74399
L72937 74474
" />
</g>
<g style="fill:#000000; fill-opacity:0.0; 
stroke:#000000; stroke-width:39.3701; stroke-opacity:1; 
stroke-linecap:round; stroke-linejoin:round;">
</g>
<g style="fill:#000000; fill-opacity:0.0; 
stroke:#000000; stroke-width:59.0551; stroke-opacity:1; 
stroke-linecap:round; stroke-linejoin:round;">
<path d="M70446 73070
L70249 73070
" />
<path d="M70249 73380
L70249 72789
L70530 72789
" />
<path d="M70755 73380
L70755 72986
" />
<path d="M70755 72789
L70727 72817
L70755 72845
L70784 72817
L70755 72789
L70755 72845
" />
<path d="M71121 73380
L71065 73352
L71037 73295
L71037 72789
" />
<path d="M71571 73352
L71515 73380
L71402 73380
L71346 73352
L71318 73295
L71318 73070
L71346 73014
L71402 72986
L71515 72986
L71571 73014
L71599 73070
L71599 73127
L71318 73183
" />
<path d="M71852 73323
L71880 73352
L71852 73380
L71824 73352
L71852 73323
L71852 73380
" />
<path d="M71852 73014
L71880 73042
L71852 73070
L71824 73042
L71852 73014
L71852 73070
" />
<path d="M72836 73380
L72836 73070
L72808 73014
L72752 72986
L72640 72986
L72583 73014
" />
<path d="M72836 73352
L72780 73380
L72640 73380
L72583 73352
L72555 73295
L72555 73239
L72583 73183
L72640 73155
L72780 73155
L72836 73127
" />
<path d="M73371 72986
L73371 73380
" />
<path d="M73118 72986
L73118 73295
L73146 73352
L73202 73380
L73286 73380
L73343 73352
L73371 73323
" />
<path d="M73905 72986
L73905 73464
L73877 73520
L73849 73548
L73793 73577
L73708 73577
L73652 73548
" />
<path d="M73905 73352
L73849 73380
L73736 73380
L73680 73352
L73652 73323
L73624 73267
L73624 73099
L73652 73042
L73680 73014
L73736 72986
L73849 72986
L73905 73014
" />
<path d="M74186 73380
L74186 72986
" />
<path d="M74186 72789
L74158 72817
L74186 72845
L74214 72817
L74186 72789
L74186 72845
" />
<path d="M74552 73380
L74496 73352
L74467 73323
L74439 73267
L74439 73099
L74467 73042
L74496 73014
L74552 72986
L74636 72986
L74692 73014
L74721 73042
L74749 73099
L74749 73267
L74721 73323
L74692 73352
L74636 73380
L74552 73380
" />
<path d="M74861 73436
L75311 73436
" />
<path d="M75424 73352
L75480 73380
L75592 73380
L75649 73352
L75677 73295
L75677 73267
L75649 73211
L75592 73183
L75508 73183
L75452 73155
L75424 73099
L75424 73070
L75452 73014
L75508 72986
L75592 72986
L75649 73014
" />
<path d="M75874 72986
L75986 73380
L76099 73099
L76211 73380
L76323 72986
" />
<path d="M76548 73380
L76548 72986
" />
<path d="M76548 72789
L76520 72817
L76548 72845
L76577 72817
L76548 72789
L76548 72845
" />
<path d="M76745 72986
L76970 72986
" />
<path d="M76830 72789
L76830 73295
L76858 73352
L76914 73380
L76970 73380
" />
<path d="M77420 73352
L77364 73380
L77251 73380
L77195 73352
L77167 73323
L77139 73267
L77139 73099
L77167 73042
L77195 73014
L77251 72986
L77364 72986
L77420 73014
" />
<path d="M77673 73380
L77673 72789
" />
<path d="M77926 73380
L77926 73070
L77898 73014
L77842 72986
L77758 72986
L77701 73014
L77673 73042
" />
<path d="M78208 72986
L78208 73577
" />
<path d="M78208 73014
L78264 72986
L78376 72986
L78433 73014
L78461 73042
L78489 73099
L78489 73267
L78461 73323
L78433 73352
L78376 73380
L78264 73380
L78208 73352
" />
<path d="M78826 73380
L78770 73352
L78742 73295
L78742 72789
" />
<path d="M79304 73380
L79304 73070
L79276 73014
L79220 72986
L79108 72986
L79051 73014
" />
<path d="M79304 73352
L79248 73380
L79108 73380
L79051 73352
L79023 73295
L79023 73239
L79051 73183
L79108 73155
L79248 73155
L79304 73127
" />
<path d="M79501 72986
L79726 72986
" />
<path d="M79586 72789
L79586 73295
L79614 73352
L79670 73380
L79726 73380
" />
<path d="M80148 73352
L80092 73380
L79979 73380
L79923 73352
L79895 73295
L79895 73070
L79923 73014
L79979 72986
L80092 72986
L80148 73014
L80176 73070
L80176 73127
L79895 73183
" />
<path d="M80429 73323
L80457 73352
L80429 73380
L80401 73352
L80429 73323
L80429 73380
" />
<path d="M80710 73380
L80710 72789
" />
<path d="M80767 73155
L80935 73380
" />
<path d="M80935 72986
L80710 73211
" />
<path d="M81188 73380
L81188 72986
" />
<path d="M81188 72789
L81160 72817
L81188 72845
L81217 72817
L81188 72789
L81188 72845
" />
<path d="M81723 73352
L81667 73380
L81554 73380
L81498 73352
L81470 73323
L81442 73267
L81442 73099
L81470 73042
L81498 73014
L81554 72986
L81667 72986
L81723 73014
" />
<path d="M82229 73380
L82229 73070
L82201 73014
L82145 72986
L82032 72986
L81976 73014
" />
<path d="M82229 73352
L82173 73380
L82032 73380
L81976 73352
L81948 73295
L81948 73239
L81976 73183
L82032 73155
L82173 73155
L82229 73127
" />
<path d="M82763 73380
L82763 72789
" />
<path d="M82763 73352
L82707 73380
L82595 73380
L82538 73352
L82510 73323
L82482 73267
L82482 73099
L82510 73042
L82538 73014
L82595 72986
L82707 72986
L82763 73014
" />
<path d="M82904 73436
L83354 73436
" />
<path d="M83494 72986
L83494 73577
" />
<path d="M83494 73014
L83551 72986
L83663 72986
L83719 73014
L83748 73042
L83776 73099
L83776 73267
L83748 73323
L83719 73352
L83663 73380
L83551 73380
L83494 73352
" />
<path d="M84282 73352
L84226 73380
L84113 73380
L84057 73352
L84029 73323
L84001 73267
L84001 73099
L84029 73042
L84057 73014
L84113 72986
L84226 72986
L84282 73014
" />
<path d="M84535 73380
L84535 72789
" />
<path d="M84535 73014
L84591 72986
L84704 72986
L84760 73014
L84788 73042
L84816 73099
L84816 73267
L84788 73323
L84760 73352
L84704 73380
L84591 73380
L84535 73352
" />
</g>
<g style="fill:#000000; fill-opacity:0.0; 
stroke:#000000; stroke-width:39.3701; stroke-opacity:1; 
stroke-linecap:round; stroke-linejoin:round;">
</g>
<g style="fill:#000000; fill-opacity:0.0; 
stroke:#000000; stroke-width:59.0551; stroke-opacity:1; 
stroke-linecap:round; stroke-linejoin:round;">
<path d="M69685 71459
L112205 71459
" />
</g>
<g style="fill:#000000; fill-opacity:0.0; 
stroke:#000000; stroke-width:39.3701; stroke-opacity:1; 
stroke-linecap:round; stroke-linejoin:round;">
</g>
<g style="fill:#000000; fill-opacity:0.0; 
stroke:#000000; stroke-width:59.0551; stroke-opacity:1; 
stroke-linecap:round; stroke-linejoin:round;">
<path d="M70221 72289
L70305 72317
L70446 72317
L70502 72289
L70530 72260
L70559 72204
L70559 72148
L70530 72092
L70502 72064
L70446 72036
L70334 72007
L70277 71979
L70249 71951
L70221 71895
L70221 71839
L70249 71782
L70277 71754
L70334 71726
L70474 71726
L70559 71754
" />
<path d="M70812 72317
L70812 71726
" />
<path d="M71065 72317
L71065 72007
L71037 71951
L70980 71923
L70896 71923
L70840 71951
L70812 71979
" />
<path d="M71571 72289
L71515 72317
L71402 72317
L71346 72289
L71318 72232
L71318 72007
L71346 71951
L71402 71923
L71515 71923
L71571 71951
L71599 72007
L71599 72064
L71318 72120
" />
<path d="M72077 72289
L72021 72317
L71908 72317
L71852 72289
L71824 72232
L71824 72007
L71852 71951
L71908 71923
L72021 71923
L72077 71951
L72105 72007
L72105 72064
L71824 72120
" />
<path d="M72274 71923
L72499 71923
" />
<path d="M72358 71726
L72358 72232
L72386 72289
L72443 72317
L72499 72317
" />
<path d="M72696 72260
L72724 72289
L72696 72317
L72668 72289
L72696 72260
L72696 72317
" />
<path d="M72696 71951
L72724 71979
L72696 72007
L72668 71979
L72696 71951
L72696 72007
" />
</g>
<g style="fill:#000000; fill-opacity:0.0; 
stroke:#000000; stroke-width:39.3701; stroke-opacity:1; 
stroke-linecap:round; stroke-linejoin:round;">
</g>
<g style="fill:#000000; fill-opacity:0.0; 
stroke:#000000; stroke-width:59.0551; stroke-opacity:1; 
stroke-linecap:round; stroke-linejoin:round;">
<path d="M77559 75396
L77559 76577
" />
</g>
<g style="fill:#000000; fill-opacity:0.0; 
stroke:#000000; stroke-width:39.3701; stroke-opacity:1; 
stroke-linecap:round; stroke-linejoin:round;">
</g>
<g style="fill:#000000; fill-opacity:0.0; 
stroke:#000000; stroke-width:59.0551; stroke-opacity:1; 
stroke-linecap:round; stroke-linejoin:round;">
<path d="M102756 75396
L102756 77955
" />
</g>
<g style="fill:#840084; fill-opacity:0.0; 
stroke:#840084; stroke-width:59.0551; stroke-opacity:1; 
stroke-linecap:round; stroke-linejoin:round;">
</g>
<g style="fill:#840084; fill-opacity:1.0; 
stroke:#840084; stroke-width:3.93701; stroke-opacity:1; 
stroke-linecap:round; stroke-linejoin:round;">
<path style="fill:#840084; fill-opacity:1.0; 
stroke:#840084; stroke-width:3.93701; stroke-opacity:1; 
stroke-linecap:round; stroke-linejoin:round;fill-rule:evenodd;"
d="M 80079,44375
80128,44518
80200,44629
80256,44660
80342,44673
80440,44668
80525,44647
80631,44583
80722,44485
80787,44366
80796,44338
80822,44236
80828,44155
80815,44071
80794,43997
80733,43871
80643,43783
80530,43735
80471,43733
80471,43898
80630,43898
80641,43979
80651,44103
80649,44226
80637,44334
80615,44415
80597,44446
80528,44488
80438,44496
80342,44470
80333,44466
80270,44408
80233,44317
80222,44205
80239,44081
80276,43979
80299,43935
80326,43911
80371,43901
80448,43898
80471,43898
80471,43733
80401,43731
80278,43767
80193,43816
80135,43884
80111,43928
80069,44065
80059,44219
80079,44375
Z" /> 
<path style="fill:#840084; fill-opacity:1.0; 
stroke:#840084; stroke-width:3.93701; stroke-opacity:1; 
stroke-linecap:round; stroke-linejoin:round;fill-rule:evenodd;"
d="M 79290,33917
79310,33991
79335,34068
79366,34152
79393,34201
79425,34225
79466,34236
79540,34237
79629,34224
79658,34217
79770,34184
79777,33982
79779,33871
79772,33800
79757,33760
79749,33751
79707,33742
79651,33746
79651,33828
79675,33856
79682,33922
79683,33973
79680,34060
79669,34112
79644,34145
79623,34161
79551,34183
79480,34162
79425,34103
79411,34071
79395,33988
79420,33927
79488,33879
79516,33867
79601,33834
79651,33828
79651,33746
79636,33747
79547,33763
79454,33787
79370,33816
79309,33846
79283,33872
79283,33874
79290,33917
Z" /> 
<path style="fill:#840084; fill-opacity:1.0; 
stroke:#840084; stroke-width:3.93701; stroke-opacity:1; 
stroke-linecap:round; stroke-linejoin:round;fill-rule:evenodd;"
d="M 78604,41935
78612,42061
78619,42117
78637,42223
79083,42223
79228,42222
79354,42219
79455,42213
79521,42207
79544,42200
79556,42164
79573,42096
79583,42046
79602,41959
79626,41902
79665,41869
79729,41853
79828,41848
79889,41848
80005,41852
80139,41863
80278,41879
80411,41898
80526,41919
80609,41940
80639,41952
80675,41998
80678,42081
80648,42201
80641,42222
80619,42298
80611,42358
80613,42377
80644,42405
80707,42437
80765,42458
80839,42477
80940,42497
81057,42516
81179,42533
81296,42546
81397,42555
81471,42559
81509,42554
81510,42553
81532,42504
81551,42412
81567,42286
81580,42131
81590,41956
81595,41769
81597,41575
81594,41384
81586,41202
81582,41139
81573,41023
81564,40926
81556,40859
81550,40832
81517,40821
81445,40808
81344,40793
81223,40779
81092,40766
81026,40760
80808,40744
80808,40814
80798,40883
80774,40966
80765,40988
80723,41091
80334,41123
80106,41139
79922,41145
79778,41140
79670,41123
79592,41094
79539,41050
79508,40992
79499,40960
79481,40874
79463,40794
79461,40786
79443,40711
79101,40719
79101,40854
79208,40858
79231,40860
79304,40873
79343,40891
79361,40929
79371,40981
79414,41092
79494,41187
79602,41255
79646,41270
79728,41287
79822,41295
79940,41294
80088,41284
80275,41265
80308,41261
80442,41246
80571,41234
80679,41226
80749,41223
80879,41223
80896,41061
80912,40952
80937,40887
80979,40859
81046,40862
81117,40882
81211,40906
81301,40921
81338,40923
81426,40923
81452,41267
81463,41448
81469,41634
81471,41816
81468,41986
81461,42134
81451,42252
81436,42331
81433,42343
81409,42396
81378,42415
81322,42409
81311,42407
81241,42399
81142,42392
81033,42388
81020,42388
80820,42386
80819,42161
80818,42055
80816,41966
80814,41907
80813,41895
80785,41863
80713,41831
80605,41802
80467,41775
80306,41753
80127,41736
79939,41726
79777,41723
79519,41723
79487,41842
79466,41924
79452,41994
79450,42015
79444,42040
79426,42060
79388,42075
79325,42086
79229,42097
79092,42108
79030,42113
78897,42119
78812,42116
78774,42104
78773,42103
78757,42051
78746,41963
78740,41853
78739,41734
78745,41621
78756,41527
78758,41519
78774,41415
78786,41287
78792,41159
78793,41141
78796,41024
78806,40949
78821,40909
78831,40899
78895,40876
78991,40860
79101,40854
79101,40719
79069,40720
78938,40723
78826,40727
78742,40731
78695,40734
78688,40735
78683,40761
78673,40827
78660,40923
78645,41041
78642,41064
78626,41231
78613,41414
78605,41600
78602,41777
78604,41935
Z" /> 
<path style="fill:#840084; fill-opacity:1.0; 
stroke:#840084; stroke-width:3.93701; stroke-opacity:1; 
stroke-linecap:round; stroke-linejoin:round;fill-rule:evenodd;"
d="M 78584,33612
78594,33739
78608,33881
78625,34031
78644,34178
78664,34316
78684,34435
78698,34503
78720,34592
78740,34644
78766,34671
78805,34685
78816,34687
78859,34698
78945,34720
79065,34752
79213,34792
79381,34837
79565,34887
79620,34902
79865,34968
80105,35029
80332,35086
80542,35136
80729,35179
80887,35212
81011,35236
81094,35247
81115,35248
81129,35242
81100,35225
81036,35199
80942,35166
80825,35129
80691,35088
80546,35047
80397,35006
80249,34968
80110,34934
80047,34921
79779,34861
79556,34806
79371,34754
79219,34703
79096,34650
78995,34594
78912,34532
78840,34463
78830,34451
78751,34344
78699,34226
78669,34087
78661,33917
78664,33803
78675,33660
78690,33562
78709,33512
78711,33509
78748,33489
78826,33457
78939,33415
79083,33364
79249,33308
79432,33247
79627,33184
79826,33120
80024,33059
80214,33001
80390,32950
80547,32906
80658,32877
80871,32824
81063,32780
81227,32744
81360,32719
81456,32704
81511,32701
81522,32704
81529,32735
81534,32805
81537,32901
81539,33013
81538,33129
81535,33238
81530,33328
81524,33382
81508,33457
81481,33502
81430,33535
81393,33552
81326,33576
81224,33606
81099,33638
80965,33669
80947,33673
80743,33720
80582,33766
80459,33814
80365,33865
80296,33922
80295,33924
80251,33975
80240,34014
80254,34064
80256,34070
80293,34142
80339,34199
80403,34242
80489,34273
80606,34295
80758,34310
80954,34321
80970,34321
81152,34330
81291,34340
81393,34354
81465,34375
81513,34404
81544,34445
81565,34499
81574,34536
81595,34661
81604,34796
81601,34926
81587,35034
81573,35083
81515,35174
81431,35229
81313,35251
81296,35252
81236,35254
81215,35257
81236,35262
81301,35272
81356,35279
81452,35291
81512,35294
81548,35285
81574,35264
81587,35249
81636,35161
81674,35039
81698,34898
81707,34753
81697,34621
81691,34586
81658,34466
81620,34367
81582,34297
81556,34273
81517,34263
81437,34253
81324,34243
81190,34234
81064,34227
80894,34219
80765,34210
80670,34200
80600,34187
80548,34171
80521,34159
80459,34124
80420,34092
80415,34084
80423,34039
80462,33977
80520,33910
80587,33853
80621,33831
80693,33801
80795,33769
80908,33741
80933,33736
81124,33698
81273,33666
81385,33636
81468,33608
81526,33579
81559,33555
81633,33494
81633,33147
81631,33008
81625,32876
81618,32764
81608,32686
81606,32678
81588,32605
81567,32570
81537,32562
81525,32563
81477,32569
81393,32580
81288,32592
81233,32599
80947,32642
80643,32705
80316,32790
79961,32898
79574,33030
79156,33186
78999,33246
78859,33301
78740,33347
78651,33382
78597,33404
78585,33409
78579,33439
78578,33509
78584,33612
Z" /> 
<path style="fill:#840084; fill-opacity:1.0; 
stroke:#840084; stroke-width:3.93701; stroke-opacity:1; 
stroke-linecap:round; stroke-linejoin:round;fill-rule:evenodd;"
d="M 78657,39617
78716,39841
78773,39969
78824,40070
78864,40140
78902,40184
78949,40207
79016,40215
79112,40210
79247,40200
79255,40199
79440,40181
79581,40157
79675,40128
79722,40094
79726,40065
79678,39927
79650,39814
79636,39709
79635,39593
79636,39563
79644,39451
79657,39371
79681,39305
79720,39236
79821,39118
79952,39030
80104,38971
80267,38942
80432,38944
80591,38978
80732,39044
80848,39143
80869,39168
80912,39261
80930,39378
80922,39501
80888,39612
80885,39619
80850,39680
80823,39718
80815,39723
80771,39699
80722,39630
80671,39520
80644,39446
80590,39306
80532,39211
80463,39154
80377,39129
80286,39129
80200,39142
80140,39168
80097,39219
80062,39303
80041,39371
80018,39498
80009,39657
80013,39831
80030,40003
80059,40158
80086,40246
80133,40354
80188,40429
80263,40481
80371,40521
80433,40538
80644,40567
80850,40550
81047,40488
81229,40385
81392,40243
81531,40066
81643,39857
81694,39720
81738,39548
81764,39367
81772,39194
81759,39048
81759,39048
81691,38809
81586,38601
81443,38425
81266,38283
81057,38177
80817,38107
80548,38075
80462,38073
80433,38075
80433,38319
80714,38344
80975,38402
81207,38491
81277,38528
81361,38582
81420,38643
81473,38729
81484,38751
81578,38991
81625,39240
81623,39493
81607,39599
81545,39808
81445,39995
81311,40153
81149,40275
81076,40313
80993,40348
80920,40369
80839,40380
80732,40384
80683,40384
80565,40381
80455,40373
80369,40360
80345,40354
80245,40324
80201,40043
80176,39854
80162,39689
80159,39553
80168,39453
80188,39395
80189,39394
80231,39356
80294,39313
80303,39308
80359,39279
80389,39275
80413,39297
80419,39305
80438,39349
80461,39428
80484,39527
80491,39564
80521,39703
80555,39795
80599,39845
80662,39857
80748,39835
80862,39783
80984,39699
81065,39593
81101,39470
81090,39337
81082,39307
81003,39142
80887,38999
80740,38880
80573,38791
80392,38735
80207,38715
80026,38736
79913,38773
79839,38813
79778,38865
79728,38937
79686,39032
79650,39158
79619,39319
79589,39520
79571,39673
79552,39825
79533,39934
79510,40006
79480,40048
79438,40066
79381,40068
79335,40063
79241,40054
79133,40049
79094,40048
78963,40048
78893,39879
78860,39793
78839,39717
78827,39634
78822,39527
78821,39448
78822,39325
78827,39238
78839,39170
78860,39108
78891,39041
79004,38866
79159,38710
79349,38575
79570,38465
79815,38384
80079,38334
80140,38328
80433,38319
80433,38075
80144,38096
79840,38162
79555,38270
79293,38418
79060,38603
78903,38769
78770,38966
78684,39175
78646,39394
78657,39617
Z" /> 
<path style="fill:#840084; fill-opacity:1.0; 
stroke:#840084; stroke-width:3.93701; stroke-opacity:1; 
stroke-linecap:round; stroke-linejoin:round;fill-rule:evenodd;"
d="M 78747,37639
78761,37706
78786,37739
78837,37756
78854,37759
79330,37832
79765,37877
80160,37894
80513,37882
80826,37842
80970,37811
81201,37732
81406,37623
81580,37487
81716,37329
81785,37211
81855,37015
81895,36798
81902,36581
81891,36473
81866,36316
81842,36195
81812,36098
81771,36011
81715,35921
81637,35815
81600,35767
81533,35683
81476,35622
81419,35578
81377,35560
81377,35748
81477,35942
81570,36142
81637,36330
81667,36448
81675,36536
81675,36651
81666,36777
81652,36897
81633,36995
81620,37036
81518,37215
81376,37375
81258,37471
81047,37597
80819,37687
80569,37744
80289,37768
80072,37767
79797,37746
79554,37704
79330,37637
79113,37544
79016,37496
78958,37463
78931,37440
78930,37420
78946,37397
78950,37392
78982,37334
78991,37245
78990,37223
78990,37149
79002,37108
79033,37085
79053,37076
79139,37048
79245,37024
79379,37004
79549,36986
79711,36974
79920,36957
80087,36939
80220,36918
80327,36894
80416,36864
80493,36827
80600,36748
80668,36651
80694,36546
80677,36441
80616,36344
80599,36326
80538,36283
80458,36253
80354,36236
80219,36231
80048,36238
79842,36255
79638,36272
79475,36280
79348,36277
79248,36264
79169,36239
79114,36209
79062,36159
79023,36094
79002,36030
79010,35983
79011,35982
79045,35962
79115,35936
79205,35908
79227,35903
79464,35849
79721,35807
80005,35777
80322,35758
80680,35749
80849,35748
81377,35748
81377,35560
81351,35548
81263,35527
81145,35510
80997,35494
80898,35485
80793,35480
80679,35479
80548,35483
80394,35491
80213,35504
79997,35522
79741,35546
79570,35562
79417,35575
79265,35586
79128,35592
79021,35594
78988,35593
78894,35590
78838,35593
78809,35605
78795,35629
78791,35644
78789,35697
78797,35781
78815,35879
78817,35889
78838,36009
78853,36137
78858,36234
78858,36394
79019,36411
79118,36416
79258,36412
79429,36402
79601,36386
79771,36370
79902,36361
80003,36358
80086,36360
80159,36369
80182,36373
80283,36397
80389,36432
80482,36470
80547,36507
80556,36514
80549,36538
80513,36581
80456,36632
80389,36683
80345,36711
80260,36755
80168,36790
80061,36817
79933,36838
79775,36853
79582,36864
79370,36871
78820,36886
78804,37061
78791,37179
78773,37305
78760,37386
78747,37488
78744,37588
78747,37639
Z" /> 
<path style="fill:#840084; fill-opacity:1.0; 
stroke:#840084; stroke-width:3.93701; stroke-opacity:1; 
stroke-linecap:round; stroke-linejoin:round;fill-rule:evenodd;"
d="M 78881,44496
78937,44709
79016,44880
79140,45044
79299,45179
79486,45284
79698,45360
79927,45405
80168,45421
80415,45408
80664,45365
80908,45292
81141,45190
81359,45058
81555,44897
81578,44874
81745,44675
81872,44453
81958,44216
82000,43970
81996,43723
81972,43583
81898,43365
81782,43173
81628,43009
81439,42876
81218,42778
81052,42732
80889,42710
80696,42703
80491,42712
80461,42715
80461,42805
80723,42809
80960,42855
81171,42939
81351,43058
81499,43208
81611,43386
81686,43590
81719,43815
81709,44058
81666,44273
81587,44485
81470,44690
81325,44879
81160,45040
80981,45165
80931,45192
80758,45265
80588,45313
80405,45338
80195,45343
80120,45341
79922,45329
79770,45307
79657,45277
79581,45234
79536,45180
79531,45170
79506,45121
79458,45041
79394,44939
79320,44826
79292,44785
79192,44635
79118,44517
79066,44422
79032,44342
79013,44267
79004,44190
79002,44111
79020,43916
79074,43735
79168,43563
79306,43391
79417,43280
79653,43089
79901,42947
80162,42853
80436,42807
80461,42805
80461,42715
80293,42734
80118,42770
80108,42773
79832,42872
79580,43002
79358,43160
79171,43343
79025,43545
78986,43616
78910,43815
78867,44036
78858,44267
78881,44496
Z" /> 
<g >
</g>
</g>
<g style="fill:#000000; fill-opacity:1.0; 
stroke:#000000; stroke-width:3.93701; stroke-opacity:1; 
stroke-linecap:round; stroke-linejoin:round;">
</g>
<g style="fill:#C2C200; fill-opacity:1.0; 
stroke:#C2C200; stroke-width:3.93701; stroke-opacity:1; 
stroke-linecap:round; stroke-linejoin:round;">
</g>
<g style="fill:#C2C200; fill-opacity:1.0; 
stroke:#C2C200; stroke-width:78.7402; stroke-opacity:1; 
stroke-linecap:round; stroke-linejoin:round;">
</g>
<g style="fill:#C2C200; fill-opacity:0.0; 
stroke:#C2C200; stroke-width:78.7402; stroke-opacity:1; 
stroke-linecap:round; stroke-linejoin:round;">
<path d="M7724 28767
L2212 28767
" />
<path d="M7724 29003
L7724 28767
" />
<path d="M8039 29003
L7724 29003
" />
<path d="M8039 34043
L8039 29003
" />
<path d="M7724 34043
L8039 34043
" />
<path d="M7724 34279
L7724 34043
" />
<path d="M2212 34279
L7724 34279
" />
<path d="M2212 34043
L2212 34279
" />
<path d="M1897 34043
L2212 34043
" />
<path d="M1897 29003
L1897 34043
" />
<path d="M2212 29003
L1897 29003
" />
<path d="M2212 28767
L2212 29003
" />
<path d="M15224 28767
L9712 28767
" />
<path d="M15224 29003
L15224 28767
" />
<path d="M15539 29003
L15224 29003
" />
<path d="M15539 34043
L15539 29003
" />
<path d="M15224 34043
L15539 34043
" />
<path d="M15224 34279
L15224 34043
" />
<path d="M9712 34279
L15224 34279
" />
<path d="M9712 34043
L9712 34279
" />
<path d="M9397 34043
L9712 34043
" />
<path d="M9397 29003
L9397 34043
" />
<path d="M9712 29003
L9397 29003
" />
<path d="M9712 28767
L9712 29003
" />
<path d="M22724 28767
L17213 28767
" />
<path d="M22724 29003
L22724 28767
" />
<path d="M23039 29003
L22724 29003
" />
<path d="M23039 34043
L23039 29003
" />
<path d="M22724 34043
L23039 34043
" />
<path d="M22724 34279
L22724 34043
" />
<path d="M17213 34279
L22724 34279
" />
<path d="M17213 34043
L17213 34279
" />
<path d="M16897 34043
L17213 34043
" />
<path d="M16897 29003
L16897 34043
" />
<path d="M17213 29003
L16897 29003
" />
<path d="M17213 28767
L17213 29003
" />
<path d="M30224 28767
L24713 28767
" />
<path d="M30224 29003
L30224 28767
" />
<path d="M30539 29003
L30224 29003
" />
<path d="M30539 34043
L30539 29003
" />
<path d="M30224 34043
L30539 34043
" />
<path d="M30224 34279
L30224 34043
" />
<path d="M24713 34279
L30224 34279
" />
<path d="M24713 34043
L24713 34279
" />
<path d="M24397 34043
L24713 34043
" />
<path d="M24397 29003
L24397 34043
" />
<path d="M24713 29003
L24397 29003
" />
<path d="M24713 28767
L24713 29003
" />
<path d="M39599 28767
L34087 28767
" />
<path d="M39599 29003
L39599 28767
" />
<path d="M39914 29003
L39599 29003
" />
<path d="M39914 34043
L39914 29003
" />
<path d="M39599 34043
L39914 34043
" />
<path d="M39599 34279
L39599 34043
" />
<path d="M34087 34279
L39599 34279
" />
<path d="M34087 34043
L34087 34279
" />
<path d="M33772 34043
L34087 34043
" />
<path d="M33772 29003
L33772 34043
" />
<path d="M34087 29003
L33772 29003
" />
<path d="M34087 28767
L34087 29003
" />
<path d="M47099 28767
L41587 28767
" />
<path d="M47099 29003
L47099 28767
" />
<path d="M47414 29003
L47099 29003
" />
<path d="M47414 34043
L47414 29003
" />
<path d="M47099 34043
L47414 34043
" />
<path d="M47099 34279
L47099 34043
" />
<path d="M41587 34279
L47099 34279
" />
<path d="M41587 34043
L41587 34279
" />
<path d="M41272 34043
L41587 34043
" />
<path d="M41272 29003
L41272 34043
" />
<path d="M41587 29003
L41272 29003
" />
<path d="M41587 28767
L41587 29003
" />
<path d="M54599 28767
L49087 28767
" />
<path d="M54599 29003
L54599 28767
" />
<path d="M54914 29003
L54599 29003
" />
<path d="M54914 34043
L54914 29003
" />
<path d="M54599 34043
L54914 34043
" />
<path d="M54599 34279
L54599 34043
" />
<path d="M49087 34279
L54599 34279
" />
<path d="M49087 34043
L49087 34279
" />
<path d="M48772 34043
L49087 34043
" />
<path d="M48772 29003
L48772 34043
" />
<path d="M49087 29003
L48772 29003
" />
<path d="M49087 28767
L49087 29003
" />
<path d="M62099 28767
L56587 28767
" />
<path d="M62099 29003
L62099 28767
" />
<path d="M62414 29003
L62099 29003
" />
<path d="M62414 34043
L62414 29003
" />
<path d="M62099 34043
L62414 34043
" />
<path d="M62099 34279
L62099 34043
" />
<path d="M56587 34279
L62099 34279
" />
<path d="M56587 34043
L56587 34279
" />
<path d="M56272 34043
L56587 34043
" />
<path d="M56272 29003
L56272 34043
" />
<path d="M56587 29003
L56272 29003
" />
<path d="M56587 28767
L56587 29003
" />
<path d="M69599 28767
L64087 28767
" />
<path d="M69599 29003
L69599 28767
" />
<path d="M69914 29003
L69599 29003
" />
<path d="M69914 34043
L69914 29003
" />
<path d="M69599 34043
L69914 34043
" />
<path d="M69599 34279
L69599 34043
" />
<path d="M64087 34279
L69599 34279
" />
<path d="M64087 34043
L64087 34279
" />
<path d="M63772 34043
L64087 34043
" />
<path d="M63772 29003
L63772 34043
" />
<path d="M64087 29003
L63772 29003
" />
<path d="M64087 28767
L64087 29003
" />
<path d="M77099 28767
L71587 28767
" />
<path d="M77099 29003
L77099 28767
" />
<path d="M77414 29003
L77099 29003
" />
<path d="M77414 34043
L77414 29003
" />
<path d="M77099 34043
L77414 34043
" />
<path d="M77099 34279
L77099 34043
" />
<path d="M71587 34279
L77099 34279
" />
<path d="M71587 34043
L71587 34279
" />
<path d="M71272 34043
L71587 34043
" />
<path d="M71272 29003
L71272 34043
" />
<path d="M71587 29003
L71272 29003
" />
<path d="M71587 28767
L71587 29003
" />
<path d="M88349 28767
L82837 28767
" />
<path d="M88349 29003
L88349 28767
" />
<path d="M88664 29003
L88349 29003
" />
<path d="M88664 34043
L88664 29003
" />
<path d="M88349 34043
L88664 34043
" />
<path d="M88349 34279
L88349 34043
" />
<path d="M82837 34279
L88349 34279
" />
<path d="M82837 34043
L82837 34279
" />
<path d="M82522 34043
L82837 34043
" />
<path d="M82522 29003
L82522 34043
" />
<path d="M82837 29003
L82522 29003
" />
<path d="M82837 28767
L82837 29003
" />
<path d="M95849 28767
L90337 28767
" />
<path d="M95849 29003
L95849 28767
" />
<path d="M96164 29003
L95849 29003
" />
<path d="M96164 34043
L96164 29003
" />
<path d="M95849 34043
L96164 34043
" />
<path d="M95849 34279
L95849 34043
" />
<path d="M90337 34279
L95849 34279
" />
<path d="M90337 34043
L90337 34279
" />
<path d="M90022 34043
L90337 34043
" />
<path d="M90022 29003
L90022 34043
" />
<path d="M90337 29003
L90022 29003
" />
<path d="M90337 28767
L90337 29003
" />
<path d="M103349 28767
L97837 28767
" />
<path d="M103349 29003
L103349 28767
" />
<path d="M103664 29003
L103349 29003
" />
<path d="M103664 34043
L103664 29003
" />
<path d="M103349 34043
L103664 34043
" />
<path d="M103349 34279
L103349 34043
" />
<path d="M97837 34279
L103349 34279
" />
<path d="M97837 34043
L97837 34279
" />
<path d="M97522 34043
L97837 34043
" />
<path d="M97522 29003
L97522 34043
" />
<path d="M97837 29003
L97522 29003
" />
<path d="M97837 28767
L97837 29003
" />
<path d="M110849 28767
L105337 28767
" />
<path d="M110849 29003
L110849 28767
" />
<path d="M111164 29003
L110849 29003
" />
<path d="M111164 34043
L111164 29003
" />
<path d="M110849 34043
L111164 34043
" />
<path d="M110849 34279
L110849 34043
" />
<path d="M105337 34279
L110849 34279
" />
<path d="M105337 34043
L105337 34279
" />
<path d="M105022 34043
L105337 34043
" />
<path d="M105022 29003
L105022 34043
" />
<path d="M105337 29003
L105022 29003
" />
<path d="M105337 28767
L105337 29003
" />
<path d="M118349 28767
L112837 28767
" />
<path d="M118349 29003
L118349 28767
" />
<path d="M118664 29003
L118349 29003
" />
<path d="M118664 34043
L118664 29003
" />
<path d="M118349 34043
L118664 34043
" />
<path d="M118349 34279
L118349 34043
" />
<path d="M112837 34279
L118349 34279
" />
<path d="M112837 34043
L112837 34279
" />
<path d="M112522 34043
L112837 34043
" />
<path d="M112522 29003
L112522 34043
" />
<path d="M112837 29003
L112522 29003
" />
<path d="M112837 28767
L112837 29003
" />
<path d="M125849 28767
L120337 28767
" />
<path d="M125849 29003
L125849 28767
" />
<path d="M126164 29003
L125849 29003
" />
<path d="M126164 34043
L126164 29003
" />
<path d="M125849 34043
L126164 34043
" />
<path d="M125849 34279
L125849 34043
" />
<path d="M120337 34279
L125849 34279
" />
<path d="M120337 34043
L120337 34279
" />
<path d="M120022 34043
L120337 34043
" />
<path d="M120022 29003
L120022 34043
" />
<path d="M120337 29003
L120022 29003
" />
<path d="M120337 28767
L120337 29003
" />
<path d="M7724 36268
L2212 36268
" />
<path d="M7724 36504
L7724 36268
" />
<path d="M8039 36504
L7724 36504
" />
<path d="M8039 41543
L8039 36504
" />
<path d="M7724 41543
L8039 41543
" />
<path d="M7724 41779
L7724 41543
" />
<path d="M2212 41779
L7724 41779
" />
<path d="M2212 41543
L2212 41779
" />
<path d="M1897 41543
L2212 41543
" />
<path d="M1897 36504
L1897 41543
" />
<path d="M2212 36504
L1897 36504
" />
<path d="M2212 36268
L2212 36504
" />
<path d="M15224 36268
L9712 36268
" />
<path d="M15224 36504
L15224 36268
" />
<path d="M15539 36504
L15224 36504
" />
<path d="M15539 41543
L15539 36504
" />
<path d="M15224 41543
L15539 41543
" />
<path d="M15224 41779
L15224 41543
" />
<path d="M9712 41779
L15224 41779
" />
<path d="M9712 41543
L9712 41779
" />
<path d="M9397 41543
L9712 41543
" />
<path d="M9397 36504
L9397 41543
" />
<path d="M9712 36504
L9397 36504
" />
<path d="M9712 36268
L9712 36504
" />
<path d="M22724 36268
L17213 36268
" />
<path d="M22724 36504
L22724 36268
" />
<path d="M23039 36504
L22724 36504
" />
<path d="M23039 41543
L23039 36504
" />
<path d="M22724 41543
L23039 41543
" />
<path d="M22724 41779
L22724 41543
" />
<path d="M17213 41779
L22724 41779
" />
<path d="M17213 41543
L17213 41779
" />
<path d="M16897 41543
L17213 41543
" />
<path d="M16897 36504
L16897 41543
" />
<path d="M17213 36504
L16897 36504
" />
<path d="M17213 36268
L17213 36504
" />
<path d="M30224 36268
L24713 36268
" />
<path d="M30224 36504
L30224 36268
" />
<path d="M30539 36504
L30224 36504
" />
<path d="M30539 41543
L30539 36504
" />
<path d="M30224 41543
L30539 41543
" />
<path d="M30224 41779
L30224 41543
" />
<path d="M24713 41779
L30224 41779
" />
<path d="M24713 41543
L24713 41779
" />
<path d="M24397 41543
L24713 41543
" />
<path d="M24397 36504
L24397 41543
" />
<path d="M24713 36504
L24397 36504
" />
<path d="M24713 36268
L24713 36504
" />
<path d="M39599 36268
L34087 36268
" />
<path d="M39599 36504
L39599 36268
" />
<path d="M39914 36504
L39599 36504
" />
<path d="M39914 41543
L39914 36504
" />
<path d="M39599 41543
L39914 41543
" />
<path d="M39599 41779
L39599 41543
" />
<path d="M34087 41779
L39599 41779
" />
<path d="M34087 41543
L34087 41779
" />
<path d="M33772 41543
L34087 41543
" />
<path d="M33772 36504
L33772 41543
" />
<path d="M34087 36504
L33772 36504
" />
<path d="M34087 36268
L34087 36504
" />
<path d="M47099 36268
L41587 36268
" />
<path d="M47099 36504
L47099 36268
" />
<path d="M47414 36504
L47099 36504
" />
<path d="M47414 41543
L47414 36504
" />
<path d="M47099 41543
L47414 41543
" />
<path d="M47099 41779
L47099 41543
" />
<path d="M41587 41779
L47099 41779
" />
<path d="M41587 41543
L41587 41779
" />
<path d="M41272 41543
L41587 41543
" />
<path d="M41272 36504
L41272 41543
" />
<path d="M41587 36504
L41272 36504
" />
<path d="M41587 36268
L41587 36504
" />
<path d="M54599 36268
L49087 36268
" />
<path d="M54599 36504
L54599 36268
" />
<path d="M54914 36504
L54599 36504
" />
<path d="M54914 41543
L54914 36504
" />
<path d="M54599 41543
L54914 41543
" />
<path d="M54599 41779
L54599 41543
" />
<path d="M49087 41779
L54599 41779
" />
<path d="M49087 41543
L49087 41779
" />
<path d="M48772 41543
L49087 41543
" />
<path d="M48772 36504
L48772 41543
" />
<path d="M49087 36504
L48772 36504
" />
<path d="M49087 36268
L49087 36504
" />
<path d="M62099 36268
L56587 36268
" />
<path d="M62099 36504
L62099 36268
" />
<path d="M62414 36504
L62099 36504
" />
<path d="M62414 41543
L62414 36504
" />
<path d="M62099 41543
L62414 41543
" />
<path d="M62099 41779
L62099 41543
" />
<path d="M56587 41779
L62099 41779
" />
<path d="M56587 41543
L56587 41779
" />
<path d="M56272 41543
L56587 41543
" />
<path d="M56272 36504
L56272 41543
" />
<path d="M56587 36504
L56272 36504
" />
<path d="M56587 36268
L56587 36504
" />
<path d="M69599 36268
L64087 36268
" />
<path d="M69599 36504
L69599 36268
" />
<path d="M69914 36504
L69599 36504
" />
<path d="M69914 41543
L69914 36504
" />
<path d="M69599 41543
L69914 41543
" />
<path d="M69599 41779
L69599 41543
" />
<path d="M64087 41779
L69599 41779
" />
<path d="M64087 41543
L64087 41779
" />
<path d="M63772 41543
L64087 41543
" />
<path d="M63772 36504
L63772 41543
" />
<path d="M64087 36504
L63772 36504
" />
<path d="M64087 36268
L64087 36504
" />
<path d="M77099 36268
L71587 36268
" />
<path d="M77099 36504
L77099 36268
" />
<path d="M77414 36504
L77099 36504
" />
<path d="M77414 41543
L77414 36504
" />
<path d="M77099 41543
L77414 41543
" />
<path d="M77099 41779
L77099 41543
" />
<path d="M71587 41779
L77099 41779
" />
<path d="M71587 41543
L71587 41779
" />
<path d="M71272 41543
L71587 41543
" />
<path d="M71272 36504
L71272 41543
" />
<path d="M71587 36504
L71272 36504
" />
<path d="M71587 36268
L71587 36504
" />
<path d="M88349 36268
L82837 36268
" />
<path d="M88349 36504
L88349 36268
" />
<path d="M88664 36504
L88349 36504
" />
<path d="M88664 41543
L88664 36504
" />
<path d="M88349 41543
L88664 41543
" />
<path d="M88349 41779
L88349 41543
" />
<path d="M82837 41779
L88349 41779
" />
<path d="M82837 41543
L82837 41779
" />
<path d="M82522 41543
L82837 41543
" />
<path d="M82522 36504
L82522 41543
" />
<path d="M82837 36504
L82522 36504
" />
<path d="M82837 36268
L82837 36504
" />
<path d="M95849 36268
L90337 36268
" />
<path d="M95849 36504
L95849 36268
" />
<path d="M96164 36504
L95849 36504
" />
<path d="M96164 41543
L96164 36504
" />
<path d="M95849 41543
L96164 41543
" />
<path d="M95849 41779
L95849 41543
" />
<path d="M90337 41779
L95849 41779
" />
<path d="M90337 41543
L90337 41779
" />
<path d="M90022 41543
L90337 41543
" />
<path d="M90022 36504
L90022 41543
" />
<path d="M90337 36504
L90022 36504
" />
<path d="M90337 36268
L90337 36504
" />
<path d="M103349 36268
L97837 36268
" />
<path d="M103349 36504
L103349 36268
" />
<path d="M103664 36504
L103349 36504
" />
<path d="M103664 41543
L103664 36504
" />
<path d="M103349 41543
L103664 41543
" />
<path d="M103349 41779
L103349 41543
" />
<path d="M97837 41779
L103349 41779
" />
<path d="M97837 41543
L97837 41779
" />
<path d="M97522 41543
L97837 41543
" />
<path d="M97522 36504
L97522 41543
" />
<path d="M97837 36504
L97522 36504
" />
<path d="M97837 36268
L97837 36504
" />
<path d="M110849 36268
L105337 36268
" />
<path d="M110849 36504
L110849 36268
" />
<path d="M111164 36504
L110849 36504
" />
<path d="M111164 41543
L111164 36504
" />
<path d="M110849 41543
L111164 41543
" />
<path d="M110849 41779
L110849 41543
" />
<path d="M105337 41779
L110849 41779
" />
<path d="M105337 41543
L105337 41779
" />
<path d="M105022 41543
L105337 41543
" />
<path d="M105022 36504
L105022 41543
" />
<path d="M105337 36504
L105022 36504
" />
<path d="M105337 36268
L105337 36504
" />
<path d="M118349 36268
L112837 36268
" />
<path d="M118349 36504
L118349 36268
" />
<path d="M118664 36504
L118349 36504
" />
<path d="M118664 41543
L118664 36504
" />
<path d="M118349 41543
L118664 41543
" />
<path d="M118349 41779
L118349 41543
" />
<path d="M112837 41779
L118349 41779
" />
<path d="M112837 41543
L112837 41779
" />
<path d="M112522 41543
L112837 41543
" />
<path d="M112522 36504
L112522 41543
" />
<path d="M112837 36504
L112522 36504
" />
<path d="M112837 36268
L112837 36504
" />
<path d="M125849 36268
L120337 36268
" />
<path d="M125849 36504
L125849 36268
" />
<path d="M126164 36504
L125849 36504
" />
<path d="M126164 41543
L126164 36504
" />
<path d="M125849 41543
L126164 41543
" />
<path d="M125849 41779
L125849 41543
" />
<path d="M120337 41779
L125849 41779
" />
<path d="M120337 41543
L120337 41779
" />
<path d="M120022 41543
L120337 41543
" />
<path d="M120022 36504
L120022 41543
" />
<path d="M120337 36504
L120022 36504
" />
<path d="M120337 36268
L120337 36504
" />
<path d="M7724 43768
L2212 43768
" />
<path d="M7724 44004
L7724 43768
" />
<path d="M8039 44004
L7724 44004
" />
<path d="M8039 49043
L8039 44004
" />
<path d="M7724 49043
L8039 49043
" />
<path d="M7724 49279
L7724 49043
" />
<path d="M2212 49279
L7724 49279
" />
<path d="M2212 49043
L2212 49279
" />
<path d="M1897 49043
L2212 49043
" />
<path d="M1897 44004
L1897 49043
" />
<path d="M2212 44004
L1897 44004
" />
<path d="M2212 43768
L2212 44004
" />
<path d="M15224 43768
L9712 43768
" />
<path d="M15224 44004
L15224 43768
" />
<path d="M15539 44004
L15224 44004
" />
<path d="M15539 49043
L15539 44004
" />
<path d="M15224 49043
L15539 49043
" />
<path d="M15224 49279
L15224 49043
" />
<path d="M9712 49279
L15224 49279
" />
<path d="M9712 49043
L9712 49279
" />
<path d="M9397 49043
L9712 49043
" />
<path d="M9397 44004
L9397 49043
" />
<path d="M9712 44004
L9397 44004
" />
<path d="M9712 43768
L9712 44004
" />
<path d="M22724 43768
L17213 43768
" />
<path d="M22724 44004
L22724 43768
" />
<path d="M23039 44004
L22724 44004
" />
<path d="M23039 49043
L23039 44004
" />
<path d="M22724 49043
L23039 49043
" />
<path d="M22724 49279
L22724 49043
" />
<path d="M17213 49279
L22724 49279
" />
<path d="M17213 49043
L17213 49279
" />
<path d="M16897 49043
L17213 49043
" />
<path d="M16897 44004
L16897 49043
" />
<path d="M17213 44004
L16897 44004
" />
<path d="M17213 43768
L17213 44004
" />
<path d="M30224 43768
L24713 43768
" />
<path d="M30224 44004
L30224 43768
" />
<path d="M30539 44004
L30224 44004
" />
<path d="M30539 49043
L30539 44004
" />
<path d="M30224 49043
L30539 49043
" />
<path d="M30224 49279
L30224 49043
" />
<path d="M24713 49279
L30224 49279
" />
<path d="M24713 49043
L24713 49279
" />
<path d="M24397 49043
L24713 49043
" />
<path d="M24397 44004
L24397 49043
" />
<path d="M24713 44004
L24397 44004
" />
<path d="M24713 43768
L24713 44004
" />
<path d="M39599 43768
L34087 43768
" />
<path d="M39599 44004
L39599 43768
" />
<path d="M39914 44004
L39599 44004
" />
<path d="M39914 49043
L39914 44004
" />
<path d="M39599 49043
L39914 49043
" />
<path d="M39599 49279
L39599 49043
" />
<path d="M34087 49279
L39599 49279
" />
<path d="M34087 49043
L34087 49279
" />
<path d="M33772 49043
L34087 49043
" />
<path d="M33772 44004
L33772 49043
" />
<path d="M34087 44004
L33772 44004
" />
<path d="M34087 43768
L34087 44004
" />
<path d="M47099 43768
L41587 43768
" />
<path d="M47099 44004
L47099 43768
" />
<path d="M47414 44004
L47099 44004
" />
<path d="M47414 49043
L47414 44004
" />
<path d="M47099 49043
L47414 49043
" />
<path d="M47099 49279
L47099 49043
" />
<path d="M41587 49279
L47099 49279
" />
<path d="M41587 49043
L41587 49279
" />
<path d="M41272 49043
L41587 49043
" />
<path d="M41272 44004
L41272 49043
" />
<path d="M41587 44004
L41272 44004
" />
<path d="M41587 43768
L41587 44004
" />
<path d="M54599 43768
L49087 43768
" />
<path d="M54599 44004
L54599 43768
" />
<path d="M54914 44004
L54599 44004
" />
<path d="M54914 49043
L54914 44004
" />
<path d="M54599 49043
L54914 49043
" />
<path d="M54599 49279
L54599 49043
" />
<path d="M49087 49279
L54599 49279
" />
<path d="M49087 49043
L49087 49279
" />
<path d="M48772 49043
L49087 49043
" />
<path d="M48772 44004
L48772 49043
" />
<path d="M49087 44004
L48772 44004
" />
<path d="M49087 43768
L49087 44004
" />
<path d="M62099 43768
L56587 43768
" />
<path d="M62099 44004
L62099 43768
" />
<path d="M62414 44004
L62099 44004
" />
<path d="M62414 49043
L62414 44004
" />
<path d="M62099 49043
L62414 49043
" />
<path d="M62099 49279
L62099 49043
" />
<path d="M56587 49279
L62099 49279
" />
<path d="M56587 49043
L56587 49279
" />
<path d="M56272 49043
L56587 49043
" />
<path d="M56272 44004
L56272 49043
" />
<path d="M56587 44004
L56272 44004
" />
<path d="M56587 43768
L56587 44004
" />
<path d="M69599 43768
L64087 43768
" />
<path d="M69599 44004
L69599 43768
" />
<path d="M69914 44004
L69599 44004
" />
<path d="M69914 49043
L69914 44004
" />
<path d="M69599 49043
L69914 49043
" />
<path d="M69599 49279
L69599 49043
" />
<path d="M64087 49279
L69599 49279
" />
<path d="M64087 49043
L64087 49279
" />
<path d="M63772 49043
L64087 49043
" />
<path d="M63772 44004
L63772 49043
" />
<path d="M64087 44004
L63772 44004
" />
<path d="M64087 43768
L64087 44004
" />
<path d="M77099 43768
L71587 43768
" />
<path d="M77099 44004
L77099 43768
" />
<path d="M77414 44004
L77099 44004
" />
<path d="M77414 49043
L77414 44004
" />
<path d="M77099 49043
L77414 49043
" />
<path d="M77099 49279
L77099 49043
" />
<path d="M71587 49279
L77099 49279
" />
<path d="M71587 49043
L71587 49279
" />
<path d="M71272 49043
L71587 49043
" />
<path d="M71272 44004
L71272 49043
" />
<path d="M71587 44004
L71272 44004
" />
<path d="M71587 43768
L71587 44004
" />
<path d="M88349 43768
L82837 43768
" />
<path d="M88349 44004
L88349 43768
" />
<path d="M88664 44004
L88349 44004
" />
<path d="M88664 49043
L88664 44004
" />
<path d="M88349 49043
L88664 49043
" />
<path d="M88349 49279
L88349 49043
" />
<path d="M82837 49279
L88349 49279
" />
<path d="M82837 49043
L82837 49279
" />
<path d="M82522 49043
L82837 49043
" />
<path d="M82522 44004
L82522 49043
" />
<path d="M82837 44004
L82522 44004
" />
<path d="M82837 43768
L82837 44004
" />
<path d="M95849 43768
L90337 43768
" />
<path d="M95849 44004
L95849 43768
" />
<path d="M96164 44004
L95849 44004
" />
<path d="M96164 49043
L96164 44004
" />
<path d="M95849 49043
L96164 49043
" />
<path d="M95849 49279
L95849 49043
" />
<path d="M90337 49279
L95849 49279
" />
<path d="M90337 49043
L90337 49279
" />
<path d="M90022 49043
L90337 49043
" />
<path d="M90022 44004
L90022 49043
" />
<path d="M90337 44004
L90022 44004
" />
<path d="M90337 43768
L90337 44004
" />
<path d="M103349 43768
L97837 43768
" />
<path d="M103349 44004
L103349 43768
" />
<path d="M103664 44004
L103349 44004
" />
<path d="M103664 49043
L103664 44004
" />
<path d="M103349 49043
L103664 49043
" />
<path d="M103349 49279
L103349 49043
" />
<path d="M97837 49279
L103349 49279
" />
<path d="M97837 49043
L97837 49279
" />
<path d="M97522 49043
L97837 49043
" />
<path d="M97522 44004
L97522 49043
" />
<path d="M97837 44004
L97522 44004
" />
<path d="M97837 43768
L97837 44004
" />
<path d="M110849 43768
L105337 43768
" />
<path d="M110849 44004
L110849 43768
" />
<path d="M111164 44004
L110849 44004
" />
<path d="M111164 49043
L111164 44004
" />
<path d="M110849 49043
L111164 49043
" />
<path d="M110849 49279
L110849 49043
" />
<path d="M105337 49279
L110849 49279
" />
<path d="M105337 49043
L105337 49279
" />
<path d="M105022 49043
L105337 49043
" />
<path d="M105022 44004
L105022 49043
" />
<path d="M105337 44004
L105022 44004
" />
<path d="M105337 43768
L105337 44004
" />
<path d="M118349 43768
L112837 43768
" />
<path d="M118349 44004
L118349 43768
" />
<path d="M118664 44004
L118349 44004
" />
<path d="M118664 49043
L118664 44004
" />
<path d="M118349 49043
L118664 49043
" />
<path d="M118349 49279
L118349 49043
" />
<path d="M112837 49279
L118349 49279
" />
<path d="M112837 49043
L112837 49279
" />
<path d="M112522 49043
L112837 49043
" />
<path d="M112522 44004
L112522 49043
" />
<path d="M112837 44004
L112522 44004
" />
<path d="M112837 43768
L112837 44004
" />
<path d="M125849 43768
L120337 43768
" />
<path d="M125849 44004
L125849 43768
" />
<path d="M126164 44004
L125849 44004
" />
<path d="M126164 49043
L126164 44004
" />
<path d="M125849 49043
L126164 49043
" />
<path d="M125849 49279
L125849 49043
" />
<path d="M120337 49279
L125849 49279
" />
<path d="M120337 49043
L120337 49279
" />
<path d="M120022 49043
L120337 49043
" />
<path d="M120022 44004
L120022 49043
" />
<path d="M120337 44004
L120022 44004
" />
<path d="M120337 43768
L120337 44004
" />
<path d="M7724 51268
L2212 51268
" />
<path d="M7724 51503
L7724 51268
" />
<path d="M8039 51503
L7724 51503
" />
<path d="M8039 56543
L8039 51503
" />
<path d="M7724 56543
L8039 56543
" />
<path d="M7724 56779
L7724 56543
" />
<path d="M2212 56779
L7724 56779
" />
<path d="M2212 56543
L2212 56779
" />
<path d="M1897 56543
L2212 56543
" />
<path d="M1897 51503
L1897 56543
" />
<path d="M2212 51503
L1897 51503
" />
<path d="M2212 51268
L2212 51503
" />
<path d="M15224 51268
L9712 51268
" />
<path d="M15224 51503
L15224 51268
" />
<path d="M15539 51503
L15224 51503
" />
<path d="M15539 56543
L15539 51503
" />
<path d="M15224 56543
L15539 56543
" />
<path d="M15224 56779
L15224 56543
" />
<path d="M9712 56779
L15224 56779
" />
<path d="M9712 56543
L9712 56779
" />
<path d="M9397 56543
L9712 56543
" />
<path d="M9397 51503
L9397 56543
" />
<path d="M9712 51503
L9397 51503
" />
<path d="M9712 51268
L9712 51503
" />
<path d="M22724 51268
L17213 51268
" />
<path d="M22724 51503
L22724 51268
" />
<path d="M23039 51503
L22724 51503
" />
<path d="M23039 56543
L23039 51503
" />
<path d="M22724 56543
L23039 56543
" />
<path d="M22724 56779
L22724 56543
" />
<path d="M17213 56779
L22724 56779
" />
<path d="M17213 56543
L17213 56779
" />
<path d="M16897 56543
L17213 56543
" />
<path d="M16897 51503
L16897 56543
" />
<path d="M17213 51503
L16897 51503
" />
<path d="M17213 51268
L17213 51503
" />
<path d="M30224 51268
L24713 51268
" />
<path d="M30224 51503
L30224 51268
" />
<path d="M30539 51503
L30224 51503
" />
<path d="M30539 56543
L30539 51503
" />
<path d="M30224 56543
L30539 56543
" />
<path d="M30224 56779
L30224 56543
" />
<path d="M24713 56779
L30224 56779
" />
<path d="M24713 56543
L24713 56779
" />
<path d="M24397 56543
L24713 56543
" />
<path d="M24397 51503
L24397 56543
" />
<path d="M24713 51503
L24397 51503
" />
<path d="M24713 51268
L24713 51503
" />
<path d="M39599 51268
L34087 51268
" />
<path d="M39599 51503
L39599 51268
" />
<path d="M39914 51503
L39599 51503
" />
<path d="M39914 56543
L39914 51503
" />
<path d="M39599 56543
L39914 56543
" />
<path d="M39599 56779
L39599 56543
" />
<path d="M34087 56779
L39599 56779
" />
<path d="M34087 56543
L34087 56779
" />
<path d="M33772 56543
L34087 56543
" />
<path d="M33772 51503
L33772 56543
" />
<path d="M34087 51503
L33772 51503
" />
<path d="M34087 51268
L34087 51503
" />
<path d="M47099 51268
L41587 51268
" />
<path d="M47099 51503
L47099 51268
" />
<path d="M47414 51503
L47099 51503
" />
<path d="M47414 56543
L47414 51503
" />
<path d="M47099 56543
L47414 56543
" />
<path d="M47099 56779
L47099 56543
" />
<path d="M41587 56779
L47099 56779
" />
<path d="M41587 56543
L41587 56779
" />
<path d="M41272 56543
L41587 56543
" />
<path d="M41272 51503
L41272 56543
" />
<path d="M41587 51503
L41272 51503
" />
<path d="M41587 51268
L41587 51503
" />
<path d="M54599 51268
L49087 51268
" />
<path d="M54599 51503
L54599 51268
" />
<path d="M54914 51503
L54599 51503
" />
<path d="M54914 56543
L54914 51503
" />
<path d="M54599 56543
L54914 56543
" />
<path d="M54599 56779
L54599 56543
" />
<path d="M49087 56779
L54599 56779
" />
<path d="M49087 56543
L49087 56779
" />
<path d="M48772 56543
L49087 56543
" />
<path d="M48772 51503
L48772 56543
" />
<path d="M49087 51503
L48772 51503
" />
<path d="M49087 51268
L49087 51503
" />
<path d="M62099 51268
L56587 51268
" />
<path d="M62099 51503
L62099 51268
" />
<path d="M62414 51503
L62099 51503
" />
<path d="M62414 56543
L62414 51503
" />
<path d="M62099 56543
L62414 56543
" />
<path d="M62099 56779
L62099 56543
" />
<path d="M56587 56779
L62099 56779
" />
<path d="M56587 56543
L56587 56779
" />
<path d="M56272 56543
L56587 56543
" />
<path d="M56272 51503
L56272 56543
" />
<path d="M56587 51503
L56272 51503
" />
<path d="M56587 51268
L56587 51503
" />
<path d="M70536 51268
L65024 51268
" />
<path d="M70536 51503
L70536 51268
" />
<path d="M70851 51503
L70536 51503
" />
<path d="M70851 56543
L70851 51503
" />
<path d="M70536 56543
L70851 56543
" />
<path d="M70536 56779
L70536 56543
" />
<path d="M65024 56779
L70536 56779
" />
<path d="M65024 56543
L65024 56779
" />
<path d="M64710 56543
L65024 56543
" />
<path d="M64710 51503
L64710 56543
" />
<path d="M65024 51503
L64710 51503
" />
<path d="M65024 51268
L65024 51503
" />
<path d="M94912 51268
L89400 51268
" />
<path d="M94912 51503
L94912 51268
" />
<path d="M95226 51503
L94912 51503
" />
<path d="M95226 56543
L95226 51503
" />
<path d="M94912 56543
L95226 56543
" />
<path d="M94912 56779
L94912 56543
" />
<path d="M89400 56779
L94912 56779
" />
<path d="M89400 56543
L89400 56779
" />
<path d="M89085 56543
L89400 56543
" />
<path d="M89085 51503
L89085 56543
" />
<path d="M89400 51503
L89085 51503
" />
<path d="M89400 51268
L89400 51503
" />
<path d="M103349 51268
L97837 51268
" />
<path d="M103349 51503
L103349 51268
" />
<path d="M103664 51503
L103349 51503
" />
<path d="M103664 56543
L103664 51503
" />
<path d="M103349 56543
L103664 56543
" />
<path d="M103349 56779
L103349 56543
" />
<path d="M97837 56779
L103349 56779
" />
<path d="M97837 56543
L97837 56779
" />
<path d="M97522 56543
L97837 56543
" />
<path d="M97522 51503
L97522 56543
" />
<path d="M97837 51503
L97522 51503
" />
<path d="M97837 51268
L97837 51503
" />
<path d="M110849 51268
L105337 51268
" />
<path d="M110849 51503
L110849 51268
" />
<path d="M111164 51503
L110849 51503
" />
<path d="M111164 56543
L111164 51503
" />
<path d="M110849 56543
L111164 56543
" />
<path d="M110849 56779
L110849 56543
" />
<path d="M105337 56779
L110849 56779
" />
<path d="M105337 56543
L105337 56779
" />
<path d="M105022 56543
L105337 56543
" />
<path d="M105022 51503
L105022 56543
" />
<path d="M105337 51503
L105022 51503
" />
<path d="M105337 51268
L105337 51503
" />
<path d="M118349 51268
L112837 51268
" />
<path d="M118349 51503
L118349 51268
" />
<path d="M118664 51503
L118349 51503
" />
<path d="M118664 56543
L118664 51503
" />
<path d="M118349 56543
L118664 56543
" />
<path d="M118349 56779
L118349 56543
" />
<path d="M112837 56779
L118349 56779
" />
<path d="M112837 56543
L112837 56779
" />
<path d="M112522 56543
L112837 56543
" />
<path d="M112522 51503
L112522 56543
" />
<path d="M112837 51503
L112522 51503
" />
<path d="M112837 51268
L112837 51503
" />
<path d="M125849 51268
L120337 51268
" />
<path d="M125849 51503
L125849 51268
" />
<path d="M126164 51503
L125849 51503
" />
<path d="M126164 56543
L126164 51503
" />
<path d="M125849 56543
L126164 56543
" />
<path d="M125849 56779
L125849 56543
" />
<path d="M120337 56779
L125849 56779
" />
<path d="M120337 56543
L120337 56779
" />
<path d="M120022 56543
L120337 56543
" />
<path d="M120022 51503
L120022 56543
" />
<path d="M120337 51503
L120022 51503
" />
<path d="M120337 51268
L120337 51503
" />
<path d="M82724 51268
L77212 51268
" />
<path d="M82724 51503
L82724 51268
" />
<path d="M83039 51503
L82724 51503
" />
<path d="M83039 53118
L83039 51503
" />
<path d="M83325 53118
L83039 53118
" />
<path d="M83325 51846
L83325 53118
" />
<path d="M84003 51846
L83325 51846
" />
<path d="M84003 51484
L84003 51846
" />
<path d="M85303 51484
L84003 51484
" />
<path d="M85303 51846
L85303 51484
" />
<path d="M85982 51846
L85303 51846
" />
<path d="M85982 53118
L85982 51846
" />
<path d="M86307 53118
L85982 53118
" />
<path d="M86307 54220
L86307 53118
" />
<path d="M85982 54220
L86307 54220
" />
<path d="M85982 56689
L85982 54220
" />
<path d="M85303 56689
L85982 56689
" />
<path d="M85303 57074
L85303 56689
" />
<path d="M84003 57074
L85303 57074
" />
<path d="M84003 56689
L84003 57074
" />
<path d="M83325 56689
L84003 56689
" />
<path d="M83325 54929
L83325 56689
" />
<path d="M83039 54929
L83325 54929
" />
<path d="M83039 56543
L83039 54929
" />
<path d="M82724 56543
L83039 56543
" />
<path d="M82724 56779
L82724 56543
" />
<path d="M77212 56779
L82724 56779
" />
<path d="M77212 56543
L77212 56779
" />
<path d="M76897 56543
L77212 56543
" />
<path d="M76897 54929
L76897 56543
" />
<path d="M76612 54929
L76897 54929
" />
<path d="M76612 56689
L76612 54929
" />
<path d="M75933 56689
L76612 56689
" />
<path d="M75933 57074
L75933 56689
" />
<path d="M74633 57074
L75933 57074
" />
<path d="M74633 56689
L74633 57074
" />
<path d="M73955 56689
L74633 56689
" />
<path d="M73955 54220
L73955 56689
" />
<path d="M73630 54220
L73955 54220
" />
<path d="M73630 53118
L73630 54220
" />
<path d="M73955 53118
L73630 53118
" />
<path d="M73955 51846
L73955 53118
" />
<path d="M74633 51846
L73955 51846
" />
<path d="M74633 51484
L74633 51846
" />
<path d="M75933 51484
L74633 51484
" />
<path d="M75933 51846
L75933 51484
" />
<path d="M76612 51846
L75933 51846
" />
<path d="M76612 53118
L76612 51846
" />
<path d="M76897 53118
L76612 53118
" />
<path d="M76897 51503
L76897 53118
" />
<path d="M77212 51503
L76897 51503
" />
<path d="M77212 51268
L77212 51503
" />
<path d="M825 26592
L127237 26592
" />
<path d="M763 26595
L825 26592
" />
<path d="M701 26602
L763 26595
" />
<path d="M641 26614
L701 26602
" />
<path d="M581 26631
L641 26614
" />
<path d="M523 26652
L581 26631
" />
<path d="M467 26678
L523 26652
" />
<path d="M413 26708
L467 26678
" />
<path d="M361 26742
L413 26708
" />
<path d="M313 26781
L361 26742
" />
<path d="M268 26823
L313 26781
" />
<path d="M226 26868
L268 26823
" />
<path d="M187 26916
L226 26868
" />
<path d="M153 26968
L187 26916
" />
<path d="M123 27022
L153 26968
" />
<path d="M97 27078
L123 27022
" />
<path d="M75 27136
L97 27078
" />
<path d="M59 27196
L75 27136
" />
<path d="M47 27256
L59 27196
" />
<path d="M40 27318
L47 27256
" />
<path d="M37 27380
L40 27318
" />
<path d="M37 58168
L37 27380
" />
<path d="M40 58229
L37 58168
" />
<path d="M47 58290
L40 58229
" />
<path d="M59 58351
L47 58290
" />
<path d="M75 58411
L59 58351
" />
<path d="M97 58469
L75 58411
" />
<path d="M123 58525
L97 58469
" />
<path d="M153 58578
L123 58525
" />
<path d="M187 58630
L153 58578
" />
<path d="M226 58679
L187 58630
" />
<path d="M268 58724
L226 58679
" />
<path d="M313 58766
L268 58724
" />
<path d="M361 58805
L313 58766
" />
<path d="M413 58839
L361 58805
" />
<path d="M467 58869
L413 58839
" />
<path d="M523 58895
L467 58869
" />
<path d="M581 58916
L523 58895
" />
<path d="M641 58933
L581 58916
" />
<path d="M701 58945
L641 58933
" />
<path d="M763 58952
L701 58945
" />
<path d="M825 58955
L763 58952
" />
<path d="M127237 58954
L825 58955
" />
<path d="M127299 58952
L127237 58954
" />
<path d="M127360 58945
L127299 58952
" />
<path d="M127421 58933
L127360 58945
" />
<path d="M127481 58916
L127421 58933
" />
<path d="M127538 58895
L127481 58916
" />
<path d="M127594 58869
L127538 58895
" />
<path d="M127649 58839
L127594 58869
" />
<path d="M127700 58805
L127649 58839
" />
<path d="M127749 58766
L127700 58805
" />
<path d="M127794 58724
L127749 58766
" />
<path d="M127836 58679
L127794 58724
" />
<path d="M127874 58630
L127836 58679
" />
<path d="M127909 58578
L127874 58630
" />
<path d="M127938 58525
L127909 58578
" />
<path d="M127964 58469
L127938 58525
" />
<path d="M127986 58411
L127964 58469
" />
<path d="M128003 58351
L127986 58411
" />
<path d="M128015 58290
L128003 58351
" />
<path d="M128022 58229
L128015 58290
" />
<path d="M128025 58168
L128022 58229
" />
<path d="M128025 27380
L128025 58168
" />
<path d="M128022 27318
L128025 27380
" />
<path d="M128015 27256
L128022 27318
" />
<path d="M128003 27196
L128015 27256
" />
<path d="M127986 27136
L128003 27196
" />
<path d="M127964 27078
L127986 27136
" />
<path d="M127938 27022
L127964 27078
" />
<path d="M127909 26968
L127938 27022
" />
<path d="M127874 26916
L127909 26968
" />
<path d="M127836 26868
L127874 26916
" />
<path d="M127794 26823
L127836 26868
" />
<path d="M127749 26781
L127794 26823
" />
<path d="M127700 26742
L127749 26781
" />
<path d="M127649 26708
L127700 26742
" />
<path d="M127594 26678
L127649 26708
" />
<path d="M127538 26652
L127594 26678
" />
<path d="M127481 26631
L127538 26652
" />
<path d="M127421 26614
L127481 26631
" />
<path d="M127360 26602
L127421 26614
" />
<path d="M127299 26595
L127360 26602
" />
<path d="M127237 26592
L127299 26595
" />
<g >
</g>
<g >
</g>
<g >
</g>
<g >
</g>
</g> 
</svg>
