<?xml version="1.0" standalone="no"?>
 <!DOCTYPE svg PUBLIC "-//W3C//DTD SVG 1.1//EN" 
 "http://www.w3.org/Graphics/SVG/1.1/DTD/svg11.dtd"> 
<svg xmlns="http://www.w3.org/2000/svg" version="1.1" 
    width="29.7002cm" height="21.0007cm" viewBox="0 0 116930 82680 ">
<title>SVG Picture created as augio_switchplate-Edge_Cuts.svg date 2020/04/28 20:42:29 </title>
  <desc>Picture generated by PCBNEW </desc>
<g style="fill:#000000; fill-opacity:1;stroke:#000000; stroke-opacity:1;
stroke-linecap:round; stroke-linejoin:round; "
 transform="translate(0 0) scale(1 1)">
</g>
<g style="fill:#000000; fill-opacity:0.0; 
stroke:#000000; stroke-width:-0.000393701; stroke-opacity:1; 
stroke-linecap:round; stroke-linejoin:round;">
</g>
<g style="fill:#000000; fill-opacity:0.0; 
stroke:#000000; stroke-width:39.3701; stroke-opacity:1; 
stroke-linecap:round; stroke-linejoin:round;">
</g>
<g style="fill:#000000; fill-opacity:0.0; 
stroke:#000000; stroke-width:59.0551; stroke-opacity:1; 
stroke-linecap:round; stroke-linejoin:round;">
<rect x="69685.9" y="65357.2" width="42519.7" height="12598.4" rx="0" />
</g>
<g style="fill:#000000; fill-opacity:0.0; 
stroke:#000000; stroke-width:39.3701; stroke-opacity:1; 
stroke-linecap:round; stroke-linejoin:round;">
</g>
<g style="fill:#000000; fill-opacity:0.0; 
stroke:#000000; stroke-width:59.0551; stroke-opacity:1; 
stroke-linecap:round; stroke-linejoin:round;">
<rect x="3937.01" y="3937.01" width="109056" height="74806" rx="0" />
</g>
<g style="fill:#000000; fill-opacity:0.0; 
stroke:#000000; stroke-width:39.3701; stroke-opacity:1; 
stroke-linecap:round; stroke-linejoin:round;">
</g>
<g style="fill:#000000; fill-opacity:0.0; 
stroke:#000000; stroke-width:59.0551; stroke-opacity:1; 
stroke-linecap:round; stroke-linejoin:round;">
<rect x="4724.41" y="4724.41" width="107481" height="73231.2" rx="0" />
</g>
<g style="fill:#000000; fill-opacity:0.0; 
stroke:#000000; stroke-width:39.3701; stroke-opacity:1; 
stroke-linecap:round; stroke-linejoin:round;">
</g>
<g style="fill:#000000; fill-opacity:0.0; 
stroke:#000000; stroke-width:59.0551; stroke-opacity:1; 
stroke-linecap:round; stroke-linejoin:round;">
<path d="M23622 4724
L23622 3937
" />
</g>
<g style="fill:#000000; fill-opacity:0.0; 
stroke:#000000; stroke-width:39.3701; stroke-opacity:1; 
stroke-linecap:round; stroke-linejoin:round;">
</g>
<g style="fill:#000000; fill-opacity:0.0; 
stroke:#000000; stroke-width:59.0551; stroke-opacity:1; 
stroke-linecap:round; stroke-linejoin:round;">
<path d="M43307 4724
L43307 3937
" />
</g>
<g style="fill:#000000; fill-opacity:0.0; 
stroke:#000000; stroke-width:39.3701; stroke-opacity:1; 
stroke-linecap:round; stroke-linejoin:round;">
</g>
<g style="fill:#000000; fill-opacity:0.0; 
stroke:#000000; stroke-width:59.0551; stroke-opacity:1; 
stroke-linecap:round; stroke-linejoin:round;">
<path d="M62992 4724
L62992 3937
" />
</g>
<g style="fill:#000000; fill-opacity:0.0; 
stroke:#000000; stroke-width:39.3701; stroke-opacity:1; 
stroke-linecap:round; stroke-linejoin:round;">
</g>
<g style="fill:#000000; fill-opacity:0.0; 
stroke:#000000; stroke-width:59.0551; stroke-opacity:1; 
stroke-linecap:round; stroke-linejoin:round;">
<path d="M82677 4724
L82677 3937
" />
</g>
<g style="fill:#000000; fill-opacity:0.0; 
stroke:#000000; stroke-width:39.3701; stroke-opacity:1; 
stroke-linecap:round; stroke-linejoin:round;">
</g>
<g style="fill:#000000; fill-opacity:0.0; 
stroke:#000000; stroke-width:59.0551; stroke-opacity:1; 
stroke-linecap:round; stroke-linejoin:round;">
<path d="M102362 4724
L102362 3937
" />
</g>
<g style="fill:#000000; fill-opacity:0.0; 
stroke:#000000; stroke-width:39.3701; stroke-opacity:1; 
stroke-linecap:round; stroke-linejoin:round;">
</g>
<g style="fill:#000000; fill-opacity:0.0; 
stroke:#000000; stroke-width:59.0551; stroke-opacity:1; 
stroke-linecap:round; stroke-linejoin:round;">
<path d="M14199 4562
L13906 4562
" />
<path d="M14052 4562
L14052 4050
L14004 4123
L13955 4172
L13906 4196
" />
</g>
<g style="fill:#000000; fill-opacity:0.0; 
stroke:#000000; stroke-width:39.3701; stroke-opacity:1; 
stroke-linecap:round; stroke-linejoin:round;">
</g>
<g style="fill:#000000; fill-opacity:0.0; 
stroke:#000000; stroke-width:59.0551; stroke-opacity:1; 
stroke-linecap:round; stroke-linejoin:round;">
<path d="M33591 4099
L33615 4074
L33664 4050
L33786 4050
L33835 4074
L33859 4099
L33884 4147
L33884 4196
L33859 4269
L33567 4562
L33884 4562
" />
</g>
<g style="fill:#000000; fill-opacity:0.0; 
stroke:#000000; stroke-width:39.3701; stroke-opacity:1; 
stroke-linecap:round; stroke-linejoin:round;">
</g>
<g style="fill:#000000; fill-opacity:0.0; 
stroke:#000000; stroke-width:59.0551; stroke-opacity:1; 
stroke-linecap:round; stroke-linejoin:round;">
<path d="M53252 4050
L53569 4050
L53398 4245
L53471 4245
L53520 4269
L53544 4294
L53569 4342
L53569 4464
L53544 4513
L53520 4537
L53471 4562
L53325 4562
L53276 4537
L53252 4513
" />
</g>
<g style="fill:#000000; fill-opacity:0.0; 
stroke:#000000; stroke-width:39.3701; stroke-opacity:1; 
stroke-linecap:round; stroke-linejoin:round;">
</g>
<g style="fill:#000000; fill-opacity:0.0; 
stroke:#000000; stroke-width:59.0551; stroke-opacity:1; 
stroke-linecap:round; stroke-linejoin:round;">
<path d="M73205 4221
L73205 4562
" />
<path d="M73083 4026
L72961 4391
L73278 4391
" />
</g>
<g style="fill:#000000; fill-opacity:0.0; 
stroke:#000000; stroke-width:39.3701; stroke-opacity:1; 
stroke-linecap:round; stroke-linejoin:round;">
</g>
<g style="fill:#000000; fill-opacity:0.0; 
stroke:#000000; stroke-width:59.0551; stroke-opacity:1; 
stroke-linecap:round; stroke-linejoin:round;">
<path d="M92914 4050
L92671 4050
L92646 4294
L92671 4269
L92719 4245
L92841 4245
L92890 4269
L92914 4294
L92939 4342
L92939 4464
L92914 4513
L92890 4537
L92841 4562
L92719 4562
L92671 4537
L92646 4513
" />
</g>
<g style="fill:#000000; fill-opacity:0.0; 
stroke:#000000; stroke-width:39.3701; stroke-opacity:1; 
stroke-linecap:round; stroke-linejoin:round;">
</g>
<g style="fill:#000000; fill-opacity:0.0; 
stroke:#000000; stroke-width:59.0551; stroke-opacity:1; 
stroke-linecap:round; stroke-linejoin:round;">
<path d="M112575 4050
L112477 4050
L112429 4074
L112404 4099
L112356 4172
L112331 4269
L112331 4464
L112356 4513
L112380 4537
L112429 4562
L112526 4562
L112575 4537
L112599 4513
L112624 4464
L112624 4342
L112599 4294
L112575 4269
L112526 4245
L112429 4245
L112380 4269
L112356 4294
L112331 4342
" />
</g>
<g style="fill:#000000; fill-opacity:0.0; 
stroke:#000000; stroke-width:39.3701; stroke-opacity:1; 
stroke-linecap:round; stroke-linejoin:round;">
</g>
<g style="fill:#000000; fill-opacity:0.0; 
stroke:#000000; stroke-width:59.0551; stroke-opacity:1; 
stroke-linecap:round; stroke-linejoin:round;">
<path d="M23622 77955
L23622 78742
" />
</g>
<g style="fill:#000000; fill-opacity:0.0; 
stroke:#000000; stroke-width:39.3701; stroke-opacity:1; 
stroke-linecap:round; stroke-linejoin:round;">
</g>
<g style="fill:#000000; fill-opacity:0.0; 
stroke:#000000; stroke-width:59.0551; stroke-opacity:1; 
stroke-linecap:round; stroke-linejoin:round;">
<path d="M43307 77955
L43307 78742
" />
</g>
<g style="fill:#000000; fill-opacity:0.0; 
stroke:#000000; stroke-width:39.3701; stroke-opacity:1; 
stroke-linecap:round; stroke-linejoin:round;">
</g>
<g style="fill:#000000; fill-opacity:0.0; 
stroke:#000000; stroke-width:59.0551; stroke-opacity:1; 
stroke-linecap:round; stroke-linejoin:round;">
<path d="M62992 77955
L62992 78742
" />
</g>
<g style="fill:#000000; fill-opacity:0.0; 
stroke:#000000; stroke-width:39.3701; stroke-opacity:1; 
stroke-linecap:round; stroke-linejoin:round;">
</g>
<g style="fill:#000000; fill-opacity:0.0; 
stroke:#000000; stroke-width:59.0551; stroke-opacity:1; 
stroke-linecap:round; stroke-linejoin:round;">
<path d="M82677 77955
L82677 78742
" />
</g>
<g style="fill:#000000; fill-opacity:0.0; 
stroke:#000000; stroke-width:39.3701; stroke-opacity:1; 
stroke-linecap:round; stroke-linejoin:round;">
</g>
<g style="fill:#000000; fill-opacity:0.0; 
stroke:#000000; stroke-width:59.0551; stroke-opacity:1; 
stroke-linecap:round; stroke-linejoin:round;">
<path d="M102362 77955
L102362 78742
" />
</g>
<g style="fill:#000000; fill-opacity:0.0; 
stroke:#000000; stroke-width:39.3701; stroke-opacity:1; 
stroke-linecap:round; stroke-linejoin:round;">
</g>
<g style="fill:#000000; fill-opacity:0.0; 
stroke:#000000; stroke-width:59.0551; stroke-opacity:1; 
stroke-linecap:round; stroke-linejoin:round;">
<path d="M14199 78580
L13906 78580
" />
<path d="M14052 78580
L14052 78069
L14004 78142
L13955 78190
L13906 78215
" />
</g>
<g style="fill:#000000; fill-opacity:0.0; 
stroke:#000000; stroke-width:39.3701; stroke-opacity:1; 
stroke-linecap:round; stroke-linejoin:round;">
</g>
<g style="fill:#000000; fill-opacity:0.0; 
stroke:#000000; stroke-width:59.0551; stroke-opacity:1; 
stroke-linecap:round; stroke-linejoin:round;">
<path d="M33591 78117
L33615 78093
L33664 78069
L33786 78069
L33835 78093
L33859 78117
L33884 78166
L33884 78215
L33859 78288
L33567 78580
L33884 78580
" />
</g>
<g style="fill:#000000; fill-opacity:0.0; 
stroke:#000000; stroke-width:39.3701; stroke-opacity:1; 
stroke-linecap:round; stroke-linejoin:round;">
</g>
<g style="fill:#000000; fill-opacity:0.0; 
stroke:#000000; stroke-width:59.0551; stroke-opacity:1; 
stroke-linecap:round; stroke-linejoin:round;">
<path d="M53252 78069
L53569 78069
L53398 78263
L53471 78263
L53520 78288
L53544 78312
L53569 78361
L53569 78483
L53544 78532
L53520 78556
L53471 78580
L53325 78580
L53276 78556
L53252 78532
" />
</g>
<g style="fill:#000000; fill-opacity:0.0; 
stroke:#000000; stroke-width:39.3701; stroke-opacity:1; 
stroke-linecap:round; stroke-linejoin:round;">
</g>
<g style="fill:#000000; fill-opacity:0.0; 
stroke:#000000; stroke-width:59.0551; stroke-opacity:1; 
stroke-linecap:round; stroke-linejoin:round;">
<path d="M73205 78239
L73205 78580
" />
<path d="M73083 78044
L72961 78410
L73278 78410
" />
</g>
<g style="fill:#000000; fill-opacity:0.0; 
stroke:#000000; stroke-width:39.3701; stroke-opacity:1; 
stroke-linecap:round; stroke-linejoin:round;">
</g>
<g style="fill:#000000; fill-opacity:0.0; 
stroke:#000000; stroke-width:59.0551; stroke-opacity:1; 
stroke-linecap:round; stroke-linejoin:round;">
<path d="M92914 78069
L92671 78069
L92646 78312
L92671 78288
L92719 78263
L92841 78263
L92890 78288
L92914 78312
L92939 78361
L92939 78483
L92914 78532
L92890 78556
L92841 78580
L92719 78580
L92671 78556
L92646 78532
" />
</g>
<g style="fill:#000000; fill-opacity:0.0; 
stroke:#000000; stroke-width:39.3701; stroke-opacity:1; 
stroke-linecap:round; stroke-linejoin:round;">
</g>
<g style="fill:#000000; fill-opacity:0.0; 
stroke:#000000; stroke-width:59.0551; stroke-opacity:1; 
stroke-linecap:round; stroke-linejoin:round;">
<path d="M112575 78069
L112477 78069
L112429 78093
L112404 78117
L112356 78190
L112331 78288
L112331 78483
L112356 78532
L112380 78556
L112429 78580
L112526 78580
L112575 78556
L112599 78532
L112624 78483
L112624 78361
L112599 78312
L112575 78288
L112526 78263
L112429 78263
L112380 78288
L112356 78312
L112331 78361
" />
</g>
<g style="fill:#000000; fill-opacity:0.0; 
stroke:#000000; stroke-width:39.3701; stroke-opacity:1; 
stroke-linecap:round; stroke-linejoin:round;">
</g>
<g style="fill:#000000; fill-opacity:0.0; 
stroke:#000000; stroke-width:59.0551; stroke-opacity:1; 
stroke-linecap:round; stroke-linejoin:round;">
<path d="M3937 23622
L4724 23622
" />
</g>
<g style="fill:#000000; fill-opacity:0.0; 
stroke:#000000; stroke-width:39.3701; stroke-opacity:1; 
stroke-linecap:round; stroke-linejoin:round;">
</g>
<g style="fill:#000000; fill-opacity:0.0; 
stroke:#000000; stroke-width:59.0551; stroke-opacity:1; 
stroke-linecap:round; stroke-linejoin:round;">
<path d="M3937 43307
L4724 43307
" />
</g>
<g style="fill:#000000; fill-opacity:0.0; 
stroke:#000000; stroke-width:39.3701; stroke-opacity:1; 
stroke-linecap:round; stroke-linejoin:round;">
</g>
<g style="fill:#000000; fill-opacity:0.0; 
stroke:#000000; stroke-width:59.0551; stroke-opacity:1; 
stroke-linecap:round; stroke-linejoin:round;">
<path d="M3937 62992
L4724 62992
" />
</g>
<g style="fill:#000000; fill-opacity:0.0; 
stroke:#000000; stroke-width:39.3701; stroke-opacity:1; 
stroke-linecap:round; stroke-linejoin:round;">
</g>
<g style="fill:#000000; fill-opacity:0.0; 
stroke:#000000; stroke-width:59.0551; stroke-opacity:1; 
stroke-linecap:round; stroke-linejoin:round;">
<path d="M4208 13864
L4452 13864
" />
<path d="M4160 14011
L4330 13499
L4501 14011
" />
</g>
<g style="fill:#000000; fill-opacity:0.0; 
stroke:#000000; stroke-width:39.3701; stroke-opacity:1; 
stroke-linecap:round; stroke-linejoin:round;">
</g>
<g style="fill:#000000; fill-opacity:0.0; 
stroke:#000000; stroke-width:59.0551; stroke-opacity:1; 
stroke-linecap:round; stroke-linejoin:round;">
<path d="M4367 33428
L4440 33452
L4464 33476
L4489 33525
L4489 33598
L4464 33647
L4440 33671
L4391 33696
L4196 33696
L4196 33184
L4367 33184
L4416 33208
L4440 33233
L4464 33281
L4464 33330
L4440 33379
L4416 33403
L4367 33428
L4196 33428
" />
</g>
<g style="fill:#000000; fill-opacity:0.0; 
stroke:#000000; stroke-width:39.3701; stroke-opacity:1; 
stroke-linecap:round; stroke-linejoin:round;">
</g>
<g style="fill:#000000; fill-opacity:0.0; 
stroke:#000000; stroke-width:59.0551; stroke-opacity:1; 
stroke-linecap:round; stroke-linejoin:round;">
<path d="M4489 53332
L4464 53356
L4391 53381
L4342 53381
L4269 53356
L4221 53308
L4196 53259
L4172 53161
L4172 53088
L4196 52991
L4221 52942
L4269 52893
L4342 52869
L4391 52869
L4464 52893
L4489 52918
" />
</g>
<g style="fill:#000000; fill-opacity:0.0; 
stroke:#000000; stroke-width:39.3701; stroke-opacity:1; 
stroke-linecap:round; stroke-linejoin:round;">
</g>
<g style="fill:#000000; fill-opacity:0.0; 
stroke:#000000; stroke-width:59.0551; stroke-opacity:1; 
stroke-linecap:round; stroke-linejoin:round;">
<path d="M4196 73066
L4196 72554
L4318 72554
L4391 72578
L4440 72627
L4464 72676
L4489 72773
L4489 72846
L4464 72944
L4440 72993
L4391 73041
L4318 73066
L4196 73066
" />
</g>
<g style="fill:#000000; fill-opacity:0.0; 
stroke:#000000; stroke-width:39.3701; stroke-opacity:1; 
stroke-linecap:round; stroke-linejoin:round;">
</g>
<g style="fill:#000000; fill-opacity:0.0; 
stroke:#000000; stroke-width:59.0551; stroke-opacity:1; 
stroke-linecap:round; stroke-linejoin:round;">
<path d="M112992 23622
L112205 23622
" />
</g>
<g style="fill:#000000; fill-opacity:0.0; 
stroke:#000000; stroke-width:39.3701; stroke-opacity:1; 
stroke-linecap:round; stroke-linejoin:round;">
</g>
<g style="fill:#000000; fill-opacity:0.0; 
stroke:#000000; stroke-width:59.0551; stroke-opacity:1; 
stroke-linecap:round; stroke-linejoin:round;">
<path d="M112992 43307
L112205 43307
" />
</g>
<g style="fill:#000000; fill-opacity:0.0; 
stroke:#000000; stroke-width:39.3701; stroke-opacity:1; 
stroke-linecap:round; stroke-linejoin:round;">
</g>
<g style="fill:#000000; fill-opacity:0.0; 
stroke:#000000; stroke-width:59.0551; stroke-opacity:1; 
stroke-linecap:round; stroke-linejoin:round;">
<path d="M112992 62992
L112205 62992
" />
</g>
<g style="fill:#000000; fill-opacity:0.0; 
stroke:#000000; stroke-width:39.3701; stroke-opacity:1; 
stroke-linecap:round; stroke-linejoin:round;">
</g>
<g style="fill:#000000; fill-opacity:0.0; 
stroke:#000000; stroke-width:59.0551; stroke-opacity:1; 
stroke-linecap:round; stroke-linejoin:round;">
<path d="M112477 13864
L112721 13864
" />
<path d="M112428 14011
L112599 13499
L112769 14011
" />
</g>
<g style="fill:#000000; fill-opacity:0.0; 
stroke:#000000; stroke-width:39.3701; stroke-opacity:1; 
stroke-linecap:round; stroke-linejoin:round;">
</g>
<g style="fill:#000000; fill-opacity:0.0; 
stroke:#000000; stroke-width:59.0551; stroke-opacity:1; 
stroke-linecap:round; stroke-linejoin:round;">
<path d="M112635 33428
L112708 33452
L112733 33476
L112757 33525
L112757 33598
L112733 33647
L112708 33671
L112660 33696
L112465 33696
L112465 33184
L112635 33184
L112684 33208
L112708 33233
L112733 33281
L112733 33330
L112708 33379
L112684 33403
L112635 33428
L112465 33428
" />
</g>
<g style="fill:#000000; fill-opacity:0.0; 
stroke:#000000; stroke-width:39.3701; stroke-opacity:1; 
stroke-linecap:round; stroke-linejoin:round;">
</g>
<g style="fill:#000000; fill-opacity:0.0; 
stroke:#000000; stroke-width:59.0551; stroke-opacity:1; 
stroke-linecap:round; stroke-linejoin:round;">
<path d="M112757 53332
L112733 53356
L112660 53381
L112611 53381
L112538 53356
L112489 53308
L112465 53259
L112440 53161
L112440 53088
L112465 52991
L112489 52942
L112538 52893
L112611 52869
L112660 52869
L112733 52893
L112757 52918
" />
</g>
<g style="fill:#000000; fill-opacity:0.0; 
stroke:#000000; stroke-width:39.3701; stroke-opacity:1; 
stroke-linecap:round; stroke-linejoin:round;">
</g>
<g style="fill:#000000; fill-opacity:0.0; 
stroke:#000000; stroke-width:59.0551; stroke-opacity:1; 
stroke-linecap:round; stroke-linejoin:round;">
<path d="M112465 73066
L112465 72554
L112587 72554
L112660 72578
L112708 72627
L112733 72676
L112757 72773
L112757 72846
L112733 72944
L112708 72993
L112660 73041
L112587 73066
L112465 73066
" />
</g>
<g style="fill:#000000; fill-opacity:0.0; 
stroke:#000000; stroke-width:39.3701; stroke-opacity:1; 
stroke-linecap:round; stroke-linejoin:round;">
</g>
<g style="fill:#000000; fill-opacity:0.0; 
stroke:#000000; stroke-width:59.0551; stroke-opacity:1; 
stroke-linecap:round; stroke-linejoin:round;">
<path d="M78911 76293
L78911 75703
L79051 75703
L79136 75731
L79192 75787
L79220 75843
L79248 75956
L79248 76040
L79220 76153
L79192 76209
L79136 76265
L79051 76293
L78911 76293
" />
<path d="M79754 76293
L79754 75984
L79726 75928
L79670 75899
L79557 75899
L79501 75928
" />
<path d="M79754 76265
L79698 76293
L79557 76293
L79501 76265
L79473 76209
L79473 76153
L79501 76096
L79557 76068
L79698 76068
L79754 76040
" />
<path d="M79951 75899
L80176 75899
" />
<path d="M80036 75703
L80036 76209
L80064 76265
L80120 76293
L80176 76293
" />
<path d="M80598 76265
L80542 76293
L80429 76293
L80373 76265
L80345 76209
L80345 75984
L80373 75928
L80429 75899
L80542 75899
L80598 75928
L80626 75984
L80626 76040
L80345 76096
" />
<path d="M80879 76237
L80907 76265
L80879 76293
L80851 76265
L80879 76237
L80879 76293
" />
<path d="M80879 75928
L80907 75956
L80879 75984
L80851 75956
L80879 75928
L80879 75984
" />
</g>
<g style="fill:#000000; fill-opacity:0.0; 
stroke:#000000; stroke-width:39.3701; stroke-opacity:1; 
stroke-linecap:round; stroke-linejoin:round;">
</g>
<g style="fill:#000000; fill-opacity:0.0; 
stroke:#000000; stroke-width:59.0551; stroke-opacity:1; 
stroke-linecap:round; stroke-linejoin:round;">
<path d="M69685 76577
L112205 76577
" />
</g>
<g style="fill:#000000; fill-opacity:0.0; 
stroke:#000000; stroke-width:39.3701; stroke-opacity:1; 
stroke-linecap:round; stroke-linejoin:round;">
</g>
<g style="fill:#000000; fill-opacity:0.0; 
stroke:#000000; stroke-width:59.0551; stroke-opacity:1; 
stroke-linecap:round; stroke-linejoin:round;">
<path d="M70249 77395
L70249 76805
" />
<path d="M70587 77395
L70334 77058
" />
<path d="M70587 76805
L70249 77142
" />
<path d="M70840 77395
L70840 77002
" />
<path d="M70840 76805
L70812 76833
L70840 76861
L70868 76833
L70840 76805
L70840 76861
" />
<path d="M71458 77339
L71430 77367
L71346 77395
L71290 77395
L71205 77367
L71149 77311
L71121 77255
L71093 77142
L71093 77058
L71121 76946
L71149 76889
L71205 76833
L71290 76805
L71346 76805
L71430 76833
L71458 76861
" />
<path d="M71965 77395
L71965 77086
L71937 77030
L71880 77002
L71768 77002
L71712 77030
" />
<path d="M71965 77367
L71908 77395
L71768 77395
L71712 77367
L71683 77311
L71683 77255
L71712 77199
L71768 77171
L71908 77171
L71965 77142
" />
<path d="M72499 77395
L72499 76805
" />
<path d="M72499 77367
L72443 77395
L72330 77395
L72274 77367
L72246 77339
L72218 77283
L72218 77114
L72246 77058
L72274 77030
L72330 77002
L72443 77002
L72499 77030
" />
<path d="M73230 77086
L73427 77086
" />
<path d="M73511 77395
L73230 77395
L73230 76805
L73511 76805
" />
<path d="M73764 77339
L73793 77367
L73764 77395
L73736 77367
L73764 77339
L73764 77395
" />
<path d="M74046 77395
L74046 76805
L74186 76805
L74271 76833
L74327 76889
L74355 76946
L74383 77058
L74383 77142
L74355 77255
L74327 77311
L74271 77367
L74186 77395
L74046 77395
" />
<path d="M74636 77339
L74664 77367
L74636 77395
L74608 77367
L74636 77339
L74636 77395
" />
<path d="M74889 77227
L75171 77227
" />
<path d="M74833 77395
L75030 76805
L75227 77395
" />
<path d="M75424 77339
L75452 77367
L75424 77395
L75395 77367
L75424 77339
L75424 77395
" />
<path d="M76605 77395
L76605 76805
" />
<path d="M76661 77171
L76830 77395
" />
<path d="M76830 77002
L76605 77227
" />
<path d="M77083 77395
L77083 77002
" />
<path d="M77083 76805
L77055 76833
L77083 76861
L77111 76833
L77083 76805
L77083 76861
" />
<path d="M77617 77367
L77561 77395
L77448 77395
L77392 77367
L77364 77339
L77336 77283
L77336 77114
L77364 77058
L77392 77030
L77448 77002
L77561 77002
L77617 77030
" />
<path d="M78123 77395
L78123 77086
L78095 77030
L78039 77002
L77926 77002
L77870 77030
" />
<path d="M78123 77367
L78067 77395
L77926 77395
L77870 77367
L77842 77311
L77842 77255
L77870 77199
L77926 77171
L78067 77171
L78123 77142
" />
<path d="M78658 77395
L78658 76805
" />
<path d="M78658 77367
L78601 77395
L78489 77395
L78433 77367
L78404 77339
L78376 77283
L78376 77114
L78404 77058
L78433 77030
L78489 77002
L78601 77002
L78658 77030
" />
<path d="M79557 77620
L79529 77592
L79473 77508
L79445 77452
L79417 77367
L79389 77227
L79389 77114
L79417 76974
L79445 76889
L79473 76833
L79529 76749
L79557 76721
" />
<path d="M80064 76805
L79782 76805
L79754 77086
L79782 77058
L79839 77030
L79979 77030
L80036 77058
L80064 77086
L80092 77142
L80092 77283
L80064 77339
L80036 77367
L79979 77395
L79839 77395
L79782 77367
L79754 77339
" />
<path d="M80345 77339
L80373 77367
L80345 77395
L80317 77367
L80345 77339
L80345 77395
" />
<path d="M80935 77395
L80598 77395
" />
<path d="M80767 77395
L80767 76805
L80710 76889
L80654 76946
L80598 76974
" />
<path d="M81188 77339
L81217 77367
L81188 77395
L81160 77367
L81188 77339
L81188 77395
" />
<path d="M81723 77002
L81723 77395
" />
<path d="M81582 76777
L81442 77199
L81807 77199
" />
<path d="M81976 77620
L82004 77592
L82060 77508
L82088 77452
L82117 77367
L82145 77227
L82145 77114
L82117 76974
L82088 76889
L82060 76833
L82004 76749
L81976 76721
" />
<path d="M82426 77171
L82876 77171
" />
<path d="M83466 77395
L83129 77395
" />
<path d="M83298 77395
L83298 76805
L83241 76889
L83185 76946
L83129 76974
" />
</g>
<g style="fill:#000000; fill-opacity:0.0; 
stroke:#000000; stroke-width:39.3701; stroke-opacity:1; 
stroke-linecap:round; stroke-linejoin:round;">
</g>
<g style="fill:#000000; fill-opacity:0.0; 
stroke:#000000; stroke-width:59.0551; stroke-opacity:1; 
stroke-linecap:round; stroke-linejoin:round;">
<path d="M69685 75396
L112205 75396
" />
</g>
<g style="fill:#000000; fill-opacity:0.0; 
stroke:#000000; stroke-width:39.3701; stroke-opacity:1; 
stroke-linecap:round; stroke-linejoin:round;">
</g>
<g style="fill:#000000; fill-opacity:0.0; 
stroke:#000000; stroke-width:118.11; stroke-opacity:1; 
stroke-linecap:round; stroke-linejoin:round;">
<path d="M104099 76293
L103902 76012
" />
<path d="M103761 76293
L103761 75703
L103986 75703
L104042 75731
L104070 75759
L104099 75815
L104099 75899
L104070 75956
L104042 75984
L103986 76012
L103761 76012
" />
<path d="M104577 76265
L104520 76293
L104408 76293
L104352 76265
L104323 76209
L104323 75984
L104352 75928
L104408 75899
L104520 75899
L104577 75928
L104605 75984
L104605 76040
L104323 76096
" />
<path d="M104802 75899
L104942 76293
L105083 75899
" />
<path d="M105308 76237
L105336 76265
L105308 76293
L105280 76265
L105308 76237
L105308 76293
" />
<path d="M105308 75928
L105336 75956
L105308 75984
L105280 75956
L105308 75928
L105308 75984
" />
</g>
<g style="fill:#000000; fill-opacity:0.0; 
stroke:#000000; stroke-width:39.3701; stroke-opacity:1; 
stroke-linecap:round; stroke-linejoin:round;">
</g>
<g style="fill:#000000; fill-opacity:0.0; 
stroke:#000000; stroke-width:59.0551; stroke-opacity:1; 
stroke-linecap:round; stroke-linejoin:round;">
<path d="M70221 76265
L70305 76293
L70446 76293
L70502 76265
L70530 76237
L70559 76181
L70559 76124
L70530 76068
L70502 76040
L70446 76012
L70334 75984
L70277 75956
L70249 75928
L70221 75871
L70221 75815
L70249 75759
L70277 75731
L70334 75703
L70474 75703
L70559 75731
" />
<path d="M70812 76293
L70812 75899
" />
<path d="M70812 75703
L70784 75731
L70812 75759
L70840 75731
L70812 75703
L70812 75759
" />
<path d="M71037 75899
L71346 75899
L71037 76293
L71346 76293
" />
<path d="M71796 76265
L71740 76293
L71627 76293
L71571 76265
L71543 76209
L71543 75984
L71571 75928
L71627 75899
L71740 75899
L71796 75928
L71824 75984
L71824 76040
L71543 76096
" />
<path d="M72077 76237
L72105 76265
L72077 76293
L72049 76265
L72077 76237
L72077 76293
" />
<path d="M72077 75928
L72105 75956
L72077 75984
L72049 75956
L72077 75928
L72077 75984
" />
<path d="M72780 76124
L73061 76124
" />
<path d="M72724 76293
L72921 75703
L73118 76293
" />
<path d="M73568 75899
L73568 76293
" />
<path d="M73427 75674
L73286 76096
L73652 76096
" />
</g>
<g style="fill:#000000; fill-opacity:0.0; 
stroke:#000000; stroke-width:39.3701; stroke-opacity:1; 
stroke-linecap:round; stroke-linejoin:round;">
</g>
<g style="fill:#000000; fill-opacity:0.0; 
stroke:#000000; stroke-width:59.0551; stroke-opacity:1; 
stroke-linecap:round; stroke-linejoin:round;">
<path d="M103714 77395
L103714 76805
" />
<path d="M104248 77395
L104248 76805
" />
<path d="M104248 77367
L104192 77395
L104079 77395
L104023 77367
L103995 77339
L103967 77283
L103967 77114
L103995 77058
L104023 77030
L104079 77002
L104192 77002
L104248 77030
" />
<path d="M104529 77339
L104557 77367
L104529 77395
L104501 77367
L104529 77339
L104529 77395
" />
<path d="M104529 77030
L104557 77058
L104529 77086
L104501 77058
L104529 77030
L104529 77086
" />
<path d="M105570 77395
L105232 77395
" />
<path d="M105401 77395
L105401 76805
L105345 76889
L105289 76946
L105232 76974
" />
<path d="M106245 76777
L105739 77536
" />
<path d="M106751 77395
L106413 77395
" />
<path d="M106582 77395
L106582 76805
L106526 76889
L106470 76946
L106413 76974
" />
</g>
<g style="fill:#000000; fill-opacity:0.0; 
stroke:#000000; stroke-width:39.3701; stroke-opacity:1; 
stroke-linecap:round; stroke-linejoin:round;">
</g>
<g style="fill:#000000; fill-opacity:0.0; 
stroke:#000000; stroke-width:59.0551; stroke-opacity:1; 
stroke-linecap:round; stroke-linejoin:round;">
<path d="M69685 73821
L112205 73821
" />
</g>
<g style="fill:#000000; fill-opacity:0.0; 
stroke:#000000; stroke-width:39.3701; stroke-opacity:1; 
stroke-linecap:round; stroke-linejoin:round;">
</g>
<g style="fill:#000000; fill-opacity:0.0; 
stroke:#000000; stroke-width:157.48; stroke-opacity:1; 
stroke-linecap:round; stroke-linejoin:round;">
<path d="M70360 74099
L70810 74099
" />
<path d="M70486 74886
L70585 74099
" />
<path d="M70974 74886
L71039 74361
" />
<path d="M71072 74099
L71030 74136
L71063 74174
L71105 74136
L71072 74099
L71063 74174
" />
<path d="M71302 74361
L71602 74361
" />
<path d="M71447 74099
L71363 74774
L71391 74849
L71461 74886
L71536 74886
" />
<path d="M71911 74886
L71841 74849
L71813 74774
L71897 74099
" />
<path d="M72516 74849
L72436 74886
L72286 74886
L72216 74849
L72187 74774
L72225 74474
L72272 74399
L72352 74361
L72501 74361
L72572 74399
L72600 74474
L72591 74549
L72206 74624
" />
<path d="M72895 74811
L72928 74849
L72886 74886
L72853 74849
L72895 74811
L72886 74886
" />
<path d="M72947 74399
L72980 74436
L72937 74474
L72905 74436
L72947 74399
L72937 74474
" />
</g>
<g style="fill:#000000; fill-opacity:0.0; 
stroke:#000000; stroke-width:39.3701; stroke-opacity:1; 
stroke-linecap:round; stroke-linejoin:round;">
</g>
<g style="fill:#000000; fill-opacity:0.0; 
stroke:#000000; stroke-width:59.0551; stroke-opacity:1; 
stroke-linecap:round; stroke-linejoin:round;">
<path d="M70446 73070
L70249 73070
" />
<path d="M70249 73380
L70249 72789
L70530 72789
" />
<path d="M70755 73380
L70755 72986
" />
<path d="M70755 72789
L70727 72817
L70755 72845
L70784 72817
L70755 72789
L70755 72845
" />
<path d="M71121 73380
L71065 73352
L71037 73295
L71037 72789
" />
<path d="M71571 73352
L71515 73380
L71402 73380
L71346 73352
L71318 73295
L71318 73070
L71346 73014
L71402 72986
L71515 72986
L71571 73014
L71599 73070
L71599 73127
L71318 73183
" />
<path d="M71852 73323
L71880 73352
L71852 73380
L71824 73352
L71852 73323
L71852 73380
" />
<path d="M71852 73014
L71880 73042
L71852 73070
L71824 73042
L71852 73014
L71852 73070
" />
<path d="M72836 73380
L72836 73070
L72808 73014
L72752 72986
L72640 72986
L72583 73014
" />
<path d="M72836 73352
L72780 73380
L72640 73380
L72583 73352
L72555 73295
L72555 73239
L72583 73183
L72640 73155
L72780 73155
L72836 73127
" />
<path d="M73371 72986
L73371 73380
" />
<path d="M73118 72986
L73118 73295
L73146 73352
L73202 73380
L73286 73380
L73343 73352
L73371 73323
" />
<path d="M73905 72986
L73905 73464
L73877 73520
L73849 73548
L73793 73577
L73708 73577
L73652 73548
" />
<path d="M73905 73352
L73849 73380
L73736 73380
L73680 73352
L73652 73323
L73624 73267
L73624 73099
L73652 73042
L73680 73014
L73736 72986
L73849 72986
L73905 73014
" />
<path d="M74186 73380
L74186 72986
" />
<path d="M74186 72789
L74158 72817
L74186 72845
L74214 72817
L74186 72789
L74186 72845
" />
<path d="M74552 73380
L74496 73352
L74467 73323
L74439 73267
L74439 73099
L74467 73042
L74496 73014
L74552 72986
L74636 72986
L74692 73014
L74721 73042
L74749 73099
L74749 73267
L74721 73323
L74692 73352
L74636 73380
L74552 73380
" />
<path d="M74861 73436
L75311 73436
" />
<path d="M75424 73352
L75480 73380
L75592 73380
L75649 73352
L75677 73295
L75677 73267
L75649 73211
L75592 73183
L75508 73183
L75452 73155
L75424 73099
L75424 73070
L75452 73014
L75508 72986
L75592 72986
L75649 73014
" />
<path d="M75874 72986
L75986 73380
L76099 73099
L76211 73380
L76323 72986
" />
<path d="M76548 73380
L76548 72986
" />
<path d="M76548 72789
L76520 72817
L76548 72845
L76577 72817
L76548 72789
L76548 72845
" />
<path d="M76745 72986
L76970 72986
" />
<path d="M76830 72789
L76830 73295
L76858 73352
L76914 73380
L76970 73380
" />
<path d="M77420 73352
L77364 73380
L77251 73380
L77195 73352
L77167 73323
L77139 73267
L77139 73099
L77167 73042
L77195 73014
L77251 72986
L77364 72986
L77420 73014
" />
<path d="M77673 73380
L77673 72789
" />
<path d="M77926 73380
L77926 73070
L77898 73014
L77842 72986
L77758 72986
L77701 73014
L77673 73042
" />
<path d="M78208 72986
L78208 73577
" />
<path d="M78208 73014
L78264 72986
L78376 72986
L78433 73014
L78461 73042
L78489 73099
L78489 73267
L78461 73323
L78433 73352
L78376 73380
L78264 73380
L78208 73352
" />
<path d="M78826 73380
L78770 73352
L78742 73295
L78742 72789
" />
<path d="M79304 73380
L79304 73070
L79276 73014
L79220 72986
L79108 72986
L79051 73014
" />
<path d="M79304 73352
L79248 73380
L79108 73380
L79051 73352
L79023 73295
L79023 73239
L79051 73183
L79108 73155
L79248 73155
L79304 73127
" />
<path d="M79501 72986
L79726 72986
" />
<path d="M79586 72789
L79586 73295
L79614 73352
L79670 73380
L79726 73380
" />
<path d="M80148 73352
L80092 73380
L79979 73380
L79923 73352
L79895 73295
L79895 73070
L79923 73014
L79979 72986
L80092 72986
L80148 73014
L80176 73070
L80176 73127
L79895 73183
" />
<path d="M80429 73323
L80457 73352
L80429 73380
L80401 73352
L80429 73323
L80429 73380
" />
<path d="M80710 73380
L80710 72789
" />
<path d="M80767 73155
L80935 73380
" />
<path d="M80935 72986
L80710 73211
" />
<path d="M81188 73380
L81188 72986
" />
<path d="M81188 72789
L81160 72817
L81188 72845
L81217 72817
L81188 72789
L81188 72845
" />
<path d="M81723 73352
L81667 73380
L81554 73380
L81498 73352
L81470 73323
L81442 73267
L81442 73099
L81470 73042
L81498 73014
L81554 72986
L81667 72986
L81723 73014
" />
<path d="M82229 73380
L82229 73070
L82201 73014
L82145 72986
L82032 72986
L81976 73014
" />
<path d="M82229 73352
L82173 73380
L82032 73380
L81976 73352
L81948 73295
L81948 73239
L81976 73183
L82032 73155
L82173 73155
L82229 73127
" />
<path d="M82763 73380
L82763 72789
" />
<path d="M82763 73352
L82707 73380
L82595 73380
L82538 73352
L82510 73323
L82482 73267
L82482 73099
L82510 73042
L82538 73014
L82595 72986
L82707 72986
L82763 73014
" />
<path d="M82904 73436
L83354 73436
" />
<path d="M83494 72986
L83494 73577
" />
<path d="M83494 73014
L83551 72986
L83663 72986
L83719 73014
L83748 73042
L83776 73099
L83776 73267
L83748 73323
L83719 73352
L83663 73380
L83551 73380
L83494 73352
" />
<path d="M84282 73352
L84226 73380
L84113 73380
L84057 73352
L84029 73323
L84001 73267
L84001 73099
L84029 73042
L84057 73014
L84113 72986
L84226 72986
L84282 73014
" />
<path d="M84535 73380
L84535 72789
" />
<path d="M84535 73014
L84591 72986
L84704 72986
L84760 73014
L84788 73042
L84816 73099
L84816 73267
L84788 73323
L84760 73352
L84704 73380
L84591 73380
L84535 73352
" />
</g>
<g style="fill:#000000; fill-opacity:0.0; 
stroke:#000000; stroke-width:39.3701; stroke-opacity:1; 
stroke-linecap:round; stroke-linejoin:round;">
</g>
<g style="fill:#000000; fill-opacity:0.0; 
stroke:#000000; stroke-width:59.0551; stroke-opacity:1; 
stroke-linecap:round; stroke-linejoin:round;">
<path d="M69685 71459
L112205 71459
" />
</g>
<g style="fill:#000000; fill-opacity:0.0; 
stroke:#000000; stroke-width:39.3701; stroke-opacity:1; 
stroke-linecap:round; stroke-linejoin:round;">
</g>
<g style="fill:#000000; fill-opacity:0.0; 
stroke:#000000; stroke-width:59.0551; stroke-opacity:1; 
stroke-linecap:round; stroke-linejoin:round;">
<path d="M70221 72289
L70305 72317
L70446 72317
L70502 72289
L70530 72260
L70559 72204
L70559 72148
L70530 72092
L70502 72064
L70446 72036
L70334 72007
L70277 71979
L70249 71951
L70221 71895
L70221 71839
L70249 71782
L70277 71754
L70334 71726
L70474 71726
L70559 71754
" />
<path d="M70812 72317
L70812 71726
" />
<path d="M71065 72317
L71065 72007
L71037 71951
L70980 71923
L70896 71923
L70840 71951
L70812 71979
" />
<path d="M71571 72289
L71515 72317
L71402 72317
L71346 72289
L71318 72232
L71318 72007
L71346 71951
L71402 71923
L71515 71923
L71571 71951
L71599 72007
L71599 72064
L71318 72120
" />
<path d="M72077 72289
L72021 72317
L71908 72317
L71852 72289
L71824 72232
L71824 72007
L71852 71951
L71908 71923
L72021 71923
L72077 71951
L72105 72007
L72105 72064
L71824 72120
" />
<path d="M72274 71923
L72499 71923
" />
<path d="M72358 71726
L72358 72232
L72386 72289
L72443 72317
L72499 72317
" />
<path d="M72696 72260
L72724 72289
L72696 72317
L72668 72289
L72696 72260
L72696 72317
" />
<path d="M72696 71951
L72724 71979
L72696 72007
L72668 71979
L72696 71951
L72696 72007
" />
</g>
<g style="fill:#000000; fill-opacity:0.0; 
stroke:#000000; stroke-width:39.3701; stroke-opacity:1; 
stroke-linecap:round; stroke-linejoin:round;">
</g>
<g style="fill:#000000; fill-opacity:0.0; 
stroke:#000000; stroke-width:59.0551; stroke-opacity:1; 
stroke-linecap:round; stroke-linejoin:round;">
<path d="M77559 75396
L77559 76577
" />
</g>
<g style="fill:#000000; fill-opacity:0.0; 
stroke:#000000; stroke-width:39.3701; stroke-opacity:1; 
stroke-linecap:round; stroke-linejoin:round;">
</g>
<g style="fill:#000000; fill-opacity:0.0; 
stroke:#000000; stroke-width:59.0551; stroke-opacity:1; 
stroke-linecap:round; stroke-linejoin:round;">
<path d="M102756 75396
L102756 77955
" />
</g>
<g style="fill:#C2C200; fill-opacity:0.0; 
stroke:#C2C200; stroke-width:59.0551; stroke-opacity:1; 
stroke-linecap:round; stroke-linejoin:round;">
</g>
<g style="fill:#C2C200; fill-opacity:0.0; 
stroke:#C2C200; stroke-width:78.7402; stroke-opacity:1; 
stroke-linecap:round; stroke-linejoin:round;">
<path d="M7724 28767
L2212 28767
" />
<path d="M7724 29003
L7724 28767
" />
<path d="M8039 29003
L7724 29003
" />
<path d="M8039 34043
L8039 29003
" />
<path d="M7724 34043
L8039 34043
" />
<path d="M7724 34279
L7724 34043
" />
<path d="M2212 34279
L7724 34279
" />
<path d="M2212 34043
L2212 34279
" />
<path d="M1897 34043
L2212 34043
" />
<path d="M1897 29003
L1897 34043
" />
<path d="M2212 29003
L1897 29003
" />
<path d="M2212 28767
L2212 29003
" />
<path d="M15224 28767
L9712 28767
" />
<path d="M15224 29003
L15224 28767
" />
<path d="M15539 29003
L15224 29003
" />
<path d="M15539 34043
L15539 29003
" />
<path d="M15224 34043
L15539 34043
" />
<path d="M15224 34279
L15224 34043
" />
<path d="M9712 34279
L15224 34279
" />
<path d="M9712 34043
L9712 34279
" />
<path d="M9397 34043
L9712 34043
" />
<path d="M9397 29003
L9397 34043
" />
<path d="M9712 29003
L9397 29003
" />
<path d="M9712 28767
L9712 29003
" />
<path d="M22724 28767
L17213 28767
" />
<path d="M22724 29003
L22724 28767
" />
<path d="M23039 29003
L22724 29003
" />
<path d="M23039 34043
L23039 29003
" />
<path d="M22724 34043
L23039 34043
" />
<path d="M22724 34279
L22724 34043
" />
<path d="M17213 34279
L22724 34279
" />
<path d="M17213 34043
L17213 34279
" />
<path d="M16897 34043
L17213 34043
" />
<path d="M16897 29003
L16897 34043
" />
<path d="M17213 29003
L16897 29003
" />
<path d="M17213 28767
L17213 29003
" />
<path d="M30224 28767
L24713 28767
" />
<path d="M30224 29003
L30224 28767
" />
<path d="M30539 29003
L30224 29003
" />
<path d="M30539 34043
L30539 29003
" />
<path d="M30224 34043
L30539 34043
" />
<path d="M30224 34279
L30224 34043
" />
<path d="M24713 34279
L30224 34279
" />
<path d="M24713 34043
L24713 34279
" />
<path d="M24397 34043
L24713 34043
" />
<path d="M24397 29003
L24397 34043
" />
<path d="M24713 29003
L24397 29003
" />
<path d="M24713 28767
L24713 29003
" />
<path d="M39599 28767
L34087 28767
" />
<path d="M39599 29003
L39599 28767
" />
<path d="M39914 29003
L39599 29003
" />
<path d="M39914 34043
L39914 29003
" />
<path d="M39599 34043
L39914 34043
" />
<path d="M39599 34279
L39599 34043
" />
<path d="M34087 34279
L39599 34279
" />
<path d="M34087 34043
L34087 34279
" />
<path d="M33772 34043
L34087 34043
" />
<path d="M33772 29003
L33772 34043
" />
<path d="M34087 29003
L33772 29003
" />
<path d="M34087 28767
L34087 29003
" />
<path d="M47099 28767
L41587 28767
" />
<path d="M47099 29003
L47099 28767
" />
<path d="M47414 29003
L47099 29003
" />
<path d="M47414 34043
L47414 29003
" />
<path d="M47099 34043
L47414 34043
" />
<path d="M47099 34279
L47099 34043
" />
<path d="M41587 34279
L47099 34279
" />
<path d="M41587 34043
L41587 34279
" />
<path d="M41272 34043
L41587 34043
" />
<path d="M41272 29003
L41272 34043
" />
<path d="M41587 29003
L41272 29003
" />
<path d="M41587 28767
L41587 29003
" />
<path d="M54599 28767
L49087 28767
" />
<path d="M54599 29003
L54599 28767
" />
<path d="M54914 29003
L54599 29003
" />
<path d="M54914 34043
L54914 29003
" />
<path d="M54599 34043
L54914 34043
" />
<path d="M54599 34279
L54599 34043
" />
<path d="M49087 34279
L54599 34279
" />
<path d="M49087 34043
L49087 34279
" />
<path d="M48772 34043
L49087 34043
" />
<path d="M48772 29003
L48772 34043
" />
<path d="M49087 29003
L48772 29003
" />
<path d="M49087 28767
L49087 29003
" />
<path d="M62099 28767
L56587 28767
" />
<path d="M62099 29003
L62099 28767
" />
<path d="M62414 29003
L62099 29003
" />
<path d="M62414 34043
L62414 29003
" />
<path d="M62099 34043
L62414 34043
" />
<path d="M62099 34279
L62099 34043
" />
<path d="M56587 34279
L62099 34279
" />
<path d="M56587 34043
L56587 34279
" />
<path d="M56272 34043
L56587 34043
" />
<path d="M56272 29003
L56272 34043
" />
<path d="M56587 29003
L56272 29003
" />
<path d="M56587 28767
L56587 29003
" />
<path d="M69599 28767
L64087 28767
" />
<path d="M69599 29003
L69599 28767
" />
<path d="M69914 29003
L69599 29003
" />
<path d="M69914 34043
L69914 29003
" />
<path d="M69599 34043
L69914 34043
" />
<path d="M69599 34279
L69599 34043
" />
<path d="M64087 34279
L69599 34279
" />
<path d="M64087 34043
L64087 34279
" />
<path d="M63772 34043
L64087 34043
" />
<path d="M63772 29003
L63772 34043
" />
<path d="M64087 29003
L63772 29003
" />
<path d="M64087 28767
L64087 29003
" />
<path d="M77099 28767
L71587 28767
" />
<path d="M77099 29003
L77099 28767
" />
<path d="M77414 29003
L77099 29003
" />
<path d="M77414 34043
L77414 29003
" />
<path d="M77099 34043
L77414 34043
" />
<path d="M77099 34279
L77099 34043
" />
<path d="M71587 34279
L77099 34279
" />
<path d="M71587 34043
L71587 34279
" />
<path d="M71272 34043
L71587 34043
" />
<path d="M71272 29003
L71272 34043
" />
<path d="M71587 29003
L71272 29003
" />
<path d="M71587 28767
L71587 29003
" />
<path d="M88349 28767
L82837 28767
" />
<path d="M88349 29003
L88349 28767
" />
<path d="M88664 29003
L88349 29003
" />
<path d="M88664 34043
L88664 29003
" />
<path d="M88349 34043
L88664 34043
" />
<path d="M88349 34279
L88349 34043
" />
<path d="M82837 34279
L88349 34279
" />
<path d="M82837 34043
L82837 34279
" />
<path d="M82522 34043
L82837 34043
" />
<path d="M82522 29003
L82522 34043
" />
<path d="M82837 29003
L82522 29003
" />
<path d="M82837 28767
L82837 29003
" />
<path d="M95849 28767
L90337 28767
" />
<path d="M95849 29003
L95849 28767
" />
<path d="M96164 29003
L95849 29003
" />
<path d="M96164 34043
L96164 29003
" />
<path d="M95849 34043
L96164 34043
" />
<path d="M95849 34279
L95849 34043
" />
<path d="M90337 34279
L95849 34279
" />
<path d="M90337 34043
L90337 34279
" />
<path d="M90022 34043
L90337 34043
" />
<path d="M90022 29003
L90022 34043
" />
<path d="M90337 29003
L90022 29003
" />
<path d="M90337 28767
L90337 29003
" />
<path d="M103349 28767
L97837 28767
" />
<path d="M103349 29003
L103349 28767
" />
<path d="M103664 29003
L103349 29003
" />
<path d="M103664 34043
L103664 29003
" />
<path d="M103349 34043
L103664 34043
" />
<path d="M103349 34279
L103349 34043
" />
<path d="M97837 34279
L103349 34279
" />
<path d="M97837 34043
L97837 34279
" />
<path d="M97522 34043
L97837 34043
" />
<path d="M97522 29003
L97522 34043
" />
<path d="M97837 29003
L97522 29003
" />
<path d="M97837 28767
L97837 29003
" />
<path d="M110849 28767
L105337 28767
" />
<path d="M110849 29003
L110849 28767
" />
<path d="M111164 29003
L110849 29003
" />
<path d="M111164 34043
L111164 29003
" />
<path d="M110849 34043
L111164 34043
" />
<path d="M110849 34279
L110849 34043
" />
<path d="M105337 34279
L110849 34279
" />
<path d="M105337 34043
L105337 34279
" />
<path d="M105022 34043
L105337 34043
" />
<path d="M105022 29003
L105022 34043
" />
<path d="M105337 29003
L105022 29003
" />
<path d="M105337 28767
L105337 29003
" />
<path d="M118349 28767
L112837 28767
" />
<path d="M118349 29003
L118349 28767
" />
<path d="M118664 29003
L118349 29003
" />
<path d="M118664 34043
L118664 29003
" />
<path d="M118349 34043
L118664 34043
" />
<path d="M118349 34279
L118349 34043
" />
<path d="M112837 34279
L118349 34279
" />
<path d="M112837 34043
L112837 34279
" />
<path d="M112522 34043
L112837 34043
" />
<path d="M112522 29003
L112522 34043
" />
<path d="M112837 29003
L112522 29003
" />
<path d="M112837 28767
L112837 29003
" />
<path d="M125849 28767
L120337 28767
" />
<path d="M125849 29003
L125849 28767
" />
<path d="M126164 29003
L125849 29003
" />
<path d="M126164 34043
L126164 29003
" />
<path d="M125849 34043
L126164 34043
" />
<path d="M125849 34279
L125849 34043
" />
<path d="M120337 34279
L125849 34279
" />
<path d="M120337 34043
L120337 34279
" />
<path d="M120022 34043
L120337 34043
" />
<path d="M120022 29003
L120022 34043
" />
<path d="M120337 29003
L120022 29003
" />
<path d="M120337 28767
L120337 29003
" />
<path d="M7724 36268
L2212 36268
" />
<path d="M7724 36504
L7724 36268
" />
<path d="M8039 36504
L7724 36504
" />
<path d="M8039 41543
L8039 36504
" />
<path d="M7724 41543
L8039 41543
" />
<path d="M7724 41779
L7724 41543
" />
<path d="M2212 41779
L7724 41779
" />
<path d="M2212 41543
L2212 41779
" />
<path d="M1897 41543
L2212 41543
" />
<path d="M1897 36504
L1897 41543
" />
<path d="M2212 36504
L1897 36504
" />
<path d="M2212 36268
L2212 36504
" />
<path d="M15224 36268
L9712 36268
" />
<path d="M15224 36504
L15224 36268
" />
<path d="M15539 36504
L15224 36504
" />
<path d="M15539 41543
L15539 36504
" />
<path d="M15224 41543
L15539 41543
" />
<path d="M15224 41779
L15224 41543
" />
<path d="M9712 41779
L15224 41779
" />
<path d="M9712 41543
L9712 41779
" />
<path d="M9397 41543
L9712 41543
" />
<path d="M9397 36504
L9397 41543
" />
<path d="M9712 36504
L9397 36504
" />
<path d="M9712 36268
L9712 36504
" />
<path d="M22724 36268
L17213 36268
" />
<path d="M22724 36504
L22724 36268
" />
<path d="M23039 36504
L22724 36504
" />
<path d="M23039 41543
L23039 36504
" />
<path d="M22724 41543
L23039 41543
" />
<path d="M22724 41779
L22724 41543
" />
<path d="M17213 41779
L22724 41779
" />
<path d="M17213 41543
L17213 41779
" />
<path d="M16897 41543
L17213 41543
" />
<path d="M16897 36504
L16897 41543
" />
<path d="M17213 36504
L16897 36504
" />
<path d="M17213 36268
L17213 36504
" />
<path d="M30224 36268
L24713 36268
" />
<path d="M30224 36504
L30224 36268
" />
<path d="M30539 36504
L30224 36504
" />
<path d="M30539 41543
L30539 36504
" />
<path d="M30224 41543
L30539 41543
" />
<path d="M30224 41779
L30224 41543
" />
<path d="M24713 41779
L30224 41779
" />
<path d="M24713 41543
L24713 41779
" />
<path d="M24397 41543
L24713 41543
" />
<path d="M24397 36504
L24397 41543
" />
<path d="M24713 36504
L24397 36504
" />
<path d="M24713 36268
L24713 36504
" />
<path d="M39599 36268
L34087 36268
" />
<path d="M39599 36504
L39599 36268
" />
<path d="M39914 36504
L39599 36504
" />
<path d="M39914 41543
L39914 36504
" />
<path d="M39599 41543
L39914 41543
" />
<path d="M39599 41779
L39599 41543
" />
<path d="M34087 41779
L39599 41779
" />
<path d="M34087 41543
L34087 41779
" />
<path d="M33772 41543
L34087 41543
" />
<path d="M33772 36504
L33772 41543
" />
<path d="M34087 36504
L33772 36504
" />
<path d="M34087 36268
L34087 36504
" />
<path d="M47099 36268
L41587 36268
" />
<path d="M47099 36504
L47099 36268
" />
<path d="M47414 36504
L47099 36504
" />
<path d="M47414 41543
L47414 36504
" />
<path d="M47099 41543
L47414 41543
" />
<path d="M47099 41779
L47099 41543
" />
<path d="M41587 41779
L47099 41779
" />
<path d="M41587 41543
L41587 41779
" />
<path d="M41272 41543
L41587 41543
" />
<path d="M41272 36504
L41272 41543
" />
<path d="M41587 36504
L41272 36504
" />
<path d="M41587 36268
L41587 36504
" />
<path d="M54599 36268
L49087 36268
" />
<path d="M54599 36504
L54599 36268
" />
<path d="M54914 36504
L54599 36504
" />
<path d="M54914 41543
L54914 36504
" />
<path d="M54599 41543
L54914 41543
" />
<path d="M54599 41779
L54599 41543
" />
<path d="M49087 41779
L54599 41779
" />
<path d="M49087 41543
L49087 41779
" />
<path d="M48772 41543
L49087 41543
" />
<path d="M48772 36504
L48772 41543
" />
<path d="M49087 36504
L48772 36504
" />
<path d="M49087 36268
L49087 36504
" />
<path d="M62099 36268
L56587 36268
" />
<path d="M62099 36504
L62099 36268
" />
<path d="M62414 36504
L62099 36504
" />
<path d="M62414 41543
L62414 36504
" />
<path d="M62099 41543
L62414 41543
" />
<path d="M62099 41779
L62099 41543
" />
<path d="M56587 41779
L62099 41779
" />
<path d="M56587 41543
L56587 41779
" />
<path d="M56272 41543
L56587 41543
" />
<path d="M56272 36504
L56272 41543
" />
<path d="M56587 36504
L56272 36504
" />
<path d="M56587 36268
L56587 36504
" />
<path d="M69599 36268
L64087 36268
" />
<path d="M69599 36504
L69599 36268
" />
<path d="M69914 36504
L69599 36504
" />
<path d="M69914 41543
L69914 36504
" />
<path d="M69599 41543
L69914 41543
" />
<path d="M69599 41779
L69599 41543
" />
<path d="M64087 41779
L69599 41779
" />
<path d="M64087 41543
L64087 41779
" />
<path d="M63772 41543
L64087 41543
" />
<path d="M63772 36504
L63772 41543
" />
<path d="M64087 36504
L63772 36504
" />
<path d="M64087 36268
L64087 36504
" />
<path d="M77099 36268
L71587 36268
" />
<path d="M77099 36504
L77099 36268
" />
<path d="M77414 36504
L77099 36504
" />
<path d="M77414 41543
L77414 36504
" />
<path d="M77099 41543
L77414 41543
" />
<path d="M77099 41779
L77099 41543
" />
<path d="M71587 41779
L77099 41779
" />
<path d="M71587 41543
L71587 41779
" />
<path d="M71272 41543
L71587 41543
" />
<path d="M71272 36504
L71272 41543
" />
<path d="M71587 36504
L71272 36504
" />
<path d="M71587 36268
L71587 36504
" />
<path d="M88349 36268
L82837 36268
" />
<path d="M88349 36504
L88349 36268
" />
<path d="M88664 36504
L88349 36504
" />
<path d="M88664 41543
L88664 36504
" />
<path d="M88349 41543
L88664 41543
" />
<path d="M88349 41779
L88349 41543
" />
<path d="M82837 41779
L88349 41779
" />
<path d="M82837 41543
L82837 41779
" />
<path d="M82522 41543
L82837 41543
" />
<path d="M82522 36504
L82522 41543
" />
<path d="M82837 36504
L82522 36504
" />
<path d="M82837 36268
L82837 36504
" />
<path d="M95849 36268
L90337 36268
" />
<path d="M95849 36504
L95849 36268
" />
<path d="M96164 36504
L95849 36504
" />
<path d="M96164 41543
L96164 36504
" />
<path d="M95849 41543
L96164 41543
" />
<path d="M95849 41779
L95849 41543
" />
<path d="M90337 41779
L95849 41779
" />
<path d="M90337 41543
L90337 41779
" />
<path d="M90022 41543
L90337 41543
" />
<path d="M90022 36504
L90022 41543
" />
<path d="M90337 36504
L90022 36504
" />
<path d="M90337 36268
L90337 36504
" />
<path d="M103349 36268
L97837 36268
" />
<path d="M103349 36504
L103349 36268
" />
<path d="M103664 36504
L103349 36504
" />
<path d="M103664 41543
L103664 36504
" />
<path d="M103349 41543
L103664 41543
" />
<path d="M103349 41779
L103349 41543
" />
<path d="M97837 41779
L103349 41779
" />
<path d="M97837 41543
L97837 41779
" />
<path d="M97522 41543
L97837 41543
" />
<path d="M97522 36504
L97522 41543
" />
<path d="M97837 36504
L97522 36504
" />
<path d="M97837 36268
L97837 36504
" />
<path d="M110849 36268
L105337 36268
" />
<path d="M110849 36504
L110849 36268
" />
<path d="M111164 36504
L110849 36504
" />
<path d="M111164 41543
L111164 36504
" />
<path d="M110849 41543
L111164 41543
" />
<path d="M110849 41779
L110849 41543
" />
<path d="M105337 41779
L110849 41779
" />
<path d="M105337 41543
L105337 41779
" />
<path d="M105022 41543
L105337 41543
" />
<path d="M105022 36504
L105022 41543
" />
<path d="M105337 36504
L105022 36504
" />
<path d="M105337 36268
L105337 36504
" />
<path d="M118349 36268
L112837 36268
" />
<path d="M118349 36504
L118349 36268
" />
<path d="M118664 36504
L118349 36504
" />
<path d="M118664 41543
L118664 36504
" />
<path d="M118349 41543
L118664 41543
" />
<path d="M118349 41779
L118349 41543
" />
<path d="M112837 41779
L118349 41779
" />
<path d="M112837 41543
L112837 41779
" />
<path d="M112522 41543
L112837 41543
" />
<path d="M112522 36504
L112522 41543
" />
<path d="M112837 36504
L112522 36504
" />
<path d="M112837 36268
L112837 36504
" />
<path d="M125849 36268
L120337 36268
" />
<path d="M125849 36504
L125849 36268
" />
<path d="M126164 36504
L125849 36504
" />
<path d="M126164 41543
L126164 36504
" />
<path d="M125849 41543
L126164 41543
" />
<path d="M125849 41779
L125849 41543
" />
<path d="M120337 41779
L125849 41779
" />
<path d="M120337 41543
L120337 41779
" />
<path d="M120022 41543
L120337 41543
" />
<path d="M120022 36504
L120022 41543
" />
<path d="M120337 36504
L120022 36504
" />
<path d="M120337 36268
L120337 36504
" />
<path d="M7724 43768
L2212 43768
" />
<path d="M7724 44004
L7724 43768
" />
<path d="M8039 44004
L7724 44004
" />
<path d="M8039 49043
L8039 44004
" />
<path d="M7724 49043
L8039 49043
" />
<path d="M7724 49279
L7724 49043
" />
<path d="M2212 49279
L7724 49279
" />
<path d="M2212 49043
L2212 49279
" />
<path d="M1897 49043
L2212 49043
" />
<path d="M1897 44004
L1897 49043
" />
<path d="M2212 44004
L1897 44004
" />
<path d="M2212 43768
L2212 44004
" />
<path d="M15224 43768
L9712 43768
" />
<path d="M15224 44004
L15224 43768
" />
<path d="M15539 44004
L15224 44004
" />
<path d="M15539 49043
L15539 44004
" />
<path d="M15224 49043
L15539 49043
" />
<path d="M15224 49279
L15224 49043
" />
<path d="M9712 49279
L15224 49279
" />
<path d="M9712 49043
L9712 49279
" />
<path d="M9397 49043
L9712 49043
" />
<path d="M9397 44004
L9397 49043
" />
<path d="M9712 44004
L9397 44004
" />
<path d="M9712 43768
L9712 44004
" />
<path d="M22724 43768
L17213 43768
" />
<path d="M22724 44004
L22724 43768
" />
<path d="M23039 44004
L22724 44004
" />
<path d="M23039 49043
L23039 44004
" />
<path d="M22724 49043
L23039 49043
" />
<path d="M22724 49279
L22724 49043
" />
<path d="M17213 49279
L22724 49279
" />
<path d="M17213 49043
L17213 49279
" />
<path d="M16897 49043
L17213 49043
" />
<path d="M16897 44004
L16897 49043
" />
<path d="M17213 44004
L16897 44004
" />
<path d="M17213 43768
L17213 44004
" />
<path d="M30224 43768
L24713 43768
" />
<path d="M30224 44004
L30224 43768
" />
<path d="M30539 44004
L30224 44004
" />
<path d="M30539 49043
L30539 44004
" />
<path d="M30224 49043
L30539 49043
" />
<path d="M30224 49279
L30224 49043
" />
<path d="M24713 49279
L30224 49279
" />
<path d="M24713 49043
L24713 49279
" />
<path d="M24397 49043
L24713 49043
" />
<path d="M24397 44004
L24397 49043
" />
<path d="M24713 44004
L24397 44004
" />
<path d="M24713 43768
L24713 44004
" />
<path d="M39599 43768
L34087 43768
" />
<path d="M39599 44004
L39599 43768
" />
<path d="M39914 44004
L39599 44004
" />
<path d="M39914 49043
L39914 44004
" />
<path d="M39599 49043
L39914 49043
" />
<path d="M39599 49279
L39599 49043
" />
<path d="M34087 49279
L39599 49279
" />
<path d="M34087 49043
L34087 49279
" />
<path d="M33772 49043
L34087 49043
" />
<path d="M33772 44004
L33772 49043
" />
<path d="M34087 44004
L33772 44004
" />
<path d="M34087 43768
L34087 44004
" />
<path d="M47099 43768
L41587 43768
" />
<path d="M47099 44004
L47099 43768
" />
<path d="M47414 44004
L47099 44004
" />
<path d="M47414 49043
L47414 44004
" />
<path d="M47099 49043
L47414 49043
" />
<path d="M47099 49279
L47099 49043
" />
<path d="M41587 49279
L47099 49279
" />
<path d="M41587 49043
L41587 49279
" />
<path d="M41272 49043
L41587 49043
" />
<path d="M41272 44004
L41272 49043
" />
<path d="M41587 44004
L41272 44004
" />
<path d="M41587 43768
L41587 44004
" />
<path d="M54599 43768
L49087 43768
" />
<path d="M54599 44004
L54599 43768
" />
<path d="M54914 44004
L54599 44004
" />
<path d="M54914 49043
L54914 44004
" />
<path d="M54599 49043
L54914 49043
" />
<path d="M54599 49279
L54599 49043
" />
<path d="M49087 49279
L54599 49279
" />
<path d="M49087 49043
L49087 49279
" />
<path d="M48772 49043
L49087 49043
" />
<path d="M48772 44004
L48772 49043
" />
<path d="M49087 44004
L48772 44004
" />
<path d="M49087 43768
L49087 44004
" />
<path d="M62099 43768
L56587 43768
" />
<path d="M62099 44004
L62099 43768
" />
<path d="M62414 44004
L62099 44004
" />
<path d="M62414 49043
L62414 44004
" />
<path d="M62099 49043
L62414 49043
" />
<path d="M62099 49279
L62099 49043
" />
<path d="M56587 49279
L62099 49279
" />
<path d="M56587 49043
L56587 49279
" />
<path d="M56272 49043
L56587 49043
" />
<path d="M56272 44004
L56272 49043
" />
<path d="M56587 44004
L56272 44004
" />
<path d="M56587 43768
L56587 44004
" />
<path d="M69599 43768
L64087 43768
" />
<path d="M69599 44004
L69599 43768
" />
<path d="M69914 44004
L69599 44004
" />
<path d="M69914 49043
L69914 44004
" />
<path d="M69599 49043
L69914 49043
" />
<path d="M69599 49279
L69599 49043
" />
<path d="M64087 49279
L69599 49279
" />
<path d="M64087 49043
L64087 49279
" />
<path d="M63772 49043
L64087 49043
" />
<path d="M63772 44004
L63772 49043
" />
<path d="M64087 44004
L63772 44004
" />
<path d="M64087 43768
L64087 44004
" />
<path d="M77099 43768
L71587 43768
" />
<path d="M77099 44004
L77099 43768
" />
<path d="M77414 44004
L77099 44004
" />
<path d="M77414 49043
L77414 44004
" />
<path d="M77099 49043
L77414 49043
" />
<path d="M77099 49279
L77099 49043
" />
<path d="M71587 49279
L77099 49279
" />
<path d="M71587 49043
L71587 49279
" />
<path d="M71272 49043
L71587 49043
" />
<path d="M71272 44004
L71272 49043
" />
<path d="M71587 44004
L71272 44004
" />
<path d="M71587 43768
L71587 44004
" />
<path d="M88349 43768
L82837 43768
" />
<path d="M88349 44004
L88349 43768
" />
<path d="M88664 44004
L88349 44004
" />
<path d="M88664 49043
L88664 44004
" />
<path d="M88349 49043
L88664 49043
" />
<path d="M88349 49279
L88349 49043
" />
<path d="M82837 49279
L88349 49279
" />
<path d="M82837 49043
L82837 49279
" />
<path d="M82522 49043
L82837 49043
" />
<path d="M82522 44004
L82522 49043
" />
<path d="M82837 44004
L82522 44004
" />
<path d="M82837 43768
L82837 44004
" />
<path d="M95849 43768
L90337 43768
" />
<path d="M95849 44004
L95849 43768
" />
<path d="M96164 44004
L95849 44004
" />
<path d="M96164 49043
L96164 44004
" />
<path d="M95849 49043
L96164 49043
" />
<path d="M95849 49279
L95849 49043
" />
<path d="M90337 49279
L95849 49279
" />
<path d="M90337 49043
L90337 49279
" />
<path d="M90022 49043
L90337 49043
" />
<path d="M90022 44004
L90022 49043
" />
<path d="M90337 44004
L90022 44004
" />
<path d="M90337 43768
L90337 44004
" />
<path d="M103349 43768
L97837 43768
" />
<path d="M103349 44004
L103349 43768
" />
<path d="M103664 44004
L103349 44004
" />
<path d="M103664 49043
L103664 44004
" />
<path d="M103349 49043
L103664 49043
" />
<path d="M103349 49279
L103349 49043
" />
<path d="M97837 49279
L103349 49279
" />
<path d="M97837 49043
L97837 49279
" />
<path d="M97522 49043
L97837 49043
" />
<path d="M97522 44004
L97522 49043
" />
<path d="M97837 44004
L97522 44004
" />
<path d="M97837 43768
L97837 44004
" />
<path d="M110849 43768
L105337 43768
" />
<path d="M110849 44004
L110849 43768
" />
<path d="M111164 44004
L110849 44004
" />
<path d="M111164 49043
L111164 44004
" />
<path d="M110849 49043
L111164 49043
" />
<path d="M110849 49279
L110849 49043
" />
<path d="M105337 49279
L110849 49279
" />
<path d="M105337 49043
L105337 49279
" />
<path d="M105022 49043
L105337 49043
" />
<path d="M105022 44004
L105022 49043
" />
<path d="M105337 44004
L105022 44004
" />
<path d="M105337 43768
L105337 44004
" />
<path d="M118349 43768
L112837 43768
" />
<path d="M118349 44004
L118349 43768
" />
<path d="M118664 44004
L118349 44004
" />
<path d="M118664 49043
L118664 44004
" />
<path d="M118349 49043
L118664 49043
" />
<path d="M118349 49279
L118349 49043
" />
<path d="M112837 49279
L118349 49279
" />
<path d="M112837 49043
L112837 49279
" />
<path d="M112522 49043
L112837 49043
" />
<path d="M112522 44004
L112522 49043
" />
<path d="M112837 44004
L112522 44004
" />
<path d="M112837 43768
L112837 44004
" />
<path d="M125849 43768
L120337 43768
" />
<path d="M125849 44004
L125849 43768
" />
<path d="M126164 44004
L125849 44004
" />
<path d="M126164 49043
L126164 44004
" />
<path d="M125849 49043
L126164 49043
" />
<path d="M125849 49279
L125849 49043
" />
<path d="M120337 49279
L125849 49279
" />
<path d="M120337 49043
L120337 49279
" />
<path d="M120022 49043
L120337 49043
" />
<path d="M120022 44004
L120022 49043
" />
<path d="M120337 44004
L120022 44004
" />
<path d="M120337 43768
L120337 44004
" />
<path d="M7724 51268
L2212 51268
" />
<path d="M7724 51503
L7724 51268
" />
<path d="M8039 51503
L7724 51503
" />
<path d="M8039 56543
L8039 51503
" />
<path d="M7724 56543
L8039 56543
" />
<path d="M7724 56779
L7724 56543
" />
<path d="M2212 56779
L7724 56779
" />
<path d="M2212 56543
L2212 56779
" />
<path d="M1897 56543
L2212 56543
" />
<path d="M1897 51503
L1897 56543
" />
<path d="M2212 51503
L1897 51503
" />
<path d="M2212 51268
L2212 51503
" />
<path d="M15224 51268
L9712 51268
" />
<path d="M15224 51503
L15224 51268
" />
<path d="M15539 51503
L15224 51503
" />
<path d="M15539 56543
L15539 51503
" />
<path d="M15224 56543
L15539 56543
" />
<path d="M15224 56779
L15224 56543
" />
<path d="M9712 56779
L15224 56779
" />
<path d="M9712 56543
L9712 56779
" />
<path d="M9397 56543
L9712 56543
" />
<path d="M9397 51503
L9397 56543
" />
<path d="M9712 51503
L9397 51503
" />
<path d="M9712 51268
L9712 51503
" />
<path d="M22724 51268
L17213 51268
" />
<path d="M22724 51503
L22724 51268
" />
<path d="M23039 51503
L22724 51503
" />
<path d="M23039 56543
L23039 51503
" />
<path d="M22724 56543
L23039 56543
" />
<path d="M22724 56779
L22724 56543
" />
<path d="M17213 56779
L22724 56779
" />
<path d="M17213 56543
L17213 56779
" />
<path d="M16897 56543
L17213 56543
" />
<path d="M16897 51503
L16897 56543
" />
<path d="M17213 51503
L16897 51503
" />
<path d="M17213 51268
L17213 51503
" />
<path d="M30224 51268
L24713 51268
" />
<path d="M30224 51503
L30224 51268
" />
<path d="M30539 51503
L30224 51503
" />
<path d="M30539 56543
L30539 51503
" />
<path d="M30224 56543
L30539 56543
" />
<path d="M30224 56779
L30224 56543
" />
<path d="M24713 56779
L30224 56779
" />
<path d="M24713 56543
L24713 56779
" />
<path d="M24397 56543
L24713 56543
" />
<path d="M24397 51503
L24397 56543
" />
<path d="M24713 51503
L24397 51503
" />
<path d="M24713 51268
L24713 51503
" />
<path d="M39599 51268
L34087 51268
" />
<path d="M39599 51503
L39599 51268
" />
<path d="M39914 51503
L39599 51503
" />
<path d="M39914 56543
L39914 51503
" />
<path d="M39599 56543
L39914 56543
" />
<path d="M39599 56779
L39599 56543
" />
<path d="M34087 56779
L39599 56779
" />
<path d="M34087 56543
L34087 56779
" />
<path d="M33772 56543
L34087 56543
" />
<path d="M33772 51503
L33772 56543
" />
<path d="M34087 51503
L33772 51503
" />
<path d="M34087 51268
L34087 51503
" />
<path d="M47099 51268
L41587 51268
" />
<path d="M47099 51503
L47099 51268
" />
<path d="M47414 51503
L47099 51503
" />
<path d="M47414 56543
L47414 51503
" />
<path d="M47099 56543
L47414 56543
" />
<path d="M47099 56779
L47099 56543
" />
<path d="M41587 56779
L47099 56779
" />
<path d="M41587 56543
L41587 56779
" />
<path d="M41272 56543
L41587 56543
" />
<path d="M41272 51503
L41272 56543
" />
<path d="M41587 51503
L41272 51503
" />
<path d="M41587 51268
L41587 51503
" />
<path d="M54599 51268
L49087 51268
" />
<path d="M54599 51503
L54599 51268
" />
<path d="M54914 51503
L54599 51503
" />
<path d="M54914 56543
L54914 51503
" />
<path d="M54599 56543
L54914 56543
" />
<path d="M54599 56779
L54599 56543
" />
<path d="M49087 56779
L54599 56779
" />
<path d="M49087 56543
L49087 56779
" />
<path d="M48772 56543
L49087 56543
" />
<path d="M48772 51503
L48772 56543
" />
<path d="M49087 51503
L48772 51503
" />
<path d="M49087 51268
L49087 51503
" />
<path d="M62099 51268
L56587 51268
" />
<path d="M62099 51503
L62099 51268
" />
<path d="M62414 51503
L62099 51503
" />
<path d="M62414 56543
L62414 51503
" />
<path d="M62099 56543
L62414 56543
" />
<path d="M62099 56779
L62099 56543
" />
<path d="M56587 56779
L62099 56779
" />
<path d="M56587 56543
L56587 56779
" />
<path d="M56272 56543
L56587 56543
" />
<path d="M56272 51503
L56272 56543
" />
<path d="M56587 51503
L56272 51503
" />
<path d="M56587 51268
L56587 51503
" />
<path d="M70536 51268
L65024 51268
" />
<path d="M70536 51503
L70536 51268
" />
<path d="M70851 51503
L70536 51503
" />
<path d="M70851 56543
L70851 51503
" />
<path d="M70536 56543
L70851 56543
" />
<path d="M70536 56779
L70536 56543
" />
<path d="M65024 56779
L70536 56779
" />
<path d="M65024 56543
L65024 56779
" />
<path d="M64710 56543
L65024 56543
" />
<path d="M64710 51503
L64710 56543
" />
<path d="M65024 51503
L64710 51503
" />
<path d="M65024 51268
L65024 51503
" />
<path d="M94912 51268
L89400 51268
" />
<path d="M94912 51503
L94912 51268
" />
<path d="M95226 51503
L94912 51503
" />
<path d="M95226 56543
L95226 51503
" />
<path d="M94912 56543
L95226 56543
" />
<path d="M94912 56779
L94912 56543
" />
<path d="M89400 56779
L94912 56779
" />
<path d="M89400 56543
L89400 56779
" />
<path d="M89085 56543
L89400 56543
" />
<path d="M89085 51503
L89085 56543
" />
<path d="M89400 51503
L89085 51503
" />
<path d="M89400 51268
L89400 51503
" />
<path d="M103349 51268
L97837 51268
" />
<path d="M103349 51503
L103349 51268
" />
<path d="M103664 51503
L103349 51503
" />
<path d="M103664 56543
L103664 51503
" />
<path d="M103349 56543
L103664 56543
" />
<path d="M103349 56779
L103349 56543
" />
<path d="M97837 56779
L103349 56779
" />
<path d="M97837 56543
L97837 56779
" />
<path d="M97522 56543
L97837 56543
" />
<path d="M97522 51503
L97522 56543
" />
<path d="M97837 51503
L97522 51503
" />
<path d="M97837 51268
L97837 51503
" />
<path d="M110849 51268
L105337 51268
" />
<path d="M110849 51503
L110849 51268
" />
<path d="M111164 51503
L110849 51503
" />
<path d="M111164 56543
L111164 51503
" />
<path d="M110849 56543
L111164 56543
" />
<path d="M110849 56779
L110849 56543
" />
<path d="M105337 56779
L110849 56779
" />
<path d="M105337 56543
L105337 56779
" />
<path d="M105022 56543
L105337 56543
" />
<path d="M105022 51503
L105022 56543
" />
<path d="M105337 51503
L105022 51503
" />
<path d="M105337 51268
L105337 51503
" />
<path d="M118349 51268
L112837 51268
" />
<path d="M118349 51503
L118349 51268
" />
<path d="M118664 51503
L118349 51503
" />
<path d="M118664 56543
L118664 51503
" />
<path d="M118349 56543
L118664 56543
" />
<path d="M118349 56779
L118349 56543
" />
<path d="M112837 56779
L118349 56779
" />
<path d="M112837 56543
L112837 56779
" />
<path d="M112522 56543
L112837 56543
" />
<path d="M112522 51503
L112522 56543
" />
<path d="M112837 51503
L112522 51503
" />
<path d="M112837 51268
L112837 51503
" />
<path d="M125849 51268
L120337 51268
" />
<path d="M125849 51503
L125849 51268
" />
<path d="M126164 51503
L125849 51503
" />
<path d="M126164 56543
L126164 51503
" />
<path d="M125849 56543
L126164 56543
" />
<path d="M125849 56779
L125849 56543
" />
<path d="M120337 56779
L125849 56779
" />
<path d="M120337 56543
L120337 56779
" />
<path d="M120022 56543
L120337 56543
" />
<path d="M120022 51503
L120022 56543
" />
<path d="M120337 51503
L120022 51503
" />
<path d="M120337 51268
L120337 51503
" />
<path d="M82724 51268
L77212 51268
" />
<path d="M82724 51503
L82724 51268
" />
<path d="M83039 51503
L82724 51503
" />
<path d="M83039 53118
L83039 51503
" />
<path d="M83325 53118
L83039 53118
" />
<path d="M83325 51846
L83325 53118
" />
<path d="M84003 51846
L83325 51846
" />
<path d="M84003 51484
L84003 51846
" />
<path d="M85303 51484
L84003 51484
" />
<path d="M85303 51846
L85303 51484
" />
<path d="M85982 51846
L85303 51846
" />
<path d="M85982 53118
L85982 51846
" />
<path d="M86307 53118
L85982 53118
" />
<path d="M86307 54220
L86307 53118
" />
<path d="M85982 54220
L86307 54220
" />
<path d="M85982 56689
L85982 54220
" />
<path d="M85303 56689
L85982 56689
" />
<path d="M85303 57074
L85303 56689
" />
<path d="M84003 57074
L85303 57074
" />
<path d="M84003 56689
L84003 57074
" />
<path d="M83325 56689
L84003 56689
" />
<path d="M83325 54929
L83325 56689
" />
<path d="M83039 54929
L83325 54929
" />
<path d="M83039 56543
L83039 54929
" />
<path d="M82724 56543
L83039 56543
" />
<path d="M82724 56779
L82724 56543
" />
<path d="M77212 56779
L82724 56779
" />
<path d="M77212 56543
L77212 56779
" />
<path d="M76897 56543
L77212 56543
" />
<path d="M76897 54929
L76897 56543
" />
<path d="M76612 54929
L76897 54929
" />
<path d="M76612 56689
L76612 54929
" />
<path d="M75933 56689
L76612 56689
" />
<path d="M75933 57074
L75933 56689
" />
<path d="M74633 57074
L75933 57074
" />
<path d="M74633 56689
L74633 57074
" />
<path d="M73955 56689
L74633 56689
" />
<path d="M73955 54220
L73955 56689
" />
<path d="M73630 54220
L73955 54220
" />
<path d="M73630 53118
L73630 54220
" />
<path d="M73955 53118
L73630 53118
" />
<path d="M73955 51846
L73955 53118
" />
<path d="M74633 51846
L73955 51846
" />
<path d="M74633 51484
L74633 51846
" />
<path d="M75933 51484
L74633 51484
" />
<path d="M75933 51846
L75933 51484
" />
<path d="M76612 51846
L75933 51846
" />
<path d="M76612 53118
L76612 51846
" />
<path d="M76897 53118
L76612 53118
" />
<path d="M76897 51503
L76897 53118
" />
<path d="M77212 51503
L76897 51503
" />
<path d="M77212 51268
L77212 51503
" />
<path d="M825 26592
L127237 26592
" />
<path d="M763 26595
L825 26592
" />
<path d="M701 26602
L763 26595
" />
<path d="M641 26614
L701 26602
" />
<path d="M581 26631
L641 26614
" />
<path d="M523 26652
L581 26631
" />
<path d="M467 26678
L523 26652
" />
<path d="M413 26708
L467 26678
" />
<path d="M361 26742
L413 26708
" />
<path d="M313 26781
L361 26742
" />
<path d="M268 26823
L313 26781
" />
<path d="M226 26868
L268 26823
" />
<path d="M187 26916
L226 26868
" />
<path d="M153 26968
L187 26916
" />
<path d="M123 27022
L153 26968
" />
<path d="M97 27078
L123 27022
" />
<path d="M75 27136
L97 27078
" />
<path d="M59 27196
L75 27136
" />
<path d="M47 27256
L59 27196
" />
<path d="M40 27318
L47 27256
" />
<path d="M37 27380
L40 27318
" />
<path d="M37 58168
L37 27380
" />
<path d="M40 58229
L37 58168
" />
<path d="M47 58290
L40 58229
" />
<path d="M59 58351
L47 58290
" />
<path d="M75 58411
L59 58351
" />
<path d="M97 58469
L75 58411
" />
<path d="M123 58525
L97 58469
" />
<path d="M153 58578
L123 58525
" />
<path d="M187 58630
L153 58578
" />
<path d="M226 58679
L187 58630
" />
<path d="M268 58724
L226 58679
" />
<path d="M313 58766
L268 58724
" />
<path d="M361 58805
L313 58766
" />
<path d="M413 58839
L361 58805
" />
<path d="M467 58869
L413 58839
" />
<path d="M523 58895
L467 58869
" />
<path d="M581 58916
L523 58895
" />
<path d="M641 58933
L581 58916
" />
<path d="M701 58945
L641 58933
" />
<path d="M763 58952
L701 58945
" />
<path d="M825 58955
L763 58952
" />
<path d="M127237 58954
L825 58955
" />
<path d="M127299 58952
L127237 58954
" />
<path d="M127360 58945
L127299 58952
" />
<path d="M127421 58933
L127360 58945
" />
<path d="M127481 58916
L127421 58933
" />
<path d="M127538 58895
L127481 58916
" />
<path d="M127594 58869
L127538 58895
" />
<path d="M127649 58839
L127594 58869
" />
<path d="M127700 58805
L127649 58839
" />
<path d="M127749 58766
L127700 58805
" />
<path d="M127794 58724
L127749 58766
" />
<path d="M127836 58679
L127794 58724
" />
<path d="M127874 58630
L127836 58679
" />
<path d="M127909 58578
L127874 58630
" />
<path d="M127938 58525
L127909 58578
" />
<path d="M127964 58469
L127938 58525
" />
<path d="M127986 58411
L127964 58469
" />
<path d="M128003 58351
L127986 58411
" />
<path d="M128015 58290
L128003 58351
" />
<path d="M128022 58229
L128015 58290
" />
<path d="M128025 58168
L128022 58229
" />
<path d="M128025 27380
L128025 58168
" />
<path d="M128022 27318
L128025 27380
" />
<path d="M128015 27256
L128022 27318
" />
<path d="M128003 27196
L128015 27256
" />
<path d="M127986 27136
L128003 27196
" />
<path d="M127964 27078
L127986 27136
" />
<path d="M127938 27022
L127964 27078
" />
<path d="M127909 26968
L127938 27022
" />
<path d="M127874 26916
L127909 26968
" />
<path d="M127836 26868
L127874 26916
" />
<path d="M127794 26823
L127836 26868
" />
<path d="M127749 26781
L127794 26823
" />
<path d="M127700 26742
L127749 26781
" />
<path d="M127649 26708
L127700 26742
" />
<path d="M127594 26678
L127649 26708
" />
<path d="M127538 26652
L127594 26678
" />
<path d="M127481 26631
L127538 26652
" />
<path d="M127421 26614
L127481 26631
" />
<path d="M127360 26602
L127421 26614
" />
<path d="M127299 26595
L127360 26602
" />
<path d="M127237 26592
L127299 26595
" />
<g >
</g>
<g >
</g>
<g >
</g>
<g >
</g>
</g> 
</svg>
