G04 #@! TF.GenerationSoftware,KiCad,Pcbnew,(5.1.4)-1*
G04 #@! TF.CreationDate,2020-04-28T20:07:22-05:00*
G04 #@! TF.ProjectId,augio_switchplate,61756769-6f5f-4737-9769-746368706c61,rev?*
G04 #@! TF.SameCoordinates,Original*
G04 #@! TF.FileFunction,Legend,Bot*
G04 #@! TF.FilePolarity,Positive*
%FSLAX46Y46*%
G04 Gerber Fmt 4.6, Leading zero omitted, Abs format (unit mm)*
G04 Created by KiCad (PCBNEW (5.1.4)-1) date 2020-04-28 20:07:22*
%MOMM*%
%LPD*%
G04 APERTURE LIST*
%ADD10C,0.010000*%
G04 APERTURE END LIST*
D10*
G36*
X203402167Y-112714954D02*
G01*
X203526850Y-113078204D01*
X203710343Y-113358903D01*
X203852195Y-113436449D01*
X204069512Y-113470238D01*
X204317669Y-113457839D01*
X204534251Y-113403775D01*
X204802918Y-113242672D01*
X205035574Y-112992361D01*
X205199049Y-112690599D01*
X205222750Y-112620001D01*
X205289056Y-112360974D01*
X205305457Y-112155821D01*
X205271660Y-111941510D01*
X205218727Y-111754726D01*
X205063151Y-111434238D01*
X204833372Y-111209702D01*
X204546394Y-111088694D01*
X204398722Y-111084224D01*
X204398722Y-111502670D01*
X204800213Y-111502670D01*
X204828946Y-111709045D01*
X204854887Y-112022747D01*
X204850417Y-112334654D01*
X204818750Y-112610650D01*
X204763100Y-112816620D01*
X204717231Y-112895005D01*
X204543354Y-112999830D01*
X204313212Y-113021060D01*
X204068783Y-112955588D01*
X204046260Y-112944703D01*
X203886799Y-112797546D01*
X203791973Y-112567080D01*
X203765051Y-112281186D01*
X203809305Y-111967746D01*
X203901315Y-111709045D01*
X203960198Y-111596705D01*
X204028524Y-111534955D01*
X204142733Y-111508675D01*
X204339267Y-111502745D01*
X204398722Y-111502670D01*
X204398722Y-111084224D01*
X204219223Y-111078790D01*
X203906685Y-111170145D01*
X203690385Y-111294857D01*
X203544543Y-111466095D01*
X203484167Y-111578486D01*
X203375868Y-111926075D01*
X203350187Y-112317904D01*
X203402167Y-112714954D01*
X203402167Y-112714954D01*
G37*
X203402167Y-112714954D02*
X203526850Y-113078204D01*
X203710343Y-113358903D01*
X203852195Y-113436449D01*
X204069512Y-113470238D01*
X204317669Y-113457839D01*
X204534251Y-113403775D01*
X204802918Y-113242672D01*
X205035574Y-112992361D01*
X205199049Y-112690599D01*
X205222750Y-112620001D01*
X205289056Y-112360974D01*
X205305457Y-112155821D01*
X205271660Y-111941510D01*
X205218727Y-111754726D01*
X205063151Y-111434238D01*
X204833372Y-111209702D01*
X204546394Y-111088694D01*
X204398722Y-111084224D01*
X204398722Y-111502670D01*
X204800213Y-111502670D01*
X204828946Y-111709045D01*
X204854887Y-112022747D01*
X204850417Y-112334654D01*
X204818750Y-112610650D01*
X204763100Y-112816620D01*
X204717231Y-112895005D01*
X204543354Y-112999830D01*
X204313212Y-113021060D01*
X204068783Y-112955588D01*
X204046260Y-112944703D01*
X203886799Y-112797546D01*
X203791973Y-112567080D01*
X203765051Y-112281186D01*
X203809305Y-111967746D01*
X203901315Y-111709045D01*
X203960198Y-111596705D01*
X204028524Y-111534955D01*
X204142733Y-111508675D01*
X204339267Y-111502745D01*
X204398722Y-111502670D01*
X204398722Y-111084224D01*
X204219223Y-111078790D01*
X203906685Y-111170145D01*
X203690385Y-111294857D01*
X203544543Y-111466095D01*
X203484167Y-111578486D01*
X203375868Y-111926075D01*
X203350187Y-112317904D01*
X203402167Y-112714954D01*
G36*
X201398736Y-86151566D02*
G01*
X201449481Y-86337777D01*
X201511446Y-86532935D01*
X201590232Y-86748256D01*
X201659021Y-86871500D01*
X201741502Y-86933041D01*
X201844821Y-86960382D01*
X202032565Y-86964349D01*
X202259360Y-86930768D01*
X202331760Y-86912045D01*
X202617510Y-86827686D01*
X202635795Y-86316203D01*
X202639129Y-86033209D01*
X202622742Y-85852699D01*
X202583728Y-85751277D01*
X202562891Y-85729040D01*
X202457942Y-85704783D01*
X202315229Y-85715144D01*
X202315229Y-85924983D01*
X202375619Y-85994509D01*
X202394090Y-86163639D01*
X202395260Y-86291706D01*
X202388500Y-86513054D01*
X202360081Y-86646453D01*
X202297793Y-86730600D01*
X202244309Y-86770148D01*
X202060236Y-86825514D01*
X201881116Y-86771836D01*
X201741346Y-86623611D01*
X201704733Y-86542747D01*
X201665460Y-86331689D01*
X201727003Y-86176186D01*
X201900820Y-86053836D01*
X201970725Y-86022651D01*
X202188429Y-85939538D01*
X202315229Y-85924983D01*
X202315229Y-85715144D01*
X202276026Y-85717991D01*
X202050506Y-85759837D01*
X201814748Y-85821496D01*
X201602115Y-85894144D01*
X201445971Y-85968954D01*
X201379682Y-86037101D01*
X201379260Y-86042134D01*
X201398736Y-86151566D01*
X201398736Y-86151566D01*
G37*
X201398736Y-86151566D02*
X201449481Y-86337777D01*
X201511446Y-86532935D01*
X201590232Y-86748256D01*
X201659021Y-86871500D01*
X201741502Y-86933041D01*
X201844821Y-86960382D01*
X202032565Y-86964349D01*
X202259360Y-86930768D01*
X202331760Y-86912045D01*
X202617510Y-86827686D01*
X202635795Y-86316203D01*
X202639129Y-86033209D01*
X202622742Y-85852699D01*
X202583728Y-85751277D01*
X202562891Y-85729040D01*
X202457942Y-85704783D01*
X202315229Y-85715144D01*
X202315229Y-85924983D01*
X202375619Y-85994509D01*
X202394090Y-86163639D01*
X202395260Y-86291706D01*
X202388500Y-86513054D01*
X202360081Y-86646453D01*
X202297793Y-86730600D01*
X202244309Y-86770148D01*
X202060236Y-86825514D01*
X201881116Y-86771836D01*
X201741346Y-86623611D01*
X201704733Y-86542747D01*
X201665460Y-86331689D01*
X201727003Y-86176186D01*
X201900820Y-86053836D01*
X201970725Y-86022651D01*
X202188429Y-85939538D01*
X202315229Y-85924983D01*
X202315229Y-85715144D01*
X202276026Y-85717991D01*
X202050506Y-85759837D01*
X201814748Y-85821496D01*
X201602115Y-85894144D01*
X201445971Y-85968954D01*
X201379682Y-86037101D01*
X201379260Y-86042134D01*
X201398736Y-86151566D01*
G36*
X199656211Y-106515431D02*
G01*
X199675069Y-106836349D01*
X199693125Y-106978295D01*
X199739423Y-107248170D01*
X200873093Y-107248170D01*
X201240103Y-107245039D01*
X201561598Y-107236348D01*
X201816635Y-107223144D01*
X201984266Y-107206476D01*
X202042974Y-107189581D01*
X202074601Y-107097722D01*
X202116238Y-106926145D01*
X202142144Y-106799004D01*
X202190477Y-106576422D01*
X202251326Y-106431481D01*
X202350343Y-106347562D01*
X202513182Y-106308046D01*
X202765493Y-106296313D01*
X202919044Y-106295670D01*
X203213618Y-106305736D01*
X203553429Y-106333087D01*
X203907652Y-106373452D01*
X204245465Y-106422561D01*
X204536044Y-106476142D01*
X204748564Y-106529924D01*
X204824135Y-106559641D01*
X204915612Y-106675878D01*
X204923423Y-106885965D01*
X204847572Y-107190694D01*
X204829003Y-107244545D01*
X204773894Y-107437431D01*
X204753313Y-107591302D01*
X204759443Y-107639344D01*
X204836459Y-107709510D01*
X204996810Y-107790488D01*
X205144444Y-107844528D01*
X205333135Y-107892532D01*
X205589285Y-107942424D01*
X205885940Y-107990767D01*
X206196148Y-108034128D01*
X206492957Y-108069070D01*
X206749415Y-108092159D01*
X206938569Y-108099959D01*
X207033467Y-108089034D01*
X207037684Y-108085830D01*
X207091578Y-107961343D01*
X207139587Y-107728759D01*
X207180756Y-107406881D01*
X207214131Y-107014518D01*
X207238755Y-106570474D01*
X207253674Y-106093555D01*
X207257933Y-105602568D01*
X207250577Y-105116318D01*
X207230649Y-104653612D01*
X207220083Y-104494635D01*
X207196373Y-104199375D01*
X207172933Y-103953743D01*
X207152481Y-103783520D01*
X207137842Y-103714585D01*
X207055709Y-103687027D01*
X206872662Y-103652924D01*
X206614392Y-103615788D01*
X206306586Y-103579134D01*
X205974933Y-103546475D01*
X205808385Y-103532756D01*
X205252760Y-103490269D01*
X205252760Y-103669927D01*
X205228057Y-103843661D01*
X205166576Y-104054236D01*
X205144715Y-104110812D01*
X205036670Y-104372040D01*
X204048614Y-104453974D01*
X203469443Y-104494963D01*
X203003239Y-104510307D01*
X202638132Y-104497691D01*
X202362252Y-104454801D01*
X202163727Y-104379323D01*
X202030686Y-104268941D01*
X201951259Y-104121340D01*
X201929559Y-104040792D01*
X201882448Y-103821706D01*
X201836763Y-103618627D01*
X201831682Y-103596920D01*
X201786756Y-103406420D01*
X200918512Y-103427738D01*
X200918512Y-103769801D01*
X201189485Y-103779925D01*
X201247576Y-103786775D01*
X201434299Y-103817802D01*
X201532404Y-103865270D01*
X201579306Y-103961237D01*
X201604833Y-104092841D01*
X201712437Y-104374542D01*
X201917187Y-104616803D01*
X202189499Y-104788462D01*
X202302989Y-104828270D01*
X202509125Y-104871378D01*
X202750243Y-104891743D01*
X203047942Y-104889046D01*
X203423823Y-104862966D01*
X203899485Y-104813186D01*
X203982760Y-104803420D01*
X204322726Y-104766229D01*
X204650450Y-104735870D01*
X204927145Y-104715618D01*
X205104830Y-104708721D01*
X205433151Y-104708170D01*
X205477161Y-104297215D01*
X205518350Y-104019848D01*
X205582507Y-103853566D01*
X205689166Y-103782501D01*
X205857861Y-103790784D01*
X206039553Y-103840375D01*
X206276527Y-103901818D01*
X206504681Y-103939984D01*
X206599816Y-103946170D01*
X206824460Y-103946170D01*
X206889599Y-104819295D01*
X206916868Y-105278703D01*
X206932484Y-105751160D01*
X206936852Y-106214200D01*
X206930374Y-106645357D01*
X206913452Y-107022167D01*
X206886489Y-107322163D01*
X206849889Y-107522881D01*
X206840615Y-107551401D01*
X206779298Y-107686756D01*
X206701900Y-107734268D01*
X206558134Y-107720725D01*
X206531862Y-107715860D01*
X206354400Y-107693932D01*
X206101279Y-107676524D01*
X205823833Y-107667056D01*
X205792510Y-107666628D01*
X205284510Y-107660920D01*
X205281348Y-107089420D01*
X205278570Y-106822049D01*
X205273848Y-106595832D01*
X205268021Y-106446311D01*
X205265473Y-106415162D01*
X205194542Y-106332656D01*
X205013462Y-106252528D01*
X204739082Y-106177577D01*
X204388253Y-106110603D01*
X203977825Y-106054403D01*
X203524647Y-106011777D01*
X203045570Y-105985523D01*
X202634450Y-105978170D01*
X201979634Y-105978170D01*
X201897426Y-106279795D01*
X201845811Y-106488206D01*
X201810571Y-106665599D01*
X201803613Y-106718717D01*
X201788112Y-106783804D01*
X201742212Y-106833078D01*
X201647962Y-106870720D01*
X201487410Y-106900912D01*
X201242601Y-106927833D01*
X200895585Y-106955664D01*
X200737113Y-106967070D01*
X200399686Y-106983611D01*
X200184130Y-106976609D01*
X200087494Y-106945950D01*
X200084501Y-106941982D01*
X200044131Y-106809980D01*
X200015836Y-106586576D01*
X200000529Y-106306877D01*
X199999118Y-106005988D01*
X200012516Y-105719018D01*
X200041632Y-105481071D01*
X200046018Y-105458494D01*
X200086268Y-105196092D01*
X200117455Y-104870702D01*
X200133676Y-104546297D01*
X200134481Y-104499471D01*
X200144310Y-104202410D01*
X200167559Y-104012151D01*
X200207405Y-103908910D01*
X200233223Y-103884539D01*
X200395404Y-103826442D01*
X200638826Y-103786752D01*
X200918512Y-103769801D01*
X200918512Y-103427738D01*
X200836883Y-103429743D01*
X200504142Y-103438880D01*
X200219864Y-103448525D01*
X200006576Y-103457767D01*
X199886808Y-103465698D01*
X199869119Y-103468800D01*
X199855295Y-103534086D01*
X199830199Y-103701474D01*
X199797186Y-103946911D01*
X199759611Y-104246345D01*
X199752790Y-104302727D01*
X199710196Y-104729011D01*
X199678590Y-105192625D01*
X199658623Y-105664368D01*
X199650946Y-106115037D01*
X199656211Y-106515431D01*
X199656211Y-106515431D01*
G37*
X199656211Y-106515431D02*
X199675069Y-106836349D01*
X199693125Y-106978295D01*
X199739423Y-107248170D01*
X200873093Y-107248170D01*
X201240103Y-107245039D01*
X201561598Y-107236348D01*
X201816635Y-107223144D01*
X201984266Y-107206476D01*
X202042974Y-107189581D01*
X202074601Y-107097722D01*
X202116238Y-106926145D01*
X202142144Y-106799004D01*
X202190477Y-106576422D01*
X202251326Y-106431481D01*
X202350343Y-106347562D01*
X202513182Y-106308046D01*
X202765493Y-106296313D01*
X202919044Y-106295670D01*
X203213618Y-106305736D01*
X203553429Y-106333087D01*
X203907652Y-106373452D01*
X204245465Y-106422561D01*
X204536044Y-106476142D01*
X204748564Y-106529924D01*
X204824135Y-106559641D01*
X204915612Y-106675878D01*
X204923423Y-106885965D01*
X204847572Y-107190694D01*
X204829003Y-107244545D01*
X204773894Y-107437431D01*
X204753313Y-107591302D01*
X204759443Y-107639344D01*
X204836459Y-107709510D01*
X204996810Y-107790488D01*
X205144444Y-107844528D01*
X205333135Y-107892532D01*
X205589285Y-107942424D01*
X205885940Y-107990767D01*
X206196148Y-108034128D01*
X206492957Y-108069070D01*
X206749415Y-108092159D01*
X206938569Y-108099959D01*
X207033467Y-108089034D01*
X207037684Y-108085830D01*
X207091578Y-107961343D01*
X207139587Y-107728759D01*
X207180756Y-107406881D01*
X207214131Y-107014518D01*
X207238755Y-106570474D01*
X207253674Y-106093555D01*
X207257933Y-105602568D01*
X207250577Y-105116318D01*
X207230649Y-104653612D01*
X207220083Y-104494635D01*
X207196373Y-104199375D01*
X207172933Y-103953743D01*
X207152481Y-103783520D01*
X207137842Y-103714585D01*
X207055709Y-103687027D01*
X206872662Y-103652924D01*
X206614392Y-103615788D01*
X206306586Y-103579134D01*
X205974933Y-103546475D01*
X205808385Y-103532756D01*
X205252760Y-103490269D01*
X205252760Y-103669927D01*
X205228057Y-103843661D01*
X205166576Y-104054236D01*
X205144715Y-104110812D01*
X205036670Y-104372040D01*
X204048614Y-104453974D01*
X203469443Y-104494963D01*
X203003239Y-104510307D01*
X202638132Y-104497691D01*
X202362252Y-104454801D01*
X202163727Y-104379323D01*
X202030686Y-104268941D01*
X201951259Y-104121340D01*
X201929559Y-104040792D01*
X201882448Y-103821706D01*
X201836763Y-103618627D01*
X201831682Y-103596920D01*
X201786756Y-103406420D01*
X200918512Y-103427738D01*
X200918512Y-103769801D01*
X201189485Y-103779925D01*
X201247576Y-103786775D01*
X201434299Y-103817802D01*
X201532404Y-103865270D01*
X201579306Y-103961237D01*
X201604833Y-104092841D01*
X201712437Y-104374542D01*
X201917187Y-104616803D01*
X202189499Y-104788462D01*
X202302989Y-104828270D01*
X202509125Y-104871378D01*
X202750243Y-104891743D01*
X203047942Y-104889046D01*
X203423823Y-104862966D01*
X203899485Y-104813186D01*
X203982760Y-104803420D01*
X204322726Y-104766229D01*
X204650450Y-104735870D01*
X204927145Y-104715618D01*
X205104830Y-104708721D01*
X205433151Y-104708170D01*
X205477161Y-104297215D01*
X205518350Y-104019848D01*
X205582507Y-103853566D01*
X205689166Y-103782501D01*
X205857861Y-103790784D01*
X206039553Y-103840375D01*
X206276527Y-103901818D01*
X206504681Y-103939984D01*
X206599816Y-103946170D01*
X206824460Y-103946170D01*
X206889599Y-104819295D01*
X206916868Y-105278703D01*
X206932484Y-105751160D01*
X206936852Y-106214200D01*
X206930374Y-106645357D01*
X206913452Y-107022167D01*
X206886489Y-107322163D01*
X206849889Y-107522881D01*
X206840615Y-107551401D01*
X206779298Y-107686756D01*
X206701900Y-107734268D01*
X206558134Y-107720725D01*
X206531862Y-107715860D01*
X206354400Y-107693932D01*
X206101279Y-107676524D01*
X205823833Y-107667056D01*
X205792510Y-107666628D01*
X205284510Y-107660920D01*
X205281348Y-107089420D01*
X205278570Y-106822049D01*
X205273848Y-106595832D01*
X205268021Y-106446311D01*
X205265473Y-106415162D01*
X205194542Y-106332656D01*
X205013462Y-106252528D01*
X204739082Y-106177577D01*
X204388253Y-106110603D01*
X203977825Y-106054403D01*
X203524647Y-106011777D01*
X203045570Y-105985523D01*
X202634450Y-105978170D01*
X201979634Y-105978170D01*
X201897426Y-106279795D01*
X201845811Y-106488206D01*
X201810571Y-106665599D01*
X201803613Y-106718717D01*
X201788112Y-106783804D01*
X201742212Y-106833078D01*
X201647962Y-106870720D01*
X201487410Y-106900912D01*
X201242601Y-106927833D01*
X200895585Y-106955664D01*
X200737113Y-106967070D01*
X200399686Y-106983611D01*
X200184130Y-106976609D01*
X200087494Y-106945950D01*
X200084501Y-106941982D01*
X200044131Y-106809980D01*
X200015836Y-106586576D01*
X200000529Y-106306877D01*
X199999118Y-106005988D01*
X200012516Y-105719018D01*
X200041632Y-105481071D01*
X200046018Y-105458494D01*
X200086268Y-105196092D01*
X200117455Y-104870702D01*
X200133676Y-104546297D01*
X200134481Y-104499471D01*
X200144310Y-104202410D01*
X200167559Y-104012151D01*
X200207405Y-103908910D01*
X200233223Y-103884539D01*
X200395404Y-103826442D01*
X200638826Y-103786752D01*
X200918512Y-103769801D01*
X200918512Y-103427738D01*
X200836883Y-103429743D01*
X200504142Y-103438880D01*
X200219864Y-103448525D01*
X200006576Y-103457767D01*
X199886808Y-103465698D01*
X199869119Y-103468800D01*
X199855295Y-103534086D01*
X199830199Y-103701474D01*
X199797186Y-103946911D01*
X199759611Y-104246345D01*
X199752790Y-104302727D01*
X199710196Y-104729011D01*
X199678590Y-105192625D01*
X199658623Y-105664368D01*
X199650946Y-106115037D01*
X199656211Y-106515431D01*
G36*
X199604557Y-85375973D02*
G01*
X199630376Y-85698219D01*
X199665816Y-86059735D01*
X199708645Y-86438929D01*
X199756630Y-86814211D01*
X199807539Y-87163987D01*
X199859139Y-87466666D01*
X199894350Y-87638410D01*
X199949824Y-87864683D01*
X200000705Y-87996805D01*
X200066461Y-88065329D01*
X200166563Y-88100803D01*
X200192784Y-88106700D01*
X200304183Y-88134188D01*
X200520851Y-88190618D01*
X200825565Y-88271395D01*
X201201104Y-88371922D01*
X201630246Y-88487603D01*
X202095766Y-88613840D01*
X202236510Y-88652148D01*
X202859394Y-88818896D01*
X203466884Y-88975976D01*
X204044543Y-89120049D01*
X204577936Y-89247773D01*
X205052628Y-89355807D01*
X205454183Y-89440811D01*
X205768166Y-89499443D01*
X205980142Y-89528363D01*
X206033405Y-89530862D01*
X206068082Y-89515087D01*
X205995820Y-89472097D01*
X205832558Y-89406776D01*
X205594232Y-89324012D01*
X205296781Y-89228691D01*
X204956141Y-89125699D01*
X204588250Y-89019921D01*
X204209047Y-88916245D01*
X203834467Y-88819555D01*
X203480449Y-88734739D01*
X203321668Y-88699500D01*
X202641149Y-88548003D01*
X202072794Y-88408792D01*
X201602985Y-88276618D01*
X201218100Y-88146231D01*
X200904522Y-88012383D01*
X200648630Y-87869825D01*
X200436806Y-87713308D01*
X200255429Y-87537583D01*
X200228334Y-87507345D01*
X200029067Y-87235747D01*
X199895603Y-86936277D01*
X199821385Y-86583197D01*
X199799856Y-86150771D01*
X199808603Y-85859789D01*
X199835824Y-85497168D01*
X199874211Y-85248850D01*
X199922817Y-85120726D01*
X199928158Y-85114796D01*
X200020375Y-85064150D01*
X200218690Y-84982517D01*
X200507436Y-84874989D01*
X200870943Y-84746659D01*
X201293543Y-84602617D01*
X201759569Y-84447957D01*
X202253350Y-84287771D01*
X202759219Y-84127150D01*
X203261507Y-83971188D01*
X203744545Y-83824976D01*
X204192666Y-83693606D01*
X204590200Y-83582171D01*
X204871760Y-83508153D01*
X205414526Y-83374758D01*
X205900712Y-83261733D01*
X206318323Y-83171476D01*
X206655363Y-83106385D01*
X206899837Y-83068857D01*
X207039751Y-83061292D01*
X207066619Y-83069362D01*
X207084492Y-83148162D01*
X207097636Y-83324727D01*
X207105936Y-83569906D01*
X207109278Y-83854548D01*
X207107548Y-84149502D01*
X207100632Y-84425616D01*
X207088417Y-84653740D01*
X207073350Y-84790712D01*
X207031463Y-84981877D01*
X206964251Y-85095149D01*
X206834187Y-85179046D01*
X206739142Y-85222807D01*
X206569701Y-85283405D01*
X206309413Y-85359329D01*
X205992047Y-85441413D01*
X205651371Y-85520489D01*
X205607671Y-85529954D01*
X205088979Y-85650600D01*
X204680573Y-85767996D01*
X204366094Y-85888434D01*
X204129187Y-86018205D01*
X203953495Y-86163600D01*
X203949510Y-86167734D01*
X203839470Y-86296702D01*
X203809808Y-86396751D01*
X203845918Y-86523264D01*
X203851901Y-86537854D01*
X203944933Y-86722532D01*
X204063553Y-86866216D01*
X204224441Y-86974785D01*
X204444274Y-87054118D01*
X204739734Y-87110097D01*
X205127499Y-87148600D01*
X205624249Y-87175507D01*
X205665510Y-87177188D01*
X206128246Y-87198436D01*
X206480732Y-87224233D01*
X206739712Y-87260536D01*
X206921926Y-87313298D01*
X207044118Y-87388475D01*
X207123029Y-87492022D01*
X207175404Y-87629895D01*
X207198991Y-87722633D01*
X207251408Y-88039108D01*
X207274547Y-88383121D01*
X207268492Y-88713030D01*
X207233327Y-88987193D01*
X207196217Y-89112660D01*
X207050362Y-89344148D01*
X206836346Y-89482492D01*
X206536449Y-89538461D01*
X206492755Y-89540183D01*
X206341467Y-89545559D01*
X206287990Y-89553605D01*
X206340292Y-89568002D01*
X206506342Y-89592430D01*
X206646330Y-89611117D01*
X206889905Y-89640663D01*
X207041193Y-89646910D01*
X207133501Y-89625412D01*
X207200134Y-89571723D01*
X207233119Y-89532793D01*
X207356690Y-89309362D01*
X207452421Y-88999464D01*
X207514287Y-88641744D01*
X207536266Y-88274846D01*
X207512334Y-87937416D01*
X207495573Y-87848920D01*
X207413371Y-87546150D01*
X207317305Y-87292674D01*
X207219408Y-87116571D01*
X207154746Y-87053557D01*
X207054479Y-87030068D01*
X206850338Y-87004514D01*
X206565379Y-86979004D01*
X206222657Y-86955647D01*
X205904105Y-86939106D01*
X205471001Y-86917482D01*
X205144065Y-86894932D01*
X204902479Y-86868838D01*
X204725423Y-86836580D01*
X204592075Y-86795538D01*
X204524148Y-86765489D01*
X204367056Y-86675557D01*
X204268240Y-86596016D01*
X204254647Y-86574581D01*
X204276087Y-86459359D01*
X204373806Y-86301589D01*
X204521455Y-86133530D01*
X204692682Y-85987442D01*
X204778967Y-85932684D01*
X204962210Y-85855099D01*
X205221520Y-85773863D01*
X205507356Y-85704076D01*
X205570260Y-85691496D01*
X206057325Y-85595176D01*
X206435158Y-85511777D01*
X206720291Y-85436527D01*
X206929251Y-85364653D01*
X207078571Y-85291381D01*
X207162355Y-85231808D01*
X207348260Y-85075380D01*
X207348260Y-84195150D01*
X207343361Y-83842194D01*
X207329971Y-83506074D01*
X207310047Y-83221726D01*
X207285544Y-83024082D01*
X207281519Y-83003720D01*
X207233728Y-82817618D01*
X207181629Y-82728789D01*
X207104951Y-82708514D01*
X207075144Y-82711367D01*
X206952330Y-82727024D01*
X206739789Y-82753247D01*
X206473900Y-82785566D01*
X206332260Y-82802623D01*
X205606728Y-82912009D01*
X204834777Y-83072882D01*
X204004278Y-83288669D01*
X203103098Y-83562799D01*
X202119108Y-83898700D01*
X201056791Y-84293411D01*
X200659567Y-84446483D01*
X200302149Y-84585008D01*
X200001533Y-84702335D01*
X199774711Y-84791814D01*
X199638680Y-84846792D01*
X199607152Y-84860778D01*
X199590712Y-84935661D01*
X199590591Y-85114590D01*
X199604557Y-85375973D01*
X199604557Y-85375973D01*
G37*
X199604557Y-85375973D02*
X199630376Y-85698219D01*
X199665816Y-86059735D01*
X199708645Y-86438929D01*
X199756630Y-86814211D01*
X199807539Y-87163987D01*
X199859139Y-87466666D01*
X199894350Y-87638410D01*
X199949824Y-87864683D01*
X200000705Y-87996805D01*
X200066461Y-88065329D01*
X200166563Y-88100803D01*
X200192784Y-88106700D01*
X200304183Y-88134188D01*
X200520851Y-88190618D01*
X200825565Y-88271395D01*
X201201104Y-88371922D01*
X201630246Y-88487603D01*
X202095766Y-88613840D01*
X202236510Y-88652148D01*
X202859394Y-88818896D01*
X203466884Y-88975976D01*
X204044543Y-89120049D01*
X204577936Y-89247773D01*
X205052628Y-89355807D01*
X205454183Y-89440811D01*
X205768166Y-89499443D01*
X205980142Y-89528363D01*
X206033405Y-89530862D01*
X206068082Y-89515087D01*
X205995820Y-89472097D01*
X205832558Y-89406776D01*
X205594232Y-89324012D01*
X205296781Y-89228691D01*
X204956141Y-89125699D01*
X204588250Y-89019921D01*
X204209047Y-88916245D01*
X203834467Y-88819555D01*
X203480449Y-88734739D01*
X203321668Y-88699500D01*
X202641149Y-88548003D01*
X202072794Y-88408792D01*
X201602985Y-88276618D01*
X201218100Y-88146231D01*
X200904522Y-88012383D01*
X200648630Y-87869825D01*
X200436806Y-87713308D01*
X200255429Y-87537583D01*
X200228334Y-87507345D01*
X200029067Y-87235747D01*
X199895603Y-86936277D01*
X199821385Y-86583197D01*
X199799856Y-86150771D01*
X199808603Y-85859789D01*
X199835824Y-85497168D01*
X199874211Y-85248850D01*
X199922817Y-85120726D01*
X199928158Y-85114796D01*
X200020375Y-85064150D01*
X200218690Y-84982517D01*
X200507436Y-84874989D01*
X200870943Y-84746659D01*
X201293543Y-84602617D01*
X201759569Y-84447957D01*
X202253350Y-84287771D01*
X202759219Y-84127150D01*
X203261507Y-83971188D01*
X203744545Y-83824976D01*
X204192666Y-83693606D01*
X204590200Y-83582171D01*
X204871760Y-83508153D01*
X205414526Y-83374758D01*
X205900712Y-83261733D01*
X206318323Y-83171476D01*
X206655363Y-83106385D01*
X206899837Y-83068857D01*
X207039751Y-83061292D01*
X207066619Y-83069362D01*
X207084492Y-83148162D01*
X207097636Y-83324727D01*
X207105936Y-83569906D01*
X207109278Y-83854548D01*
X207107548Y-84149502D01*
X207100632Y-84425616D01*
X207088417Y-84653740D01*
X207073350Y-84790712D01*
X207031463Y-84981877D01*
X206964251Y-85095149D01*
X206834187Y-85179046D01*
X206739142Y-85222807D01*
X206569701Y-85283405D01*
X206309413Y-85359329D01*
X205992047Y-85441413D01*
X205651371Y-85520489D01*
X205607671Y-85529954D01*
X205088979Y-85650600D01*
X204680573Y-85767996D01*
X204366094Y-85888434D01*
X204129187Y-86018205D01*
X203953495Y-86163600D01*
X203949510Y-86167734D01*
X203839470Y-86296702D01*
X203809808Y-86396751D01*
X203845918Y-86523264D01*
X203851901Y-86537854D01*
X203944933Y-86722532D01*
X204063553Y-86866216D01*
X204224441Y-86974785D01*
X204444274Y-87054118D01*
X204739734Y-87110097D01*
X205127499Y-87148600D01*
X205624249Y-87175507D01*
X205665510Y-87177188D01*
X206128246Y-87198436D01*
X206480732Y-87224233D01*
X206739712Y-87260536D01*
X206921926Y-87313298D01*
X207044118Y-87388475D01*
X207123029Y-87492022D01*
X207175404Y-87629895D01*
X207198991Y-87722633D01*
X207251408Y-88039108D01*
X207274547Y-88383121D01*
X207268492Y-88713030D01*
X207233327Y-88987193D01*
X207196217Y-89112660D01*
X207050362Y-89344148D01*
X206836346Y-89482492D01*
X206536449Y-89538461D01*
X206492755Y-89540183D01*
X206341467Y-89545559D01*
X206287990Y-89553605D01*
X206340292Y-89568002D01*
X206506342Y-89592430D01*
X206646330Y-89611117D01*
X206889905Y-89640663D01*
X207041193Y-89646910D01*
X207133501Y-89625412D01*
X207200134Y-89571723D01*
X207233119Y-89532793D01*
X207356690Y-89309362D01*
X207452421Y-88999464D01*
X207514287Y-88641744D01*
X207536266Y-88274846D01*
X207512334Y-87937416D01*
X207495573Y-87848920D01*
X207413371Y-87546150D01*
X207317305Y-87292674D01*
X207219408Y-87116571D01*
X207154746Y-87053557D01*
X207054479Y-87030068D01*
X206850338Y-87004514D01*
X206565379Y-86979004D01*
X206222657Y-86955647D01*
X205904105Y-86939106D01*
X205471001Y-86917482D01*
X205144065Y-86894932D01*
X204902479Y-86868838D01*
X204725423Y-86836580D01*
X204592075Y-86795538D01*
X204524148Y-86765489D01*
X204367056Y-86675557D01*
X204268240Y-86596016D01*
X204254647Y-86574581D01*
X204276087Y-86459359D01*
X204373806Y-86301589D01*
X204521455Y-86133530D01*
X204692682Y-85987442D01*
X204778967Y-85932684D01*
X204962210Y-85855099D01*
X205221520Y-85773863D01*
X205507356Y-85704076D01*
X205570260Y-85691496D01*
X206057325Y-85595176D01*
X206435158Y-85511777D01*
X206720291Y-85436527D01*
X206929251Y-85364653D01*
X207078571Y-85291381D01*
X207162355Y-85231808D01*
X207348260Y-85075380D01*
X207348260Y-84195150D01*
X207343361Y-83842194D01*
X207329971Y-83506074D01*
X207310047Y-83221726D01*
X207285544Y-83024082D01*
X207281519Y-83003720D01*
X207233728Y-82817618D01*
X207181629Y-82728789D01*
X207104951Y-82708514D01*
X207075144Y-82711367D01*
X206952330Y-82727024D01*
X206739789Y-82753247D01*
X206473900Y-82785566D01*
X206332260Y-82802623D01*
X205606728Y-82912009D01*
X204834777Y-83072882D01*
X204004278Y-83288669D01*
X203103098Y-83562799D01*
X202119108Y-83898700D01*
X201056791Y-84293411D01*
X200659567Y-84446483D01*
X200302149Y-84585008D01*
X200001533Y-84702335D01*
X199774711Y-84791814D01*
X199638680Y-84846792D01*
X199607152Y-84860778D01*
X199590712Y-84935661D01*
X199590591Y-85114590D01*
X199604557Y-85375973D01*
G36*
X199789880Y-100627996D02*
G01*
X199940761Y-101197040D01*
X200084336Y-101521725D01*
X200213869Y-101777945D01*
X200314654Y-101956194D01*
X200412430Y-102068794D01*
X200532936Y-102128066D01*
X200701910Y-102146332D01*
X200945090Y-102135913D01*
X201288215Y-102109129D01*
X201308191Y-102107602D01*
X201778576Y-102060330D01*
X202135770Y-101999218D01*
X202376206Y-101925282D01*
X202496320Y-101839535D01*
X202504905Y-101767002D01*
X202384172Y-101415407D01*
X202311290Y-101129911D01*
X202277756Y-100862799D01*
X202275069Y-100566358D01*
X202277774Y-100492430D01*
X202296186Y-100207798D01*
X202330417Y-100004264D01*
X202392203Y-99835989D01*
X202490510Y-99661577D01*
X202746465Y-99361818D01*
X203079137Y-99136385D01*
X203464760Y-98986684D01*
X203879568Y-98914119D01*
X204299794Y-98920096D01*
X204701672Y-99006018D01*
X205061435Y-99173293D01*
X205355318Y-99423323D01*
X205408397Y-99489077D01*
X205517158Y-99722967D01*
X205562735Y-100020387D01*
X205543447Y-100333751D01*
X205457613Y-100615475D01*
X205448814Y-100633283D01*
X205361041Y-100789611D01*
X205292173Y-100884728D01*
X205272344Y-100898170D01*
X205158460Y-100837141D01*
X205034031Y-100661530D01*
X204905971Y-100382546D01*
X204838149Y-100194083D01*
X204700315Y-99839640D01*
X204552325Y-99597212D01*
X204377438Y-99451987D01*
X204158911Y-99389150D01*
X203928552Y-99389268D01*
X203708034Y-99420813D01*
X203556434Y-99488380D01*
X203448473Y-99616900D01*
X203358871Y-99831303D01*
X203305749Y-100003470D01*
X203246130Y-100327121D01*
X203222957Y-100730287D01*
X203234126Y-101171476D01*
X203277532Y-101609194D01*
X203351069Y-102001948D01*
X203418498Y-102225635D01*
X203538893Y-102499671D01*
X203679017Y-102690234D01*
X203869915Y-102823473D01*
X204142632Y-102925536D01*
X204300149Y-102968217D01*
X204837229Y-103042553D01*
X205360814Y-102997334D01*
X205859452Y-102839989D01*
X206321690Y-102577944D01*
X206736075Y-102218630D01*
X207091154Y-101769474D01*
X207375475Y-101237904D01*
X207505135Y-100889452D01*
X207614844Y-100453506D01*
X207681561Y-99993310D01*
X207700883Y-99554881D01*
X207668408Y-99184237D01*
X207668302Y-99183670D01*
X207497400Y-98576861D01*
X207228651Y-98048292D01*
X206867099Y-97601756D01*
X206417789Y-97241045D01*
X205885764Y-96969952D01*
X205276070Y-96792269D01*
X204593751Y-96711791D01*
X204374620Y-96707170D01*
X204300385Y-96712465D01*
X204300385Y-97330593D01*
X205015372Y-97394634D01*
X205678633Y-97542045D01*
X206268229Y-97768969D01*
X206445407Y-97862071D01*
X206657790Y-98000450D01*
X206808640Y-98154935D01*
X206942404Y-98373494D01*
X206971211Y-98429496D01*
X207210592Y-99038814D01*
X207328950Y-99671462D01*
X207324101Y-100312407D01*
X207284274Y-100583232D01*
X207126290Y-101114752D01*
X206871026Y-101589473D01*
X206531192Y-101990321D01*
X206119497Y-102300229D01*
X205934388Y-102396351D01*
X205723907Y-102485198D01*
X205538243Y-102539500D01*
X205332420Y-102567422D01*
X205061461Y-102577129D01*
X204935260Y-102577740D01*
X204636903Y-102569669D01*
X204355954Y-102547893D01*
X204137864Y-102516440D01*
X204077192Y-102501690D01*
X203822374Y-102425383D01*
X203711995Y-101709401D01*
X203648510Y-101231242D01*
X203613075Y-100811723D01*
X203605990Y-100466892D01*
X203627557Y-100212798D01*
X203678075Y-100065491D01*
X203681135Y-100061505D01*
X203788568Y-99964580D01*
X203947693Y-99856868D01*
X203971599Y-99842994D01*
X204112400Y-99769447D01*
X204189995Y-99760545D01*
X204249831Y-99815172D01*
X204265261Y-99835790D01*
X204314100Y-99947747D01*
X204372440Y-100148348D01*
X204430057Y-100400778D01*
X204448114Y-100494300D01*
X204523822Y-100846040D01*
X204610214Y-101080765D01*
X204723986Y-101208316D01*
X204881832Y-101238537D01*
X205100449Y-101181268D01*
X205390061Y-101049590D01*
X205700836Y-100836390D01*
X205905434Y-100567350D01*
X205997553Y-100256083D01*
X205970893Y-99916202D01*
X205949273Y-99841418D01*
X205749524Y-99422320D01*
X205453308Y-99057646D01*
X205081823Y-98757076D01*
X204656264Y-98530290D01*
X204197829Y-98386970D01*
X203727714Y-98336796D01*
X203267116Y-98389447D01*
X202979177Y-98484990D01*
X202792290Y-98585569D01*
X202637516Y-98719480D01*
X202509495Y-98900820D01*
X202402871Y-99143691D01*
X202312283Y-99462191D01*
X202232375Y-99870421D01*
X202157788Y-100382481D01*
X202110374Y-100771170D01*
X202062290Y-101157559D01*
X202014723Y-101434017D01*
X201957633Y-101617174D01*
X201880983Y-101723658D01*
X201774736Y-101770100D01*
X201628854Y-101773129D01*
X201513272Y-101760390D01*
X201273908Y-101738017D01*
X201000175Y-101725008D01*
X200900899Y-101723670D01*
X200567265Y-101723670D01*
X200389212Y-101295045D01*
X200305089Y-101076232D01*
X200251882Y-100882215D01*
X200222560Y-100670543D01*
X200210096Y-100398764D01*
X200207835Y-100199670D01*
X200209378Y-99887709D01*
X200222005Y-99664863D01*
X200252185Y-99493326D01*
X200306391Y-99335298D01*
X200384825Y-99165709D01*
X200671310Y-98721149D01*
X201064083Y-98323443D01*
X201548382Y-97981027D01*
X202109445Y-97702337D01*
X202732511Y-97495807D01*
X203402819Y-97369874D01*
X203555612Y-97353781D01*
X204300385Y-97330593D01*
X204300385Y-96712465D01*
X203567828Y-96764720D01*
X202795737Y-96933624D01*
X202070939Y-97208262D01*
X201406025Y-97583013D01*
X200813587Y-98052256D01*
X200414313Y-98474921D01*
X200076235Y-98974193D01*
X199858729Y-99506307D01*
X199762907Y-100060997D01*
X199789880Y-100627996D01*
X199789880Y-100627996D01*
G37*
X199789880Y-100627996D02*
X199940761Y-101197040D01*
X200084336Y-101521725D01*
X200213869Y-101777945D01*
X200314654Y-101956194D01*
X200412430Y-102068794D01*
X200532936Y-102128066D01*
X200701910Y-102146332D01*
X200945090Y-102135913D01*
X201288215Y-102109129D01*
X201308191Y-102107602D01*
X201778576Y-102060330D01*
X202135770Y-101999218D01*
X202376206Y-101925282D01*
X202496320Y-101839535D01*
X202504905Y-101767002D01*
X202384172Y-101415407D01*
X202311290Y-101129911D01*
X202277756Y-100862799D01*
X202275069Y-100566358D01*
X202277774Y-100492430D01*
X202296186Y-100207798D01*
X202330417Y-100004264D01*
X202392203Y-99835989D01*
X202490510Y-99661577D01*
X202746465Y-99361818D01*
X203079137Y-99136385D01*
X203464760Y-98986684D01*
X203879568Y-98914119D01*
X204299794Y-98920096D01*
X204701672Y-99006018D01*
X205061435Y-99173293D01*
X205355318Y-99423323D01*
X205408397Y-99489077D01*
X205517158Y-99722967D01*
X205562735Y-100020387D01*
X205543447Y-100333751D01*
X205457613Y-100615475D01*
X205448814Y-100633283D01*
X205361041Y-100789611D01*
X205292173Y-100884728D01*
X205272344Y-100898170D01*
X205158460Y-100837141D01*
X205034031Y-100661530D01*
X204905971Y-100382546D01*
X204838149Y-100194083D01*
X204700315Y-99839640D01*
X204552325Y-99597212D01*
X204377438Y-99451987D01*
X204158911Y-99389150D01*
X203928552Y-99389268D01*
X203708034Y-99420813D01*
X203556434Y-99488380D01*
X203448473Y-99616900D01*
X203358871Y-99831303D01*
X203305749Y-100003470D01*
X203246130Y-100327121D01*
X203222957Y-100730287D01*
X203234126Y-101171476D01*
X203277532Y-101609194D01*
X203351069Y-102001948D01*
X203418498Y-102225635D01*
X203538893Y-102499671D01*
X203679017Y-102690234D01*
X203869915Y-102823473D01*
X204142632Y-102925536D01*
X204300149Y-102968217D01*
X204837229Y-103042553D01*
X205360814Y-102997334D01*
X205859452Y-102839989D01*
X206321690Y-102577944D01*
X206736075Y-102218630D01*
X207091154Y-101769474D01*
X207375475Y-101237904D01*
X207505135Y-100889452D01*
X207614844Y-100453506D01*
X207681561Y-99993310D01*
X207700883Y-99554881D01*
X207668408Y-99184237D01*
X207668302Y-99183670D01*
X207497400Y-98576861D01*
X207228651Y-98048292D01*
X206867099Y-97601756D01*
X206417789Y-97241045D01*
X205885764Y-96969952D01*
X205276070Y-96792269D01*
X204593751Y-96711791D01*
X204374620Y-96707170D01*
X204300385Y-96712465D01*
X204300385Y-97330593D01*
X205015372Y-97394634D01*
X205678633Y-97542045D01*
X206268229Y-97768969D01*
X206445407Y-97862071D01*
X206657790Y-98000450D01*
X206808640Y-98154935D01*
X206942404Y-98373494D01*
X206971211Y-98429496D01*
X207210592Y-99038814D01*
X207328950Y-99671462D01*
X207324101Y-100312407D01*
X207284274Y-100583232D01*
X207126290Y-101114752D01*
X206871026Y-101589473D01*
X206531192Y-101990321D01*
X206119497Y-102300229D01*
X205934388Y-102396351D01*
X205723907Y-102485198D01*
X205538243Y-102539500D01*
X205332420Y-102567422D01*
X205061461Y-102577129D01*
X204935260Y-102577740D01*
X204636903Y-102569669D01*
X204355954Y-102547893D01*
X204137864Y-102516440D01*
X204077192Y-102501690D01*
X203822374Y-102425383D01*
X203711995Y-101709401D01*
X203648510Y-101231242D01*
X203613075Y-100811723D01*
X203605990Y-100466892D01*
X203627557Y-100212798D01*
X203678075Y-100065491D01*
X203681135Y-100061505D01*
X203788568Y-99964580D01*
X203947693Y-99856868D01*
X203971599Y-99842994D01*
X204112400Y-99769447D01*
X204189995Y-99760545D01*
X204249831Y-99815172D01*
X204265261Y-99835790D01*
X204314100Y-99947747D01*
X204372440Y-100148348D01*
X204430057Y-100400778D01*
X204448114Y-100494300D01*
X204523822Y-100846040D01*
X204610214Y-101080765D01*
X204723986Y-101208316D01*
X204881832Y-101238537D01*
X205100449Y-101181268D01*
X205390061Y-101049590D01*
X205700836Y-100836390D01*
X205905434Y-100567350D01*
X205997553Y-100256083D01*
X205970893Y-99916202D01*
X205949273Y-99841418D01*
X205749524Y-99422320D01*
X205453308Y-99057646D01*
X205081823Y-98757076D01*
X204656264Y-98530290D01*
X204197829Y-98386970D01*
X203727714Y-98336796D01*
X203267116Y-98389447D01*
X202979177Y-98484990D01*
X202792290Y-98585569D01*
X202637516Y-98719480D01*
X202509495Y-98900820D01*
X202402871Y-99143691D01*
X202312283Y-99462191D01*
X202232375Y-99870421D01*
X202157788Y-100382481D01*
X202110374Y-100771170D01*
X202062290Y-101157559D01*
X202014723Y-101434017D01*
X201957633Y-101617174D01*
X201880983Y-101723658D01*
X201774736Y-101770100D01*
X201628854Y-101773129D01*
X201513272Y-101760390D01*
X201273908Y-101738017D01*
X201000175Y-101725008D01*
X200900899Y-101723670D01*
X200567265Y-101723670D01*
X200389212Y-101295045D01*
X200305089Y-101076232D01*
X200251882Y-100882215D01*
X200222560Y-100670543D01*
X200210096Y-100398764D01*
X200207835Y-100199670D01*
X200209378Y-99887709D01*
X200222005Y-99664863D01*
X200252185Y-99493326D01*
X200306391Y-99335298D01*
X200384825Y-99165709D01*
X200671310Y-98721149D01*
X201064083Y-98323443D01*
X201548382Y-97981027D01*
X202109445Y-97702337D01*
X202732511Y-97495807D01*
X203402819Y-97369874D01*
X203555612Y-97353781D01*
X204300385Y-97330593D01*
X204300385Y-96712465D01*
X203567828Y-96764720D01*
X202795737Y-96933624D01*
X202070939Y-97208262D01*
X201406025Y-97583013D01*
X200813587Y-98052256D01*
X200414313Y-98474921D01*
X200076235Y-98974193D01*
X199858729Y-99506307D01*
X199762907Y-100060997D01*
X199789880Y-100627996D01*
G36*
X200019738Y-95604478D02*
G01*
X200054572Y-95773848D01*
X200118207Y-95858458D01*
X200247996Y-95900259D01*
X200289997Y-95908028D01*
X201499903Y-96094917D01*
X202605502Y-96209605D01*
X203606965Y-96252097D01*
X204504461Y-96222397D01*
X205298162Y-96120509D01*
X205665710Y-96040073D01*
X206252122Y-95840963D01*
X206773755Y-95563226D01*
X207215201Y-95218209D01*
X207561055Y-94817257D01*
X207734729Y-94516420D01*
X207912234Y-94019702D01*
X208013946Y-93468807D01*
X208032199Y-92916737D01*
X208005622Y-92643170D01*
X207941934Y-92243721D01*
X207878945Y-91937064D01*
X207802868Y-91689820D01*
X207699918Y-91468610D01*
X207556307Y-91240053D01*
X207358251Y-90970772D01*
X207264808Y-90849483D01*
X207095457Y-90636541D01*
X206950702Y-90480612D01*
X206805092Y-90370141D01*
X206699107Y-90322938D01*
X206699107Y-90801670D01*
X206952294Y-91293795D01*
X207188775Y-91803082D01*
X207359957Y-92278584D01*
X207435355Y-92579670D01*
X207456160Y-92801637D01*
X207454565Y-93094312D01*
X207434000Y-93414826D01*
X207397897Y-93720311D01*
X207349686Y-93967900D01*
X207315912Y-94071920D01*
X207057016Y-94526310D01*
X206695884Y-94934970D01*
X206397202Y-95177012D01*
X205859793Y-95497038D01*
X205281386Y-95726913D01*
X204645307Y-95870803D01*
X203934885Y-95932876D01*
X203384679Y-95929886D01*
X202686186Y-95877162D01*
X202069533Y-95769654D01*
X201498301Y-95598877D01*
X200948019Y-95362230D01*
X200702494Y-95240024D01*
X200554357Y-95157393D01*
X200486683Y-95098582D01*
X200482547Y-95047834D01*
X200525023Y-94989394D01*
X200535269Y-94977994D01*
X200615068Y-94828449D01*
X200637471Y-94602492D01*
X200635908Y-94548034D01*
X200635125Y-94359981D01*
X200665607Y-94256662D01*
X200745041Y-94196538D01*
X200794658Y-94175209D01*
X201013139Y-94102732D01*
X201282556Y-94042589D01*
X201623045Y-93991633D01*
X202054745Y-93946715D01*
X202466155Y-93913961D01*
X202997992Y-93871116D01*
X203422915Y-93825599D01*
X203761005Y-93773656D01*
X204032343Y-93711533D01*
X204257011Y-93635477D01*
X204453717Y-93542479D01*
X204725376Y-93340636D01*
X204896741Y-93095896D01*
X204963398Y-92829209D01*
X204920933Y-92561524D01*
X204764933Y-92313789D01*
X204721741Y-92270373D01*
X204567380Y-92160238D01*
X204365749Y-92084187D01*
X204101357Y-92040762D01*
X203758709Y-92028502D01*
X203322313Y-92045948D01*
X202800214Y-92089344D01*
X202281134Y-92133353D01*
X201868765Y-92152344D01*
X201545084Y-92145168D01*
X201292064Y-92110676D01*
X201091680Y-92047719D01*
X200949932Y-91971397D01*
X200819038Y-91845651D01*
X200718468Y-91679847D01*
X200667604Y-91516731D01*
X200685824Y-91399048D01*
X200688745Y-91395305D01*
X200775856Y-91345436D01*
X200952122Y-91279068D01*
X201183083Y-91208821D01*
X201238964Y-91193797D01*
X201839127Y-91057694D01*
X202491887Y-90952211D01*
X203213527Y-90875798D01*
X204020325Y-90826904D01*
X204928563Y-90803981D01*
X205356808Y-90801723D01*
X206699107Y-90801670D01*
X206699107Y-90322938D01*
X206633173Y-90293572D01*
X206409493Y-90239350D01*
X206108600Y-90195919D01*
X205734756Y-90154833D01*
X205481065Y-90132861D01*
X205216143Y-90120440D01*
X204924844Y-90118298D01*
X204592022Y-90127162D01*
X204202529Y-90147760D01*
X203741218Y-90180822D01*
X203192944Y-90227075D01*
X202542559Y-90287248D01*
X202109510Y-90329113D01*
X201719813Y-90362995D01*
X201333266Y-90389154D01*
X200985845Y-90405656D01*
X200713526Y-90410565D01*
X200630206Y-90408704D01*
X200390854Y-90401070D01*
X200248956Y-90408653D01*
X200175196Y-90439024D01*
X200140257Y-90499754D01*
X200129646Y-90537978D01*
X200124755Y-90671499D01*
X200146597Y-90884420D01*
X200190502Y-91133084D01*
X200196074Y-91158908D01*
X200249885Y-91463143D01*
X200287368Y-91788441D01*
X200299759Y-92036670D01*
X200299760Y-92442561D01*
X200709078Y-92486395D01*
X200961713Y-92497145D01*
X201316517Y-92488549D01*
X201750300Y-92461607D01*
X202187529Y-92422653D01*
X202619438Y-92381816D01*
X202951369Y-92357623D01*
X203209173Y-92349484D01*
X203418696Y-92356807D01*
X203605788Y-92379002D01*
X203663883Y-92388920D01*
X203920950Y-92450399D01*
X204189317Y-92538150D01*
X204426743Y-92636254D01*
X204590986Y-92728794D01*
X204612718Y-92746475D01*
X204596815Y-92807387D01*
X204503288Y-92915923D01*
X204358740Y-93047143D01*
X204189776Y-93176106D01*
X204078010Y-93247753D01*
X203861678Y-93359632D01*
X203627205Y-93448597D01*
X203356165Y-93517670D01*
X203030136Y-93569870D01*
X202630693Y-93608218D01*
X202139414Y-93635735D01*
X201601510Y-93653790D01*
X200204510Y-93690920D01*
X200163056Y-94135420D01*
X200129486Y-94436321D01*
X200085521Y-94754960D01*
X200051546Y-94960920D01*
X200018926Y-95219525D01*
X200010448Y-95474118D01*
X200019738Y-95604478D01*
X200019738Y-95604478D01*
G37*
X200019738Y-95604478D02*
X200054572Y-95773848D01*
X200118207Y-95858458D01*
X200247996Y-95900259D01*
X200289997Y-95908028D01*
X201499903Y-96094917D01*
X202605502Y-96209605D01*
X203606965Y-96252097D01*
X204504461Y-96222397D01*
X205298162Y-96120509D01*
X205665710Y-96040073D01*
X206252122Y-95840963D01*
X206773755Y-95563226D01*
X207215201Y-95218209D01*
X207561055Y-94817257D01*
X207734729Y-94516420D01*
X207912234Y-94019702D01*
X208013946Y-93468807D01*
X208032199Y-92916737D01*
X208005622Y-92643170D01*
X207941934Y-92243721D01*
X207878945Y-91937064D01*
X207802868Y-91689820D01*
X207699918Y-91468610D01*
X207556307Y-91240053D01*
X207358251Y-90970772D01*
X207264808Y-90849483D01*
X207095457Y-90636541D01*
X206950702Y-90480612D01*
X206805092Y-90370141D01*
X206699107Y-90322938D01*
X206699107Y-90801670D01*
X206952294Y-91293795D01*
X207188775Y-91803082D01*
X207359957Y-92278584D01*
X207435355Y-92579670D01*
X207456160Y-92801637D01*
X207454565Y-93094312D01*
X207434000Y-93414826D01*
X207397897Y-93720311D01*
X207349686Y-93967900D01*
X207315912Y-94071920D01*
X207057016Y-94526310D01*
X206695884Y-94934970D01*
X206397202Y-95177012D01*
X205859793Y-95497038D01*
X205281386Y-95726913D01*
X204645307Y-95870803D01*
X203934885Y-95932876D01*
X203384679Y-95929886D01*
X202686186Y-95877162D01*
X202069533Y-95769654D01*
X201498301Y-95598877D01*
X200948019Y-95362230D01*
X200702494Y-95240024D01*
X200554357Y-95157393D01*
X200486683Y-95098582D01*
X200482547Y-95047834D01*
X200525023Y-94989394D01*
X200535269Y-94977994D01*
X200615068Y-94828449D01*
X200637471Y-94602492D01*
X200635908Y-94548034D01*
X200635125Y-94359981D01*
X200665607Y-94256662D01*
X200745041Y-94196538D01*
X200794658Y-94175209D01*
X201013139Y-94102732D01*
X201282556Y-94042589D01*
X201623045Y-93991633D01*
X202054745Y-93946715D01*
X202466155Y-93913961D01*
X202997992Y-93871116D01*
X203422915Y-93825599D01*
X203761005Y-93773656D01*
X204032343Y-93711533D01*
X204257011Y-93635477D01*
X204453717Y-93542479D01*
X204725376Y-93340636D01*
X204896741Y-93095896D01*
X204963398Y-92829209D01*
X204920933Y-92561524D01*
X204764933Y-92313789D01*
X204721741Y-92270373D01*
X204567380Y-92160238D01*
X204365749Y-92084187D01*
X204101357Y-92040762D01*
X203758709Y-92028502D01*
X203322313Y-92045948D01*
X202800214Y-92089344D01*
X202281134Y-92133353D01*
X201868765Y-92152344D01*
X201545084Y-92145168D01*
X201292064Y-92110676D01*
X201091680Y-92047719D01*
X200949932Y-91971397D01*
X200819038Y-91845651D01*
X200718468Y-91679847D01*
X200667604Y-91516731D01*
X200685824Y-91399048D01*
X200688745Y-91395305D01*
X200775856Y-91345436D01*
X200952122Y-91279068D01*
X201183083Y-91208821D01*
X201238964Y-91193797D01*
X201839127Y-91057694D01*
X202491887Y-90952211D01*
X203213527Y-90875798D01*
X204020325Y-90826904D01*
X204928563Y-90803981D01*
X205356808Y-90801723D01*
X206699107Y-90801670D01*
X206699107Y-90322938D01*
X206633173Y-90293572D01*
X206409493Y-90239350D01*
X206108600Y-90195919D01*
X205734756Y-90154833D01*
X205481065Y-90132861D01*
X205216143Y-90120440D01*
X204924844Y-90118298D01*
X204592022Y-90127162D01*
X204202529Y-90147760D01*
X203741218Y-90180822D01*
X203192944Y-90227075D01*
X202542559Y-90287248D01*
X202109510Y-90329113D01*
X201719813Y-90362995D01*
X201333266Y-90389154D01*
X200985845Y-90405656D01*
X200713526Y-90410565D01*
X200630206Y-90408704D01*
X200390854Y-90401070D01*
X200248956Y-90408653D01*
X200175196Y-90439024D01*
X200140257Y-90499754D01*
X200129646Y-90537978D01*
X200124755Y-90671499D01*
X200146597Y-90884420D01*
X200190502Y-91133084D01*
X200196074Y-91158908D01*
X200249885Y-91463143D01*
X200287368Y-91788441D01*
X200299759Y-92036670D01*
X200299760Y-92442561D01*
X200709078Y-92486395D01*
X200961713Y-92497145D01*
X201316517Y-92488549D01*
X201750300Y-92461607D01*
X202187529Y-92422653D01*
X202619438Y-92381816D01*
X202951369Y-92357623D01*
X203209173Y-92349484D01*
X203418696Y-92356807D01*
X203605788Y-92379002D01*
X203663883Y-92388920D01*
X203920950Y-92450399D01*
X204189317Y-92538150D01*
X204426743Y-92636254D01*
X204590986Y-92728794D01*
X204612718Y-92746475D01*
X204596815Y-92807387D01*
X204503288Y-92915923D01*
X204358740Y-93047143D01*
X204189776Y-93176106D01*
X204078010Y-93247753D01*
X203861678Y-93359632D01*
X203627205Y-93448597D01*
X203356165Y-93517670D01*
X203030136Y-93569870D01*
X202630693Y-93608218D01*
X202139414Y-93635735D01*
X201601510Y-93653790D01*
X200204510Y-93690920D01*
X200163056Y-94135420D01*
X200129486Y-94436321D01*
X200085521Y-94754960D01*
X200051546Y-94960920D01*
X200018926Y-95219525D01*
X200010448Y-95474118D01*
X200019738Y-95604478D01*
G36*
X200359926Y-113020553D02*
G01*
X200501485Y-113563107D01*
X200700657Y-113996423D01*
X201016167Y-114413975D01*
X201419592Y-114756141D01*
X201896665Y-115022954D01*
X202433117Y-115214447D01*
X203014683Y-115330652D01*
X203627094Y-115371602D01*
X204256084Y-115337329D01*
X204887385Y-115227866D01*
X205506729Y-115043244D01*
X206099850Y-114783497D01*
X206652481Y-114448657D01*
X207150353Y-114038757D01*
X207208650Y-113981619D01*
X207632565Y-113475072D01*
X207956054Y-112911788D01*
X208173773Y-112309261D01*
X208280378Y-111684982D01*
X208270527Y-111056445D01*
X208210498Y-110701855D01*
X208021863Y-110148320D01*
X207727947Y-109659516D01*
X207336830Y-109242916D01*
X206856591Y-108905995D01*
X206295310Y-108656225D01*
X205873868Y-108540487D01*
X205458679Y-108483760D01*
X204968775Y-108467117D01*
X204449274Y-108488583D01*
X204372084Y-108497405D01*
X204372084Y-108726357D01*
X205037402Y-108736901D01*
X205640584Y-108852860D01*
X206174728Y-109065821D01*
X206632927Y-109367373D01*
X207008279Y-109749102D01*
X207293877Y-110202597D01*
X207482817Y-110719446D01*
X207568195Y-111291235D01*
X207543106Y-111909552D01*
X207432591Y-112455170D01*
X207231378Y-112993142D01*
X206936244Y-113514452D01*
X206567817Y-113993319D01*
X206146724Y-114403963D01*
X205693596Y-114720603D01*
X205566156Y-114787750D01*
X205127267Y-114975076D01*
X204694744Y-115097101D01*
X204230538Y-115160846D01*
X203696602Y-115173327D01*
X203506510Y-115167709D01*
X203004157Y-115135693D01*
X202616038Y-115082099D01*
X202330702Y-115003593D01*
X202136700Y-114896842D01*
X202022582Y-114758512D01*
X202010510Y-114732116D01*
X201945769Y-114608530D01*
X201824357Y-114405266D01*
X201661717Y-114147184D01*
X201473292Y-113859144D01*
X201403149Y-113754427D01*
X201150009Y-113373750D01*
X200961955Y-113073907D01*
X200829531Y-112832911D01*
X200743281Y-112628774D01*
X200693749Y-112439506D01*
X200671480Y-112243121D01*
X200666932Y-112042420D01*
X200711537Y-111547353D01*
X200849375Y-111089026D01*
X201089024Y-110650262D01*
X201439060Y-110213889D01*
X201721073Y-109931580D01*
X202319124Y-109448069D01*
X202948898Y-109087232D01*
X203611879Y-108848392D01*
X204309552Y-108730876D01*
X204372084Y-108726357D01*
X204372084Y-108497405D01*
X203945292Y-108546184D01*
X203501949Y-108637945D01*
X203474760Y-108645481D01*
X202773880Y-108895209D01*
X202134403Y-109226489D01*
X201570242Y-109628871D01*
X201095312Y-110091903D01*
X200723527Y-110605134D01*
X200624554Y-110786295D01*
X200432276Y-111291544D01*
X200324576Y-111853311D01*
X200300708Y-112440134D01*
X200359926Y-113020553D01*
X200359926Y-113020553D01*
G37*
X200359926Y-113020553D02*
X200501485Y-113563107D01*
X200700657Y-113996423D01*
X201016167Y-114413975D01*
X201419592Y-114756141D01*
X201896665Y-115022954D01*
X202433117Y-115214447D01*
X203014683Y-115330652D01*
X203627094Y-115371602D01*
X204256084Y-115337329D01*
X204887385Y-115227866D01*
X205506729Y-115043244D01*
X206099850Y-114783497D01*
X206652481Y-114448657D01*
X207150353Y-114038757D01*
X207208650Y-113981619D01*
X207632565Y-113475072D01*
X207956054Y-112911788D01*
X208173773Y-112309261D01*
X208280378Y-111684982D01*
X208270527Y-111056445D01*
X208210498Y-110701855D01*
X208021863Y-110148320D01*
X207727947Y-109659516D01*
X207336830Y-109242916D01*
X206856591Y-108905995D01*
X206295310Y-108656225D01*
X205873868Y-108540487D01*
X205458679Y-108483760D01*
X204968775Y-108467117D01*
X204449274Y-108488583D01*
X204372084Y-108497405D01*
X204372084Y-108726357D01*
X205037402Y-108736901D01*
X205640584Y-108852860D01*
X206174728Y-109065821D01*
X206632927Y-109367373D01*
X207008279Y-109749102D01*
X207293877Y-110202597D01*
X207482817Y-110719446D01*
X207568195Y-111291235D01*
X207543106Y-111909552D01*
X207432591Y-112455170D01*
X207231378Y-112993142D01*
X206936244Y-113514452D01*
X206567817Y-113993319D01*
X206146724Y-114403963D01*
X205693596Y-114720603D01*
X205566156Y-114787750D01*
X205127267Y-114975076D01*
X204694744Y-115097101D01*
X204230538Y-115160846D01*
X203696602Y-115173327D01*
X203506510Y-115167709D01*
X203004157Y-115135693D01*
X202616038Y-115082099D01*
X202330702Y-115003593D01*
X202136700Y-114896842D01*
X202022582Y-114758512D01*
X202010510Y-114732116D01*
X201945769Y-114608530D01*
X201824357Y-114405266D01*
X201661717Y-114147184D01*
X201473292Y-113859144D01*
X201403149Y-113754427D01*
X201150009Y-113373750D01*
X200961955Y-113073907D01*
X200829531Y-112832911D01*
X200743281Y-112628774D01*
X200693749Y-112439506D01*
X200671480Y-112243121D01*
X200666932Y-112042420D01*
X200711537Y-111547353D01*
X200849375Y-111089026D01*
X201089024Y-110650262D01*
X201439060Y-110213889D01*
X201721073Y-109931580D01*
X202319124Y-109448069D01*
X202948898Y-109087232D01*
X203611879Y-108848392D01*
X204309552Y-108730876D01*
X204372084Y-108726357D01*
X204372084Y-108497405D01*
X203945292Y-108546184D01*
X203501949Y-108637945D01*
X203474760Y-108645481D01*
X202773880Y-108895209D01*
X202134403Y-109226489D01*
X201570242Y-109628871D01*
X201095312Y-110091903D01*
X200723527Y-110605134D01*
X200624554Y-110786295D01*
X200432276Y-111291544D01*
X200324576Y-111853311D01*
X200300708Y-112440134D01*
X200359926Y-113020553D01*
M02*
