<?xml version="1.0"?>
<!-- Generated by SVGo -->
<svg width="333.089mm" height="90.202mm"
     viewBox="0.000 0.000 333.089 90.202"
     xmlns="http://www.w3.org/2000/svg" 
     xmlns:xlink="http://www.w3.org/1999/xlink">
<polygon points="326.089,5.001 326.246,5.007 326.402,5.025 326.556,5.056 326.707,5.098 326.854,5.153 326.997,5.218 327.134,5.295 327.265,5.382 327.388,5.480 327.503,5.586 327.610,5.702 327.707,5.825 327.794,5.956 327.871,6.093 327.937,6.235 327.991,6.382 328.034,6.534 328.064,6.688 328.083,6.844 328.089,7.001 328.089,83.202 328.083,83.358 328.064,83.514 328.034,83.668 327.991,83.820 327.937,83.967 327.871,84.109 327.794,84.246 327.707,84.377 327.610,84.500 327.503,84.616 327.388,84.722 327.265,84.820 327.134,84.907 326.997,84.984 326.854,85.049 326.707,85.104 326.556,85.146 326.402,85.177 326.246,85.195 326.089,85.201 7.001,85.202 6.844,85.195 6.688,85.177 6.534,85.146 6.382,85.104 6.235,85.049 6.093,84.984 5.956,84.907 5.825,84.820 5.702,84.722 5.586,84.616 5.480,84.500 5.382,84.377 5.295,84.246 5.218,84.109 5.153,83.967 5.098,83.820 5.056,83.668 5.025,83.514 5.007,83.358 5.000,83.202 5.001,7.001 5.007,6.844 5.025,6.688 5.056,6.534 5.098,6.382 5.153,6.235 5.218,6.093 5.295,5.956 5.382,5.825 5.480,5.702 5.586,5.586 5.702,5.480 5.825,5.382 5.956,5.295 6.093,5.218 6.235,5.153 6.382,5.098 6.534,5.056 6.688,5.025 6.844,5.007 7.001,5.000" style="fill:none;stroke-width:0.050000mm;stroke:black"/>
<polygon points="200.026,66.676 200.026,67.275 199.226,67.275 199.226,71.376 198.501,71.376 198.501,68.146 196.776,68.146 196.776,67.226 193.476,67.226 193.476,68.146 191.751,68.146 191.751,71.376 190.926,71.376 190.926,74.176 191.751,74.176 191.751,80.446 193.476,80.446 193.476,81.426 196.776,81.426 196.776,80.446 198.501,80.446 198.501,75.976 199.226,75.976 199.226,80.076 200.026,80.076 200.026,80.676 214.026,80.676 214.026,80.076 214.826,80.076 214.826,75.976 215.551,75.976 215.551,80.446 217.276,80.446 217.276,81.426 220.576,81.426 220.576,80.446 222.301,80.446 222.301,74.176 223.126,74.176 223.126,71.376 222.301,71.376 222.301,68.146 220.576,68.146 220.576,67.226 217.276,67.226 217.276,68.146 215.551,68.146 215.551,71.376 214.826,71.376 214.826,67.275 214.026,67.275 214.026,66.676" style="fill:none;stroke-width:0.050000mm;stroke:black"/>
<polygon points="309.563,66.676 309.563,67.275 308.763,67.275 308.763,80.076 309.563,80.076 309.563,80.676 323.563,80.676 323.563,80.076 324.363,80.076 324.363,67.275 323.563,67.275 323.563,66.676" style="fill:none;stroke-width:0.050000mm;stroke:black"/>
<polygon points="290.513,66.676 290.513,67.275 289.713,67.275 289.713,80.076 290.513,80.076 290.513,80.676 304.513,80.676 304.513,80.076 305.313,80.076 305.313,67.275 304.513,67.275 304.513,66.676" style="fill:none;stroke-width:0.050000mm;stroke:black"/>
<polygon points="271.463,66.676 271.463,67.275 270.663,67.275 270.663,80.076 271.463,80.076 271.463,80.676 285.463,80.676 285.463,80.076 286.263,80.076 286.263,67.275 285.463,67.275 285.463,66.676" style="fill:none;stroke-width:0.050000mm;stroke:black"/>
<polygon points="252.413,66.676 252.413,67.275 251.613,67.275 251.613,80.076 252.413,80.076 252.413,80.676 266.413,80.676 266.413,80.076 267.213,80.076 267.213,67.275 266.413,67.275 266.413,66.676" style="fill:none;stroke-width:0.050000mm;stroke:black"/>
<polygon points="230.982,66.676 230.982,67.275 230.182,67.275 230.182,80.076 230.982,80.076 230.982,80.676 244.982,80.676 244.982,80.076 245.782,80.076 245.782,67.275 244.982,67.275 244.982,66.676" style="fill:none;stroke-width:0.050000mm;stroke:black"/>
<polygon points="169.069,66.676 169.069,67.275 168.269,67.275 168.269,80.076 169.069,80.076 169.069,80.676 183.069,80.676 183.069,80.076 183.869,80.076 183.869,67.275 183.069,67.275 183.069,66.676" style="fill:none;stroke-width:0.050000mm;stroke:black"/>
<polygon points="147.638,66.676 147.638,67.275 146.838,67.275 146.838,80.076 147.638,80.076 147.638,80.676 161.638,80.676 161.638,80.076 162.438,80.076 162.438,67.275 161.638,67.275 161.638,66.676" style="fill:none;stroke-width:0.050000mm;stroke:black"/>
<polygon points="128.587,66.676 128.587,67.275 127.788,67.275 127.788,80.076 128.587,80.076 128.587,80.676 142.588,80.676 142.588,80.076 143.388,80.076 143.388,67.275 142.588,67.275 142.588,66.676" style="fill:none;stroke-width:0.050000mm;stroke:black"/>
<polygon points="109.538,66.676 109.538,67.275 108.738,67.275 108.738,80.076 109.538,80.076 109.538,80.676 123.538,80.676 123.538,80.076 124.338,80.076 124.338,67.275 123.538,67.275 123.538,66.676" style="fill:none;stroke-width:0.050000mm;stroke:black"/>
<polygon points="90.488,66.676 90.488,67.275 89.688,67.275 89.688,80.076 90.488,80.076 90.488,80.676 104.488,80.676 104.488,80.076 105.288,80.076 105.288,67.275 104.488,67.275 104.488,66.676" style="fill:none;stroke-width:0.050000mm;stroke:black"/>
<polygon points="66.676,66.676 66.676,67.275 65.876,67.275 65.876,80.076 66.676,80.076 66.676,80.676 80.676,80.676 80.676,80.076 81.476,80.076 81.476,67.275 80.676,67.275 80.676,66.676" style="fill:none;stroke-width:0.050000mm;stroke:black"/>
<polygon points="47.626,66.676 47.626,67.275 46.826,67.275 46.826,80.076 47.626,80.076 47.626,80.676 61.626,80.676 61.626,80.076 62.426,80.076 62.426,67.275 61.626,67.275 61.626,66.676" style="fill:none;stroke-width:0.050000mm;stroke:black"/>
<polygon points="28.576,66.676 28.576,67.275 27.776,67.275 27.776,80.076 28.576,80.076 28.576,80.676 42.576,80.676 42.576,80.076 43.376,80.076 43.376,67.275 42.576,67.275 42.576,66.676" style="fill:none;stroke-width:0.050000mm;stroke:black"/>
<polygon points="9.525,66.676 9.525,67.275 8.725,67.275 8.725,80.076 9.525,80.076 9.525,80.676 23.526,80.676 23.526,80.076 24.326,80.076 24.326,67.275 23.526,67.275 23.526,66.676" style="fill:none;stroke-width:0.050000mm;stroke:black"/>
<polygon points="309.563,47.626 309.563,48.226 308.763,48.226 308.763,61.026 309.563,61.026 309.563,61.626 323.563,61.626 323.563,61.026 324.363,61.026 324.363,48.226 323.563,48.226 323.563,47.626" style="fill:none;stroke-width:0.050000mm;stroke:black"/>
<polygon points="290.513,47.626 290.513,48.226 289.713,48.226 289.713,61.026 290.513,61.026 290.513,61.626 304.513,61.626 304.513,61.026 305.313,61.026 305.313,48.226 304.513,48.226 304.513,47.626" style="fill:none;stroke-width:0.050000mm;stroke:black"/>
<polygon points="271.463,47.626 271.463,48.226 270.663,48.226 270.663,61.026 271.463,61.026 271.463,61.626 285.463,61.626 285.463,61.026 286.263,61.026 286.263,48.226 285.463,48.226 285.463,47.626" style="fill:none;stroke-width:0.050000mm;stroke:black"/>
<polygon points="252.413,47.626 252.413,48.226 251.613,48.226 251.613,61.026 252.413,61.026 252.413,61.626 266.413,61.626 266.413,61.026 267.213,61.026 267.213,48.226 266.413,48.226 266.413,47.626" style="fill:none;stroke-width:0.050000mm;stroke:black"/>
<polygon points="233.363,47.626 233.363,48.226 232.563,48.226 232.563,61.026 233.363,61.026 233.363,61.626 247.363,61.626 247.363,61.026 248.163,61.026 248.163,48.226 247.363,48.226 247.363,47.626" style="fill:none;stroke-width:0.050000mm;stroke:black"/>
<polygon points="214.313,47.626 214.313,48.226 213.513,48.226 213.513,61.026 214.313,61.026 214.313,61.626 228.313,61.626 228.313,61.026 229.113,61.026 229.113,48.226 228.313,48.226 228.313,47.626" style="fill:none;stroke-width:0.050000mm;stroke:black"/>
<polygon points="195.263,47.626 195.263,48.226 194.463,48.226 194.463,61.026 195.263,61.026 195.263,61.626 209.263,61.626 209.263,61.026 210.063,61.026 210.063,48.226 209.263,48.226 209.263,47.626" style="fill:none;stroke-width:0.050000mm;stroke:black"/>
<polygon points="176.213,47.626 176.213,48.226 175.413,48.226 175.413,61.026 176.213,61.026 176.213,61.626 190.213,61.626 190.213,61.026 191.013,61.026 191.013,48.226 190.213,48.226 190.213,47.626" style="fill:none;stroke-width:0.050000mm;stroke:black"/>
<polygon points="157.163,47.626 157.163,48.226 156.363,48.226 156.363,61.026 157.163,61.026 157.163,61.626 171.163,61.626 171.163,61.026 171.963,61.026 171.963,48.226 171.163,48.226 171.163,47.626" style="fill:none;stroke-width:0.050000mm;stroke:black"/>
<polygon points="138.113,47.626 138.113,48.226 137.313,48.226 137.313,61.026 138.113,61.026 138.113,61.626 152.113,61.626 152.113,61.026 152.913,61.026 152.913,48.226 152.113,48.226 152.113,47.626" style="fill:none;stroke-width:0.050000mm;stroke:black"/>
<polygon points="119.063,47.626 119.063,48.226 118.263,48.226 118.263,61.026 119.063,61.026 119.063,61.626 133.063,61.626 133.063,61.026 133.863,61.026 133.863,48.226 133.063,48.226 133.063,47.626" style="fill:none;stroke-width:0.050000mm;stroke:black"/>
<polygon points="95.251,47.626 95.251,48.226 94.451,48.226 94.451,61.026 95.251,61.026 95.251,61.626 109.251,61.626 109.251,61.026 110.051,61.026 110.051,48.226 109.251,48.226 109.251,47.626" style="fill:none;stroke-width:0.050000mm;stroke:black"/>
<polygon points="66.676,47.626 66.676,48.226 65.876,48.226 65.876,61.026 66.676,61.026 66.676,61.626 80.676,61.626 80.676,61.026 81.476,61.026 81.476,48.226 80.676,48.226 80.676,47.626" style="fill:none;stroke-width:0.050000mm;stroke:black"/>
<polygon points="47.626,47.626 47.626,48.226 46.826,48.226 46.826,61.026 47.626,61.026 47.626,61.626 61.626,61.626 61.626,61.026 62.426,61.026 62.426,48.226 61.626,48.226 61.626,47.626" style="fill:none;stroke-width:0.050000mm;stroke:black"/>
<polygon points="28.576,47.626 28.576,48.226 27.776,48.226 27.776,61.026 28.576,61.026 28.576,61.626 42.576,61.626 42.576,61.026 43.376,61.026 43.376,48.226 42.576,48.226 42.576,47.626" style="fill:none;stroke-width:0.050000mm;stroke:black"/>
<polygon points="9.525,47.626 9.525,48.226 8.725,48.226 8.725,61.026 9.525,61.026 9.525,61.626 23.526,61.626 23.526,61.026 24.326,61.026 24.326,48.226 23.526,48.226 23.526,47.626" style="fill:none;stroke-width:0.050000mm;stroke:black"/>
<polygon points="307.182,28.576 307.182,29.176 306.382,29.176 306.382,41.976 307.182,41.976 307.182,42.576 321.182,42.576 321.182,41.976 321.982,41.976 321.982,29.176 321.182,29.176 321.182,28.576" style="fill:none;stroke-width:0.050000mm;stroke:black"/>
<polygon points="285.751,28.576 285.751,29.176 284.951,29.176 284.951,41.976 285.751,41.976 285.751,42.576 299.751,42.576 299.751,41.976 300.551,41.976 300.551,29.176 299.751,29.176 299.751,28.576" style="fill:none;stroke-width:0.050000mm;stroke:black"/>
<polygon points="266.701,28.576 266.701,29.176 265.901,29.176 265.901,41.976 266.701,41.976 266.701,42.576 280.701,42.576 280.701,41.976 281.501,41.976 281.501,29.176 280.701,29.176 280.701,28.576" style="fill:none;stroke-width:0.050000mm;stroke:black"/>
<polygon points="247.651,28.576 247.651,29.176 246.851,29.176 246.851,41.976 247.651,41.976 247.651,42.576 261.650,42.576 261.650,41.976 262.451,41.976 262.451,29.176 261.650,29.176 261.650,28.576" style="fill:none;stroke-width:0.050000mm;stroke:black"/>
<polygon points="228.601,28.576 228.601,29.176 227.801,29.176 227.801,41.976 228.601,41.976 228.601,42.576 242.601,42.576 242.601,41.976 243.401,41.976 243.401,29.176 242.601,29.176 242.601,28.576" style="fill:none;stroke-width:0.050000mm;stroke:black"/>
<polygon points="209.551,28.576 209.551,29.176 208.751,29.176 208.751,41.976 209.551,41.976 209.551,42.576 223.551,42.576 223.551,41.976 224.351,41.976 224.351,29.176 223.551,29.176 223.551,28.576" style="fill:none;stroke-width:0.050000mm;stroke:black"/>
<polygon points="190.501,28.576 190.501,29.176 189.701,29.176 189.701,41.976 190.501,41.976 190.501,42.576 204.501,42.576 204.501,41.976 205.301,41.976 205.301,29.176 204.501,29.176 204.501,28.576" style="fill:none;stroke-width:0.050000mm;stroke:black"/>
<polygon points="171.451,28.576 171.451,29.176 170.651,29.176 170.651,41.976 171.451,41.976 171.451,42.576 185.451,42.576 185.451,41.976 186.251,41.976 186.251,29.176 185.451,29.176 185.451,28.576" style="fill:none;stroke-width:0.050000mm;stroke:black"/>
<polygon points="152.401,28.576 152.401,29.176 151.601,29.176 151.601,41.976 152.401,41.976 152.401,42.576 166.401,42.576 166.401,41.976 167.201,41.976 167.201,29.176 166.401,29.176 166.401,28.576" style="fill:none;stroke-width:0.050000mm;stroke:black"/>
<polygon points="133.351,28.576 133.351,29.176 132.551,29.176 132.551,41.976 133.351,41.976 133.351,42.576 147.351,42.576 147.351,41.976 148.151,41.976 148.151,29.176 147.351,29.176 147.351,28.576" style="fill:none;stroke-width:0.050000mm;stroke:black"/>
<polygon points="114.301,28.576 114.301,29.176 113.501,29.176 113.501,41.976 114.301,41.976 114.301,42.576 128.301,42.576 128.301,41.976 129.101,41.976 129.101,29.176 128.301,29.176 128.301,28.576" style="fill:none;stroke-width:0.050000mm;stroke:black"/>
<polygon points="92.869,28.576 92.869,29.176 92.069,29.176 92.069,41.976 92.869,41.976 92.869,42.576 106.869,42.576 106.869,41.976 107.669,41.976 107.669,29.176 106.869,29.176 106.869,28.576" style="fill:none;stroke-width:0.050000mm;stroke:black"/>
<polygon points="66.676,28.576 66.676,29.176 65.876,29.176 65.876,41.976 66.676,41.976 66.676,42.576 80.676,42.576 80.676,41.976 81.476,41.976 81.476,29.176 80.676,29.176 80.676,28.576" style="fill:none;stroke-width:0.050000mm;stroke:black"/>
<polygon points="47.626,28.576 47.626,29.176 46.826,29.176 46.826,41.976 47.626,41.976 47.626,42.576 61.626,42.576 61.626,41.976 62.426,41.976 62.426,29.176 61.626,29.176 61.626,28.576" style="fill:none;stroke-width:0.050000mm;stroke:black"/>
<polygon points="28.576,28.576 28.576,29.176 27.776,29.176 27.776,41.976 28.576,41.976 28.576,42.576 42.576,42.576 42.576,41.976 43.376,41.976 43.376,29.176 42.576,29.176 42.576,28.576" style="fill:none;stroke-width:0.050000mm;stroke:black"/>
<polygon points="9.525,28.576 9.525,29.176 8.725,29.176 8.725,41.976 9.525,41.976 9.525,42.576 23.526,42.576 23.526,41.976 24.326,41.976 24.326,29.176 23.526,29.176 23.526,28.576" style="fill:none;stroke-width:0.050000mm;stroke:black"/>
<polygon points="304.801,9.525 304.801,10.125 304.001,10.125 304.001,22.925 304.801,22.925 304.801,23.526 318.801,23.526 318.801,22.925 319.601,22.925 319.601,10.125 318.801,10.125 318.801,9.525" style="fill:none;stroke-width:0.050000mm;stroke:black"/>
<polygon points="280.988,9.525 280.988,10.125 280.188,10.125 280.188,22.925 280.988,22.925 280.988,23.526 294.988,23.526 294.988,22.925 295.788,22.925 295.788,10.125 294.988,10.125 294.988,9.525" style="fill:none;stroke-width:0.050000mm;stroke:black"/>
<polygon points="261.938,9.525 261.938,10.125 261.138,10.125 261.138,22.925 261.938,22.925 261.938,23.526 275.938,23.526 275.938,22.925 276.738,22.925 276.738,10.125 275.938,10.125 275.938,9.525" style="fill:none;stroke-width:0.050000mm;stroke:black"/>
<polygon points="242.888,9.525 242.888,10.125 242.088,10.125 242.088,22.925 242.888,22.925 242.888,23.526 256.888,23.526 256.888,22.925 257.688,22.925 257.688,10.125 256.888,10.125 256.888,9.525" style="fill:none;stroke-width:0.050000mm;stroke:black"/>
<polygon points="223.838,9.525 223.838,10.125 223.038,10.125 223.038,22.925 223.838,22.925 223.838,23.526 237.838,23.526 237.838,22.925 238.638,22.925 238.638,10.125 237.838,10.125 237.838,9.525" style="fill:none;stroke-width:0.050000mm;stroke:black"/>
<polygon points="204.788,9.525 204.788,10.125 203.988,10.125 203.988,22.925 204.788,22.925 204.788,23.526 218.788,23.526 218.788,22.925 219.588,22.925 219.588,10.125 218.788,10.125 218.788,9.525" style="fill:none;stroke-width:0.050000mm;stroke:black"/>
<polygon points="185.738,9.525 185.738,10.125 184.938,10.125 184.938,22.925 185.738,22.925 185.738,23.526 199.738,23.526 199.738,22.925 200.538,22.925 200.538,10.125 199.738,10.125 199.738,9.525" style="fill:none;stroke-width:0.050000mm;stroke:black"/>
<polygon points="166.688,9.525 166.688,10.125 165.888,10.125 165.888,22.925 166.688,22.925 166.688,23.526 180.688,23.526 180.688,22.925 181.488,22.925 181.488,10.125 180.688,10.125 180.688,9.525" style="fill:none;stroke-width:0.050000mm;stroke:black"/>
<polygon points="147.638,9.525 147.638,10.125 146.838,10.125 146.838,22.925 147.638,22.925 147.638,23.526 161.638,23.526 161.638,22.925 162.438,22.925 162.438,10.125 161.638,10.125 161.638,9.525" style="fill:none;stroke-width:0.050000mm;stroke:black"/>
<polygon points="128.587,9.525 128.587,10.125 127.788,10.125 127.788,22.925 128.587,22.925 128.587,23.526 142.588,23.526 142.588,22.925 143.388,22.925 143.388,10.125 142.588,10.125 142.588,9.525" style="fill:none;stroke-width:0.050000mm;stroke:black"/>
<polygon points="109.538,9.525 109.538,10.125 108.738,10.125 108.738,22.925 109.538,22.925 109.538,23.526 123.538,23.526 123.538,22.925 124.338,22.925 124.338,10.125 123.538,10.125 123.538,9.525" style="fill:none;stroke-width:0.050000mm;stroke:black"/>
<polygon points="90.488,9.525 90.488,10.125 89.688,10.125 89.688,22.925 90.488,22.925 90.488,23.526 104.488,23.526 104.488,22.925 105.288,22.925 105.288,10.125 104.488,10.125 104.488,9.525" style="fill:none;stroke-width:0.050000mm;stroke:black"/>
<polygon points="66.676,9.525 66.676,10.125 65.876,10.125 65.876,22.925 66.676,22.925 66.676,23.526 80.676,23.526 80.676,22.925 81.476,22.925 81.476,10.125 80.676,10.125 80.676,9.525" style="fill:none;stroke-width:0.050000mm;stroke:black"/>
<polygon points="47.626,9.525 47.626,10.125 46.826,10.125 46.826,22.925 47.626,22.925 47.626,23.526 61.626,23.526 61.626,22.925 62.426,22.925 62.426,10.125 61.626,10.125 61.626,9.525" style="fill:none;stroke-width:0.050000mm;stroke:black"/>
<polygon points="28.576,9.525 28.576,10.125 27.776,10.125 27.776,22.925 28.576,22.925 28.576,23.526 42.576,23.526 42.576,22.925 43.376,22.925 43.376,10.125 42.576,10.125 42.576,9.525" style="fill:none;stroke-width:0.050000mm;stroke:black"/>
<polygon points="9.525,9.525 9.525,10.125 8.725,10.125 8.725,22.925 9.525,22.925 9.525,23.526 23.526,23.526 23.526,22.925 24.326,22.925 24.326,10.125 23.526,10.125 23.526,9.525" style="fill:none;stroke-width:0.050000mm;stroke:black"/>
</svg>
