  0
SECTION
  2
HEADER
  9
$ACADVER
  1
AC1009
  9
$EXTMIN
 10
0.0
 20
0.0
 30
0.0
  9
$EXTMAX
 10
1000.0
 20
1000.0
 30
0.0
  9
$FILLMODE
 70
 0
  9
$SPLFRAME
 70
 1
  0
ENDSEC
  0
SECTION
  2
TABLES
  0
TABLE
  2
LAYER
 70
1
  0
LAYER
  2
0
 70
     0
 62
     7
  6
CONTINUOUS
  0
ENDTAB
  0
ENDSEC
  0
SECTION
  2
ENTITIES
  0
LINE
  8
0
 62
     0
 10
321.183
 20
80.3381
 30
0.0
 11
321.341
 21
80.3314
 31
0.0
  0
LINE
  8
0
 62
     0
 10
321.341
 20
80.3314
 30
0.0
 11
321.496
 21
80.3134
 31
0.0
  0
LINE
  8
0
 62
     0
 10
321.496
 20
80.3134
 30
0.0
 11
321.651
 21
80.2831
 31
0.0
  0
LINE
  8
0
 62
     0
 10
321.651
 20
80.2831
 30
0.0
 11
321.801
 21
80.2404
 31
0.0
  0
LINE
  8
0
 62
     0
 10
321.801
 20
80.2404
 30
0.0
 11
321.948
 21
80.1853
 31
0.0
  0
LINE
  8
0
 62
     0
 10
321.948
 20
80.1853
 30
0.0
 11
322.092
 21
80.1204
 31
0.0
  0
LINE
  8
0
 62
     0
 10
322.092
 20
80.1204
 30
0.0
 11
322.228
 21
80.0435
 31
0.0
  0
LINE
  8
0
 62
     0
 10
322.228
 20
80.0435
 30
0.0
 11
322.359
 21
79.9564
 31
0.0
  0
LINE
  8
0
 62
     0
 10
322.359
 20
79.9564
 30
0.0
 11
322.483
 21
79.8587
 31
0.0
  0
LINE
  8
0
 62
     0
 10
322.483
 20
79.8587
 30
0.0
 11
322.597
 21
79.7525
 31
0.0
  0
LINE
  8
0
 62
     0
 10
322.597
 20
79.7525
 30
0.0
 11
322.705
 21
79.6368
 31
0.0
  0
LINE
  8
0
 62
     0
 10
322.705
 20
79.6368
 30
0.0
 11
322.801
 21
79.5143
 31
0.0
  0
LINE
  8
0
 62
     0
 10
322.801
 20
79.5143
 30
0.0
 11
322.888
 21
79.3831
 31
0.0
  0
LINE
  8
0
 62
     0
 10
322.888
 20
79.3831
 30
0.0
 11
322.965
 21
79.2455
 31
0.0
  0
LINE
  8
0
 62
     0
 10
322.965
 20
79.2455
 30
0.0
 11
323.032
 21
79.1034
 31
0.0
  0
LINE
  8
0
 62
     0
 10
323.032
 20
79.1034
 30
0.0
 11
323.085
 21
78.9573
 31
0.0
  0
LINE
  8
0
 62
     0
 10
323.085
 20
78.9573
 30
0.0
 11
323.128
 21
78.8046
 31
0.0
  0
LINE
  8
0
 62
     0
 10
323.128
 20
78.8046
 30
0.0
 11
323.158
 21
78.6515
 31
0.0
  0
LINE
  8
0
 62
     0
 10
323.158
 20
78.6515
 30
0.0
 11
323.178
 21
78.4945
 31
0.0
  0
LINE
  8
0
 62
     0
 10
323.178
 20
78.4945
 30
0.0
 11
323.183
 21
78.3375
 31
0.0
  0
LINE
  8
0
 62
     0
 10
323.183
 20
78.3375
 30
0.0
 11
323.183
 21
2.13734
 31
0.0
  0
LINE
  8
0
 62
     0
 10
323.183
 20
2.13734
 30
0.0
 11
323.178
 21
1.98024
 31
0.0
  0
LINE
  8
0
 62
     0
 10
323.178
 20
1.98024
 30
0.0
 11
323.158
 21
1.82452
 31
0.0
  0
LINE
  8
0
 62
     0
 10
323.158
 20
1.82452
 30
0.0
 11
323.128
 21
1.67018
 31
0.0
  0
LINE
  8
0
 62
     0
 10
323.128
 20
1.67018
 30
0.0
 11
323.085
 21
1.5186
 31
0.0
  0
LINE
  8
0
 62
     0
 10
323.085
 20
1.5186
 30
0.0
 11
323.032
 21
1.37253
 31
0.0
  0
LINE
  8
0
 62
     0
 10
323.032
 20
1.37253
 30
0.0
 11
322.965
 21
1.22921
 31
0.0
  0
LINE
  8
0
 62
     0
 10
322.965
 20
1.22921
 30
0.0
 11
322.888
 21
1.09279
 31
0.0
  0
LINE
  8
0
 62
     0
 10
322.888
 20
1.09279
 30
0.0
 11
322.801
 21
0.96187
 31
0.0
  0
LINE
  8
0
 62
     0
 10
322.801
 20
0.96187
 30
0.0
 11
322.705
 21
0.839227
 31
0.0
  0
LINE
  8
0
 62
     0
 10
322.705
 20
0.839227
 30
0.0
 11
322.597
 21
0.72347
 31
0.0
  0
LINE
  8
0
 62
     0
 10
322.597
 20
0.72347
 30
0.0
 11
322.483
 21
0.617361
 31
0.0
  0
LINE
  8
0
 62
     0
 10
322.483
 20
0.617361
 30
0.0
 11
322.359
 21
0.519522
 31
0.0
  0
LINE
  8
0
 62
     0
 10
322.359
 20
0.519522
 30
0.0
 11
322.228
 21
0.431327
 31
0.0
  0
LINE
  8
0
 62
     0
 10
322.228
 20
0.431327
 30
0.0
 11
322.092
 21
0.354157
 31
0.0
  0
LINE
  8
0
 62
     0
 10
322.092
 20
0.354157
 30
0.0
 11
321.948
 21
0.289388
 31
0.0
  0
LINE
  8
0
 62
     0
 10
321.948
 20
0.289388
 30
0.0
 11
321.801
 21
0.234267
 31
0.0
  0
LINE
  8
0
 62
     0
 10
321.801
 20
0.234267
 30
0.0
 11
321.651
 21
0.192925
 31
0.0
  0
LINE
  8
0
 62
     0
 10
321.651
 20
0.192925
 30
0.0
 11
321.496
 21
0.16123
 31
0.0
  0
LINE
  8
0
 62
     0
 10
321.496
 20
0.16123
 30
0.0
 11
321.341
 21
0.143316
 31
0.0
  0
LINE
  8
0
 62
     0
 10
321.341
 20
0.143316
 30
0.0
 11
321.183
 21
0.137804
 31
0.0
  0
LINE
  8
0
 62
     0
 10
321.183
 20
0.137804
 30
0.0
 11
2.096
 21
0.136426
 31
0.0
  0
LINE
  8
0
 62
     0
 10
2.096
 20
0.136426
 30
0.0
 11
1.9389
 21
0.143316
 31
0.0
  0
LINE
  8
0
 62
     0
 10
1.9389
 20
0.143316
 30
0.0
 11
1.7818
 21
0.16123
 31
0.0
  0
LINE
  8
0
 62
     0
 10
1.7818
 20
0.16123
 30
0.0
 11
1.62884
 21
0.192925
 31
0.0
  0
LINE
  8
0
 62
     0
 10
1.62884
 20
0.192925
 30
0.0
 11
1.47588
 21
0.234267
 31
0.0
  0
LINE
  8
0
 62
     0
 10
1.47588
 20
0.234267
 30
0.0
 11
1.32981
 21
0.289388
 31
0.0
  0
LINE
  8
0
 62
     0
 10
1.32981
 20
0.289388
 30
0.0
 11
1.18787
 21
0.354157
 31
0.0
  0
LINE
  8
0
 62
     0
 10
1.18787
 20
0.354157
 30
0.0
 11
1.05006
 21
0.431327
 31
0.0
  0
LINE
  8
0
 62
     0
 10
1.05006
 20
0.431327
 30
0.0
 11
0.919152
 21
0.519522
 31
0.0
  0
LINE
  8
0
 62
     0
 10
0.919152
 20
0.519522
 30
0.0
 11
0.796505
 21
0.617361
 31
0.0
  0
LINE
  8
0
 62
     0
 10
0.796505
 20
0.617361
 30
0.0
 11
0.680752
 21
0.72347
 31
0.0
  0
LINE
  8
0
 62
     0
 10
0.680752
 20
0.72347
 30
0.0
 11
0.574643
 21
0.839227
 31
0.0
  0
LINE
  8
0
 62
     0
 10
0.574643
 20
0.839227
 30
0.0
 11
0.4768
 21
0.96187
 31
0.0
  0
LINE
  8
0
 62
     0
 10
0.4768
 20
0.96187
 30
0.0
 11
0.389985
 21
1.09279
 31
0.0
  0
LINE
  8
0
 62
     0
 10
0.389985
 20
1.09279
 30
0.0
 11
0.312815
 21
1.22921
 31
0.0
  0
LINE
  8
0
 62
     0
 10
0.312815
 20
1.22921
 30
0.0
 11
0.248047
 21
1.37253
 31
0.0
  0
LINE
  8
0
 62
     0
 10
0.248047
 20
1.37253
 30
0.0
 11
0.192925
 21
1.5186
 31
0.0
  0
LINE
  8
0
 62
     0
 10
0.192925
 20
1.5186
 30
0.0
 11
0.150206
 21
1.67018
 31
0.0
  0
LINE
  8
0
 62
     0
 10
0.150206
 20
1.67018
 30
0.0
 11
0.119889
 21
1.82452
 31
0.0
  0
LINE
  8
0
 62
     0
 10
0.119889
 20
1.82452
 30
0.0
 11
0.101975
 21
1.98024
 31
0.0
  0
LINE
  8
0
 62
     0
 10
0.101975
 20
1.98024
 30
0.0
 11
0.0950846
 21
2.13734
 31
0.0
  0
LINE
  8
0
 62
     0
 10
0.0950846
 20
2.13734
 30
0.0
 11
0.0950846
 21
78.3375
 31
0.0
  0
LINE
  8
0
 62
     0
 10
0.0950846
 20
78.3375
 30
0.0
 11
0.101975
 21
78.4945
 31
0.0
  0
LINE
  8
0
 62
     0
 10
0.101975
 20
78.4945
 30
0.0
 11
0.119889
 21
78.6515
 31
0.0
  0
LINE
  8
0
 62
     0
 10
0.119889
 20
78.6515
 30
0.0
 11
0.150206
 21
78.8046
 31
0.0
  0
LINE
  8
0
 62
     0
 10
0.150206
 20
78.8046
 30
0.0
 11
0.192925
 21
78.9573
 31
0.0
  0
LINE
  8
0
 62
     0
 10
0.192925
 20
78.9573
 30
0.0
 11
0.248047
 21
79.1034
 31
0.0
  0
LINE
  8
0
 62
     0
 10
0.248047
 20
79.1034
 30
0.0
 11
0.312815
 21
79.2455
 31
0.0
  0
LINE
  8
0
 62
     0
 10
0.312815
 20
79.2455
 30
0.0
 11
0.389985
 21
79.3831
 31
0.0
  0
LINE
  8
0
 62
     0
 10
0.389985
 20
79.3831
 30
0.0
 11
0.4768
 21
79.5143
 31
0.0
  0
LINE
  8
0
 62
     0
 10
0.4768
 20
79.5143
 30
0.0
 11
0.574643
 21
79.6368
 31
0.0
  0
LINE
  8
0
 62
     0
 10
0.574643
 20
79.6368
 30
0.0
 11
0.680752
 21
79.7525
 31
0.0
  0
LINE
  8
0
 62
     0
 10
0.680752
 20
79.7525
 30
0.0
 11
0.796505
 21
79.8587
 31
0.0
  0
LINE
  8
0
 62
     0
 10
0.796505
 20
79.8587
 30
0.0
 11
0.919152
 21
79.9564
 31
0.0
  0
LINE
  8
0
 62
     0
 10
0.919152
 20
79.9564
 30
0.0
 11
1.05006
 21
80.0435
 31
0.0
  0
LINE
  8
0
 62
     0
 10
1.05006
 20
80.0435
 30
0.0
 11
1.18787
 21
80.1204
 31
0.0
  0
LINE
  8
0
 62
     0
 10
1.18787
 20
80.1204
 30
0.0
 11
1.32981
 21
80.1853
 31
0.0
  0
LINE
  8
0
 62
     0
 10
1.32981
 20
80.1853
 30
0.0
 11
1.47588
 21
80.2404
 31
0.0
  0
LINE
  8
0
 62
     0
 10
1.47588
 20
80.2404
 30
0.0
 11
1.62884
 21
80.2831
 31
0.0
  0
LINE
  8
0
 62
     0
 10
1.62884
 20
80.2831
 30
0.0
 11
1.7818
 21
80.3134
 31
0.0
  0
LINE
  8
0
 62
     0
 10
1.7818
 20
80.3134
 30
0.0
 11
1.9389
 21
80.3314
 31
0.0
  0
LINE
  8
0
 62
     0
 10
1.9389
 20
80.3314
 30
0.0
 11
2.096
 21
80.3381
 31
0.0
  0
LINE
  8
0
 62
     0
 10
2.096
 20
80.3381
 30
0.0
 11
321.183
 21
80.3381
 31
0.0
  0
LINE
  8
0
 62
     0
 10
195.121
 20
18.6628
 30
0.0
 11
195.121
 21
18.0633
 31
0.0
  0
LINE
  8
0
 62
     0
 10
195.121
 20
18.0633
 30
0.0
 11
194.32
 21
18.0633
 31
0.0
  0
LINE
  8
0
 62
     0
 10
194.32
 20
18.0633
 30
0.0
 11
194.32
 21
13.9623
 31
0.0
  0
LINE
  8
0
 62
     0
 10
194.32
 20
13.9623
 30
0.0
 11
193.595
 21
13.9623
 31
0.0
  0
LINE
  8
0
 62
     0
 10
193.595
 20
13.9623
 30
0.0
 11
193.595
 21
17.1924
 31
0.0
  0
LINE
  8
0
 62
     0
 10
193.595
 20
17.1924
 30
0.0
 11
191.871
 21
17.1924
 31
0.0
  0
LINE
  8
0
 62
     0
 10
191.871
 20
17.1924
 30
0.0
 11
191.871
 21
18.113
 31
0.0
  0
LINE
  8
0
 62
     0
 10
191.871
 20
18.113
 30
0.0
 11
188.571
 21
18.113
 31
0.0
  0
LINE
  8
0
 62
     0
 10
188.571
 20
18.113
 30
0.0
 11
188.571
 21
17.1924
 31
0.0
  0
LINE
  8
0
 62
     0
 10
188.571
 20
17.1924
 30
0.0
 11
186.846
 21
17.1924
 31
0.0
  0
LINE
  8
0
 62
     0
 10
186.846
 20
17.1924
 30
0.0
 11
186.846
 21
13.9623
 31
0.0
  0
LINE
  8
0
 62
     0
 10
186.846
 20
13.9623
 30
0.0
 11
186.02
 21
13.9623
 31
0.0
  0
LINE
  8
0
 62
     0
 10
186.02
 20
13.9623
 30
0.0
 11
186.02
 21
11.1635
 31
0.0
  0
LINE
  8
0
 62
     0
 10
186.02
 20
11.1635
 30
0.0
 11
186.846
 21
11.1635
 31
0.0
  0
LINE
  8
0
 62
     0
 10
186.846
 20
11.1635
 30
0.0
 11
186.846
 21
4.89342
 31
0.0
  0
LINE
  8
0
 62
     0
 10
186.846
 20
4.89342
 30
0.0
 11
188.571
 21
4.89342
 31
0.0
  0
LINE
  8
0
 62
     0
 10
188.571
 20
4.89342
 30
0.0
 11
188.571
 21
3.91223
 31
0.0
  0
LINE
  8
0
 62
     0
 10
188.571
 20
3.91223
 30
0.0
 11
191.871
 21
3.91223
 31
0.0
  0
LINE
  8
0
 62
     0
 10
191.871
 20
3.91223
 30
0.0
 11
191.871
 21
4.89342
 31
0.0
  0
LINE
  8
0
 62
     0
 10
191.871
 20
4.89342
 30
0.0
 11
193.595
 21
4.89342
 31
0.0
  0
LINE
  8
0
 62
     0
 10
193.595
 20
4.89342
 30
0.0
 11
193.595
 21
9.3624
 31
0.0
  0
LINE
  8
0
 62
     0
 10
193.595
 20
9.3624
 30
0.0
 11
194.32
 21
9.3624
 31
0.0
  0
LINE
  8
0
 62
     0
 10
194.32
 20
9.3624
 30
0.0
 11
194.32
 21
5.26274
 31
0.0
  0
LINE
  8
0
 62
     0
 10
194.32
 20
5.26274
 30
0.0
 11
195.121
 21
5.26274
 31
0.0
  0
LINE
  8
0
 62
     0
 10
195.121
 20
5.26274
 30
0.0
 11
195.121
 21
4.6633
 31
0.0
  0
LINE
  8
0
 62
     0
 10
195.121
 20
4.6633
 30
0.0
 11
209.12
 21
4.6633
 31
0.0
  0
LINE
  8
0
 62
     0
 10
209.12
 20
4.6633
 30
0.0
 11
209.12
 21
5.26274
 31
0.0
  0
LINE
  8
0
 62
     0
 10
209.12
 20
5.26274
 30
0.0
 11
209.921
 21
5.26274
 31
0.0
  0
LINE
  8
0
 62
     0
 10
209.921
 20
5.26274
 30
0.0
 11
209.921
 21
9.3624
 31
0.0
  0
LINE
  8
0
 62
     0
 10
209.921
 20
9.3624
 30
0.0
 11
210.645
 21
9.3624
 31
0.0
  0
LINE
  8
0
 62
     0
 10
210.645
 20
9.3624
 30
0.0
 11
210.645
 21
4.89342
 31
0.0
  0
LINE
  8
0
 62
     0
 10
210.645
 20
4.89342
 30
0.0
 11
212.371
 21
4.89342
 31
0.0
  0
LINE
  8
0
 62
     0
 10
212.371
 20
4.89342
 30
0.0
 11
212.371
 21
3.91223
 31
0.0
  0
LINE
  8
0
 62
     0
 10
212.371
 20
3.91223
 30
0.0
 11
215.67
 21
3.91223
 31
0.0
  0
LINE
  8
0
 62
     0
 10
215.67
 20
3.91223
 30
0.0
 11
215.67
 21
4.89342
 31
0.0
  0
LINE
  8
0
 62
     0
 10
215.67
 20
4.89342
 30
0.0
 11
217.395
 21
4.89342
 31
0.0
  0
LINE
  8
0
 62
     0
 10
217.395
 20
4.89342
 30
0.0
 11
217.395
 21
11.1635
 31
0.0
  0
LINE
  8
0
 62
     0
 10
217.395
 20
11.1635
 30
0.0
 11
218.221
 21
11.1635
 31
0.0
  0
LINE
  8
0
 62
     0
 10
218.221
 20
11.1635
 30
0.0
 11
218.221
 21
13.9623
 31
0.0
  0
LINE
  8
0
 62
     0
 10
218.221
 20
13.9623
 30
0.0
 11
217.395
 21
13.9623
 31
0.0
  0
LINE
  8
0
 62
     0
 10
217.395
 20
13.9623
 30
0.0
 11
217.395
 21
17.1924
 31
0.0
  0
LINE
  8
0
 62
     0
 10
217.395
 20
17.1924
 30
0.0
 11
215.67
 21
17.1924
 31
0.0
  0
LINE
  8
0
 62
     0
 10
215.67
 20
17.1924
 30
0.0
 11
215.67
 21
18.113
 31
0.0
  0
LINE
  8
0
 62
     0
 10
215.67
 20
18.113
 30
0.0
 11
212.371
 21
18.113
 31
0.0
  0
LINE
  8
0
 62
     0
 10
212.371
 20
18.113
 30
0.0
 11
212.371
 21
17.1924
 31
0.0
  0
LINE
  8
0
 62
     0
 10
212.371
 20
17.1924
 30
0.0
 11
210.645
 21
17.1924
 31
0.0
  0
LINE
  8
0
 62
     0
 10
210.645
 20
17.1924
 30
0.0
 11
210.645
 21
13.9623
 31
0.0
  0
LINE
  8
0
 62
     0
 10
210.645
 20
13.9623
 30
0.0
 11
209.921
 21
13.9623
 31
0.0
  0
LINE
  8
0
 62
     0
 10
209.921
 20
13.9623
 30
0.0
 11
209.921
 21
18.0633
 31
0.0
  0
LINE
  8
0
 62
     0
 10
209.921
 20
18.0633
 30
0.0
 11
209.12
 21
18.0633
 31
0.0
  0
LINE
  8
0
 62
     0
 10
209.12
 20
18.0633
 30
0.0
 11
209.12
 21
18.6628
 31
0.0
  0
LINE
  8
0
 62
     0
 10
209.12
 20
18.6628
 30
0.0
 11
195.121
 21
18.6628
 31
0.0
  0
LINE
  8
0
 62
     0
 10
304.658
 20
18.6628
 30
0.0
 11
304.658
 21
18.0633
 31
0.0
  0
LINE
  8
0
 62
     0
 10
304.658
 20
18.0633
 30
0.0
 11
303.857
 21
18.0633
 31
0.0
  0
LINE
  8
0
 62
     0
 10
303.857
 20
18.0633
 30
0.0
 11
303.857
 21
5.26274
 31
0.0
  0
LINE
  8
0
 62
     0
 10
303.857
 20
5.26274
 30
0.0
 11
304.658
 21
5.26274
 31
0.0
  0
LINE
  8
0
 62
     0
 10
304.658
 20
5.26274
 30
0.0
 11
304.658
 21
4.6633
 31
0.0
  0
LINE
  8
0
 62
     0
 10
304.658
 20
4.6633
 30
0.0
 11
318.657
 21
4.6633
 31
0.0
  0
LINE
  8
0
 62
     0
 10
318.657
 20
4.6633
 30
0.0
 11
318.657
 21
5.26274
 31
0.0
  0
LINE
  8
0
 62
     0
 10
318.657
 20
5.26274
 30
0.0
 11
319.457
 21
5.26274
 31
0.0
  0
LINE
  8
0
 62
     0
 10
319.457
 20
5.26274
 30
0.0
 11
319.457
 21
18.0633
 31
0.0
  0
LINE
  8
0
 62
     0
 10
319.457
 20
18.0633
 30
0.0
 11
318.657
 21
18.0633
 31
0.0
  0
LINE
  8
0
 62
     0
 10
318.657
 20
18.0633
 30
0.0
 11
318.657
 21
18.6628
 31
0.0
  0
LINE
  8
0
 62
     0
 10
318.657
 20
18.6628
 30
0.0
 11
304.658
 21
18.6628
 31
0.0
  0
LINE
  8
0
 62
     0
 10
285.608
 20
18.6628
 30
0.0
 11
285.608
 21
18.0633
 31
0.0
  0
LINE
  8
0
 62
     0
 10
285.608
 20
18.0633
 30
0.0
 11
284.807
 21
18.0633
 31
0.0
  0
LINE
  8
0
 62
     0
 10
284.807
 20
18.0633
 30
0.0
 11
284.807
 21
5.26274
 31
0.0
  0
LINE
  8
0
 62
     0
 10
284.807
 20
5.26274
 30
0.0
 11
285.608
 21
5.26274
 31
0.0
  0
LINE
  8
0
 62
     0
 10
285.608
 20
5.26274
 30
0.0
 11
285.608
 21
4.6633
 31
0.0
  0
LINE
  8
0
 62
     0
 10
285.608
 20
4.6633
 30
0.0
 11
299.607
 21
4.6633
 31
0.0
  0
LINE
  8
0
 62
     0
 10
299.607
 20
4.6633
 30
0.0
 11
299.607
 21
5.26274
 31
0.0
  0
LINE
  8
0
 62
     0
 10
299.607
 20
5.26274
 30
0.0
 11
300.407
 21
5.26274
 31
0.0
  0
LINE
  8
0
 62
     0
 10
300.407
 20
5.26274
 30
0.0
 11
300.407
 21
18.0633
 31
0.0
  0
LINE
  8
0
 62
     0
 10
300.407
 20
18.0633
 30
0.0
 11
299.607
 21
18.0633
 31
0.0
  0
LINE
  8
0
 62
     0
 10
299.607
 20
18.0633
 30
0.0
 11
299.607
 21
18.6628
 31
0.0
  0
LINE
  8
0
 62
     0
 10
299.607
 20
18.6628
 30
0.0
 11
285.608
 21
18.6628
 31
0.0
  0
LINE
  8
0
 62
     0
 10
266.558
 20
18.6628
 30
0.0
 11
266.558
 21
18.0633
 31
0.0
  0
LINE
  8
0
 62
     0
 10
266.558
 20
18.0633
 30
0.0
 11
265.757
 21
18.0633
 31
0.0
  0
LINE
  8
0
 62
     0
 10
265.757
 20
18.0633
 30
0.0
 11
265.757
 21
5.26274
 31
0.0
  0
LINE
  8
0
 62
     0
 10
265.757
 20
5.26274
 30
0.0
 11
266.558
 21
5.26274
 31
0.0
  0
LINE
  8
0
 62
     0
 10
266.558
 20
5.26274
 30
0.0
 11
266.558
 21
4.6633
 31
0.0
  0
LINE
  8
0
 62
     0
 10
266.558
 20
4.6633
 30
0.0
 11
280.557
 21
4.6633
 31
0.0
  0
LINE
  8
0
 62
     0
 10
280.557
 20
4.6633
 30
0.0
 11
280.557
 21
5.26274
 31
0.0
  0
LINE
  8
0
 62
     0
 10
280.557
 20
5.26274
 30
0.0
 11
281.357
 21
5.26274
 31
0.0
  0
LINE
  8
0
 62
     0
 10
281.357
 20
5.26274
 30
0.0
 11
281.357
 21
18.0633
 31
0.0
  0
LINE
  8
0
 62
     0
 10
281.357
 20
18.0633
 30
0.0
 11
280.557
 21
18.0633
 31
0.0
  0
LINE
  8
0
 62
     0
 10
280.557
 20
18.0633
 30
0.0
 11
280.557
 21
18.6628
 31
0.0
  0
LINE
  8
0
 62
     0
 10
280.557
 20
18.6628
 30
0.0
 11
266.558
 21
18.6628
 31
0.0
  0
LINE
  8
0
 62
     0
 10
247.508
 20
18.6628
 30
0.0
 11
247.508
 21
18.0633
 31
0.0
  0
LINE
  8
0
 62
     0
 10
247.508
 20
18.0633
 30
0.0
 11
246.707
 21
18.0633
 31
0.0
  0
LINE
  8
0
 62
     0
 10
246.707
 20
18.0633
 30
0.0
 11
246.707
 21
5.26274
 31
0.0
  0
LINE
  8
0
 62
     0
 10
246.707
 20
5.26274
 30
0.0
 11
247.508
 21
5.26274
 31
0.0
  0
LINE
  8
0
 62
     0
 10
247.508
 20
5.26274
 30
0.0
 11
247.508
 21
4.6633
 31
0.0
  0
LINE
  8
0
 62
     0
 10
247.508
 20
4.6633
 30
0.0
 11
261.507
 21
4.6633
 31
0.0
  0
LINE
  8
0
 62
     0
 10
261.507
 20
4.6633
 30
0.0
 11
261.507
 21
5.26274
 31
0.0
  0
LINE
  8
0
 62
     0
 10
261.507
 20
5.26274
 30
0.0
 11
262.307
 21
5.26274
 31
0.0
  0
LINE
  8
0
 62
     0
 10
262.307
 20
5.26274
 30
0.0
 11
262.307
 21
18.0633
 31
0.0
  0
LINE
  8
0
 62
     0
 10
262.307
 20
18.0633
 30
0.0
 11
261.507
 21
18.0633
 31
0.0
  0
LINE
  8
0
 62
     0
 10
261.507
 20
18.0633
 30
0.0
 11
261.507
 21
18.6628
 31
0.0
  0
LINE
  8
0
 62
     0
 10
261.507
 20
18.6628
 30
0.0
 11
247.508
 21
18.6628
 31
0.0
  0
LINE
  8
0
 62
     0
 10
226.077
 20
18.6628
 30
0.0
 11
226.077
 21
18.0633
 31
0.0
  0
LINE
  8
0
 62
     0
 10
226.077
 20
18.0633
 30
0.0
 11
225.276
 21
18.0633
 31
0.0
  0
LINE
  8
0
 62
     0
 10
225.276
 20
18.0633
 30
0.0
 11
225.276
 21
5.26274
 31
0.0
  0
LINE
  8
0
 62
     0
 10
225.276
 20
5.26274
 30
0.0
 11
226.077
 21
5.26274
 31
0.0
  0
LINE
  8
0
 62
     0
 10
226.077
 20
5.26274
 30
0.0
 11
226.077
 21
4.6633
 31
0.0
  0
LINE
  8
0
 62
     0
 10
226.077
 20
4.6633
 30
0.0
 11
240.076
 21
4.6633
 31
0.0
  0
LINE
  8
0
 62
     0
 10
240.076
 20
4.6633
 30
0.0
 11
240.076
 21
5.26274
 31
0.0
  0
LINE
  8
0
 62
     0
 10
240.076
 20
5.26274
 30
0.0
 11
240.877
 21
5.26274
 31
0.0
  0
LINE
  8
0
 62
     0
 10
240.877
 20
5.26274
 30
0.0
 11
240.877
 21
18.0633
 31
0.0
  0
LINE
  8
0
 62
     0
 10
240.877
 20
18.0633
 30
0.0
 11
240.076
 21
18.0633
 31
0.0
  0
LINE
  8
0
 62
     0
 10
240.076
 20
18.0633
 30
0.0
 11
240.076
 21
18.6628
 31
0.0
  0
LINE
  8
0
 62
     0
 10
240.076
 20
18.6628
 30
0.0
 11
226.077
 21
18.6628
 31
0.0
  0
LINE
  8
0
 62
     0
 10
164.163
 20
18.6628
 30
0.0
 11
164.163
 21
18.0633
 31
0.0
  0
LINE
  8
0
 62
     0
 10
164.163
 20
18.0633
 30
0.0
 11
163.364
 21
18.0633
 31
0.0
  0
LINE
  8
0
 62
     0
 10
163.364
 20
18.0633
 30
0.0
 11
163.364
 21
5.26274
 31
0.0
  0
LINE
  8
0
 62
     0
 10
163.364
 20
5.26274
 30
0.0
 11
164.163
 21
5.26274
 31
0.0
  0
LINE
  8
0
 62
     0
 10
164.163
 20
5.26274
 30
0.0
 11
164.163
 21
4.6633
 31
0.0
  0
LINE
  8
0
 62
     0
 10
164.163
 20
4.6633
 30
0.0
 11
178.164
 21
4.6633
 31
0.0
  0
LINE
  8
0
 62
     0
 10
178.164
 20
4.6633
 30
0.0
 11
178.164
 21
5.26274
 31
0.0
  0
LINE
  8
0
 62
     0
 10
178.164
 20
5.26274
 30
0.0
 11
178.963
 21
5.26274
 31
0.0
  0
LINE
  8
0
 62
     0
 10
178.963
 20
5.26274
 30
0.0
 11
178.963
 21
18.0633
 31
0.0
  0
LINE
  8
0
 62
     0
 10
178.963
 20
18.0633
 30
0.0
 11
178.164
 21
18.0633
 31
0.0
  0
LINE
  8
0
 62
     0
 10
178.164
 20
18.0633
 30
0.0
 11
178.164
 21
18.6628
 31
0.0
  0
LINE
  8
0
 62
     0
 10
178.164
 20
18.6628
 30
0.0
 11
164.163
 21
18.6628
 31
0.0
  0
LINE
  8
0
 62
     0
 10
142.733
 20
18.6628
 30
0.0
 11
142.733
 21
18.0633
 31
0.0
  0
LINE
  8
0
 62
     0
 10
142.733
 20
18.0633
 30
0.0
 11
141.932
 21
18.0633
 31
0.0
  0
LINE
  8
0
 62
     0
 10
141.932
 20
18.0633
 30
0.0
 11
141.932
 21
5.26274
 31
0.0
  0
LINE
  8
0
 62
     0
 10
141.932
 20
5.26274
 30
0.0
 11
142.733
 21
5.26274
 31
0.0
  0
LINE
  8
0
 62
     0
 10
142.733
 20
5.26274
 30
0.0
 11
142.733
 21
4.6633
 31
0.0
  0
LINE
  8
0
 62
     0
 10
142.733
 20
4.6633
 30
0.0
 11
156.732
 21
4.6633
 31
0.0
  0
LINE
  8
0
 62
     0
 10
156.732
 20
4.6633
 30
0.0
 11
156.732
 21
5.26274
 31
0.0
  0
LINE
  8
0
 62
     0
 10
156.732
 20
5.26274
 30
0.0
 11
157.532
 21
5.26274
 31
0.0
  0
LINE
  8
0
 62
     0
 10
157.532
 20
5.26274
 30
0.0
 11
157.532
 21
18.0633
 31
0.0
  0
LINE
  8
0
 62
     0
 10
157.532
 20
18.0633
 30
0.0
 11
156.732
 21
18.0633
 31
0.0
  0
LINE
  8
0
 62
     0
 10
156.732
 20
18.0633
 30
0.0
 11
156.732
 21
18.6628
 31
0.0
  0
LINE
  8
0
 62
     0
 10
156.732
 20
18.6628
 30
0.0
 11
142.733
 21
18.6628
 31
0.0
  0
LINE
  8
0
 62
     0
 10
123.682
 20
18.6628
 30
0.0
 11
123.682
 21
18.0633
 31
0.0
  0
LINE
  8
0
 62
     0
 10
123.682
 20
18.0633
 30
0.0
 11
122.882
 21
18.0633
 31
0.0
  0
LINE
  8
0
 62
     0
 10
122.882
 20
18.0633
 30
0.0
 11
122.882
 21
5.26274
 31
0.0
  0
LINE
  8
0
 62
     0
 10
122.882
 20
5.26274
 30
0.0
 11
123.682
 21
5.26274
 31
0.0
  0
LINE
  8
0
 62
     0
 10
123.682
 20
5.26274
 30
0.0
 11
123.682
 21
4.6633
 31
0.0
  0
LINE
  8
0
 62
     0
 10
123.682
 20
4.6633
 30
0.0
 11
137.682
 21
4.6633
 31
0.0
  0
LINE
  8
0
 62
     0
 10
137.682
 20
4.6633
 30
0.0
 11
137.682
 21
5.26274
 31
0.0
  0
LINE
  8
0
 62
     0
 10
137.682
 20
5.26274
 30
0.0
 11
138.482
 21
5.26274
 31
0.0
  0
LINE
  8
0
 62
     0
 10
138.482
 20
5.26274
 30
0.0
 11
138.482
 21
18.0633
 31
0.0
  0
LINE
  8
0
 62
     0
 10
138.482
 20
18.0633
 30
0.0
 11
137.682
 21
18.0633
 31
0.0
  0
LINE
  8
0
 62
     0
 10
137.682
 20
18.0633
 30
0.0
 11
137.682
 21
18.6628
 31
0.0
  0
LINE
  8
0
 62
     0
 10
137.682
 20
18.6628
 30
0.0
 11
123.682
 21
18.6628
 31
0.0
  0
LINE
  8
0
 62
     0
 10
104.633
 20
18.6628
 30
0.0
 11
104.633
 21
18.0633
 31
0.0
  0
LINE
  8
0
 62
     0
 10
104.633
 20
18.0633
 30
0.0
 11
103.832
 21
18.0633
 31
0.0
  0
LINE
  8
0
 62
     0
 10
103.832
 20
18.0633
 30
0.0
 11
103.832
 21
5.26274
 31
0.0
  0
LINE
  8
0
 62
     0
 10
103.832
 20
5.26274
 30
0.0
 11
104.633
 21
5.26274
 31
0.0
  0
LINE
  8
0
 62
     0
 10
104.633
 20
5.26274
 30
0.0
 11
104.633
 21
4.6633
 31
0.0
  0
LINE
  8
0
 62
     0
 10
104.633
 20
4.6633
 30
0.0
 11
118.632
 21
4.6633
 31
0.0
  0
LINE
  8
0
 62
     0
 10
118.632
 20
4.6633
 30
0.0
 11
118.632
 21
5.26274
 31
0.0
  0
LINE
  8
0
 62
     0
 10
118.632
 20
5.26274
 30
0.0
 11
119.432
 21
5.26274
 31
0.0
  0
LINE
  8
0
 62
     0
 10
119.432
 20
5.26274
 30
0.0
 11
119.432
 21
18.0633
 31
0.0
  0
LINE
  8
0
 62
     0
 10
119.432
 20
18.0633
 30
0.0
 11
118.632
 21
18.0633
 31
0.0
  0
LINE
  8
0
 62
     0
 10
118.632
 20
18.0633
 30
0.0
 11
118.632
 21
18.6628
 31
0.0
  0
LINE
  8
0
 62
     0
 10
118.632
 20
18.6628
 30
0.0
 11
104.633
 21
18.6628
 31
0.0
  0
LINE
  8
0
 62
     0
 10
85.5832
 20
18.6628
 30
0.0
 11
85.5832
 21
18.0633
 31
0.0
  0
LINE
  8
0
 62
     0
 10
85.5832
 20
18.0633
 30
0.0
 11
84.7824
 21
18.0633
 31
0.0
  0
LINE
  8
0
 62
     0
 10
84.7824
 20
18.0633
 30
0.0
 11
84.7824
 21
5.26274
 31
0.0
  0
LINE
  8
0
 62
     0
 10
84.7824
 20
5.26274
 30
0.0
 11
85.5832
 21
5.26274
 31
0.0
  0
LINE
  8
0
 62
     0
 10
85.5832
 20
5.26274
 30
0.0
 11
85.5832
 21
4.6633
 31
0.0
  0
LINE
  8
0
 62
     0
 10
85.5832
 20
4.6633
 30
0.0
 11
99.5825
 21
4.6633
 31
0.0
  0
LINE
  8
0
 62
     0
 10
99.5825
 20
4.6633
 30
0.0
 11
99.5825
 21
5.26274
 31
0.0
  0
LINE
  8
0
 62
     0
 10
99.5825
 20
5.26274
 30
0.0
 11
100.382
 21
5.26274
 31
0.0
  0
LINE
  8
0
 62
     0
 10
100.382
 20
5.26274
 30
0.0
 11
100.382
 21
18.0633
 31
0.0
  0
LINE
  8
0
 62
     0
 10
100.382
 20
18.0633
 30
0.0
 11
99.5825
 21
18.0633
 31
0.0
  0
LINE
  8
0
 62
     0
 10
99.5825
 20
18.0633
 30
0.0
 11
99.5825
 21
18.6628
 31
0.0
  0
LINE
  8
0
 62
     0
 10
99.5825
 20
18.6628
 30
0.0
 11
85.5832
 21
18.6628
 31
0.0
  0
LINE
  8
0
 62
     0
 10
61.7707
 20
18.6628
 30
0.0
 11
61.7707
 21
18.0633
 31
0.0
  0
LINE
  8
0
 62
     0
 10
61.7707
 20
18.0633
 30
0.0
 11
60.9699
 21
18.0633
 31
0.0
  0
LINE
  8
0
 62
     0
 10
60.9699
 20
18.0633
 30
0.0
 11
60.9699
 21
5.26274
 31
0.0
  0
LINE
  8
0
 62
     0
 10
60.9699
 20
5.26274
 30
0.0
 11
61.7707
 21
5.26274
 31
0.0
  0
LINE
  8
0
 62
     0
 10
61.7707
 20
5.26274
 30
0.0
 11
61.7707
 21
4.6633
 31
0.0
  0
LINE
  8
0
 62
     0
 10
61.7707
 20
4.6633
 30
0.0
 11
75.77
 21
4.6633
 31
0.0
  0
LINE
  8
0
 62
     0
 10
75.77
 20
4.6633
 30
0.0
 11
75.77
 21
5.26274
 31
0.0
  0
LINE
  8
0
 62
     0
 10
75.77
 20
5.26274
 30
0.0
 11
76.5708
 21
5.26274
 31
0.0
  0
LINE
  8
0
 62
     0
 10
76.5708
 20
5.26274
 30
0.0
 11
76.5708
 21
18.0633
 31
0.0
  0
LINE
  8
0
 62
     0
 10
76.5708
 20
18.0633
 30
0.0
 11
75.77
 21
18.0633
 31
0.0
  0
LINE
  8
0
 62
     0
 10
75.77
 20
18.0633
 30
0.0
 11
75.77
 21
18.6628
 31
0.0
  0
LINE
  8
0
 62
     0
 10
75.77
 20
18.6628
 30
0.0
 11
61.7707
 21
18.6628
 31
0.0
  0
LINE
  8
0
 62
     0
 10
42.7207
 20
18.6628
 30
0.0
 11
42.7207
 21
18.0633
 31
0.0
  0
LINE
  8
0
 62
     0
 10
42.7207
 20
18.0633
 30
0.0
 11
41.9199
 21
18.0633
 31
0.0
  0
LINE
  8
0
 62
     0
 10
41.9199
 20
18.0633
 30
0.0
 11
41.9199
 21
5.26274
 31
0.0
  0
LINE
  8
0
 62
     0
 10
41.9199
 20
5.26274
 30
0.0
 11
42.7207
 21
5.26274
 31
0.0
  0
LINE
  8
0
 62
     0
 10
42.7207
 20
5.26274
 30
0.0
 11
42.7207
 21
4.6633
 31
0.0
  0
LINE
  8
0
 62
     0
 10
42.7207
 20
4.6633
 30
0.0
 11
56.72
 21
4.6633
 31
0.0
  0
LINE
  8
0
 62
     0
 10
56.72
 20
4.6633
 30
0.0
 11
56.72
 21
5.26274
 31
0.0
  0
LINE
  8
0
 62
     0
 10
56.72
 20
5.26274
 30
0.0
 11
57.5208
 21
5.26274
 31
0.0
  0
LINE
  8
0
 62
     0
 10
57.5208
 20
5.26274
 30
0.0
 11
57.5208
 21
18.0633
 31
0.0
  0
LINE
  8
0
 62
     0
 10
57.5208
 20
18.0633
 30
0.0
 11
56.72
 21
18.0633
 31
0.0
  0
LINE
  8
0
 62
     0
 10
56.72
 20
18.0633
 30
0.0
 11
56.72
 21
18.6628
 31
0.0
  0
LINE
  8
0
 62
     0
 10
56.72
 20
18.6628
 30
0.0
 11
42.7207
 21
18.6628
 31
0.0
  0
LINE
  8
0
 62
     0
 10
23.6706
 20
18.6628
 30
0.0
 11
23.6706
 21
18.0633
 31
0.0
  0
LINE
  8
0
 62
     0
 10
23.6706
 20
18.0633
 30
0.0
 11
22.8699
 21
18.0633
 31
0.0
  0
LINE
  8
0
 62
     0
 10
22.8699
 20
18.0633
 30
0.0
 11
22.8699
 21
5.26274
 31
0.0
  0
LINE
  8
0
 62
     0
 10
22.8699
 20
5.26274
 30
0.0
 11
23.6706
 21
5.26274
 31
0.0
  0
LINE
  8
0
 62
     0
 10
23.6706
 20
5.26274
 30
0.0
 11
23.6706
 21
4.6633
 31
0.0
  0
LINE
  8
0
 62
     0
 10
23.6706
 20
4.6633
 30
0.0
 11
37.67
 21
4.6633
 31
0.0
  0
LINE
  8
0
 62
     0
 10
37.67
 20
4.6633
 30
0.0
 11
37.67
 21
5.26274
 31
0.0
  0
LINE
  8
0
 62
     0
 10
37.67
 20
5.26274
 30
0.0
 11
38.4708
 21
5.26274
 31
0.0
  0
LINE
  8
0
 62
     0
 10
38.4708
 20
5.26274
 30
0.0
 11
38.4708
 21
18.0633
 31
0.0
  0
LINE
  8
0
 62
     0
 10
38.4708
 20
18.0633
 30
0.0
 11
37.67
 21
18.0633
 31
0.0
  0
LINE
  8
0
 62
     0
 10
37.67
 20
18.0633
 30
0.0
 11
37.67
 21
18.6628
 31
0.0
  0
LINE
  8
0
 62
     0
 10
37.67
 20
18.6628
 30
0.0
 11
23.6706
 21
18.6628
 31
0.0
  0
LINE
  8
0
 62
     0
 10
4.6192
 20
18.6628
 30
0.0
 11
4.6192
 21
18.0633
 31
0.0
  0
LINE
  8
0
 62
     0
 10
4.6192
 20
18.0633
 30
0.0
 11
3.81991
 21
18.0633
 31
0.0
  0
LINE
  8
0
 62
     0
 10
3.81991
 20
18.0633
 30
0.0
 11
3.81991
 21
5.26274
 31
0.0
  0
LINE
  8
0
 62
     0
 10
3.81991
 20
5.26274
 30
0.0
 11
4.6192
 21
5.26274
 31
0.0
  0
LINE
  8
0
 62
     0
 10
4.6192
 20
5.26274
 30
0.0
 11
4.6192
 21
4.6633
 31
0.0
  0
LINE
  8
0
 62
     0
 10
4.6192
 20
4.6633
 30
0.0
 11
18.6201
 21
4.6633
 31
0.0
  0
LINE
  8
0
 62
     0
 10
18.6201
 20
4.6633
 30
0.0
 11
18.6201
 21
5.26274
 31
0.0
  0
LINE
  8
0
 62
     0
 10
18.6201
 20
5.26274
 30
0.0
 11
19.4207
 21
5.26274
 31
0.0
  0
LINE
  8
0
 62
     0
 10
19.4207
 20
5.26274
 30
0.0
 11
19.4207
 21
18.0633
 31
0.0
  0
LINE
  8
0
 62
     0
 10
19.4207
 20
18.0633
 30
0.0
 11
18.6201
 21
18.0633
 31
0.0
  0
LINE
  8
0
 62
     0
 10
18.6201
 20
18.0633
 30
0.0
 11
18.6201
 21
18.6628
 31
0.0
  0
LINE
  8
0
 62
     0
 10
18.6201
 20
18.6628
 30
0.0
 11
4.6192
 21
18.6628
 31
0.0
  0
LINE
  8
0
 62
     0
 10
304.658
 20
37.7127
 30
0.0
 11
304.658
 21
37.1133
 31
0.0
  0
LINE
  8
0
 62
     0
 10
304.658
 20
37.1133
 30
0.0
 11
303.857
 21
37.1133
 31
0.0
  0
LINE
  8
0
 62
     0
 10
303.857
 20
37.1133
 30
0.0
 11
303.857
 21
24.3127
 31
0.0
  0
LINE
  8
0
 62
     0
 10
303.857
 20
24.3127
 30
0.0
 11
304.658
 21
24.3127
 31
0.0
  0
LINE
  8
0
 62
     0
 10
304.658
 20
24.3127
 30
0.0
 11
304.658
 21
23.7133
 31
0.0
  0
LINE
  8
0
 62
     0
 10
304.658
 20
23.7133
 30
0.0
 11
318.657
 21
23.7133
 31
0.0
  0
LINE
  8
0
 62
     0
 10
318.657
 20
23.7133
 30
0.0
 11
318.657
 21
24.3127
 31
0.0
  0
LINE
  8
0
 62
     0
 10
318.657
 20
24.3127
 30
0.0
 11
319.457
 21
24.3127
 31
0.0
  0
LINE
  8
0
 62
     0
 10
319.457
 20
24.3127
 30
0.0
 11
319.457
 21
37.1133
 31
0.0
  0
LINE
  8
0
 62
     0
 10
319.457
 20
37.1133
 30
0.0
 11
318.657
 21
37.1133
 31
0.0
  0
LINE
  8
0
 62
     0
 10
318.657
 20
37.1133
 30
0.0
 11
318.657
 21
37.7127
 31
0.0
  0
LINE
  8
0
 62
     0
 10
318.657
 20
37.7127
 30
0.0
 11
304.658
 21
37.7127
 31
0.0
  0
LINE
  8
0
 62
     0
 10
285.608
 20
37.7127
 30
0.0
 11
285.608
 21
37.1133
 31
0.0
  0
LINE
  8
0
 62
     0
 10
285.608
 20
37.1133
 30
0.0
 11
284.807
 21
37.1133
 31
0.0
  0
LINE
  8
0
 62
     0
 10
284.807
 20
37.1133
 30
0.0
 11
284.807
 21
24.3127
 31
0.0
  0
LINE
  8
0
 62
     0
 10
284.807
 20
24.3127
 30
0.0
 11
285.608
 21
24.3127
 31
0.0
  0
LINE
  8
0
 62
     0
 10
285.608
 20
24.3127
 30
0.0
 11
285.608
 21
23.7133
 31
0.0
  0
LINE
  8
0
 62
     0
 10
285.608
 20
23.7133
 30
0.0
 11
299.607
 21
23.7133
 31
0.0
  0
LINE
  8
0
 62
     0
 10
299.607
 20
23.7133
 30
0.0
 11
299.607
 21
24.3127
 31
0.0
  0
LINE
  8
0
 62
     0
 10
299.607
 20
24.3127
 30
0.0
 11
300.407
 21
24.3127
 31
0.0
  0
LINE
  8
0
 62
     0
 10
300.407
 20
24.3127
 30
0.0
 11
300.407
 21
37.1133
 31
0.0
  0
LINE
  8
0
 62
     0
 10
300.407
 20
37.1133
 30
0.0
 11
299.607
 21
37.1133
 31
0.0
  0
LINE
  8
0
 62
     0
 10
299.607
 20
37.1133
 30
0.0
 11
299.607
 21
37.7127
 31
0.0
  0
LINE
  8
0
 62
     0
 10
299.607
 20
37.7127
 30
0.0
 11
285.608
 21
37.7127
 31
0.0
  0
LINE
  8
0
 62
     0
 10
266.558
 20
37.7127
 30
0.0
 11
266.558
 21
37.1133
 31
0.0
  0
LINE
  8
0
 62
     0
 10
266.558
 20
37.1133
 30
0.0
 11
265.757
 21
37.1133
 31
0.0
  0
LINE
  8
0
 62
     0
 10
265.757
 20
37.1133
 30
0.0
 11
265.757
 21
24.3127
 31
0.0
  0
LINE
  8
0
 62
     0
 10
265.757
 20
24.3127
 30
0.0
 11
266.558
 21
24.3127
 31
0.0
  0
LINE
  8
0
 62
     0
 10
266.558
 20
24.3127
 30
0.0
 11
266.558
 21
23.7133
 31
0.0
  0
LINE
  8
0
 62
     0
 10
266.558
 20
23.7133
 30
0.0
 11
280.557
 21
23.7133
 31
0.0
  0
LINE
  8
0
 62
     0
 10
280.557
 20
23.7133
 30
0.0
 11
280.557
 21
24.3127
 31
0.0
  0
LINE
  8
0
 62
     0
 10
280.557
 20
24.3127
 30
0.0
 11
281.357
 21
24.3127
 31
0.0
  0
LINE
  8
0
 62
     0
 10
281.357
 20
24.3127
 30
0.0
 11
281.357
 21
37.1133
 31
0.0
  0
LINE
  8
0
 62
     0
 10
281.357
 20
37.1133
 30
0.0
 11
280.557
 21
37.1133
 31
0.0
  0
LINE
  8
0
 62
     0
 10
280.557
 20
37.1133
 30
0.0
 11
280.557
 21
37.7127
 31
0.0
  0
LINE
  8
0
 62
     0
 10
280.557
 20
37.7127
 30
0.0
 11
266.558
 21
37.7127
 31
0.0
  0
LINE
  8
0
 62
     0
 10
247.508
 20
37.7127
 30
0.0
 11
247.508
 21
37.1133
 31
0.0
  0
LINE
  8
0
 62
     0
 10
247.508
 20
37.1133
 30
0.0
 11
246.707
 21
37.1133
 31
0.0
  0
LINE
  8
0
 62
     0
 10
246.707
 20
37.1133
 30
0.0
 11
246.707
 21
24.3127
 31
0.0
  0
LINE
  8
0
 62
     0
 10
246.707
 20
24.3127
 30
0.0
 11
247.508
 21
24.3127
 31
0.0
  0
LINE
  8
0
 62
     0
 10
247.508
 20
24.3127
 30
0.0
 11
247.508
 21
23.7133
 31
0.0
  0
LINE
  8
0
 62
     0
 10
247.508
 20
23.7133
 30
0.0
 11
261.507
 21
23.7133
 31
0.0
  0
LINE
  8
0
 62
     0
 10
261.507
 20
23.7133
 30
0.0
 11
261.507
 21
24.3127
 31
0.0
  0
LINE
  8
0
 62
     0
 10
261.507
 20
24.3127
 30
0.0
 11
262.307
 21
24.3127
 31
0.0
  0
LINE
  8
0
 62
     0
 10
262.307
 20
24.3127
 30
0.0
 11
262.307
 21
37.1133
 31
0.0
  0
LINE
  8
0
 62
     0
 10
262.307
 20
37.1133
 30
0.0
 11
261.507
 21
37.1133
 31
0.0
  0
LINE
  8
0
 62
     0
 10
261.507
 20
37.1133
 30
0.0
 11
261.507
 21
37.7127
 31
0.0
  0
LINE
  8
0
 62
     0
 10
261.507
 20
37.7127
 30
0.0
 11
247.508
 21
37.7127
 31
0.0
  0
LINE
  8
0
 62
     0
 10
228.458
 20
37.7127
 30
0.0
 11
228.458
 21
37.1133
 31
0.0
  0
LINE
  8
0
 62
     0
 10
228.458
 20
37.1133
 30
0.0
 11
227.657
 21
37.1133
 31
0.0
  0
LINE
  8
0
 62
     0
 10
227.657
 20
37.1133
 30
0.0
 11
227.657
 21
24.3127
 31
0.0
  0
LINE
  8
0
 62
     0
 10
227.657
 20
24.3127
 30
0.0
 11
228.458
 21
24.3127
 31
0.0
  0
LINE
  8
0
 62
     0
 10
228.458
 20
24.3127
 30
0.0
 11
228.458
 21
23.7133
 31
0.0
  0
LINE
  8
0
 62
     0
 10
228.458
 20
23.7133
 30
0.0
 11
242.457
 21
23.7133
 31
0.0
  0
LINE
  8
0
 62
     0
 10
242.457
 20
23.7133
 30
0.0
 11
242.457
 21
24.3127
 31
0.0
  0
LINE
  8
0
 62
     0
 10
242.457
 20
24.3127
 30
0.0
 11
243.257
 21
24.3127
 31
0.0
  0
LINE
  8
0
 62
     0
 10
243.257
 20
24.3127
 30
0.0
 11
243.257
 21
37.1133
 31
0.0
  0
LINE
  8
0
 62
     0
 10
243.257
 20
37.1133
 30
0.0
 11
242.457
 21
37.1133
 31
0.0
  0
LINE
  8
0
 62
     0
 10
242.457
 20
37.1133
 30
0.0
 11
242.457
 21
37.7127
 31
0.0
  0
LINE
  8
0
 62
     0
 10
242.457
 20
37.7127
 30
0.0
 11
228.458
 21
37.7127
 31
0.0
  0
LINE
  8
0
 62
     0
 10
209.408
 20
37.7127
 30
0.0
 11
209.408
 21
37.1133
 31
0.0
  0
LINE
  8
0
 62
     0
 10
209.408
 20
37.1133
 30
0.0
 11
208.607
 21
37.1133
 31
0.0
  0
LINE
  8
0
 62
     0
 10
208.607
 20
37.1133
 30
0.0
 11
208.607
 21
24.3127
 31
0.0
  0
LINE
  8
0
 62
     0
 10
208.607
 20
24.3127
 30
0.0
 11
209.408
 21
24.3127
 31
0.0
  0
LINE
  8
0
 62
     0
 10
209.408
 20
24.3127
 30
0.0
 11
209.408
 21
23.7133
 31
0.0
  0
LINE
  8
0
 62
     0
 10
209.408
 20
23.7133
 30
0.0
 11
223.407
 21
23.7133
 31
0.0
  0
LINE
  8
0
 62
     0
 10
223.407
 20
23.7133
 30
0.0
 11
223.407
 21
24.3127
 31
0.0
  0
LINE
  8
0
 62
     0
 10
223.407
 20
24.3127
 30
0.0
 11
224.207
 21
24.3127
 31
0.0
  0
LINE
  8
0
 62
     0
 10
224.207
 20
24.3127
 30
0.0
 11
224.207
 21
37.1133
 31
0.0
  0
LINE
  8
0
 62
     0
 10
224.207
 20
37.1133
 30
0.0
 11
223.407
 21
37.1133
 31
0.0
  0
LINE
  8
0
 62
     0
 10
223.407
 20
37.1133
 30
0.0
 11
223.407
 21
37.7127
 31
0.0
  0
LINE
  8
0
 62
     0
 10
223.407
 20
37.7127
 30
0.0
 11
209.408
 21
37.7127
 31
0.0
  0
LINE
  8
0
 62
     0
 10
190.358
 20
37.7127
 30
0.0
 11
190.358
 21
37.1133
 31
0.0
  0
LINE
  8
0
 62
     0
 10
190.358
 20
37.1133
 30
0.0
 11
189.557
 21
37.1133
 31
0.0
  0
LINE
  8
0
 62
     0
 10
189.557
 20
37.1133
 30
0.0
 11
189.557
 21
24.3127
 31
0.0
  0
LINE
  8
0
 62
     0
 10
189.557
 20
24.3127
 30
0.0
 11
190.358
 21
24.3127
 31
0.0
  0
LINE
  8
0
 62
     0
 10
190.358
 20
24.3127
 30
0.0
 11
190.358
 21
23.7133
 31
0.0
  0
LINE
  8
0
 62
     0
 10
190.358
 20
23.7133
 30
0.0
 11
204.357
 21
23.7133
 31
0.0
  0
LINE
  8
0
 62
     0
 10
204.357
 20
23.7133
 30
0.0
 11
204.357
 21
24.3127
 31
0.0
  0
LINE
  8
0
 62
     0
 10
204.357
 20
24.3127
 30
0.0
 11
205.157
 21
24.3127
 31
0.0
  0
LINE
  8
0
 62
     0
 10
205.157
 20
24.3127
 30
0.0
 11
205.157
 21
37.1133
 31
0.0
  0
LINE
  8
0
 62
     0
 10
205.157
 20
37.1133
 30
0.0
 11
204.357
 21
37.1133
 31
0.0
  0
LINE
  8
0
 62
     0
 10
204.357
 20
37.1133
 30
0.0
 11
204.357
 21
37.7127
 31
0.0
  0
LINE
  8
0
 62
     0
 10
204.357
 20
37.7127
 30
0.0
 11
190.358
 21
37.7127
 31
0.0
  0
LINE
  8
0
 62
     0
 10
171.308
 20
37.7127
 30
0.0
 11
171.308
 21
37.1133
 31
0.0
  0
LINE
  8
0
 62
     0
 10
171.308
 20
37.1133
 30
0.0
 11
170.507
 21
37.1133
 31
0.0
  0
LINE
  8
0
 62
     0
 10
170.507
 20
37.1133
 30
0.0
 11
170.507
 21
24.3127
 31
0.0
  0
LINE
  8
0
 62
     0
 10
170.507
 20
24.3127
 30
0.0
 11
171.308
 21
24.3127
 31
0.0
  0
LINE
  8
0
 62
     0
 10
171.308
 20
24.3127
 30
0.0
 11
171.308
 21
23.7133
 31
0.0
  0
LINE
  8
0
 62
     0
 10
171.308
 20
23.7133
 30
0.0
 11
185.307
 21
23.7133
 31
0.0
  0
LINE
  8
0
 62
     0
 10
185.307
 20
23.7133
 30
0.0
 11
185.307
 21
24.3127
 31
0.0
  0
LINE
  8
0
 62
     0
 10
185.307
 20
24.3127
 30
0.0
 11
186.107
 21
24.3127
 31
0.0
  0
LINE
  8
0
 62
     0
 10
186.107
 20
24.3127
 30
0.0
 11
186.107
 21
37.1133
 31
0.0
  0
LINE
  8
0
 62
     0
 10
186.107
 20
37.1133
 30
0.0
 11
185.307
 21
37.1133
 31
0.0
  0
LINE
  8
0
 62
     0
 10
185.307
 20
37.1133
 30
0.0
 11
185.307
 21
37.7127
 31
0.0
  0
LINE
  8
0
 62
     0
 10
185.307
 20
37.7127
 30
0.0
 11
171.308
 21
37.7127
 31
0.0
  0
LINE
  8
0
 62
     0
 10
152.258
 20
37.7127
 30
0.0
 11
152.258
 21
37.1133
 31
0.0
  0
LINE
  8
0
 62
     0
 10
152.258
 20
37.1133
 30
0.0
 11
151.457
 21
37.1133
 31
0.0
  0
LINE
  8
0
 62
     0
 10
151.457
 20
37.1133
 30
0.0
 11
151.457
 21
24.3127
 31
0.0
  0
LINE
  8
0
 62
     0
 10
151.457
 20
24.3127
 30
0.0
 11
152.258
 21
24.3127
 31
0.0
  0
LINE
  8
0
 62
     0
 10
152.258
 20
24.3127
 30
0.0
 11
152.258
 21
23.7133
 31
0.0
  0
LINE
  8
0
 62
     0
 10
152.258
 20
23.7133
 30
0.0
 11
166.257
 21
23.7133
 31
0.0
  0
LINE
  8
0
 62
     0
 10
166.257
 20
23.7133
 30
0.0
 11
166.257
 21
24.3127
 31
0.0
  0
LINE
  8
0
 62
     0
 10
166.257
 20
24.3127
 30
0.0
 11
167.057
 21
24.3127
 31
0.0
  0
LINE
  8
0
 62
     0
 10
167.057
 20
24.3127
 30
0.0
 11
167.057
 21
37.1133
 31
0.0
  0
LINE
  8
0
 62
     0
 10
167.057
 20
37.1133
 30
0.0
 11
166.257
 21
37.1133
 31
0.0
  0
LINE
  8
0
 62
     0
 10
166.257
 20
37.1133
 30
0.0
 11
166.257
 21
37.7127
 31
0.0
  0
LINE
  8
0
 62
     0
 10
166.257
 20
37.7127
 30
0.0
 11
152.258
 21
37.7127
 31
0.0
  0
LINE
  8
0
 62
     0
 10
133.208
 20
37.7127
 30
0.0
 11
133.208
 21
37.1133
 31
0.0
  0
LINE
  8
0
 62
     0
 10
133.208
 20
37.1133
 30
0.0
 11
132.407
 21
37.1133
 31
0.0
  0
LINE
  8
0
 62
     0
 10
132.407
 20
37.1133
 30
0.0
 11
132.407
 21
24.3127
 31
0.0
  0
LINE
  8
0
 62
     0
 10
132.407
 20
24.3127
 30
0.0
 11
133.208
 21
24.3127
 31
0.0
  0
LINE
  8
0
 62
     0
 10
133.208
 20
24.3127
 30
0.0
 11
133.208
 21
23.7133
 31
0.0
  0
LINE
  8
0
 62
     0
 10
133.208
 20
23.7133
 30
0.0
 11
147.207
 21
23.7133
 31
0.0
  0
LINE
  8
0
 62
     0
 10
147.207
 20
23.7133
 30
0.0
 11
147.207
 21
24.3127
 31
0.0
  0
LINE
  8
0
 62
     0
 10
147.207
 20
24.3127
 30
0.0
 11
148.007
 21
24.3127
 31
0.0
  0
LINE
  8
0
 62
     0
 10
148.007
 20
24.3127
 30
0.0
 11
148.007
 21
37.1133
 31
0.0
  0
LINE
  8
0
 62
     0
 10
148.007
 20
37.1133
 30
0.0
 11
147.207
 21
37.1133
 31
0.0
  0
LINE
  8
0
 62
     0
 10
147.207
 20
37.1133
 30
0.0
 11
147.207
 21
37.7127
 31
0.0
  0
LINE
  8
0
 62
     0
 10
147.207
 20
37.7127
 30
0.0
 11
133.208
 21
37.7127
 31
0.0
  0
LINE
  8
0
 62
     0
 10
114.158
 20
37.7127
 30
0.0
 11
114.158
 21
37.1133
 31
0.0
  0
LINE
  8
0
 62
     0
 10
114.158
 20
37.1133
 30
0.0
 11
113.357
 21
37.1133
 31
0.0
  0
LINE
  8
0
 62
     0
 10
113.357
 20
37.1133
 30
0.0
 11
113.357
 21
24.3127
 31
0.0
  0
LINE
  8
0
 62
     0
 10
113.357
 20
24.3127
 30
0.0
 11
114.158
 21
24.3127
 31
0.0
  0
LINE
  8
0
 62
     0
 10
114.158
 20
24.3127
 30
0.0
 11
114.158
 21
23.7133
 31
0.0
  0
LINE
  8
0
 62
     0
 10
114.158
 20
23.7133
 30
0.0
 11
128.157
 21
23.7133
 31
0.0
  0
LINE
  8
0
 62
     0
 10
128.157
 20
23.7133
 30
0.0
 11
128.157
 21
24.3127
 31
0.0
  0
LINE
  8
0
 62
     0
 10
128.157
 20
24.3127
 30
0.0
 11
128.957
 21
24.3127
 31
0.0
  0
LINE
  8
0
 62
     0
 10
128.957
 20
24.3127
 30
0.0
 11
128.957
 21
37.1133
 31
0.0
  0
LINE
  8
0
 62
     0
 10
128.957
 20
37.1133
 30
0.0
 11
128.157
 21
37.1133
 31
0.0
  0
LINE
  8
0
 62
     0
 10
128.157
 20
37.1133
 30
0.0
 11
128.157
 21
37.7127
 31
0.0
  0
LINE
  8
0
 62
     0
 10
128.157
 20
37.7127
 30
0.0
 11
114.158
 21
37.7127
 31
0.0
  0
LINE
  8
0
 62
     0
 10
90.3457
 20
37.7127
 30
0.0
 11
90.3457
 21
37.1133
 31
0.0
  0
LINE
  8
0
 62
     0
 10
90.3457
 20
37.1133
 30
0.0
 11
89.5449
 21
37.1133
 31
0.0
  0
LINE
  8
0
 62
     0
 10
89.5449
 20
37.1133
 30
0.0
 11
89.5449
 21
24.3127
 31
0.0
  0
LINE
  8
0
 62
     0
 10
89.5449
 20
24.3127
 30
0.0
 11
90.3457
 21
24.3127
 31
0.0
  0
LINE
  8
0
 62
     0
 10
90.3457
 20
24.3127
 30
0.0
 11
90.3457
 21
23.7133
 31
0.0
  0
LINE
  8
0
 62
     0
 10
90.3457
 20
23.7133
 30
0.0
 11
104.345
 21
23.7133
 31
0.0
  0
LINE
  8
0
 62
     0
 10
104.345
 20
23.7133
 30
0.0
 11
104.345
 21
24.3127
 31
0.0
  0
LINE
  8
0
 62
     0
 10
104.345
 20
24.3127
 30
0.0
 11
105.146
 21
24.3127
 31
0.0
  0
LINE
  8
0
 62
     0
 10
105.146
 20
24.3127
 30
0.0
 11
105.146
 21
37.1133
 31
0.0
  0
LINE
  8
0
 62
     0
 10
105.146
 20
37.1133
 30
0.0
 11
104.345
 21
37.1133
 31
0.0
  0
LINE
  8
0
 62
     0
 10
104.345
 20
37.1133
 30
0.0
 11
104.345
 21
37.7127
 31
0.0
  0
LINE
  8
0
 62
     0
 10
104.345
 20
37.7127
 30
0.0
 11
90.3457
 21
37.7127
 31
0.0
  0
LINE
  8
0
 62
     0
 10
61.7707
 20
37.7127
 30
0.0
 11
61.7707
 21
37.1133
 31
0.0
  0
LINE
  8
0
 62
     0
 10
61.7707
 20
37.1133
 30
0.0
 11
60.9699
 21
37.1133
 31
0.0
  0
LINE
  8
0
 62
     0
 10
60.9699
 20
37.1133
 30
0.0
 11
60.9699
 21
24.3127
 31
0.0
  0
LINE
  8
0
 62
     0
 10
60.9699
 20
24.3127
 30
0.0
 11
61.7707
 21
24.3127
 31
0.0
  0
LINE
  8
0
 62
     0
 10
61.7707
 20
24.3127
 30
0.0
 11
61.7707
 21
23.7133
 31
0.0
  0
LINE
  8
0
 62
     0
 10
61.7707
 20
23.7133
 30
0.0
 11
75.77
 21
23.7133
 31
0.0
  0
LINE
  8
0
 62
     0
 10
75.77
 20
23.7133
 30
0.0
 11
75.77
 21
24.3127
 31
0.0
  0
LINE
  8
0
 62
     0
 10
75.77
 20
24.3127
 30
0.0
 11
76.5708
 21
24.3127
 31
0.0
  0
LINE
  8
0
 62
     0
 10
76.5708
 20
24.3127
 30
0.0
 11
76.5708
 21
37.1133
 31
0.0
  0
LINE
  8
0
 62
     0
 10
76.5708
 20
37.1133
 30
0.0
 11
75.77
 21
37.1133
 31
0.0
  0
LINE
  8
0
 62
     0
 10
75.77
 20
37.1133
 30
0.0
 11
75.77
 21
37.7127
 31
0.0
  0
LINE
  8
0
 62
     0
 10
75.77
 20
37.7127
 30
0.0
 11
61.7707
 21
37.7127
 31
0.0
  0
LINE
  8
0
 62
     0
 10
42.7207
 20
37.7127
 30
0.0
 11
42.7207
 21
37.1133
 31
0.0
  0
LINE
  8
0
 62
     0
 10
42.7207
 20
37.1133
 30
0.0
 11
41.9199
 21
37.1133
 31
0.0
  0
LINE
  8
0
 62
     0
 10
41.9199
 20
37.1133
 30
0.0
 11
41.9199
 21
24.3127
 31
0.0
  0
LINE
  8
0
 62
     0
 10
41.9199
 20
24.3127
 30
0.0
 11
42.7207
 21
24.3127
 31
0.0
  0
LINE
  8
0
 62
     0
 10
42.7207
 20
24.3127
 30
0.0
 11
42.7207
 21
23.7133
 31
0.0
  0
LINE
  8
0
 62
     0
 10
42.7207
 20
23.7133
 30
0.0
 11
56.72
 21
23.7133
 31
0.0
  0
LINE
  8
0
 62
     0
 10
56.72
 20
23.7133
 30
0.0
 11
56.72
 21
24.3127
 31
0.0
  0
LINE
  8
0
 62
     0
 10
56.72
 20
24.3127
 30
0.0
 11
57.5208
 21
24.3127
 31
0.0
  0
LINE
  8
0
 62
     0
 10
57.5208
 20
24.3127
 30
0.0
 11
57.5208
 21
37.1133
 31
0.0
  0
LINE
  8
0
 62
     0
 10
57.5208
 20
37.1133
 30
0.0
 11
56.72
 21
37.1133
 31
0.0
  0
LINE
  8
0
 62
     0
 10
56.72
 20
37.1133
 30
0.0
 11
56.72
 21
37.7127
 31
0.0
  0
LINE
  8
0
 62
     0
 10
56.72
 20
37.7127
 30
0.0
 11
42.7207
 21
37.7127
 31
0.0
  0
LINE
  8
0
 62
     0
 10
23.6706
 20
37.7127
 30
0.0
 11
23.6706
 21
37.1133
 31
0.0
  0
LINE
  8
0
 62
     0
 10
23.6706
 20
37.1133
 30
0.0
 11
22.8699
 21
37.1133
 31
0.0
  0
LINE
  8
0
 62
     0
 10
22.8699
 20
37.1133
 30
0.0
 11
22.8699
 21
24.3127
 31
0.0
  0
LINE
  8
0
 62
     0
 10
22.8699
 20
24.3127
 30
0.0
 11
23.6706
 21
24.3127
 31
0.0
  0
LINE
  8
0
 62
     0
 10
23.6706
 20
24.3127
 30
0.0
 11
23.6706
 21
23.7133
 31
0.0
  0
LINE
  8
0
 62
     0
 10
23.6706
 20
23.7133
 30
0.0
 11
37.67
 21
23.7133
 31
0.0
  0
LINE
  8
0
 62
     0
 10
37.67
 20
23.7133
 30
0.0
 11
37.67
 21
24.3127
 31
0.0
  0
LINE
  8
0
 62
     0
 10
37.67
 20
24.3127
 30
0.0
 11
38.4708
 21
24.3127
 31
0.0
  0
LINE
  8
0
 62
     0
 10
38.4708
 20
24.3127
 30
0.0
 11
38.4708
 21
37.1133
 31
0.0
  0
LINE
  8
0
 62
     0
 10
38.4708
 20
37.1133
 30
0.0
 11
37.67
 21
37.1133
 31
0.0
  0
LINE
  8
0
 62
     0
 10
37.67
 20
37.1133
 30
0.0
 11
37.67
 21
37.7127
 31
0.0
  0
LINE
  8
0
 62
     0
 10
37.67
 20
37.7127
 30
0.0
 11
23.6706
 21
37.7127
 31
0.0
  0
LINE
  8
0
 62
     0
 10
4.6192
 20
37.7127
 30
0.0
 11
4.6192
 21
37.1133
 31
0.0
  0
LINE
  8
0
 62
     0
 10
4.6192
 20
37.1133
 30
0.0
 11
3.81991
 21
37.1133
 31
0.0
  0
LINE
  8
0
 62
     0
 10
3.81991
 20
37.1133
 30
0.0
 11
3.81991
 21
24.3127
 31
0.0
  0
LINE
  8
0
 62
     0
 10
3.81991
 20
24.3127
 30
0.0
 11
4.6192
 21
24.3127
 31
0.0
  0
LINE
  8
0
 62
     0
 10
4.6192
 20
24.3127
 30
0.0
 11
4.6192
 21
23.7133
 31
0.0
  0
LINE
  8
0
 62
     0
 10
4.6192
 20
23.7133
 30
0.0
 11
18.6201
 21
23.7133
 31
0.0
  0
LINE
  8
0
 62
     0
 10
18.6201
 20
23.7133
 30
0.0
 11
18.6201
 21
24.3127
 31
0.0
  0
LINE
  8
0
 62
     0
 10
18.6201
 20
24.3127
 30
0.0
 11
19.4207
 21
24.3127
 31
0.0
  0
LINE
  8
0
 62
     0
 10
19.4207
 20
24.3127
 30
0.0
 11
19.4207
 21
37.1133
 31
0.0
  0
LINE
  8
0
 62
     0
 10
19.4207
 20
37.1133
 30
0.0
 11
18.6201
 21
37.1133
 31
0.0
  0
LINE
  8
0
 62
     0
 10
18.6201
 20
37.1133
 30
0.0
 11
18.6201
 21
37.7127
 31
0.0
  0
LINE
  8
0
 62
     0
 10
18.6201
 20
37.7127
 30
0.0
 11
4.6192
 21
37.7127
 31
0.0
  0
LINE
  8
0
 62
     0
 10
302.277
 20
56.7626
 30
0.0
 11
302.277
 21
56.1633
 31
0.0
  0
LINE
  8
0
 62
     0
 10
302.277
 20
56.1633
 30
0.0
 11
301.476
 21
56.1633
 31
0.0
  0
LINE
  8
0
 62
     0
 10
301.476
 20
56.1633
 30
0.0
 11
301.476
 21
43.3627
 31
0.0
  0
LINE
  8
0
 62
     0
 10
301.476
 20
43.3627
 30
0.0
 11
302.277
 21
43.3627
 31
0.0
  0
LINE
  8
0
 62
     0
 10
302.277
 20
43.3627
 30
0.0
 11
302.277
 21
42.7634
 31
0.0
  0
LINE
  8
0
 62
     0
 10
302.277
 20
42.7634
 30
0.0
 11
316.276
 21
42.7634
 31
0.0
  0
LINE
  8
0
 62
     0
 10
316.276
 20
42.7634
 30
0.0
 11
316.276
 21
43.3627
 31
0.0
  0
LINE
  8
0
 62
     0
 10
316.276
 20
43.3627
 30
0.0
 11
317.077
 21
43.3627
 31
0.0
  0
LINE
  8
0
 62
     0
 10
317.077
 20
43.3627
 30
0.0
 11
317.077
 21
56.1633
 31
0.0
  0
LINE
  8
0
 62
     0
 10
317.077
 20
56.1633
 30
0.0
 11
316.276
 21
56.1633
 31
0.0
  0
LINE
  8
0
 62
     0
 10
316.276
 20
56.1633
 30
0.0
 11
316.276
 21
56.7626
 31
0.0
  0
LINE
  8
0
 62
     0
 10
316.276
 20
56.7626
 30
0.0
 11
302.277
 21
56.7626
 31
0.0
  0
LINE
  8
0
 62
     0
 10
280.846
 20
56.7626
 30
0.0
 11
280.846
 21
56.1633
 31
0.0
  0
LINE
  8
0
 62
     0
 10
280.846
 20
56.1633
 30
0.0
 11
280.045
 21
56.1633
 31
0.0
  0
LINE
  8
0
 62
     0
 10
280.045
 20
56.1633
 30
0.0
 11
280.045
 21
43.3627
 31
0.0
  0
LINE
  8
0
 62
     0
 10
280.045
 20
43.3627
 30
0.0
 11
280.846
 21
43.3627
 31
0.0
  0
LINE
  8
0
 62
     0
 10
280.846
 20
43.3627
 30
0.0
 11
280.846
 21
42.7634
 31
0.0
  0
LINE
  8
0
 62
     0
 10
280.846
 20
42.7634
 30
0.0
 11
294.845
 21
42.7634
 31
0.0
  0
LINE
  8
0
 62
     0
 10
294.845
 20
42.7634
 30
0.0
 11
294.845
 21
43.3627
 31
0.0
  0
LINE
  8
0
 62
     0
 10
294.845
 20
43.3627
 30
0.0
 11
295.646
 21
43.3627
 31
0.0
  0
LINE
  8
0
 62
     0
 10
295.646
 20
43.3627
 30
0.0
 11
295.646
 21
56.1633
 31
0.0
  0
LINE
  8
0
 62
     0
 10
295.646
 20
56.1633
 30
0.0
 11
294.845
 21
56.1633
 31
0.0
  0
LINE
  8
0
 62
     0
 10
294.845
 20
56.1633
 30
0.0
 11
294.845
 21
56.7626
 31
0.0
  0
LINE
  8
0
 62
     0
 10
294.845
 20
56.7626
 30
0.0
 11
280.846
 21
56.7626
 31
0.0
  0
LINE
  8
0
 62
     0
 10
261.796
 20
56.7626
 30
0.0
 11
261.796
 21
56.1633
 31
0.0
  0
LINE
  8
0
 62
     0
 10
261.796
 20
56.1633
 30
0.0
 11
260.995
 21
56.1633
 31
0.0
  0
LINE
  8
0
 62
     0
 10
260.995
 20
56.1633
 30
0.0
 11
260.995
 21
43.3627
 31
0.0
  0
LINE
  8
0
 62
     0
 10
260.995
 20
43.3627
 30
0.0
 11
261.796
 21
43.3627
 31
0.0
  0
LINE
  8
0
 62
     0
 10
261.796
 20
43.3627
 30
0.0
 11
261.796
 21
42.7634
 31
0.0
  0
LINE
  8
0
 62
     0
 10
261.796
 20
42.7634
 30
0.0
 11
275.795
 21
42.7634
 31
0.0
  0
LINE
  8
0
 62
     0
 10
275.795
 20
42.7634
 30
0.0
 11
275.795
 21
43.3627
 31
0.0
  0
LINE
  8
0
 62
     0
 10
275.795
 20
43.3627
 30
0.0
 11
276.596
 21
43.3627
 31
0.0
  0
LINE
  8
0
 62
     0
 10
276.596
 20
43.3627
 30
0.0
 11
276.596
 21
56.1633
 31
0.0
  0
LINE
  8
0
 62
     0
 10
276.596
 20
56.1633
 30
0.0
 11
275.795
 21
56.1633
 31
0.0
  0
LINE
  8
0
 62
     0
 10
275.795
 20
56.1633
 30
0.0
 11
275.795
 21
56.7626
 31
0.0
  0
LINE
  8
0
 62
     0
 10
275.795
 20
56.7626
 30
0.0
 11
261.796
 21
56.7626
 31
0.0
  0
LINE
  8
0
 62
     0
 10
242.746
 20
56.7626
 30
0.0
 11
242.746
 21
56.1633
 31
0.0
  0
LINE
  8
0
 62
     0
 10
242.746
 20
56.1633
 30
0.0
 11
241.945
 21
56.1633
 31
0.0
  0
LINE
  8
0
 62
     0
 10
241.945
 20
56.1633
 30
0.0
 11
241.945
 21
43.3627
 31
0.0
  0
LINE
  8
0
 62
     0
 10
241.945
 20
43.3627
 30
0.0
 11
242.746
 21
43.3627
 31
0.0
  0
LINE
  8
0
 62
     0
 10
242.746
 20
43.3627
 30
0.0
 11
242.746
 21
42.7634
 31
0.0
  0
LINE
  8
0
 62
     0
 10
242.746
 20
42.7634
 30
0.0
 11
256.745
 21
42.7634
 31
0.0
  0
LINE
  8
0
 62
     0
 10
256.745
 20
42.7634
 30
0.0
 11
256.745
 21
43.3627
 31
0.0
  0
LINE
  8
0
 62
     0
 10
256.745
 20
43.3627
 30
0.0
 11
257.546
 21
43.3627
 31
0.0
  0
LINE
  8
0
 62
     0
 10
257.546
 20
43.3627
 30
0.0
 11
257.546
 21
56.1633
 31
0.0
  0
LINE
  8
0
 62
     0
 10
257.546
 20
56.1633
 30
0.0
 11
256.745
 21
56.1633
 31
0.0
  0
LINE
  8
0
 62
     0
 10
256.745
 20
56.1633
 30
0.0
 11
256.745
 21
56.7626
 31
0.0
  0
LINE
  8
0
 62
     0
 10
256.745
 20
56.7626
 30
0.0
 11
242.746
 21
56.7626
 31
0.0
  0
LINE
  8
0
 62
     0
 10
223.696
 20
56.7626
 30
0.0
 11
223.696
 21
56.1633
 31
0.0
  0
LINE
  8
0
 62
     0
 10
223.696
 20
56.1633
 30
0.0
 11
222.895
 21
56.1633
 31
0.0
  0
LINE
  8
0
 62
     0
 10
222.895
 20
56.1633
 30
0.0
 11
222.895
 21
43.3627
 31
0.0
  0
LINE
  8
0
 62
     0
 10
222.895
 20
43.3627
 30
0.0
 11
223.696
 21
43.3627
 31
0.0
  0
LINE
  8
0
 62
     0
 10
223.696
 20
43.3627
 30
0.0
 11
223.696
 21
42.7634
 31
0.0
  0
LINE
  8
0
 62
     0
 10
223.696
 20
42.7634
 30
0.0
 11
237.695
 21
42.7634
 31
0.0
  0
LINE
  8
0
 62
     0
 10
237.695
 20
42.7634
 30
0.0
 11
237.695
 21
43.3627
 31
0.0
  0
LINE
  8
0
 62
     0
 10
237.695
 20
43.3627
 30
0.0
 11
238.496
 21
43.3627
 31
0.0
  0
LINE
  8
0
 62
     0
 10
238.496
 20
43.3627
 30
0.0
 11
238.496
 21
56.1633
 31
0.0
  0
LINE
  8
0
 62
     0
 10
238.496
 20
56.1633
 30
0.0
 11
237.695
 21
56.1633
 31
0.0
  0
LINE
  8
0
 62
     0
 10
237.695
 20
56.1633
 30
0.0
 11
237.695
 21
56.7626
 31
0.0
  0
LINE
  8
0
 62
     0
 10
237.695
 20
56.7626
 30
0.0
 11
223.696
 21
56.7626
 31
0.0
  0
LINE
  8
0
 62
     0
 10
204.646
 20
56.7626
 30
0.0
 11
204.646
 21
56.1633
 31
0.0
  0
LINE
  8
0
 62
     0
 10
204.646
 20
56.1633
 30
0.0
 11
203.845
 21
56.1633
 31
0.0
  0
LINE
  8
0
 62
     0
 10
203.845
 20
56.1633
 30
0.0
 11
203.845
 21
43.3627
 31
0.0
  0
LINE
  8
0
 62
     0
 10
203.845
 20
43.3627
 30
0.0
 11
204.646
 21
43.3627
 31
0.0
  0
LINE
  8
0
 62
     0
 10
204.646
 20
43.3627
 30
0.0
 11
204.646
 21
42.7634
 31
0.0
  0
LINE
  8
0
 62
     0
 10
204.646
 20
42.7634
 30
0.0
 11
218.645
 21
42.7634
 31
0.0
  0
LINE
  8
0
 62
     0
 10
218.645
 20
42.7634
 30
0.0
 11
218.645
 21
43.3627
 31
0.0
  0
LINE
  8
0
 62
     0
 10
218.645
 20
43.3627
 30
0.0
 11
219.446
 21
43.3627
 31
0.0
  0
LINE
  8
0
 62
     0
 10
219.446
 20
43.3627
 30
0.0
 11
219.446
 21
56.1633
 31
0.0
  0
LINE
  8
0
 62
     0
 10
219.446
 20
56.1633
 30
0.0
 11
218.645
 21
56.1633
 31
0.0
  0
LINE
  8
0
 62
     0
 10
218.645
 20
56.1633
 30
0.0
 11
218.645
 21
56.7626
 31
0.0
  0
LINE
  8
0
 62
     0
 10
218.645
 20
56.7626
 30
0.0
 11
204.646
 21
56.7626
 31
0.0
  0
LINE
  8
0
 62
     0
 10
185.596
 20
56.7626
 30
0.0
 11
185.596
 21
56.1633
 31
0.0
  0
LINE
  8
0
 62
     0
 10
185.596
 20
56.1633
 30
0.0
 11
184.795
 21
56.1633
 31
0.0
  0
LINE
  8
0
 62
     0
 10
184.795
 20
56.1633
 30
0.0
 11
184.795
 21
43.3627
 31
0.0
  0
LINE
  8
0
 62
     0
 10
184.795
 20
43.3627
 30
0.0
 11
185.596
 21
43.3627
 31
0.0
  0
LINE
  8
0
 62
     0
 10
185.596
 20
43.3627
 30
0.0
 11
185.596
 21
42.7634
 31
0.0
  0
LINE
  8
0
 62
     0
 10
185.596
 20
42.7634
 30
0.0
 11
199.595
 21
42.7634
 31
0.0
  0
LINE
  8
0
 62
     0
 10
199.595
 20
42.7634
 30
0.0
 11
199.595
 21
43.3627
 31
0.0
  0
LINE
  8
0
 62
     0
 10
199.595
 20
43.3627
 30
0.0
 11
200.396
 21
43.3627
 31
0.0
  0
LINE
  8
0
 62
     0
 10
200.396
 20
43.3627
 30
0.0
 11
200.396
 21
56.1633
 31
0.0
  0
LINE
  8
0
 62
     0
 10
200.396
 20
56.1633
 30
0.0
 11
199.595
 21
56.1633
 31
0.0
  0
LINE
  8
0
 62
     0
 10
199.595
 20
56.1633
 30
0.0
 11
199.595
 21
56.7626
 31
0.0
  0
LINE
  8
0
 62
     0
 10
199.595
 20
56.7626
 30
0.0
 11
185.596
 21
56.7626
 31
0.0
  0
LINE
  8
0
 62
     0
 10
166.546
 20
56.7626
 30
0.0
 11
166.546
 21
56.1633
 31
0.0
  0
LINE
  8
0
 62
     0
 10
166.546
 20
56.1633
 30
0.0
 11
165.745
 21
56.1633
 31
0.0
  0
LINE
  8
0
 62
     0
 10
165.745
 20
56.1633
 30
0.0
 11
165.745
 21
43.3627
 31
0.0
  0
LINE
  8
0
 62
     0
 10
165.745
 20
43.3627
 30
0.0
 11
166.546
 21
43.3627
 31
0.0
  0
LINE
  8
0
 62
     0
 10
166.546
 20
43.3627
 30
0.0
 11
166.546
 21
42.7634
 31
0.0
  0
LINE
  8
0
 62
     0
 10
166.546
 20
42.7634
 30
0.0
 11
180.545
 21
42.7634
 31
0.0
  0
LINE
  8
0
 62
     0
 10
180.545
 20
42.7634
 30
0.0
 11
180.545
 21
43.3627
 31
0.0
  0
LINE
  8
0
 62
     0
 10
180.545
 20
43.3627
 30
0.0
 11
181.346
 21
43.3627
 31
0.0
  0
LINE
  8
0
 62
     0
 10
181.346
 20
43.3627
 30
0.0
 11
181.346
 21
56.1633
 31
0.0
  0
LINE
  8
0
 62
     0
 10
181.346
 20
56.1633
 30
0.0
 11
180.545
 21
56.1633
 31
0.0
  0
LINE
  8
0
 62
     0
 10
180.545
 20
56.1633
 30
0.0
 11
180.545
 21
56.7626
 31
0.0
  0
LINE
  8
0
 62
     0
 10
180.545
 20
56.7626
 30
0.0
 11
166.546
 21
56.7626
 31
0.0
  0
LINE
  8
0
 62
     0
 10
147.496
 20
56.7626
 30
0.0
 11
147.496
 21
56.1633
 31
0.0
  0
LINE
  8
0
 62
     0
 10
147.496
 20
56.1633
 30
0.0
 11
146.695
 21
56.1633
 31
0.0
  0
LINE
  8
0
 62
     0
 10
146.695
 20
56.1633
 30
0.0
 11
146.695
 21
43.3627
 31
0.0
  0
LINE
  8
0
 62
     0
 10
146.695
 20
43.3627
 30
0.0
 11
147.496
 21
43.3627
 31
0.0
  0
LINE
  8
0
 62
     0
 10
147.496
 20
43.3627
 30
0.0
 11
147.496
 21
42.7634
 31
0.0
  0
LINE
  8
0
 62
     0
 10
147.496
 20
42.7634
 30
0.0
 11
161.495
 21
42.7634
 31
0.0
  0
LINE
  8
0
 62
     0
 10
161.495
 20
42.7634
 30
0.0
 11
161.495
 21
43.3627
 31
0.0
  0
LINE
  8
0
 62
     0
 10
161.495
 20
43.3627
 30
0.0
 11
162.296
 21
43.3627
 31
0.0
  0
LINE
  8
0
 62
     0
 10
162.296
 20
43.3627
 30
0.0
 11
162.296
 21
56.1633
 31
0.0
  0
LINE
  8
0
 62
     0
 10
162.296
 20
56.1633
 30
0.0
 11
161.495
 21
56.1633
 31
0.0
  0
LINE
  8
0
 62
     0
 10
161.495
 20
56.1633
 30
0.0
 11
161.495
 21
56.7626
 31
0.0
  0
LINE
  8
0
 62
     0
 10
161.495
 20
56.7626
 30
0.0
 11
147.496
 21
56.7626
 31
0.0
  0
LINE
  8
0
 62
     0
 10
128.446
 20
56.7626
 30
0.0
 11
128.446
 21
56.1633
 31
0.0
  0
LINE
  8
0
 62
     0
 10
128.446
 20
56.1633
 30
0.0
 11
127.645
 21
56.1633
 31
0.0
  0
LINE
  8
0
 62
     0
 10
127.645
 20
56.1633
 30
0.0
 11
127.645
 21
43.3627
 31
0.0
  0
LINE
  8
0
 62
     0
 10
127.645
 20
43.3627
 30
0.0
 11
128.446
 21
43.3627
 31
0.0
  0
LINE
  8
0
 62
     0
 10
128.446
 20
43.3627
 30
0.0
 11
128.446
 21
42.7634
 31
0.0
  0
LINE
  8
0
 62
     0
 10
128.446
 20
42.7634
 30
0.0
 11
142.445
 21
42.7634
 31
0.0
  0
LINE
  8
0
 62
     0
 10
142.445
 20
42.7634
 30
0.0
 11
142.445
 21
43.3627
 31
0.0
  0
LINE
  8
0
 62
     0
 10
142.445
 20
43.3627
 30
0.0
 11
143.246
 21
43.3627
 31
0.0
  0
LINE
  8
0
 62
     0
 10
143.246
 20
43.3627
 30
0.0
 11
143.246
 21
56.1633
 31
0.0
  0
LINE
  8
0
 62
     0
 10
143.246
 20
56.1633
 30
0.0
 11
142.445
 21
56.1633
 31
0.0
  0
LINE
  8
0
 62
     0
 10
142.445
 20
56.1633
 30
0.0
 11
142.445
 21
56.7626
 31
0.0
  0
LINE
  8
0
 62
     0
 10
142.445
 20
56.7626
 30
0.0
 11
128.446
 21
56.7626
 31
0.0
  0
LINE
  8
0
 62
     0
 10
109.396
 20
56.7626
 30
0.0
 11
109.396
 21
56.1633
 31
0.0
  0
LINE
  8
0
 62
     0
 10
109.396
 20
56.1633
 30
0.0
 11
108.595
 21
56.1633
 31
0.0
  0
LINE
  8
0
 62
     0
 10
108.595
 20
56.1633
 30
0.0
 11
108.595
 21
43.3627
 31
0.0
  0
LINE
  8
0
 62
     0
 10
108.595
 20
43.3627
 30
0.0
 11
109.396
 21
43.3627
 31
0.0
  0
LINE
  8
0
 62
     0
 10
109.396
 20
43.3627
 30
0.0
 11
109.396
 21
42.7634
 31
0.0
  0
LINE
  8
0
 62
     0
 10
109.396
 20
42.7634
 30
0.0
 11
123.395
 21
42.7634
 31
0.0
  0
LINE
  8
0
 62
     0
 10
123.395
 20
42.7634
 30
0.0
 11
123.395
 21
43.3627
 31
0.0
  0
LINE
  8
0
 62
     0
 10
123.395
 20
43.3627
 30
0.0
 11
124.196
 21
43.3627
 31
0.0
  0
LINE
  8
0
 62
     0
 10
124.196
 20
43.3627
 30
0.0
 11
124.196
 21
56.1633
 31
0.0
  0
LINE
  8
0
 62
     0
 10
124.196
 20
56.1633
 30
0.0
 11
123.395
 21
56.1633
 31
0.0
  0
LINE
  8
0
 62
     0
 10
123.395
 20
56.1633
 30
0.0
 11
123.395
 21
56.7626
 31
0.0
  0
LINE
  8
0
 62
     0
 10
123.395
 20
56.7626
 30
0.0
 11
109.396
 21
56.7626
 31
0.0
  0
LINE
  8
0
 62
     0
 10
87.963
 20
56.7626
 30
0.0
 11
87.963
 21
56.1633
 31
0.0
  0
LINE
  8
0
 62
     0
 10
87.963
 20
56.1633
 30
0.0
 11
87.1636
 21
56.1633
 31
0.0
  0
LINE
  8
0
 62
     0
 10
87.1636
 20
56.1633
 30
0.0
 11
87.1636
 21
43.3627
 31
0.0
  0
LINE
  8
0
 62
     0
 10
87.1636
 20
43.3627
 30
0.0
 11
87.963
 21
43.3627
 31
0.0
  0
LINE
  8
0
 62
     0
 10
87.963
 20
43.3627
 30
0.0
 11
87.963
 21
42.7634
 31
0.0
  0
LINE
  8
0
 62
     0
 10
87.963
 20
42.7634
 30
0.0
 11
101.964
 21
42.7634
 31
0.0
  0
LINE
  8
0
 62
     0
 10
101.964
 20
42.7634
 30
0.0
 11
101.964
 21
43.3627
 31
0.0
  0
LINE
  8
0
 62
     0
 10
101.964
 20
43.3627
 30
0.0
 11
102.763
 21
43.3627
 31
0.0
  0
LINE
  8
0
 62
     0
 10
102.763
 20
43.3627
 30
0.0
 11
102.763
 21
56.1633
 31
0.0
  0
LINE
  8
0
 62
     0
 10
102.763
 20
56.1633
 30
0.0
 11
101.964
 21
56.1633
 31
0.0
  0
LINE
  8
0
 62
     0
 10
101.964
 20
56.1633
 30
0.0
 11
101.964
 21
56.7626
 31
0.0
  0
LINE
  8
0
 62
     0
 10
101.964
 20
56.7626
 30
0.0
 11
87.963
 21
56.7626
 31
0.0
  0
LINE
  8
0
 62
     0
 10
61.7707
 20
56.7626
 30
0.0
 11
61.7707
 21
56.1633
 31
0.0
  0
LINE
  8
0
 62
     0
 10
61.7707
 20
56.1633
 30
0.0
 11
60.9699
 21
56.1633
 31
0.0
  0
LINE
  8
0
 62
     0
 10
60.9699
 20
56.1633
 30
0.0
 11
60.9699
 21
43.3627
 31
0.0
  0
LINE
  8
0
 62
     0
 10
60.9699
 20
43.3627
 30
0.0
 11
61.7707
 21
43.3627
 31
0.0
  0
LINE
  8
0
 62
     0
 10
61.7707
 20
43.3627
 30
0.0
 11
61.7707
 21
42.7634
 31
0.0
  0
LINE
  8
0
 62
     0
 10
61.7707
 20
42.7634
 30
0.0
 11
75.77
 21
42.7634
 31
0.0
  0
LINE
  8
0
 62
     0
 10
75.77
 20
42.7634
 30
0.0
 11
75.77
 21
43.3627
 31
0.0
  0
LINE
  8
0
 62
     0
 10
75.77
 20
43.3627
 30
0.0
 11
76.5708
 21
43.3627
 31
0.0
  0
LINE
  8
0
 62
     0
 10
76.5708
 20
43.3627
 30
0.0
 11
76.5708
 21
56.1633
 31
0.0
  0
LINE
  8
0
 62
     0
 10
76.5708
 20
56.1633
 30
0.0
 11
75.77
 21
56.1633
 31
0.0
  0
LINE
  8
0
 62
     0
 10
75.77
 20
56.1633
 30
0.0
 11
75.77
 21
56.7626
 31
0.0
  0
LINE
  8
0
 62
     0
 10
75.77
 20
56.7626
 30
0.0
 11
61.7707
 21
56.7626
 31
0.0
  0
LINE
  8
0
 62
     0
 10
42.7207
 20
56.7626
 30
0.0
 11
42.7207
 21
56.1633
 31
0.0
  0
LINE
  8
0
 62
     0
 10
42.7207
 20
56.1633
 30
0.0
 11
41.9199
 21
56.1633
 31
0.0
  0
LINE
  8
0
 62
     0
 10
41.9199
 20
56.1633
 30
0.0
 11
41.9199
 21
43.3627
 31
0.0
  0
LINE
  8
0
 62
     0
 10
41.9199
 20
43.3627
 30
0.0
 11
42.7207
 21
43.3627
 31
0.0
  0
LINE
  8
0
 62
     0
 10
42.7207
 20
43.3627
 30
0.0
 11
42.7207
 21
42.7634
 31
0.0
  0
LINE
  8
0
 62
     0
 10
42.7207
 20
42.7634
 30
0.0
 11
56.72
 21
42.7634
 31
0.0
  0
LINE
  8
0
 62
     0
 10
56.72
 20
42.7634
 30
0.0
 11
56.72
 21
43.3627
 31
0.0
  0
LINE
  8
0
 62
     0
 10
56.72
 20
43.3627
 30
0.0
 11
57.5208
 21
43.3627
 31
0.0
  0
LINE
  8
0
 62
     0
 10
57.5208
 20
43.3627
 30
0.0
 11
57.5208
 21
56.1633
 31
0.0
  0
LINE
  8
0
 62
     0
 10
57.5208
 20
56.1633
 30
0.0
 11
56.72
 21
56.1633
 31
0.0
  0
LINE
  8
0
 62
     0
 10
56.72
 20
56.1633
 30
0.0
 11
56.72
 21
56.7626
 31
0.0
  0
LINE
  8
0
 62
     0
 10
56.72
 20
56.7626
 30
0.0
 11
42.7207
 21
56.7626
 31
0.0
  0
LINE
  8
0
 62
     0
 10
23.6706
 20
56.7626
 30
0.0
 11
23.6706
 21
56.1633
 31
0.0
  0
LINE
  8
0
 62
     0
 10
23.6706
 20
56.1633
 30
0.0
 11
22.8699
 21
56.1633
 31
0.0
  0
LINE
  8
0
 62
     0
 10
22.8699
 20
56.1633
 30
0.0
 11
22.8699
 21
43.3627
 31
0.0
  0
LINE
  8
0
 62
     0
 10
22.8699
 20
43.3627
 30
0.0
 11
23.6706
 21
43.3627
 31
0.0
  0
LINE
  8
0
 62
     0
 10
23.6706
 20
43.3627
 30
0.0
 11
23.6706
 21
42.7634
 31
0.0
  0
LINE
  8
0
 62
     0
 10
23.6706
 20
42.7634
 30
0.0
 11
37.67
 21
42.7634
 31
0.0
  0
LINE
  8
0
 62
     0
 10
37.67
 20
42.7634
 30
0.0
 11
37.67
 21
43.3627
 31
0.0
  0
LINE
  8
0
 62
     0
 10
37.67
 20
43.3627
 30
0.0
 11
38.4708
 21
43.3627
 31
0.0
  0
LINE
  8
0
 62
     0
 10
38.4708
 20
43.3627
 30
0.0
 11
38.4708
 21
56.1633
 31
0.0
  0
LINE
  8
0
 62
     0
 10
38.4708
 20
56.1633
 30
0.0
 11
37.67
 21
56.1633
 31
0.0
  0
LINE
  8
0
 62
     0
 10
37.67
 20
56.1633
 30
0.0
 11
37.67
 21
56.7626
 31
0.0
  0
LINE
  8
0
 62
     0
 10
37.67
 20
56.7626
 30
0.0
 11
23.6706
 21
56.7626
 31
0.0
  0
LINE
  8
0
 62
     0
 10
4.6192
 20
56.7626
 30
0.0
 11
4.6192
 21
56.1633
 31
0.0
  0
LINE
  8
0
 62
     0
 10
4.6192
 20
56.1633
 30
0.0
 11
3.81991
 21
56.1633
 31
0.0
  0
LINE
  8
0
 62
     0
 10
3.81991
 20
56.1633
 30
0.0
 11
3.81991
 21
43.3627
 31
0.0
  0
LINE
  8
0
 62
     0
 10
3.81991
 20
43.3627
 30
0.0
 11
4.6192
 21
43.3627
 31
0.0
  0
LINE
  8
0
 62
     0
 10
4.6192
 20
43.3627
 30
0.0
 11
4.6192
 21
42.7634
 31
0.0
  0
LINE
  8
0
 62
     0
 10
4.6192
 20
42.7634
 30
0.0
 11
18.6201
 21
42.7634
 31
0.0
  0
LINE
  8
0
 62
     0
 10
18.6201
 20
42.7634
 30
0.0
 11
18.6201
 21
43.3627
 31
0.0
  0
LINE
  8
0
 62
     0
 10
18.6201
 20
43.3627
 30
0.0
 11
19.4207
 21
43.3627
 31
0.0
  0
LINE
  8
0
 62
     0
 10
19.4207
 20
43.3627
 30
0.0
 11
19.4207
 21
56.1633
 31
0.0
  0
LINE
  8
0
 62
     0
 10
19.4207
 20
56.1633
 30
0.0
 11
18.6201
 21
56.1633
 31
0.0
  0
LINE
  8
0
 62
     0
 10
18.6201
 20
56.1633
 30
0.0
 11
18.6201
 21
56.7626
 31
0.0
  0
LINE
  8
0
 62
     0
 10
18.6201
 20
56.7626
 30
0.0
 11
4.6192
 21
56.7626
 31
0.0
  0
LINE
  8
0
 62
     0
 10
299.896
 20
75.8141
 30
0.0
 11
299.896
 21
75.2133
 31
0.0
  0
LINE
  8
0
 62
     0
 10
299.896
 20
75.2133
 30
0.0
 11
299.095
 21
75.2133
 31
0.0
  0
LINE
  8
0
 62
     0
 10
299.095
 20
75.2133
 30
0.0
 11
299.095
 21
62.4141
 31
0.0
  0
LINE
  8
0
 62
     0
 10
299.095
 20
62.4141
 30
0.0
 11
299.896
 21
62.4141
 31
0.0
  0
LINE
  8
0
 62
     0
 10
299.896
 20
62.4141
 30
0.0
 11
299.896
 21
61.8134
 31
0.0
  0
LINE
  8
0
 62
     0
 10
299.896
 20
61.8134
 30
0.0
 11
313.895
 21
61.8134
 31
0.0
  0
LINE
  8
0
 62
     0
 10
313.895
 20
61.8134
 30
0.0
 11
313.895
 21
62.4141
 31
0.0
  0
LINE
  8
0
 62
     0
 10
313.895
 20
62.4141
 30
0.0
 11
314.696
 21
62.4141
 31
0.0
  0
LINE
  8
0
 62
     0
 10
314.696
 20
62.4141
 30
0.0
 11
314.696
 21
75.2133
 31
0.0
  0
LINE
  8
0
 62
     0
 10
314.696
 20
75.2133
 30
0.0
 11
313.895
 21
75.2133
 31
0.0
  0
LINE
  8
0
 62
     0
 10
313.895
 20
75.2133
 30
0.0
 11
313.895
 21
75.8141
 31
0.0
  0
LINE
  8
0
 62
     0
 10
313.895
 20
75.8141
 30
0.0
 11
299.896
 21
75.8141
 31
0.0
  0
LINE
  8
0
 62
     0
 10
276.083
 20
75.8141
 30
0.0
 11
276.083
 21
75.2133
 31
0.0
  0
LINE
  8
0
 62
     0
 10
276.083
 20
75.2133
 30
0.0
 11
275.282
 21
75.2133
 31
0.0
  0
LINE
  8
0
 62
     0
 10
275.282
 20
75.2133
 30
0.0
 11
275.282
 21
62.4141
 31
0.0
  0
LINE
  8
0
 62
     0
 10
275.282
 20
62.4141
 30
0.0
 11
276.083
 21
62.4141
 31
0.0
  0
LINE
  8
0
 62
     0
 10
276.083
 20
62.4141
 30
0.0
 11
276.083
 21
61.8134
 31
0.0
  0
LINE
  8
0
 62
     0
 10
276.083
 20
61.8134
 30
0.0
 11
290.082
 21
61.8134
 31
0.0
  0
LINE
  8
0
 62
     0
 10
290.082
 20
61.8134
 30
0.0
 11
290.082
 21
62.4141
 31
0.0
  0
LINE
  8
0
 62
     0
 10
290.082
 20
62.4141
 30
0.0
 11
290.882
 21
62.4141
 31
0.0
  0
LINE
  8
0
 62
     0
 10
290.882
 20
62.4141
 30
0.0
 11
290.882
 21
75.2133
 31
0.0
  0
LINE
  8
0
 62
     0
 10
290.882
 20
75.2133
 30
0.0
 11
290.082
 21
75.2133
 31
0.0
  0
LINE
  8
0
 62
     0
 10
290.082
 20
75.2133
 30
0.0
 11
290.082
 21
75.8141
 31
0.0
  0
LINE
  8
0
 62
     0
 10
290.082
 20
75.8141
 30
0.0
 11
276.083
 21
75.8141
 31
0.0
  0
LINE
  8
0
 62
     0
 10
257.033
 20
75.8141
 30
0.0
 11
257.033
 21
75.2133
 31
0.0
  0
LINE
  8
0
 62
     0
 10
257.033
 20
75.2133
 30
0.0
 11
256.232
 21
75.2133
 31
0.0
  0
LINE
  8
0
 62
     0
 10
256.232
 20
75.2133
 30
0.0
 11
256.232
 21
62.4141
 31
0.0
  0
LINE
  8
0
 62
     0
 10
256.232
 20
62.4141
 30
0.0
 11
257.033
 21
62.4141
 31
0.0
  0
LINE
  8
0
 62
     0
 10
257.033
 20
62.4141
 30
0.0
 11
257.033
 21
61.8134
 31
0.0
  0
LINE
  8
0
 62
     0
 10
257.033
 20
61.8134
 30
0.0
 11
271.032
 21
61.8134
 31
0.0
  0
LINE
  8
0
 62
     0
 10
271.032
 20
61.8134
 30
0.0
 11
271.032
 21
62.4141
 31
0.0
  0
LINE
  8
0
 62
     0
 10
271.032
 20
62.4141
 30
0.0
 11
271.832
 21
62.4141
 31
0.0
  0
LINE
  8
0
 62
     0
 10
271.832
 20
62.4141
 30
0.0
 11
271.832
 21
75.2133
 31
0.0
  0
LINE
  8
0
 62
     0
 10
271.832
 20
75.2133
 30
0.0
 11
271.032
 21
75.2133
 31
0.0
  0
LINE
  8
0
 62
     0
 10
271.032
 20
75.2133
 30
0.0
 11
271.032
 21
75.8141
 31
0.0
  0
LINE
  8
0
 62
     0
 10
271.032
 20
75.8141
 30
0.0
 11
257.033
 21
75.8141
 31
0.0
  0
LINE
  8
0
 62
     0
 10
237.983
 20
75.8141
 30
0.0
 11
237.983
 21
75.2133
 31
0.0
  0
LINE
  8
0
 62
     0
 10
237.983
 20
75.2133
 30
0.0
 11
237.182
 21
75.2133
 31
0.0
  0
LINE
  8
0
 62
     0
 10
237.182
 20
75.2133
 30
0.0
 11
237.182
 21
62.4141
 31
0.0
  0
LINE
  8
0
 62
     0
 10
237.182
 20
62.4141
 30
0.0
 11
237.983
 21
62.4141
 31
0.0
  0
LINE
  8
0
 62
     0
 10
237.983
 20
62.4141
 30
0.0
 11
237.983
 21
61.8134
 31
0.0
  0
LINE
  8
0
 62
     0
 10
237.983
 20
61.8134
 30
0.0
 11
251.982
 21
61.8134
 31
0.0
  0
LINE
  8
0
 62
     0
 10
251.982
 20
61.8134
 30
0.0
 11
251.982
 21
62.4141
 31
0.0
  0
LINE
  8
0
 62
     0
 10
251.982
 20
62.4141
 30
0.0
 11
252.782
 21
62.4141
 31
0.0
  0
LINE
  8
0
 62
     0
 10
252.782
 20
62.4141
 30
0.0
 11
252.782
 21
75.2133
 31
0.0
  0
LINE
  8
0
 62
     0
 10
252.782
 20
75.2133
 30
0.0
 11
251.982
 21
75.2133
 31
0.0
  0
LINE
  8
0
 62
     0
 10
251.982
 20
75.2133
 30
0.0
 11
251.982
 21
75.8141
 31
0.0
  0
LINE
  8
0
 62
     0
 10
251.982
 20
75.8141
 30
0.0
 11
237.983
 21
75.8141
 31
0.0
  0
LINE
  8
0
 62
     0
 10
218.933
 20
75.8141
 30
0.0
 11
218.933
 21
75.2133
 31
0.0
  0
LINE
  8
0
 62
     0
 10
218.933
 20
75.2133
 30
0.0
 11
218.132
 21
75.2133
 31
0.0
  0
LINE
  8
0
 62
     0
 10
218.132
 20
75.2133
 30
0.0
 11
218.132
 21
62.4141
 31
0.0
  0
LINE
  8
0
 62
     0
 10
218.132
 20
62.4141
 30
0.0
 11
218.933
 21
62.4141
 31
0.0
  0
LINE
  8
0
 62
     0
 10
218.933
 20
62.4141
 30
0.0
 11
218.933
 21
61.8134
 31
0.0
  0
LINE
  8
0
 62
     0
 10
218.933
 20
61.8134
 30
0.0
 11
232.932
 21
61.8134
 31
0.0
  0
LINE
  8
0
 62
     0
 10
232.932
 20
61.8134
 30
0.0
 11
232.932
 21
62.4141
 31
0.0
  0
LINE
  8
0
 62
     0
 10
232.932
 20
62.4141
 30
0.0
 11
233.732
 21
62.4141
 31
0.0
  0
LINE
  8
0
 62
     0
 10
233.732
 20
62.4141
 30
0.0
 11
233.732
 21
75.2133
 31
0.0
  0
LINE
  8
0
 62
     0
 10
233.732
 20
75.2133
 30
0.0
 11
232.932
 21
75.2133
 31
0.0
  0
LINE
  8
0
 62
     0
 10
232.932
 20
75.2133
 30
0.0
 11
232.932
 21
75.8141
 31
0.0
  0
LINE
  8
0
 62
     0
 10
232.932
 20
75.8141
 30
0.0
 11
218.933
 21
75.8141
 31
0.0
  0
LINE
  8
0
 62
     0
 10
199.883
 20
75.8141
 30
0.0
 11
199.883
 21
75.2133
 31
0.0
  0
LINE
  8
0
 62
     0
 10
199.883
 20
75.2133
 30
0.0
 11
199.082
 21
75.2133
 31
0.0
  0
LINE
  8
0
 62
     0
 10
199.082
 20
75.2133
 30
0.0
 11
199.082
 21
62.4141
 31
0.0
  0
LINE
  8
0
 62
     0
 10
199.082
 20
62.4141
 30
0.0
 11
199.883
 21
62.4141
 31
0.0
  0
LINE
  8
0
 62
     0
 10
199.883
 20
62.4141
 30
0.0
 11
199.883
 21
61.8134
 31
0.0
  0
LINE
  8
0
 62
     0
 10
199.883
 20
61.8134
 30
0.0
 11
213.882
 21
61.8134
 31
0.0
  0
LINE
  8
0
 62
     0
 10
213.882
 20
61.8134
 30
0.0
 11
213.882
 21
62.4141
 31
0.0
  0
LINE
  8
0
 62
     0
 10
213.882
 20
62.4141
 30
0.0
 11
214.682
 21
62.4141
 31
0.0
  0
LINE
  8
0
 62
     0
 10
214.682
 20
62.4141
 30
0.0
 11
214.682
 21
75.2133
 31
0.0
  0
LINE
  8
0
 62
     0
 10
214.682
 20
75.2133
 30
0.0
 11
213.882
 21
75.2133
 31
0.0
  0
LINE
  8
0
 62
     0
 10
213.882
 20
75.2133
 30
0.0
 11
213.882
 21
75.8141
 31
0.0
  0
LINE
  8
0
 62
     0
 10
213.882
 20
75.8141
 30
0.0
 11
199.883
 21
75.8141
 31
0.0
  0
LINE
  8
0
 62
     0
 10
180.833
 20
75.8141
 30
0.0
 11
180.833
 21
75.2133
 31
0.0
  0
LINE
  8
0
 62
     0
 10
180.833
 20
75.2133
 30
0.0
 11
180.032
 21
75.2133
 31
0.0
  0
LINE
  8
0
 62
     0
 10
180.032
 20
75.2133
 30
0.0
 11
180.032
 21
62.4141
 31
0.0
  0
LINE
  8
0
 62
     0
 10
180.032
 20
62.4141
 30
0.0
 11
180.833
 21
62.4141
 31
0.0
  0
LINE
  8
0
 62
     0
 10
180.833
 20
62.4141
 30
0.0
 11
180.833
 21
61.8134
 31
0.0
  0
LINE
  8
0
 62
     0
 10
180.833
 20
61.8134
 30
0.0
 11
194.832
 21
61.8134
 31
0.0
  0
LINE
  8
0
 62
     0
 10
194.832
 20
61.8134
 30
0.0
 11
194.832
 21
62.4141
 31
0.0
  0
LINE
  8
0
 62
     0
 10
194.832
 20
62.4141
 30
0.0
 11
195.632
 21
62.4141
 31
0.0
  0
LINE
  8
0
 62
     0
 10
195.632
 20
62.4141
 30
0.0
 11
195.632
 21
75.2133
 31
0.0
  0
LINE
  8
0
 62
     0
 10
195.632
 20
75.2133
 30
0.0
 11
194.832
 21
75.2133
 31
0.0
  0
LINE
  8
0
 62
     0
 10
194.832
 20
75.2133
 30
0.0
 11
194.832
 21
75.8141
 31
0.0
  0
LINE
  8
0
 62
     0
 10
194.832
 20
75.8141
 30
0.0
 11
180.833
 21
75.8141
 31
0.0
  0
LINE
  8
0
 62
     0
 10
161.783
 20
75.8141
 30
0.0
 11
161.783
 21
75.2133
 31
0.0
  0
LINE
  8
0
 62
     0
 10
161.783
 20
75.2133
 30
0.0
 11
160.982
 21
75.2133
 31
0.0
  0
LINE
  8
0
 62
     0
 10
160.982
 20
75.2133
 30
0.0
 11
160.982
 21
62.4141
 31
0.0
  0
LINE
  8
0
 62
     0
 10
160.982
 20
62.4141
 30
0.0
 11
161.783
 21
62.4141
 31
0.0
  0
LINE
  8
0
 62
     0
 10
161.783
 20
62.4141
 30
0.0
 11
161.783
 21
61.8134
 31
0.0
  0
LINE
  8
0
 62
     0
 10
161.783
 20
61.8134
 30
0.0
 11
175.782
 21
61.8134
 31
0.0
  0
LINE
  8
0
 62
     0
 10
175.782
 20
61.8134
 30
0.0
 11
175.782
 21
62.4141
 31
0.0
  0
LINE
  8
0
 62
     0
 10
175.782
 20
62.4141
 30
0.0
 11
176.582
 21
62.4141
 31
0.0
  0
LINE
  8
0
 62
     0
 10
176.582
 20
62.4141
 30
0.0
 11
176.582
 21
75.2133
 31
0.0
  0
LINE
  8
0
 62
     0
 10
176.582
 20
75.2133
 30
0.0
 11
175.782
 21
75.2133
 31
0.0
  0
LINE
  8
0
 62
     0
 10
175.782
 20
75.2133
 30
0.0
 11
175.782
 21
75.8141
 31
0.0
  0
LINE
  8
0
 62
     0
 10
175.782
 20
75.8141
 30
0.0
 11
161.783
 21
75.8141
 31
0.0
  0
LINE
  8
0
 62
     0
 10
142.733
 20
75.8141
 30
0.0
 11
142.733
 21
75.2133
 31
0.0
  0
LINE
  8
0
 62
     0
 10
142.733
 20
75.2133
 30
0.0
 11
141.932
 21
75.2133
 31
0.0
  0
LINE
  8
0
 62
     0
 10
141.932
 20
75.2133
 30
0.0
 11
141.932
 21
62.4141
 31
0.0
  0
LINE
  8
0
 62
     0
 10
141.932
 20
62.4141
 30
0.0
 11
142.733
 21
62.4141
 31
0.0
  0
LINE
  8
0
 62
     0
 10
142.733
 20
62.4141
 30
0.0
 11
142.733
 21
61.8134
 31
0.0
  0
LINE
  8
0
 62
     0
 10
142.733
 20
61.8134
 30
0.0
 11
156.732
 21
61.8134
 31
0.0
  0
LINE
  8
0
 62
     0
 10
156.732
 20
61.8134
 30
0.0
 11
156.732
 21
62.4141
 31
0.0
  0
LINE
  8
0
 62
     0
 10
156.732
 20
62.4141
 30
0.0
 11
157.532
 21
62.4141
 31
0.0
  0
LINE
  8
0
 62
     0
 10
157.532
 20
62.4141
 30
0.0
 11
157.532
 21
75.2133
 31
0.0
  0
LINE
  8
0
 62
     0
 10
157.532
 20
75.2133
 30
0.0
 11
156.732
 21
75.2133
 31
0.0
  0
LINE
  8
0
 62
     0
 10
156.732
 20
75.2133
 30
0.0
 11
156.732
 21
75.8141
 31
0.0
  0
LINE
  8
0
 62
     0
 10
156.732
 20
75.8141
 30
0.0
 11
142.733
 21
75.8141
 31
0.0
  0
LINE
  8
0
 62
     0
 10
123.682
 20
75.8141
 30
0.0
 11
123.682
 21
75.2133
 31
0.0
  0
LINE
  8
0
 62
     0
 10
123.682
 20
75.2133
 30
0.0
 11
122.882
 21
75.2133
 31
0.0
  0
LINE
  8
0
 62
     0
 10
122.882
 20
75.2133
 30
0.0
 11
122.882
 21
62.4141
 31
0.0
  0
LINE
  8
0
 62
     0
 10
122.882
 20
62.4141
 30
0.0
 11
123.682
 21
62.4141
 31
0.0
  0
LINE
  8
0
 62
     0
 10
123.682
 20
62.4141
 30
0.0
 11
123.682
 21
61.8134
 31
0.0
  0
LINE
  8
0
 62
     0
 10
123.682
 20
61.8134
 30
0.0
 11
137.682
 21
61.8134
 31
0.0
  0
LINE
  8
0
 62
     0
 10
137.682
 20
61.8134
 30
0.0
 11
137.682
 21
62.4141
 31
0.0
  0
LINE
  8
0
 62
     0
 10
137.682
 20
62.4141
 30
0.0
 11
138.482
 21
62.4141
 31
0.0
  0
LINE
  8
0
 62
     0
 10
138.482
 20
62.4141
 30
0.0
 11
138.482
 21
75.2133
 31
0.0
  0
LINE
  8
0
 62
     0
 10
138.482
 20
75.2133
 30
0.0
 11
137.682
 21
75.2133
 31
0.0
  0
LINE
  8
0
 62
     0
 10
137.682
 20
75.2133
 30
0.0
 11
137.682
 21
75.8141
 31
0.0
  0
LINE
  8
0
 62
     0
 10
137.682
 20
75.8141
 30
0.0
 11
123.682
 21
75.8141
 31
0.0
  0
LINE
  8
0
 62
     0
 10
104.633
 20
75.8141
 30
0.0
 11
104.633
 21
75.2133
 31
0.0
  0
LINE
  8
0
 62
     0
 10
104.633
 20
75.2133
 30
0.0
 11
103.832
 21
75.2133
 31
0.0
  0
LINE
  8
0
 62
     0
 10
103.832
 20
75.2133
 30
0.0
 11
103.832
 21
62.4141
 31
0.0
  0
LINE
  8
0
 62
     0
 10
103.832
 20
62.4141
 30
0.0
 11
104.633
 21
62.4141
 31
0.0
  0
LINE
  8
0
 62
     0
 10
104.633
 20
62.4141
 30
0.0
 11
104.633
 21
61.8134
 31
0.0
  0
LINE
  8
0
 62
     0
 10
104.633
 20
61.8134
 30
0.0
 11
118.632
 21
61.8134
 31
0.0
  0
LINE
  8
0
 62
     0
 10
118.632
 20
61.8134
 30
0.0
 11
118.632
 21
62.4141
 31
0.0
  0
LINE
  8
0
 62
     0
 10
118.632
 20
62.4141
 30
0.0
 11
119.432
 21
62.4141
 31
0.0
  0
LINE
  8
0
 62
     0
 10
119.432
 20
62.4141
 30
0.0
 11
119.432
 21
75.2133
 31
0.0
  0
LINE
  8
0
 62
     0
 10
119.432
 20
75.2133
 30
0.0
 11
118.632
 21
75.2133
 31
0.0
  0
LINE
  8
0
 62
     0
 10
118.632
 20
75.2133
 30
0.0
 11
118.632
 21
75.8141
 31
0.0
  0
LINE
  8
0
 62
     0
 10
118.632
 20
75.8141
 30
0.0
 11
104.633
 21
75.8141
 31
0.0
  0
LINE
  8
0
 62
     0
 10
85.5832
 20
75.8141
 30
0.0
 11
85.5832
 21
75.2133
 31
0.0
  0
LINE
  8
0
 62
     0
 10
85.5832
 20
75.2133
 30
0.0
 11
84.7824
 21
75.2133
 31
0.0
  0
LINE
  8
0
 62
     0
 10
84.7824
 20
75.2133
 30
0.0
 11
84.7824
 21
62.4141
 31
0.0
  0
LINE
  8
0
 62
     0
 10
84.7824
 20
62.4141
 30
0.0
 11
85.5832
 21
62.4141
 31
0.0
  0
LINE
  8
0
 62
     0
 10
85.5832
 20
62.4141
 30
0.0
 11
85.5832
 21
61.8134
 31
0.0
  0
LINE
  8
0
 62
     0
 10
85.5832
 20
61.8134
 30
0.0
 11
99.5825
 21
61.8134
 31
0.0
  0
LINE
  8
0
 62
     0
 10
99.5825
 20
61.8134
 30
0.0
 11
99.5825
 21
62.4141
 31
0.0
  0
LINE
  8
0
 62
     0
 10
99.5825
 20
62.4141
 30
0.0
 11
100.382
 21
62.4141
 31
0.0
  0
LINE
  8
0
 62
     0
 10
100.382
 20
62.4141
 30
0.0
 11
100.382
 21
75.2133
 31
0.0
  0
LINE
  8
0
 62
     0
 10
100.382
 20
75.2133
 30
0.0
 11
99.5825
 21
75.2133
 31
0.0
  0
LINE
  8
0
 62
     0
 10
99.5825
 20
75.2133
 30
0.0
 11
99.5825
 21
75.8141
 31
0.0
  0
LINE
  8
0
 62
     0
 10
99.5825
 20
75.8141
 30
0.0
 11
85.5832
 21
75.8141
 31
0.0
  0
LINE
  8
0
 62
     0
 10
61.7707
 20
75.8141
 30
0.0
 11
61.7707
 21
75.2133
 31
0.0
  0
LINE
  8
0
 62
     0
 10
61.7707
 20
75.2133
 30
0.0
 11
60.9699
 21
75.2133
 31
0.0
  0
LINE
  8
0
 62
     0
 10
60.9699
 20
75.2133
 30
0.0
 11
60.9699
 21
62.4141
 31
0.0
  0
LINE
  8
0
 62
     0
 10
60.9699
 20
62.4141
 30
0.0
 11
61.7707
 21
62.4141
 31
0.0
  0
LINE
  8
0
 62
     0
 10
61.7707
 20
62.4141
 30
0.0
 11
61.7707
 21
61.8134
 31
0.0
  0
LINE
  8
0
 62
     0
 10
61.7707
 20
61.8134
 30
0.0
 11
75.77
 21
61.8134
 31
0.0
  0
LINE
  8
0
 62
     0
 10
75.77
 20
61.8134
 30
0.0
 11
75.77
 21
62.4141
 31
0.0
  0
LINE
  8
0
 62
     0
 10
75.77
 20
62.4141
 30
0.0
 11
76.5708
 21
62.4141
 31
0.0
  0
LINE
  8
0
 62
     0
 10
76.5708
 20
62.4141
 30
0.0
 11
76.5708
 21
75.2133
 31
0.0
  0
LINE
  8
0
 62
     0
 10
76.5708
 20
75.2133
 30
0.0
 11
75.77
 21
75.2133
 31
0.0
  0
LINE
  8
0
 62
     0
 10
75.77
 20
75.2133
 30
0.0
 11
75.77
 21
75.8141
 31
0.0
  0
LINE
  8
0
 62
     0
 10
75.77
 20
75.8141
 30
0.0
 11
61.7707
 21
75.8141
 31
0.0
  0
LINE
  8
0
 62
     0
 10
42.7207
 20
75.8141
 30
0.0
 11
42.7207
 21
75.2133
 31
0.0
  0
LINE
  8
0
 62
     0
 10
42.7207
 20
75.2133
 30
0.0
 11
41.9199
 21
75.2133
 31
0.0
  0
LINE
  8
0
 62
     0
 10
41.9199
 20
75.2133
 30
0.0
 11
41.9199
 21
62.4141
 31
0.0
  0
LINE
  8
0
 62
     0
 10
41.9199
 20
62.4141
 30
0.0
 11
42.7207
 21
62.4141
 31
0.0
  0
LINE
  8
0
 62
     0
 10
42.7207
 20
62.4141
 30
0.0
 11
42.7207
 21
61.8134
 31
0.0
  0
LINE
  8
0
 62
     0
 10
42.7207
 20
61.8134
 30
0.0
 11
56.72
 21
61.8134
 31
0.0
  0
LINE
  8
0
 62
     0
 10
56.72
 20
61.8134
 30
0.0
 11
56.72
 21
62.4141
 31
0.0
  0
LINE
  8
0
 62
     0
 10
56.72
 20
62.4141
 30
0.0
 11
57.5208
 21
62.4141
 31
0.0
  0
LINE
  8
0
 62
     0
 10
57.5208
 20
62.4141
 30
0.0
 11
57.5208
 21
75.2133
 31
0.0
  0
LINE
  8
0
 62
     0
 10
57.5208
 20
75.2133
 30
0.0
 11
56.72
 21
75.2133
 31
0.0
  0
LINE
  8
0
 62
     0
 10
56.72
 20
75.2133
 30
0.0
 11
56.72
 21
75.8141
 31
0.0
  0
LINE
  8
0
 62
     0
 10
56.72
 20
75.8141
 30
0.0
 11
42.7207
 21
75.8141
 31
0.0
  0
LINE
  8
0
 62
     0
 10
23.6706
 20
75.8141
 30
0.0
 11
23.6706
 21
75.2133
 31
0.0
  0
LINE
  8
0
 62
     0
 10
23.6706
 20
75.2133
 30
0.0
 11
22.8699
 21
75.2133
 31
0.0
  0
LINE
  8
0
 62
     0
 10
22.8699
 20
75.2133
 30
0.0
 11
22.8699
 21
62.4141
 31
0.0
  0
LINE
  8
0
 62
     0
 10
22.8699
 20
62.4141
 30
0.0
 11
23.6706
 21
62.4141
 31
0.0
  0
LINE
  8
0
 62
     0
 10
23.6706
 20
62.4141
 30
0.0
 11
23.6706
 21
61.8134
 31
0.0
  0
LINE
  8
0
 62
     0
 10
23.6706
 20
61.8134
 30
0.0
 11
37.67
 21
61.8134
 31
0.0
  0
LINE
  8
0
 62
     0
 10
37.67
 20
61.8134
 30
0.0
 11
37.67
 21
62.4141
 31
0.0
  0
LINE
  8
0
 62
     0
 10
37.67
 20
62.4141
 30
0.0
 11
38.4708
 21
62.4141
 31
0.0
  0
LINE
  8
0
 62
     0
 10
38.4708
 20
62.4141
 30
0.0
 11
38.4708
 21
75.2133
 31
0.0
  0
LINE
  8
0
 62
     0
 10
38.4708
 20
75.2133
 30
0.0
 11
37.67
 21
75.2133
 31
0.0
  0
LINE
  8
0
 62
     0
 10
37.67
 20
75.2133
 30
0.0
 11
37.67
 21
75.8141
 31
0.0
  0
LINE
  8
0
 62
     0
 10
37.67
 20
75.8141
 30
0.0
 11
23.6706
 21
75.8141
 31
0.0
  0
LINE
  8
0
 62
     0
 10
4.6192
 20
75.8141
 30
0.0
 11
4.6192
 21
75.2133
 31
0.0
  0
LINE
  8
0
 62
     0
 10
4.6192
 20
75.2133
 30
0.0
 11
3.81991
 21
75.2133
 31
0.0
  0
LINE
  8
0
 62
     0
 10
3.81991
 20
75.2133
 30
0.0
 11
3.81991
 21
62.4141
 31
0.0
  0
LINE
  8
0
 62
     0
 10
3.81991
 20
62.4141
 30
0.0
 11
4.6192
 21
62.4141
 31
0.0
  0
LINE
  8
0
 62
     0
 10
4.6192
 20
62.4141
 30
0.0
 11
4.6192
 21
61.8134
 31
0.0
  0
LINE
  8
0
 62
     0
 10
4.6192
 20
61.8134
 30
0.0
 11
18.6201
 21
61.8134
 31
0.0
  0
LINE
  8
0
 62
     0
 10
18.6201
 20
61.8134
 30
0.0
 11
18.6201
 21
62.4141
 31
0.0
  0
LINE
  8
0
 62
     0
 10
18.6201
 20
62.4141
 30
0.0
 11
19.4207
 21
62.4141
 31
0.0
  0
LINE
  8
0
 62
     0
 10
19.4207
 20
62.4141
 30
0.0
 11
19.4207
 21
75.2133
 31
0.0
  0
LINE
  8
0
 62
     0
 10
19.4207
 20
75.2133
 30
0.0
 11
18.6201
 21
75.2133
 31
0.0
  0
LINE
  8
0
 62
     0
 10
18.6201
 20
75.2133
 30
0.0
 11
18.6201
 21
75.8141
 31
0.0
  0
LINE
  8
0
 62
     0
 10
18.6201
 20
75.8141
 30
0.0
 11
4.6192
 21
75.8141
 31
0.0
  0
ENDSEC
  0
EOF
