  0
SECTION
  2
HEADER
  9
$ACADVER
  1
AC1009
  9
$EXTMIN
 10
0.0
 20
0.0
 30
0.0
  9
$EXTMAX
 10
1000.0
 20
1000.0
 30
0.0
  9
$FILLMODE
 70
 0
  9
$SPLFRAME
 70
 1
  0
ENDSEC
  0
SECTION
  2
TABLES
  0
TABLE
  2
LAYER
 70
1
  0
LAYER
  2
0
 70
     0
 62
     7
  6
CONTINUOUS
  0
ENDTAB
  0
ENDSEC
  0
SECTION
  2
ENTITIES
  0
LINE
  8
0
 62
     0
 10
323.183
 20
82.4547
 30
0.0
 11
323.34
 21
82.448
 31
0.0
  0
LINE
  8
0
 62
     0
 10
323.34
 20
82.448
 30
0.0
 11
323.496
 21
82.4301
 31
0.0
  0
LINE
  8
0
 62
     0
 10
323.496
 20
82.4301
 30
0.0
 11
323.65
 21
82.3997
 31
0.0
  0
LINE
  8
0
 62
     0
 10
323.65
 20
82.3997
 30
0.0
 11
323.802
 21
82.357
 31
0.0
  0
LINE
  8
0
 62
     0
 10
323.802
 20
82.357
 30
0.0
 11
323.948
 21
82.302
 31
0.0
  0
LINE
  8
0
 62
     0
 10
323.948
 20
82.302
 30
0.0
 11
324.091
 21
82.2371
 31
0.0
  0
LINE
  8
0
 62
     0
 10
324.091
 20
82.2371
 30
0.0
 11
324.229
 21
82.1602
 31
0.0
  0
LINE
  8
0
 62
     0
 10
324.229
 20
82.1602
 30
0.0
 11
324.36
 21
82.073
 31
0.0
  0
LINE
  8
0
 62
     0
 10
324.36
 20
82.073
 30
0.0
 11
324.483
 21
81.9753
 31
0.0
  0
LINE
  8
0
 62
     0
 10
324.483
 20
81.9753
 30
0.0
 11
324.597
 21
81.8691
 31
0.0
  0
LINE
  8
0
 62
     0
 10
324.597
 20
81.8691
 30
0.0
 11
324.704
 21
81.7534
 31
0.0
  0
LINE
  8
0
 62
     0
 10
324.704
 20
81.7534
 30
0.0
 11
324.801
 21
81.631
 31
0.0
  0
LINE
  8
0
 62
     0
 10
324.801
 20
81.631
 30
0.0
 11
324.889
 21
81.4998
 31
0.0
  0
LINE
  8
0
 62
     0
 10
324.889
 20
81.4998
 30
0.0
 11
324.965
 21
81.3622
 31
0.0
  0
LINE
  8
0
 62
     0
 10
324.965
 20
81.3622
 30
0.0
 11
325.031
 21
81.22
 31
0.0
  0
LINE
  8
0
 62
     0
 10
325.031
 20
81.22
 30
0.0
 11
325.086
 21
81.074
 31
0.0
  0
LINE
  8
0
 62
     0
 10
325.086
 20
81.074
 30
0.0
 11
325.129
 21
80.9212
 31
0.0
  0
LINE
  8
0
 62
     0
 10
325.129
 20
80.9212
 30
0.0
 11
325.159
 21
80.7681
 31
0.0
  0
LINE
  8
0
 62
     0
 10
325.159
 20
80.7681
 30
0.0
 11
325.177
 21
80.6111
 31
0.0
  0
LINE
  8
0
 62
     0
 10
325.177
 20
80.6111
 30
0.0
 11
325.184
 21
80.4541
 31
0.0
  0
LINE
  8
0
 62
     0
 10
325.184
 20
80.4541
 30
0.0
 11
325.184
 21
2.25309
 31
0.0
  0
LINE
  8
0
 62
     0
 10
325.184
 20
2.25309
 30
0.0
 11
325.177
 21
2.09737
 31
0.0
  0
LINE
  8
0
 62
     0
 10
325.177
 20
2.09737
 30
0.0
 11
325.159
 21
1.94166
 31
0.0
  0
LINE
  8
0
 62
     0
 10
325.159
 20
1.94166
 30
0.0
 11
325.129
 21
1.78732
 31
0.0
  0
LINE
  8
0
 62
     0
 10
325.129
 20
1.78732
 30
0.0
 11
325.086
 21
1.63573
 31
0.0
  0
LINE
  8
0
 62
     0
 10
325.086
 20
1.63573
 30
0.0
 11
325.031
 21
1.48828
 31
0.0
  0
LINE
  8
0
 62
     0
 10
325.031
 20
1.48828
 30
0.0
 11
324.965
 21
1.34634
 31
0.0
  0
LINE
  8
0
 62
     0
 10
324.965
 20
1.34634
 30
0.0
 11
324.889
 21
1.20992
 31
0.0
  0
LINE
  8
0
 62
     0
 10
324.889
 20
1.20992
 30
0.0
 11
324.801
 21
1.079
 31
0.0
  0
LINE
  8
0
 62
     0
 10
324.801
 20
1.079
 30
0.0
 11
324.704
 21
0.95498
 31
0.0
  0
LINE
  8
0
 62
     0
 10
324.704
 20
0.95498
 30
0.0
 11
324.597
 21
0.839227
 31
0.0
  0
LINE
  8
0
 62
     0
 10
324.597
 20
0.839227
 30
0.0
 11
324.483
 21
0.733118
 31
0.0
  0
LINE
  8
0
 62
     0
 10
324.483
 20
0.733118
 30
0.0
 11
324.36
 21
0.635275
 31
0.0
  0
LINE
  8
0
 62
     0
 10
324.36
 20
0.635275
 30
0.0
 11
324.229
 21
0.54846
 31
0.0
  0
LINE
  8
0
 62
     0
 10
324.229
 20
0.54846
 30
0.0
 11
324.091
 21
0.47129
 31
0.0
  0
LINE
  8
0
 62
     0
 10
324.091
 20
0.47129
 30
0.0
 11
323.948
 21
0.40652
 31
0.0
  0
LINE
  8
0
 62
     0
 10
323.948
 20
0.40652
 30
0.0
 11
323.802
 21
0.3514
 31
0.0
  0
LINE
  8
0
 62
     0
 10
323.802
 20
0.3514
 30
0.0
 11
323.65
 21
0.310059
 31
0.0
  0
LINE
  8
0
 62
     0
 10
323.65
 20
0.310059
 30
0.0
 11
323.496
 21
0.278364
 31
0.0
  0
LINE
  8
0
 62
     0
 10
323.496
 20
0.278364
 30
0.0
 11
323.34
 21
0.260449
 31
0.0
  0
LINE
  8
0
 62
     0
 10
323.34
 20
0.260449
 30
0.0
 11
323.183
 21
0.254937
 31
0.0
  0
LINE
  8
0
 62
     0
 10
323.183
 20
0.254937
 30
0.0
 11
2.096
 21
0.253559
 31
0.0
  0
LINE
  8
0
 62
     0
 10
2.096
 20
0.253559
 30
0.0
 11
1.9389
 21
0.260449
 31
0.0
  0
LINE
  8
0
 62
     0
 10
1.9389
 20
0.260449
 30
0.0
 11
1.7818
 21
0.278364
 31
0.0
  0
LINE
  8
0
 62
     0
 10
1.7818
 20
0.278364
 30
0.0
 11
1.62884
 21
0.310059
 31
0.0
  0
LINE
  8
0
 62
     0
 10
1.62884
 20
0.310059
 30
0.0
 11
1.47588
 21
0.3514
 31
0.0
  0
LINE
  8
0
 62
     0
 10
1.47588
 20
0.3514
 30
0.0
 11
1.32981
 21
0.40652
 31
0.0
  0
LINE
  8
0
 62
     0
 10
1.32981
 20
0.40652
 30
0.0
 11
1.18787
 21
0.47129
 31
0.0
  0
LINE
  8
0
 62
     0
 10
1.18787
 20
0.47129
 30
0.0
 11
1.05006
 21
0.54846
 31
0.0
  0
LINE
  8
0
 62
     0
 10
1.05006
 20
0.54846
 30
0.0
 11
0.919152
 21
0.635275
 31
0.0
  0
LINE
  8
0
 62
     0
 10
0.919152
 20
0.635275
 30
0.0
 11
0.796505
 21
0.733118
 31
0.0
  0
LINE
  8
0
 62
     0
 10
0.796505
 20
0.733118
 30
0.0
 11
0.680752
 21
0.839227
 31
0.0
  0
LINE
  8
0
 62
     0
 10
0.680752
 20
0.839227
 30
0.0
 11
0.574643
 21
0.95498
 31
0.0
  0
LINE
  8
0
 62
     0
 10
0.574643
 20
0.95498
 30
0.0
 11
0.4768
 21
1.079
 31
0.0
  0
LINE
  8
0
 62
     0
 10
0.4768
 20
1.079
 30
0.0
 11
0.389985
 21
1.20992
 31
0.0
  0
LINE
  8
0
 62
     0
 10
0.389985
 20
1.20992
 30
0.0
 11
0.312815
 21
1.34634
 31
0.0
  0
LINE
  8
0
 62
     0
 10
0.312815
 20
1.34634
 30
0.0
 11
0.248047
 21
1.48828
 31
0.0
  0
LINE
  8
0
 62
     0
 10
0.248047
 20
1.48828
 30
0.0
 11
0.192925
 21
1.63573
 31
0.0
  0
LINE
  8
0
 62
     0
 10
0.192925
 20
1.63573
 30
0.0
 11
0.150206
 21
1.78732
 31
0.0
  0
LINE
  8
0
 62
     0
 10
0.150206
 20
1.78732
 30
0.0
 11
0.119889
 21
1.94166
 31
0.0
  0
LINE
  8
0
 62
     0
 10
0.119889
 20
1.94166
 30
0.0
 11
0.101975
 21
2.09737
 31
0.0
  0
LINE
  8
0
 62
     0
 10
0.101975
 20
2.09737
 30
0.0
 11
0.0950846
 21
2.25309
 31
0.0
  0
LINE
  8
0
 62
     0
 10
0.0950846
 20
2.25309
 30
0.0
 11
0.0950846
 21
80.4541
 31
0.0
  0
LINE
  8
0
 62
     0
 10
0.0950846
 20
80.4541
 30
0.0
 11
0.101975
 21
80.6111
 31
0.0
  0
LINE
  8
0
 62
     0
 10
0.101975
 20
80.6111
 30
0.0
 11
0.119889
 21
80.7681
 31
0.0
  0
LINE
  8
0
 62
     0
 10
0.119889
 20
80.7681
 30
0.0
 11
0.150206
 21
80.9212
 31
0.0
  0
LINE
  8
0
 62
     0
 10
0.150206
 20
80.9212
 30
0.0
 11
0.192925
 21
81.074
 31
0.0
  0
LINE
  8
0
 62
     0
 10
0.192925
 20
81.074
 30
0.0
 11
0.248047
 21
81.22
 31
0.0
  0
LINE
  8
0
 62
     0
 10
0.248047
 20
81.22
 30
0.0
 11
0.312815
 21
81.3622
 31
0.0
  0
LINE
  8
0
 62
     0
 10
0.312815
 20
81.3622
 30
0.0
 11
0.389985
 21
81.4998
 31
0.0
  0
LINE
  8
0
 62
     0
 10
0.389985
 20
81.4998
 30
0.0
 11
0.4768
 21
81.631
 31
0.0
  0
LINE
  8
0
 62
     0
 10
0.4768
 20
81.631
 30
0.0
 11
0.574643
 21
81.7534
 31
0.0
  0
LINE
  8
0
 62
     0
 10
0.574643
 20
81.7534
 30
0.0
 11
0.680752
 21
81.8691
 31
0.0
  0
LINE
  8
0
 62
     0
 10
0.680752
 20
81.8691
 30
0.0
 11
0.796505
 21
81.9753
 31
0.0
  0
LINE
  8
0
 62
     0
 10
0.796505
 20
81.9753
 30
0.0
 11
0.919152
 21
82.073
 31
0.0
  0
LINE
  8
0
 62
     0
 10
0.919152
 20
82.073
 30
0.0
 11
1.05006
 21
82.1602
 31
0.0
  0
LINE
  8
0
 62
     0
 10
1.05006
 20
82.1602
 30
0.0
 11
1.18787
 21
82.2371
 31
0.0
  0
LINE
  8
0
 62
     0
 10
1.18787
 20
82.2371
 30
0.0
 11
1.32981
 21
82.302
 31
0.0
  0
LINE
  8
0
 62
     0
 10
1.32981
 20
82.302
 30
0.0
 11
1.47588
 21
82.357
 31
0.0
  0
LINE
  8
0
 62
     0
 10
1.47588
 20
82.357
 30
0.0
 11
1.62884
 21
82.3997
 31
0.0
  0
LINE
  8
0
 62
     0
 10
1.62884
 20
82.3997
 30
0.0
 11
1.7818
 21
82.4301
 31
0.0
  0
LINE
  8
0
 62
     0
 10
1.7818
 20
82.4301
 30
0.0
 11
1.9389
 21
82.448
 31
0.0
  0
LINE
  8
0
 62
     0
 10
1.9389
 20
82.448
 30
0.0
 11
2.096
 21
82.4547
 31
0.0
  0
LINE
  8
0
 62
     0
 10
2.096
 20
82.4547
 30
0.0
 11
323.183
 21
82.4547
 31
0.0
  0
LINE
  8
0
 62
     0
 10
196.121
 20
19.779
 30
0.0
 11
196.121
 21
19.1809
 31
0.0
  0
LINE
  8
0
 62
     0
 10
196.121
 20
19.1809
 30
0.0
 11
195.32
 21
19.1809
 31
0.0
  0
LINE
  8
0
 62
     0
 10
195.32
 20
19.1809
 30
0.0
 11
195.32
 21
15.0799
 31
0.0
  0
LINE
  8
0
 62
     0
 10
195.32
 20
15.0799
 30
0.0
 11
194.595
 21
15.0799
 31
0.0
  0
LINE
  8
0
 62
     0
 10
194.595
 20
15.0799
 30
0.0
 11
194.595
 21
18.31
 31
0.0
  0
LINE
  8
0
 62
     0
 10
194.595
 20
18.31
 30
0.0
 11
192.87
 21
18.31
 31
0.0
  0
LINE
  8
0
 62
     0
 10
192.87
 20
18.31
 30
0.0
 11
192.87
 21
19.2291
 31
0.0
  0
LINE
  8
0
 62
     0
 10
192.87
 20
19.2291
 30
0.0
 11
189.57
 21
19.2291
 31
0.0
  0
LINE
  8
0
 62
     0
 10
189.57
 20
19.2291
 30
0.0
 11
189.57
 21
18.31
 31
0.0
  0
LINE
  8
0
 62
     0
 10
189.57
 20
18.31
 30
0.0
 11
187.846
 21
18.31
 31
0.0
  0
LINE
  8
0
 62
     0
 10
187.846
 20
18.31
 30
0.0
 11
187.846
 21
15.0799
 31
0.0
  0
LINE
  8
0
 62
     0
 10
187.846
 20
15.0799
 30
0.0
 11
187.021
 21
15.0799
 31
0.0
  0
LINE
  8
0
 62
     0
 10
187.021
 20
15.0799
 30
0.0
 11
187.021
 21
12.2797
 31
0.0
  0
LINE
  8
0
 62
     0
 10
187.021
 20
12.2797
 30
0.0
 11
187.846
 21
12.2797
 31
0.0
  0
LINE
  8
0
 62
     0
 10
187.846
 20
12.2797
 30
0.0
 11
187.846
 21
6.00964
 31
0.0
  0
LINE
  8
0
 62
     0
 10
187.846
 20
6.00964
 30
0.0
 11
189.57
 21
6.00964
 31
0.0
  0
LINE
  8
0
 62
     0
 10
189.57
 20
6.00964
 30
0.0
 11
189.57
 21
5.02984
 31
0.0
  0
LINE
  8
0
 62
     0
 10
189.57
 20
5.02984
 30
0.0
 11
192.87
 21
5.02984
 31
0.0
  0
LINE
  8
0
 62
     0
 10
192.87
 20
5.02984
 30
0.0
 11
192.87
 21
6.00964
 31
0.0
  0
LINE
  8
0
 62
     0
 10
192.87
 20
6.00964
 30
0.0
 11
194.595
 21
6.00964
 31
0.0
  0
LINE
  8
0
 62
     0
 10
194.595
 20
6.00964
 30
0.0
 11
194.595
 21
10.48
 31
0.0
  0
LINE
  8
0
 62
     0
 10
194.595
 20
10.48
 30
0.0
 11
195.32
 21
10.48
 31
0.0
  0
LINE
  8
0
 62
     0
 10
195.32
 20
10.48
 30
0.0
 11
195.32
 21
6.37893
 31
0.0
  0
LINE
  8
0
 62
     0
 10
195.32
 20
6.37893
 30
0.0
 11
196.121
 21
6.37893
 31
0.0
  0
LINE
  8
0
 62
     0
 10
196.121
 20
6.37893
 30
0.0
 11
196.121
 21
5.77949
 31
0.0
  0
LINE
  8
0
 62
     0
 10
196.121
 20
5.77949
 30
0.0
 11
210.12
 21
5.77949
 31
0.0
  0
LINE
  8
0
 62
     0
 10
210.12
 20
5.77949
 30
0.0
 11
210.12
 21
6.37893
 31
0.0
  0
LINE
  8
0
 62
     0
 10
210.12
 20
6.37893
 30
0.0
 11
210.921
 21
6.37893
 31
0.0
  0
LINE
  8
0
 62
     0
 10
210.921
 20
6.37893
 30
0.0
 11
210.921
 21
10.48
 31
0.0
  0
LINE
  8
0
 62
     0
 10
210.921
 20
10.48
 30
0.0
 11
211.646
 21
10.48
 31
0.0
  0
LINE
  8
0
 62
     0
 10
211.646
 20
10.48
 30
0.0
 11
211.646
 21
6.00964
 31
0.0
  0
LINE
  8
0
 62
     0
 10
211.646
 20
6.00964
 30
0.0
 11
213.37
 21
6.00964
 31
0.0
  0
LINE
  8
0
 62
     0
 10
213.37
 20
6.00964
 30
0.0
 11
213.37
 21
5.02984
 31
0.0
  0
LINE
  8
0
 62
     0
 10
213.37
 20
5.02984
 30
0.0
 11
216.67
 21
5.02984
 31
0.0
  0
LINE
  8
0
 62
     0
 10
216.67
 20
5.02984
 30
0.0
 11
216.67
 21
6.00964
 31
0.0
  0
LINE
  8
0
 62
     0
 10
216.67
 20
6.00964
 30
0.0
 11
218.396
 21
6.00964
 31
0.0
  0
LINE
  8
0
 62
     0
 10
218.396
 20
6.00964
 30
0.0
 11
218.396
 21
12.2797
 31
0.0
  0
LINE
  8
0
 62
     0
 10
218.396
 20
12.2797
 30
0.0
 11
219.221
 21
12.2797
 31
0.0
  0
LINE
  8
0
 62
     0
 10
219.221
 20
12.2797
 30
0.0
 11
219.221
 21
15.0799
 31
0.0
  0
LINE
  8
0
 62
     0
 10
219.221
 20
15.0799
 30
0.0
 11
218.396
 21
15.0799
 31
0.0
  0
LINE
  8
0
 62
     0
 10
218.396
 20
15.0799
 30
0.0
 11
218.396
 21
18.31
 31
0.0
  0
LINE
  8
0
 62
     0
 10
218.396
 20
18.31
 30
0.0
 11
216.67
 21
18.31
 31
0.0
  0
LINE
  8
0
 62
     0
 10
216.67
 20
18.31
 30
0.0
 11
216.67
 21
19.2291
 31
0.0
  0
LINE
  8
0
 62
     0
 10
216.67
 20
19.2291
 30
0.0
 11
213.37
 21
19.2291
 31
0.0
  0
LINE
  8
0
 62
     0
 10
213.37
 20
19.2291
 30
0.0
 11
213.37
 21
18.31
 31
0.0
  0
LINE
  8
0
 62
     0
 10
213.37
 20
18.31
 30
0.0
 11
211.646
 21
18.31
 31
0.0
  0
LINE
  8
0
 62
     0
 10
211.646
 20
18.31
 30
0.0
 11
211.646
 21
15.0799
 31
0.0
  0
LINE
  8
0
 62
     0
 10
211.646
 20
15.0799
 30
0.0
 11
210.921
 21
15.0799
 31
0.0
  0
LINE
  8
0
 62
     0
 10
210.921
 20
15.0799
 30
0.0
 11
210.921
 21
19.1809
 31
0.0
  0
LINE
  8
0
 62
     0
 10
210.921
 20
19.1809
 30
0.0
 11
210.12
 21
19.1809
 31
0.0
  0
LINE
  8
0
 62
     0
 10
210.12
 20
19.1809
 30
0.0
 11
210.12
 21
19.779
 31
0.0
  0
LINE
  8
0
 62
     0
 10
210.12
 20
19.779
 30
0.0
 11
196.121
 21
19.779
 31
0.0
  0
LINE
  8
0
 62
     0
 10
305.657
 20
19.779
 30
0.0
 11
305.657
 21
19.1809
 31
0.0
  0
LINE
  8
0
 62
     0
 10
305.657
 20
19.1809
 30
0.0
 11
304.858
 21
19.1809
 31
0.0
  0
LINE
  8
0
 62
     0
 10
304.858
 20
19.1809
 30
0.0
 11
304.858
 21
6.37893
 31
0.0
  0
LINE
  8
0
 62
     0
 10
304.858
 20
6.37893
 30
0.0
 11
305.657
 21
6.37893
 31
0.0
  0
LINE
  8
0
 62
     0
 10
305.657
 20
6.37893
 30
0.0
 11
305.657
 21
5.77949
 31
0.0
  0
LINE
  8
0
 62
     0
 10
305.657
 20
5.77949
 30
0.0
 11
319.658
 21
5.77949
 31
0.0
  0
LINE
  8
0
 62
     0
 10
319.658
 20
5.77949
 30
0.0
 11
319.658
 21
6.37893
 31
0.0
  0
LINE
  8
0
 62
     0
 10
319.658
 20
6.37893
 30
0.0
 11
320.457
 21
6.37893
 31
0.0
  0
LINE
  8
0
 62
     0
 10
320.457
 20
6.37893
 30
0.0
 11
320.457
 21
19.1809
 31
0.0
  0
LINE
  8
0
 62
     0
 10
320.457
 20
19.1809
 30
0.0
 11
319.658
 21
19.1809
 31
0.0
  0
LINE
  8
0
 62
     0
 10
319.658
 20
19.1809
 30
0.0
 11
319.658
 21
19.779
 31
0.0
  0
LINE
  8
0
 62
     0
 10
319.658
 20
19.779
 30
0.0
 11
305.657
 21
19.779
 31
0.0
  0
LINE
  8
0
 62
     0
 10
286.607
 20
19.779
 30
0.0
 11
286.607
 21
19.1809
 31
0.0
  0
LINE
  8
0
 62
     0
 10
286.607
 20
19.1809
 30
0.0
 11
285.808
 21
19.1809
 31
0.0
  0
LINE
  8
0
 62
     0
 10
285.808
 20
19.1809
 30
0.0
 11
285.808
 21
6.37893
 31
0.0
  0
LINE
  8
0
 62
     0
 10
285.808
 20
6.37893
 30
0.0
 11
286.607
 21
6.37893
 31
0.0
  0
LINE
  8
0
 62
     0
 10
286.607
 20
6.37893
 30
0.0
 11
286.607
 21
5.77949
 31
0.0
  0
LINE
  8
0
 62
     0
 10
286.607
 20
5.77949
 30
0.0
 11
300.608
 21
5.77949
 31
0.0
  0
LINE
  8
0
 62
     0
 10
300.608
 20
5.77949
 30
0.0
 11
300.608
 21
6.37893
 31
0.0
  0
LINE
  8
0
 62
     0
 10
300.608
 20
6.37893
 30
0.0
 11
301.407
 21
6.37893
 31
0.0
  0
LINE
  8
0
 62
     0
 10
301.407
 20
6.37893
 30
0.0
 11
301.407
 21
19.1809
 31
0.0
  0
LINE
  8
0
 62
     0
 10
301.407
 20
19.1809
 30
0.0
 11
300.608
 21
19.1809
 31
0.0
  0
LINE
  8
0
 62
     0
 10
300.608
 20
19.1809
 30
0.0
 11
300.608
 21
19.779
 31
0.0
  0
LINE
  8
0
 62
     0
 10
300.608
 20
19.779
 30
0.0
 11
286.607
 21
19.779
 31
0.0
  0
LINE
  8
0
 62
     0
 10
267.557
 20
19.779
 30
0.0
 11
267.557
 21
19.1809
 31
0.0
  0
LINE
  8
0
 62
     0
 10
267.557
 20
19.1809
 30
0.0
 11
266.758
 21
19.1809
 31
0.0
  0
LINE
  8
0
 62
     0
 10
266.758
 20
19.1809
 30
0.0
 11
266.758
 21
6.37893
 31
0.0
  0
LINE
  8
0
 62
     0
 10
266.758
 20
6.37893
 30
0.0
 11
267.557
 21
6.37893
 31
0.0
  0
LINE
  8
0
 62
     0
 10
267.557
 20
6.37893
 30
0.0
 11
267.557
 21
5.77949
 31
0.0
  0
LINE
  8
0
 62
     0
 10
267.557
 20
5.77949
 30
0.0
 11
281.558
 21
5.77949
 31
0.0
  0
LINE
  8
0
 62
     0
 10
281.558
 20
5.77949
 30
0.0
 11
281.558
 21
6.37893
 31
0.0
  0
LINE
  8
0
 62
     0
 10
281.558
 20
6.37893
 30
0.0
 11
282.357
 21
6.37893
 31
0.0
  0
LINE
  8
0
 62
     0
 10
282.357
 20
6.37893
 30
0.0
 11
282.357
 21
19.1809
 31
0.0
  0
LINE
  8
0
 62
     0
 10
282.357
 20
19.1809
 30
0.0
 11
281.558
 21
19.1809
 31
0.0
  0
LINE
  8
0
 62
     0
 10
281.558
 20
19.1809
 30
0.0
 11
281.558
 21
19.779
 31
0.0
  0
LINE
  8
0
 62
     0
 10
281.558
 20
19.779
 30
0.0
 11
267.557
 21
19.779
 31
0.0
  0
LINE
  8
0
 62
     0
 10
248.507
 20
19.779
 30
0.0
 11
248.507
 21
19.1809
 31
0.0
  0
LINE
  8
0
 62
     0
 10
248.507
 20
19.1809
 30
0.0
 11
247.708
 21
19.1809
 31
0.0
  0
LINE
  8
0
 62
     0
 10
247.708
 20
19.1809
 30
0.0
 11
247.708
 21
6.37893
 31
0.0
  0
LINE
  8
0
 62
     0
 10
247.708
 20
6.37893
 30
0.0
 11
248.507
 21
6.37893
 31
0.0
  0
LINE
  8
0
 62
     0
 10
248.507
 20
6.37893
 30
0.0
 11
248.507
 21
5.77949
 31
0.0
  0
LINE
  8
0
 62
     0
 10
248.507
 20
5.77949
 30
0.0
 11
262.508
 21
5.77949
 31
0.0
  0
LINE
  8
0
 62
     0
 10
262.508
 20
5.77949
 30
0.0
 11
262.508
 21
6.37893
 31
0.0
  0
LINE
  8
0
 62
     0
 10
262.508
 20
6.37893
 30
0.0
 11
263.307
 21
6.37893
 31
0.0
  0
LINE
  8
0
 62
     0
 10
263.307
 20
6.37893
 30
0.0
 11
263.307
 21
19.1809
 31
0.0
  0
LINE
  8
0
 62
     0
 10
263.307
 20
19.1809
 30
0.0
 11
262.508
 21
19.1809
 31
0.0
  0
LINE
  8
0
 62
     0
 10
262.508
 20
19.1809
 30
0.0
 11
262.508
 21
19.779
 31
0.0
  0
LINE
  8
0
 62
     0
 10
262.508
 20
19.779
 30
0.0
 11
248.507
 21
19.779
 31
0.0
  0
LINE
  8
0
 62
     0
 10
227.076
 20
19.779
 30
0.0
 11
227.076
 21
19.1809
 31
0.0
  0
LINE
  8
0
 62
     0
 10
227.076
 20
19.1809
 30
0.0
 11
226.277
 21
19.1809
 31
0.0
  0
LINE
  8
0
 62
     0
 10
226.277
 20
19.1809
 30
0.0
 11
226.277
 21
6.37893
 31
0.0
  0
LINE
  8
0
 62
     0
 10
226.277
 20
6.37893
 30
0.0
 11
227.076
 21
6.37893
 31
0.0
  0
LINE
  8
0
 62
     0
 10
227.076
 20
6.37893
 30
0.0
 11
227.076
 21
5.77949
 31
0.0
  0
LINE
  8
0
 62
     0
 10
227.076
 20
5.77949
 30
0.0
 11
241.077
 21
5.77949
 31
0.0
  0
LINE
  8
0
 62
     0
 10
241.077
 20
5.77949
 30
0.0
 11
241.077
 21
6.37893
 31
0.0
  0
LINE
  8
0
 62
     0
 10
241.077
 20
6.37893
 30
0.0
 11
241.876
 21
6.37893
 31
0.0
  0
LINE
  8
0
 62
     0
 10
241.876
 20
6.37893
 30
0.0
 11
241.876
 21
19.1809
 31
0.0
  0
LINE
  8
0
 62
     0
 10
241.876
 20
19.1809
 30
0.0
 11
241.077
 21
19.1809
 31
0.0
  0
LINE
  8
0
 62
     0
 10
241.077
 20
19.1809
 30
0.0
 11
241.077
 21
19.779
 31
0.0
  0
LINE
  8
0
 62
     0
 10
241.077
 20
19.779
 30
0.0
 11
227.076
 21
19.779
 31
0.0
  0
LINE
  8
0
 62
     0
 10
165.163
 20
19.779
 30
0.0
 11
165.163
 21
19.1809
 31
0.0
  0
LINE
  8
0
 62
     0
 10
165.163
 20
19.1809
 30
0.0
 11
164.364
 21
19.1809
 31
0.0
  0
LINE
  8
0
 62
     0
 10
164.364
 20
19.1809
 30
0.0
 11
164.364
 21
6.37893
 31
0.0
  0
LINE
  8
0
 62
     0
 10
164.364
 20
6.37893
 30
0.0
 11
165.163
 21
6.37893
 31
0.0
  0
LINE
  8
0
 62
     0
 10
165.163
 20
6.37893
 30
0.0
 11
165.163
 21
5.77949
 31
0.0
  0
LINE
  8
0
 62
     0
 10
165.163
 20
5.77949
 30
0.0
 11
179.163
 21
5.77949
 31
0.0
  0
LINE
  8
0
 62
     0
 10
179.163
 20
5.77949
 30
0.0
 11
179.163
 21
6.37893
 31
0.0
  0
LINE
  8
0
 62
     0
 10
179.163
 20
6.37893
 30
0.0
 11
179.964
 21
6.37893
 31
0.0
  0
LINE
  8
0
 62
     0
 10
179.964
 20
6.37893
 30
0.0
 11
179.964
 21
19.1809
 31
0.0
  0
LINE
  8
0
 62
     0
 10
179.964
 20
19.1809
 30
0.0
 11
179.163
 21
19.1809
 31
0.0
  0
LINE
  8
0
 62
     0
 10
179.163
 20
19.1809
 30
0.0
 11
179.163
 21
19.779
 31
0.0
  0
LINE
  8
0
 62
     0
 10
179.163
 20
19.779
 30
0.0
 11
165.163
 21
19.779
 31
0.0
  0
LINE
  8
0
 62
     0
 10
143.732
 20
19.779
 30
0.0
 11
143.732
 21
19.1809
 31
0.0
  0
LINE
  8
0
 62
     0
 10
143.732
 20
19.1809
 30
0.0
 11
142.933
 21
19.1809
 31
0.0
  0
LINE
  8
0
 62
     0
 10
142.933
 20
19.1809
 30
0.0
 11
142.933
 21
6.37893
 31
0.0
  0
LINE
  8
0
 62
     0
 10
142.933
 20
6.37893
 30
0.0
 11
143.732
 21
6.37893
 31
0.0
  0
LINE
  8
0
 62
     0
 10
143.732
 20
6.37893
 30
0.0
 11
143.732
 21
5.77949
 31
0.0
  0
LINE
  8
0
 62
     0
 10
143.732
 20
5.77949
 30
0.0
 11
157.733
 21
5.77949
 31
0.0
  0
LINE
  8
0
 62
     0
 10
157.733
 20
5.77949
 30
0.0
 11
157.733
 21
6.37893
 31
0.0
  0
LINE
  8
0
 62
     0
 10
157.733
 20
6.37893
 30
0.0
 11
158.532
 21
6.37893
 31
0.0
  0
LINE
  8
0
 62
     0
 10
158.532
 20
6.37893
 30
0.0
 11
158.532
 21
19.1809
 31
0.0
  0
LINE
  8
0
 62
     0
 10
158.532
 20
19.1809
 30
0.0
 11
157.733
 21
19.1809
 31
0.0
  0
LINE
  8
0
 62
     0
 10
157.733
 20
19.1809
 30
0.0
 11
157.733
 21
19.779
 31
0.0
  0
LINE
  8
0
 62
     0
 10
157.733
 20
19.779
 30
0.0
 11
143.732
 21
19.779
 31
0.0
  0
LINE
  8
0
 62
     0
 10
124.682
 20
19.779
 30
0.0
 11
124.682
 21
19.1809
 31
0.0
  0
LINE
  8
0
 62
     0
 10
124.682
 20
19.1809
 30
0.0
 11
123.883
 21
19.1809
 31
0.0
  0
LINE
  8
0
 62
     0
 10
123.883
 20
19.1809
 30
0.0
 11
123.883
 21
6.37893
 31
0.0
  0
LINE
  8
0
 62
     0
 10
123.883
 20
6.37893
 30
0.0
 11
124.682
 21
6.37893
 31
0.0
  0
LINE
  8
0
 62
     0
 10
124.682
 20
6.37893
 30
0.0
 11
124.682
 21
5.77949
 31
0.0
  0
LINE
  8
0
 62
     0
 10
124.682
 20
5.77949
 30
0.0
 11
138.683
 21
5.77949
 31
0.0
  0
LINE
  8
0
 62
     0
 10
138.683
 20
5.77949
 30
0.0
 11
138.683
 21
6.37893
 31
0.0
  0
LINE
  8
0
 62
     0
 10
138.683
 20
6.37893
 30
0.0
 11
139.482
 21
6.37893
 31
0.0
  0
LINE
  8
0
 62
     0
 10
139.482
 20
6.37893
 30
0.0
 11
139.482
 21
19.1809
 31
0.0
  0
LINE
  8
0
 62
     0
 10
139.482
 20
19.1809
 30
0.0
 11
138.683
 21
19.1809
 31
0.0
  0
LINE
  8
0
 62
     0
 10
138.683
 20
19.1809
 30
0.0
 11
138.683
 21
19.779
 31
0.0
  0
LINE
  8
0
 62
     0
 10
138.683
 20
19.779
 30
0.0
 11
124.682
 21
19.779
 31
0.0
  0
LINE
  8
0
 62
     0
 10
105.632
 20
19.779
 30
0.0
 11
105.632
 21
19.1809
 31
0.0
  0
LINE
  8
0
 62
     0
 10
105.632
 20
19.1809
 30
0.0
 11
104.833
 21
19.1809
 31
0.0
  0
LINE
  8
0
 62
     0
 10
104.833
 20
19.1809
 30
0.0
 11
104.833
 21
6.37893
 31
0.0
  0
LINE
  8
0
 62
     0
 10
104.833
 20
6.37893
 30
0.0
 11
105.632
 21
6.37893
 31
0.0
  0
LINE
  8
0
 62
     0
 10
105.632
 20
6.37893
 30
0.0
 11
105.632
 21
5.77949
 31
0.0
  0
LINE
  8
0
 62
     0
 10
105.632
 20
5.77949
 30
0.0
 11
119.633
 21
5.77949
 31
0.0
  0
LINE
  8
0
 62
     0
 10
119.633
 20
5.77949
 30
0.0
 11
119.633
 21
6.37893
 31
0.0
  0
LINE
  8
0
 62
     0
 10
119.633
 20
6.37893
 30
0.0
 11
120.432
 21
6.37893
 31
0.0
  0
LINE
  8
0
 62
     0
 10
120.432
 20
6.37893
 30
0.0
 11
120.432
 21
19.1809
 31
0.0
  0
LINE
  8
0
 62
     0
 10
120.432
 20
19.1809
 30
0.0
 11
119.633
 21
19.1809
 31
0.0
  0
LINE
  8
0
 62
     0
 10
119.633
 20
19.1809
 30
0.0
 11
119.633
 21
19.779
 31
0.0
  0
LINE
  8
0
 62
     0
 10
119.633
 20
19.779
 30
0.0
 11
105.632
 21
19.779
 31
0.0
  0
LINE
  8
0
 62
     0
 10
86.5822
 20
19.779
 30
0.0
 11
86.5822
 21
19.1809
 31
0.0
  0
LINE
  8
0
 62
     0
 10
86.5822
 20
19.1809
 30
0.0
 11
85.7829
 21
19.1809
 31
0.0
  0
LINE
  8
0
 62
     0
 10
85.7829
 20
19.1809
 30
0.0
 11
85.7829
 21
6.37893
 31
0.0
  0
LINE
  8
0
 62
     0
 10
85.7829
 20
6.37893
 30
0.0
 11
86.5822
 21
6.37893
 31
0.0
  0
LINE
  8
0
 62
     0
 10
86.5822
 20
6.37893
 30
0.0
 11
86.5822
 21
5.77949
 31
0.0
  0
LINE
  8
0
 62
     0
 10
86.5822
 20
5.77949
 30
0.0
 11
100.583
 21
5.77949
 31
0.0
  0
LINE
  8
0
 62
     0
 10
100.583
 20
5.77949
 30
0.0
 11
100.583
 21
6.37893
 31
0.0
  0
LINE
  8
0
 62
     0
 10
100.583
 20
6.37893
 30
0.0
 11
101.382
 21
6.37893
 31
0.0
  0
LINE
  8
0
 62
     0
 10
101.382
 20
6.37893
 30
0.0
 11
101.382
 21
19.1809
 31
0.0
  0
LINE
  8
0
 62
     0
 10
101.382
 20
19.1809
 30
0.0
 11
100.583
 21
19.1809
 31
0.0
  0
LINE
  8
0
 62
     0
 10
100.583
 20
19.1809
 30
0.0
 11
100.583
 21
19.779
 31
0.0
  0
LINE
  8
0
 62
     0
 10
100.583
 20
19.779
 30
0.0
 11
86.5822
 21
19.779
 31
0.0
  0
LINE
  8
0
 62
     0
 10
62.7712
 20
19.779
 30
0.0
 11
62.7712
 21
19.1809
 31
0.0
  0
LINE
  8
0
 62
     0
 10
62.7712
 20
19.1809
 30
0.0
 11
61.9704
 21
19.1809
 31
0.0
  0
LINE
  8
0
 62
     0
 10
61.9704
 20
19.1809
 30
0.0
 11
61.9704
 21
6.37893
 31
0.0
  0
LINE
  8
0
 62
     0
 10
61.9704
 20
6.37893
 30
0.0
 11
62.7712
 21
6.37893
 31
0.0
  0
LINE
  8
0
 62
     0
 10
62.7712
 20
6.37893
 30
0.0
 11
62.7712
 21
5.77949
 31
0.0
  0
LINE
  8
0
 62
     0
 10
62.7712
 20
5.77949
 30
0.0
 11
76.7704
 21
5.77949
 31
0.0
  0
LINE
  8
0
 62
     0
 10
76.7704
 20
5.77949
 30
0.0
 11
76.7704
 21
6.37893
 31
0.0
  0
LINE
  8
0
 62
     0
 10
76.7704
 20
6.37893
 30
0.0
 11
77.5712
 21
6.37893
 31
0.0
  0
LINE
  8
0
 62
     0
 10
77.5712
 20
6.37893
 30
0.0
 11
77.5712
 21
19.1809
 31
0.0
  0
LINE
  8
0
 62
     0
 10
77.5712
 20
19.1809
 30
0.0
 11
76.7704
 21
19.1809
 31
0.0
  0
LINE
  8
0
 62
     0
 10
76.7704
 20
19.1809
 30
0.0
 11
76.7704
 21
19.779
 31
0.0
  0
LINE
  8
0
 62
     0
 10
76.7704
 20
19.779
 30
0.0
 11
62.7712
 21
19.779
 31
0.0
  0
LINE
  8
0
 62
     0
 10
43.7212
 20
19.779
 30
0.0
 11
43.7212
 21
19.1809
 31
0.0
  0
LINE
  8
0
 62
     0
 10
43.7212
 20
19.1809
 30
0.0
 11
42.9204
 21
19.1809
 31
0.0
  0
LINE
  8
0
 62
     0
 10
42.9204
 20
19.1809
 30
0.0
 11
42.9204
 21
6.37893
 31
0.0
  0
LINE
  8
0
 62
     0
 10
42.9204
 20
6.37893
 30
0.0
 11
43.7212
 21
6.37893
 31
0.0
  0
LINE
  8
0
 62
     0
 10
43.7212
 20
6.37893
 30
0.0
 11
43.7212
 21
5.77949
 31
0.0
  0
LINE
  8
0
 62
     0
 10
43.7212
 20
5.77949
 30
0.0
 11
57.7204
 21
5.77949
 31
0.0
  0
LINE
  8
0
 62
     0
 10
57.7204
 20
5.77949
 30
0.0
 11
57.7204
 21
6.37893
 31
0.0
  0
LINE
  8
0
 62
     0
 10
57.7204
 20
6.37893
 30
0.0
 11
58.5212
 21
6.37893
 31
0.0
  0
LINE
  8
0
 62
     0
 10
58.5212
 20
6.37893
 30
0.0
 11
58.5212
 21
19.1809
 31
0.0
  0
LINE
  8
0
 62
     0
 10
58.5212
 20
19.1809
 30
0.0
 11
57.7204
 21
19.1809
 31
0.0
  0
LINE
  8
0
 62
     0
 10
57.7204
 20
19.1809
 30
0.0
 11
57.7204
 21
19.779
 31
0.0
  0
LINE
  8
0
 62
     0
 10
57.7204
 20
19.779
 30
0.0
 11
43.7212
 21
19.779
 31
0.0
  0
LINE
  8
0
 62
     0
 10
24.671
 20
19.779
 30
0.0
 11
24.671
 21
19.1809
 31
0.0
  0
LINE
  8
0
 62
     0
 10
24.671
 20
19.1809
 30
0.0
 11
23.8704
 21
19.1809
 31
0.0
  0
LINE
  8
0
 62
     0
 10
23.8704
 20
19.1809
 30
0.0
 11
23.8704
 21
6.37893
 31
0.0
  0
LINE
  8
0
 62
     0
 10
23.8704
 20
6.37893
 30
0.0
 11
24.671
 21
6.37893
 31
0.0
  0
LINE
  8
0
 62
     0
 10
24.671
 20
6.37893
 30
0.0
 11
24.671
 21
5.77949
 31
0.0
  0
LINE
  8
0
 62
     0
 10
24.671
 20
5.77949
 30
0.0
 11
38.6704
 21
5.77949
 31
0.0
  0
LINE
  8
0
 62
     0
 10
38.6704
 20
5.77949
 30
0.0
 11
38.6704
 21
6.37893
 31
0.0
  0
LINE
  8
0
 62
     0
 10
38.6704
 20
6.37893
 30
0.0
 11
39.4712
 21
6.37893
 31
0.0
  0
LINE
  8
0
 62
     0
 10
39.4712
 20
6.37893
 30
0.0
 11
39.4712
 21
19.1809
 31
0.0
  0
LINE
  8
0
 62
     0
 10
39.4712
 20
19.1809
 30
0.0
 11
38.6704
 21
19.1809
 31
0.0
  0
LINE
  8
0
 62
     0
 10
38.6704
 20
19.1809
 30
0.0
 11
38.6704
 21
19.779
 31
0.0
  0
LINE
  8
0
 62
     0
 10
38.6704
 20
19.779
 30
0.0
 11
24.671
 21
19.779
 31
0.0
  0
LINE
  8
0
 62
     0
 10
5.61964
 20
19.779
 30
0.0
 11
5.61964
 21
19.1809
 31
0.0
  0
LINE
  8
0
 62
     0
 10
5.61964
 20
19.1809
 30
0.0
 11
4.81902
 21
19.1809
 31
0.0
  0
LINE
  8
0
 62
     0
 10
4.81902
 20
19.1809
 30
0.0
 11
4.81902
 21
6.37893
 31
0.0
  0
LINE
  8
0
 62
     0
 10
4.81902
 20
6.37893
 30
0.0
 11
5.61964
 21
6.37893
 31
0.0
  0
LINE
  8
0
 62
     0
 10
5.61964
 20
6.37893
 30
0.0
 11
5.61964
 21
5.77949
 31
0.0
  0
LINE
  8
0
 62
     0
 10
5.61964
 20
5.77949
 30
0.0
 11
19.6205
 21
5.77949
 31
0.0
  0
LINE
  8
0
 62
     0
 10
19.6205
 20
5.77949
 30
0.0
 11
19.6205
 21
6.37893
 31
0.0
  0
LINE
  8
0
 62
     0
 10
19.6205
 20
6.37893
 30
0.0
 11
20.4211
 21
6.37893
 31
0.0
  0
LINE
  8
0
 62
     0
 10
20.4211
 20
6.37893
 30
0.0
 11
20.4211
 21
19.1809
 31
0.0
  0
LINE
  8
0
 62
     0
 10
20.4211
 20
19.1809
 30
0.0
 11
19.6205
 21
19.1809
 31
0.0
  0
LINE
  8
0
 62
     0
 10
19.6205
 20
19.1809
 30
0.0
 11
19.6205
 21
19.779
 31
0.0
  0
LINE
  8
0
 62
     0
 10
19.6205
 20
19.779
 30
0.0
 11
5.61964
 21
19.779
 31
0.0
  0
LINE
  8
0
 62
     0
 10
305.657
 20
38.8288
 30
0.0
 11
305.657
 21
38.2295
 31
0.0
  0
LINE
  8
0
 62
     0
 10
305.657
 20
38.2295
 30
0.0
 11
304.858
 21
38.2295
 31
0.0
  0
LINE
  8
0
 62
     0
 10
304.858
 20
38.2295
 30
0.0
 11
304.858
 21
25.4289
 31
0.0
  0
LINE
  8
0
 62
     0
 10
304.858
 20
25.4289
 30
0.0
 11
305.657
 21
25.4289
 31
0.0
  0
LINE
  8
0
 62
     0
 10
305.657
 20
25.4289
 30
0.0
 11
305.657
 21
24.8295
 31
0.0
  0
LINE
  8
0
 62
     0
 10
305.657
 20
24.8295
 30
0.0
 11
319.658
 21
24.8295
 31
0.0
  0
LINE
  8
0
 62
     0
 10
319.658
 20
24.8295
 30
0.0
 11
319.658
 21
25.4289
 31
0.0
  0
LINE
  8
0
 62
     0
 10
319.658
 20
25.4289
 30
0.0
 11
320.457
 21
25.4289
 31
0.0
  0
LINE
  8
0
 62
     0
 10
320.457
 20
25.4289
 30
0.0
 11
320.457
 21
38.2295
 31
0.0
  0
LINE
  8
0
 62
     0
 10
320.457
 20
38.2295
 30
0.0
 11
319.658
 21
38.2295
 31
0.0
  0
LINE
  8
0
 62
     0
 10
319.658
 20
38.2295
 30
0.0
 11
319.658
 21
38.8288
 31
0.0
  0
LINE
  8
0
 62
     0
 10
319.658
 20
38.8288
 30
0.0
 11
305.657
 21
38.8288
 31
0.0
  0
LINE
  8
0
 62
     0
 10
286.607
 20
38.8288
 30
0.0
 11
286.607
 21
38.2295
 31
0.0
  0
LINE
  8
0
 62
     0
 10
286.607
 20
38.2295
 30
0.0
 11
285.808
 21
38.2295
 31
0.0
  0
LINE
  8
0
 62
     0
 10
285.808
 20
38.2295
 30
0.0
 11
285.808
 21
25.4289
 31
0.0
  0
LINE
  8
0
 62
     0
 10
285.808
 20
25.4289
 30
0.0
 11
286.607
 21
25.4289
 31
0.0
  0
LINE
  8
0
 62
     0
 10
286.607
 20
25.4289
 30
0.0
 11
286.607
 21
24.8295
 31
0.0
  0
LINE
  8
0
 62
     0
 10
286.607
 20
24.8295
 30
0.0
 11
300.608
 21
24.8295
 31
0.0
  0
LINE
  8
0
 62
     0
 10
300.608
 20
24.8295
 30
0.0
 11
300.608
 21
25.4289
 31
0.0
  0
LINE
  8
0
 62
     0
 10
300.608
 20
25.4289
 30
0.0
 11
301.407
 21
25.4289
 31
0.0
  0
LINE
  8
0
 62
     0
 10
301.407
 20
25.4289
 30
0.0
 11
301.407
 21
38.2295
 31
0.0
  0
LINE
  8
0
 62
     0
 10
301.407
 20
38.2295
 30
0.0
 11
300.608
 21
38.2295
 31
0.0
  0
LINE
  8
0
 62
     0
 10
300.608
 20
38.2295
 30
0.0
 11
300.608
 21
38.8288
 31
0.0
  0
LINE
  8
0
 62
     0
 10
300.608
 20
38.8288
 30
0.0
 11
286.607
 21
38.8288
 31
0.0
  0
LINE
  8
0
 62
     0
 10
267.557
 20
38.8288
 30
0.0
 11
267.557
 21
38.2295
 31
0.0
  0
LINE
  8
0
 62
     0
 10
267.557
 20
38.2295
 30
0.0
 11
266.758
 21
38.2295
 31
0.0
  0
LINE
  8
0
 62
     0
 10
266.758
 20
38.2295
 30
0.0
 11
266.758
 21
25.4289
 31
0.0
  0
LINE
  8
0
 62
     0
 10
266.758
 20
25.4289
 30
0.0
 11
267.557
 21
25.4289
 31
0.0
  0
LINE
  8
0
 62
     0
 10
267.557
 20
25.4289
 30
0.0
 11
267.557
 21
24.8295
 31
0.0
  0
LINE
  8
0
 62
     0
 10
267.557
 20
24.8295
 30
0.0
 11
281.558
 21
24.8295
 31
0.0
  0
LINE
  8
0
 62
     0
 10
281.558
 20
24.8295
 30
0.0
 11
281.558
 21
25.4289
 31
0.0
  0
LINE
  8
0
 62
     0
 10
281.558
 20
25.4289
 30
0.0
 11
282.357
 21
25.4289
 31
0.0
  0
LINE
  8
0
 62
     0
 10
282.357
 20
25.4289
 30
0.0
 11
282.357
 21
38.2295
 31
0.0
  0
LINE
  8
0
 62
     0
 10
282.357
 20
38.2295
 30
0.0
 11
281.558
 21
38.2295
 31
0.0
  0
LINE
  8
0
 62
     0
 10
281.558
 20
38.2295
 30
0.0
 11
281.558
 21
38.8288
 31
0.0
  0
LINE
  8
0
 62
     0
 10
281.558
 20
38.8288
 30
0.0
 11
267.557
 21
38.8288
 31
0.0
  0
LINE
  8
0
 62
     0
 10
248.507
 20
38.8288
 30
0.0
 11
248.507
 21
38.2295
 31
0.0
  0
LINE
  8
0
 62
     0
 10
248.507
 20
38.2295
 30
0.0
 11
247.708
 21
38.2295
 31
0.0
  0
LINE
  8
0
 62
     0
 10
247.708
 20
38.2295
 30
0.0
 11
247.708
 21
25.4289
 31
0.0
  0
LINE
  8
0
 62
     0
 10
247.708
 20
25.4289
 30
0.0
 11
248.507
 21
25.4289
 31
0.0
  0
LINE
  8
0
 62
     0
 10
248.507
 20
25.4289
 30
0.0
 11
248.507
 21
24.8295
 31
0.0
  0
LINE
  8
0
 62
     0
 10
248.507
 20
24.8295
 30
0.0
 11
262.508
 21
24.8295
 31
0.0
  0
LINE
  8
0
 62
     0
 10
262.508
 20
24.8295
 30
0.0
 11
262.508
 21
25.4289
 31
0.0
  0
LINE
  8
0
 62
     0
 10
262.508
 20
25.4289
 30
0.0
 11
263.307
 21
25.4289
 31
0.0
  0
LINE
  8
0
 62
     0
 10
263.307
 20
25.4289
 30
0.0
 11
263.307
 21
38.2295
 31
0.0
  0
LINE
  8
0
 62
     0
 10
263.307
 20
38.2295
 30
0.0
 11
262.508
 21
38.2295
 31
0.0
  0
LINE
  8
0
 62
     0
 10
262.508
 20
38.2295
 30
0.0
 11
262.508
 21
38.8288
 31
0.0
  0
LINE
  8
0
 62
     0
 10
262.508
 20
38.8288
 30
0.0
 11
248.507
 21
38.8288
 31
0.0
  0
LINE
  8
0
 62
     0
 10
229.457
 20
38.8288
 30
0.0
 11
229.457
 21
38.2295
 31
0.0
  0
LINE
  8
0
 62
     0
 10
229.457
 20
38.2295
 30
0.0
 11
228.658
 21
38.2295
 31
0.0
  0
LINE
  8
0
 62
     0
 10
228.658
 20
38.2295
 30
0.0
 11
228.658
 21
25.4289
 31
0.0
  0
LINE
  8
0
 62
     0
 10
228.658
 20
25.4289
 30
0.0
 11
229.457
 21
25.4289
 31
0.0
  0
LINE
  8
0
 62
     0
 10
229.457
 20
25.4289
 30
0.0
 11
229.457
 21
24.8295
 31
0.0
  0
LINE
  8
0
 62
     0
 10
229.457
 20
24.8295
 30
0.0
 11
243.458
 21
24.8295
 31
0.0
  0
LINE
  8
0
 62
     0
 10
243.458
 20
24.8295
 30
0.0
 11
243.458
 21
25.4289
 31
0.0
  0
LINE
  8
0
 62
     0
 10
243.458
 20
25.4289
 30
0.0
 11
244.257
 21
25.4289
 31
0.0
  0
LINE
  8
0
 62
     0
 10
244.257
 20
25.4289
 30
0.0
 11
244.257
 21
38.2295
 31
0.0
  0
LINE
  8
0
 62
     0
 10
244.257
 20
38.2295
 30
0.0
 11
243.458
 21
38.2295
 31
0.0
  0
LINE
  8
0
 62
     0
 10
243.458
 20
38.2295
 30
0.0
 11
243.458
 21
38.8288
 31
0.0
  0
LINE
  8
0
 62
     0
 10
243.458
 20
38.8288
 30
0.0
 11
229.457
 21
38.8288
 31
0.0
  0
LINE
  8
0
 62
     0
 10
210.407
 20
38.8288
 30
0.0
 11
210.407
 21
38.2295
 31
0.0
  0
LINE
  8
0
 62
     0
 10
210.407
 20
38.2295
 30
0.0
 11
209.608
 21
38.2295
 31
0.0
  0
LINE
  8
0
 62
     0
 10
209.608
 20
38.2295
 30
0.0
 11
209.608
 21
25.4289
 31
0.0
  0
LINE
  8
0
 62
     0
 10
209.608
 20
25.4289
 30
0.0
 11
210.407
 21
25.4289
 31
0.0
  0
LINE
  8
0
 62
     0
 10
210.407
 20
25.4289
 30
0.0
 11
210.407
 21
24.8295
 31
0.0
  0
LINE
  8
0
 62
     0
 10
210.407
 20
24.8295
 30
0.0
 11
224.408
 21
24.8295
 31
0.0
  0
LINE
  8
0
 62
     0
 10
224.408
 20
24.8295
 30
0.0
 11
224.408
 21
25.4289
 31
0.0
  0
LINE
  8
0
 62
     0
 10
224.408
 20
25.4289
 30
0.0
 11
225.207
 21
25.4289
 31
0.0
  0
LINE
  8
0
 62
     0
 10
225.207
 20
25.4289
 30
0.0
 11
225.207
 21
38.2295
 31
0.0
  0
LINE
  8
0
 62
     0
 10
225.207
 20
38.2295
 30
0.0
 11
224.408
 21
38.2295
 31
0.0
  0
LINE
  8
0
 62
     0
 10
224.408
 20
38.2295
 30
0.0
 11
224.408
 21
38.8288
 31
0.0
  0
LINE
  8
0
 62
     0
 10
224.408
 20
38.8288
 30
0.0
 11
210.407
 21
38.8288
 31
0.0
  0
LINE
  8
0
 62
     0
 10
181.832
 20
38.8288
 30
0.0
 11
181.832
 21
38.2295
 31
0.0
  0
LINE
  8
0
 62
     0
 10
181.832
 20
38.2295
 30
0.0
 11
181.033
 21
38.2295
 31
0.0
  0
LINE
  8
0
 62
     0
 10
181.033
 20
38.2295
 30
0.0
 11
181.033
 21
25.4289
 31
0.0
  0
LINE
  8
0
 62
     0
 10
181.033
 20
25.4289
 30
0.0
 11
181.832
 21
25.4289
 31
0.0
  0
LINE
  8
0
 62
     0
 10
181.832
 20
25.4289
 30
0.0
 11
181.832
 21
24.8295
 31
0.0
  0
LINE
  8
0
 62
     0
 10
181.832
 20
24.8295
 30
0.0
 11
195.833
 21
24.8295
 31
0.0
  0
LINE
  8
0
 62
     0
 10
195.833
 20
24.8295
 30
0.0
 11
195.833
 21
25.4289
 31
0.0
  0
LINE
  8
0
 62
     0
 10
195.833
 20
25.4289
 30
0.0
 11
196.632
 21
25.4289
 31
0.0
  0
LINE
  8
0
 62
     0
 10
196.632
 20
25.4289
 30
0.0
 11
196.632
 21
38.2295
 31
0.0
  0
LINE
  8
0
 62
     0
 10
196.632
 20
38.2295
 30
0.0
 11
195.833
 21
38.2295
 31
0.0
  0
LINE
  8
0
 62
     0
 10
195.833
 20
38.2295
 30
0.0
 11
195.833
 21
38.8288
 31
0.0
  0
LINE
  8
0
 62
     0
 10
195.833
 20
38.8288
 30
0.0
 11
181.832
 21
38.8288
 31
0.0
  0
LINE
  8
0
 62
     0
 10
162.782
 20
38.8288
 30
0.0
 11
162.782
 21
38.2295
 31
0.0
  0
LINE
  8
0
 62
     0
 10
162.782
 20
38.2295
 30
0.0
 11
161.983
 21
38.2295
 31
0.0
  0
LINE
  8
0
 62
     0
 10
161.983
 20
38.2295
 30
0.0
 11
161.983
 21
25.4289
 31
0.0
  0
LINE
  8
0
 62
     0
 10
161.983
 20
25.4289
 30
0.0
 11
162.782
 21
25.4289
 31
0.0
  0
LINE
  8
0
 62
     0
 10
162.782
 20
25.4289
 30
0.0
 11
162.782
 21
24.8295
 31
0.0
  0
LINE
  8
0
 62
     0
 10
162.782
 20
24.8295
 30
0.0
 11
176.783
 21
24.8295
 31
0.0
  0
LINE
  8
0
 62
     0
 10
176.783
 20
24.8295
 30
0.0
 11
176.783
 21
25.4289
 31
0.0
  0
LINE
  8
0
 62
     0
 10
176.783
 20
25.4289
 30
0.0
 11
177.582
 21
25.4289
 31
0.0
  0
LINE
  8
0
 62
     0
 10
177.582
 20
25.4289
 30
0.0
 11
177.582
 21
38.2295
 31
0.0
  0
LINE
  8
0
 62
     0
 10
177.582
 20
38.2295
 30
0.0
 11
176.783
 21
38.2295
 31
0.0
  0
LINE
  8
0
 62
     0
 10
176.783
 20
38.2295
 30
0.0
 11
176.783
 21
38.8288
 31
0.0
  0
LINE
  8
0
 62
     0
 10
176.783
 20
38.8288
 30
0.0
 11
162.782
 21
38.8288
 31
0.0
  0
LINE
  8
0
 62
     0
 10
143.732
 20
38.8288
 30
0.0
 11
143.732
 21
38.2295
 31
0.0
  0
LINE
  8
0
 62
     0
 10
143.732
 20
38.2295
 30
0.0
 11
142.933
 21
38.2295
 31
0.0
  0
LINE
  8
0
 62
     0
 10
142.933
 20
38.2295
 30
0.0
 11
142.933
 21
25.4289
 31
0.0
  0
LINE
  8
0
 62
     0
 10
142.933
 20
25.4289
 30
0.0
 11
143.732
 21
25.4289
 31
0.0
  0
LINE
  8
0
 62
     0
 10
143.732
 20
25.4289
 30
0.0
 11
143.732
 21
24.8295
 31
0.0
  0
LINE
  8
0
 62
     0
 10
143.732
 20
24.8295
 30
0.0
 11
157.733
 21
24.8295
 31
0.0
  0
LINE
  8
0
 62
     0
 10
157.733
 20
24.8295
 30
0.0
 11
157.733
 21
25.4289
 31
0.0
  0
LINE
  8
0
 62
     0
 10
157.733
 20
25.4289
 30
0.0
 11
158.532
 21
25.4289
 31
0.0
  0
LINE
  8
0
 62
     0
 10
158.532
 20
25.4289
 30
0.0
 11
158.532
 21
38.2295
 31
0.0
  0
LINE
  8
0
 62
     0
 10
158.532
 20
38.2295
 30
0.0
 11
157.733
 21
38.2295
 31
0.0
  0
LINE
  8
0
 62
     0
 10
157.733
 20
38.2295
 30
0.0
 11
157.733
 21
38.8288
 31
0.0
  0
LINE
  8
0
 62
     0
 10
157.733
 20
38.8288
 30
0.0
 11
143.732
 21
38.8288
 31
0.0
  0
LINE
  8
0
 62
     0
 10
124.682
 20
38.8288
 30
0.0
 11
124.682
 21
38.2295
 31
0.0
  0
LINE
  8
0
 62
     0
 10
124.682
 20
38.2295
 30
0.0
 11
123.883
 21
38.2295
 31
0.0
  0
LINE
  8
0
 62
     0
 10
123.883
 20
38.2295
 30
0.0
 11
123.883
 21
25.4289
 31
0.0
  0
LINE
  8
0
 62
     0
 10
123.883
 20
25.4289
 30
0.0
 11
124.682
 21
25.4289
 31
0.0
  0
LINE
  8
0
 62
     0
 10
124.682
 20
25.4289
 30
0.0
 11
124.682
 21
24.8295
 31
0.0
  0
LINE
  8
0
 62
     0
 10
124.682
 20
24.8295
 30
0.0
 11
138.683
 21
24.8295
 31
0.0
  0
LINE
  8
0
 62
     0
 10
138.683
 20
24.8295
 30
0.0
 11
138.683
 21
25.4289
 31
0.0
  0
LINE
  8
0
 62
     0
 10
138.683
 20
25.4289
 30
0.0
 11
139.482
 21
25.4289
 31
0.0
  0
LINE
  8
0
 62
     0
 10
139.482
 20
25.4289
 30
0.0
 11
139.482
 21
38.2295
 31
0.0
  0
LINE
  8
0
 62
     0
 10
139.482
 20
38.2295
 30
0.0
 11
138.683
 21
38.2295
 31
0.0
  0
LINE
  8
0
 62
     0
 10
138.683
 20
38.2295
 30
0.0
 11
138.683
 21
38.8288
 31
0.0
  0
LINE
  8
0
 62
     0
 10
138.683
 20
38.8288
 30
0.0
 11
124.682
 21
38.8288
 31
0.0
  0
LINE
  8
0
 62
     0
 10
105.632
 20
38.8288
 30
0.0
 11
105.632
 21
38.2295
 31
0.0
  0
LINE
  8
0
 62
     0
 10
105.632
 20
38.2295
 30
0.0
 11
104.833
 21
38.2295
 31
0.0
  0
LINE
  8
0
 62
     0
 10
104.833
 20
38.2295
 30
0.0
 11
104.833
 21
25.4289
 31
0.0
  0
LINE
  8
0
 62
     0
 10
104.833
 20
25.4289
 30
0.0
 11
105.632
 21
25.4289
 31
0.0
  0
LINE
  8
0
 62
     0
 10
105.632
 20
25.4289
 30
0.0
 11
105.632
 21
24.8295
 31
0.0
  0
LINE
  8
0
 62
     0
 10
105.632
 20
24.8295
 30
0.0
 11
119.633
 21
24.8295
 31
0.0
  0
LINE
  8
0
 62
     0
 10
119.633
 20
24.8295
 30
0.0
 11
119.633
 21
25.4289
 31
0.0
  0
LINE
  8
0
 62
     0
 10
119.633
 20
25.4289
 30
0.0
 11
120.432
 21
25.4289
 31
0.0
  0
LINE
  8
0
 62
     0
 10
120.432
 20
25.4289
 30
0.0
 11
120.432
 21
38.2295
 31
0.0
  0
LINE
  8
0
 62
     0
 10
120.432
 20
38.2295
 30
0.0
 11
119.633
 21
38.2295
 31
0.0
  0
LINE
  8
0
 62
     0
 10
119.633
 20
38.2295
 30
0.0
 11
119.633
 21
38.8288
 31
0.0
  0
LINE
  8
0
 62
     0
 10
119.633
 20
38.8288
 30
0.0
 11
105.632
 21
38.8288
 31
0.0
  0
LINE
  8
0
 62
     0
 10
86.5822
 20
38.8288
 30
0.0
 11
86.5822
 21
38.2295
 31
0.0
  0
LINE
  8
0
 62
     0
 10
86.5822
 20
38.2295
 30
0.0
 11
85.7829
 21
38.2295
 31
0.0
  0
LINE
  8
0
 62
     0
 10
85.7829
 20
38.2295
 30
0.0
 11
85.7829
 21
25.4289
 31
0.0
  0
LINE
  8
0
 62
     0
 10
85.7829
 20
25.4289
 30
0.0
 11
86.5822
 21
25.4289
 31
0.0
  0
LINE
  8
0
 62
     0
 10
86.5822
 20
25.4289
 30
0.0
 11
86.5822
 21
24.8295
 31
0.0
  0
LINE
  8
0
 62
     0
 10
86.5822
 20
24.8295
 30
0.0
 11
100.583
 21
24.8295
 31
0.0
  0
LINE
  8
0
 62
     0
 10
100.583
 20
24.8295
 30
0.0
 11
100.583
 21
25.4289
 31
0.0
  0
LINE
  8
0
 62
     0
 10
100.583
 20
25.4289
 30
0.0
 11
101.382
 21
25.4289
 31
0.0
  0
LINE
  8
0
 62
     0
 10
101.382
 20
25.4289
 30
0.0
 11
101.382
 21
38.2295
 31
0.0
  0
LINE
  8
0
 62
     0
 10
101.382
 20
38.2295
 30
0.0
 11
100.583
 21
38.2295
 31
0.0
  0
LINE
  8
0
 62
     0
 10
100.583
 20
38.2295
 30
0.0
 11
100.583
 21
38.8288
 31
0.0
  0
LINE
  8
0
 62
     0
 10
100.583
 20
38.8288
 30
0.0
 11
86.5822
 21
38.8288
 31
0.0
  0
LINE
  8
0
 62
     0
 10
62.7712
 20
38.8288
 30
0.0
 11
62.7712
 21
38.2295
 31
0.0
  0
LINE
  8
0
 62
     0
 10
62.7712
 20
38.2295
 30
0.0
 11
61.9704
 21
38.2295
 31
0.0
  0
LINE
  8
0
 62
     0
 10
61.9704
 20
38.2295
 30
0.0
 11
61.9704
 21
25.4289
 31
0.0
  0
LINE
  8
0
 62
     0
 10
61.9704
 20
25.4289
 30
0.0
 11
62.7712
 21
25.4289
 31
0.0
  0
LINE
  8
0
 62
     0
 10
62.7712
 20
25.4289
 30
0.0
 11
62.7712
 21
24.8295
 31
0.0
  0
LINE
  8
0
 62
     0
 10
62.7712
 20
24.8295
 30
0.0
 11
76.7704
 21
24.8295
 31
0.0
  0
LINE
  8
0
 62
     0
 10
76.7704
 20
24.8295
 30
0.0
 11
76.7704
 21
25.4289
 31
0.0
  0
LINE
  8
0
 62
     0
 10
76.7704
 20
25.4289
 30
0.0
 11
77.5712
 21
25.4289
 31
0.0
  0
LINE
  8
0
 62
     0
 10
77.5712
 20
25.4289
 30
0.0
 11
77.5712
 21
38.2295
 31
0.0
  0
LINE
  8
0
 62
     0
 10
77.5712
 20
38.2295
 30
0.0
 11
76.7704
 21
38.2295
 31
0.0
  0
LINE
  8
0
 62
     0
 10
76.7704
 20
38.2295
 30
0.0
 11
76.7704
 21
38.8288
 31
0.0
  0
LINE
  8
0
 62
     0
 10
76.7704
 20
38.8288
 30
0.0
 11
62.7712
 21
38.8288
 31
0.0
  0
LINE
  8
0
 62
     0
 10
43.7212
 20
38.8288
 30
0.0
 11
43.7212
 21
38.2295
 31
0.0
  0
LINE
  8
0
 62
     0
 10
43.7212
 20
38.2295
 30
0.0
 11
42.9204
 21
38.2295
 31
0.0
  0
LINE
  8
0
 62
     0
 10
42.9204
 20
38.2295
 30
0.0
 11
42.9204
 21
25.4289
 31
0.0
  0
LINE
  8
0
 62
     0
 10
42.9204
 20
25.4289
 30
0.0
 11
43.7212
 21
25.4289
 31
0.0
  0
LINE
  8
0
 62
     0
 10
43.7212
 20
25.4289
 30
0.0
 11
43.7212
 21
24.8295
 31
0.0
  0
LINE
  8
0
 62
     0
 10
43.7212
 20
24.8295
 30
0.0
 11
57.7204
 21
24.8295
 31
0.0
  0
LINE
  8
0
 62
     0
 10
57.7204
 20
24.8295
 30
0.0
 11
57.7204
 21
25.4289
 31
0.0
  0
LINE
  8
0
 62
     0
 10
57.7204
 20
25.4289
 30
0.0
 11
58.5212
 21
25.4289
 31
0.0
  0
LINE
  8
0
 62
     0
 10
58.5212
 20
25.4289
 30
0.0
 11
58.5212
 21
38.2295
 31
0.0
  0
LINE
  8
0
 62
     0
 10
58.5212
 20
38.2295
 30
0.0
 11
57.7204
 21
38.2295
 31
0.0
  0
LINE
  8
0
 62
     0
 10
57.7204
 20
38.2295
 30
0.0
 11
57.7204
 21
38.8288
 31
0.0
  0
LINE
  8
0
 62
     0
 10
57.7204
 20
38.8288
 30
0.0
 11
43.7212
 21
38.8288
 31
0.0
  0
LINE
  8
0
 62
     0
 10
24.671
 20
38.8288
 30
0.0
 11
24.671
 21
38.2295
 31
0.0
  0
LINE
  8
0
 62
     0
 10
24.671
 20
38.2295
 30
0.0
 11
23.8704
 21
38.2295
 31
0.0
  0
LINE
  8
0
 62
     0
 10
23.8704
 20
38.2295
 30
0.0
 11
23.8704
 21
25.4289
 31
0.0
  0
LINE
  8
0
 62
     0
 10
23.8704
 20
25.4289
 30
0.0
 11
24.671
 21
25.4289
 31
0.0
  0
LINE
  8
0
 62
     0
 10
24.671
 20
25.4289
 30
0.0
 11
24.671
 21
24.8295
 31
0.0
  0
LINE
  8
0
 62
     0
 10
24.671
 20
24.8295
 30
0.0
 11
38.6704
 21
24.8295
 31
0.0
  0
LINE
  8
0
 62
     0
 10
38.6704
 20
24.8295
 30
0.0
 11
38.6704
 21
25.4289
 31
0.0
  0
LINE
  8
0
 62
     0
 10
38.6704
 20
25.4289
 30
0.0
 11
39.4712
 21
25.4289
 31
0.0
  0
LINE
  8
0
 62
     0
 10
39.4712
 20
25.4289
 30
0.0
 11
39.4712
 21
38.2295
 31
0.0
  0
LINE
  8
0
 62
     0
 10
39.4712
 20
38.2295
 30
0.0
 11
38.6704
 21
38.2295
 31
0.0
  0
LINE
  8
0
 62
     0
 10
38.6704
 20
38.2295
 30
0.0
 11
38.6704
 21
38.8288
 31
0.0
  0
LINE
  8
0
 62
     0
 10
38.6704
 20
38.8288
 30
0.0
 11
24.671
 21
38.8288
 31
0.0
  0
LINE
  8
0
 62
     0
 10
5.61964
 20
38.8288
 30
0.0
 11
5.61964
 21
38.2295
 31
0.0
  0
LINE
  8
0
 62
     0
 10
5.61964
 20
38.2295
 30
0.0
 11
4.81902
 21
38.2295
 31
0.0
  0
LINE
  8
0
 62
     0
 10
4.81902
 20
38.2295
 30
0.0
 11
4.81902
 21
25.4289
 31
0.0
  0
LINE
  8
0
 62
     0
 10
4.81902
 20
25.4289
 30
0.0
 11
5.61964
 21
25.4289
 31
0.0
  0
LINE
  8
0
 62
     0
 10
5.61964
 20
25.4289
 30
0.0
 11
5.61964
 21
24.8295
 31
0.0
  0
LINE
  8
0
 62
     0
 10
5.61964
 20
24.8295
 30
0.0
 11
19.6205
 21
24.8295
 31
0.0
  0
LINE
  8
0
 62
     0
 10
19.6205
 20
24.8295
 30
0.0
 11
19.6205
 21
25.4289
 31
0.0
  0
LINE
  8
0
 62
     0
 10
19.6205
 20
25.4289
 30
0.0
 11
20.4211
 21
25.4289
 31
0.0
  0
LINE
  8
0
 62
     0
 10
20.4211
 20
25.4289
 30
0.0
 11
20.4211
 21
38.2295
 31
0.0
  0
LINE
  8
0
 62
     0
 10
20.4211
 20
38.2295
 30
0.0
 11
19.6205
 21
38.2295
 31
0.0
  0
LINE
  8
0
 62
     0
 10
19.6205
 20
38.2295
 30
0.0
 11
19.6205
 21
38.8288
 31
0.0
  0
LINE
  8
0
 62
     0
 10
19.6205
 20
38.8288
 30
0.0
 11
5.61964
 21
38.8288
 31
0.0
  0
LINE
  8
0
 62
     0
 10
305.657
 20
57.8788
 30
0.0
 11
305.657
 21
57.2795
 31
0.0
  0
LINE
  8
0
 62
     0
 10
305.657
 20
57.2795
 30
0.0
 11
304.858
 21
57.2795
 31
0.0
  0
LINE
  8
0
 62
     0
 10
304.858
 20
57.2795
 30
0.0
 11
304.858
 21
44.4789
 31
0.0
  0
LINE
  8
0
 62
     0
 10
304.858
 20
44.4789
 30
0.0
 11
305.657
 21
44.4789
 31
0.0
  0
LINE
  8
0
 62
     0
 10
305.657
 20
44.4789
 30
0.0
 11
305.657
 21
43.8796
 31
0.0
  0
LINE
  8
0
 62
     0
 10
305.657
 20
43.8796
 30
0.0
 11
319.658
 21
43.8796
 31
0.0
  0
LINE
  8
0
 62
     0
 10
319.658
 20
43.8796
 30
0.0
 11
319.658
 21
44.4789
 31
0.0
  0
LINE
  8
0
 62
     0
 10
319.658
 20
44.4789
 30
0.0
 11
320.457
 21
44.4789
 31
0.0
  0
LINE
  8
0
 62
     0
 10
320.457
 20
44.4789
 30
0.0
 11
320.457
 21
57.2795
 31
0.0
  0
LINE
  8
0
 62
     0
 10
320.457
 20
57.2795
 30
0.0
 11
319.658
 21
57.2795
 31
0.0
  0
LINE
  8
0
 62
     0
 10
319.658
 20
57.2795
 30
0.0
 11
319.658
 21
57.8788
 31
0.0
  0
LINE
  8
0
 62
     0
 10
319.658
 20
57.8788
 30
0.0
 11
305.657
 21
57.8788
 31
0.0
  0
LINE
  8
0
 62
     0
 10
286.607
 20
57.8788
 30
0.0
 11
286.607
 21
57.2795
 31
0.0
  0
LINE
  8
0
 62
     0
 10
286.607
 20
57.2795
 30
0.0
 11
285.808
 21
57.2795
 31
0.0
  0
LINE
  8
0
 62
     0
 10
285.808
 20
57.2795
 30
0.0
 11
285.808
 21
44.4789
 31
0.0
  0
LINE
  8
0
 62
     0
 10
285.808
 20
44.4789
 30
0.0
 11
286.607
 21
44.4789
 31
0.0
  0
LINE
  8
0
 62
     0
 10
286.607
 20
44.4789
 30
0.0
 11
286.607
 21
43.8796
 31
0.0
  0
LINE
  8
0
 62
     0
 10
286.607
 20
43.8796
 30
0.0
 11
300.608
 21
43.8796
 31
0.0
  0
LINE
  8
0
 62
     0
 10
300.608
 20
43.8796
 30
0.0
 11
300.608
 21
44.4789
 31
0.0
  0
LINE
  8
0
 62
     0
 10
300.608
 20
44.4789
 30
0.0
 11
301.407
 21
44.4789
 31
0.0
  0
LINE
  8
0
 62
     0
 10
301.407
 20
44.4789
 30
0.0
 11
301.407
 21
57.2795
 31
0.0
  0
LINE
  8
0
 62
     0
 10
301.407
 20
57.2795
 30
0.0
 11
300.608
 21
57.2795
 31
0.0
  0
LINE
  8
0
 62
     0
 10
300.608
 20
57.2795
 30
0.0
 11
300.608
 21
57.8788
 31
0.0
  0
LINE
  8
0
 62
     0
 10
300.608
 20
57.8788
 30
0.0
 11
286.607
 21
57.8788
 31
0.0
  0
LINE
  8
0
 62
     0
 10
267.557
 20
57.8788
 30
0.0
 11
267.557
 21
57.2795
 31
0.0
  0
LINE
  8
0
 62
     0
 10
267.557
 20
57.2795
 30
0.0
 11
266.758
 21
57.2795
 31
0.0
  0
LINE
  8
0
 62
     0
 10
266.758
 20
57.2795
 30
0.0
 11
266.758
 21
44.4789
 31
0.0
  0
LINE
  8
0
 62
     0
 10
266.758
 20
44.4789
 30
0.0
 11
267.557
 21
44.4789
 31
0.0
  0
LINE
  8
0
 62
     0
 10
267.557
 20
44.4789
 30
0.0
 11
267.557
 21
43.8796
 31
0.0
  0
LINE
  8
0
 62
     0
 10
267.557
 20
43.8796
 30
0.0
 11
281.558
 21
43.8796
 31
0.0
  0
LINE
  8
0
 62
     0
 10
281.558
 20
43.8796
 30
0.0
 11
281.558
 21
44.4789
 31
0.0
  0
LINE
  8
0
 62
     0
 10
281.558
 20
44.4789
 30
0.0
 11
282.357
 21
44.4789
 31
0.0
  0
LINE
  8
0
 62
     0
 10
282.357
 20
44.4789
 30
0.0
 11
282.357
 21
57.2795
 31
0.0
  0
LINE
  8
0
 62
     0
 10
282.357
 20
57.2795
 30
0.0
 11
281.558
 21
57.2795
 31
0.0
  0
LINE
  8
0
 62
     0
 10
281.558
 20
57.2795
 30
0.0
 11
281.558
 21
57.8788
 31
0.0
  0
LINE
  8
0
 62
     0
 10
281.558
 20
57.8788
 30
0.0
 11
267.557
 21
57.8788
 31
0.0
  0
LINE
  8
0
 62
     0
 10
248.507
 20
57.8788
 30
0.0
 11
248.507
 21
57.2795
 31
0.0
  0
LINE
  8
0
 62
     0
 10
248.507
 20
57.2795
 30
0.0
 11
247.708
 21
57.2795
 31
0.0
  0
LINE
  8
0
 62
     0
 10
247.708
 20
57.2795
 30
0.0
 11
247.708
 21
44.4789
 31
0.0
  0
LINE
  8
0
 62
     0
 10
247.708
 20
44.4789
 30
0.0
 11
248.507
 21
44.4789
 31
0.0
  0
LINE
  8
0
 62
     0
 10
248.507
 20
44.4789
 30
0.0
 11
248.507
 21
43.8796
 31
0.0
  0
LINE
  8
0
 62
     0
 10
248.507
 20
43.8796
 30
0.0
 11
262.508
 21
43.8796
 31
0.0
  0
LINE
  8
0
 62
     0
 10
262.508
 20
43.8796
 30
0.0
 11
262.508
 21
44.4789
 31
0.0
  0
LINE
  8
0
 62
     0
 10
262.508
 20
44.4789
 30
0.0
 11
263.307
 21
44.4789
 31
0.0
  0
LINE
  8
0
 62
     0
 10
263.307
 20
44.4789
 30
0.0
 11
263.307
 21
57.2795
 31
0.0
  0
LINE
  8
0
 62
     0
 10
263.307
 20
57.2795
 30
0.0
 11
262.508
 21
57.2795
 31
0.0
  0
LINE
  8
0
 62
     0
 10
262.508
 20
57.2795
 30
0.0
 11
262.508
 21
57.8788
 31
0.0
  0
LINE
  8
0
 62
     0
 10
262.508
 20
57.8788
 30
0.0
 11
248.507
 21
57.8788
 31
0.0
  0
LINE
  8
0
 62
     0
 10
229.457
 20
57.8788
 30
0.0
 11
229.457
 21
57.2795
 31
0.0
  0
LINE
  8
0
 62
     0
 10
229.457
 20
57.2795
 30
0.0
 11
228.658
 21
57.2795
 31
0.0
  0
LINE
  8
0
 62
     0
 10
228.658
 20
57.2795
 30
0.0
 11
228.658
 21
44.4789
 31
0.0
  0
LINE
  8
0
 62
     0
 10
228.658
 20
44.4789
 30
0.0
 11
229.457
 21
44.4789
 31
0.0
  0
LINE
  8
0
 62
     0
 10
229.457
 20
44.4789
 30
0.0
 11
229.457
 21
43.8796
 31
0.0
  0
LINE
  8
0
 62
     0
 10
229.457
 20
43.8796
 30
0.0
 11
243.458
 21
43.8796
 31
0.0
  0
LINE
  8
0
 62
     0
 10
243.458
 20
43.8796
 30
0.0
 11
243.458
 21
44.4789
 31
0.0
  0
LINE
  8
0
 62
     0
 10
243.458
 20
44.4789
 30
0.0
 11
244.257
 21
44.4789
 31
0.0
  0
LINE
  8
0
 62
     0
 10
244.257
 20
44.4789
 30
0.0
 11
244.257
 21
57.2795
 31
0.0
  0
LINE
  8
0
 62
     0
 10
244.257
 20
57.2795
 30
0.0
 11
243.458
 21
57.2795
 31
0.0
  0
LINE
  8
0
 62
     0
 10
243.458
 20
57.2795
 30
0.0
 11
243.458
 21
57.8788
 31
0.0
  0
LINE
  8
0
 62
     0
 10
243.458
 20
57.8788
 30
0.0
 11
229.457
 21
57.8788
 31
0.0
  0
LINE
  8
0
 62
     0
 10
210.407
 20
57.8788
 30
0.0
 11
210.407
 21
57.2795
 31
0.0
  0
LINE
  8
0
 62
     0
 10
210.407
 20
57.2795
 30
0.0
 11
209.608
 21
57.2795
 31
0.0
  0
LINE
  8
0
 62
     0
 10
209.608
 20
57.2795
 30
0.0
 11
209.608
 21
44.4789
 31
0.0
  0
LINE
  8
0
 62
     0
 10
209.608
 20
44.4789
 30
0.0
 11
210.407
 21
44.4789
 31
0.0
  0
LINE
  8
0
 62
     0
 10
210.407
 20
44.4789
 30
0.0
 11
210.407
 21
43.8796
 31
0.0
  0
LINE
  8
0
 62
     0
 10
210.407
 20
43.8796
 30
0.0
 11
224.408
 21
43.8796
 31
0.0
  0
LINE
  8
0
 62
     0
 10
224.408
 20
43.8796
 30
0.0
 11
224.408
 21
44.4789
 31
0.0
  0
LINE
  8
0
 62
     0
 10
224.408
 20
44.4789
 30
0.0
 11
225.207
 21
44.4789
 31
0.0
  0
LINE
  8
0
 62
     0
 10
225.207
 20
44.4789
 30
0.0
 11
225.207
 21
57.2795
 31
0.0
  0
LINE
  8
0
 62
     0
 10
225.207
 20
57.2795
 30
0.0
 11
224.408
 21
57.2795
 31
0.0
  0
LINE
  8
0
 62
     0
 10
224.408
 20
57.2795
 30
0.0
 11
224.408
 21
57.8788
 31
0.0
  0
LINE
  8
0
 62
     0
 10
224.408
 20
57.8788
 30
0.0
 11
210.407
 21
57.8788
 31
0.0
  0
LINE
  8
0
 62
     0
 10
181.832
 20
57.8788
 30
0.0
 11
181.832
 21
57.2795
 31
0.0
  0
LINE
  8
0
 62
     0
 10
181.832
 20
57.2795
 30
0.0
 11
181.033
 21
57.2795
 31
0.0
  0
LINE
  8
0
 62
     0
 10
181.033
 20
57.2795
 30
0.0
 11
181.033
 21
44.4789
 31
0.0
  0
LINE
  8
0
 62
     0
 10
181.033
 20
44.4789
 30
0.0
 11
181.832
 21
44.4789
 31
0.0
  0
LINE
  8
0
 62
     0
 10
181.832
 20
44.4789
 30
0.0
 11
181.832
 21
43.8796
 31
0.0
  0
LINE
  8
0
 62
     0
 10
181.832
 20
43.8796
 30
0.0
 11
195.833
 21
43.8796
 31
0.0
  0
LINE
  8
0
 62
     0
 10
195.833
 20
43.8796
 30
0.0
 11
195.833
 21
44.4789
 31
0.0
  0
LINE
  8
0
 62
     0
 10
195.833
 20
44.4789
 30
0.0
 11
196.632
 21
44.4789
 31
0.0
  0
LINE
  8
0
 62
     0
 10
196.632
 20
44.4789
 30
0.0
 11
196.632
 21
57.2795
 31
0.0
  0
LINE
  8
0
 62
     0
 10
196.632
 20
57.2795
 30
0.0
 11
195.833
 21
57.2795
 31
0.0
  0
LINE
  8
0
 62
     0
 10
195.833
 20
57.2795
 30
0.0
 11
195.833
 21
57.8788
 31
0.0
  0
LINE
  8
0
 62
     0
 10
195.833
 20
57.8788
 30
0.0
 11
181.832
 21
57.8788
 31
0.0
  0
LINE
  8
0
 62
     0
 10
162.782
 20
57.8788
 30
0.0
 11
162.782
 21
57.2795
 31
0.0
  0
LINE
  8
0
 62
     0
 10
162.782
 20
57.2795
 30
0.0
 11
161.983
 21
57.2795
 31
0.0
  0
LINE
  8
0
 62
     0
 10
161.983
 20
57.2795
 30
0.0
 11
161.983
 21
44.4789
 31
0.0
  0
LINE
  8
0
 62
     0
 10
161.983
 20
44.4789
 30
0.0
 11
162.782
 21
44.4789
 31
0.0
  0
LINE
  8
0
 62
     0
 10
162.782
 20
44.4789
 30
0.0
 11
162.782
 21
43.8796
 31
0.0
  0
LINE
  8
0
 62
     0
 10
162.782
 20
43.8796
 30
0.0
 11
176.783
 21
43.8796
 31
0.0
  0
LINE
  8
0
 62
     0
 10
176.783
 20
43.8796
 30
0.0
 11
176.783
 21
44.4789
 31
0.0
  0
LINE
  8
0
 62
     0
 10
176.783
 20
44.4789
 30
0.0
 11
177.582
 21
44.4789
 31
0.0
  0
LINE
  8
0
 62
     0
 10
177.582
 20
44.4789
 30
0.0
 11
177.582
 21
57.2795
 31
0.0
  0
LINE
  8
0
 62
     0
 10
177.582
 20
57.2795
 30
0.0
 11
176.783
 21
57.2795
 31
0.0
  0
LINE
  8
0
 62
     0
 10
176.783
 20
57.2795
 30
0.0
 11
176.783
 21
57.8788
 31
0.0
  0
LINE
  8
0
 62
     0
 10
176.783
 20
57.8788
 30
0.0
 11
162.782
 21
57.8788
 31
0.0
  0
LINE
  8
0
 62
     0
 10
143.732
 20
57.8788
 30
0.0
 11
143.732
 21
57.2795
 31
0.0
  0
LINE
  8
0
 62
     0
 10
143.732
 20
57.2795
 30
0.0
 11
142.933
 21
57.2795
 31
0.0
  0
LINE
  8
0
 62
     0
 10
142.933
 20
57.2795
 30
0.0
 11
142.933
 21
44.4789
 31
0.0
  0
LINE
  8
0
 62
     0
 10
142.933
 20
44.4789
 30
0.0
 11
143.732
 21
44.4789
 31
0.0
  0
LINE
  8
0
 62
     0
 10
143.732
 20
44.4789
 30
0.0
 11
143.732
 21
43.8796
 31
0.0
  0
LINE
  8
0
 62
     0
 10
143.732
 20
43.8796
 30
0.0
 11
157.733
 21
43.8796
 31
0.0
  0
LINE
  8
0
 62
     0
 10
157.733
 20
43.8796
 30
0.0
 11
157.733
 21
44.4789
 31
0.0
  0
LINE
  8
0
 62
     0
 10
157.733
 20
44.4789
 30
0.0
 11
158.532
 21
44.4789
 31
0.0
  0
LINE
  8
0
 62
     0
 10
158.532
 20
44.4789
 30
0.0
 11
158.532
 21
57.2795
 31
0.0
  0
LINE
  8
0
 62
     0
 10
158.532
 20
57.2795
 30
0.0
 11
157.733
 21
57.2795
 31
0.0
  0
LINE
  8
0
 62
     0
 10
157.733
 20
57.2795
 30
0.0
 11
157.733
 21
57.8788
 31
0.0
  0
LINE
  8
0
 62
     0
 10
157.733
 20
57.8788
 30
0.0
 11
143.732
 21
57.8788
 31
0.0
  0
LINE
  8
0
 62
     0
 10
124.682
 20
57.8788
 30
0.0
 11
124.682
 21
57.2795
 31
0.0
  0
LINE
  8
0
 62
     0
 10
124.682
 20
57.2795
 30
0.0
 11
123.883
 21
57.2795
 31
0.0
  0
LINE
  8
0
 62
     0
 10
123.883
 20
57.2795
 30
0.0
 11
123.883
 21
44.4789
 31
0.0
  0
LINE
  8
0
 62
     0
 10
123.883
 20
44.4789
 30
0.0
 11
124.682
 21
44.4789
 31
0.0
  0
LINE
  8
0
 62
     0
 10
124.682
 20
44.4789
 30
0.0
 11
124.682
 21
43.8796
 31
0.0
  0
LINE
  8
0
 62
     0
 10
124.682
 20
43.8796
 30
0.0
 11
138.683
 21
43.8796
 31
0.0
  0
LINE
  8
0
 62
     0
 10
138.683
 20
43.8796
 30
0.0
 11
138.683
 21
44.4789
 31
0.0
  0
LINE
  8
0
 62
     0
 10
138.683
 20
44.4789
 30
0.0
 11
139.482
 21
44.4789
 31
0.0
  0
LINE
  8
0
 62
     0
 10
139.482
 20
44.4789
 30
0.0
 11
139.482
 21
57.2795
 31
0.0
  0
LINE
  8
0
 62
     0
 10
139.482
 20
57.2795
 30
0.0
 11
138.683
 21
57.2795
 31
0.0
  0
LINE
  8
0
 62
     0
 10
138.683
 20
57.2795
 30
0.0
 11
138.683
 21
57.8788
 31
0.0
  0
LINE
  8
0
 62
     0
 10
138.683
 20
57.8788
 30
0.0
 11
124.682
 21
57.8788
 31
0.0
  0
LINE
  8
0
 62
     0
 10
105.632
 20
57.8788
 30
0.0
 11
105.632
 21
57.2795
 31
0.0
  0
LINE
  8
0
 62
     0
 10
105.632
 20
57.2795
 30
0.0
 11
104.833
 21
57.2795
 31
0.0
  0
LINE
  8
0
 62
     0
 10
104.833
 20
57.2795
 30
0.0
 11
104.833
 21
44.4789
 31
0.0
  0
LINE
  8
0
 62
     0
 10
104.833
 20
44.4789
 30
0.0
 11
105.632
 21
44.4789
 31
0.0
  0
LINE
  8
0
 62
     0
 10
105.632
 20
44.4789
 30
0.0
 11
105.632
 21
43.8796
 31
0.0
  0
LINE
  8
0
 62
     0
 10
105.632
 20
43.8796
 30
0.0
 11
119.633
 21
43.8796
 31
0.0
  0
LINE
  8
0
 62
     0
 10
119.633
 20
43.8796
 30
0.0
 11
119.633
 21
44.4789
 31
0.0
  0
LINE
  8
0
 62
     0
 10
119.633
 20
44.4789
 30
0.0
 11
120.432
 21
44.4789
 31
0.0
  0
LINE
  8
0
 62
     0
 10
120.432
 20
44.4789
 30
0.0
 11
120.432
 21
57.2795
 31
0.0
  0
LINE
  8
0
 62
     0
 10
120.432
 20
57.2795
 30
0.0
 11
119.633
 21
57.2795
 31
0.0
  0
LINE
  8
0
 62
     0
 10
119.633
 20
57.2795
 30
0.0
 11
119.633
 21
57.8788
 31
0.0
  0
LINE
  8
0
 62
     0
 10
119.633
 20
57.8788
 30
0.0
 11
105.632
 21
57.8788
 31
0.0
  0
LINE
  8
0
 62
     0
 10
86.5822
 20
57.8788
 30
0.0
 11
86.5822
 21
57.2795
 31
0.0
  0
LINE
  8
0
 62
     0
 10
86.5822
 20
57.2795
 30
0.0
 11
85.7829
 21
57.2795
 31
0.0
  0
LINE
  8
0
 62
     0
 10
85.7829
 20
57.2795
 30
0.0
 11
85.7829
 21
44.4789
 31
0.0
  0
LINE
  8
0
 62
     0
 10
85.7829
 20
44.4789
 30
0.0
 11
86.5822
 21
44.4789
 31
0.0
  0
LINE
  8
0
 62
     0
 10
86.5822
 20
44.4789
 30
0.0
 11
86.5822
 21
43.8796
 31
0.0
  0
LINE
  8
0
 62
     0
 10
86.5822
 20
43.8796
 30
0.0
 11
100.583
 21
43.8796
 31
0.0
  0
LINE
  8
0
 62
     0
 10
100.583
 20
43.8796
 30
0.0
 11
100.583
 21
44.4789
 31
0.0
  0
LINE
  8
0
 62
     0
 10
100.583
 20
44.4789
 30
0.0
 11
101.382
 21
44.4789
 31
0.0
  0
LINE
  8
0
 62
     0
 10
101.382
 20
44.4789
 30
0.0
 11
101.382
 21
57.2795
 31
0.0
  0
LINE
  8
0
 62
     0
 10
101.382
 20
57.2795
 30
0.0
 11
100.583
 21
57.2795
 31
0.0
  0
LINE
  8
0
 62
     0
 10
100.583
 20
57.2795
 30
0.0
 11
100.583
 21
57.8788
 31
0.0
  0
LINE
  8
0
 62
     0
 10
100.583
 20
57.8788
 30
0.0
 11
86.5822
 21
57.8788
 31
0.0
  0
LINE
  8
0
 62
     0
 10
62.7712
 20
57.8788
 30
0.0
 11
62.7712
 21
57.2795
 31
0.0
  0
LINE
  8
0
 62
     0
 10
62.7712
 20
57.2795
 30
0.0
 11
61.9704
 21
57.2795
 31
0.0
  0
LINE
  8
0
 62
     0
 10
61.9704
 20
57.2795
 30
0.0
 11
61.9704
 21
44.4789
 31
0.0
  0
LINE
  8
0
 62
     0
 10
61.9704
 20
44.4789
 30
0.0
 11
62.7712
 21
44.4789
 31
0.0
  0
LINE
  8
0
 62
     0
 10
62.7712
 20
44.4789
 30
0.0
 11
62.7712
 21
43.8796
 31
0.0
  0
LINE
  8
0
 62
     0
 10
62.7712
 20
43.8796
 30
0.0
 11
76.7704
 21
43.8796
 31
0.0
  0
LINE
  8
0
 62
     0
 10
76.7704
 20
43.8796
 30
0.0
 11
76.7704
 21
44.4789
 31
0.0
  0
LINE
  8
0
 62
     0
 10
76.7704
 20
44.4789
 30
0.0
 11
77.5712
 21
44.4789
 31
0.0
  0
LINE
  8
0
 62
     0
 10
77.5712
 20
44.4789
 30
0.0
 11
77.5712
 21
57.2795
 31
0.0
  0
LINE
  8
0
 62
     0
 10
77.5712
 20
57.2795
 30
0.0
 11
76.7704
 21
57.2795
 31
0.0
  0
LINE
  8
0
 62
     0
 10
76.7704
 20
57.2795
 30
0.0
 11
76.7704
 21
57.8788
 31
0.0
  0
LINE
  8
0
 62
     0
 10
76.7704
 20
57.8788
 30
0.0
 11
62.7712
 21
57.8788
 31
0.0
  0
LINE
  8
0
 62
     0
 10
43.7212
 20
57.8788
 30
0.0
 11
43.7212
 21
57.2795
 31
0.0
  0
LINE
  8
0
 62
     0
 10
43.7212
 20
57.2795
 30
0.0
 11
42.9204
 21
57.2795
 31
0.0
  0
LINE
  8
0
 62
     0
 10
42.9204
 20
57.2795
 30
0.0
 11
42.9204
 21
44.4789
 31
0.0
  0
LINE
  8
0
 62
     0
 10
42.9204
 20
44.4789
 30
0.0
 11
43.7212
 21
44.4789
 31
0.0
  0
LINE
  8
0
 62
     0
 10
43.7212
 20
44.4789
 30
0.0
 11
43.7212
 21
43.8796
 31
0.0
  0
LINE
  8
0
 62
     0
 10
43.7212
 20
43.8796
 30
0.0
 11
57.7204
 21
43.8796
 31
0.0
  0
LINE
  8
0
 62
     0
 10
57.7204
 20
43.8796
 30
0.0
 11
57.7204
 21
44.4789
 31
0.0
  0
LINE
  8
0
 62
     0
 10
57.7204
 20
44.4789
 30
0.0
 11
58.5212
 21
44.4789
 31
0.0
  0
LINE
  8
0
 62
     0
 10
58.5212
 20
44.4789
 30
0.0
 11
58.5212
 21
57.2795
 31
0.0
  0
LINE
  8
0
 62
     0
 10
58.5212
 20
57.2795
 30
0.0
 11
57.7204
 21
57.2795
 31
0.0
  0
LINE
  8
0
 62
     0
 10
57.7204
 20
57.2795
 30
0.0
 11
57.7204
 21
57.8788
 31
0.0
  0
LINE
  8
0
 62
     0
 10
57.7204
 20
57.8788
 30
0.0
 11
43.7212
 21
57.8788
 31
0.0
  0
LINE
  8
0
 62
     0
 10
24.671
 20
57.8788
 30
0.0
 11
24.671
 21
57.2795
 31
0.0
  0
LINE
  8
0
 62
     0
 10
24.671
 20
57.2795
 30
0.0
 11
23.8704
 21
57.2795
 31
0.0
  0
LINE
  8
0
 62
     0
 10
23.8704
 20
57.2795
 30
0.0
 11
23.8704
 21
44.4789
 31
0.0
  0
LINE
  8
0
 62
     0
 10
23.8704
 20
44.4789
 30
0.0
 11
24.671
 21
44.4789
 31
0.0
  0
LINE
  8
0
 62
     0
 10
24.671
 20
44.4789
 30
0.0
 11
24.671
 21
43.8796
 31
0.0
  0
LINE
  8
0
 62
     0
 10
24.671
 20
43.8796
 30
0.0
 11
38.6704
 21
43.8796
 31
0.0
  0
LINE
  8
0
 62
     0
 10
38.6704
 20
43.8796
 30
0.0
 11
38.6704
 21
44.4789
 31
0.0
  0
LINE
  8
0
 62
     0
 10
38.6704
 20
44.4789
 30
0.0
 11
39.4712
 21
44.4789
 31
0.0
  0
LINE
  8
0
 62
     0
 10
39.4712
 20
44.4789
 30
0.0
 11
39.4712
 21
57.2795
 31
0.0
  0
LINE
  8
0
 62
     0
 10
39.4712
 20
57.2795
 30
0.0
 11
38.6704
 21
57.2795
 31
0.0
  0
LINE
  8
0
 62
     0
 10
38.6704
 20
57.2795
 30
0.0
 11
38.6704
 21
57.8788
 31
0.0
  0
LINE
  8
0
 62
     0
 10
38.6704
 20
57.8788
 30
0.0
 11
24.671
 21
57.8788
 31
0.0
  0
LINE
  8
0
 62
     0
 10
5.61964
 20
57.8788
 30
0.0
 11
5.61964
 21
57.2795
 31
0.0
  0
LINE
  8
0
 62
     0
 10
5.61964
 20
57.2795
 30
0.0
 11
4.81902
 21
57.2795
 31
0.0
  0
LINE
  8
0
 62
     0
 10
4.81902
 20
57.2795
 30
0.0
 11
4.81902
 21
44.4789
 31
0.0
  0
LINE
  8
0
 62
     0
 10
4.81902
 20
44.4789
 30
0.0
 11
5.61964
 21
44.4789
 31
0.0
  0
LINE
  8
0
 62
     0
 10
5.61964
 20
44.4789
 30
0.0
 11
5.61964
 21
43.8796
 31
0.0
  0
LINE
  8
0
 62
     0
 10
5.61964
 20
43.8796
 30
0.0
 11
19.6205
 21
43.8796
 31
0.0
  0
LINE
  8
0
 62
     0
 10
19.6205
 20
43.8796
 30
0.0
 11
19.6205
 21
44.4789
 31
0.0
  0
LINE
  8
0
 62
     0
 10
19.6205
 20
44.4789
 30
0.0
 11
20.4211
 21
44.4789
 31
0.0
  0
LINE
  8
0
 62
     0
 10
20.4211
 20
44.4789
 30
0.0
 11
20.4211
 21
57.2795
 31
0.0
  0
LINE
  8
0
 62
     0
 10
20.4211
 20
57.2795
 30
0.0
 11
19.6205
 21
57.2795
 31
0.0
  0
LINE
  8
0
 62
     0
 10
19.6205
 20
57.2795
 30
0.0
 11
19.6205
 21
57.8788
 31
0.0
  0
LINE
  8
0
 62
     0
 10
19.6205
 20
57.8788
 30
0.0
 11
5.61964
 21
57.8788
 31
0.0
  0
LINE
  8
0
 62
     0
 10
305.657
 20
76.9303
 30
0.0
 11
305.657
 21
76.3309
 31
0.0
  0
LINE
  8
0
 62
     0
 10
305.657
 20
76.3309
 30
0.0
 11
304.858
 21
76.3309
 31
0.0
  0
LINE
  8
0
 62
     0
 10
304.858
 20
76.3309
 30
0.0
 11
304.858
 21
63.5303
 31
0.0
  0
LINE
  8
0
 62
     0
 10
304.858
 20
63.5303
 30
0.0
 11
305.657
 21
63.5303
 31
0.0
  0
LINE
  8
0
 62
     0
 10
305.657
 20
63.5303
 30
0.0
 11
305.657
 21
62.9296
 31
0.0
  0
LINE
  8
0
 62
     0
 10
305.657
 20
62.9296
 30
0.0
 11
319.658
 21
62.9296
 31
0.0
  0
LINE
  8
0
 62
     0
 10
319.658
 20
62.9296
 30
0.0
 11
319.658
 21
63.5303
 31
0.0
  0
LINE
  8
0
 62
     0
 10
319.658
 20
63.5303
 30
0.0
 11
320.457
 21
63.5303
 31
0.0
  0
LINE
  8
0
 62
     0
 10
320.457
 20
63.5303
 30
0.0
 11
320.457
 21
76.3309
 31
0.0
  0
LINE
  8
0
 62
     0
 10
320.457
 20
76.3309
 30
0.0
 11
319.658
 21
76.3309
 31
0.0
  0
LINE
  8
0
 62
     0
 10
319.658
 20
76.3309
 30
0.0
 11
319.658
 21
76.9303
 31
0.0
  0
LINE
  8
0
 62
     0
 10
319.658
 20
76.9303
 30
0.0
 11
305.657
 21
76.9303
 31
0.0
  0
LINE
  8
0
 62
     0
 10
286.607
 20
76.9303
 30
0.0
 11
286.607
 21
76.3309
 31
0.0
  0
LINE
  8
0
 62
     0
 10
286.607
 20
76.3309
 30
0.0
 11
285.808
 21
76.3309
 31
0.0
  0
LINE
  8
0
 62
     0
 10
285.808
 20
76.3309
 30
0.0
 11
285.808
 21
63.5303
 31
0.0
  0
LINE
  8
0
 62
     0
 10
285.808
 20
63.5303
 30
0.0
 11
286.607
 21
63.5303
 31
0.0
  0
LINE
  8
0
 62
     0
 10
286.607
 20
63.5303
 30
0.0
 11
286.607
 21
62.9296
 31
0.0
  0
LINE
  8
0
 62
     0
 10
286.607
 20
62.9296
 30
0.0
 11
300.608
 21
62.9296
 31
0.0
  0
LINE
  8
0
 62
     0
 10
300.608
 20
62.9296
 30
0.0
 11
300.608
 21
63.5303
 31
0.0
  0
LINE
  8
0
 62
     0
 10
300.608
 20
63.5303
 30
0.0
 11
301.407
 21
63.5303
 31
0.0
  0
LINE
  8
0
 62
     0
 10
301.407
 20
63.5303
 30
0.0
 11
301.407
 21
76.3309
 31
0.0
  0
LINE
  8
0
 62
     0
 10
301.407
 20
76.3309
 30
0.0
 11
300.608
 21
76.3309
 31
0.0
  0
LINE
  8
0
 62
     0
 10
300.608
 20
76.3309
 30
0.0
 11
300.608
 21
76.9303
 31
0.0
  0
LINE
  8
0
 62
     0
 10
300.608
 20
76.9303
 30
0.0
 11
286.607
 21
76.9303
 31
0.0
  0
LINE
  8
0
 62
     0
 10
267.557
 20
76.9303
 30
0.0
 11
267.557
 21
76.3309
 31
0.0
  0
LINE
  8
0
 62
     0
 10
267.557
 20
76.3309
 30
0.0
 11
266.758
 21
76.3309
 31
0.0
  0
LINE
  8
0
 62
     0
 10
266.758
 20
76.3309
 30
0.0
 11
266.758
 21
63.5303
 31
0.0
  0
LINE
  8
0
 62
     0
 10
266.758
 20
63.5303
 30
0.0
 11
267.557
 21
63.5303
 31
0.0
  0
LINE
  8
0
 62
     0
 10
267.557
 20
63.5303
 30
0.0
 11
267.557
 21
62.9296
 31
0.0
  0
LINE
  8
0
 62
     0
 10
267.557
 20
62.9296
 30
0.0
 11
281.558
 21
62.9296
 31
0.0
  0
LINE
  8
0
 62
     0
 10
281.558
 20
62.9296
 30
0.0
 11
281.558
 21
63.5303
 31
0.0
  0
LINE
  8
0
 62
     0
 10
281.558
 20
63.5303
 30
0.0
 11
282.357
 21
63.5303
 31
0.0
  0
LINE
  8
0
 62
     0
 10
282.357
 20
63.5303
 30
0.0
 11
282.357
 21
76.3309
 31
0.0
  0
LINE
  8
0
 62
     0
 10
282.357
 20
76.3309
 30
0.0
 11
281.558
 21
76.3309
 31
0.0
  0
LINE
  8
0
 62
     0
 10
281.558
 20
76.3309
 30
0.0
 11
281.558
 21
76.9303
 31
0.0
  0
LINE
  8
0
 62
     0
 10
281.558
 20
76.9303
 30
0.0
 11
267.557
 21
76.9303
 31
0.0
  0
LINE
  8
0
 62
     0
 10
248.507
 20
76.9303
 30
0.0
 11
248.507
 21
76.3309
 31
0.0
  0
LINE
  8
0
 62
     0
 10
248.507
 20
76.3309
 30
0.0
 11
247.708
 21
76.3309
 31
0.0
  0
LINE
  8
0
 62
     0
 10
247.708
 20
76.3309
 30
0.0
 11
247.708
 21
63.5303
 31
0.0
  0
LINE
  8
0
 62
     0
 10
247.708
 20
63.5303
 30
0.0
 11
248.507
 21
63.5303
 31
0.0
  0
LINE
  8
0
 62
     0
 10
248.507
 20
63.5303
 30
0.0
 11
248.507
 21
62.9296
 31
0.0
  0
LINE
  8
0
 62
     0
 10
248.507
 20
62.9296
 30
0.0
 11
262.508
 21
62.9296
 31
0.0
  0
LINE
  8
0
 62
     0
 10
262.508
 20
62.9296
 30
0.0
 11
262.508
 21
63.5303
 31
0.0
  0
LINE
  8
0
 62
     0
 10
262.508
 20
63.5303
 30
0.0
 11
263.307
 21
63.5303
 31
0.0
  0
LINE
  8
0
 62
     0
 10
263.307
 20
63.5303
 30
0.0
 11
263.307
 21
76.3309
 31
0.0
  0
LINE
  8
0
 62
     0
 10
263.307
 20
76.3309
 30
0.0
 11
262.508
 21
76.3309
 31
0.0
  0
LINE
  8
0
 62
     0
 10
262.508
 20
76.3309
 30
0.0
 11
262.508
 21
76.9303
 31
0.0
  0
LINE
  8
0
 62
     0
 10
262.508
 20
76.9303
 30
0.0
 11
248.507
 21
76.9303
 31
0.0
  0
LINE
  8
0
 62
     0
 10
229.457
 20
76.9303
 30
0.0
 11
229.457
 21
76.3309
 31
0.0
  0
LINE
  8
0
 62
     0
 10
229.457
 20
76.3309
 30
0.0
 11
228.658
 21
76.3309
 31
0.0
  0
LINE
  8
0
 62
     0
 10
228.658
 20
76.3309
 30
0.0
 11
228.658
 21
63.5303
 31
0.0
  0
LINE
  8
0
 62
     0
 10
228.658
 20
63.5303
 30
0.0
 11
229.457
 21
63.5303
 31
0.0
  0
LINE
  8
0
 62
     0
 10
229.457
 20
63.5303
 30
0.0
 11
229.457
 21
62.9296
 31
0.0
  0
LINE
  8
0
 62
     0
 10
229.457
 20
62.9296
 30
0.0
 11
243.458
 21
62.9296
 31
0.0
  0
LINE
  8
0
 62
     0
 10
243.458
 20
62.9296
 30
0.0
 11
243.458
 21
63.5303
 31
0.0
  0
LINE
  8
0
 62
     0
 10
243.458
 20
63.5303
 30
0.0
 11
244.257
 21
63.5303
 31
0.0
  0
LINE
  8
0
 62
     0
 10
244.257
 20
63.5303
 30
0.0
 11
244.257
 21
76.3309
 31
0.0
  0
LINE
  8
0
 62
     0
 10
244.257
 20
76.3309
 30
0.0
 11
243.458
 21
76.3309
 31
0.0
  0
LINE
  8
0
 62
     0
 10
243.458
 20
76.3309
 30
0.0
 11
243.458
 21
76.9303
 31
0.0
  0
LINE
  8
0
 62
     0
 10
243.458
 20
76.9303
 30
0.0
 11
229.457
 21
76.9303
 31
0.0
  0
LINE
  8
0
 62
     0
 10
210.407
 20
76.9303
 30
0.0
 11
210.407
 21
76.3309
 31
0.0
  0
LINE
  8
0
 62
     0
 10
210.407
 20
76.3309
 30
0.0
 11
209.608
 21
76.3309
 31
0.0
  0
LINE
  8
0
 62
     0
 10
209.608
 20
76.3309
 30
0.0
 11
209.608
 21
63.5303
 31
0.0
  0
LINE
  8
0
 62
     0
 10
209.608
 20
63.5303
 30
0.0
 11
210.407
 21
63.5303
 31
0.0
  0
LINE
  8
0
 62
     0
 10
210.407
 20
63.5303
 30
0.0
 11
210.407
 21
62.9296
 31
0.0
  0
LINE
  8
0
 62
     0
 10
210.407
 20
62.9296
 30
0.0
 11
224.408
 21
62.9296
 31
0.0
  0
LINE
  8
0
 62
     0
 10
224.408
 20
62.9296
 30
0.0
 11
224.408
 21
63.5303
 31
0.0
  0
LINE
  8
0
 62
     0
 10
224.408
 20
63.5303
 30
0.0
 11
225.207
 21
63.5303
 31
0.0
  0
LINE
  8
0
 62
     0
 10
225.207
 20
63.5303
 30
0.0
 11
225.207
 21
76.3309
 31
0.0
  0
LINE
  8
0
 62
     0
 10
225.207
 20
76.3309
 30
0.0
 11
224.408
 21
76.3309
 31
0.0
  0
LINE
  8
0
 62
     0
 10
224.408
 20
76.3309
 30
0.0
 11
224.408
 21
76.9303
 31
0.0
  0
LINE
  8
0
 62
     0
 10
224.408
 20
76.9303
 30
0.0
 11
210.407
 21
76.9303
 31
0.0
  0
LINE
  8
0
 62
     0
 10
181.832
 20
76.9303
 30
0.0
 11
181.832
 21
76.3309
 31
0.0
  0
LINE
  8
0
 62
     0
 10
181.832
 20
76.3309
 30
0.0
 11
181.033
 21
76.3309
 31
0.0
  0
LINE
  8
0
 62
     0
 10
181.033
 20
76.3309
 30
0.0
 11
181.033
 21
63.5303
 31
0.0
  0
LINE
  8
0
 62
     0
 10
181.033
 20
63.5303
 30
0.0
 11
181.832
 21
63.5303
 31
0.0
  0
LINE
  8
0
 62
     0
 10
181.832
 20
63.5303
 30
0.0
 11
181.832
 21
62.9296
 31
0.0
  0
LINE
  8
0
 62
     0
 10
181.832
 20
62.9296
 30
0.0
 11
195.833
 21
62.9296
 31
0.0
  0
LINE
  8
0
 62
     0
 10
195.833
 20
62.9296
 30
0.0
 11
195.833
 21
63.5303
 31
0.0
  0
LINE
  8
0
 62
     0
 10
195.833
 20
63.5303
 30
0.0
 11
196.632
 21
63.5303
 31
0.0
  0
LINE
  8
0
 62
     0
 10
196.632
 20
63.5303
 30
0.0
 11
196.632
 21
76.3309
 31
0.0
  0
LINE
  8
0
 62
     0
 10
196.632
 20
76.3309
 30
0.0
 11
195.833
 21
76.3309
 31
0.0
  0
LINE
  8
0
 62
     0
 10
195.833
 20
76.3309
 30
0.0
 11
195.833
 21
76.9303
 31
0.0
  0
LINE
  8
0
 62
     0
 10
195.833
 20
76.9303
 30
0.0
 11
181.832
 21
76.9303
 31
0.0
  0
LINE
  8
0
 62
     0
 10
162.782
 20
76.9303
 30
0.0
 11
162.782
 21
76.3309
 31
0.0
  0
LINE
  8
0
 62
     0
 10
162.782
 20
76.3309
 30
0.0
 11
161.983
 21
76.3309
 31
0.0
  0
LINE
  8
0
 62
     0
 10
161.983
 20
76.3309
 30
0.0
 11
161.983
 21
63.5303
 31
0.0
  0
LINE
  8
0
 62
     0
 10
161.983
 20
63.5303
 30
0.0
 11
162.782
 21
63.5303
 31
0.0
  0
LINE
  8
0
 62
     0
 10
162.782
 20
63.5303
 30
0.0
 11
162.782
 21
62.9296
 31
0.0
  0
LINE
  8
0
 62
     0
 10
162.782
 20
62.9296
 30
0.0
 11
176.783
 21
62.9296
 31
0.0
  0
LINE
  8
0
 62
     0
 10
176.783
 20
62.9296
 30
0.0
 11
176.783
 21
63.5303
 31
0.0
  0
LINE
  8
0
 62
     0
 10
176.783
 20
63.5303
 30
0.0
 11
177.582
 21
63.5303
 31
0.0
  0
LINE
  8
0
 62
     0
 10
177.582
 20
63.5303
 30
0.0
 11
177.582
 21
76.3309
 31
0.0
  0
LINE
  8
0
 62
     0
 10
177.582
 20
76.3309
 30
0.0
 11
176.783
 21
76.3309
 31
0.0
  0
LINE
  8
0
 62
     0
 10
176.783
 20
76.3309
 30
0.0
 11
176.783
 21
76.9303
 31
0.0
  0
LINE
  8
0
 62
     0
 10
176.783
 20
76.9303
 30
0.0
 11
162.782
 21
76.9303
 31
0.0
  0
LINE
  8
0
 62
     0
 10
143.732
 20
76.9303
 30
0.0
 11
143.732
 21
76.3309
 31
0.0
  0
LINE
  8
0
 62
     0
 10
143.732
 20
76.3309
 30
0.0
 11
142.933
 21
76.3309
 31
0.0
  0
LINE
  8
0
 62
     0
 10
142.933
 20
76.3309
 30
0.0
 11
142.933
 21
63.5303
 31
0.0
  0
LINE
  8
0
 62
     0
 10
142.933
 20
63.5303
 30
0.0
 11
143.732
 21
63.5303
 31
0.0
  0
LINE
  8
0
 62
     0
 10
143.732
 20
63.5303
 30
0.0
 11
143.732
 21
62.9296
 31
0.0
  0
LINE
  8
0
 62
     0
 10
143.732
 20
62.9296
 30
0.0
 11
157.733
 21
62.9296
 31
0.0
  0
LINE
  8
0
 62
     0
 10
157.733
 20
62.9296
 30
0.0
 11
157.733
 21
63.5303
 31
0.0
  0
LINE
  8
0
 62
     0
 10
157.733
 20
63.5303
 30
0.0
 11
158.532
 21
63.5303
 31
0.0
  0
LINE
  8
0
 62
     0
 10
158.532
 20
63.5303
 30
0.0
 11
158.532
 21
76.3309
 31
0.0
  0
LINE
  8
0
 62
     0
 10
158.532
 20
76.3309
 30
0.0
 11
157.733
 21
76.3309
 31
0.0
  0
LINE
  8
0
 62
     0
 10
157.733
 20
76.3309
 30
0.0
 11
157.733
 21
76.9303
 31
0.0
  0
LINE
  8
0
 62
     0
 10
157.733
 20
76.9303
 30
0.0
 11
143.732
 21
76.9303
 31
0.0
  0
LINE
  8
0
 62
     0
 10
124.682
 20
76.9303
 30
0.0
 11
124.682
 21
76.3309
 31
0.0
  0
LINE
  8
0
 62
     0
 10
124.682
 20
76.3309
 30
0.0
 11
123.883
 21
76.3309
 31
0.0
  0
LINE
  8
0
 62
     0
 10
123.883
 20
76.3309
 30
0.0
 11
123.883
 21
63.5303
 31
0.0
  0
LINE
  8
0
 62
     0
 10
123.883
 20
63.5303
 30
0.0
 11
124.682
 21
63.5303
 31
0.0
  0
LINE
  8
0
 62
     0
 10
124.682
 20
63.5303
 30
0.0
 11
124.682
 21
62.9296
 31
0.0
  0
LINE
  8
0
 62
     0
 10
124.682
 20
62.9296
 30
0.0
 11
138.683
 21
62.9296
 31
0.0
  0
LINE
  8
0
 62
     0
 10
138.683
 20
62.9296
 30
0.0
 11
138.683
 21
63.5303
 31
0.0
  0
LINE
  8
0
 62
     0
 10
138.683
 20
63.5303
 30
0.0
 11
139.482
 21
63.5303
 31
0.0
  0
LINE
  8
0
 62
     0
 10
139.482
 20
63.5303
 30
0.0
 11
139.482
 21
76.3309
 31
0.0
  0
LINE
  8
0
 62
     0
 10
139.482
 20
76.3309
 30
0.0
 11
138.683
 21
76.3309
 31
0.0
  0
LINE
  8
0
 62
     0
 10
138.683
 20
76.3309
 30
0.0
 11
138.683
 21
76.9303
 31
0.0
  0
LINE
  8
0
 62
     0
 10
138.683
 20
76.9303
 30
0.0
 11
124.682
 21
76.9303
 31
0.0
  0
LINE
  8
0
 62
     0
 10
105.632
 20
76.9303
 30
0.0
 11
105.632
 21
76.3309
 31
0.0
  0
LINE
  8
0
 62
     0
 10
105.632
 20
76.3309
 30
0.0
 11
104.833
 21
76.3309
 31
0.0
  0
LINE
  8
0
 62
     0
 10
104.833
 20
76.3309
 30
0.0
 11
104.833
 21
63.5303
 31
0.0
  0
LINE
  8
0
 62
     0
 10
104.833
 20
63.5303
 30
0.0
 11
105.632
 21
63.5303
 31
0.0
  0
LINE
  8
0
 62
     0
 10
105.632
 20
63.5303
 30
0.0
 11
105.632
 21
62.9296
 31
0.0
  0
LINE
  8
0
 62
     0
 10
105.632
 20
62.9296
 30
0.0
 11
119.633
 21
62.9296
 31
0.0
  0
LINE
  8
0
 62
     0
 10
119.633
 20
62.9296
 30
0.0
 11
119.633
 21
63.5303
 31
0.0
  0
LINE
  8
0
 62
     0
 10
119.633
 20
63.5303
 30
0.0
 11
120.432
 21
63.5303
 31
0.0
  0
LINE
  8
0
 62
     0
 10
120.432
 20
63.5303
 30
0.0
 11
120.432
 21
76.3309
 31
0.0
  0
LINE
  8
0
 62
     0
 10
120.432
 20
76.3309
 30
0.0
 11
119.633
 21
76.3309
 31
0.0
  0
LINE
  8
0
 62
     0
 10
119.633
 20
76.3309
 30
0.0
 11
119.633
 21
76.9303
 31
0.0
  0
LINE
  8
0
 62
     0
 10
119.633
 20
76.9303
 30
0.0
 11
105.632
 21
76.9303
 31
0.0
  0
LINE
  8
0
 62
     0
 10
86.5822
 20
76.9303
 30
0.0
 11
86.5822
 21
76.3309
 31
0.0
  0
LINE
  8
0
 62
     0
 10
86.5822
 20
76.3309
 30
0.0
 11
85.7829
 21
76.3309
 31
0.0
  0
LINE
  8
0
 62
     0
 10
85.7829
 20
76.3309
 30
0.0
 11
85.7829
 21
63.5303
 31
0.0
  0
LINE
  8
0
 62
     0
 10
85.7829
 20
63.5303
 30
0.0
 11
86.5822
 21
63.5303
 31
0.0
  0
LINE
  8
0
 62
     0
 10
86.5822
 20
63.5303
 30
0.0
 11
86.5822
 21
62.9296
 31
0.0
  0
LINE
  8
0
 62
     0
 10
86.5822
 20
62.9296
 30
0.0
 11
100.583
 21
62.9296
 31
0.0
  0
LINE
  8
0
 62
     0
 10
100.583
 20
62.9296
 30
0.0
 11
100.583
 21
63.5303
 31
0.0
  0
LINE
  8
0
 62
     0
 10
100.583
 20
63.5303
 30
0.0
 11
101.382
 21
63.5303
 31
0.0
  0
LINE
  8
0
 62
     0
 10
101.382
 20
63.5303
 30
0.0
 11
101.382
 21
76.3309
 31
0.0
  0
LINE
  8
0
 62
     0
 10
101.382
 20
76.3309
 30
0.0
 11
100.583
 21
76.3309
 31
0.0
  0
LINE
  8
0
 62
     0
 10
100.583
 20
76.3309
 30
0.0
 11
100.583
 21
76.9303
 31
0.0
  0
LINE
  8
0
 62
     0
 10
100.583
 20
76.9303
 30
0.0
 11
86.5822
 21
76.9303
 31
0.0
  0
LINE
  8
0
 62
     0
 10
62.7712
 20
76.9303
 30
0.0
 11
62.7712
 21
76.3309
 31
0.0
  0
LINE
  8
0
 62
     0
 10
62.7712
 20
76.3309
 30
0.0
 11
61.9704
 21
76.3309
 31
0.0
  0
LINE
  8
0
 62
     0
 10
61.9704
 20
76.3309
 30
0.0
 11
61.9704
 21
63.5303
 31
0.0
  0
LINE
  8
0
 62
     0
 10
61.9704
 20
63.5303
 30
0.0
 11
62.7712
 21
63.5303
 31
0.0
  0
LINE
  8
0
 62
     0
 10
62.7712
 20
63.5303
 30
0.0
 11
62.7712
 21
62.9296
 31
0.0
  0
LINE
  8
0
 62
     0
 10
62.7712
 20
62.9296
 30
0.0
 11
76.7704
 21
62.9296
 31
0.0
  0
LINE
  8
0
 62
     0
 10
76.7704
 20
62.9296
 30
0.0
 11
76.7704
 21
63.5303
 31
0.0
  0
LINE
  8
0
 62
     0
 10
76.7704
 20
63.5303
 30
0.0
 11
77.5712
 21
63.5303
 31
0.0
  0
LINE
  8
0
 62
     0
 10
77.5712
 20
63.5303
 30
0.0
 11
77.5712
 21
76.3309
 31
0.0
  0
LINE
  8
0
 62
     0
 10
77.5712
 20
76.3309
 30
0.0
 11
76.7704
 21
76.3309
 31
0.0
  0
LINE
  8
0
 62
     0
 10
76.7704
 20
76.3309
 30
0.0
 11
76.7704
 21
76.9303
 31
0.0
  0
LINE
  8
0
 62
     0
 10
76.7704
 20
76.9303
 30
0.0
 11
62.7712
 21
76.9303
 31
0.0
  0
LINE
  8
0
 62
     0
 10
43.7212
 20
76.9303
 30
0.0
 11
43.7212
 21
76.3309
 31
0.0
  0
LINE
  8
0
 62
     0
 10
43.7212
 20
76.3309
 30
0.0
 11
42.9204
 21
76.3309
 31
0.0
  0
LINE
  8
0
 62
     0
 10
42.9204
 20
76.3309
 30
0.0
 11
42.9204
 21
63.5303
 31
0.0
  0
LINE
  8
0
 62
     0
 10
42.9204
 20
63.5303
 30
0.0
 11
43.7212
 21
63.5303
 31
0.0
  0
LINE
  8
0
 62
     0
 10
43.7212
 20
63.5303
 30
0.0
 11
43.7212
 21
62.9296
 31
0.0
  0
LINE
  8
0
 62
     0
 10
43.7212
 20
62.9296
 30
0.0
 11
57.7204
 21
62.9296
 31
0.0
  0
LINE
  8
0
 62
     0
 10
57.7204
 20
62.9296
 30
0.0
 11
57.7204
 21
63.5303
 31
0.0
  0
LINE
  8
0
 62
     0
 10
57.7204
 20
63.5303
 30
0.0
 11
58.5212
 21
63.5303
 31
0.0
  0
LINE
  8
0
 62
     0
 10
58.5212
 20
63.5303
 30
0.0
 11
58.5212
 21
76.3309
 31
0.0
  0
LINE
  8
0
 62
     0
 10
58.5212
 20
76.3309
 30
0.0
 11
57.7204
 21
76.3309
 31
0.0
  0
LINE
  8
0
 62
     0
 10
57.7204
 20
76.3309
 30
0.0
 11
57.7204
 21
76.9303
 31
0.0
  0
LINE
  8
0
 62
     0
 10
57.7204
 20
76.9303
 30
0.0
 11
43.7212
 21
76.9303
 31
0.0
  0
LINE
  8
0
 62
     0
 10
24.671
 20
76.9303
 30
0.0
 11
24.671
 21
76.3309
 31
0.0
  0
LINE
  8
0
 62
     0
 10
24.671
 20
76.3309
 30
0.0
 11
23.8704
 21
76.3309
 31
0.0
  0
LINE
  8
0
 62
     0
 10
23.8704
 20
76.3309
 30
0.0
 11
23.8704
 21
63.5303
 31
0.0
  0
LINE
  8
0
 62
     0
 10
23.8704
 20
63.5303
 30
0.0
 11
24.671
 21
63.5303
 31
0.0
  0
LINE
  8
0
 62
     0
 10
24.671
 20
63.5303
 30
0.0
 11
24.671
 21
62.9296
 31
0.0
  0
LINE
  8
0
 62
     0
 10
24.671
 20
62.9296
 30
0.0
 11
38.6704
 21
62.9296
 31
0.0
  0
LINE
  8
0
 62
     0
 10
38.6704
 20
62.9296
 30
0.0
 11
38.6704
 21
63.5303
 31
0.0
  0
LINE
  8
0
 62
     0
 10
38.6704
 20
63.5303
 30
0.0
 11
39.4712
 21
63.5303
 31
0.0
  0
LINE
  8
0
 62
     0
 10
39.4712
 20
63.5303
 30
0.0
 11
39.4712
 21
76.3309
 31
0.0
  0
LINE
  8
0
 62
     0
 10
39.4712
 20
76.3309
 30
0.0
 11
38.6704
 21
76.3309
 31
0.0
  0
LINE
  8
0
 62
     0
 10
38.6704
 20
76.3309
 30
0.0
 11
38.6704
 21
76.9303
 31
0.0
  0
LINE
  8
0
 62
     0
 10
38.6704
 20
76.9303
 30
0.0
 11
24.671
 21
76.9303
 31
0.0
  0
LINE
  8
0
 62
     0
 10
5.61964
 20
76.9303
 30
0.0
 11
5.61964
 21
76.3309
 31
0.0
  0
LINE
  8
0
 62
     0
 10
5.61964
 20
76.3309
 30
0.0
 11
4.81902
 21
76.3309
 31
0.0
  0
LINE
  8
0
 62
     0
 10
4.81902
 20
76.3309
 30
0.0
 11
4.81902
 21
63.5303
 31
0.0
  0
LINE
  8
0
 62
     0
 10
4.81902
 20
63.5303
 30
0.0
 11
5.61964
 21
63.5303
 31
0.0
  0
LINE
  8
0
 62
     0
 10
5.61964
 20
63.5303
 30
0.0
 11
5.61964
 21
62.9296
 31
0.0
  0
LINE
  8
0
 62
     0
 10
5.61964
 20
62.9296
 30
0.0
 11
19.6205
 21
62.9296
 31
0.0
  0
LINE
  8
0
 62
     0
 10
19.6205
 20
62.9296
 30
0.0
 11
19.6205
 21
63.5303
 31
0.0
  0
LINE
  8
0
 62
     0
 10
19.6205
 20
63.5303
 30
0.0
 11
20.4211
 21
63.5303
 31
0.0
  0
LINE
  8
0
 62
     0
 10
20.4211
 20
63.5303
 30
0.0
 11
20.4211
 21
76.3309
 31
0.0
  0
LINE
  8
0
 62
     0
 10
20.4211
 20
76.3309
 30
0.0
 11
19.6205
 21
76.3309
 31
0.0
  0
LINE
  8
0
 62
     0
 10
19.6205
 20
76.3309
 30
0.0
 11
19.6205
 21
76.9303
 31
0.0
  0
LINE
  8
0
 62
     0
 10
19.6205
 20
76.9303
 30
0.0
 11
5.61964
 21
76.9303
 31
0.0
  0
ENDSEC
  0
EOF
