  0
SECTION
  2
HEADER
  9
$ACADVER
  1
AC1009
  9
$EXTMIN
 10
0.0
 20
0.0
 30
0.0
  9
$EXTMAX
 10
1000.0
 20
1000.0
 30
0.0
  9
$FILLMODE
 70
 0
  9
$SPLFRAME
 70
 1
  0
ENDSEC
  0
SECTION
  2
TABLES
  0
TABLE
  2
LAYER
 70
1
  0
LAYER
  2
0
 70
     0
 62
     7
  6
CONTINUOUS
  0
ENDTAB
  0
ENDSEC
  0
SECTION
  2
ENTITIES
  0
LINE
  8
0
 62
     5
 10
62.6389
 20
87.3319
 30
0.0
 11
5.09598
 21
87.3319
 31
0.0
  0
LINE
  8
0
 62
     5
 10
5.09598
 20
87.3319
 30
0.0
 11
5.09598
 21
5.13182
 31
0.0
  0
LINE
  8
0
 62
     5
 10
5.09598
 20
5.13182
 30
0.0
 11
330.183
 21
5.13182
 31
0.0
  0
LINE
  8
0
 62
     5
 10
330.183
 20
5.13182
 30
0.0
 11
330.183
 21
87.3319
 31
0.0
  0
LINE
  8
0
 62
     5
 10
330.183
 20
87.3319
 30
0.0
 11
84.6391
 21
87.3319
 31
0.0
  0
LINE
  8
0
 62
     5
 10
84.6391
 20
87.3319
 30
0.0
 11
84.6391
 21
92.3325
 31
0.0
  0
LINE
  8
0
 62
     5
 10
84.6391
 20
92.3325
 30
0.0
 11
333.183
 21
92.3325
 31
0.0
  0
LINE
  8
0
 62
     5
 10
333.183
 20
92.3325
 30
0.0
 11
333.34
 21
92.3258
 31
0.0
  0
LINE
  8
0
 62
     5
 10
333.34
 20
92.3258
 30
0.0
 11
333.496
 21
92.3078
 31
0.0
  0
LINE
  8
0
 62
     5
 10
333.496
 20
92.3078
 30
0.0
 11
333.651
 21
92.2775
 31
0.0
  0
LINE
  8
0
 62
     5
 10
333.651
 20
92.2775
 30
0.0
 11
333.801
 21
92.2348
 31
0.0
  0
LINE
  8
0
 62
     5
 10
333.801
 20
92.2348
 30
0.0
 11
333.948
 21
92.1798
 31
0.0
  0
LINE
  8
0
 62
     5
 10
333.948
 20
92.1798
 30
0.0
 11
334.091
 21
92.1149
 31
0.0
  0
LINE
  8
0
 62
     5
 10
334.091
 20
92.1149
 30
0.0
 11
334.228
 21
92.038
 31
0.0
  0
LINE
  8
0
 62
     5
 10
334.228
 20
92.038
 30
0.0
 11
334.359
 21
91.9508
 31
0.0
  0
LINE
  8
0
 62
     5
 10
334.359
 20
91.9508
 30
0.0
 11
334.483
 21
91.8531
 31
0.0
  0
LINE
  8
0
 62
     5
 10
334.483
 20
91.8531
 30
0.0
 11
334.597
 21
91.7469
 31
0.0
  0
LINE
  8
0
 62
     5
 10
334.597
 20
91.7469
 30
0.0
 11
334.705
 21
91.6312
 31
0.0
  0
LINE
  8
0
 62
     5
 10
334.705
 20
91.6312
 30
0.0
 11
334.801
 21
91.5088
 31
0.0
  0
LINE
  8
0
 62
     5
 10
334.801
 20
91.5088
 30
0.0
 11
334.888
 21
91.3776
 31
0.0
  0
LINE
  8
0
 62
     5
 10
334.888
 20
91.3776
 30
0.0
 11
334.965
 21
91.24
 31
0.0
  0
LINE
  8
0
 62
     5
 10
334.965
 20
91.24
 30
0.0
 11
335.031
 21
91.0978
 31
0.0
  0
LINE
  8
0
 62
     5
 10
335.031
 20
91.0978
 30
0.0
 11
335.085
 21
90.9518
 31
0.0
  0
LINE
  8
0
 62
     5
 10
335.085
 20
90.9518
 30
0.0
 11
335.128
 21
90.799
 31
0.0
  0
LINE
  8
0
 62
     5
 10
335.128
 20
90.799
 30
0.0
 11
335.158
 21
90.6459
 31
0.0
  0
LINE
  8
0
 62
     5
 10
335.158
 20
90.6459
 30
0.0
 11
335.177
 21
90.4889
 31
0.0
  0
LINE
  8
0
 62
     5
 10
335.177
 20
90.4889
 30
0.0
 11
335.183
 21
90.3319
 31
0.0
  0
LINE
  8
0
 62
     5
 10
335.183
 20
90.3319
 30
0.0
 11
335.183
 21
2.13183
 31
0.0
  0
LINE
  8
0
 62
     5
 10
335.183
 20
2.13183
 30
0.0
 11
335.177
 21
1.97473
 31
0.0
  0
LINE
  8
0
 62
     5
 10
335.177
 20
1.97473
 30
0.0
 11
335.158
 21
1.81901
 31
0.0
  0
LINE
  8
0
 62
     5
 10
335.158
 20
1.81901
 30
0.0
 11
335.128
 21
1.66467
 31
0.0
  0
LINE
  8
0
 62
     5
 10
335.128
 20
1.66467
 30
0.0
 11
335.085
 21
1.51309
 31
0.0
  0
LINE
  8
0
 62
     5
 10
335.085
 20
1.51309
 30
0.0
 11
335.031
 21
1.36563
 31
0.0
  0
LINE
  8
0
 62
     5
 10
335.031
 20
1.36563
 30
0.0
 11
334.965
 21
1.2237
 31
0.0
  0
LINE
  8
0
 62
     5
 10
334.965
 20
1.2237
 30
0.0
 11
334.888
 21
1.08727
 31
0.0
  0
LINE
  8
0
 62
     5
 10
334.888
 20
1.08727
 30
0.0
 11
334.801
 21
0.956359
 31
0.0
  0
LINE
  8
0
 62
     5
 10
334.801
 20
0.956359
 30
0.0
 11
334.705
 21
0.833713
 31
0.0
  0
LINE
  8
0
 62
     5
 10
334.705
 20
0.833713
 30
0.0
 11
334.597
 21
0.717959
 31
0.0
  0
LINE
  8
0
 62
     5
 10
334.597
 20
0.717959
 30
0.0
 11
334.483
 21
0.611851
 31
0.0
  0
LINE
  8
0
 62
     5
 10
334.483
 20
0.611851
 30
0.0
 11
334.359
 21
0.512632
 31
0.0
  0
LINE
  8
0
 62
     5
 10
334.359
 20
0.512632
 30
0.0
 11
334.228
 21
0.425813
 31
0.0
  0
LINE
  8
0
 62
     5
 10
334.228
 20
0.425813
 30
0.0
 11
334.091
 21
0.348644
 31
0.0
  0
LINE
  8
0
 62
     5
 10
334.091
 20
0.348644
 30
0.0
 11
333.948
 21
0.283876
 31
0.0
  0
LINE
  8
0
 62
     5
 10
333.948
 20
0.283876
 30
0.0
 11
333.801
 21
0.228755
 31
0.0
  0
LINE
  8
0
 62
     5
 10
333.801
 20
0.228755
 30
0.0
 11
333.651
 21
0.187413
 31
0.0
  0
LINE
  8
0
 62
     5
 10
333.651
 20
0.187413
 30
0.0
 11
333.496
 21
0.155718
 31
0.0
  0
LINE
  8
0
 62
     5
 10
333.496
 20
0.155718
 30
0.0
 11
333.34
 21
0.137804
 31
0.0
  0
LINE
  8
0
 62
     5
 10
333.34
 20
0.137804
 30
0.0
 11
333.183
 21
0.132292
 31
0.0
  0
LINE
  8
0
 62
     5
 10
333.183
 20
0.132292
 30
0.0
 11
2.096
 21
0.130914
 31
0.0
  0
LINE
  8
0
 62
     5
 10
2.096
 20
0.130914
 30
0.0
 11
1.9389
 21
0.137804
 31
0.0
  0
LINE
  8
0
 62
     5
 10
1.9389
 20
0.137804
 30
0.0
 11
1.7818
 21
0.155718
 31
0.0
  0
LINE
  8
0
 62
     5
 10
1.7818
 20
0.155718
 30
0.0
 11
1.62884
 21
0.187413
 31
0.0
  0
LINE
  8
0
 62
     5
 10
1.62884
 20
0.187413
 30
0.0
 11
1.47588
 21
0.228755
 31
0.0
  0
LINE
  8
0
 62
     5
 10
1.47588
 20
0.228755
 30
0.0
 11
1.32981
 21
0.283876
 31
0.0
  0
LINE
  8
0
 62
     5
 10
1.32981
 20
0.283876
 30
0.0
 11
1.18787
 21
0.348644
 31
0.0
  0
LINE
  8
0
 62
     5
 10
1.18787
 20
0.348644
 30
0.0
 11
1.05006
 21
0.425813
 31
0.0
  0
LINE
  8
0
 62
     5
 10
1.05006
 20
0.425813
 30
0.0
 11
0.919152
 21
0.512632
 31
0.0
  0
LINE
  8
0
 62
     5
 10
0.919152
 20
0.512632
 30
0.0
 11
0.796505
 21
0.611851
 31
0.0
  0
LINE
  8
0
 62
     5
 10
0.796505
 20
0.611851
 30
0.0
 11
0.680752
 21
0.717959
 31
0.0
  0
LINE
  8
0
 62
     5
 10
0.680752
 20
0.717959
 30
0.0
 11
0.574643
 21
0.833713
 31
0.0
  0
LINE
  8
0
 62
     5
 10
0.574643
 20
0.833713
 30
0.0
 11
0.4768
 21
0.956359
 31
0.0
  0
LINE
  8
0
 62
     5
 10
0.4768
 20
0.956359
 30
0.0
 11
0.389985
 21
1.08727
 31
0.0
  0
LINE
  8
0
 62
     5
 10
0.389985
 20
1.08727
 30
0.0
 11
0.312815
 21
1.2237
 31
0.0
  0
LINE
  8
0
 62
     5
 10
0.312815
 20
1.2237
 30
0.0
 11
0.248047
 21
1.36563
 31
0.0
  0
LINE
  8
0
 62
     5
 10
0.248047
 20
1.36563
 30
0.0
 11
0.192925
 21
1.51309
 31
0.0
  0
LINE
  8
0
 62
     5
 10
0.192925
 20
1.51309
 30
0.0
 11
0.150206
 21
1.66467
 31
0.0
  0
LINE
  8
0
 62
     5
 10
0.150206
 20
1.66467
 30
0.0
 11
0.119889
 21
1.81901
 31
0.0
  0
LINE
  8
0
 62
     5
 10
0.119889
 20
1.81901
 30
0.0
 11
0.101975
 21
1.97473
 31
0.0
  0
LINE
  8
0
 62
     5
 10
0.101975
 20
1.97473
 30
0.0
 11
0.0950846
 21
2.13183
 31
0.0
  0
LINE
  8
0
 62
     5
 10
0.0950846
 20
2.13183
 30
0.0
 11
0.0950846
 21
90.3319
 31
0.0
  0
LINE
  8
0
 62
     5
 10
0.0950846
 20
90.3319
 30
0.0
 11
0.101975
 21
90.4889
 31
0.0
  0
LINE
  8
0
 62
     5
 10
0.101975
 20
90.4889
 30
0.0
 11
0.119889
 21
90.6459
 31
0.0
  0
LINE
  8
0
 62
     5
 10
0.119889
 20
90.6459
 30
0.0
 11
0.150206
 21
90.799
 31
0.0
  0
LINE
  8
0
 62
     5
 10
0.150206
 20
90.799
 30
0.0
 11
0.192925
 21
90.9518
 31
0.0
  0
LINE
  8
0
 62
     5
 10
0.192925
 20
90.9518
 30
0.0
 11
0.248047
 21
91.0978
 31
0.0
  0
LINE
  8
0
 62
     5
 10
0.248047
 20
91.0978
 30
0.0
 11
0.312815
 21
91.24
 31
0.0
  0
LINE
  8
0
 62
     5
 10
0.312815
 20
91.24
 30
0.0
 11
0.389985
 21
91.3776
 31
0.0
  0
LINE
  8
0
 62
     5
 10
0.389985
 20
91.3776
 30
0.0
 11
0.4768
 21
91.5088
 31
0.0
  0
LINE
  8
0
 62
     5
 10
0.4768
 20
91.5088
 30
0.0
 11
0.574643
 21
91.6312
 31
0.0
  0
LINE
  8
0
 62
     5
 10
0.574643
 20
91.6312
 30
0.0
 11
0.680752
 21
91.7469
 31
0.0
  0
LINE
  8
0
 62
     5
 10
0.680752
 20
91.7469
 30
0.0
 11
0.796505
 21
91.8531
 31
0.0
  0
LINE
  8
0
 62
     5
 10
0.796505
 20
91.8531
 30
0.0
 11
0.919152
 21
91.9508
 31
0.0
  0
LINE
  8
0
 62
     5
 10
0.919152
 20
91.9508
 30
0.0
 11
1.05006
 21
92.038
 31
0.0
  0
LINE
  8
0
 62
     5
 10
1.05006
 20
92.038
 30
0.0
 11
1.18787
 21
92.1149
 31
0.0
  0
LINE
  8
0
 62
     5
 10
1.18787
 20
92.1149
 30
0.0
 11
1.32981
 21
92.1798
 31
0.0
  0
LINE
  8
0
 62
     5
 10
1.32981
 20
92.1798
 30
0.0
 11
1.47588
 21
92.2348
 31
0.0
  0
LINE
  8
0
 62
     5
 10
1.47588
 20
92.2348
 30
0.0
 11
1.62884
 21
92.2775
 31
0.0
  0
LINE
  8
0
 62
     5
 10
1.62884
 20
92.2775
 30
0.0
 11
1.7818
 21
92.3078
 31
0.0
  0
LINE
  8
0
 62
     5
 10
1.7818
 20
92.3078
 30
0.0
 11
1.9389
 21
92.3258
 31
0.0
  0
LINE
  8
0
 62
     5
 10
1.9389
 20
92.3258
 30
0.0
 11
2.096
 21
92.3325
 31
0.0
  0
LINE
  8
0
 62
     5
 10
2.096
 20
92.3325
 30
0.0
 11
62.6389
 21
92.3325
 31
0.0
  0
LINE
  8
0
 62
     5
 10
62.6389
 20
92.3325
 30
0.0
 11
62.6389
 21
87.3319
 31
0.0
  0
LINE
  8
0
 62
     5
 10
2.13183
 20
4.05832
 30
0.0
 11
1.7129
 21
3.84471
 31
0.0
  0
LINE
  8
0
 62
     5
 10
1.7129
 20
3.84471
 30
0.0
 11
1.38217
 21
3.51262
 31
0.0
  0
LINE
  8
0
 62
     5
 10
1.38217
 20
3.51262
 30
0.0
 11
1.16858
 21
3.09507
 31
0.0
  0
LINE
  8
0
 62
     5
 10
1.16858
 20
3.09507
 30
0.0
 11
1.09416
 21
2.63067
 31
0.0
  0
LINE
  8
0
 62
     5
 10
1.09416
 20
2.63067
 30
0.0
 11
1.16858
 21
2.16765
 31
0.0
  0
LINE
  8
0
 62
     5
 10
1.16858
 20
2.16765
 30
0.0
 11
1.38217
 21
1.75011
 31
0.0
  0
LINE
  8
0
 62
     5
 10
1.38217
 20
1.75011
 30
0.0
 11
1.7129
 21
1.418
 31
0.0
  0
LINE
  8
0
 62
     5
 10
1.7129
 20
1.418
 30
0.0
 11
2.13183
 21
1.20578
 31
0.0
  0
LINE
  8
0
 62
     5
 10
2.13183
 20
1.20578
 30
0.0
 11
2.59485
 21
1.13137
 31
0.0
  0
LINE
  8
0
 62
     5
 10
2.59485
 20
1.13137
 30
0.0
 11
3.05787
 21
1.20578
 31
0.0
  0
LINE
  8
0
 62
     5
 10
3.05787
 20
1.20578
 30
0.0
 11
3.47679
 21
1.418
 31
0.0
  0
LINE
  8
0
 62
     5
 10
3.47679
 20
1.418
 30
0.0
 11
3.80891
 21
1.75011
 31
0.0
  0
LINE
  8
0
 62
     5
 10
3.80891
 20
1.75011
 30
0.0
 11
4.0211
 21
2.16765
 31
0.0
  0
LINE
  8
0
 62
     5
 10
4.0211
 20
2.16765
 30
0.0
 11
4.09554
 21
2.63067
 31
0.0
  0
LINE
  8
0
 62
     5
 10
4.09554
 20
2.63067
 30
0.0
 11
4.0211
 21
3.09507
 31
0.0
  0
LINE
  8
0
 62
     5
 10
4.0211
 20
3.09507
 30
0.0
 11
3.80891
 21
3.51262
 31
0.0
  0
LINE
  8
0
 62
     5
 10
3.80891
 20
3.51262
 30
0.0
 11
3.47679
 21
3.84471
 31
0.0
  0
LINE
  8
0
 62
     5
 10
3.47679
 20
3.84471
 30
0.0
 11
3.05787
 21
4.05832
 31
0.0
  0
LINE
  8
0
 62
     5
 10
3.05787
 20
4.05832
 30
0.0
 11
2.59485
 21
4.13135
 31
0.0
  0
LINE
  8
0
 62
     5
 10
2.59485
 20
4.13135
 30
0.0
 11
2.13183
 21
4.05832
 31
0.0
  0
LINE
  8
0
 62
     5
 10
112.16
 20
4.05832
 30
0.0
 11
111.742
 21
3.84471
 31
0.0
  0
LINE
  8
0
 62
     5
 10
111.742
 20
3.84471
 30
0.0
 11
111.41
 21
3.51262
 31
0.0
  0
LINE
  8
0
 62
     5
 10
111.41
 20
3.51262
 30
0.0
 11
111.198
 21
3.09507
 31
0.0
  0
LINE
  8
0
 62
     5
 10
111.198
 20
3.09507
 30
0.0
 11
111.125
 21
2.63067
 31
0.0
  0
LINE
  8
0
 62
     5
 10
111.125
 20
2.63067
 30
0.0
 11
111.198
 21
2.16765
 31
0.0
  0
LINE
  8
0
 62
     5
 10
111.198
 20
2.16765
 30
0.0
 11
111.41
 21
1.75011
 31
0.0
  0
LINE
  8
0
 62
     5
 10
111.41
 20
1.75011
 30
0.0
 11
111.742
 21
1.418
 31
0.0
  0
LINE
  8
0
 62
     5
 10
111.742
 20
1.418
 30
0.0
 11
112.16
 21
1.20578
 31
0.0
  0
LINE
  8
0
 62
     5
 10
112.16
 20
1.20578
 30
0.0
 11
112.624
 21
1.13137
 31
0.0
  0
LINE
  8
0
 62
     5
 10
112.624
 20
1.13137
 30
0.0
 11
113.089
 21
1.20578
 31
0.0
  0
LINE
  8
0
 62
     5
 10
113.089
 20
1.20578
 30
0.0
 11
113.506
 21
1.418
 31
0.0
  0
LINE
  8
0
 62
     5
 10
113.506
 20
1.418
 30
0.0
 11
113.838
 21
1.75011
 31
0.0
  0
LINE
  8
0
 62
     5
 10
113.838
 20
1.75011
 30
0.0
 11
114.052
 21
2.16765
 31
0.0
  0
LINE
  8
0
 62
     5
 10
114.052
 20
2.16765
 30
0.0
 11
114.125
 21
2.63067
 31
0.0
  0
LINE
  8
0
 62
     5
 10
114.125
 20
2.63067
 30
0.0
 11
114.052
 21
3.09507
 31
0.0
  0
LINE
  8
0
 62
     5
 10
114.052
 20
3.09507
 30
0.0
 11
113.838
 21
3.51262
 31
0.0
  0
LINE
  8
0
 62
     5
 10
113.838
 20
3.51262
 30
0.0
 11
113.506
 21
3.84471
 31
0.0
  0
LINE
  8
0
 62
     5
 10
113.506
 20
3.84471
 30
0.0
 11
113.089
 21
4.05832
 31
0.0
  0
LINE
  8
0
 62
     5
 10
113.089
 20
4.05832
 30
0.0
 11
112.624
 21
4.13135
 31
0.0
  0
LINE
  8
0
 62
     5
 10
112.624
 20
4.13135
 30
0.0
 11
112.16
 21
4.05832
 31
0.0
  0
LINE
  8
0
 62
     5
 10
222.191
 20
4.05832
 30
0.0
 11
221.772
 21
3.84471
 31
0.0
  0
LINE
  8
0
 62
     5
 10
221.772
 20
3.84471
 30
0.0
 11
221.441
 21
3.51262
 31
0.0
  0
LINE
  8
0
 62
     5
 10
221.441
 20
3.51262
 30
0.0
 11
221.228
 21
3.09507
 31
0.0
  0
LINE
  8
0
 62
     5
 10
221.228
 20
3.09507
 30
0.0
 11
221.155
 21
2.63067
 31
0.0
  0
LINE
  8
0
 62
     5
 10
221.155
 20
2.63067
 30
0.0
 11
221.228
 21
2.16765
 31
0.0
  0
LINE
  8
0
 62
     5
 10
221.228
 20
2.16765
 30
0.0
 11
221.441
 21
1.75011
 31
0.0
  0
LINE
  8
0
 62
     5
 10
221.441
 20
1.75011
 30
0.0
 11
221.772
 21
1.418
 31
0.0
  0
LINE
  8
0
 62
     5
 10
221.772
 20
1.418
 30
0.0
 11
222.191
 21
1.20578
 31
0.0
  0
LINE
  8
0
 62
     5
 10
222.191
 20
1.20578
 30
0.0
 11
222.655
 21
1.13137
 31
0.0
  0
LINE
  8
0
 62
     5
 10
222.655
 20
1.13137
 30
0.0
 11
223.118
 21
1.20578
 31
0.0
  0
LINE
  8
0
 62
     5
 10
223.118
 20
1.20578
 30
0.0
 11
223.536
 21
1.418
 31
0.0
  0
LINE
  8
0
 62
     5
 10
223.536
 20
1.418
 30
0.0
 11
223.868
 21
1.75011
 31
0.0
  0
LINE
  8
0
 62
     5
 10
223.868
 20
1.75011
 30
0.0
 11
224.08
 21
2.16765
 31
0.0
  0
LINE
  8
0
 62
     5
 10
224.08
 20
2.16765
 30
0.0
 11
224.154
 21
2.63067
 31
0.0
  0
LINE
  8
0
 62
     5
 10
224.154
 20
2.63067
 30
0.0
 11
224.08
 21
3.09507
 31
0.0
  0
LINE
  8
0
 62
     5
 10
224.08
 20
3.09507
 30
0.0
 11
223.868
 21
3.51262
 31
0.0
  0
LINE
  8
0
 62
     5
 10
223.868
 20
3.51262
 30
0.0
 11
223.536
 21
3.84471
 31
0.0
  0
LINE
  8
0
 62
     5
 10
223.536
 20
3.84471
 30
0.0
 11
223.118
 21
4.05832
 31
0.0
  0
LINE
  8
0
 62
     5
 10
223.118
 20
4.05832
 30
0.0
 11
222.655
 21
4.13135
 31
0.0
  0
LINE
  8
0
 62
     5
 10
222.655
 20
4.13135
 30
0.0
 11
222.191
 21
4.05832
 31
0.0
  0
LINE
  8
0
 62
     5
 10
332.219
 20
4.05832
 30
0.0
 11
331.801
 21
3.84471
 31
0.0
  0
LINE
  8
0
 62
     5
 10
331.801
 20
3.84471
 30
0.0
 11
331.469
 21
3.51262
 31
0.0
  0
LINE
  8
0
 62
     5
 10
331.469
 20
3.51262
 30
0.0
 11
331.257
 21
3.09507
 31
0.0
  0
LINE
  8
0
 62
     5
 10
331.257
 20
3.09507
 30
0.0
 11
331.184
 21
2.63067
 31
0.0
  0
LINE
  8
0
 62
     5
 10
331.184
 20
2.63067
 30
0.0
 11
331.257
 21
2.16765
 31
0.0
  0
LINE
  8
0
 62
     5
 10
331.257
 20
2.16765
 30
0.0
 11
331.469
 21
1.75011
 31
0.0
  0
LINE
  8
0
 62
     5
 10
331.469
 20
1.75011
 30
0.0
 11
331.801
 21
1.418
 31
0.0
  0
LINE
  8
0
 62
     5
 10
331.801
 20
1.418
 30
0.0
 11
332.219
 21
1.20578
 31
0.0
  0
LINE
  8
0
 62
     5
 10
332.219
 20
1.20578
 30
0.0
 11
332.683
 21
1.13137
 31
0.0
  0
LINE
  8
0
 62
     5
 10
332.683
 20
1.13137
 30
0.0
 11
333.147
 21
1.20578
 31
0.0
  0
LINE
  8
0
 62
     5
 10
333.147
 20
1.20578
 30
0.0
 11
333.565
 21
1.418
 31
0.0
  0
LINE
  8
0
 62
     5
 10
333.565
 20
1.418
 30
0.0
 11
333.897
 21
1.75011
 31
0.0
  0
LINE
  8
0
 62
     5
 10
333.897
 20
1.75011
 30
0.0
 11
334.111
 21
2.16765
 31
0.0
  0
LINE
  8
0
 62
     5
 10
334.111
 20
2.16765
 30
0.0
 11
334.184
 21
2.63067
 31
0.0
  0
LINE
  8
0
 62
     5
 10
334.184
 20
2.63067
 30
0.0
 11
334.111
 21
3.09507
 31
0.0
  0
LINE
  8
0
 62
     5
 10
334.111
 20
3.09507
 30
0.0
 11
333.897
 21
3.51262
 31
0.0
  0
LINE
  8
0
 62
     5
 10
333.897
 20
3.51262
 30
0.0
 11
333.565
 21
3.84471
 31
0.0
  0
LINE
  8
0
 62
     5
 10
333.565
 20
3.84471
 30
0.0
 11
333.147
 21
4.05832
 31
0.0
  0
LINE
  8
0
 62
     5
 10
333.147
 20
4.05832
 30
0.0
 11
332.683
 21
4.13135
 31
0.0
  0
LINE
  8
0
 62
     5
 10
332.683
 20
4.13135
 30
0.0
 11
332.219
 21
4.05832
 31
0.0
  0
LINE
  8
0
 62
     5
 10
2.13183
 20
91.2594
 30
0.0
 11
1.7129
 21
91.0456
 31
0.0
  0
LINE
  8
0
 62
     5
 10
1.7129
 20
91.0456
 30
0.0
 11
1.38217
 21
90.715
 31
0.0
  0
LINE
  8
0
 62
     5
 10
1.38217
 20
90.715
 30
0.0
 11
1.16858
 21
90.2959
 31
0.0
  0
LINE
  8
0
 62
     5
 10
1.16858
 20
90.2959
 30
0.0
 11
1.09416
 21
89.8331
 31
0.0
  0
LINE
  8
0
 62
     5
 10
1.09416
 20
89.8331
 30
0.0
 11
1.16858
 21
89.3699
 31
0.0
  0
LINE
  8
0
 62
     5
 10
1.16858
 20
89.3699
 30
0.0
 11
1.38217
 21
88.9512
 31
0.0
  0
LINE
  8
0
 62
     5
 10
1.38217
 20
88.9512
 30
0.0
 11
1.7129
 21
88.6188
 31
0.0
  0
LINE
  8
0
 62
     5
 10
1.7129
 20
88.6188
 30
0.0
 11
2.13183
 21
88.4068
 31
0.0
  0
LINE
  8
0
 62
     5
 10
2.13183
 20
88.4068
 30
0.0
 11
2.59485
 21
88.3324
 31
0.0
  0
LINE
  8
0
 62
     5
 10
2.59485
 20
88.3324
 30
0.0
 11
3.05787
 21
88.4068
 31
0.0
  0
LINE
  8
0
 62
     5
 10
3.05787
 20
88.4068
 30
0.0
 11
3.47679
 21
88.6188
 31
0.0
  0
LINE
  8
0
 62
     5
 10
3.47679
 20
88.6188
 30
0.0
 11
3.80891
 21
88.9512
 31
0.0
  0
LINE
  8
0
 62
     5
 10
3.80891
 20
88.9512
 30
0.0
 11
4.0211
 21
89.3699
 31
0.0
  0
LINE
  8
0
 62
     5
 10
4.0211
 20
89.3699
 30
0.0
 11
4.09554
 21
89.8331
 31
0.0
  0
LINE
  8
0
 62
     5
 10
4.09554
 20
89.8331
 30
0.0
 11
4.0211
 21
90.2959
 31
0.0
  0
LINE
  8
0
 62
     5
 10
4.0211
 20
90.2959
 30
0.0
 11
3.80891
 21
90.715
 31
0.0
  0
LINE
  8
0
 62
     5
 10
3.80891
 20
90.715
 30
0.0
 11
3.47679
 21
91.0456
 31
0.0
  0
LINE
  8
0
 62
     5
 10
3.47679
 20
91.0456
 30
0.0
 11
3.05787
 21
91.2594
 31
0.0
  0
LINE
  8
0
 62
     5
 10
3.05787
 20
91.2594
 30
0.0
 11
2.59485
 21
91.3324
 31
0.0
  0
LINE
  8
0
 62
     5
 10
2.59485
 20
91.3324
 30
0.0
 11
2.13183
 21
91.2594
 31
0.0
  0
LINE
  8
0
 62
     5
 10
332.219
 20
91.2594
 30
0.0
 11
331.801
 21
91.0456
 31
0.0
  0
LINE
  8
0
 62
     5
 10
331.801
 20
91.0456
 30
0.0
 11
331.469
 21
90.715
 31
0.0
  0
LINE
  8
0
 62
     5
 10
331.469
 20
90.715
 30
0.0
 11
331.257
 21
90.2959
 31
0.0
  0
LINE
  8
0
 62
     5
 10
331.257
 20
90.2959
 30
0.0
 11
331.184
 21
89.8331
 31
0.0
  0
LINE
  8
0
 62
     5
 10
331.184
 20
89.8331
 30
0.0
 11
331.257
 21
89.3699
 31
0.0
  0
LINE
  8
0
 62
     5
 10
331.257
 20
89.3699
 30
0.0
 11
331.469
 21
88.9512
 31
0.0
  0
LINE
  8
0
 62
     5
 10
331.469
 20
88.9512
 30
0.0
 11
331.801
 21
88.6188
 31
0.0
  0
LINE
  8
0
 62
     5
 10
331.801
 20
88.6188
 30
0.0
 11
332.219
 21
88.4068
 31
0.0
  0
LINE
  8
0
 62
     5
 10
332.219
 20
88.4068
 30
0.0
 11
332.683
 21
88.3324
 31
0.0
  0
LINE
  8
0
 62
     5
 10
332.683
 20
88.3324
 30
0.0
 11
333.147
 21
88.4068
 31
0.0
  0
LINE
  8
0
 62
     5
 10
333.147
 20
88.4068
 30
0.0
 11
333.565
 21
88.6188
 31
0.0
  0
LINE
  8
0
 62
     5
 10
333.565
 20
88.6188
 30
0.0
 11
333.897
 21
88.9512
 31
0.0
  0
LINE
  8
0
 62
     5
 10
333.897
 20
88.9512
 30
0.0
 11
334.111
 21
89.3699
 31
0.0
  0
LINE
  8
0
 62
     5
 10
334.111
 20
89.3699
 30
0.0
 11
334.184
 21
89.8331
 31
0.0
  0
LINE
  8
0
 62
     5
 10
334.184
 20
89.8331
 30
0.0
 11
334.111
 21
90.2959
 31
0.0
  0
LINE
  8
0
 62
     5
 10
334.111
 20
90.2959
 30
0.0
 11
333.897
 21
90.715
 31
0.0
  0
LINE
  8
0
 62
     5
 10
333.897
 20
90.715
 30
0.0
 11
333.565
 21
91.0456
 31
0.0
  0
LINE
  8
0
 62
     5
 10
333.565
 20
91.0456
 30
0.0
 11
333.147
 21
91.2594
 31
0.0
  0
LINE
  8
0
 62
     5
 10
333.147
 20
91.2594
 30
0.0
 11
332.683
 21
91.3324
 31
0.0
  0
LINE
  8
0
 62
     5
 10
332.683
 20
91.3324
 30
0.0
 11
332.219
 21
91.2594
 31
0.0
  0
LINE
  8
0
 62
     5
 10
222.191
 20
91.2594
 30
0.0
 11
221.772
 21
91.0456
 31
0.0
  0
LINE
  8
0
 62
     5
 10
221.772
 20
91.0456
 30
0.0
 11
221.441
 21
90.715
 31
0.0
  0
LINE
  8
0
 62
     5
 10
221.441
 20
90.715
 30
0.0
 11
221.228
 21
90.2959
 31
0.0
  0
LINE
  8
0
 62
     5
 10
221.228
 20
90.2959
 30
0.0
 11
221.155
 21
89.8331
 31
0.0
  0
LINE
  8
0
 62
     5
 10
221.155
 20
89.8331
 30
0.0
 11
221.228
 21
89.3699
 31
0.0
  0
LINE
  8
0
 62
     5
 10
221.228
 20
89.3699
 30
0.0
 11
221.441
 21
88.9512
 31
0.0
  0
LINE
  8
0
 62
     5
 10
221.441
 20
88.9512
 30
0.0
 11
221.772
 21
88.6188
 31
0.0
  0
LINE
  8
0
 62
     5
 10
221.772
 20
88.6188
 30
0.0
 11
222.191
 21
88.4068
 31
0.0
  0
LINE
  8
0
 62
     5
 10
222.191
 20
88.4068
 30
0.0
 11
222.655
 21
88.3324
 31
0.0
  0
LINE
  8
0
 62
     5
 10
222.655
 20
88.3324
 30
0.0
 11
223.118
 21
88.4068
 31
0.0
  0
LINE
  8
0
 62
     5
 10
223.118
 20
88.4068
 30
0.0
 11
223.536
 21
88.6188
 31
0.0
  0
LINE
  8
0
 62
     5
 10
223.536
 20
88.6188
 30
0.0
 11
223.868
 21
88.9512
 31
0.0
  0
LINE
  8
0
 62
     5
 10
223.868
 20
88.9512
 30
0.0
 11
224.08
 21
89.3699
 31
0.0
  0
LINE
  8
0
 62
     5
 10
224.08
 20
89.3699
 30
0.0
 11
224.154
 21
89.8331
 31
0.0
  0
LINE
  8
0
 62
     5
 10
224.154
 20
89.8331
 30
0.0
 11
224.08
 21
90.2959
 31
0.0
  0
LINE
  8
0
 62
     5
 10
224.08
 20
90.2959
 30
0.0
 11
223.868
 21
90.715
 31
0.0
  0
LINE
  8
0
 62
     5
 10
223.868
 20
90.715
 30
0.0
 11
223.536
 21
91.0456
 31
0.0
  0
LINE
  8
0
 62
     5
 10
223.536
 20
91.0456
 30
0.0
 11
223.118
 21
91.2594
 31
0.0
  0
LINE
  8
0
 62
     5
 10
223.118
 20
91.2594
 30
0.0
 11
222.655
 21
91.3324
 31
0.0
  0
LINE
  8
0
 62
     5
 10
222.655
 20
91.3324
 30
0.0
 11
222.191
 21
91.2594
 31
0.0
  0
LINE
  8
0
 62
     5
 10
112.16
 20
91.2594
 30
0.0
 11
111.742
 21
91.0456
 31
0.0
  0
LINE
  8
0
 62
     5
 10
111.742
 20
91.0456
 30
0.0
 11
111.41
 21
90.715
 31
0.0
  0
LINE
  8
0
 62
     5
 10
111.41
 20
90.715
 30
0.0
 11
111.198
 21
90.2959
 31
0.0
  0
LINE
  8
0
 62
     5
 10
111.198
 20
90.2959
 30
0.0
 11
111.125
 21
89.8331
 31
0.0
  0
LINE
  8
0
 62
     5
 10
111.125
 20
89.8331
 30
0.0
 11
111.198
 21
89.3699
 31
0.0
  0
LINE
  8
0
 62
     5
 10
111.198
 20
89.3699
 30
0.0
 11
111.41
 21
88.9512
 31
0.0
  0
LINE
  8
0
 62
     5
 10
111.41
 20
88.9512
 30
0.0
 11
111.742
 21
88.6188
 31
0.0
  0
LINE
  8
0
 62
     5
 10
111.742
 20
88.6188
 30
0.0
 11
112.16
 21
88.4068
 31
0.0
  0
LINE
  8
0
 62
     5
 10
112.16
 20
88.4068
 30
0.0
 11
112.624
 21
88.3324
 31
0.0
  0
LINE
  8
0
 62
     5
 10
112.624
 20
88.3324
 30
0.0
 11
113.089
 21
88.4068
 31
0.0
  0
LINE
  8
0
 62
     5
 10
113.089
 20
88.4068
 30
0.0
 11
113.506
 21
88.6188
 31
0.0
  0
LINE
  8
0
 62
     5
 10
113.506
 20
88.6188
 30
0.0
 11
113.838
 21
88.9512
 31
0.0
  0
LINE
  8
0
 62
     5
 10
113.838
 20
88.9512
 30
0.0
 11
114.052
 21
89.3699
 31
0.0
  0
LINE
  8
0
 62
     5
 10
114.052
 20
89.3699
 30
0.0
 11
114.125
 21
89.8331
 31
0.0
  0
LINE
  8
0
 62
     5
 10
114.125
 20
89.8331
 30
0.0
 11
114.052
 21
90.2959
 31
0.0
  0
LINE
  8
0
 62
     5
 10
114.052
 20
90.2959
 30
0.0
 11
113.838
 21
90.715
 31
0.0
  0
LINE
  8
0
 62
     5
 10
113.838
 20
90.715
 30
0.0
 11
113.506
 21
91.0456
 31
0.0
  0
LINE
  8
0
 62
     5
 10
113.506
 20
91.0456
 30
0.0
 11
113.089
 21
91.2594
 31
0.0
  0
LINE
  8
0
 62
     5
 10
113.089
 20
91.2594
 30
0.0
 11
112.624
 21
91.3324
 31
0.0
  0
LINE
  8
0
 62
     5
 10
112.624
 20
91.3324
 30
0.0
 11
112.16
 21
91.2594
 31
0.0
  0
ENDSEC
  0
EOF
