<?xml version="1.0"?>
<!-- Generated by SVGo -->
<svg width="345.089mm" height="102.202mm"
     viewBox="0.000 0.000 345.089 102.202"
     xmlns="http://www.w3.org/2000/svg" 
     xmlns:xlink="http://www.w3.org/1999/xlink">
<polygon points="338.089,5.001 338.246,5.007 338.402,5.025 338.556,5.056 338.707,5.098 338.854,5.153 338.997,5.218 339.134,5.295 339.265,5.382 339.388,5.480 339.503,5.586 339.610,5.702 339.707,5.825 339.794,5.956 339.871,6.093 339.937,6.235 339.991,6.382 340.034,6.534 340.064,6.688 340.083,6.844 340.089,7.001 340.089,95.202 340.083,95.358 340.064,95.514 340.034,95.668 339.991,95.820 339.937,95.967 339.871,96.109 339.794,96.246 339.707,96.377 339.610,96.500 339.503,96.616 339.388,96.722 339.265,96.820 339.134,96.907 338.997,96.984 338.854,97.049 338.707,97.104 338.556,97.146 338.402,97.177 338.246,97.195 338.089,97.201 7.001,97.202 6.844,97.195 6.688,97.177 6.534,97.146 6.382,97.104 6.235,97.049 6.093,96.984 5.956,96.907 5.825,96.820 5.702,96.722 5.586,96.616 5.480,96.500 5.382,96.377 5.295,96.246 5.218,96.109 5.153,95.967 5.098,95.820 5.056,95.668 5.025,95.514 5.007,95.358 5.000,95.202 5.001,7.001 5.007,6.844 5.025,6.688 5.056,6.534 5.098,6.382 5.153,6.235 5.218,6.093 5.295,5.956 5.382,5.825 5.480,5.702 5.586,5.586 5.702,5.480 5.825,5.382 5.956,5.295 6.093,5.218 6.235,5.153 6.382,5.098 6.534,5.056 6.688,5.025 6.844,5.007 7.001,5.000" style="fill:none;stroke-width:0.050000mm;stroke:blue"/>
<polygon points="7.037,93.275 6.619,93.488 6.287,93.820 6.074,94.238 6.000,94.702 6.074,95.165 6.287,95.583 6.619,95.915 7.037,96.128 7.501,96.202 7.964,96.128 8.382,95.915 8.714,95.583 8.927,95.165 9.001,94.702 8.927,94.238 8.714,93.820 8.382,93.488 7.964,93.275 7.501,93.202" style="fill:none;stroke-width:0.050000mm;stroke:blue"/>
<polygon points="117.066,93.275 116.648,93.488 116.316,93.820 116.103,94.238 116.030,94.702 116.103,95.165 116.316,95.583 116.648,95.915 117.066,96.128 117.530,96.202 117.994,96.128 118.412,95.915 118.744,95.583 118.957,95.165 119.030,94.702 118.957,94.238 118.744,93.820 118.412,93.488 117.994,93.275 117.530,93.202" style="fill:none;stroke-width:0.050000mm;stroke:blue"/>
<polygon points="227.096,93.275 226.678,93.488 226.346,93.820 226.133,94.238 226.060,94.702 226.133,95.165 226.346,95.583 226.678,95.915 227.096,96.128 227.560,96.202 228.023,96.128 228.441,95.915 228.773,95.583 228.986,95.165 229.060,94.702 228.986,94.238 228.773,93.820 228.441,93.488 228.023,93.275 227.560,93.202" style="fill:none;stroke-width:0.050000mm;stroke:blue"/>
<polygon points="337.125,93.275 336.707,93.488 336.375,93.820 336.162,94.238 336.089,94.702 336.162,95.165 336.375,95.583 336.707,95.915 337.125,96.128 337.589,96.202 338.053,96.128 338.471,95.915 338.803,95.583 339.016,95.165 339.089,94.702 339.016,94.238 338.803,93.820 338.471,93.488 338.053,93.275 337.589,93.202" style="fill:none;stroke-width:0.050000mm;stroke:blue"/>
<polygon points="206.026,72.676 206.026,73.275 205.226,73.275 205.226,77.376 204.501,77.376 204.501,74.146 202.776,74.146 202.776,73.226 199.476,73.226 199.476,74.146 197.751,74.146 197.751,77.376 196.926,77.376 196.926,80.176 197.751,80.176 197.751,86.446 199.476,86.446 199.476,87.426 202.776,87.426 202.776,86.446 204.501,86.446 204.501,81.976 205.226,81.976 205.226,86.076 206.026,86.076 206.026,86.676 220.026,86.676 220.026,86.076 220.826,86.076 220.826,81.976 221.551,81.976 221.551,86.446 223.276,86.446 223.276,87.426 226.576,87.426 226.576,86.446 228.301,86.446 228.301,80.176 229.126,80.176 229.126,77.376 228.301,77.376 228.301,74.146 226.576,74.146 226.576,73.226 223.276,73.226 223.276,74.146 221.551,74.146 221.551,77.376 220.826,77.376 220.826,73.275 220.026,73.275 220.026,72.676" style="fill:none;stroke-width:0.050000mm;stroke:blue"/>
<polygon points="315.563,72.676 315.563,73.275 314.763,73.275 314.763,86.076 315.563,86.076 315.563,86.676 329.563,86.676 329.563,86.076 330.363,86.076 330.363,73.275 329.563,73.275 329.563,72.676" style="fill:none;stroke-width:0.050000mm;stroke:blue"/>
<polygon points="296.513,72.676 296.513,73.275 295.713,73.275 295.713,86.076 296.513,86.076 296.513,86.676 310.513,86.676 310.513,86.076 311.313,86.076 311.313,73.275 310.513,73.275 310.513,72.676" style="fill:none;stroke-width:0.050000mm;stroke:blue"/>
<polygon points="277.463,72.676 277.463,73.275 276.663,73.275 276.663,86.076 277.463,86.076 277.463,86.676 291.463,86.676 291.463,86.076 292.263,86.076 292.263,73.275 291.463,73.275 291.463,72.676" style="fill:none;stroke-width:0.050000mm;stroke:blue"/>
<polygon points="258.412,72.676 258.412,73.275 257.613,73.275 257.613,86.076 258.412,86.076 258.412,86.676 272.413,86.676 272.413,86.076 273.213,86.076 273.213,73.275 272.413,73.275 272.413,72.676" style="fill:none;stroke-width:0.050000mm;stroke:blue"/>
<polygon points="236.982,72.676 236.982,73.275 236.182,73.275 236.182,86.076 236.982,86.076 236.982,86.676 250.982,86.676 250.982,86.076 251.782,86.076 251.782,73.275 250.982,73.275 250.982,72.676" style="fill:none;stroke-width:0.050000mm;stroke:blue"/>
<polygon points="175.069,72.676 175.069,73.275 174.269,73.275 174.269,86.076 175.069,86.076 175.069,86.676 189.069,86.676 189.069,86.076 189.869,86.076 189.869,73.275 189.069,73.275 189.069,72.676" style="fill:none;stroke-width:0.050000mm;stroke:blue"/>
<polygon points="153.638,72.676 153.638,73.275 152.838,73.275 152.838,86.076 153.638,86.076 153.638,86.676 167.638,86.676 167.638,86.076 168.438,86.076 168.438,73.275 167.638,73.275 167.638,72.676" style="fill:none;stroke-width:0.050000mm;stroke:blue"/>
<polygon points="134.588,72.676 134.588,73.275 133.788,73.275 133.788,86.076 134.588,86.076 134.588,86.676 148.588,86.676 148.588,86.076 149.388,86.076 149.388,73.275 148.588,73.275 148.588,72.676" style="fill:none;stroke-width:0.050000mm;stroke:blue"/>
<polygon points="115.538,72.676 115.538,73.275 114.738,73.275 114.738,86.076 115.538,86.076 115.538,86.676 129.538,86.676 129.538,86.076 130.337,86.076 130.337,73.275 129.538,73.275 129.538,72.676" style="fill:none;stroke-width:0.050000mm;stroke:blue"/>
<polygon points="96.488,72.676 96.488,73.275 95.688,73.275 95.688,86.076 96.488,86.076 96.488,86.676 110.488,86.676 110.488,86.076 111.288,86.076 111.288,73.275 110.488,73.275 110.488,72.676" style="fill:none;stroke-width:0.050000mm;stroke:blue"/>
<polygon points="72.676,72.676 72.676,73.275 71.876,73.275 71.876,86.076 72.676,86.076 72.676,86.676 86.676,86.676 86.676,86.076 87.476,86.076 87.476,73.275 86.676,73.275 86.676,72.676" style="fill:none;stroke-width:0.050000mm;stroke:blue"/>
<polygon points="53.626,72.676 53.626,73.275 52.826,73.275 52.826,86.076 53.626,86.076 53.626,86.676 67.626,86.676 67.626,86.076 68.426,86.076 68.426,73.275 67.626,73.275 67.626,72.676" style="fill:none;stroke-width:0.050000mm;stroke:blue"/>
<polygon points="34.576,72.676 34.576,73.275 33.776,73.275 33.776,86.076 34.576,86.076 34.576,86.676 48.576,86.676 48.576,86.076 49.376,86.076 49.376,73.275 48.576,73.275 48.576,72.676" style="fill:none;stroke-width:0.050000mm;stroke:blue"/>
<polygon points="15.525,72.676 15.525,73.275 14.725,73.275 14.725,86.076 15.525,86.076 15.525,86.676 29.526,86.676 29.526,86.076 30.326,86.076 30.326,73.275 29.526,73.275 29.526,72.676" style="fill:none;stroke-width:0.050000mm;stroke:blue"/>
<polygon points="315.563,53.626 315.563,54.226 314.763,54.226 314.763,67.026 315.563,67.026 315.563,67.626 329.563,67.626 329.563,67.026 330.363,67.026 330.363,54.226 329.563,54.226 329.563,53.626" style="fill:none;stroke-width:0.050000mm;stroke:blue"/>
<polygon points="296.513,53.626 296.513,54.226 295.713,54.226 295.713,67.026 296.513,67.026 296.513,67.626 310.513,67.626 310.513,67.026 311.313,67.026 311.313,54.226 310.513,54.226 310.513,53.626" style="fill:none;stroke-width:0.050000mm;stroke:blue"/>
<polygon points="277.463,53.626 277.463,54.226 276.663,54.226 276.663,67.026 277.463,67.026 277.463,67.626 291.463,67.626 291.463,67.026 292.263,67.026 292.263,54.226 291.463,54.226 291.463,53.626" style="fill:none;stroke-width:0.050000mm;stroke:blue"/>
<polygon points="258.412,53.626 258.412,54.226 257.613,54.226 257.613,67.026 258.412,67.026 258.412,67.626 272.413,67.626 272.413,67.026 273.213,67.026 273.213,54.226 272.413,54.226 272.413,53.626" style="fill:none;stroke-width:0.050000mm;stroke:blue"/>
<polygon points="239.363,53.626 239.363,54.226 238.563,54.226 238.563,67.026 239.363,67.026 239.363,67.626 253.363,67.626 253.363,67.026 254.163,67.026 254.163,54.226 253.363,54.226 253.363,53.626" style="fill:none;stroke-width:0.050000mm;stroke:blue"/>
<polygon points="220.313,53.626 220.313,54.226 219.513,54.226 219.513,67.026 220.313,67.026 220.313,67.626 234.313,67.626 234.313,67.026 235.113,67.026 235.113,54.226 234.313,54.226 234.313,53.626" style="fill:none;stroke-width:0.050000mm;stroke:blue"/>
<polygon points="201.263,53.626 201.263,54.226 200.463,54.226 200.463,67.026 201.263,67.026 201.263,67.626 215.263,67.626 215.263,67.026 216.063,67.026 216.063,54.226 215.263,54.226 215.263,53.626" style="fill:none;stroke-width:0.050000mm;stroke:blue"/>
<polygon points="182.213,53.626 182.213,54.226 181.413,54.226 181.413,67.026 182.213,67.026 182.213,67.626 196.213,67.626 196.213,67.026 197.013,67.026 197.013,54.226 196.213,54.226 196.213,53.626" style="fill:none;stroke-width:0.050000mm;stroke:blue"/>
<polygon points="163.163,53.626 163.163,54.226 162.363,54.226 162.363,67.026 163.163,67.026 163.163,67.626 177.163,67.626 177.163,67.026 177.963,67.026 177.963,54.226 177.163,54.226 177.163,53.626" style="fill:none;stroke-width:0.050000mm;stroke:blue"/>
<polygon points="144.113,53.626 144.113,54.226 143.313,54.226 143.313,67.026 144.113,67.026 144.113,67.626 158.113,67.626 158.113,67.026 158.913,67.026 158.913,54.226 158.113,54.226 158.113,53.626" style="fill:none;stroke-width:0.050000mm;stroke:blue"/>
<polygon points="125.063,53.626 125.063,54.226 124.263,54.226 124.263,67.026 125.063,67.026 125.063,67.626 139.063,67.626 139.063,67.026 139.863,67.026 139.863,54.226 139.063,54.226 139.063,53.626" style="fill:none;stroke-width:0.050000mm;stroke:blue"/>
<polygon points="101.251,53.626 101.251,54.226 100.451,54.226 100.451,67.026 101.251,67.026 101.251,67.626 115.251,67.626 115.251,67.026 116.051,67.026 116.051,54.226 115.251,54.226 115.251,53.626" style="fill:none;stroke-width:0.050000mm;stroke:blue"/>
<polygon points="72.676,53.626 72.676,54.226 71.876,54.226 71.876,67.026 72.676,67.026 72.676,67.626 86.676,67.626 86.676,67.026 87.476,67.026 87.476,54.226 86.676,54.226 86.676,53.626" style="fill:none;stroke-width:0.050000mm;stroke:blue"/>
<polygon points="53.626,53.626 53.626,54.226 52.826,54.226 52.826,67.026 53.626,67.026 53.626,67.626 67.626,67.626 67.626,67.026 68.426,67.026 68.426,54.226 67.626,54.226 67.626,53.626" style="fill:none;stroke-width:0.050000mm;stroke:blue"/>
<polygon points="34.576,53.626 34.576,54.226 33.776,54.226 33.776,67.026 34.576,67.026 34.576,67.626 48.576,67.626 48.576,67.026 49.376,67.026 49.376,54.226 48.576,54.226 48.576,53.626" style="fill:none;stroke-width:0.050000mm;stroke:blue"/>
<polygon points="15.525,53.626 15.525,54.226 14.725,54.226 14.725,67.026 15.525,67.026 15.525,67.626 29.526,67.626 29.526,67.026 30.326,67.026 30.326,54.226 29.526,54.226 29.526,53.626" style="fill:none;stroke-width:0.050000mm;stroke:blue"/>
<polygon points="313.182,34.576 313.182,35.176 312.382,35.176 312.382,47.976 313.182,47.976 313.182,48.576 327.182,48.576 327.182,47.976 327.982,47.976 327.982,35.176 327.182,35.176 327.182,34.576" style="fill:none;stroke-width:0.050000mm;stroke:blue"/>
<polygon points="291.751,34.576 291.751,35.176 290.951,35.176 290.951,47.976 291.751,47.976 291.751,48.576 305.751,48.576 305.751,47.976 306.551,47.976 306.551,35.176 305.751,35.176 305.751,34.576" style="fill:none;stroke-width:0.050000mm;stroke:blue"/>
<polygon points="272.701,34.576 272.701,35.176 271.901,35.176 271.901,47.976 272.701,47.976 272.701,48.576 286.701,48.576 286.701,47.976 287.501,47.976 287.501,35.176 286.701,35.176 286.701,34.576" style="fill:none;stroke-width:0.050000mm;stroke:blue"/>
<polygon points="253.651,34.576 253.651,35.176 252.851,35.176 252.851,47.976 253.651,47.976 253.651,48.576 267.651,48.576 267.651,47.976 268.451,47.976 268.451,35.176 267.651,35.176 267.651,34.576" style="fill:none;stroke-width:0.050000mm;stroke:blue"/>
<polygon points="234.601,34.576 234.601,35.176 233.801,35.176 233.801,47.976 234.601,47.976 234.601,48.576 248.601,48.576 248.601,47.976 249.401,47.976 249.401,35.176 248.601,35.176 248.601,34.576" style="fill:none;stroke-width:0.050000mm;stroke:blue"/>
<polygon points="215.551,34.576 215.551,35.176 214.751,35.176 214.751,47.976 215.551,47.976 215.551,48.576 229.551,48.576 229.551,47.976 230.351,47.976 230.351,35.176 229.551,35.176 229.551,34.576" style="fill:none;stroke-width:0.050000mm;stroke:blue"/>
<polygon points="196.501,34.576 196.501,35.176 195.701,35.176 195.701,47.976 196.501,47.976 196.501,48.576 210.501,48.576 210.501,47.976 211.301,47.976 211.301,35.176 210.501,35.176 210.501,34.576" style="fill:none;stroke-width:0.050000mm;stroke:blue"/>
<polygon points="177.451,34.576 177.451,35.176 176.651,35.176 176.651,47.976 177.451,47.976 177.451,48.576 191.451,48.576 191.451,47.976 192.251,47.976 192.251,35.176 191.451,35.176 191.451,34.576" style="fill:none;stroke-width:0.050000mm;stroke:blue"/>
<polygon points="158.401,34.576 158.401,35.176 157.601,35.176 157.601,47.976 158.401,47.976 158.401,48.576 172.401,48.576 172.401,47.976 173.201,47.976 173.201,35.176 172.401,35.176 172.401,34.576" style="fill:none;stroke-width:0.050000mm;stroke:blue"/>
<polygon points="139.351,34.576 139.351,35.176 138.551,35.176 138.551,47.976 139.351,47.976 139.351,48.576 153.351,48.576 153.351,47.976 154.151,47.976 154.151,35.176 153.351,35.176 153.351,34.576" style="fill:none;stroke-width:0.050000mm;stroke:blue"/>
<polygon points="120.301,34.576 120.301,35.176 119.501,35.176 119.501,47.976 120.301,47.976 120.301,48.576 134.301,48.576 134.301,47.976 135.101,47.976 135.101,35.176 134.301,35.176 134.301,34.576" style="fill:none;stroke-width:0.050000mm;stroke:blue"/>
<polygon points="98.869,34.576 98.869,35.176 98.069,35.176 98.069,47.976 98.869,47.976 98.869,48.576 112.869,48.576 112.869,47.976 113.669,47.976 113.669,35.176 112.869,35.176 112.869,34.576" style="fill:none;stroke-width:0.050000mm;stroke:blue"/>
<polygon points="72.676,34.576 72.676,35.176 71.876,35.176 71.876,47.976 72.676,47.976 72.676,48.576 86.676,48.576 86.676,47.976 87.476,47.976 87.476,35.176 86.676,35.176 86.676,34.576" style="fill:none;stroke-width:0.050000mm;stroke:blue"/>
<polygon points="53.626,34.576 53.626,35.176 52.826,35.176 52.826,47.976 53.626,47.976 53.626,48.576 67.626,48.576 67.626,47.976 68.426,47.976 68.426,35.176 67.626,35.176 67.626,34.576" style="fill:none;stroke-width:0.050000mm;stroke:blue"/>
<polygon points="34.576,34.576 34.576,35.176 33.776,35.176 33.776,47.976 34.576,47.976 34.576,48.576 48.576,48.576 48.576,47.976 49.376,47.976 49.376,35.176 48.576,35.176 48.576,34.576" style="fill:none;stroke-width:0.050000mm;stroke:blue"/>
<polygon points="15.525,34.576 15.525,35.176 14.725,35.176 14.725,47.976 15.525,47.976 15.525,48.576 29.526,48.576 29.526,47.976 30.326,47.976 30.326,35.176 29.526,35.176 29.526,34.576" style="fill:none;stroke-width:0.050000mm;stroke:blue"/>
<polygon points="310.801,15.525 310.801,16.126 310.001,16.126 310.001,28.925 310.801,28.925 310.801,29.526 324.801,29.526 324.801,28.925 325.601,28.925 325.601,16.126 324.801,16.126 324.801,15.525" style="fill:none;stroke-width:0.050000mm;stroke:blue"/>
<polygon points="286.988,15.525 286.988,16.126 286.188,16.126 286.188,28.925 286.988,28.925 286.988,29.526 300.988,29.526 300.988,28.925 301.788,28.925 301.788,16.126 300.988,16.126 300.988,15.525" style="fill:none;stroke-width:0.050000mm;stroke:blue"/>
<polygon points="267.938,15.525 267.938,16.126 267.138,16.126 267.138,28.925 267.938,28.925 267.938,29.526 281.938,29.526 281.938,28.925 282.738,28.925 282.738,16.126 281.938,16.126 281.938,15.525" style="fill:none;stroke-width:0.050000mm;stroke:blue"/>
<polygon points="248.888,15.525 248.888,16.126 248.088,16.126 248.088,28.925 248.888,28.925 248.888,29.526 262.888,29.526 262.888,28.925 263.688,28.925 263.688,16.126 262.888,16.126 262.888,15.525" style="fill:none;stroke-width:0.050000mm;stroke:blue"/>
<polygon points="229.838,15.525 229.838,16.126 229.038,16.126 229.038,28.925 229.838,28.925 229.838,29.526 243.838,29.526 243.838,28.925 244.638,28.925 244.638,16.126 243.838,16.126 243.838,15.525" style="fill:none;stroke-width:0.050000mm;stroke:blue"/>
<polygon points="210.788,15.525 210.788,16.126 209.988,16.126 209.988,28.925 210.788,28.925 210.788,29.526 224.788,29.526 224.788,28.925 225.588,28.925 225.588,16.126 224.788,16.126 224.788,15.525" style="fill:none;stroke-width:0.050000mm;stroke:blue"/>
<polygon points="191.738,15.525 191.738,16.126 190.938,16.126 190.938,28.925 191.738,28.925 191.738,29.526 205.738,29.526 205.738,28.925 206.538,28.925 206.538,16.126 205.738,16.126 205.738,15.525" style="fill:none;stroke-width:0.050000mm;stroke:blue"/>
<polygon points="172.688,15.525 172.688,16.126 171.888,16.126 171.888,28.925 172.688,28.925 172.688,29.526 186.688,29.526 186.688,28.925 187.488,28.925 187.488,16.126 186.688,16.126 186.688,15.525" style="fill:none;stroke-width:0.050000mm;stroke:blue"/>
<polygon points="153.638,15.525 153.638,16.126 152.838,16.126 152.838,28.925 153.638,28.925 153.638,29.526 167.638,29.526 167.638,28.925 168.438,28.925 168.438,16.126 167.638,16.126 167.638,15.525" style="fill:none;stroke-width:0.050000mm;stroke:blue"/>
<polygon points="134.588,15.525 134.588,16.126 133.788,16.126 133.788,28.925 134.588,28.925 134.588,29.526 148.588,29.526 148.588,28.925 149.388,28.925 149.388,16.126 148.588,16.126 148.588,15.525" style="fill:none;stroke-width:0.050000mm;stroke:blue"/>
<polygon points="115.538,15.525 115.538,16.126 114.738,16.126 114.738,28.925 115.538,28.925 115.538,29.526 129.538,29.526 129.538,28.925 130.337,28.925 130.337,16.126 129.538,16.126 129.538,15.525" style="fill:none;stroke-width:0.050000mm;stroke:blue"/>
<polygon points="96.488,15.525 96.488,16.126 95.688,16.126 95.688,28.925 96.488,28.925 96.488,29.526 110.488,29.526 110.488,28.925 111.288,28.925 111.288,16.126 110.488,16.126 110.488,15.525" style="fill:none;stroke-width:0.050000mm;stroke:blue"/>
<polygon points="72.676,15.525 72.676,16.126 71.876,16.126 71.876,28.925 72.676,28.925 72.676,29.526 86.676,29.526 86.676,28.925 87.476,28.925 87.476,16.126 86.676,16.126 86.676,15.525" style="fill:none;stroke-width:0.050000mm;stroke:blue"/>
<polygon points="53.626,15.525 53.626,16.126 52.826,16.126 52.826,28.925 53.626,28.925 53.626,29.526 67.626,29.526 67.626,28.925 68.426,28.925 68.426,16.126 67.626,16.126 67.626,15.525" style="fill:none;stroke-width:0.050000mm;stroke:blue"/>
<polygon points="34.576,15.525 34.576,16.126 33.776,16.126 33.776,28.925 34.576,28.925 34.576,29.526 48.576,29.526 48.576,28.925 49.376,28.925 49.376,16.126 48.576,16.126 48.576,15.525" style="fill:none;stroke-width:0.050000mm;stroke:blue"/>
<polygon points="15.525,15.525 15.525,16.126 14.725,16.126 14.725,28.925 15.525,28.925 15.525,29.526 29.526,29.526 29.526,28.925 30.326,28.925 30.326,16.126 29.526,16.126 29.526,15.525" style="fill:none;stroke-width:0.050000mm;stroke:blue"/>
<polygon points="7.037,6.074 6.619,6.287 6.287,6.619 6.074,7.037 6.000,7.501 6.074,7.964 6.287,8.382 6.619,8.714 7.037,8.927 7.501,9.001 7.964,8.927 8.382,8.714 8.714,8.382 8.927,7.964 9.001,7.501 8.927,7.037 8.714,6.619 8.382,6.287 7.964,6.074 7.501,6.001" style="fill:none;stroke-width:0.050000mm;stroke:blue"/>
<polygon points="337.125,6.074 336.707,6.287 336.375,6.619 336.162,7.037 336.089,7.501 336.162,7.964 336.375,8.382 336.707,8.714 337.125,8.927 337.589,9.001 338.053,8.927 338.471,8.714 338.803,8.382 339.016,7.964 339.089,7.501 339.016,7.037 338.803,6.619 338.471,6.287 338.053,6.074 337.589,6.001" style="fill:none;stroke-width:0.050000mm;stroke:blue"/>
<polygon points="227.096,6.074 226.678,6.287 226.346,6.619 226.133,7.037 226.060,7.501 226.133,7.964 226.346,8.382 226.678,8.714 227.096,8.927 227.560,9.001 228.023,8.927 228.441,8.714 228.773,8.382 228.986,7.964 229.060,7.501 228.986,7.037 228.773,6.619 228.441,6.287 228.023,6.074 227.560,6.001" style="fill:none;stroke-width:0.050000mm;stroke:blue"/>
<polygon points="117.066,6.074 116.648,6.287 116.316,6.619 116.103,7.037 116.030,7.501 116.103,7.964 116.316,8.382 116.648,8.714 117.066,8.927 117.530,9.001 117.994,8.927 118.412,8.714 118.744,8.382 118.957,7.964 119.030,7.501 118.957,7.037 118.744,6.619 118.412,6.287 117.994,6.074 117.530,6.001" style="fill:none;stroke-width:0.050000mm;stroke:blue"/>
</svg>
