  0
SECTION
  2
HEADER
  9
$ACADVER
  1
AC1009
  9
$EXTMIN
 10
0.0
 20
0.0
 30
0.0
  9
$EXTMAX
 10
1000.0
 20
1000.0
 30
0.0
  9
$FILLMODE
 70
 0
  9
$SPLFRAME
 70
 1
  0
ENDSEC
  0
SECTION
  2
TABLES
  0
TABLE
  2
LAYER
 70
1
  0
LAYER
  2
0
 70
     0
 62
     7
  6
CONTINUOUS
  0
ENDTAB
  0
ENDSEC
  0
SECTION
  2
ENTITIES
  0
LINE
  8
0
 62
     0
 10
317.183
 20
76.4575
 30
0.0
 11
317.34
 21
76.4508
 31
0.0
  0
LINE
  8
0
 62
     0
 10
317.34
 20
76.4508
 30
0.0
 11
317.496
 21
76.4328
 31
0.0
  0
LINE
  8
0
 62
     0
 10
317.496
 20
76.4328
 30
0.0
 11
317.65
 21
76.4025
 31
0.0
  0
LINE
  8
0
 62
     0
 10
317.65
 20
76.4025
 30
0.0
 11
317.802
 21
76.3598
 31
0.0
  0
LINE
  8
0
 62
     0
 10
317.802
 20
76.3598
 30
0.0
 11
317.948
 21
76.3048
 31
0.0
  0
LINE
  8
0
 62
     0
 10
317.948
 20
76.3048
 30
0.0
 11
318.091
 21
76.2399
 31
0.0
  0
LINE
  8
0
 62
     0
 10
318.091
 20
76.2399
 30
0.0
 11
318.229
 21
76.163
 31
0.0
  0
LINE
  8
0
 62
     0
 10
318.229
 20
76.163
 30
0.0
 11
318.36
 21
76.0758
 31
0.0
  0
LINE
  8
0
 62
     0
 10
318.36
 20
76.0758
 30
0.0
 11
318.482
 21
75.9781
 31
0.0
  0
LINE
  8
0
 62
     0
 10
318.482
 20
75.9781
 30
0.0
 11
318.597
 21
75.8719
 31
0.0
  0
LINE
  8
0
 62
     0
 10
318.597
 20
75.8719
 30
0.0
 11
318.704
 21
75.7562
 31
0.0
  0
LINE
  8
0
 62
     0
 10
318.704
 20
75.7562
 30
0.0
 11
318.801
 21
75.6338
 31
0.0
  0
LINE
  8
0
 62
     0
 10
318.801
 20
75.6338
 30
0.0
 11
318.889
 21
75.5026
 31
0.0
  0
LINE
  8
0
 62
     0
 10
318.889
 20
75.5026
 30
0.0
 11
318.965
 21
75.365
 31
0.0
  0
LINE
  8
0
 62
     0
 10
318.965
 20
75.365
 30
0.0
 11
319.031
 21
75.2228
 31
0.0
  0
LINE
  8
0
 62
     0
 10
319.031
 20
75.2228
 30
0.0
 11
319.086
 21
75.0768
 31
0.0
  0
LINE
  8
0
 62
     0
 10
319.086
 20
75.0768
 30
0.0
 11
319.129
 21
74.924
 31
0.0
  0
LINE
  8
0
 62
     0
 10
319.129
 20
74.924
 30
0.0
 11
319.159
 21
74.7709
 31
0.0
  0
LINE
  8
0
 62
     0
 10
319.159
 20
74.7709
 30
0.0
 11
319.177
 21
74.6139
 31
0.0
  0
LINE
  8
0
 62
     0
 10
319.177
 20
74.6139
 30
0.0
 11
319.184
 21
74.4569
 31
0.0
  0
LINE
  8
0
 62
     0
 10
319.184
 20
74.4569
 30
0.0
 11
319.184
 21
2.25585
 31
0.0
  0
LINE
  8
0
 62
     0
 10
319.184
 20
2.25585
 30
0.0
 11
319.177
 21
2.10013
 31
0.0
  0
LINE
  8
0
 62
     0
 10
319.177
 20
2.10013
 30
0.0
 11
319.159
 21
1.94441
 31
0.0
  0
LINE
  8
0
 62
     0
 10
319.159
 20
1.94441
 30
0.0
 11
319.129
 21
1.79007
 31
0.0
  0
LINE
  8
0
 62
     0
 10
319.129
 20
1.79007
 30
0.0
 11
319.086
 21
1.63849
 31
0.0
  0
LINE
  8
0
 62
     0
 10
319.086
 20
1.63849
 30
0.0
 11
319.031
 21
1.49104
 31
0.0
  0
LINE
  8
0
 62
     0
 10
319.031
 20
1.49104
 30
0.0
 11
318.965
 21
1.3491
 31
0.0
  0
LINE
  8
0
 62
     0
 10
318.965
 20
1.3491
 30
0.0
 11
318.889
 21
1.21267
 31
0.0
  0
LINE
  8
0
 62
     0
 10
318.889
 20
1.21267
 30
0.0
 11
318.801
 21
1.08176
 31
0.0
  0
LINE
  8
0
 62
     0
 10
318.801
 20
1.08176
 30
0.0
 11
318.704
 21
0.957735
 31
0.0
  0
LINE
  8
0
 62
     0
 10
318.704
 20
0.957735
 30
0.0
 11
318.597
 21
0.841982
 31
0.0
  0
LINE
  8
0
 62
     0
 10
318.597
 20
0.841982
 30
0.0
 11
318.482
 21
0.735873
 31
0.0
  0
LINE
  8
0
 62
     0
 10
318.482
 20
0.735873
 30
0.0
 11
318.36
 21
0.63803
 31
0.0
  0
LINE
  8
0
 62
     0
 10
318.36
 20
0.63803
 30
0.0
 11
318.229
 21
0.551215
 31
0.0
  0
LINE
  8
0
 62
     0
 10
318.229
 20
0.551215
 30
0.0
 11
318.091
 21
0.474045
 31
0.0
  0
LINE
  8
0
 62
     0
 10
318.091
 20
0.474045
 30
0.0
 11
317.948
 21
0.409279
 31
0.0
  0
LINE
  8
0
 62
     0
 10
317.948
 20
0.409279
 30
0.0
 11
317.802
 21
0.354157
 31
0.0
  0
LINE
  8
0
 62
     0
 10
317.802
 20
0.354157
 30
0.0
 11
317.65
 21
0.312815
 31
0.0
  0
LINE
  8
0
 62
     0
 10
317.65
 20
0.312815
 30
0.0
 11
317.496
 21
0.28112
 31
0.0
  0
LINE
  8
0
 62
     0
 10
317.496
 20
0.28112
 30
0.0
 11
317.34
 21
0.263205
 31
0.0
  0
LINE
  8
0
 62
     0
 10
317.34
 20
0.263205
 30
0.0
 11
317.183
 21
0.257693
 31
0.0
  0
LINE
  8
0
 62
     0
 10
317.183
 20
0.257693
 30
0.0
 11
2.096
 21
0.256315
 31
0.0
  0
LINE
  8
0
 62
     0
 10
2.096
 20
0.256315
 30
0.0
 11
1.9389
 21
0.263205
 31
0.0
  0
LINE
  8
0
 62
     0
 10
1.9389
 20
0.263205
 30
0.0
 11
1.7818
 21
0.28112
 31
0.0
  0
LINE
  8
0
 62
     0
 10
1.7818
 20
0.28112
 30
0.0
 11
1.62884
 21
0.312815
 31
0.0
  0
LINE
  8
0
 62
     0
 10
1.62884
 20
0.312815
 30
0.0
 11
1.47588
 21
0.354157
 31
0.0
  0
LINE
  8
0
 62
     0
 10
1.47588
 20
0.354157
 30
0.0
 11
1.32981
 21
0.409279
 31
0.0
  0
LINE
  8
0
 62
     0
 10
1.32981
 20
0.409279
 30
0.0
 11
1.18787
 21
0.474045
 31
0.0
  0
LINE
  8
0
 62
     0
 10
1.18787
 20
0.474045
 30
0.0
 11
1.05006
 21
0.551215
 31
0.0
  0
LINE
  8
0
 62
     0
 10
1.05006
 20
0.551215
 30
0.0
 11
0.919152
 21
0.63803
 31
0.0
  0
LINE
  8
0
 62
     0
 10
0.919152
 20
0.63803
 30
0.0
 11
0.796505
 21
0.735873
 31
0.0
  0
LINE
  8
0
 62
     0
 10
0.796505
 20
0.735873
 30
0.0
 11
0.680752
 21
0.841982
 31
0.0
  0
LINE
  8
0
 62
     0
 10
0.680752
 20
0.841982
 30
0.0
 11
0.574643
 21
0.957735
 31
0.0
  0
LINE
  8
0
 62
     0
 10
0.574643
 20
0.957735
 30
0.0
 11
0.4768
 21
1.08176
 31
0.0
  0
LINE
  8
0
 62
     0
 10
0.4768
 20
1.08176
 30
0.0
 11
0.389985
 21
1.21267
 31
0.0
  0
LINE
  8
0
 62
     0
 10
0.389985
 20
1.21267
 30
0.0
 11
0.312815
 21
1.3491
 31
0.0
  0
LINE
  8
0
 62
     0
 10
0.312815
 20
1.3491
 30
0.0
 11
0.248047
 21
1.49104
 31
0.0
  0
LINE
  8
0
 62
     0
 10
0.248047
 20
1.49104
 30
0.0
 11
0.192925
 21
1.63849
 31
0.0
  0
LINE
  8
0
 62
     0
 10
0.192925
 20
1.63849
 30
0.0
 11
0.150206
 21
1.79007
 31
0.0
  0
LINE
  8
0
 62
     0
 10
0.150206
 20
1.79007
 30
0.0
 11
0.119889
 21
1.94441
 31
0.0
  0
LINE
  8
0
 62
     0
 10
0.119889
 20
1.94441
 30
0.0
 11
0.101975
 21
2.10013
 31
0.0
  0
LINE
  8
0
 62
     0
 10
0.101975
 20
2.10013
 30
0.0
 11
0.0950846
 21
2.25585
 31
0.0
  0
LINE
  8
0
 62
     0
 10
0.0950846
 20
2.25585
 30
0.0
 11
0.0950846
 21
74.4569
 31
0.0
  0
LINE
  8
0
 62
     0
 10
0.0950846
 20
74.4569
 30
0.0
 11
0.101975
 21
74.6139
 31
0.0
  0
LINE
  8
0
 62
     0
 10
0.101975
 20
74.6139
 30
0.0
 11
0.119889
 21
74.7709
 31
0.0
  0
LINE
  8
0
 62
     0
 10
0.119889
 20
74.7709
 30
0.0
 11
0.150206
 21
74.924
 31
0.0
  0
LINE
  8
0
 62
     0
 10
0.150206
 20
74.924
 30
0.0
 11
0.192925
 21
75.0768
 31
0.0
  0
LINE
  8
0
 62
     0
 10
0.192925
 20
75.0768
 30
0.0
 11
0.248047
 21
75.2228
 31
0.0
  0
LINE
  8
0
 62
     0
 10
0.248047
 20
75.2228
 30
0.0
 11
0.312815
 21
75.365
 31
0.0
  0
LINE
  8
0
 62
     0
 10
0.312815
 20
75.365
 30
0.0
 11
0.389985
 21
75.5026
 31
0.0
  0
LINE
  8
0
 62
     0
 10
0.389985
 20
75.5026
 30
0.0
 11
0.4768
 21
75.6338
 31
0.0
  0
LINE
  8
0
 62
     0
 10
0.4768
 20
75.6338
 30
0.0
 11
0.574643
 21
75.7562
 31
0.0
  0
LINE
  8
0
 62
     0
 10
0.574643
 20
75.7562
 30
0.0
 11
0.680752
 21
75.8719
 31
0.0
  0
LINE
  8
0
 62
     0
 10
0.680752
 20
75.8719
 30
0.0
 11
0.796505
 21
75.9781
 31
0.0
  0
LINE
  8
0
 62
     0
 10
0.796505
 20
75.9781
 30
0.0
 11
0.919152
 21
76.0758
 31
0.0
  0
LINE
  8
0
 62
     0
 10
0.919152
 20
76.0758
 30
0.0
 11
1.05006
 21
76.163
 31
0.0
  0
LINE
  8
0
 62
     0
 10
1.05006
 20
76.163
 30
0.0
 11
1.18787
 21
76.2399
 31
0.0
  0
LINE
  8
0
 62
     0
 10
1.18787
 20
76.2399
 30
0.0
 11
1.32981
 21
76.3048
 31
0.0
  0
LINE
  8
0
 62
     0
 10
1.32981
 20
76.3048
 30
0.0
 11
1.47588
 21
76.3598
 31
0.0
  0
LINE
  8
0
 62
     0
 10
1.47588
 20
76.3598
 30
0.0
 11
1.62884
 21
76.4025
 31
0.0
  0
LINE
  8
0
 62
     0
 10
1.62884
 20
76.4025
 30
0.0
 11
1.7818
 21
76.4328
 31
0.0
  0
LINE
  8
0
 62
     0
 10
1.7818
 20
76.4328
 30
0.0
 11
1.9389
 21
76.4508
 31
0.0
  0
LINE
  8
0
 62
     0
 10
1.9389
 20
76.4508
 30
0.0
 11
2.096
 21
76.4575
 31
0.0
  0
LINE
  8
0
 62
     0
 10
2.096
 20
76.4575
 30
0.0
 11
317.183
 21
76.4575
 31
0.0
  0
LINE
  8
0
 62
     0
 10
193.121
 20
16.7817
 30
0.0
 11
193.121
 21
16.1837
 31
0.0
  0
LINE
  8
0
 62
     0
 10
193.121
 20
16.1837
 30
0.0
 11
192.32
 21
16.1837
 31
0.0
  0
LINE
  8
0
 62
     0
 10
192.32
 20
16.1837
 30
0.0
 11
192.32
 21
12.0826
 31
0.0
  0
LINE
  8
0
 62
     0
 10
192.32
 20
12.0826
 30
0.0
 11
191.595
 21
12.0826
 31
0.0
  0
LINE
  8
0
 62
     0
 10
191.595
 20
12.0826
 30
0.0
 11
191.595
 21
15.3128
 31
0.0
  0
LINE
  8
0
 62
     0
 10
191.595
 20
15.3128
 30
0.0
 11
189.87
 21
15.3128
 31
0.0
  0
LINE
  8
0
 62
     0
 10
189.87
 20
15.3128
 30
0.0
 11
189.87
 21
16.2333
 31
0.0
  0
LINE
  8
0
 62
     0
 10
189.87
 20
16.2333
 30
0.0
 11
186.57
 21
16.2333
 31
0.0
  0
LINE
  8
0
 62
     0
 10
186.57
 20
16.2333
 30
0.0
 11
186.57
 21
15.3128
 31
0.0
  0
LINE
  8
0
 62
     0
 10
186.57
 20
15.3128
 30
0.0
 11
184.846
 21
15.3128
 31
0.0
  0
LINE
  8
0
 62
     0
 10
184.846
 20
15.3128
 30
0.0
 11
184.846
 21
12.0826
 31
0.0
  0
LINE
  8
0
 62
     0
 10
184.846
 20
12.0826
 30
0.0
 11
184.021
 21
12.0826
 31
0.0
  0
LINE
  8
0
 62
     0
 10
184.021
 20
12.0826
 30
0.0
 11
184.021
 21
9.28247
 31
0.0
  0
LINE
  8
0
 62
     0
 10
184.021
 20
9.28247
 30
0.0
 11
184.846
 21
9.28247
 31
0.0
  0
LINE
  8
0
 62
     0
 10
184.846
 20
9.28247
 30
0.0
 11
184.846
 21
3.01239
 31
0.0
  0
LINE
  8
0
 62
     0
 10
184.846
 20
3.01239
 30
0.0
 11
186.57
 21
3.01239
 31
0.0
  0
LINE
  8
0
 62
     0
 10
186.57
 20
3.01239
 30
0.0
 11
186.57
 21
2.03261
 31
0.0
  0
LINE
  8
0
 62
     0
 10
186.57
 20
2.03261
 30
0.0
 11
189.87
 21
2.03261
 31
0.0
  0
LINE
  8
0
 62
     0
 10
189.87
 20
2.03261
 30
0.0
 11
189.87
 21
3.01239
 31
0.0
  0
LINE
  8
0
 62
     0
 10
189.87
 20
3.01239
 30
0.0
 11
191.595
 21
3.01239
 31
0.0
  0
LINE
  8
0
 62
     0
 10
191.595
 20
3.01239
 30
0.0
 11
191.595
 21
7.48273
 31
0.0
  0
LINE
  8
0
 62
     0
 10
191.595
 20
7.48273
 30
0.0
 11
192.32
 21
7.48273
 31
0.0
  0
LINE
  8
0
 62
     0
 10
192.32
 20
7.48273
 30
0.0
 11
192.32
 21
3.38171
 31
0.0
  0
LINE
  8
0
 62
     0
 10
192.32
 20
3.38171
 30
0.0
 11
193.121
 21
3.38171
 31
0.0
  0
LINE
  8
0
 62
     0
 10
193.121
 20
3.38171
 30
0.0
 11
193.121
 21
2.78226
 31
0.0
  0
LINE
  8
0
 62
     0
 10
193.121
 20
2.78226
 30
0.0
 11
207.12
 21
2.78226
 31
0.0
  0
LINE
  8
0
 62
     0
 10
207.12
 20
2.78226
 30
0.0
 11
207.12
 21
3.38171
 31
0.0
  0
LINE
  8
0
 62
     0
 10
207.12
 20
3.38171
 30
0.0
 11
207.921
 21
3.38171
 31
0.0
  0
LINE
  8
0
 62
     0
 10
207.921
 20
3.38171
 30
0.0
 11
207.921
 21
7.48273
 31
0.0
  0
LINE
  8
0
 62
     0
 10
207.921
 20
7.48273
 30
0.0
 11
208.646
 21
7.48273
 31
0.0
  0
LINE
  8
0
 62
     0
 10
208.646
 20
7.48273
 30
0.0
 11
208.646
 21
3.01239
 31
0.0
  0
LINE
  8
0
 62
     0
 10
208.646
 20
3.01239
 30
0.0
 11
210.37
 21
3.01239
 31
0.0
  0
LINE
  8
0
 62
     0
 10
210.37
 20
3.01239
 30
0.0
 11
210.37
 21
2.03261
 31
0.0
  0
LINE
  8
0
 62
     0
 10
210.37
 20
2.03261
 30
0.0
 11
213.67
 21
2.03261
 31
0.0
  0
LINE
  8
0
 62
     0
 10
213.67
 20
2.03261
 30
0.0
 11
213.67
 21
3.01239
 31
0.0
  0
LINE
  8
0
 62
     0
 10
213.67
 20
3.01239
 30
0.0
 11
215.396
 21
3.01239
 31
0.0
  0
LINE
  8
0
 62
     0
 10
215.396
 20
3.01239
 30
0.0
 11
215.396
 21
9.28247
 31
0.0
  0
LINE
  8
0
 62
     0
 10
215.396
 20
9.28247
 30
0.0
 11
216.221
 21
9.28247
 31
0.0
  0
LINE
  8
0
 62
     0
 10
216.221
 20
9.28247
 30
0.0
 11
216.221
 21
12.0826
 31
0.0
  0
LINE
  8
0
 62
     0
 10
216.221
 20
12.0826
 30
0.0
 11
215.396
 21
12.0826
 31
0.0
  0
LINE
  8
0
 62
     0
 10
215.396
 20
12.0826
 30
0.0
 11
215.396
 21
15.3128
 31
0.0
  0
LINE
  8
0
 62
     0
 10
215.396
 20
15.3128
 30
0.0
 11
213.67
 21
15.3128
 31
0.0
  0
LINE
  8
0
 62
     0
 10
213.67
 20
15.3128
 30
0.0
 11
213.67
 21
16.2333
 31
0.0
  0
LINE
  8
0
 62
     0
 10
213.67
 20
16.2333
 30
0.0
 11
210.37
 21
16.2333
 31
0.0
  0
LINE
  8
0
 62
     0
 10
210.37
 20
16.2333
 30
0.0
 11
210.37
 21
15.3128
 31
0.0
  0
LINE
  8
0
 62
     0
 10
210.37
 20
15.3128
 30
0.0
 11
208.646
 21
15.3128
 31
0.0
  0
LINE
  8
0
 62
     0
 10
208.646
 20
15.3128
 30
0.0
 11
208.646
 21
12.0826
 31
0.0
  0
LINE
  8
0
 62
     0
 10
208.646
 20
12.0826
 30
0.0
 11
207.921
 21
12.0826
 31
0.0
  0
LINE
  8
0
 62
     0
 10
207.921
 20
12.0826
 30
0.0
 11
207.921
 21
16.1837
 31
0.0
  0
LINE
  8
0
 62
     0
 10
207.921
 20
16.1837
 30
0.0
 11
207.12
 21
16.1837
 31
0.0
  0
LINE
  8
0
 62
     0
 10
207.12
 20
16.1837
 30
0.0
 11
207.12
 21
16.7817
 31
0.0
  0
LINE
  8
0
 62
     0
 10
207.12
 20
16.7817
 30
0.0
 11
193.121
 21
16.7817
 31
0.0
  0
LINE
  8
0
 62
     0
 10
302.657
 20
16.7817
 30
0.0
 11
302.657
 21
16.1837
 31
0.0
  0
LINE
  8
0
 62
     0
 10
302.657
 20
16.1837
 30
0.0
 11
301.858
 21
16.1837
 31
0.0
  0
LINE
  8
0
 62
     0
 10
301.858
 20
16.1837
 30
0.0
 11
301.858
 21
3.38171
 31
0.0
  0
LINE
  8
0
 62
     0
 10
301.858
 20
3.38171
 30
0.0
 11
302.657
 21
3.38171
 31
0.0
  0
LINE
  8
0
 62
     0
 10
302.657
 20
3.38171
 30
0.0
 11
302.657
 21
2.78226
 31
0.0
  0
LINE
  8
0
 62
     0
 10
302.657
 20
2.78226
 30
0.0
 11
316.658
 21
2.78226
 31
0.0
  0
LINE
  8
0
 62
     0
 10
316.658
 20
2.78226
 30
0.0
 11
316.658
 21
3.38171
 31
0.0
  0
LINE
  8
0
 62
     0
 10
316.658
 20
3.38171
 30
0.0
 11
317.457
 21
3.38171
 31
0.0
  0
LINE
  8
0
 62
     0
 10
317.457
 20
3.38171
 30
0.0
 11
317.457
 21
16.1837
 31
0.0
  0
LINE
  8
0
 62
     0
 10
317.457
 20
16.1837
 30
0.0
 11
316.658
 21
16.1837
 31
0.0
  0
LINE
  8
0
 62
     0
 10
316.658
 20
16.1837
 30
0.0
 11
316.658
 21
16.7817
 31
0.0
  0
LINE
  8
0
 62
     0
 10
316.658
 20
16.7817
 30
0.0
 11
302.657
 21
16.7817
 31
0.0
  0
LINE
  8
0
 62
     0
 10
283.607
 20
16.7817
 30
0.0
 11
283.607
 21
16.1837
 31
0.0
  0
LINE
  8
0
 62
     0
 10
283.607
 20
16.1837
 30
0.0
 11
282.808
 21
16.1837
 31
0.0
  0
LINE
  8
0
 62
     0
 10
282.808
 20
16.1837
 30
0.0
 11
282.808
 21
3.38171
 31
0.0
  0
LINE
  8
0
 62
     0
 10
282.808
 20
3.38171
 30
0.0
 11
283.607
 21
3.38171
 31
0.0
  0
LINE
  8
0
 62
     0
 10
283.607
 20
3.38171
 30
0.0
 11
283.607
 21
2.78226
 31
0.0
  0
LINE
  8
0
 62
     0
 10
283.607
 20
2.78226
 30
0.0
 11
297.608
 21
2.78226
 31
0.0
  0
LINE
  8
0
 62
     0
 10
297.608
 20
2.78226
 30
0.0
 11
297.608
 21
3.38171
 31
0.0
  0
LINE
  8
0
 62
     0
 10
297.608
 20
3.38171
 30
0.0
 11
298.407
 21
3.38171
 31
0.0
  0
LINE
  8
0
 62
     0
 10
298.407
 20
3.38171
 30
0.0
 11
298.407
 21
16.1837
 31
0.0
  0
LINE
  8
0
 62
     0
 10
298.407
 20
16.1837
 30
0.0
 11
297.608
 21
16.1837
 31
0.0
  0
LINE
  8
0
 62
     0
 10
297.608
 20
16.1837
 30
0.0
 11
297.608
 21
16.7817
 31
0.0
  0
LINE
  8
0
 62
     0
 10
297.608
 20
16.7817
 30
0.0
 11
283.607
 21
16.7817
 31
0.0
  0
LINE
  8
0
 62
     0
 10
264.557
 20
16.7817
 30
0.0
 11
264.557
 21
16.1837
 31
0.0
  0
LINE
  8
0
 62
     0
 10
264.557
 20
16.1837
 30
0.0
 11
263.758
 21
16.1837
 31
0.0
  0
LINE
  8
0
 62
     0
 10
263.758
 20
16.1837
 30
0.0
 11
263.758
 21
3.38171
 31
0.0
  0
LINE
  8
0
 62
     0
 10
263.758
 20
3.38171
 30
0.0
 11
264.557
 21
3.38171
 31
0.0
  0
LINE
  8
0
 62
     0
 10
264.557
 20
3.38171
 30
0.0
 11
264.557
 21
2.78226
 31
0.0
  0
LINE
  8
0
 62
     0
 10
264.557
 20
2.78226
 30
0.0
 11
278.558
 21
2.78226
 31
0.0
  0
LINE
  8
0
 62
     0
 10
278.558
 20
2.78226
 30
0.0
 11
278.558
 21
3.38171
 31
0.0
  0
LINE
  8
0
 62
     0
 10
278.558
 20
3.38171
 30
0.0
 11
279.357
 21
3.38171
 31
0.0
  0
LINE
  8
0
 62
     0
 10
279.357
 20
3.38171
 30
0.0
 11
279.357
 21
16.1837
 31
0.0
  0
LINE
  8
0
 62
     0
 10
279.357
 20
16.1837
 30
0.0
 11
278.558
 21
16.1837
 31
0.0
  0
LINE
  8
0
 62
     0
 10
278.558
 20
16.1837
 30
0.0
 11
278.558
 21
16.7817
 31
0.0
  0
LINE
  8
0
 62
     0
 10
278.558
 20
16.7817
 30
0.0
 11
264.557
 21
16.7817
 31
0.0
  0
LINE
  8
0
 62
     0
 10
245.507
 20
16.7817
 30
0.0
 11
245.507
 21
16.1837
 31
0.0
  0
LINE
  8
0
 62
     0
 10
245.507
 20
16.1837
 30
0.0
 11
244.708
 21
16.1837
 31
0.0
  0
LINE
  8
0
 62
     0
 10
244.708
 20
16.1837
 30
0.0
 11
244.708
 21
3.38171
 31
0.0
  0
LINE
  8
0
 62
     0
 10
244.708
 20
3.38171
 30
0.0
 11
245.507
 21
3.38171
 31
0.0
  0
LINE
  8
0
 62
     0
 10
245.507
 20
3.38171
 30
0.0
 11
245.507
 21
2.78226
 31
0.0
  0
LINE
  8
0
 62
     0
 10
245.507
 20
2.78226
 30
0.0
 11
259.508
 21
2.78226
 31
0.0
  0
LINE
  8
0
 62
     0
 10
259.508
 20
2.78226
 30
0.0
 11
259.508
 21
3.38171
 31
0.0
  0
LINE
  8
0
 62
     0
 10
259.508
 20
3.38171
 30
0.0
 11
260.307
 21
3.38171
 31
0.0
  0
LINE
  8
0
 62
     0
 10
260.307
 20
3.38171
 30
0.0
 11
260.307
 21
16.1837
 31
0.0
  0
LINE
  8
0
 62
     0
 10
260.307
 20
16.1837
 30
0.0
 11
259.508
 21
16.1837
 31
0.0
  0
LINE
  8
0
 62
     0
 10
259.508
 20
16.1837
 30
0.0
 11
259.508
 21
16.7817
 31
0.0
  0
LINE
  8
0
 62
     0
 10
259.508
 20
16.7817
 30
0.0
 11
245.507
 21
16.7817
 31
0.0
  0
LINE
  8
0
 62
     0
 10
224.076
 20
16.7817
 30
0.0
 11
224.076
 21
16.1837
 31
0.0
  0
LINE
  8
0
 62
     0
 10
224.076
 20
16.1837
 30
0.0
 11
223.277
 21
16.1837
 31
0.0
  0
LINE
  8
0
 62
     0
 10
223.277
 20
16.1837
 30
0.0
 11
223.277
 21
3.38171
 31
0.0
  0
LINE
  8
0
 62
     0
 10
223.277
 20
3.38171
 30
0.0
 11
224.076
 21
3.38171
 31
0.0
  0
LINE
  8
0
 62
     0
 10
224.076
 20
3.38171
 30
0.0
 11
224.076
 21
2.78226
 31
0.0
  0
LINE
  8
0
 62
     0
 10
224.076
 20
2.78226
 30
0.0
 11
238.077
 21
2.78226
 31
0.0
  0
LINE
  8
0
 62
     0
 10
238.077
 20
2.78226
 30
0.0
 11
238.077
 21
3.38171
 31
0.0
  0
LINE
  8
0
 62
     0
 10
238.077
 20
3.38171
 30
0.0
 11
238.876
 21
3.38171
 31
0.0
  0
LINE
  8
0
 62
     0
 10
238.876
 20
3.38171
 30
0.0
 11
238.876
 21
16.1837
 31
0.0
  0
LINE
  8
0
 62
     0
 10
238.876
 20
16.1837
 30
0.0
 11
238.077
 21
16.1837
 31
0.0
  0
LINE
  8
0
 62
     0
 10
238.077
 20
16.1837
 30
0.0
 11
238.077
 21
16.7817
 31
0.0
  0
LINE
  8
0
 62
     0
 10
238.077
 20
16.7817
 30
0.0
 11
224.076
 21
16.7817
 31
0.0
  0
LINE
  8
0
 62
     0
 10
162.163
 20
16.7817
 30
0.0
 11
162.163
 21
16.1837
 31
0.0
  0
LINE
  8
0
 62
     0
 10
162.163
 20
16.1837
 30
0.0
 11
161.364
 21
16.1837
 31
0.0
  0
LINE
  8
0
 62
     0
 10
161.364
 20
16.1837
 30
0.0
 11
161.364
 21
3.38171
 31
0.0
  0
LINE
  8
0
 62
     0
 10
161.364
 20
3.38171
 30
0.0
 11
162.163
 21
3.38171
 31
0.0
  0
LINE
  8
0
 62
     0
 10
162.163
 20
3.38171
 30
0.0
 11
162.163
 21
2.78226
 31
0.0
  0
LINE
  8
0
 62
     0
 10
162.163
 20
2.78226
 30
0.0
 11
176.163
 21
2.78226
 31
0.0
  0
LINE
  8
0
 62
     0
 10
176.163
 20
2.78226
 30
0.0
 11
176.163
 21
3.38171
 31
0.0
  0
LINE
  8
0
 62
     0
 10
176.163
 20
3.38171
 30
0.0
 11
176.964
 21
3.38171
 31
0.0
  0
LINE
  8
0
 62
     0
 10
176.964
 20
3.38171
 30
0.0
 11
176.964
 21
16.1837
 31
0.0
  0
LINE
  8
0
 62
     0
 10
176.964
 20
16.1837
 30
0.0
 11
176.163
 21
16.1837
 31
0.0
  0
LINE
  8
0
 62
     0
 10
176.163
 20
16.1837
 30
0.0
 11
176.163
 21
16.7817
 31
0.0
  0
LINE
  8
0
 62
     0
 10
176.163
 20
16.7817
 30
0.0
 11
162.163
 21
16.7817
 31
0.0
  0
LINE
  8
0
 62
     0
 10
140.732
 20
16.7817
 30
0.0
 11
140.732
 21
16.1837
 31
0.0
  0
LINE
  8
0
 62
     0
 10
140.732
 20
16.1837
 30
0.0
 11
139.933
 21
16.1837
 31
0.0
  0
LINE
  8
0
 62
     0
 10
139.933
 20
16.1837
 30
0.0
 11
139.933
 21
3.38171
 31
0.0
  0
LINE
  8
0
 62
     0
 10
139.933
 20
3.38171
 30
0.0
 11
140.732
 21
3.38171
 31
0.0
  0
LINE
  8
0
 62
     0
 10
140.732
 20
3.38171
 30
0.0
 11
140.732
 21
2.78226
 31
0.0
  0
LINE
  8
0
 62
     0
 10
140.732
 20
2.78226
 30
0.0
 11
154.733
 21
2.78226
 31
0.0
  0
LINE
  8
0
 62
     0
 10
154.733
 20
2.78226
 30
0.0
 11
154.733
 21
3.38171
 31
0.0
  0
LINE
  8
0
 62
     0
 10
154.733
 20
3.38171
 30
0.0
 11
155.532
 21
3.38171
 31
0.0
  0
LINE
  8
0
 62
     0
 10
155.532
 20
3.38171
 30
0.0
 11
155.532
 21
16.1837
 31
0.0
  0
LINE
  8
0
 62
     0
 10
155.532
 20
16.1837
 30
0.0
 11
154.733
 21
16.1837
 31
0.0
  0
LINE
  8
0
 62
     0
 10
154.733
 20
16.1837
 30
0.0
 11
154.733
 21
16.7817
 31
0.0
  0
LINE
  8
0
 62
     0
 10
154.733
 20
16.7817
 30
0.0
 11
140.732
 21
16.7817
 31
0.0
  0
LINE
  8
0
 62
     0
 10
121.682
 20
16.7817
 30
0.0
 11
121.682
 21
16.1837
 31
0.0
  0
LINE
  8
0
 62
     0
 10
121.682
 20
16.1837
 30
0.0
 11
120.883
 21
16.1837
 31
0.0
  0
LINE
  8
0
 62
     0
 10
120.883
 20
16.1837
 30
0.0
 11
120.883
 21
3.38171
 31
0.0
  0
LINE
  8
0
 62
     0
 10
120.883
 20
3.38171
 30
0.0
 11
121.682
 21
3.38171
 31
0.0
  0
LINE
  8
0
 62
     0
 10
121.682
 20
3.38171
 30
0.0
 11
121.682
 21
2.78226
 31
0.0
  0
LINE
  8
0
 62
     0
 10
121.682
 20
2.78226
 30
0.0
 11
135.683
 21
2.78226
 31
0.0
  0
LINE
  8
0
 62
     0
 10
135.683
 20
2.78226
 30
0.0
 11
135.683
 21
3.38171
 31
0.0
  0
LINE
  8
0
 62
     0
 10
135.683
 20
3.38171
 30
0.0
 11
136.482
 21
3.38171
 31
0.0
  0
LINE
  8
0
 62
     0
 10
136.482
 20
3.38171
 30
0.0
 11
136.482
 21
16.1837
 31
0.0
  0
LINE
  8
0
 62
     0
 10
136.482
 20
16.1837
 30
0.0
 11
135.683
 21
16.1837
 31
0.0
  0
LINE
  8
0
 62
     0
 10
135.683
 20
16.1837
 30
0.0
 11
135.683
 21
16.7817
 31
0.0
  0
LINE
  8
0
 62
     0
 10
135.683
 20
16.7817
 30
0.0
 11
121.682
 21
16.7817
 31
0.0
  0
LINE
  8
0
 62
     0
 10
102.632
 20
16.7817
 30
0.0
 11
102.632
 21
16.1837
 31
0.0
  0
LINE
  8
0
 62
     0
 10
102.632
 20
16.1837
 30
0.0
 11
101.833
 21
16.1837
 31
0.0
  0
LINE
  8
0
 62
     0
 10
101.833
 20
16.1837
 30
0.0
 11
101.833
 21
3.38171
 31
0.0
  0
LINE
  8
0
 62
     0
 10
101.833
 20
3.38171
 30
0.0
 11
102.632
 21
3.38171
 31
0.0
  0
LINE
  8
0
 62
     0
 10
102.632
 20
3.38171
 30
0.0
 11
102.632
 21
2.78226
 31
0.0
  0
LINE
  8
0
 62
     0
 10
102.632
 20
2.78226
 30
0.0
 11
116.633
 21
2.78226
 31
0.0
  0
LINE
  8
0
 62
     0
 10
116.633
 20
2.78226
 30
0.0
 11
116.633
 21
3.38171
 31
0.0
  0
LINE
  8
0
 62
     0
 10
116.633
 20
3.38171
 30
0.0
 11
117.432
 21
3.38171
 31
0.0
  0
LINE
  8
0
 62
     0
 10
117.432
 20
3.38171
 30
0.0
 11
117.432
 21
16.1837
 31
0.0
  0
LINE
  8
0
 62
     0
 10
117.432
 20
16.1837
 30
0.0
 11
116.633
 21
16.1837
 31
0.0
  0
LINE
  8
0
 62
     0
 10
116.633
 20
16.1837
 30
0.0
 11
116.633
 21
16.7817
 31
0.0
  0
LINE
  8
0
 62
     0
 10
116.633
 20
16.7817
 30
0.0
 11
102.632
 21
16.7817
 31
0.0
  0
LINE
  8
0
 62
     0
 10
83.5822
 20
16.7817
 30
0.0
 11
83.5822
 21
16.1837
 31
0.0
  0
LINE
  8
0
 62
     0
 10
83.5822
 20
16.1837
 30
0.0
 11
82.7828
 21
16.1837
 31
0.0
  0
LINE
  8
0
 62
     0
 10
82.7828
 20
16.1837
 30
0.0
 11
82.7828
 21
3.38171
 31
0.0
  0
LINE
  8
0
 62
     0
 10
82.7828
 20
3.38171
 30
0.0
 11
83.5822
 21
3.38171
 31
0.0
  0
LINE
  8
0
 62
     0
 10
83.5822
 20
3.38171
 30
0.0
 11
83.5822
 21
2.78226
 31
0.0
  0
LINE
  8
0
 62
     0
 10
83.5822
 20
2.78226
 30
0.0
 11
97.5829
 21
2.78226
 31
0.0
  0
LINE
  8
0
 62
     0
 10
97.5829
 20
2.78226
 30
0.0
 11
97.5829
 21
3.38171
 31
0.0
  0
LINE
  8
0
 62
     0
 10
97.5829
 20
3.38171
 30
0.0
 11
98.3823
 21
3.38171
 31
0.0
  0
LINE
  8
0
 62
     0
 10
98.3823
 20
3.38171
 30
0.0
 11
98.3823
 21
16.1837
 31
0.0
  0
LINE
  8
0
 62
     0
 10
98.3823
 20
16.1837
 30
0.0
 11
97.5829
 21
16.1837
 31
0.0
  0
LINE
  8
0
 62
     0
 10
97.5829
 20
16.1837
 30
0.0
 11
97.5829
 21
16.7817
 31
0.0
  0
LINE
  8
0
 62
     0
 10
97.5829
 20
16.7817
 30
0.0
 11
83.5822
 21
16.7817
 31
0.0
  0
LINE
  8
0
 62
     0
 10
59.7711
 20
16.7817
 30
0.0
 11
59.7711
 21
16.1837
 31
0.0
  0
LINE
  8
0
 62
     0
 10
59.7711
 20
16.1837
 30
0.0
 11
58.9703
 21
16.1837
 31
0.0
  0
LINE
  8
0
 62
     0
 10
58.9703
 20
16.1837
 30
0.0
 11
58.9703
 21
3.38171
 31
0.0
  0
LINE
  8
0
 62
     0
 10
58.9703
 20
3.38171
 30
0.0
 11
59.7711
 21
3.38171
 31
0.0
  0
LINE
  8
0
 62
     0
 10
59.7711
 20
3.38171
 30
0.0
 11
59.7711
 21
2.78226
 31
0.0
  0
LINE
  8
0
 62
     0
 10
59.7711
 20
2.78226
 30
0.0
 11
73.7704
 21
2.78226
 31
0.0
  0
LINE
  8
0
 62
     0
 10
73.7704
 20
2.78226
 30
0.0
 11
73.7704
 21
3.38171
 31
0.0
  0
LINE
  8
0
 62
     0
 10
73.7704
 20
3.38171
 30
0.0
 11
74.5712
 21
3.38171
 31
0.0
  0
LINE
  8
0
 62
     0
 10
74.5712
 20
3.38171
 30
0.0
 11
74.5712
 21
16.1837
 31
0.0
  0
LINE
  8
0
 62
     0
 10
74.5712
 20
16.1837
 30
0.0
 11
73.7704
 21
16.1837
 31
0.0
  0
LINE
  8
0
 62
     0
 10
73.7704
 20
16.1837
 30
0.0
 11
73.7704
 21
16.7817
 31
0.0
  0
LINE
  8
0
 62
     0
 10
73.7704
 20
16.7817
 30
0.0
 11
59.7711
 21
16.7817
 31
0.0
  0
LINE
  8
0
 62
     0
 10
40.7211
 20
16.7817
 30
0.0
 11
40.7211
 21
16.1837
 31
0.0
  0
LINE
  8
0
 62
     0
 10
40.7211
 20
16.1837
 30
0.0
 11
39.9203
 21
16.1837
 31
0.0
  0
LINE
  8
0
 62
     0
 10
39.9203
 20
16.1837
 30
0.0
 11
39.9203
 21
3.38171
 31
0.0
  0
LINE
  8
0
 62
     0
 10
39.9203
 20
3.38171
 30
0.0
 11
40.7211
 21
3.38171
 31
0.0
  0
LINE
  8
0
 62
     0
 10
40.7211
 20
3.38171
 30
0.0
 11
40.7211
 21
2.78226
 31
0.0
  0
LINE
  8
0
 62
     0
 10
40.7211
 20
2.78226
 30
0.0
 11
54.7204
 21
2.78226
 31
0.0
  0
LINE
  8
0
 62
     0
 10
54.7204
 20
2.78226
 30
0.0
 11
54.7204
 21
3.38171
 31
0.0
  0
LINE
  8
0
 62
     0
 10
54.7204
 20
3.38171
 30
0.0
 11
55.5212
 21
3.38171
 31
0.0
  0
LINE
  8
0
 62
     0
 10
55.5212
 20
3.38171
 30
0.0
 11
55.5212
 21
16.1837
 31
0.0
  0
LINE
  8
0
 62
     0
 10
55.5212
 20
16.1837
 30
0.0
 11
54.7204
 21
16.1837
 31
0.0
  0
LINE
  8
0
 62
     0
 10
54.7204
 20
16.1837
 30
0.0
 11
54.7204
 21
16.7817
 31
0.0
  0
LINE
  8
0
 62
     0
 10
54.7204
 20
16.7817
 30
0.0
 11
40.7211
 21
16.7817
 31
0.0
  0
LINE
  8
0
 62
     0
 10
21.671
 20
16.7817
 30
0.0
 11
21.671
 21
16.1837
 31
0.0
  0
LINE
  8
0
 62
     0
 10
21.671
 20
16.1837
 30
0.0
 11
20.8704
 21
16.1837
 31
0.0
  0
LINE
  8
0
 62
     0
 10
20.8704
 20
16.1837
 30
0.0
 11
20.8704
 21
3.38171
 31
0.0
  0
LINE
  8
0
 62
     0
 10
20.8704
 20
3.38171
 30
0.0
 11
21.671
 21
3.38171
 31
0.0
  0
LINE
  8
0
 62
     0
 10
21.671
 20
3.38171
 30
0.0
 11
21.671
 21
2.78226
 31
0.0
  0
LINE
  8
0
 62
     0
 10
21.671
 20
2.78226
 30
0.0
 11
35.6704
 21
2.78226
 31
0.0
  0
LINE
  8
0
 62
     0
 10
35.6704
 20
2.78226
 30
0.0
 11
35.6704
 21
3.38171
 31
0.0
  0
LINE
  8
0
 62
     0
 10
35.6704
 20
3.38171
 30
0.0
 11
36.4712
 21
3.38171
 31
0.0
  0
LINE
  8
0
 62
     0
 10
36.4712
 20
3.38171
 30
0.0
 11
36.4712
 21
16.1837
 31
0.0
  0
LINE
  8
0
 62
     0
 10
36.4712
 20
16.1837
 30
0.0
 11
35.6704
 21
16.1837
 31
0.0
  0
LINE
  8
0
 62
     0
 10
35.6704
 20
16.1837
 30
0.0
 11
35.6704
 21
16.7817
 31
0.0
  0
LINE
  8
0
 62
     0
 10
35.6704
 20
16.7817
 30
0.0
 11
21.671
 21
16.7817
 31
0.0
  0
LINE
  8
0
 62
     0
 10
2.62103
 20
16.7817
 30
0.0
 11
2.62103
 21
16.1837
 31
0.0
  0
LINE
  8
0
 62
     0
 10
2.62103
 20
16.1837
 30
0.0
 11
1.82039
 21
16.1837
 31
0.0
  0
LINE
  8
0
 62
     0
 10
1.82039
 20
16.1837
 30
0.0
 11
1.82039
 21
3.38171
 31
0.0
  0
LINE
  8
0
 62
     0
 10
1.82039
 20
3.38171
 30
0.0
 11
2.62103
 21
3.38171
 31
0.0
  0
LINE
  8
0
 62
     0
 10
2.62103
 20
3.38171
 30
0.0
 11
2.62103
 21
2.78226
 31
0.0
  0
LINE
  8
0
 62
     0
 10
2.62103
 20
2.78226
 30
0.0
 11
16.6205
 21
2.78226
 31
0.0
  0
LINE
  8
0
 62
     0
 10
16.6205
 20
2.78226
 30
0.0
 11
16.6205
 21
3.38171
 31
0.0
  0
LINE
  8
0
 62
     0
 10
16.6205
 20
3.38171
 30
0.0
 11
17.4212
 21
3.38171
 31
0.0
  0
LINE
  8
0
 62
     0
 10
17.4212
 20
3.38171
 30
0.0
 11
17.4212
 21
16.1837
 31
0.0
  0
LINE
  8
0
 62
     0
 10
17.4212
 20
16.1837
 30
0.0
 11
16.6205
 21
16.1837
 31
0.0
  0
LINE
  8
0
 62
     0
 10
16.6205
 20
16.1837
 30
0.0
 11
16.6205
 21
16.7817
 31
0.0
  0
LINE
  8
0
 62
     0
 10
16.6205
 20
16.7817
 30
0.0
 11
2.62103
 21
16.7817
 31
0.0
  0
LINE
  8
0
 62
     0
 10
302.657
 20
35.8316
 30
0.0
 11
302.657
 21
35.2323
 31
0.0
  0
LINE
  8
0
 62
     0
 10
302.657
 20
35.2323
 30
0.0
 11
301.858
 21
35.2323
 31
0.0
  0
LINE
  8
0
 62
     0
 10
301.858
 20
35.2323
 30
0.0
 11
301.858
 21
22.4317
 31
0.0
  0
LINE
  8
0
 62
     0
 10
301.858
 20
22.4317
 30
0.0
 11
302.657
 21
22.4317
 31
0.0
  0
LINE
  8
0
 62
     0
 10
302.657
 20
22.4317
 30
0.0
 11
302.657
 21
21.8323
 31
0.0
  0
LINE
  8
0
 62
     0
 10
302.657
 20
21.8323
 30
0.0
 11
316.658
 21
21.8323
 31
0.0
  0
LINE
  8
0
 62
     0
 10
316.658
 20
21.8323
 30
0.0
 11
316.658
 21
22.4317
 31
0.0
  0
LINE
  8
0
 62
     0
 10
316.658
 20
22.4317
 30
0.0
 11
317.457
 21
22.4317
 31
0.0
  0
LINE
  8
0
 62
     0
 10
317.457
 20
22.4317
 30
0.0
 11
317.457
 21
35.2323
 31
0.0
  0
LINE
  8
0
 62
     0
 10
317.457
 20
35.2323
 30
0.0
 11
316.658
 21
35.2323
 31
0.0
  0
LINE
  8
0
 62
     0
 10
316.658
 20
35.2323
 30
0.0
 11
316.658
 21
35.8316
 31
0.0
  0
LINE
  8
0
 62
     0
 10
316.658
 20
35.8316
 30
0.0
 11
302.657
 21
35.8316
 31
0.0
  0
LINE
  8
0
 62
     0
 10
283.607
 20
35.8316
 30
0.0
 11
283.607
 21
35.2323
 31
0.0
  0
LINE
  8
0
 62
     0
 10
283.607
 20
35.2323
 30
0.0
 11
282.808
 21
35.2323
 31
0.0
  0
LINE
  8
0
 62
     0
 10
282.808
 20
35.2323
 30
0.0
 11
282.808
 21
22.4317
 31
0.0
  0
LINE
  8
0
 62
     0
 10
282.808
 20
22.4317
 30
0.0
 11
283.607
 21
22.4317
 31
0.0
  0
LINE
  8
0
 62
     0
 10
283.607
 20
22.4317
 30
0.0
 11
283.607
 21
21.8323
 31
0.0
  0
LINE
  8
0
 62
     0
 10
283.607
 20
21.8323
 30
0.0
 11
297.608
 21
21.8323
 31
0.0
  0
LINE
  8
0
 62
     0
 10
297.608
 20
21.8323
 30
0.0
 11
297.608
 21
22.4317
 31
0.0
  0
LINE
  8
0
 62
     0
 10
297.608
 20
22.4317
 30
0.0
 11
298.407
 21
22.4317
 31
0.0
  0
LINE
  8
0
 62
     0
 10
298.407
 20
22.4317
 30
0.0
 11
298.407
 21
35.2323
 31
0.0
  0
LINE
  8
0
 62
     0
 10
298.407
 20
35.2323
 30
0.0
 11
297.608
 21
35.2323
 31
0.0
  0
LINE
  8
0
 62
     0
 10
297.608
 20
35.2323
 30
0.0
 11
297.608
 21
35.8316
 31
0.0
  0
LINE
  8
0
 62
     0
 10
297.608
 20
35.8316
 30
0.0
 11
283.607
 21
35.8316
 31
0.0
  0
LINE
  8
0
 62
     0
 10
264.557
 20
35.8316
 30
0.0
 11
264.557
 21
35.2323
 31
0.0
  0
LINE
  8
0
 62
     0
 10
264.557
 20
35.2323
 30
0.0
 11
263.758
 21
35.2323
 31
0.0
  0
LINE
  8
0
 62
     0
 10
263.758
 20
35.2323
 30
0.0
 11
263.758
 21
22.4317
 31
0.0
  0
LINE
  8
0
 62
     0
 10
263.758
 20
22.4317
 30
0.0
 11
264.557
 21
22.4317
 31
0.0
  0
LINE
  8
0
 62
     0
 10
264.557
 20
22.4317
 30
0.0
 11
264.557
 21
21.8323
 31
0.0
  0
LINE
  8
0
 62
     0
 10
264.557
 20
21.8323
 30
0.0
 11
278.558
 21
21.8323
 31
0.0
  0
LINE
  8
0
 62
     0
 10
278.558
 20
21.8323
 30
0.0
 11
278.558
 21
22.4317
 31
0.0
  0
LINE
  8
0
 62
     0
 10
278.558
 20
22.4317
 30
0.0
 11
279.357
 21
22.4317
 31
0.0
  0
LINE
  8
0
 62
     0
 10
279.357
 20
22.4317
 30
0.0
 11
279.357
 21
35.2323
 31
0.0
  0
LINE
  8
0
 62
     0
 10
279.357
 20
35.2323
 30
0.0
 11
278.558
 21
35.2323
 31
0.0
  0
LINE
  8
0
 62
     0
 10
278.558
 20
35.2323
 30
0.0
 11
278.558
 21
35.8316
 31
0.0
  0
LINE
  8
0
 62
     0
 10
278.558
 20
35.8316
 30
0.0
 11
264.557
 21
35.8316
 31
0.0
  0
LINE
  8
0
 62
     0
 10
245.507
 20
35.8316
 30
0.0
 11
245.507
 21
35.2323
 31
0.0
  0
LINE
  8
0
 62
     0
 10
245.507
 20
35.2323
 30
0.0
 11
244.708
 21
35.2323
 31
0.0
  0
LINE
  8
0
 62
     0
 10
244.708
 20
35.2323
 30
0.0
 11
244.708
 21
22.4317
 31
0.0
  0
LINE
  8
0
 62
     0
 10
244.708
 20
22.4317
 30
0.0
 11
245.507
 21
22.4317
 31
0.0
  0
LINE
  8
0
 62
     0
 10
245.507
 20
22.4317
 30
0.0
 11
245.507
 21
21.8323
 31
0.0
  0
LINE
  8
0
 62
     0
 10
245.507
 20
21.8323
 30
0.0
 11
259.508
 21
21.8323
 31
0.0
  0
LINE
  8
0
 62
     0
 10
259.508
 20
21.8323
 30
0.0
 11
259.508
 21
22.4317
 31
0.0
  0
LINE
  8
0
 62
     0
 10
259.508
 20
22.4317
 30
0.0
 11
260.307
 21
22.4317
 31
0.0
  0
LINE
  8
0
 62
     0
 10
260.307
 20
22.4317
 30
0.0
 11
260.307
 21
35.2323
 31
0.0
  0
LINE
  8
0
 62
     0
 10
260.307
 20
35.2323
 30
0.0
 11
259.508
 21
35.2323
 31
0.0
  0
LINE
  8
0
 62
     0
 10
259.508
 20
35.2323
 30
0.0
 11
259.508
 21
35.8316
 31
0.0
  0
LINE
  8
0
 62
     0
 10
259.508
 20
35.8316
 30
0.0
 11
245.507
 21
35.8316
 31
0.0
  0
LINE
  8
0
 62
     0
 10
226.457
 20
35.8316
 30
0.0
 11
226.457
 21
35.2323
 31
0.0
  0
LINE
  8
0
 62
     0
 10
226.457
 20
35.2323
 30
0.0
 11
225.658
 21
35.2323
 31
0.0
  0
LINE
  8
0
 62
     0
 10
225.658
 20
35.2323
 30
0.0
 11
225.658
 21
22.4317
 31
0.0
  0
LINE
  8
0
 62
     0
 10
225.658
 20
22.4317
 30
0.0
 11
226.457
 21
22.4317
 31
0.0
  0
LINE
  8
0
 62
     0
 10
226.457
 20
22.4317
 30
0.0
 11
226.457
 21
21.8323
 31
0.0
  0
LINE
  8
0
 62
     0
 10
226.457
 20
21.8323
 30
0.0
 11
240.458
 21
21.8323
 31
0.0
  0
LINE
  8
0
 62
     0
 10
240.458
 20
21.8323
 30
0.0
 11
240.458
 21
22.4317
 31
0.0
  0
LINE
  8
0
 62
     0
 10
240.458
 20
22.4317
 30
0.0
 11
241.257
 21
22.4317
 31
0.0
  0
LINE
  8
0
 62
     0
 10
241.257
 20
22.4317
 30
0.0
 11
241.257
 21
35.2323
 31
0.0
  0
LINE
  8
0
 62
     0
 10
241.257
 20
35.2323
 30
0.0
 11
240.458
 21
35.2323
 31
0.0
  0
LINE
  8
0
 62
     0
 10
240.458
 20
35.2323
 30
0.0
 11
240.458
 21
35.8316
 31
0.0
  0
LINE
  8
0
 62
     0
 10
240.458
 20
35.8316
 30
0.0
 11
226.457
 21
35.8316
 31
0.0
  0
LINE
  8
0
 62
     0
 10
207.407
 20
35.8316
 30
0.0
 11
207.407
 21
35.2323
 31
0.0
  0
LINE
  8
0
 62
     0
 10
207.407
 20
35.2323
 30
0.0
 11
206.608
 21
35.2323
 31
0.0
  0
LINE
  8
0
 62
     0
 10
206.608
 20
35.2323
 30
0.0
 11
206.608
 21
22.4317
 31
0.0
  0
LINE
  8
0
 62
     0
 10
206.608
 20
22.4317
 30
0.0
 11
207.407
 21
22.4317
 31
0.0
  0
LINE
  8
0
 62
     0
 10
207.407
 20
22.4317
 30
0.0
 11
207.407
 21
21.8323
 31
0.0
  0
LINE
  8
0
 62
     0
 10
207.407
 20
21.8323
 30
0.0
 11
221.408
 21
21.8323
 31
0.0
  0
LINE
  8
0
 62
     0
 10
221.408
 20
21.8323
 30
0.0
 11
221.408
 21
22.4317
 31
0.0
  0
LINE
  8
0
 62
     0
 10
221.408
 20
22.4317
 30
0.0
 11
222.207
 21
22.4317
 31
0.0
  0
LINE
  8
0
 62
     0
 10
222.207
 20
22.4317
 30
0.0
 11
222.207
 21
35.2323
 31
0.0
  0
LINE
  8
0
 62
     0
 10
222.207
 20
35.2323
 30
0.0
 11
221.408
 21
35.2323
 31
0.0
  0
LINE
  8
0
 62
     0
 10
221.408
 20
35.2323
 30
0.0
 11
221.408
 21
35.8316
 31
0.0
  0
LINE
  8
0
 62
     0
 10
221.408
 20
35.8316
 30
0.0
 11
207.407
 21
35.8316
 31
0.0
  0
LINE
  8
0
 62
     0
 10
178.832
 20
35.8316
 30
0.0
 11
178.832
 21
35.2323
 31
0.0
  0
LINE
  8
0
 62
     0
 10
178.832
 20
35.2323
 30
0.0
 11
178.033
 21
35.2323
 31
0.0
  0
LINE
  8
0
 62
     0
 10
178.033
 20
35.2323
 30
0.0
 11
178.033
 21
22.4317
 31
0.0
  0
LINE
  8
0
 62
     0
 10
178.033
 20
22.4317
 30
0.0
 11
178.832
 21
22.4317
 31
0.0
  0
LINE
  8
0
 62
     0
 10
178.832
 20
22.4317
 30
0.0
 11
178.832
 21
21.8323
 31
0.0
  0
LINE
  8
0
 62
     0
 10
178.832
 20
21.8323
 30
0.0
 11
192.833
 21
21.8323
 31
0.0
  0
LINE
  8
0
 62
     0
 10
192.833
 20
21.8323
 30
0.0
 11
192.833
 21
22.4317
 31
0.0
  0
LINE
  8
0
 62
     0
 10
192.833
 20
22.4317
 30
0.0
 11
193.632
 21
22.4317
 31
0.0
  0
LINE
  8
0
 62
     0
 10
193.632
 20
22.4317
 30
0.0
 11
193.632
 21
35.2323
 31
0.0
  0
LINE
  8
0
 62
     0
 10
193.632
 20
35.2323
 30
0.0
 11
192.833
 21
35.2323
 31
0.0
  0
LINE
  8
0
 62
     0
 10
192.833
 20
35.2323
 30
0.0
 11
192.833
 21
35.8316
 31
0.0
  0
LINE
  8
0
 62
     0
 10
192.833
 20
35.8316
 30
0.0
 11
178.832
 21
35.8316
 31
0.0
  0
LINE
  8
0
 62
     0
 10
159.782
 20
35.8316
 30
0.0
 11
159.782
 21
35.2323
 31
0.0
  0
LINE
  8
0
 62
     0
 10
159.782
 20
35.2323
 30
0.0
 11
158.983
 21
35.2323
 31
0.0
  0
LINE
  8
0
 62
     0
 10
158.983
 20
35.2323
 30
0.0
 11
158.983
 21
22.4317
 31
0.0
  0
LINE
  8
0
 62
     0
 10
158.983
 20
22.4317
 30
0.0
 11
159.782
 21
22.4317
 31
0.0
  0
LINE
  8
0
 62
     0
 10
159.782
 20
22.4317
 30
0.0
 11
159.782
 21
21.8323
 31
0.0
  0
LINE
  8
0
 62
     0
 10
159.782
 20
21.8323
 30
0.0
 11
173.783
 21
21.8323
 31
0.0
  0
LINE
  8
0
 62
     0
 10
173.783
 20
21.8323
 30
0.0
 11
173.783
 21
22.4317
 31
0.0
  0
LINE
  8
0
 62
     0
 10
173.783
 20
22.4317
 30
0.0
 11
174.582
 21
22.4317
 31
0.0
  0
LINE
  8
0
 62
     0
 10
174.582
 20
22.4317
 30
0.0
 11
174.582
 21
35.2323
 31
0.0
  0
LINE
  8
0
 62
     0
 10
174.582
 20
35.2323
 30
0.0
 11
173.783
 21
35.2323
 31
0.0
  0
LINE
  8
0
 62
     0
 10
173.783
 20
35.2323
 30
0.0
 11
173.783
 21
35.8316
 31
0.0
  0
LINE
  8
0
 62
     0
 10
173.783
 20
35.8316
 30
0.0
 11
159.782
 21
35.8316
 31
0.0
  0
LINE
  8
0
 62
     0
 10
140.732
 20
35.8316
 30
0.0
 11
140.732
 21
35.2323
 31
0.0
  0
LINE
  8
0
 62
     0
 10
140.732
 20
35.2323
 30
0.0
 11
139.933
 21
35.2323
 31
0.0
  0
LINE
  8
0
 62
     0
 10
139.933
 20
35.2323
 30
0.0
 11
139.933
 21
22.4317
 31
0.0
  0
LINE
  8
0
 62
     0
 10
139.933
 20
22.4317
 30
0.0
 11
140.732
 21
22.4317
 31
0.0
  0
LINE
  8
0
 62
     0
 10
140.732
 20
22.4317
 30
0.0
 11
140.732
 21
21.8323
 31
0.0
  0
LINE
  8
0
 62
     0
 10
140.732
 20
21.8323
 30
0.0
 11
154.733
 21
21.8323
 31
0.0
  0
LINE
  8
0
 62
     0
 10
154.733
 20
21.8323
 30
0.0
 11
154.733
 21
22.4317
 31
0.0
  0
LINE
  8
0
 62
     0
 10
154.733
 20
22.4317
 30
0.0
 11
155.532
 21
22.4317
 31
0.0
  0
LINE
  8
0
 62
     0
 10
155.532
 20
22.4317
 30
0.0
 11
155.532
 21
35.2323
 31
0.0
  0
LINE
  8
0
 62
     0
 10
155.532
 20
35.2323
 30
0.0
 11
154.733
 21
35.2323
 31
0.0
  0
LINE
  8
0
 62
     0
 10
154.733
 20
35.2323
 30
0.0
 11
154.733
 21
35.8316
 31
0.0
  0
LINE
  8
0
 62
     0
 10
154.733
 20
35.8316
 30
0.0
 11
140.732
 21
35.8316
 31
0.0
  0
LINE
  8
0
 62
     0
 10
121.682
 20
35.8316
 30
0.0
 11
121.682
 21
35.2323
 31
0.0
  0
LINE
  8
0
 62
     0
 10
121.682
 20
35.2323
 30
0.0
 11
120.883
 21
35.2323
 31
0.0
  0
LINE
  8
0
 62
     0
 10
120.883
 20
35.2323
 30
0.0
 11
120.883
 21
22.4317
 31
0.0
  0
LINE
  8
0
 62
     0
 10
120.883
 20
22.4317
 30
0.0
 11
121.682
 21
22.4317
 31
0.0
  0
LINE
  8
0
 62
     0
 10
121.682
 20
22.4317
 30
0.0
 11
121.682
 21
21.8323
 31
0.0
  0
LINE
  8
0
 62
     0
 10
121.682
 20
21.8323
 30
0.0
 11
135.683
 21
21.8323
 31
0.0
  0
LINE
  8
0
 62
     0
 10
135.683
 20
21.8323
 30
0.0
 11
135.683
 21
22.4317
 31
0.0
  0
LINE
  8
0
 62
     0
 10
135.683
 20
22.4317
 30
0.0
 11
136.482
 21
22.4317
 31
0.0
  0
LINE
  8
0
 62
     0
 10
136.482
 20
22.4317
 30
0.0
 11
136.482
 21
35.2323
 31
0.0
  0
LINE
  8
0
 62
     0
 10
136.482
 20
35.2323
 30
0.0
 11
135.683
 21
35.2323
 31
0.0
  0
LINE
  8
0
 62
     0
 10
135.683
 20
35.2323
 30
0.0
 11
135.683
 21
35.8316
 31
0.0
  0
LINE
  8
0
 62
     0
 10
135.683
 20
35.8316
 30
0.0
 11
121.682
 21
35.8316
 31
0.0
  0
LINE
  8
0
 62
     0
 10
102.632
 20
35.8316
 30
0.0
 11
102.632
 21
35.2323
 31
0.0
  0
LINE
  8
0
 62
     0
 10
102.632
 20
35.2323
 30
0.0
 11
101.833
 21
35.2323
 31
0.0
  0
LINE
  8
0
 62
     0
 10
101.833
 20
35.2323
 30
0.0
 11
101.833
 21
22.4317
 31
0.0
  0
LINE
  8
0
 62
     0
 10
101.833
 20
22.4317
 30
0.0
 11
102.632
 21
22.4317
 31
0.0
  0
LINE
  8
0
 62
     0
 10
102.632
 20
22.4317
 30
0.0
 11
102.632
 21
21.8323
 31
0.0
  0
LINE
  8
0
 62
     0
 10
102.632
 20
21.8323
 30
0.0
 11
116.633
 21
21.8323
 31
0.0
  0
LINE
  8
0
 62
     0
 10
116.633
 20
21.8323
 30
0.0
 11
116.633
 21
22.4317
 31
0.0
  0
LINE
  8
0
 62
     0
 10
116.633
 20
22.4317
 30
0.0
 11
117.432
 21
22.4317
 31
0.0
  0
LINE
  8
0
 62
     0
 10
117.432
 20
22.4317
 30
0.0
 11
117.432
 21
35.2323
 31
0.0
  0
LINE
  8
0
 62
     0
 10
117.432
 20
35.2323
 30
0.0
 11
116.633
 21
35.2323
 31
0.0
  0
LINE
  8
0
 62
     0
 10
116.633
 20
35.2323
 30
0.0
 11
116.633
 21
35.8316
 31
0.0
  0
LINE
  8
0
 62
     0
 10
116.633
 20
35.8316
 30
0.0
 11
102.632
 21
35.8316
 31
0.0
  0
LINE
  8
0
 62
     0
 10
83.5822
 20
35.8316
 30
0.0
 11
83.5822
 21
35.2323
 31
0.0
  0
LINE
  8
0
 62
     0
 10
83.5822
 20
35.2323
 30
0.0
 11
82.7828
 21
35.2323
 31
0.0
  0
LINE
  8
0
 62
     0
 10
82.7828
 20
35.2323
 30
0.0
 11
82.7828
 21
22.4317
 31
0.0
  0
LINE
  8
0
 62
     0
 10
82.7828
 20
22.4317
 30
0.0
 11
83.5822
 21
22.4317
 31
0.0
  0
LINE
  8
0
 62
     0
 10
83.5822
 20
22.4317
 30
0.0
 11
83.5822
 21
21.8323
 31
0.0
  0
LINE
  8
0
 62
     0
 10
83.5822
 20
21.8323
 30
0.0
 11
97.5829
 21
21.8323
 31
0.0
  0
LINE
  8
0
 62
     0
 10
97.5829
 20
21.8323
 30
0.0
 11
97.5829
 21
22.4317
 31
0.0
  0
LINE
  8
0
 62
     0
 10
97.5829
 20
22.4317
 30
0.0
 11
98.3823
 21
22.4317
 31
0.0
  0
LINE
  8
0
 62
     0
 10
98.3823
 20
22.4317
 30
0.0
 11
98.3823
 21
35.2323
 31
0.0
  0
LINE
  8
0
 62
     0
 10
98.3823
 20
35.2323
 30
0.0
 11
97.5829
 21
35.2323
 31
0.0
  0
LINE
  8
0
 62
     0
 10
97.5829
 20
35.2323
 30
0.0
 11
97.5829
 21
35.8316
 31
0.0
  0
LINE
  8
0
 62
     0
 10
97.5829
 20
35.8316
 30
0.0
 11
83.5822
 21
35.8316
 31
0.0
  0
LINE
  8
0
 62
     0
 10
59.7711
 20
35.8316
 30
0.0
 11
59.7711
 21
35.2323
 31
0.0
  0
LINE
  8
0
 62
     0
 10
59.7711
 20
35.2323
 30
0.0
 11
58.9703
 21
35.2323
 31
0.0
  0
LINE
  8
0
 62
     0
 10
58.9703
 20
35.2323
 30
0.0
 11
58.9703
 21
22.4317
 31
0.0
  0
LINE
  8
0
 62
     0
 10
58.9703
 20
22.4317
 30
0.0
 11
59.7711
 21
22.4317
 31
0.0
  0
LINE
  8
0
 62
     0
 10
59.7711
 20
22.4317
 30
0.0
 11
59.7711
 21
21.8323
 31
0.0
  0
LINE
  8
0
 62
     0
 10
59.7711
 20
21.8323
 30
0.0
 11
73.7704
 21
21.8323
 31
0.0
  0
LINE
  8
0
 62
     0
 10
73.7704
 20
21.8323
 30
0.0
 11
73.7704
 21
22.4317
 31
0.0
  0
LINE
  8
0
 62
     0
 10
73.7704
 20
22.4317
 30
0.0
 11
74.5712
 21
22.4317
 31
0.0
  0
LINE
  8
0
 62
     0
 10
74.5712
 20
22.4317
 30
0.0
 11
74.5712
 21
35.2323
 31
0.0
  0
LINE
  8
0
 62
     0
 10
74.5712
 20
35.2323
 30
0.0
 11
73.7704
 21
35.2323
 31
0.0
  0
LINE
  8
0
 62
     0
 10
73.7704
 20
35.2323
 30
0.0
 11
73.7704
 21
35.8316
 31
0.0
  0
LINE
  8
0
 62
     0
 10
73.7704
 20
35.8316
 30
0.0
 11
59.7711
 21
35.8316
 31
0.0
  0
LINE
  8
0
 62
     0
 10
40.7211
 20
35.8316
 30
0.0
 11
40.7211
 21
35.2323
 31
0.0
  0
LINE
  8
0
 62
     0
 10
40.7211
 20
35.2323
 30
0.0
 11
39.9203
 21
35.2323
 31
0.0
  0
LINE
  8
0
 62
     0
 10
39.9203
 20
35.2323
 30
0.0
 11
39.9203
 21
22.4317
 31
0.0
  0
LINE
  8
0
 62
     0
 10
39.9203
 20
22.4317
 30
0.0
 11
40.7211
 21
22.4317
 31
0.0
  0
LINE
  8
0
 62
     0
 10
40.7211
 20
22.4317
 30
0.0
 11
40.7211
 21
21.8323
 31
0.0
  0
LINE
  8
0
 62
     0
 10
40.7211
 20
21.8323
 30
0.0
 11
54.7204
 21
21.8323
 31
0.0
  0
LINE
  8
0
 62
     0
 10
54.7204
 20
21.8323
 30
0.0
 11
54.7204
 21
22.4317
 31
0.0
  0
LINE
  8
0
 62
     0
 10
54.7204
 20
22.4317
 30
0.0
 11
55.5212
 21
22.4317
 31
0.0
  0
LINE
  8
0
 62
     0
 10
55.5212
 20
22.4317
 30
0.0
 11
55.5212
 21
35.2323
 31
0.0
  0
LINE
  8
0
 62
     0
 10
55.5212
 20
35.2323
 30
0.0
 11
54.7204
 21
35.2323
 31
0.0
  0
LINE
  8
0
 62
     0
 10
54.7204
 20
35.2323
 30
0.0
 11
54.7204
 21
35.8316
 31
0.0
  0
LINE
  8
0
 62
     0
 10
54.7204
 20
35.8316
 30
0.0
 11
40.7211
 21
35.8316
 31
0.0
  0
LINE
  8
0
 62
     0
 10
21.671
 20
35.8316
 30
0.0
 11
21.671
 21
35.2323
 31
0.0
  0
LINE
  8
0
 62
     0
 10
21.671
 20
35.2323
 30
0.0
 11
20.8704
 21
35.2323
 31
0.0
  0
LINE
  8
0
 62
     0
 10
20.8704
 20
35.2323
 30
0.0
 11
20.8704
 21
22.4317
 31
0.0
  0
LINE
  8
0
 62
     0
 10
20.8704
 20
22.4317
 30
0.0
 11
21.671
 21
22.4317
 31
0.0
  0
LINE
  8
0
 62
     0
 10
21.671
 20
22.4317
 30
0.0
 11
21.671
 21
21.8323
 31
0.0
  0
LINE
  8
0
 62
     0
 10
21.671
 20
21.8323
 30
0.0
 11
35.6704
 21
21.8323
 31
0.0
  0
LINE
  8
0
 62
     0
 10
35.6704
 20
21.8323
 30
0.0
 11
35.6704
 21
22.4317
 31
0.0
  0
LINE
  8
0
 62
     0
 10
35.6704
 20
22.4317
 30
0.0
 11
36.4712
 21
22.4317
 31
0.0
  0
LINE
  8
0
 62
     0
 10
36.4712
 20
22.4317
 30
0.0
 11
36.4712
 21
35.2323
 31
0.0
  0
LINE
  8
0
 62
     0
 10
36.4712
 20
35.2323
 30
0.0
 11
35.6704
 21
35.2323
 31
0.0
  0
LINE
  8
0
 62
     0
 10
35.6704
 20
35.2323
 30
0.0
 11
35.6704
 21
35.8316
 31
0.0
  0
LINE
  8
0
 62
     0
 10
35.6704
 20
35.8316
 30
0.0
 11
21.671
 21
35.8316
 31
0.0
  0
LINE
  8
0
 62
     0
 10
2.62103
 20
35.8316
 30
0.0
 11
2.62103
 21
35.2323
 31
0.0
  0
LINE
  8
0
 62
     0
 10
2.62103
 20
35.2323
 30
0.0
 11
1.82039
 21
35.2323
 31
0.0
  0
LINE
  8
0
 62
     0
 10
1.82039
 20
35.2323
 30
0.0
 11
1.82039
 21
22.4317
 31
0.0
  0
LINE
  8
0
 62
     0
 10
1.82039
 20
22.4317
 30
0.0
 11
2.62103
 21
22.4317
 31
0.0
  0
LINE
  8
0
 62
     0
 10
2.62103
 20
22.4317
 30
0.0
 11
2.62103
 21
21.8323
 31
0.0
  0
LINE
  8
0
 62
     0
 10
2.62103
 20
21.8323
 30
0.0
 11
16.6205
 21
21.8323
 31
0.0
  0
LINE
  8
0
 62
     0
 10
16.6205
 20
21.8323
 30
0.0
 11
16.6205
 21
22.4317
 31
0.0
  0
LINE
  8
0
 62
     0
 10
16.6205
 20
22.4317
 30
0.0
 11
17.4212
 21
22.4317
 31
0.0
  0
LINE
  8
0
 62
     0
 10
17.4212
 20
22.4317
 30
0.0
 11
17.4212
 21
35.2323
 31
0.0
  0
LINE
  8
0
 62
     0
 10
17.4212
 20
35.2323
 30
0.0
 11
16.6205
 21
35.2323
 31
0.0
  0
LINE
  8
0
 62
     0
 10
16.6205
 20
35.2323
 30
0.0
 11
16.6205
 21
35.8316
 31
0.0
  0
LINE
  8
0
 62
     0
 10
16.6205
 20
35.8316
 30
0.0
 11
2.62103
 21
35.8316
 31
0.0
  0
LINE
  8
0
 62
     0
 10
302.657
 20
54.8816
 30
0.0
 11
302.657
 21
54.2823
 31
0.0
  0
LINE
  8
0
 62
     0
 10
302.657
 20
54.2823
 30
0.0
 11
301.858
 21
54.2823
 31
0.0
  0
LINE
  8
0
 62
     0
 10
301.858
 20
54.2823
 30
0.0
 11
301.858
 21
41.4817
 31
0.0
  0
LINE
  8
0
 62
     0
 10
301.858
 20
41.4817
 30
0.0
 11
302.657
 21
41.4817
 31
0.0
  0
LINE
  8
0
 62
     0
 10
302.657
 20
41.4817
 30
0.0
 11
302.657
 21
40.8824
 31
0.0
  0
LINE
  8
0
 62
     0
 10
302.657
 20
40.8824
 30
0.0
 11
316.658
 21
40.8824
 31
0.0
  0
LINE
  8
0
 62
     0
 10
316.658
 20
40.8824
 30
0.0
 11
316.658
 21
41.4817
 31
0.0
  0
LINE
  8
0
 62
     0
 10
316.658
 20
41.4817
 30
0.0
 11
317.457
 21
41.4817
 31
0.0
  0
LINE
  8
0
 62
     0
 10
317.457
 20
41.4817
 30
0.0
 11
317.457
 21
54.2823
 31
0.0
  0
LINE
  8
0
 62
     0
 10
317.457
 20
54.2823
 30
0.0
 11
316.658
 21
54.2823
 31
0.0
  0
LINE
  8
0
 62
     0
 10
316.658
 20
54.2823
 30
0.0
 11
316.658
 21
54.8816
 31
0.0
  0
LINE
  8
0
 62
     0
 10
316.658
 20
54.8816
 30
0.0
 11
302.657
 21
54.8816
 31
0.0
  0
LINE
  8
0
 62
     0
 10
283.607
 20
54.8816
 30
0.0
 11
283.607
 21
54.2823
 31
0.0
  0
LINE
  8
0
 62
     0
 10
283.607
 20
54.2823
 30
0.0
 11
282.808
 21
54.2823
 31
0.0
  0
LINE
  8
0
 62
     0
 10
282.808
 20
54.2823
 30
0.0
 11
282.808
 21
41.4817
 31
0.0
  0
LINE
  8
0
 62
     0
 10
282.808
 20
41.4817
 30
0.0
 11
283.607
 21
41.4817
 31
0.0
  0
LINE
  8
0
 62
     0
 10
283.607
 20
41.4817
 30
0.0
 11
283.607
 21
40.8824
 31
0.0
  0
LINE
  8
0
 62
     0
 10
283.607
 20
40.8824
 30
0.0
 11
297.608
 21
40.8824
 31
0.0
  0
LINE
  8
0
 62
     0
 10
297.608
 20
40.8824
 30
0.0
 11
297.608
 21
41.4817
 31
0.0
  0
LINE
  8
0
 62
     0
 10
297.608
 20
41.4817
 30
0.0
 11
298.407
 21
41.4817
 31
0.0
  0
LINE
  8
0
 62
     0
 10
298.407
 20
41.4817
 30
0.0
 11
298.407
 21
54.2823
 31
0.0
  0
LINE
  8
0
 62
     0
 10
298.407
 20
54.2823
 30
0.0
 11
297.608
 21
54.2823
 31
0.0
  0
LINE
  8
0
 62
     0
 10
297.608
 20
54.2823
 30
0.0
 11
297.608
 21
54.8816
 31
0.0
  0
LINE
  8
0
 62
     0
 10
297.608
 20
54.8816
 30
0.0
 11
283.607
 21
54.8816
 31
0.0
  0
LINE
  8
0
 62
     0
 10
264.557
 20
54.8816
 30
0.0
 11
264.557
 21
54.2823
 31
0.0
  0
LINE
  8
0
 62
     0
 10
264.557
 20
54.2823
 30
0.0
 11
263.758
 21
54.2823
 31
0.0
  0
LINE
  8
0
 62
     0
 10
263.758
 20
54.2823
 30
0.0
 11
263.758
 21
41.4817
 31
0.0
  0
LINE
  8
0
 62
     0
 10
263.758
 20
41.4817
 30
0.0
 11
264.557
 21
41.4817
 31
0.0
  0
LINE
  8
0
 62
     0
 10
264.557
 20
41.4817
 30
0.0
 11
264.557
 21
40.8824
 31
0.0
  0
LINE
  8
0
 62
     0
 10
264.557
 20
40.8824
 30
0.0
 11
278.558
 21
40.8824
 31
0.0
  0
LINE
  8
0
 62
     0
 10
278.558
 20
40.8824
 30
0.0
 11
278.558
 21
41.4817
 31
0.0
  0
LINE
  8
0
 62
     0
 10
278.558
 20
41.4817
 30
0.0
 11
279.357
 21
41.4817
 31
0.0
  0
LINE
  8
0
 62
     0
 10
279.357
 20
41.4817
 30
0.0
 11
279.357
 21
54.2823
 31
0.0
  0
LINE
  8
0
 62
     0
 10
279.357
 20
54.2823
 30
0.0
 11
278.558
 21
54.2823
 31
0.0
  0
LINE
  8
0
 62
     0
 10
278.558
 20
54.2823
 30
0.0
 11
278.558
 21
54.8816
 31
0.0
  0
LINE
  8
0
 62
     0
 10
278.558
 20
54.8816
 30
0.0
 11
264.557
 21
54.8816
 31
0.0
  0
LINE
  8
0
 62
     0
 10
245.507
 20
54.8816
 30
0.0
 11
245.507
 21
54.2823
 31
0.0
  0
LINE
  8
0
 62
     0
 10
245.507
 20
54.2823
 30
0.0
 11
244.708
 21
54.2823
 31
0.0
  0
LINE
  8
0
 62
     0
 10
244.708
 20
54.2823
 30
0.0
 11
244.708
 21
41.4817
 31
0.0
  0
LINE
  8
0
 62
     0
 10
244.708
 20
41.4817
 30
0.0
 11
245.507
 21
41.4817
 31
0.0
  0
LINE
  8
0
 62
     0
 10
245.507
 20
41.4817
 30
0.0
 11
245.507
 21
40.8824
 31
0.0
  0
LINE
  8
0
 62
     0
 10
245.507
 20
40.8824
 30
0.0
 11
259.508
 21
40.8824
 31
0.0
  0
LINE
  8
0
 62
     0
 10
259.508
 20
40.8824
 30
0.0
 11
259.508
 21
41.4817
 31
0.0
  0
LINE
  8
0
 62
     0
 10
259.508
 20
41.4817
 30
0.0
 11
260.307
 21
41.4817
 31
0.0
  0
LINE
  8
0
 62
     0
 10
260.307
 20
41.4817
 30
0.0
 11
260.307
 21
54.2823
 31
0.0
  0
LINE
  8
0
 62
     0
 10
260.307
 20
54.2823
 30
0.0
 11
259.508
 21
54.2823
 31
0.0
  0
LINE
  8
0
 62
     0
 10
259.508
 20
54.2823
 30
0.0
 11
259.508
 21
54.8816
 31
0.0
  0
LINE
  8
0
 62
     0
 10
259.508
 20
54.8816
 30
0.0
 11
245.507
 21
54.8816
 31
0.0
  0
LINE
  8
0
 62
     0
 10
226.457
 20
54.8816
 30
0.0
 11
226.457
 21
54.2823
 31
0.0
  0
LINE
  8
0
 62
     0
 10
226.457
 20
54.2823
 30
0.0
 11
225.658
 21
54.2823
 31
0.0
  0
LINE
  8
0
 62
     0
 10
225.658
 20
54.2823
 30
0.0
 11
225.658
 21
41.4817
 31
0.0
  0
LINE
  8
0
 62
     0
 10
225.658
 20
41.4817
 30
0.0
 11
226.457
 21
41.4817
 31
0.0
  0
LINE
  8
0
 62
     0
 10
226.457
 20
41.4817
 30
0.0
 11
226.457
 21
40.8824
 31
0.0
  0
LINE
  8
0
 62
     0
 10
226.457
 20
40.8824
 30
0.0
 11
240.458
 21
40.8824
 31
0.0
  0
LINE
  8
0
 62
     0
 10
240.458
 20
40.8824
 30
0.0
 11
240.458
 21
41.4817
 31
0.0
  0
LINE
  8
0
 62
     0
 10
240.458
 20
41.4817
 30
0.0
 11
241.257
 21
41.4817
 31
0.0
  0
LINE
  8
0
 62
     0
 10
241.257
 20
41.4817
 30
0.0
 11
241.257
 21
54.2823
 31
0.0
  0
LINE
  8
0
 62
     0
 10
241.257
 20
54.2823
 30
0.0
 11
240.458
 21
54.2823
 31
0.0
  0
LINE
  8
0
 62
     0
 10
240.458
 20
54.2823
 30
0.0
 11
240.458
 21
54.8816
 31
0.0
  0
LINE
  8
0
 62
     0
 10
240.458
 20
54.8816
 30
0.0
 11
226.457
 21
54.8816
 31
0.0
  0
LINE
  8
0
 62
     0
 10
207.407
 20
54.8816
 30
0.0
 11
207.407
 21
54.2823
 31
0.0
  0
LINE
  8
0
 62
     0
 10
207.407
 20
54.2823
 30
0.0
 11
206.608
 21
54.2823
 31
0.0
  0
LINE
  8
0
 62
     0
 10
206.608
 20
54.2823
 30
0.0
 11
206.608
 21
41.4817
 31
0.0
  0
LINE
  8
0
 62
     0
 10
206.608
 20
41.4817
 30
0.0
 11
207.407
 21
41.4817
 31
0.0
  0
LINE
  8
0
 62
     0
 10
207.407
 20
41.4817
 30
0.0
 11
207.407
 21
40.8824
 31
0.0
  0
LINE
  8
0
 62
     0
 10
207.407
 20
40.8824
 30
0.0
 11
221.408
 21
40.8824
 31
0.0
  0
LINE
  8
0
 62
     0
 10
221.408
 20
40.8824
 30
0.0
 11
221.408
 21
41.4817
 31
0.0
  0
LINE
  8
0
 62
     0
 10
221.408
 20
41.4817
 30
0.0
 11
222.207
 21
41.4817
 31
0.0
  0
LINE
  8
0
 62
     0
 10
222.207
 20
41.4817
 30
0.0
 11
222.207
 21
54.2823
 31
0.0
  0
LINE
  8
0
 62
     0
 10
222.207
 20
54.2823
 30
0.0
 11
221.408
 21
54.2823
 31
0.0
  0
LINE
  8
0
 62
     0
 10
221.408
 20
54.2823
 30
0.0
 11
221.408
 21
54.8816
 31
0.0
  0
LINE
  8
0
 62
     0
 10
221.408
 20
54.8816
 30
0.0
 11
207.407
 21
54.8816
 31
0.0
  0
LINE
  8
0
 62
     0
 10
178.832
 20
54.8816
 30
0.0
 11
178.832
 21
54.2823
 31
0.0
  0
LINE
  8
0
 62
     0
 10
178.832
 20
54.2823
 30
0.0
 11
178.033
 21
54.2823
 31
0.0
  0
LINE
  8
0
 62
     0
 10
178.033
 20
54.2823
 30
0.0
 11
178.033
 21
41.4817
 31
0.0
  0
LINE
  8
0
 62
     0
 10
178.033
 20
41.4817
 30
0.0
 11
178.832
 21
41.4817
 31
0.0
  0
LINE
  8
0
 62
     0
 10
178.832
 20
41.4817
 30
0.0
 11
178.832
 21
40.8824
 31
0.0
  0
LINE
  8
0
 62
     0
 10
178.832
 20
40.8824
 30
0.0
 11
192.833
 21
40.8824
 31
0.0
  0
LINE
  8
0
 62
     0
 10
192.833
 20
40.8824
 30
0.0
 11
192.833
 21
41.4817
 31
0.0
  0
LINE
  8
0
 62
     0
 10
192.833
 20
41.4817
 30
0.0
 11
193.632
 21
41.4817
 31
0.0
  0
LINE
  8
0
 62
     0
 10
193.632
 20
41.4817
 30
0.0
 11
193.632
 21
54.2823
 31
0.0
  0
LINE
  8
0
 62
     0
 10
193.632
 20
54.2823
 30
0.0
 11
192.833
 21
54.2823
 31
0.0
  0
LINE
  8
0
 62
     0
 10
192.833
 20
54.2823
 30
0.0
 11
192.833
 21
54.8816
 31
0.0
  0
LINE
  8
0
 62
     0
 10
192.833
 20
54.8816
 30
0.0
 11
178.832
 21
54.8816
 31
0.0
  0
LINE
  8
0
 62
     0
 10
159.782
 20
54.8816
 30
0.0
 11
159.782
 21
54.2823
 31
0.0
  0
LINE
  8
0
 62
     0
 10
159.782
 20
54.2823
 30
0.0
 11
158.983
 21
54.2823
 31
0.0
  0
LINE
  8
0
 62
     0
 10
158.983
 20
54.2823
 30
0.0
 11
158.983
 21
41.4817
 31
0.0
  0
LINE
  8
0
 62
     0
 10
158.983
 20
41.4817
 30
0.0
 11
159.782
 21
41.4817
 31
0.0
  0
LINE
  8
0
 62
     0
 10
159.782
 20
41.4817
 30
0.0
 11
159.782
 21
40.8824
 31
0.0
  0
LINE
  8
0
 62
     0
 10
159.782
 20
40.8824
 30
0.0
 11
173.783
 21
40.8824
 31
0.0
  0
LINE
  8
0
 62
     0
 10
173.783
 20
40.8824
 30
0.0
 11
173.783
 21
41.4817
 31
0.0
  0
LINE
  8
0
 62
     0
 10
173.783
 20
41.4817
 30
0.0
 11
174.582
 21
41.4817
 31
0.0
  0
LINE
  8
0
 62
     0
 10
174.582
 20
41.4817
 30
0.0
 11
174.582
 21
54.2823
 31
0.0
  0
LINE
  8
0
 62
     0
 10
174.582
 20
54.2823
 30
0.0
 11
173.783
 21
54.2823
 31
0.0
  0
LINE
  8
0
 62
     0
 10
173.783
 20
54.2823
 30
0.0
 11
173.783
 21
54.8816
 31
0.0
  0
LINE
  8
0
 62
     0
 10
173.783
 20
54.8816
 30
0.0
 11
159.782
 21
54.8816
 31
0.0
  0
LINE
  8
0
 62
     0
 10
140.732
 20
54.8816
 30
0.0
 11
140.732
 21
54.2823
 31
0.0
  0
LINE
  8
0
 62
     0
 10
140.732
 20
54.2823
 30
0.0
 11
139.933
 21
54.2823
 31
0.0
  0
LINE
  8
0
 62
     0
 10
139.933
 20
54.2823
 30
0.0
 11
139.933
 21
41.4817
 31
0.0
  0
LINE
  8
0
 62
     0
 10
139.933
 20
41.4817
 30
0.0
 11
140.732
 21
41.4817
 31
0.0
  0
LINE
  8
0
 62
     0
 10
140.732
 20
41.4817
 30
0.0
 11
140.732
 21
40.8824
 31
0.0
  0
LINE
  8
0
 62
     0
 10
140.732
 20
40.8824
 30
0.0
 11
154.733
 21
40.8824
 31
0.0
  0
LINE
  8
0
 62
     0
 10
154.733
 20
40.8824
 30
0.0
 11
154.733
 21
41.4817
 31
0.0
  0
LINE
  8
0
 62
     0
 10
154.733
 20
41.4817
 30
0.0
 11
155.532
 21
41.4817
 31
0.0
  0
LINE
  8
0
 62
     0
 10
155.532
 20
41.4817
 30
0.0
 11
155.532
 21
54.2823
 31
0.0
  0
LINE
  8
0
 62
     0
 10
155.532
 20
54.2823
 30
0.0
 11
154.733
 21
54.2823
 31
0.0
  0
LINE
  8
0
 62
     0
 10
154.733
 20
54.2823
 30
0.0
 11
154.733
 21
54.8816
 31
0.0
  0
LINE
  8
0
 62
     0
 10
154.733
 20
54.8816
 30
0.0
 11
140.732
 21
54.8816
 31
0.0
  0
LINE
  8
0
 62
     0
 10
121.682
 20
54.8816
 30
0.0
 11
121.682
 21
54.2823
 31
0.0
  0
LINE
  8
0
 62
     0
 10
121.682
 20
54.2823
 30
0.0
 11
120.883
 21
54.2823
 31
0.0
  0
LINE
  8
0
 62
     0
 10
120.883
 20
54.2823
 30
0.0
 11
120.883
 21
41.4817
 31
0.0
  0
LINE
  8
0
 62
     0
 10
120.883
 20
41.4817
 30
0.0
 11
121.682
 21
41.4817
 31
0.0
  0
LINE
  8
0
 62
     0
 10
121.682
 20
41.4817
 30
0.0
 11
121.682
 21
40.8824
 31
0.0
  0
LINE
  8
0
 62
     0
 10
121.682
 20
40.8824
 30
0.0
 11
135.683
 21
40.8824
 31
0.0
  0
LINE
  8
0
 62
     0
 10
135.683
 20
40.8824
 30
0.0
 11
135.683
 21
41.4817
 31
0.0
  0
LINE
  8
0
 62
     0
 10
135.683
 20
41.4817
 30
0.0
 11
136.482
 21
41.4817
 31
0.0
  0
LINE
  8
0
 62
     0
 10
136.482
 20
41.4817
 30
0.0
 11
136.482
 21
54.2823
 31
0.0
  0
LINE
  8
0
 62
     0
 10
136.482
 20
54.2823
 30
0.0
 11
135.683
 21
54.2823
 31
0.0
  0
LINE
  8
0
 62
     0
 10
135.683
 20
54.2823
 30
0.0
 11
135.683
 21
54.8816
 31
0.0
  0
LINE
  8
0
 62
     0
 10
135.683
 20
54.8816
 30
0.0
 11
121.682
 21
54.8816
 31
0.0
  0
LINE
  8
0
 62
     0
 10
102.632
 20
54.8816
 30
0.0
 11
102.632
 21
54.2823
 31
0.0
  0
LINE
  8
0
 62
     0
 10
102.632
 20
54.2823
 30
0.0
 11
101.833
 21
54.2823
 31
0.0
  0
LINE
  8
0
 62
     0
 10
101.833
 20
54.2823
 30
0.0
 11
101.833
 21
41.4817
 31
0.0
  0
LINE
  8
0
 62
     0
 10
101.833
 20
41.4817
 30
0.0
 11
102.632
 21
41.4817
 31
0.0
  0
LINE
  8
0
 62
     0
 10
102.632
 20
41.4817
 30
0.0
 11
102.632
 21
40.8824
 31
0.0
  0
LINE
  8
0
 62
     0
 10
102.632
 20
40.8824
 30
0.0
 11
116.633
 21
40.8824
 31
0.0
  0
LINE
  8
0
 62
     0
 10
116.633
 20
40.8824
 30
0.0
 11
116.633
 21
41.4817
 31
0.0
  0
LINE
  8
0
 62
     0
 10
116.633
 20
41.4817
 30
0.0
 11
117.432
 21
41.4817
 31
0.0
  0
LINE
  8
0
 62
     0
 10
117.432
 20
41.4817
 30
0.0
 11
117.432
 21
54.2823
 31
0.0
  0
LINE
  8
0
 62
     0
 10
117.432
 20
54.2823
 30
0.0
 11
116.633
 21
54.2823
 31
0.0
  0
LINE
  8
0
 62
     0
 10
116.633
 20
54.2823
 30
0.0
 11
116.633
 21
54.8816
 31
0.0
  0
LINE
  8
0
 62
     0
 10
116.633
 20
54.8816
 30
0.0
 11
102.632
 21
54.8816
 31
0.0
  0
LINE
  8
0
 62
     0
 10
83.5822
 20
54.8816
 30
0.0
 11
83.5822
 21
54.2823
 31
0.0
  0
LINE
  8
0
 62
     0
 10
83.5822
 20
54.2823
 30
0.0
 11
82.7828
 21
54.2823
 31
0.0
  0
LINE
  8
0
 62
     0
 10
82.7828
 20
54.2823
 30
0.0
 11
82.7828
 21
41.4817
 31
0.0
  0
LINE
  8
0
 62
     0
 10
82.7828
 20
41.4817
 30
0.0
 11
83.5822
 21
41.4817
 31
0.0
  0
LINE
  8
0
 62
     0
 10
83.5822
 20
41.4817
 30
0.0
 11
83.5822
 21
40.8824
 31
0.0
  0
LINE
  8
0
 62
     0
 10
83.5822
 20
40.8824
 30
0.0
 11
97.5829
 21
40.8824
 31
0.0
  0
LINE
  8
0
 62
     0
 10
97.5829
 20
40.8824
 30
0.0
 11
97.5829
 21
41.4817
 31
0.0
  0
LINE
  8
0
 62
     0
 10
97.5829
 20
41.4817
 30
0.0
 11
98.3823
 21
41.4817
 31
0.0
  0
LINE
  8
0
 62
     0
 10
98.3823
 20
41.4817
 30
0.0
 11
98.3823
 21
54.2823
 31
0.0
  0
LINE
  8
0
 62
     0
 10
98.3823
 20
54.2823
 30
0.0
 11
97.5829
 21
54.2823
 31
0.0
  0
LINE
  8
0
 62
     0
 10
97.5829
 20
54.2823
 30
0.0
 11
97.5829
 21
54.8816
 31
0.0
  0
LINE
  8
0
 62
     0
 10
97.5829
 20
54.8816
 30
0.0
 11
83.5822
 21
54.8816
 31
0.0
  0
LINE
  8
0
 62
     0
 10
59.7711
 20
54.8816
 30
0.0
 11
59.7711
 21
54.2823
 31
0.0
  0
LINE
  8
0
 62
     0
 10
59.7711
 20
54.2823
 30
0.0
 11
58.9703
 21
54.2823
 31
0.0
  0
LINE
  8
0
 62
     0
 10
58.9703
 20
54.2823
 30
0.0
 11
58.9703
 21
41.4817
 31
0.0
  0
LINE
  8
0
 62
     0
 10
58.9703
 20
41.4817
 30
0.0
 11
59.7711
 21
41.4817
 31
0.0
  0
LINE
  8
0
 62
     0
 10
59.7711
 20
41.4817
 30
0.0
 11
59.7711
 21
40.8824
 31
0.0
  0
LINE
  8
0
 62
     0
 10
59.7711
 20
40.8824
 30
0.0
 11
73.7704
 21
40.8824
 31
0.0
  0
LINE
  8
0
 62
     0
 10
73.7704
 20
40.8824
 30
0.0
 11
73.7704
 21
41.4817
 31
0.0
  0
LINE
  8
0
 62
     0
 10
73.7704
 20
41.4817
 30
0.0
 11
74.5712
 21
41.4817
 31
0.0
  0
LINE
  8
0
 62
     0
 10
74.5712
 20
41.4817
 30
0.0
 11
74.5712
 21
54.2823
 31
0.0
  0
LINE
  8
0
 62
     0
 10
74.5712
 20
54.2823
 30
0.0
 11
73.7704
 21
54.2823
 31
0.0
  0
LINE
  8
0
 62
     0
 10
73.7704
 20
54.2823
 30
0.0
 11
73.7704
 21
54.8816
 31
0.0
  0
LINE
  8
0
 62
     0
 10
73.7704
 20
54.8816
 30
0.0
 11
59.7711
 21
54.8816
 31
0.0
  0
LINE
  8
0
 62
     0
 10
40.7211
 20
54.8816
 30
0.0
 11
40.7211
 21
54.2823
 31
0.0
  0
LINE
  8
0
 62
     0
 10
40.7211
 20
54.2823
 30
0.0
 11
39.9203
 21
54.2823
 31
0.0
  0
LINE
  8
0
 62
     0
 10
39.9203
 20
54.2823
 30
0.0
 11
39.9203
 21
41.4817
 31
0.0
  0
LINE
  8
0
 62
     0
 10
39.9203
 20
41.4817
 30
0.0
 11
40.7211
 21
41.4817
 31
0.0
  0
LINE
  8
0
 62
     0
 10
40.7211
 20
41.4817
 30
0.0
 11
40.7211
 21
40.8824
 31
0.0
  0
LINE
  8
0
 62
     0
 10
40.7211
 20
40.8824
 30
0.0
 11
54.7204
 21
40.8824
 31
0.0
  0
LINE
  8
0
 62
     0
 10
54.7204
 20
40.8824
 30
0.0
 11
54.7204
 21
41.4817
 31
0.0
  0
LINE
  8
0
 62
     0
 10
54.7204
 20
41.4817
 30
0.0
 11
55.5212
 21
41.4817
 31
0.0
  0
LINE
  8
0
 62
     0
 10
55.5212
 20
41.4817
 30
0.0
 11
55.5212
 21
54.2823
 31
0.0
  0
LINE
  8
0
 62
     0
 10
55.5212
 20
54.2823
 30
0.0
 11
54.7204
 21
54.2823
 31
0.0
  0
LINE
  8
0
 62
     0
 10
54.7204
 20
54.2823
 30
0.0
 11
54.7204
 21
54.8816
 31
0.0
  0
LINE
  8
0
 62
     0
 10
54.7204
 20
54.8816
 30
0.0
 11
40.7211
 21
54.8816
 31
0.0
  0
LINE
  8
0
 62
     0
 10
21.671
 20
54.8816
 30
0.0
 11
21.671
 21
54.2823
 31
0.0
  0
LINE
  8
0
 62
     0
 10
21.671
 20
54.2823
 30
0.0
 11
20.8704
 21
54.2823
 31
0.0
  0
LINE
  8
0
 62
     0
 10
20.8704
 20
54.2823
 30
0.0
 11
20.8704
 21
41.4817
 31
0.0
  0
LINE
  8
0
 62
     0
 10
20.8704
 20
41.4817
 30
0.0
 11
21.671
 21
41.4817
 31
0.0
  0
LINE
  8
0
 62
     0
 10
21.671
 20
41.4817
 30
0.0
 11
21.671
 21
40.8824
 31
0.0
  0
LINE
  8
0
 62
     0
 10
21.671
 20
40.8824
 30
0.0
 11
35.6704
 21
40.8824
 31
0.0
  0
LINE
  8
0
 62
     0
 10
35.6704
 20
40.8824
 30
0.0
 11
35.6704
 21
41.4817
 31
0.0
  0
LINE
  8
0
 62
     0
 10
35.6704
 20
41.4817
 30
0.0
 11
36.4712
 21
41.4817
 31
0.0
  0
LINE
  8
0
 62
     0
 10
36.4712
 20
41.4817
 30
0.0
 11
36.4712
 21
54.2823
 31
0.0
  0
LINE
  8
0
 62
     0
 10
36.4712
 20
54.2823
 30
0.0
 11
35.6704
 21
54.2823
 31
0.0
  0
LINE
  8
0
 62
     0
 10
35.6704
 20
54.2823
 30
0.0
 11
35.6704
 21
54.8816
 31
0.0
  0
LINE
  8
0
 62
     0
 10
35.6704
 20
54.8816
 30
0.0
 11
21.671
 21
54.8816
 31
0.0
  0
LINE
  8
0
 62
     0
 10
2.62103
 20
54.8816
 30
0.0
 11
2.62103
 21
54.2823
 31
0.0
  0
LINE
  8
0
 62
     0
 10
2.62103
 20
54.2823
 30
0.0
 11
1.82039
 21
54.2823
 31
0.0
  0
LINE
  8
0
 62
     0
 10
1.82039
 20
54.2823
 30
0.0
 11
1.82039
 21
41.4817
 31
0.0
  0
LINE
  8
0
 62
     0
 10
1.82039
 20
41.4817
 30
0.0
 11
2.62103
 21
41.4817
 31
0.0
  0
LINE
  8
0
 62
     0
 10
2.62103
 20
41.4817
 30
0.0
 11
2.62103
 21
40.8824
 31
0.0
  0
LINE
  8
0
 62
     0
 10
2.62103
 20
40.8824
 30
0.0
 11
16.6205
 21
40.8824
 31
0.0
  0
LINE
  8
0
 62
     0
 10
16.6205
 20
40.8824
 30
0.0
 11
16.6205
 21
41.4817
 31
0.0
  0
LINE
  8
0
 62
     0
 10
16.6205
 20
41.4817
 30
0.0
 11
17.4212
 21
41.4817
 31
0.0
  0
LINE
  8
0
 62
     0
 10
17.4212
 20
41.4817
 30
0.0
 11
17.4212
 21
54.2823
 31
0.0
  0
LINE
  8
0
 62
     0
 10
17.4212
 20
54.2823
 30
0.0
 11
16.6205
 21
54.2823
 31
0.0
  0
LINE
  8
0
 62
     0
 10
16.6205
 20
54.2823
 30
0.0
 11
16.6205
 21
54.8816
 31
0.0
  0
LINE
  8
0
 62
     0
 10
16.6205
 20
54.8816
 30
0.0
 11
2.62103
 21
54.8816
 31
0.0
  0
LINE
  8
0
 62
     0
 10
302.657
 20
73.9316
 30
0.0
 11
302.657
 21
73.3323
 31
0.0
  0
LINE
  8
0
 62
     0
 10
302.657
 20
73.3323
 30
0.0
 11
301.858
 21
73.3323
 31
0.0
  0
LINE
  8
0
 62
     0
 10
301.858
 20
73.3323
 30
0.0
 11
301.858
 21
60.5317
 31
0.0
  0
LINE
  8
0
 62
     0
 10
301.858
 20
60.5317
 30
0.0
 11
302.657
 21
60.5317
 31
0.0
  0
LINE
  8
0
 62
     0
 10
302.657
 20
60.5317
 30
0.0
 11
302.657
 21
59.9324
 31
0.0
  0
LINE
  8
0
 62
     0
 10
302.657
 20
59.9324
 30
0.0
 11
316.658
 21
59.9324
 31
0.0
  0
LINE
  8
0
 62
     0
 10
316.658
 20
59.9324
 30
0.0
 11
316.658
 21
60.5317
 31
0.0
  0
LINE
  8
0
 62
     0
 10
316.658
 20
60.5317
 30
0.0
 11
317.457
 21
60.5317
 31
0.0
  0
LINE
  8
0
 62
     0
 10
317.457
 20
60.5317
 30
0.0
 11
317.457
 21
73.3323
 31
0.0
  0
LINE
  8
0
 62
     0
 10
317.457
 20
73.3323
 30
0.0
 11
316.658
 21
73.3323
 31
0.0
  0
LINE
  8
0
 62
     0
 10
316.658
 20
73.3323
 30
0.0
 11
316.658
 21
73.9316
 31
0.0
  0
LINE
  8
0
 62
     0
 10
316.658
 20
73.9316
 30
0.0
 11
302.657
 21
73.9316
 31
0.0
  0
LINE
  8
0
 62
     0
 10
283.607
 20
73.9316
 30
0.0
 11
283.607
 21
73.3323
 31
0.0
  0
LINE
  8
0
 62
     0
 10
283.607
 20
73.3323
 30
0.0
 11
282.808
 21
73.3323
 31
0.0
  0
LINE
  8
0
 62
     0
 10
282.808
 20
73.3323
 30
0.0
 11
282.808
 21
60.5317
 31
0.0
  0
LINE
  8
0
 62
     0
 10
282.808
 20
60.5317
 30
0.0
 11
283.607
 21
60.5317
 31
0.0
  0
LINE
  8
0
 62
     0
 10
283.607
 20
60.5317
 30
0.0
 11
283.607
 21
59.9324
 31
0.0
  0
LINE
  8
0
 62
     0
 10
283.607
 20
59.9324
 30
0.0
 11
297.608
 21
59.9324
 31
0.0
  0
LINE
  8
0
 62
     0
 10
297.608
 20
59.9324
 30
0.0
 11
297.608
 21
60.5317
 31
0.0
  0
LINE
  8
0
 62
     0
 10
297.608
 20
60.5317
 30
0.0
 11
298.407
 21
60.5317
 31
0.0
  0
LINE
  8
0
 62
     0
 10
298.407
 20
60.5317
 30
0.0
 11
298.407
 21
73.3323
 31
0.0
  0
LINE
  8
0
 62
     0
 10
298.407
 20
73.3323
 30
0.0
 11
297.608
 21
73.3323
 31
0.0
  0
LINE
  8
0
 62
     0
 10
297.608
 20
73.3323
 30
0.0
 11
297.608
 21
73.9316
 31
0.0
  0
LINE
  8
0
 62
     0
 10
297.608
 20
73.9316
 30
0.0
 11
283.607
 21
73.9316
 31
0.0
  0
LINE
  8
0
 62
     0
 10
264.557
 20
73.9316
 30
0.0
 11
264.557
 21
73.3323
 31
0.0
  0
LINE
  8
0
 62
     0
 10
264.557
 20
73.3323
 30
0.0
 11
263.758
 21
73.3323
 31
0.0
  0
LINE
  8
0
 62
     0
 10
263.758
 20
73.3323
 30
0.0
 11
263.758
 21
60.5317
 31
0.0
  0
LINE
  8
0
 62
     0
 10
263.758
 20
60.5317
 30
0.0
 11
264.557
 21
60.5317
 31
0.0
  0
LINE
  8
0
 62
     0
 10
264.557
 20
60.5317
 30
0.0
 11
264.557
 21
59.9324
 31
0.0
  0
LINE
  8
0
 62
     0
 10
264.557
 20
59.9324
 30
0.0
 11
278.558
 21
59.9324
 31
0.0
  0
LINE
  8
0
 62
     0
 10
278.558
 20
59.9324
 30
0.0
 11
278.558
 21
60.5317
 31
0.0
  0
LINE
  8
0
 62
     0
 10
278.558
 20
60.5317
 30
0.0
 11
279.357
 21
60.5317
 31
0.0
  0
LINE
  8
0
 62
     0
 10
279.357
 20
60.5317
 30
0.0
 11
279.357
 21
73.3323
 31
0.0
  0
LINE
  8
0
 62
     0
 10
279.357
 20
73.3323
 30
0.0
 11
278.558
 21
73.3323
 31
0.0
  0
LINE
  8
0
 62
     0
 10
278.558
 20
73.3323
 30
0.0
 11
278.558
 21
73.9316
 31
0.0
  0
LINE
  8
0
 62
     0
 10
278.558
 20
73.9316
 30
0.0
 11
264.557
 21
73.9316
 31
0.0
  0
LINE
  8
0
 62
     0
 10
245.507
 20
73.9316
 30
0.0
 11
245.507
 21
73.3323
 31
0.0
  0
LINE
  8
0
 62
     0
 10
245.507
 20
73.3323
 30
0.0
 11
244.708
 21
73.3323
 31
0.0
  0
LINE
  8
0
 62
     0
 10
244.708
 20
73.3323
 30
0.0
 11
244.708
 21
60.5317
 31
0.0
  0
LINE
  8
0
 62
     0
 10
244.708
 20
60.5317
 30
0.0
 11
245.507
 21
60.5317
 31
0.0
  0
LINE
  8
0
 62
     0
 10
245.507
 20
60.5317
 30
0.0
 11
245.507
 21
59.9324
 31
0.0
  0
LINE
  8
0
 62
     0
 10
245.507
 20
59.9324
 30
0.0
 11
259.508
 21
59.9324
 31
0.0
  0
LINE
  8
0
 62
     0
 10
259.508
 20
59.9324
 30
0.0
 11
259.508
 21
60.5317
 31
0.0
  0
LINE
  8
0
 62
     0
 10
259.508
 20
60.5317
 30
0.0
 11
260.307
 21
60.5317
 31
0.0
  0
LINE
  8
0
 62
     0
 10
260.307
 20
60.5317
 30
0.0
 11
260.307
 21
73.3323
 31
0.0
  0
LINE
  8
0
 62
     0
 10
260.307
 20
73.3323
 30
0.0
 11
259.508
 21
73.3323
 31
0.0
  0
LINE
  8
0
 62
     0
 10
259.508
 20
73.3323
 30
0.0
 11
259.508
 21
73.9316
 31
0.0
  0
LINE
  8
0
 62
     0
 10
259.508
 20
73.9316
 30
0.0
 11
245.507
 21
73.9316
 31
0.0
  0
LINE
  8
0
 62
     0
 10
226.457
 20
73.9316
 30
0.0
 11
226.457
 21
73.3323
 31
0.0
  0
LINE
  8
0
 62
     0
 10
226.457
 20
73.3323
 30
0.0
 11
225.658
 21
73.3323
 31
0.0
  0
LINE
  8
0
 62
     0
 10
225.658
 20
73.3323
 30
0.0
 11
225.658
 21
60.5317
 31
0.0
  0
LINE
  8
0
 62
     0
 10
225.658
 20
60.5317
 30
0.0
 11
226.457
 21
60.5317
 31
0.0
  0
LINE
  8
0
 62
     0
 10
226.457
 20
60.5317
 30
0.0
 11
226.457
 21
59.9324
 31
0.0
  0
LINE
  8
0
 62
     0
 10
226.457
 20
59.9324
 30
0.0
 11
240.458
 21
59.9324
 31
0.0
  0
LINE
  8
0
 62
     0
 10
240.458
 20
59.9324
 30
0.0
 11
240.458
 21
60.5317
 31
0.0
  0
LINE
  8
0
 62
     0
 10
240.458
 20
60.5317
 30
0.0
 11
241.257
 21
60.5317
 31
0.0
  0
LINE
  8
0
 62
     0
 10
241.257
 20
60.5317
 30
0.0
 11
241.257
 21
73.3323
 31
0.0
  0
LINE
  8
0
 62
     0
 10
241.257
 20
73.3323
 30
0.0
 11
240.458
 21
73.3323
 31
0.0
  0
LINE
  8
0
 62
     0
 10
240.458
 20
73.3323
 30
0.0
 11
240.458
 21
73.9316
 31
0.0
  0
LINE
  8
0
 62
     0
 10
240.458
 20
73.9316
 30
0.0
 11
226.457
 21
73.9316
 31
0.0
  0
LINE
  8
0
 62
     0
 10
207.407
 20
73.9316
 30
0.0
 11
207.407
 21
73.3323
 31
0.0
  0
LINE
  8
0
 62
     0
 10
207.407
 20
73.3323
 30
0.0
 11
206.608
 21
73.3323
 31
0.0
  0
LINE
  8
0
 62
     0
 10
206.608
 20
73.3323
 30
0.0
 11
206.608
 21
60.5317
 31
0.0
  0
LINE
  8
0
 62
     0
 10
206.608
 20
60.5317
 30
0.0
 11
207.407
 21
60.5317
 31
0.0
  0
LINE
  8
0
 62
     0
 10
207.407
 20
60.5317
 30
0.0
 11
207.407
 21
59.9324
 31
0.0
  0
LINE
  8
0
 62
     0
 10
207.407
 20
59.9324
 30
0.0
 11
221.408
 21
59.9324
 31
0.0
  0
LINE
  8
0
 62
     0
 10
221.408
 20
59.9324
 30
0.0
 11
221.408
 21
60.5317
 31
0.0
  0
LINE
  8
0
 62
     0
 10
221.408
 20
60.5317
 30
0.0
 11
222.207
 21
60.5317
 31
0.0
  0
LINE
  8
0
 62
     0
 10
222.207
 20
60.5317
 30
0.0
 11
222.207
 21
73.3323
 31
0.0
  0
LINE
  8
0
 62
     0
 10
222.207
 20
73.3323
 30
0.0
 11
221.408
 21
73.3323
 31
0.0
  0
LINE
  8
0
 62
     0
 10
221.408
 20
73.3323
 30
0.0
 11
221.408
 21
73.9316
 31
0.0
  0
LINE
  8
0
 62
     0
 10
221.408
 20
73.9316
 30
0.0
 11
207.407
 21
73.9316
 31
0.0
  0
LINE
  8
0
 62
     0
 10
178.832
 20
73.9316
 30
0.0
 11
178.832
 21
73.3323
 31
0.0
  0
LINE
  8
0
 62
     0
 10
178.832
 20
73.3323
 30
0.0
 11
178.033
 21
73.3323
 31
0.0
  0
LINE
  8
0
 62
     0
 10
178.033
 20
73.3323
 30
0.0
 11
178.033
 21
60.5317
 31
0.0
  0
LINE
  8
0
 62
     0
 10
178.033
 20
60.5317
 30
0.0
 11
178.832
 21
60.5317
 31
0.0
  0
LINE
  8
0
 62
     0
 10
178.832
 20
60.5317
 30
0.0
 11
178.832
 21
59.9324
 31
0.0
  0
LINE
  8
0
 62
     0
 10
178.832
 20
59.9324
 30
0.0
 11
192.833
 21
59.9324
 31
0.0
  0
LINE
  8
0
 62
     0
 10
192.833
 20
59.9324
 30
0.0
 11
192.833
 21
60.5317
 31
0.0
  0
LINE
  8
0
 62
     0
 10
192.833
 20
60.5317
 30
0.0
 11
193.632
 21
60.5317
 31
0.0
  0
LINE
  8
0
 62
     0
 10
193.632
 20
60.5317
 30
0.0
 11
193.632
 21
73.3323
 31
0.0
  0
LINE
  8
0
 62
     0
 10
193.632
 20
73.3323
 30
0.0
 11
192.833
 21
73.3323
 31
0.0
  0
LINE
  8
0
 62
     0
 10
192.833
 20
73.3323
 30
0.0
 11
192.833
 21
73.9316
 31
0.0
  0
LINE
  8
0
 62
     0
 10
192.833
 20
73.9316
 30
0.0
 11
178.832
 21
73.9316
 31
0.0
  0
LINE
  8
0
 62
     0
 10
159.782
 20
73.9316
 30
0.0
 11
159.782
 21
73.3323
 31
0.0
  0
LINE
  8
0
 62
     0
 10
159.782
 20
73.3323
 30
0.0
 11
158.983
 21
73.3323
 31
0.0
  0
LINE
  8
0
 62
     0
 10
158.983
 20
73.3323
 30
0.0
 11
158.983
 21
60.5317
 31
0.0
  0
LINE
  8
0
 62
     0
 10
158.983
 20
60.5317
 30
0.0
 11
159.782
 21
60.5317
 31
0.0
  0
LINE
  8
0
 62
     0
 10
159.782
 20
60.5317
 30
0.0
 11
159.782
 21
59.9324
 31
0.0
  0
LINE
  8
0
 62
     0
 10
159.782
 20
59.9324
 30
0.0
 11
173.783
 21
59.9324
 31
0.0
  0
LINE
  8
0
 62
     0
 10
173.783
 20
59.9324
 30
0.0
 11
173.783
 21
60.5317
 31
0.0
  0
LINE
  8
0
 62
     0
 10
173.783
 20
60.5317
 30
0.0
 11
174.582
 21
60.5317
 31
0.0
  0
LINE
  8
0
 62
     0
 10
174.582
 20
60.5317
 30
0.0
 11
174.582
 21
73.3323
 31
0.0
  0
LINE
  8
0
 62
     0
 10
174.582
 20
73.3323
 30
0.0
 11
173.783
 21
73.3323
 31
0.0
  0
LINE
  8
0
 62
     0
 10
173.783
 20
73.3323
 30
0.0
 11
173.783
 21
73.9316
 31
0.0
  0
LINE
  8
0
 62
     0
 10
173.783
 20
73.9316
 30
0.0
 11
159.782
 21
73.9316
 31
0.0
  0
LINE
  8
0
 62
     0
 10
140.732
 20
73.9316
 30
0.0
 11
140.732
 21
73.3323
 31
0.0
  0
LINE
  8
0
 62
     0
 10
140.732
 20
73.3323
 30
0.0
 11
139.933
 21
73.3323
 31
0.0
  0
LINE
  8
0
 62
     0
 10
139.933
 20
73.3323
 30
0.0
 11
139.933
 21
60.5317
 31
0.0
  0
LINE
  8
0
 62
     0
 10
139.933
 20
60.5317
 30
0.0
 11
140.732
 21
60.5317
 31
0.0
  0
LINE
  8
0
 62
     0
 10
140.732
 20
60.5317
 30
0.0
 11
140.732
 21
59.9324
 31
0.0
  0
LINE
  8
0
 62
     0
 10
140.732
 20
59.9324
 30
0.0
 11
154.733
 21
59.9324
 31
0.0
  0
LINE
  8
0
 62
     0
 10
154.733
 20
59.9324
 30
0.0
 11
154.733
 21
60.5317
 31
0.0
  0
LINE
  8
0
 62
     0
 10
154.733
 20
60.5317
 30
0.0
 11
155.532
 21
60.5317
 31
0.0
  0
LINE
  8
0
 62
     0
 10
155.532
 20
60.5317
 30
0.0
 11
155.532
 21
73.3323
 31
0.0
  0
LINE
  8
0
 62
     0
 10
155.532
 20
73.3323
 30
0.0
 11
154.733
 21
73.3323
 31
0.0
  0
LINE
  8
0
 62
     0
 10
154.733
 20
73.3323
 30
0.0
 11
154.733
 21
73.9316
 31
0.0
  0
LINE
  8
0
 62
     0
 10
154.733
 20
73.9316
 30
0.0
 11
140.732
 21
73.9316
 31
0.0
  0
LINE
  8
0
 62
     0
 10
121.682
 20
73.9316
 30
0.0
 11
121.682
 21
73.3323
 31
0.0
  0
LINE
  8
0
 62
     0
 10
121.682
 20
73.3323
 30
0.0
 11
120.883
 21
73.3323
 31
0.0
  0
LINE
  8
0
 62
     0
 10
120.883
 20
73.3323
 30
0.0
 11
120.883
 21
60.5317
 31
0.0
  0
LINE
  8
0
 62
     0
 10
120.883
 20
60.5317
 30
0.0
 11
121.682
 21
60.5317
 31
0.0
  0
LINE
  8
0
 62
     0
 10
121.682
 20
60.5317
 30
0.0
 11
121.682
 21
59.9324
 31
0.0
  0
LINE
  8
0
 62
     0
 10
121.682
 20
59.9324
 30
0.0
 11
135.683
 21
59.9324
 31
0.0
  0
LINE
  8
0
 62
     0
 10
135.683
 20
59.9324
 30
0.0
 11
135.683
 21
60.5317
 31
0.0
  0
LINE
  8
0
 62
     0
 10
135.683
 20
60.5317
 30
0.0
 11
136.482
 21
60.5317
 31
0.0
  0
LINE
  8
0
 62
     0
 10
136.482
 20
60.5317
 30
0.0
 11
136.482
 21
73.3323
 31
0.0
  0
LINE
  8
0
 62
     0
 10
136.482
 20
73.3323
 30
0.0
 11
135.683
 21
73.3323
 31
0.0
  0
LINE
  8
0
 62
     0
 10
135.683
 20
73.3323
 30
0.0
 11
135.683
 21
73.9316
 31
0.0
  0
LINE
  8
0
 62
     0
 10
135.683
 20
73.9316
 30
0.0
 11
121.682
 21
73.9316
 31
0.0
  0
LINE
  8
0
 62
     0
 10
102.632
 20
73.9316
 30
0.0
 11
102.632
 21
73.3323
 31
0.0
  0
LINE
  8
0
 62
     0
 10
102.632
 20
73.3323
 30
0.0
 11
101.833
 21
73.3323
 31
0.0
  0
LINE
  8
0
 62
     0
 10
101.833
 20
73.3323
 30
0.0
 11
101.833
 21
60.5317
 31
0.0
  0
LINE
  8
0
 62
     0
 10
101.833
 20
60.5317
 30
0.0
 11
102.632
 21
60.5317
 31
0.0
  0
LINE
  8
0
 62
     0
 10
102.632
 20
60.5317
 30
0.0
 11
102.632
 21
59.9324
 31
0.0
  0
LINE
  8
0
 62
     0
 10
102.632
 20
59.9324
 30
0.0
 11
116.633
 21
59.9324
 31
0.0
  0
LINE
  8
0
 62
     0
 10
116.633
 20
59.9324
 30
0.0
 11
116.633
 21
60.5317
 31
0.0
  0
LINE
  8
0
 62
     0
 10
116.633
 20
60.5317
 30
0.0
 11
117.432
 21
60.5317
 31
0.0
  0
LINE
  8
0
 62
     0
 10
117.432
 20
60.5317
 30
0.0
 11
117.432
 21
73.3323
 31
0.0
  0
LINE
  8
0
 62
     0
 10
117.432
 20
73.3323
 30
0.0
 11
116.633
 21
73.3323
 31
0.0
  0
LINE
  8
0
 62
     0
 10
116.633
 20
73.3323
 30
0.0
 11
116.633
 21
73.9316
 31
0.0
  0
LINE
  8
0
 62
     0
 10
116.633
 20
73.9316
 30
0.0
 11
102.632
 21
73.9316
 31
0.0
  0
LINE
  8
0
 62
     0
 10
83.5822
 20
73.9316
 30
0.0
 11
83.5822
 21
73.3323
 31
0.0
  0
LINE
  8
0
 62
     0
 10
83.5822
 20
73.3323
 30
0.0
 11
82.7828
 21
73.3323
 31
0.0
  0
LINE
  8
0
 62
     0
 10
82.7828
 20
73.3323
 30
0.0
 11
82.7828
 21
60.5317
 31
0.0
  0
LINE
  8
0
 62
     0
 10
82.7828
 20
60.5317
 30
0.0
 11
83.5822
 21
60.5317
 31
0.0
  0
LINE
  8
0
 62
     0
 10
83.5822
 20
60.5317
 30
0.0
 11
83.5822
 21
59.9324
 31
0.0
  0
LINE
  8
0
 62
     0
 10
83.5822
 20
59.9324
 30
0.0
 11
97.5829
 21
59.9324
 31
0.0
  0
LINE
  8
0
 62
     0
 10
97.5829
 20
59.9324
 30
0.0
 11
97.5829
 21
60.5317
 31
0.0
  0
LINE
  8
0
 62
     0
 10
97.5829
 20
60.5317
 30
0.0
 11
98.3823
 21
60.5317
 31
0.0
  0
LINE
  8
0
 62
     0
 10
98.3823
 20
60.5317
 30
0.0
 11
98.3823
 21
73.3323
 31
0.0
  0
LINE
  8
0
 62
     0
 10
98.3823
 20
73.3323
 30
0.0
 11
97.5829
 21
73.3323
 31
0.0
  0
LINE
  8
0
 62
     0
 10
97.5829
 20
73.3323
 30
0.0
 11
97.5829
 21
73.9316
 31
0.0
  0
LINE
  8
0
 62
     0
 10
97.5829
 20
73.9316
 30
0.0
 11
83.5822
 21
73.9316
 31
0.0
  0
LINE
  8
0
 62
     0
 10
59.7711
 20
73.9316
 30
0.0
 11
59.7711
 21
73.3323
 31
0.0
  0
LINE
  8
0
 62
     0
 10
59.7711
 20
73.3323
 30
0.0
 11
58.9703
 21
73.3323
 31
0.0
  0
LINE
  8
0
 62
     0
 10
58.9703
 20
73.3323
 30
0.0
 11
58.9703
 21
60.5317
 31
0.0
  0
LINE
  8
0
 62
     0
 10
58.9703
 20
60.5317
 30
0.0
 11
59.7711
 21
60.5317
 31
0.0
  0
LINE
  8
0
 62
     0
 10
59.7711
 20
60.5317
 30
0.0
 11
59.7711
 21
59.9324
 31
0.0
  0
LINE
  8
0
 62
     0
 10
59.7711
 20
59.9324
 30
0.0
 11
73.7704
 21
59.9324
 31
0.0
  0
LINE
  8
0
 62
     0
 10
73.7704
 20
59.9324
 30
0.0
 11
73.7704
 21
60.5317
 31
0.0
  0
LINE
  8
0
 62
     0
 10
73.7704
 20
60.5317
 30
0.0
 11
74.5712
 21
60.5317
 31
0.0
  0
LINE
  8
0
 62
     0
 10
74.5712
 20
60.5317
 30
0.0
 11
74.5712
 21
73.3323
 31
0.0
  0
LINE
  8
0
 62
     0
 10
74.5712
 20
73.3323
 30
0.0
 11
73.7704
 21
73.3323
 31
0.0
  0
LINE
  8
0
 62
     0
 10
73.7704
 20
73.3323
 30
0.0
 11
73.7704
 21
73.9316
 31
0.0
  0
LINE
  8
0
 62
     0
 10
73.7704
 20
73.9316
 30
0.0
 11
59.7711
 21
73.9316
 31
0.0
  0
LINE
  8
0
 62
     0
 10
40.7211
 20
73.9316
 30
0.0
 11
40.7211
 21
73.3323
 31
0.0
  0
LINE
  8
0
 62
     0
 10
40.7211
 20
73.3323
 30
0.0
 11
39.9203
 21
73.3323
 31
0.0
  0
LINE
  8
0
 62
     0
 10
39.9203
 20
73.3323
 30
0.0
 11
39.9203
 21
60.5317
 31
0.0
  0
LINE
  8
0
 62
     0
 10
39.9203
 20
60.5317
 30
0.0
 11
40.7211
 21
60.5317
 31
0.0
  0
LINE
  8
0
 62
     0
 10
40.7211
 20
60.5317
 30
0.0
 11
40.7211
 21
59.9324
 31
0.0
  0
LINE
  8
0
 62
     0
 10
40.7211
 20
59.9324
 30
0.0
 11
54.7204
 21
59.9324
 31
0.0
  0
LINE
  8
0
 62
     0
 10
54.7204
 20
59.9324
 30
0.0
 11
54.7204
 21
60.5317
 31
0.0
  0
LINE
  8
0
 62
     0
 10
54.7204
 20
60.5317
 30
0.0
 11
55.5212
 21
60.5317
 31
0.0
  0
LINE
  8
0
 62
     0
 10
55.5212
 20
60.5317
 30
0.0
 11
55.5212
 21
73.3323
 31
0.0
  0
LINE
  8
0
 62
     0
 10
55.5212
 20
73.3323
 30
0.0
 11
54.7204
 21
73.3323
 31
0.0
  0
LINE
  8
0
 62
     0
 10
54.7204
 20
73.3323
 30
0.0
 11
54.7204
 21
73.9316
 31
0.0
  0
LINE
  8
0
 62
     0
 10
54.7204
 20
73.9316
 30
0.0
 11
40.7211
 21
73.9316
 31
0.0
  0
LINE
  8
0
 62
     0
 10
21.671
 20
73.9316
 30
0.0
 11
21.671
 21
73.3323
 31
0.0
  0
LINE
  8
0
 62
     0
 10
21.671
 20
73.3323
 30
0.0
 11
20.8704
 21
73.3323
 31
0.0
  0
LINE
  8
0
 62
     0
 10
20.8704
 20
73.3323
 30
0.0
 11
20.8704
 21
60.5317
 31
0.0
  0
LINE
  8
0
 62
     0
 10
20.8704
 20
60.5317
 30
0.0
 11
21.671
 21
60.5317
 31
0.0
  0
LINE
  8
0
 62
     0
 10
21.671
 20
60.5317
 30
0.0
 11
21.671
 21
59.9324
 31
0.0
  0
LINE
  8
0
 62
     0
 10
21.671
 20
59.9324
 30
0.0
 11
35.6704
 21
59.9324
 31
0.0
  0
LINE
  8
0
 62
     0
 10
35.6704
 20
59.9324
 30
0.0
 11
35.6704
 21
60.5317
 31
0.0
  0
LINE
  8
0
 62
     0
 10
35.6704
 20
60.5317
 30
0.0
 11
36.4712
 21
60.5317
 31
0.0
  0
LINE
  8
0
 62
     0
 10
36.4712
 20
60.5317
 30
0.0
 11
36.4712
 21
73.3323
 31
0.0
  0
LINE
  8
0
 62
     0
 10
36.4712
 20
73.3323
 30
0.0
 11
35.6704
 21
73.3323
 31
0.0
  0
LINE
  8
0
 62
     0
 10
35.6704
 20
73.3323
 30
0.0
 11
35.6704
 21
73.9316
 31
0.0
  0
LINE
  8
0
 62
     0
 10
35.6704
 20
73.9316
 30
0.0
 11
21.671
 21
73.9316
 31
0.0
  0
LINE
  8
0
 62
     0
 10
2.62103
 20
73.9316
 30
0.0
 11
2.62103
 21
73.3323
 31
0.0
  0
LINE
  8
0
 62
     0
 10
2.62103
 20
73.3323
 30
0.0
 11
1.82039
 21
73.3323
 31
0.0
  0
LINE
  8
0
 62
     0
 10
1.82039
 20
73.3323
 30
0.0
 11
1.82039
 21
60.5317
 31
0.0
  0
LINE
  8
0
 62
     0
 10
1.82039
 20
60.5317
 30
0.0
 11
2.62103
 21
60.5317
 31
0.0
  0
LINE
  8
0
 62
     0
 10
2.62103
 20
60.5317
 30
0.0
 11
2.62103
 21
59.9324
 31
0.0
  0
LINE
  8
0
 62
     0
 10
2.62103
 20
59.9324
 30
0.0
 11
16.6205
 21
59.9324
 31
0.0
  0
LINE
  8
0
 62
     0
 10
16.6205
 20
59.9324
 30
0.0
 11
16.6205
 21
60.5317
 31
0.0
  0
LINE
  8
0
 62
     0
 10
16.6205
 20
60.5317
 30
0.0
 11
17.4212
 21
60.5317
 31
0.0
  0
LINE
  8
0
 62
     0
 10
17.4212
 20
60.5317
 30
0.0
 11
17.4212
 21
73.3323
 31
0.0
  0
LINE
  8
0
 62
     0
 10
17.4212
 20
73.3323
 30
0.0
 11
16.6205
 21
73.3323
 31
0.0
  0
LINE
  8
0
 62
     0
 10
16.6205
 20
73.3323
 30
0.0
 11
16.6205
 21
73.9316
 31
0.0
  0
LINE
  8
0
 62
     0
 10
16.6205
 20
73.9316
 30
0.0
 11
2.62103
 21
73.9316
 31
0.0
  0
ENDSEC
  0
EOF
