G04 #@! TF.GenerationSoftware,KiCad,Pcbnew,(5.1.4)-1*
G04 #@! TF.CreationDate,2020-05-01T00:58:15-05:00*
G04 #@! TF.ProjectId,augioS_switchplate,61756769-6f53-45f7-9377-69746368706c,rev?*
G04 #@! TF.SameCoordinates,Original*
G04 #@! TF.FileFunction,Legend,Top*
G04 #@! TF.FilePolarity,Positive*
%FSLAX46Y46*%
G04 Gerber Fmt 4.6, Leading zero omitted, Abs format (unit mm)*
G04 Created by KiCad (PCBNEW (5.1.4)-1) date 2020-05-01 00:58:15*
%MOMM*%
%LPD*%
G04 APERTURE LIST*
%ADD10C,0.010000*%
%ADD11C,0.150000*%
G04 APERTURE END LIST*
D10*
G36*
X82826657Y-96736466D02*
G01*
X82951340Y-96373216D01*
X83134833Y-96092517D01*
X83276685Y-96014971D01*
X83494002Y-95981182D01*
X83742159Y-95993581D01*
X83958741Y-96047645D01*
X84227408Y-96208748D01*
X84460064Y-96459059D01*
X84623539Y-96760821D01*
X84647240Y-96831419D01*
X84713546Y-97090446D01*
X84729947Y-97295599D01*
X84696150Y-97509910D01*
X84643217Y-97696694D01*
X84487641Y-98017182D01*
X84257862Y-98241718D01*
X83970884Y-98362726D01*
X83823212Y-98367196D01*
X83823212Y-97948750D01*
X84224703Y-97948750D01*
X84253436Y-97742375D01*
X84279377Y-97428673D01*
X84274907Y-97116766D01*
X84243240Y-96840770D01*
X84187590Y-96634800D01*
X84141721Y-96556415D01*
X83967844Y-96451590D01*
X83737702Y-96430360D01*
X83493273Y-96495832D01*
X83470750Y-96506717D01*
X83311289Y-96653874D01*
X83216463Y-96884340D01*
X83189541Y-97170234D01*
X83233795Y-97483674D01*
X83325805Y-97742375D01*
X83384688Y-97854715D01*
X83453014Y-97916465D01*
X83567223Y-97942745D01*
X83763757Y-97948675D01*
X83823212Y-97948750D01*
X83823212Y-98367196D01*
X83643713Y-98372630D01*
X83331175Y-98281275D01*
X83114875Y-98156563D01*
X82969033Y-97985325D01*
X82908657Y-97872934D01*
X82800358Y-97525345D01*
X82774677Y-97133516D01*
X82826657Y-96736466D01*
X82826657Y-96736466D01*
G37*
X82826657Y-96736466D02*
X82951340Y-96373216D01*
X83134833Y-96092517D01*
X83276685Y-96014971D01*
X83494002Y-95981182D01*
X83742159Y-95993581D01*
X83958741Y-96047645D01*
X84227408Y-96208748D01*
X84460064Y-96459059D01*
X84623539Y-96760821D01*
X84647240Y-96831419D01*
X84713546Y-97090446D01*
X84729947Y-97295599D01*
X84696150Y-97509910D01*
X84643217Y-97696694D01*
X84487641Y-98017182D01*
X84257862Y-98241718D01*
X83970884Y-98362726D01*
X83823212Y-98367196D01*
X83823212Y-97948750D01*
X84224703Y-97948750D01*
X84253436Y-97742375D01*
X84279377Y-97428673D01*
X84274907Y-97116766D01*
X84243240Y-96840770D01*
X84187590Y-96634800D01*
X84141721Y-96556415D01*
X83967844Y-96451590D01*
X83737702Y-96430360D01*
X83493273Y-96495832D01*
X83470750Y-96506717D01*
X83311289Y-96653874D01*
X83216463Y-96884340D01*
X83189541Y-97170234D01*
X83233795Y-97483674D01*
X83325805Y-97742375D01*
X83384688Y-97854715D01*
X83453014Y-97916465D01*
X83567223Y-97942745D01*
X83763757Y-97948675D01*
X83823212Y-97948750D01*
X83823212Y-98367196D01*
X83643713Y-98372630D01*
X83331175Y-98281275D01*
X83114875Y-98156563D01*
X82969033Y-97985325D01*
X82908657Y-97872934D01*
X82800358Y-97525345D01*
X82774677Y-97133516D01*
X82826657Y-96736466D01*
G36*
X80823226Y-123299854D02*
G01*
X80873971Y-123113643D01*
X80935936Y-122918485D01*
X81014722Y-122703164D01*
X81083511Y-122579920D01*
X81165992Y-122518379D01*
X81269311Y-122491038D01*
X81457055Y-122487071D01*
X81683850Y-122520652D01*
X81756250Y-122539375D01*
X82042000Y-122623734D01*
X82060285Y-123135217D01*
X82063619Y-123418211D01*
X82047232Y-123598721D01*
X82008218Y-123700143D01*
X81987381Y-123722380D01*
X81882432Y-123746637D01*
X81739719Y-123736276D01*
X81739719Y-123526437D01*
X81800109Y-123456911D01*
X81818580Y-123287781D01*
X81819750Y-123159714D01*
X81812990Y-122938366D01*
X81784571Y-122804967D01*
X81722283Y-122720820D01*
X81668799Y-122681272D01*
X81484726Y-122625906D01*
X81305606Y-122679584D01*
X81165836Y-122827809D01*
X81129223Y-122908673D01*
X81089950Y-123119731D01*
X81151493Y-123275234D01*
X81325310Y-123397584D01*
X81395215Y-123428769D01*
X81612919Y-123511882D01*
X81739719Y-123526437D01*
X81739719Y-123736276D01*
X81700516Y-123733429D01*
X81474996Y-123691583D01*
X81239238Y-123629924D01*
X81026605Y-123557276D01*
X80870461Y-123482466D01*
X80804172Y-123414319D01*
X80803750Y-123409286D01*
X80823226Y-123299854D01*
X80823226Y-123299854D01*
G37*
X80823226Y-123299854D02*
X80873971Y-123113643D01*
X80935936Y-122918485D01*
X81014722Y-122703164D01*
X81083511Y-122579920D01*
X81165992Y-122518379D01*
X81269311Y-122491038D01*
X81457055Y-122487071D01*
X81683850Y-122520652D01*
X81756250Y-122539375D01*
X82042000Y-122623734D01*
X82060285Y-123135217D01*
X82063619Y-123418211D01*
X82047232Y-123598721D01*
X82008218Y-123700143D01*
X81987381Y-123722380D01*
X81882432Y-123746637D01*
X81739719Y-123736276D01*
X81739719Y-123526437D01*
X81800109Y-123456911D01*
X81818580Y-123287781D01*
X81819750Y-123159714D01*
X81812990Y-122938366D01*
X81784571Y-122804967D01*
X81722283Y-122720820D01*
X81668799Y-122681272D01*
X81484726Y-122625906D01*
X81305606Y-122679584D01*
X81165836Y-122827809D01*
X81129223Y-122908673D01*
X81089950Y-123119731D01*
X81151493Y-123275234D01*
X81325310Y-123397584D01*
X81395215Y-123428769D01*
X81612919Y-123511882D01*
X81739719Y-123526437D01*
X81739719Y-123736276D01*
X81700516Y-123733429D01*
X81474996Y-123691583D01*
X81239238Y-123629924D01*
X81026605Y-123557276D01*
X80870461Y-123482466D01*
X80804172Y-123414319D01*
X80803750Y-123409286D01*
X80823226Y-123299854D01*
G36*
X79080701Y-102935989D02*
G01*
X79099559Y-102615071D01*
X79117615Y-102473125D01*
X79163913Y-102203250D01*
X80297583Y-102203250D01*
X80664593Y-102206381D01*
X80986088Y-102215072D01*
X81241125Y-102228276D01*
X81408756Y-102244944D01*
X81467464Y-102261839D01*
X81499091Y-102353698D01*
X81540728Y-102525275D01*
X81566634Y-102652416D01*
X81614967Y-102874998D01*
X81675816Y-103019939D01*
X81774833Y-103103858D01*
X81937672Y-103143374D01*
X82189983Y-103155107D01*
X82343534Y-103155750D01*
X82638108Y-103145684D01*
X82977919Y-103118333D01*
X83332142Y-103077968D01*
X83669955Y-103028859D01*
X83960534Y-102975278D01*
X84173054Y-102921496D01*
X84248625Y-102891779D01*
X84340102Y-102775542D01*
X84347913Y-102565455D01*
X84272062Y-102260726D01*
X84253493Y-102206875D01*
X84198384Y-102013989D01*
X84177803Y-101860118D01*
X84183933Y-101812076D01*
X84260949Y-101741910D01*
X84421300Y-101660932D01*
X84568934Y-101606892D01*
X84757625Y-101558888D01*
X85013775Y-101508996D01*
X85310430Y-101460653D01*
X85620638Y-101417292D01*
X85917447Y-101382350D01*
X86173905Y-101359261D01*
X86363059Y-101351461D01*
X86457957Y-101362386D01*
X86462174Y-101365590D01*
X86516068Y-101490077D01*
X86564077Y-101722661D01*
X86605246Y-102044539D01*
X86638621Y-102436902D01*
X86663245Y-102880946D01*
X86678164Y-103357865D01*
X86682423Y-103848852D01*
X86675067Y-104335102D01*
X86655139Y-104797808D01*
X86644573Y-104956785D01*
X86620863Y-105252045D01*
X86597423Y-105497677D01*
X86576971Y-105667900D01*
X86562332Y-105736835D01*
X86480199Y-105764393D01*
X86297152Y-105798496D01*
X86038882Y-105835632D01*
X85731076Y-105872286D01*
X85399423Y-105904945D01*
X85232875Y-105918664D01*
X84677250Y-105961151D01*
X84677250Y-105781493D01*
X84652547Y-105607759D01*
X84591066Y-105397184D01*
X84569205Y-105340608D01*
X84461160Y-105079380D01*
X83473104Y-104997446D01*
X82893933Y-104956457D01*
X82427729Y-104941113D01*
X82062622Y-104953729D01*
X81786742Y-104996619D01*
X81588217Y-105072097D01*
X81455176Y-105182479D01*
X81375749Y-105330080D01*
X81354049Y-105410628D01*
X81306938Y-105629714D01*
X81261253Y-105832793D01*
X81256172Y-105854500D01*
X81211246Y-106045000D01*
X80343002Y-106023682D01*
X80343002Y-105681619D01*
X80613975Y-105671495D01*
X80672066Y-105664645D01*
X80858789Y-105633618D01*
X80956894Y-105586150D01*
X81003796Y-105490183D01*
X81029323Y-105358579D01*
X81136927Y-105076878D01*
X81341677Y-104834617D01*
X81613989Y-104662958D01*
X81727479Y-104623150D01*
X81933615Y-104580042D01*
X82174733Y-104559677D01*
X82472432Y-104562374D01*
X82848313Y-104588454D01*
X83323975Y-104638234D01*
X83407250Y-104648000D01*
X83747216Y-104685191D01*
X84074940Y-104715550D01*
X84351635Y-104735802D01*
X84529320Y-104742699D01*
X84857641Y-104743250D01*
X84901651Y-105154205D01*
X84942840Y-105431572D01*
X85006997Y-105597854D01*
X85113656Y-105668919D01*
X85282351Y-105660636D01*
X85464043Y-105611045D01*
X85701017Y-105549602D01*
X85929171Y-105511436D01*
X86024306Y-105505250D01*
X86248950Y-105505250D01*
X86314089Y-104632125D01*
X86341358Y-104172717D01*
X86356974Y-103700260D01*
X86361342Y-103237220D01*
X86354864Y-102806063D01*
X86337942Y-102429253D01*
X86310979Y-102129257D01*
X86274379Y-101928539D01*
X86265105Y-101900019D01*
X86203788Y-101764664D01*
X86126390Y-101717152D01*
X85982624Y-101730695D01*
X85956352Y-101735560D01*
X85778890Y-101757488D01*
X85525769Y-101774896D01*
X85248323Y-101784364D01*
X85217000Y-101784792D01*
X84709000Y-101790500D01*
X84705838Y-102362000D01*
X84703060Y-102629371D01*
X84698338Y-102855588D01*
X84692511Y-103005109D01*
X84689963Y-103036258D01*
X84619032Y-103118764D01*
X84437952Y-103198892D01*
X84163572Y-103273843D01*
X83812743Y-103340817D01*
X83402315Y-103397017D01*
X82949137Y-103439643D01*
X82470060Y-103465897D01*
X82058940Y-103473250D01*
X81404124Y-103473250D01*
X81321916Y-103171625D01*
X81270301Y-102963214D01*
X81235061Y-102785821D01*
X81228103Y-102732703D01*
X81212602Y-102667616D01*
X81166702Y-102618342D01*
X81072452Y-102580700D01*
X80911900Y-102550508D01*
X80667091Y-102523587D01*
X80320075Y-102495756D01*
X80161603Y-102484350D01*
X79824176Y-102467809D01*
X79608620Y-102474811D01*
X79511984Y-102505470D01*
X79508991Y-102509438D01*
X79468621Y-102641440D01*
X79440326Y-102864844D01*
X79425019Y-103144543D01*
X79423608Y-103445432D01*
X79437006Y-103732402D01*
X79466122Y-103970349D01*
X79470508Y-103992926D01*
X79510758Y-104255328D01*
X79541945Y-104580718D01*
X79558166Y-104905123D01*
X79558971Y-104951949D01*
X79568800Y-105249010D01*
X79592049Y-105439269D01*
X79631895Y-105542510D01*
X79657713Y-105566881D01*
X79819894Y-105624978D01*
X80063316Y-105664668D01*
X80343002Y-105681619D01*
X80343002Y-106023682D01*
X80261373Y-106021677D01*
X79928632Y-106012540D01*
X79644354Y-106002895D01*
X79431066Y-105993653D01*
X79311298Y-105985722D01*
X79293609Y-105982620D01*
X79279785Y-105917334D01*
X79254689Y-105749946D01*
X79221676Y-105504509D01*
X79184101Y-105205075D01*
X79177280Y-105148693D01*
X79134686Y-104722409D01*
X79103080Y-104258795D01*
X79083113Y-103787052D01*
X79075436Y-103336383D01*
X79080701Y-102935989D01*
X79080701Y-102935989D01*
G37*
X79080701Y-102935989D02*
X79099559Y-102615071D01*
X79117615Y-102473125D01*
X79163913Y-102203250D01*
X80297583Y-102203250D01*
X80664593Y-102206381D01*
X80986088Y-102215072D01*
X81241125Y-102228276D01*
X81408756Y-102244944D01*
X81467464Y-102261839D01*
X81499091Y-102353698D01*
X81540728Y-102525275D01*
X81566634Y-102652416D01*
X81614967Y-102874998D01*
X81675816Y-103019939D01*
X81774833Y-103103858D01*
X81937672Y-103143374D01*
X82189983Y-103155107D01*
X82343534Y-103155750D01*
X82638108Y-103145684D01*
X82977919Y-103118333D01*
X83332142Y-103077968D01*
X83669955Y-103028859D01*
X83960534Y-102975278D01*
X84173054Y-102921496D01*
X84248625Y-102891779D01*
X84340102Y-102775542D01*
X84347913Y-102565455D01*
X84272062Y-102260726D01*
X84253493Y-102206875D01*
X84198384Y-102013989D01*
X84177803Y-101860118D01*
X84183933Y-101812076D01*
X84260949Y-101741910D01*
X84421300Y-101660932D01*
X84568934Y-101606892D01*
X84757625Y-101558888D01*
X85013775Y-101508996D01*
X85310430Y-101460653D01*
X85620638Y-101417292D01*
X85917447Y-101382350D01*
X86173905Y-101359261D01*
X86363059Y-101351461D01*
X86457957Y-101362386D01*
X86462174Y-101365590D01*
X86516068Y-101490077D01*
X86564077Y-101722661D01*
X86605246Y-102044539D01*
X86638621Y-102436902D01*
X86663245Y-102880946D01*
X86678164Y-103357865D01*
X86682423Y-103848852D01*
X86675067Y-104335102D01*
X86655139Y-104797808D01*
X86644573Y-104956785D01*
X86620863Y-105252045D01*
X86597423Y-105497677D01*
X86576971Y-105667900D01*
X86562332Y-105736835D01*
X86480199Y-105764393D01*
X86297152Y-105798496D01*
X86038882Y-105835632D01*
X85731076Y-105872286D01*
X85399423Y-105904945D01*
X85232875Y-105918664D01*
X84677250Y-105961151D01*
X84677250Y-105781493D01*
X84652547Y-105607759D01*
X84591066Y-105397184D01*
X84569205Y-105340608D01*
X84461160Y-105079380D01*
X83473104Y-104997446D01*
X82893933Y-104956457D01*
X82427729Y-104941113D01*
X82062622Y-104953729D01*
X81786742Y-104996619D01*
X81588217Y-105072097D01*
X81455176Y-105182479D01*
X81375749Y-105330080D01*
X81354049Y-105410628D01*
X81306938Y-105629714D01*
X81261253Y-105832793D01*
X81256172Y-105854500D01*
X81211246Y-106045000D01*
X80343002Y-106023682D01*
X80343002Y-105681619D01*
X80613975Y-105671495D01*
X80672066Y-105664645D01*
X80858789Y-105633618D01*
X80956894Y-105586150D01*
X81003796Y-105490183D01*
X81029323Y-105358579D01*
X81136927Y-105076878D01*
X81341677Y-104834617D01*
X81613989Y-104662958D01*
X81727479Y-104623150D01*
X81933615Y-104580042D01*
X82174733Y-104559677D01*
X82472432Y-104562374D01*
X82848313Y-104588454D01*
X83323975Y-104638234D01*
X83407250Y-104648000D01*
X83747216Y-104685191D01*
X84074940Y-104715550D01*
X84351635Y-104735802D01*
X84529320Y-104742699D01*
X84857641Y-104743250D01*
X84901651Y-105154205D01*
X84942840Y-105431572D01*
X85006997Y-105597854D01*
X85113656Y-105668919D01*
X85282351Y-105660636D01*
X85464043Y-105611045D01*
X85701017Y-105549602D01*
X85929171Y-105511436D01*
X86024306Y-105505250D01*
X86248950Y-105505250D01*
X86314089Y-104632125D01*
X86341358Y-104172717D01*
X86356974Y-103700260D01*
X86361342Y-103237220D01*
X86354864Y-102806063D01*
X86337942Y-102429253D01*
X86310979Y-102129257D01*
X86274379Y-101928539D01*
X86265105Y-101900019D01*
X86203788Y-101764664D01*
X86126390Y-101717152D01*
X85982624Y-101730695D01*
X85956352Y-101735560D01*
X85778890Y-101757488D01*
X85525769Y-101774896D01*
X85248323Y-101784364D01*
X85217000Y-101784792D01*
X84709000Y-101790500D01*
X84705838Y-102362000D01*
X84703060Y-102629371D01*
X84698338Y-102855588D01*
X84692511Y-103005109D01*
X84689963Y-103036258D01*
X84619032Y-103118764D01*
X84437952Y-103198892D01*
X84163572Y-103273843D01*
X83812743Y-103340817D01*
X83402315Y-103397017D01*
X82949137Y-103439643D01*
X82470060Y-103465897D01*
X82058940Y-103473250D01*
X81404124Y-103473250D01*
X81321916Y-103171625D01*
X81270301Y-102963214D01*
X81235061Y-102785821D01*
X81228103Y-102732703D01*
X81212602Y-102667616D01*
X81166702Y-102618342D01*
X81072452Y-102580700D01*
X80911900Y-102550508D01*
X80667091Y-102523587D01*
X80320075Y-102495756D01*
X80161603Y-102484350D01*
X79824176Y-102467809D01*
X79608620Y-102474811D01*
X79511984Y-102505470D01*
X79508991Y-102509438D01*
X79468621Y-102641440D01*
X79440326Y-102864844D01*
X79425019Y-103144543D01*
X79423608Y-103445432D01*
X79437006Y-103732402D01*
X79466122Y-103970349D01*
X79470508Y-103992926D01*
X79510758Y-104255328D01*
X79541945Y-104580718D01*
X79558166Y-104905123D01*
X79558971Y-104951949D01*
X79568800Y-105249010D01*
X79592049Y-105439269D01*
X79631895Y-105542510D01*
X79657713Y-105566881D01*
X79819894Y-105624978D01*
X80063316Y-105664668D01*
X80343002Y-105681619D01*
X80343002Y-106023682D01*
X80261373Y-106021677D01*
X79928632Y-106012540D01*
X79644354Y-106002895D01*
X79431066Y-105993653D01*
X79311298Y-105985722D01*
X79293609Y-105982620D01*
X79279785Y-105917334D01*
X79254689Y-105749946D01*
X79221676Y-105504509D01*
X79184101Y-105205075D01*
X79177280Y-105148693D01*
X79134686Y-104722409D01*
X79103080Y-104258795D01*
X79083113Y-103787052D01*
X79075436Y-103336383D01*
X79080701Y-102935989D01*
G36*
X79029047Y-124075447D02*
G01*
X79054866Y-123753201D01*
X79090306Y-123391685D01*
X79133135Y-123012491D01*
X79181120Y-122637209D01*
X79232029Y-122287433D01*
X79283629Y-121984754D01*
X79318840Y-121813010D01*
X79374314Y-121586737D01*
X79425195Y-121454615D01*
X79490951Y-121386091D01*
X79591053Y-121350617D01*
X79617274Y-121344720D01*
X79728673Y-121317232D01*
X79945341Y-121260802D01*
X80250055Y-121180025D01*
X80625594Y-121079498D01*
X81054736Y-120963817D01*
X81520256Y-120837580D01*
X81661000Y-120799272D01*
X82283884Y-120632524D01*
X82891374Y-120475444D01*
X83469033Y-120331371D01*
X84002426Y-120203647D01*
X84477118Y-120095613D01*
X84878673Y-120010609D01*
X85192656Y-119951977D01*
X85404632Y-119923057D01*
X85457895Y-119920558D01*
X85492572Y-119936333D01*
X85420310Y-119979323D01*
X85257048Y-120044644D01*
X85018722Y-120127408D01*
X84721271Y-120222729D01*
X84380631Y-120325721D01*
X84012740Y-120431499D01*
X83633537Y-120535175D01*
X83258957Y-120631865D01*
X82904939Y-120716681D01*
X82746158Y-120751920D01*
X82065639Y-120903417D01*
X81497284Y-121042628D01*
X81027475Y-121174802D01*
X80642590Y-121305189D01*
X80329012Y-121439037D01*
X80073120Y-121581595D01*
X79861296Y-121738112D01*
X79679919Y-121913837D01*
X79652824Y-121944075D01*
X79453557Y-122215673D01*
X79320093Y-122515143D01*
X79245875Y-122868223D01*
X79224346Y-123300649D01*
X79233093Y-123591631D01*
X79260314Y-123954252D01*
X79298701Y-124202570D01*
X79347307Y-124330694D01*
X79352648Y-124336624D01*
X79444865Y-124387270D01*
X79643180Y-124468903D01*
X79931926Y-124576431D01*
X80295433Y-124704761D01*
X80718033Y-124848803D01*
X81184059Y-125003463D01*
X81677840Y-125163649D01*
X82183709Y-125324270D01*
X82685997Y-125480232D01*
X83169035Y-125626444D01*
X83617156Y-125757814D01*
X84014690Y-125869249D01*
X84296250Y-125943267D01*
X84839016Y-126076662D01*
X85325202Y-126189687D01*
X85742813Y-126279944D01*
X86079853Y-126345035D01*
X86324327Y-126382563D01*
X86464241Y-126390128D01*
X86491109Y-126382058D01*
X86508982Y-126303258D01*
X86522126Y-126126693D01*
X86530426Y-125881514D01*
X86533768Y-125596872D01*
X86532038Y-125301918D01*
X86525122Y-125025804D01*
X86512907Y-124797680D01*
X86497840Y-124660708D01*
X86455953Y-124469543D01*
X86388741Y-124356271D01*
X86258677Y-124272374D01*
X86163632Y-124228613D01*
X85994191Y-124168015D01*
X85733903Y-124092091D01*
X85416537Y-124010007D01*
X85075861Y-123930931D01*
X85032161Y-123921466D01*
X84513469Y-123800820D01*
X84105063Y-123683424D01*
X83790584Y-123562986D01*
X83553677Y-123433215D01*
X83377985Y-123287820D01*
X83374000Y-123283686D01*
X83263960Y-123154718D01*
X83234298Y-123054669D01*
X83270408Y-122928156D01*
X83276391Y-122913566D01*
X83369423Y-122728888D01*
X83488043Y-122585204D01*
X83648931Y-122476635D01*
X83868764Y-122397302D01*
X84164224Y-122341323D01*
X84551989Y-122302820D01*
X85048739Y-122275913D01*
X85090000Y-122274232D01*
X85552736Y-122252984D01*
X85905222Y-122227187D01*
X86164202Y-122190884D01*
X86346416Y-122138122D01*
X86468608Y-122062945D01*
X86547519Y-121959398D01*
X86599894Y-121821525D01*
X86623481Y-121728787D01*
X86675898Y-121412312D01*
X86699037Y-121068299D01*
X86692982Y-120738390D01*
X86657817Y-120464227D01*
X86620707Y-120338760D01*
X86474852Y-120107272D01*
X86260836Y-119968928D01*
X85960939Y-119912959D01*
X85917245Y-119911237D01*
X85765957Y-119905861D01*
X85712480Y-119897815D01*
X85764782Y-119883418D01*
X85930832Y-119858990D01*
X86070820Y-119840303D01*
X86314395Y-119810757D01*
X86465683Y-119804510D01*
X86557991Y-119826008D01*
X86624624Y-119879697D01*
X86657609Y-119918627D01*
X86781180Y-120142058D01*
X86876911Y-120451956D01*
X86938777Y-120809676D01*
X86960756Y-121176574D01*
X86936824Y-121514004D01*
X86920063Y-121602500D01*
X86837861Y-121905270D01*
X86741795Y-122158746D01*
X86643898Y-122334849D01*
X86579236Y-122397863D01*
X86478969Y-122421352D01*
X86274828Y-122446906D01*
X85989869Y-122472416D01*
X85647147Y-122495773D01*
X85328595Y-122512314D01*
X84895491Y-122533938D01*
X84568555Y-122556488D01*
X84326969Y-122582582D01*
X84149913Y-122614840D01*
X84016565Y-122655882D01*
X83948638Y-122685931D01*
X83791546Y-122775863D01*
X83692730Y-122855404D01*
X83679137Y-122876839D01*
X83700577Y-122992061D01*
X83798296Y-123149831D01*
X83945945Y-123317890D01*
X84117172Y-123463978D01*
X84203457Y-123518736D01*
X84386700Y-123596321D01*
X84646010Y-123677557D01*
X84931846Y-123747344D01*
X84994750Y-123759924D01*
X85481815Y-123856244D01*
X85859648Y-123939643D01*
X86144781Y-124014893D01*
X86353741Y-124086767D01*
X86503061Y-124160039D01*
X86586845Y-124219612D01*
X86772750Y-124376040D01*
X86772750Y-125256270D01*
X86767851Y-125609226D01*
X86754461Y-125945346D01*
X86734537Y-126229694D01*
X86710034Y-126427338D01*
X86706009Y-126447700D01*
X86658218Y-126633802D01*
X86606119Y-126722631D01*
X86529441Y-126742906D01*
X86499634Y-126740053D01*
X86376820Y-126724396D01*
X86164279Y-126698173D01*
X85898390Y-126665854D01*
X85756750Y-126648797D01*
X85031218Y-126539411D01*
X84259267Y-126378538D01*
X83428768Y-126162751D01*
X82527588Y-125888621D01*
X81543598Y-125552720D01*
X80481281Y-125158009D01*
X80084057Y-125004937D01*
X79726639Y-124866412D01*
X79426023Y-124749085D01*
X79199201Y-124659606D01*
X79063170Y-124604628D01*
X79031642Y-124590642D01*
X79015202Y-124515759D01*
X79015081Y-124336830D01*
X79029047Y-124075447D01*
X79029047Y-124075447D01*
G37*
X79029047Y-124075447D02*
X79054866Y-123753201D01*
X79090306Y-123391685D01*
X79133135Y-123012491D01*
X79181120Y-122637209D01*
X79232029Y-122287433D01*
X79283629Y-121984754D01*
X79318840Y-121813010D01*
X79374314Y-121586737D01*
X79425195Y-121454615D01*
X79490951Y-121386091D01*
X79591053Y-121350617D01*
X79617274Y-121344720D01*
X79728673Y-121317232D01*
X79945341Y-121260802D01*
X80250055Y-121180025D01*
X80625594Y-121079498D01*
X81054736Y-120963817D01*
X81520256Y-120837580D01*
X81661000Y-120799272D01*
X82283884Y-120632524D01*
X82891374Y-120475444D01*
X83469033Y-120331371D01*
X84002426Y-120203647D01*
X84477118Y-120095613D01*
X84878673Y-120010609D01*
X85192656Y-119951977D01*
X85404632Y-119923057D01*
X85457895Y-119920558D01*
X85492572Y-119936333D01*
X85420310Y-119979323D01*
X85257048Y-120044644D01*
X85018722Y-120127408D01*
X84721271Y-120222729D01*
X84380631Y-120325721D01*
X84012740Y-120431499D01*
X83633537Y-120535175D01*
X83258957Y-120631865D01*
X82904939Y-120716681D01*
X82746158Y-120751920D01*
X82065639Y-120903417D01*
X81497284Y-121042628D01*
X81027475Y-121174802D01*
X80642590Y-121305189D01*
X80329012Y-121439037D01*
X80073120Y-121581595D01*
X79861296Y-121738112D01*
X79679919Y-121913837D01*
X79652824Y-121944075D01*
X79453557Y-122215673D01*
X79320093Y-122515143D01*
X79245875Y-122868223D01*
X79224346Y-123300649D01*
X79233093Y-123591631D01*
X79260314Y-123954252D01*
X79298701Y-124202570D01*
X79347307Y-124330694D01*
X79352648Y-124336624D01*
X79444865Y-124387270D01*
X79643180Y-124468903D01*
X79931926Y-124576431D01*
X80295433Y-124704761D01*
X80718033Y-124848803D01*
X81184059Y-125003463D01*
X81677840Y-125163649D01*
X82183709Y-125324270D01*
X82685997Y-125480232D01*
X83169035Y-125626444D01*
X83617156Y-125757814D01*
X84014690Y-125869249D01*
X84296250Y-125943267D01*
X84839016Y-126076662D01*
X85325202Y-126189687D01*
X85742813Y-126279944D01*
X86079853Y-126345035D01*
X86324327Y-126382563D01*
X86464241Y-126390128D01*
X86491109Y-126382058D01*
X86508982Y-126303258D01*
X86522126Y-126126693D01*
X86530426Y-125881514D01*
X86533768Y-125596872D01*
X86532038Y-125301918D01*
X86525122Y-125025804D01*
X86512907Y-124797680D01*
X86497840Y-124660708D01*
X86455953Y-124469543D01*
X86388741Y-124356271D01*
X86258677Y-124272374D01*
X86163632Y-124228613D01*
X85994191Y-124168015D01*
X85733903Y-124092091D01*
X85416537Y-124010007D01*
X85075861Y-123930931D01*
X85032161Y-123921466D01*
X84513469Y-123800820D01*
X84105063Y-123683424D01*
X83790584Y-123562986D01*
X83553677Y-123433215D01*
X83377985Y-123287820D01*
X83374000Y-123283686D01*
X83263960Y-123154718D01*
X83234298Y-123054669D01*
X83270408Y-122928156D01*
X83276391Y-122913566D01*
X83369423Y-122728888D01*
X83488043Y-122585204D01*
X83648931Y-122476635D01*
X83868764Y-122397302D01*
X84164224Y-122341323D01*
X84551989Y-122302820D01*
X85048739Y-122275913D01*
X85090000Y-122274232D01*
X85552736Y-122252984D01*
X85905222Y-122227187D01*
X86164202Y-122190884D01*
X86346416Y-122138122D01*
X86468608Y-122062945D01*
X86547519Y-121959398D01*
X86599894Y-121821525D01*
X86623481Y-121728787D01*
X86675898Y-121412312D01*
X86699037Y-121068299D01*
X86692982Y-120738390D01*
X86657817Y-120464227D01*
X86620707Y-120338760D01*
X86474852Y-120107272D01*
X86260836Y-119968928D01*
X85960939Y-119912959D01*
X85917245Y-119911237D01*
X85765957Y-119905861D01*
X85712480Y-119897815D01*
X85764782Y-119883418D01*
X85930832Y-119858990D01*
X86070820Y-119840303D01*
X86314395Y-119810757D01*
X86465683Y-119804510D01*
X86557991Y-119826008D01*
X86624624Y-119879697D01*
X86657609Y-119918627D01*
X86781180Y-120142058D01*
X86876911Y-120451956D01*
X86938777Y-120809676D01*
X86960756Y-121176574D01*
X86936824Y-121514004D01*
X86920063Y-121602500D01*
X86837861Y-121905270D01*
X86741795Y-122158746D01*
X86643898Y-122334849D01*
X86579236Y-122397863D01*
X86478969Y-122421352D01*
X86274828Y-122446906D01*
X85989869Y-122472416D01*
X85647147Y-122495773D01*
X85328595Y-122512314D01*
X84895491Y-122533938D01*
X84568555Y-122556488D01*
X84326969Y-122582582D01*
X84149913Y-122614840D01*
X84016565Y-122655882D01*
X83948638Y-122685931D01*
X83791546Y-122775863D01*
X83692730Y-122855404D01*
X83679137Y-122876839D01*
X83700577Y-122992061D01*
X83798296Y-123149831D01*
X83945945Y-123317890D01*
X84117172Y-123463978D01*
X84203457Y-123518736D01*
X84386700Y-123596321D01*
X84646010Y-123677557D01*
X84931846Y-123747344D01*
X84994750Y-123759924D01*
X85481815Y-123856244D01*
X85859648Y-123939643D01*
X86144781Y-124014893D01*
X86353741Y-124086767D01*
X86503061Y-124160039D01*
X86586845Y-124219612D01*
X86772750Y-124376040D01*
X86772750Y-125256270D01*
X86767851Y-125609226D01*
X86754461Y-125945346D01*
X86734537Y-126229694D01*
X86710034Y-126427338D01*
X86706009Y-126447700D01*
X86658218Y-126633802D01*
X86606119Y-126722631D01*
X86529441Y-126742906D01*
X86499634Y-126740053D01*
X86376820Y-126724396D01*
X86164279Y-126698173D01*
X85898390Y-126665854D01*
X85756750Y-126648797D01*
X85031218Y-126539411D01*
X84259267Y-126378538D01*
X83428768Y-126162751D01*
X82527588Y-125888621D01*
X81543598Y-125552720D01*
X80481281Y-125158009D01*
X80084057Y-125004937D01*
X79726639Y-124866412D01*
X79426023Y-124749085D01*
X79199201Y-124659606D01*
X79063170Y-124604628D01*
X79031642Y-124590642D01*
X79015202Y-124515759D01*
X79015081Y-124336830D01*
X79029047Y-124075447D01*
G36*
X79214370Y-108823424D02*
G01*
X79365251Y-108254380D01*
X79508826Y-107929695D01*
X79638359Y-107673475D01*
X79739144Y-107495226D01*
X79836920Y-107382626D01*
X79957426Y-107323354D01*
X80126400Y-107305088D01*
X80369580Y-107315507D01*
X80712705Y-107342291D01*
X80732681Y-107343818D01*
X81203066Y-107391090D01*
X81560260Y-107452202D01*
X81800696Y-107526138D01*
X81920810Y-107611885D01*
X81929395Y-107684418D01*
X81808662Y-108036013D01*
X81735780Y-108321509D01*
X81702246Y-108588621D01*
X81699559Y-108885062D01*
X81702264Y-108958990D01*
X81720676Y-109243622D01*
X81754907Y-109447156D01*
X81816693Y-109615431D01*
X81915000Y-109789843D01*
X82170955Y-110089602D01*
X82503627Y-110315035D01*
X82889250Y-110464736D01*
X83304058Y-110537301D01*
X83724284Y-110531324D01*
X84126162Y-110445402D01*
X84485925Y-110278127D01*
X84779808Y-110028097D01*
X84832887Y-109962343D01*
X84941648Y-109728453D01*
X84987225Y-109431033D01*
X84967937Y-109117669D01*
X84882103Y-108835945D01*
X84873304Y-108818137D01*
X84785531Y-108661809D01*
X84716663Y-108566692D01*
X84696834Y-108553250D01*
X84582950Y-108614279D01*
X84458521Y-108789890D01*
X84330461Y-109068874D01*
X84262639Y-109257337D01*
X84124805Y-109611780D01*
X83976815Y-109854208D01*
X83801928Y-109999433D01*
X83583401Y-110062270D01*
X83353042Y-110062152D01*
X83132524Y-110030607D01*
X82980924Y-109963040D01*
X82872963Y-109834520D01*
X82783361Y-109620117D01*
X82730239Y-109447950D01*
X82670620Y-109124299D01*
X82647447Y-108721133D01*
X82658616Y-108279944D01*
X82702022Y-107842226D01*
X82775559Y-107449472D01*
X82842988Y-107225785D01*
X82963383Y-106951749D01*
X83103507Y-106761186D01*
X83294405Y-106627947D01*
X83567122Y-106525884D01*
X83724639Y-106483203D01*
X84261719Y-106408867D01*
X84785304Y-106454086D01*
X85283942Y-106611431D01*
X85746180Y-106873476D01*
X86160565Y-107232790D01*
X86515644Y-107681946D01*
X86799965Y-108213516D01*
X86929625Y-108561968D01*
X87039334Y-108997914D01*
X87106051Y-109458110D01*
X87125373Y-109896539D01*
X87092898Y-110267183D01*
X87092792Y-110267750D01*
X86921890Y-110874559D01*
X86653141Y-111403128D01*
X86291589Y-111849664D01*
X85842279Y-112210375D01*
X85310254Y-112481468D01*
X84700560Y-112659151D01*
X84018241Y-112739629D01*
X83799110Y-112744250D01*
X83724875Y-112738955D01*
X83724875Y-112120827D01*
X84439862Y-112056786D01*
X85103123Y-111909375D01*
X85692719Y-111682451D01*
X85869897Y-111589349D01*
X86082280Y-111450970D01*
X86233130Y-111296485D01*
X86366894Y-111077926D01*
X86395701Y-111021924D01*
X86635082Y-110412606D01*
X86753440Y-109779958D01*
X86748591Y-109139013D01*
X86708764Y-108868188D01*
X86550780Y-108336668D01*
X86295516Y-107861947D01*
X85955682Y-107461099D01*
X85543987Y-107151191D01*
X85358878Y-107055069D01*
X85148397Y-106966222D01*
X84962733Y-106911920D01*
X84756910Y-106883998D01*
X84485951Y-106874291D01*
X84359750Y-106873680D01*
X84061393Y-106881751D01*
X83780444Y-106903527D01*
X83562354Y-106934980D01*
X83501682Y-106949730D01*
X83246864Y-107026037D01*
X83136485Y-107742019D01*
X83073000Y-108220178D01*
X83037565Y-108639697D01*
X83030480Y-108984528D01*
X83052047Y-109238622D01*
X83102565Y-109385929D01*
X83105625Y-109389915D01*
X83213058Y-109486840D01*
X83372183Y-109594552D01*
X83396089Y-109608426D01*
X83536890Y-109681973D01*
X83614485Y-109690875D01*
X83674321Y-109636248D01*
X83689751Y-109615630D01*
X83738590Y-109503673D01*
X83796930Y-109303072D01*
X83854547Y-109050642D01*
X83872604Y-108957120D01*
X83948312Y-108605380D01*
X84034704Y-108370655D01*
X84148476Y-108243104D01*
X84306322Y-108212883D01*
X84524939Y-108270152D01*
X84814551Y-108401830D01*
X85125326Y-108615030D01*
X85329924Y-108884070D01*
X85422043Y-109195337D01*
X85395383Y-109535218D01*
X85373763Y-109610002D01*
X85174014Y-110029100D01*
X84877798Y-110393774D01*
X84506313Y-110694344D01*
X84080754Y-110921130D01*
X83622319Y-111064450D01*
X83152204Y-111114624D01*
X82691606Y-111061973D01*
X82403667Y-110966430D01*
X82216780Y-110865851D01*
X82062006Y-110731940D01*
X81933985Y-110550600D01*
X81827361Y-110307729D01*
X81736773Y-109989229D01*
X81656865Y-109580999D01*
X81582278Y-109068939D01*
X81534864Y-108680250D01*
X81486780Y-108293861D01*
X81439213Y-108017403D01*
X81382123Y-107834246D01*
X81305473Y-107727762D01*
X81199226Y-107681320D01*
X81053344Y-107678291D01*
X80937762Y-107691030D01*
X80698398Y-107713403D01*
X80424665Y-107726412D01*
X80325389Y-107727750D01*
X79991755Y-107727750D01*
X79813702Y-108156375D01*
X79729579Y-108375188D01*
X79676372Y-108569205D01*
X79647050Y-108780877D01*
X79634586Y-109052656D01*
X79632325Y-109251750D01*
X79633868Y-109563711D01*
X79646495Y-109786557D01*
X79676675Y-109958094D01*
X79730881Y-110116122D01*
X79809315Y-110285711D01*
X80095800Y-110730271D01*
X80488573Y-111127977D01*
X80972872Y-111470393D01*
X81533935Y-111749083D01*
X82157001Y-111955613D01*
X82827309Y-112081546D01*
X82980102Y-112097639D01*
X83724875Y-112120827D01*
X83724875Y-112738955D01*
X82992318Y-112686700D01*
X82220227Y-112517796D01*
X81495429Y-112243158D01*
X80830515Y-111868407D01*
X80238077Y-111399164D01*
X79838803Y-110976499D01*
X79500725Y-110477227D01*
X79283219Y-109945113D01*
X79187397Y-109390423D01*
X79214370Y-108823424D01*
X79214370Y-108823424D01*
G37*
X79214370Y-108823424D02*
X79365251Y-108254380D01*
X79508826Y-107929695D01*
X79638359Y-107673475D01*
X79739144Y-107495226D01*
X79836920Y-107382626D01*
X79957426Y-107323354D01*
X80126400Y-107305088D01*
X80369580Y-107315507D01*
X80712705Y-107342291D01*
X80732681Y-107343818D01*
X81203066Y-107391090D01*
X81560260Y-107452202D01*
X81800696Y-107526138D01*
X81920810Y-107611885D01*
X81929395Y-107684418D01*
X81808662Y-108036013D01*
X81735780Y-108321509D01*
X81702246Y-108588621D01*
X81699559Y-108885062D01*
X81702264Y-108958990D01*
X81720676Y-109243622D01*
X81754907Y-109447156D01*
X81816693Y-109615431D01*
X81915000Y-109789843D01*
X82170955Y-110089602D01*
X82503627Y-110315035D01*
X82889250Y-110464736D01*
X83304058Y-110537301D01*
X83724284Y-110531324D01*
X84126162Y-110445402D01*
X84485925Y-110278127D01*
X84779808Y-110028097D01*
X84832887Y-109962343D01*
X84941648Y-109728453D01*
X84987225Y-109431033D01*
X84967937Y-109117669D01*
X84882103Y-108835945D01*
X84873304Y-108818137D01*
X84785531Y-108661809D01*
X84716663Y-108566692D01*
X84696834Y-108553250D01*
X84582950Y-108614279D01*
X84458521Y-108789890D01*
X84330461Y-109068874D01*
X84262639Y-109257337D01*
X84124805Y-109611780D01*
X83976815Y-109854208D01*
X83801928Y-109999433D01*
X83583401Y-110062270D01*
X83353042Y-110062152D01*
X83132524Y-110030607D01*
X82980924Y-109963040D01*
X82872963Y-109834520D01*
X82783361Y-109620117D01*
X82730239Y-109447950D01*
X82670620Y-109124299D01*
X82647447Y-108721133D01*
X82658616Y-108279944D01*
X82702022Y-107842226D01*
X82775559Y-107449472D01*
X82842988Y-107225785D01*
X82963383Y-106951749D01*
X83103507Y-106761186D01*
X83294405Y-106627947D01*
X83567122Y-106525884D01*
X83724639Y-106483203D01*
X84261719Y-106408867D01*
X84785304Y-106454086D01*
X85283942Y-106611431D01*
X85746180Y-106873476D01*
X86160565Y-107232790D01*
X86515644Y-107681946D01*
X86799965Y-108213516D01*
X86929625Y-108561968D01*
X87039334Y-108997914D01*
X87106051Y-109458110D01*
X87125373Y-109896539D01*
X87092898Y-110267183D01*
X87092792Y-110267750D01*
X86921890Y-110874559D01*
X86653141Y-111403128D01*
X86291589Y-111849664D01*
X85842279Y-112210375D01*
X85310254Y-112481468D01*
X84700560Y-112659151D01*
X84018241Y-112739629D01*
X83799110Y-112744250D01*
X83724875Y-112738955D01*
X83724875Y-112120827D01*
X84439862Y-112056786D01*
X85103123Y-111909375D01*
X85692719Y-111682451D01*
X85869897Y-111589349D01*
X86082280Y-111450970D01*
X86233130Y-111296485D01*
X86366894Y-111077926D01*
X86395701Y-111021924D01*
X86635082Y-110412606D01*
X86753440Y-109779958D01*
X86748591Y-109139013D01*
X86708764Y-108868188D01*
X86550780Y-108336668D01*
X86295516Y-107861947D01*
X85955682Y-107461099D01*
X85543987Y-107151191D01*
X85358878Y-107055069D01*
X85148397Y-106966222D01*
X84962733Y-106911920D01*
X84756910Y-106883998D01*
X84485951Y-106874291D01*
X84359750Y-106873680D01*
X84061393Y-106881751D01*
X83780444Y-106903527D01*
X83562354Y-106934980D01*
X83501682Y-106949730D01*
X83246864Y-107026037D01*
X83136485Y-107742019D01*
X83073000Y-108220178D01*
X83037565Y-108639697D01*
X83030480Y-108984528D01*
X83052047Y-109238622D01*
X83102565Y-109385929D01*
X83105625Y-109389915D01*
X83213058Y-109486840D01*
X83372183Y-109594552D01*
X83396089Y-109608426D01*
X83536890Y-109681973D01*
X83614485Y-109690875D01*
X83674321Y-109636248D01*
X83689751Y-109615630D01*
X83738590Y-109503673D01*
X83796930Y-109303072D01*
X83854547Y-109050642D01*
X83872604Y-108957120D01*
X83948312Y-108605380D01*
X84034704Y-108370655D01*
X84148476Y-108243104D01*
X84306322Y-108212883D01*
X84524939Y-108270152D01*
X84814551Y-108401830D01*
X85125326Y-108615030D01*
X85329924Y-108884070D01*
X85422043Y-109195337D01*
X85395383Y-109535218D01*
X85373763Y-109610002D01*
X85174014Y-110029100D01*
X84877798Y-110393774D01*
X84506313Y-110694344D01*
X84080754Y-110921130D01*
X83622319Y-111064450D01*
X83152204Y-111114624D01*
X82691606Y-111061973D01*
X82403667Y-110966430D01*
X82216780Y-110865851D01*
X82062006Y-110731940D01*
X81933985Y-110550600D01*
X81827361Y-110307729D01*
X81736773Y-109989229D01*
X81656865Y-109580999D01*
X81582278Y-109068939D01*
X81534864Y-108680250D01*
X81486780Y-108293861D01*
X81439213Y-108017403D01*
X81382123Y-107834246D01*
X81305473Y-107727762D01*
X81199226Y-107681320D01*
X81053344Y-107678291D01*
X80937762Y-107691030D01*
X80698398Y-107713403D01*
X80424665Y-107726412D01*
X80325389Y-107727750D01*
X79991755Y-107727750D01*
X79813702Y-108156375D01*
X79729579Y-108375188D01*
X79676372Y-108569205D01*
X79647050Y-108780877D01*
X79634586Y-109052656D01*
X79632325Y-109251750D01*
X79633868Y-109563711D01*
X79646495Y-109786557D01*
X79676675Y-109958094D01*
X79730881Y-110116122D01*
X79809315Y-110285711D01*
X80095800Y-110730271D01*
X80488573Y-111127977D01*
X80972872Y-111470393D01*
X81533935Y-111749083D01*
X82157001Y-111955613D01*
X82827309Y-112081546D01*
X82980102Y-112097639D01*
X83724875Y-112120827D01*
X83724875Y-112738955D01*
X82992318Y-112686700D01*
X82220227Y-112517796D01*
X81495429Y-112243158D01*
X80830515Y-111868407D01*
X80238077Y-111399164D01*
X79838803Y-110976499D01*
X79500725Y-110477227D01*
X79283219Y-109945113D01*
X79187397Y-109390423D01*
X79214370Y-108823424D01*
G36*
X79444228Y-113846942D02*
G01*
X79479062Y-113677572D01*
X79542697Y-113592962D01*
X79672486Y-113551161D01*
X79714487Y-113543392D01*
X80924393Y-113356503D01*
X82029992Y-113241815D01*
X83031455Y-113199323D01*
X83928951Y-113229023D01*
X84722652Y-113330911D01*
X85090200Y-113411347D01*
X85676612Y-113610457D01*
X86198245Y-113888194D01*
X86639691Y-114233211D01*
X86985545Y-114634163D01*
X87159219Y-114935000D01*
X87336724Y-115431718D01*
X87438436Y-115982613D01*
X87456689Y-116534683D01*
X87430112Y-116808250D01*
X87366424Y-117207699D01*
X87303435Y-117514356D01*
X87227358Y-117761600D01*
X87124408Y-117982810D01*
X86980797Y-118211367D01*
X86782741Y-118480648D01*
X86689298Y-118601937D01*
X86519947Y-118814879D01*
X86375192Y-118970808D01*
X86229582Y-119081279D01*
X86123597Y-119128482D01*
X86123597Y-118649750D01*
X86376784Y-118157625D01*
X86613265Y-117648338D01*
X86784447Y-117172836D01*
X86859845Y-116871750D01*
X86880650Y-116649783D01*
X86879055Y-116357108D01*
X86858490Y-116036594D01*
X86822387Y-115731109D01*
X86774176Y-115483520D01*
X86740402Y-115379500D01*
X86481506Y-114925110D01*
X86120374Y-114516450D01*
X85821692Y-114274408D01*
X85284283Y-113954382D01*
X84705876Y-113724507D01*
X84069797Y-113580617D01*
X83359375Y-113518544D01*
X82809169Y-113521534D01*
X82110676Y-113574258D01*
X81494023Y-113681766D01*
X80922791Y-113852543D01*
X80372509Y-114089190D01*
X80126984Y-114211396D01*
X79978847Y-114294027D01*
X79911173Y-114352838D01*
X79907037Y-114403586D01*
X79949513Y-114462026D01*
X79959759Y-114473426D01*
X80039558Y-114622971D01*
X80061961Y-114848928D01*
X80060398Y-114903386D01*
X80059615Y-115091439D01*
X80090097Y-115194758D01*
X80169531Y-115254882D01*
X80219148Y-115276211D01*
X80437629Y-115348688D01*
X80707046Y-115408831D01*
X81047535Y-115459787D01*
X81479235Y-115504705D01*
X81890645Y-115537459D01*
X82422482Y-115580304D01*
X82847405Y-115625821D01*
X83185495Y-115677764D01*
X83456833Y-115739887D01*
X83681501Y-115815943D01*
X83878207Y-115908941D01*
X84149866Y-116110784D01*
X84321231Y-116355524D01*
X84387888Y-116622211D01*
X84345423Y-116889896D01*
X84189423Y-117137631D01*
X84146231Y-117181047D01*
X83991870Y-117291182D01*
X83790239Y-117367233D01*
X83525847Y-117410658D01*
X83183199Y-117422918D01*
X82746803Y-117405472D01*
X82224704Y-117362076D01*
X81705624Y-117318067D01*
X81293255Y-117299076D01*
X80969574Y-117306252D01*
X80716554Y-117340744D01*
X80516170Y-117403701D01*
X80374422Y-117480023D01*
X80243528Y-117605769D01*
X80142958Y-117771573D01*
X80092094Y-117934689D01*
X80110314Y-118052372D01*
X80113235Y-118056115D01*
X80200346Y-118105984D01*
X80376612Y-118172352D01*
X80607573Y-118242599D01*
X80663454Y-118257623D01*
X81263617Y-118393726D01*
X81916377Y-118499209D01*
X82638017Y-118575622D01*
X83444815Y-118624516D01*
X84353053Y-118647439D01*
X84781298Y-118649697D01*
X86123597Y-118649750D01*
X86123597Y-119128482D01*
X86057663Y-119157848D01*
X85833983Y-119212070D01*
X85533090Y-119255501D01*
X85159246Y-119296587D01*
X84905555Y-119318559D01*
X84640633Y-119330980D01*
X84349334Y-119333122D01*
X84016512Y-119324258D01*
X83627019Y-119303660D01*
X83165708Y-119270598D01*
X82617434Y-119224345D01*
X81967049Y-119164172D01*
X81534000Y-119122307D01*
X81144303Y-119088425D01*
X80757756Y-119062266D01*
X80410335Y-119045764D01*
X80138016Y-119040855D01*
X80054696Y-119042716D01*
X79815344Y-119050350D01*
X79673446Y-119042767D01*
X79599686Y-119012396D01*
X79564747Y-118951666D01*
X79554136Y-118913442D01*
X79549245Y-118779921D01*
X79571087Y-118567000D01*
X79614992Y-118318336D01*
X79620564Y-118292512D01*
X79674375Y-117988277D01*
X79711858Y-117662979D01*
X79724249Y-117414750D01*
X79724250Y-117008859D01*
X80133568Y-116965025D01*
X80386203Y-116954275D01*
X80741007Y-116962871D01*
X81174790Y-116989813D01*
X81612019Y-117028767D01*
X82043928Y-117069604D01*
X82375859Y-117093797D01*
X82633663Y-117101936D01*
X82843186Y-117094613D01*
X83030278Y-117072418D01*
X83088373Y-117062500D01*
X83345440Y-117001021D01*
X83613807Y-116913270D01*
X83851233Y-116815166D01*
X84015476Y-116722626D01*
X84037208Y-116704945D01*
X84021305Y-116644033D01*
X83927778Y-116535497D01*
X83783230Y-116404277D01*
X83614266Y-116275314D01*
X83502500Y-116203667D01*
X83286168Y-116091788D01*
X83051695Y-116002823D01*
X82780655Y-115933750D01*
X82454626Y-115881550D01*
X82055183Y-115843202D01*
X81563904Y-115815685D01*
X81026000Y-115797630D01*
X79629000Y-115760500D01*
X79587546Y-115316000D01*
X79553976Y-115015099D01*
X79510011Y-114696460D01*
X79476036Y-114490500D01*
X79443416Y-114231895D01*
X79434938Y-113977302D01*
X79444228Y-113846942D01*
X79444228Y-113846942D01*
G37*
X79444228Y-113846942D02*
X79479062Y-113677572D01*
X79542697Y-113592962D01*
X79672486Y-113551161D01*
X79714487Y-113543392D01*
X80924393Y-113356503D01*
X82029992Y-113241815D01*
X83031455Y-113199323D01*
X83928951Y-113229023D01*
X84722652Y-113330911D01*
X85090200Y-113411347D01*
X85676612Y-113610457D01*
X86198245Y-113888194D01*
X86639691Y-114233211D01*
X86985545Y-114634163D01*
X87159219Y-114935000D01*
X87336724Y-115431718D01*
X87438436Y-115982613D01*
X87456689Y-116534683D01*
X87430112Y-116808250D01*
X87366424Y-117207699D01*
X87303435Y-117514356D01*
X87227358Y-117761600D01*
X87124408Y-117982810D01*
X86980797Y-118211367D01*
X86782741Y-118480648D01*
X86689298Y-118601937D01*
X86519947Y-118814879D01*
X86375192Y-118970808D01*
X86229582Y-119081279D01*
X86123597Y-119128482D01*
X86123597Y-118649750D01*
X86376784Y-118157625D01*
X86613265Y-117648338D01*
X86784447Y-117172836D01*
X86859845Y-116871750D01*
X86880650Y-116649783D01*
X86879055Y-116357108D01*
X86858490Y-116036594D01*
X86822387Y-115731109D01*
X86774176Y-115483520D01*
X86740402Y-115379500D01*
X86481506Y-114925110D01*
X86120374Y-114516450D01*
X85821692Y-114274408D01*
X85284283Y-113954382D01*
X84705876Y-113724507D01*
X84069797Y-113580617D01*
X83359375Y-113518544D01*
X82809169Y-113521534D01*
X82110676Y-113574258D01*
X81494023Y-113681766D01*
X80922791Y-113852543D01*
X80372509Y-114089190D01*
X80126984Y-114211396D01*
X79978847Y-114294027D01*
X79911173Y-114352838D01*
X79907037Y-114403586D01*
X79949513Y-114462026D01*
X79959759Y-114473426D01*
X80039558Y-114622971D01*
X80061961Y-114848928D01*
X80060398Y-114903386D01*
X80059615Y-115091439D01*
X80090097Y-115194758D01*
X80169531Y-115254882D01*
X80219148Y-115276211D01*
X80437629Y-115348688D01*
X80707046Y-115408831D01*
X81047535Y-115459787D01*
X81479235Y-115504705D01*
X81890645Y-115537459D01*
X82422482Y-115580304D01*
X82847405Y-115625821D01*
X83185495Y-115677764D01*
X83456833Y-115739887D01*
X83681501Y-115815943D01*
X83878207Y-115908941D01*
X84149866Y-116110784D01*
X84321231Y-116355524D01*
X84387888Y-116622211D01*
X84345423Y-116889896D01*
X84189423Y-117137631D01*
X84146231Y-117181047D01*
X83991870Y-117291182D01*
X83790239Y-117367233D01*
X83525847Y-117410658D01*
X83183199Y-117422918D01*
X82746803Y-117405472D01*
X82224704Y-117362076D01*
X81705624Y-117318067D01*
X81293255Y-117299076D01*
X80969574Y-117306252D01*
X80716554Y-117340744D01*
X80516170Y-117403701D01*
X80374422Y-117480023D01*
X80243528Y-117605769D01*
X80142958Y-117771573D01*
X80092094Y-117934689D01*
X80110314Y-118052372D01*
X80113235Y-118056115D01*
X80200346Y-118105984D01*
X80376612Y-118172352D01*
X80607573Y-118242599D01*
X80663454Y-118257623D01*
X81263617Y-118393726D01*
X81916377Y-118499209D01*
X82638017Y-118575622D01*
X83444815Y-118624516D01*
X84353053Y-118647439D01*
X84781298Y-118649697D01*
X86123597Y-118649750D01*
X86123597Y-119128482D01*
X86057663Y-119157848D01*
X85833983Y-119212070D01*
X85533090Y-119255501D01*
X85159246Y-119296587D01*
X84905555Y-119318559D01*
X84640633Y-119330980D01*
X84349334Y-119333122D01*
X84016512Y-119324258D01*
X83627019Y-119303660D01*
X83165708Y-119270598D01*
X82617434Y-119224345D01*
X81967049Y-119164172D01*
X81534000Y-119122307D01*
X81144303Y-119088425D01*
X80757756Y-119062266D01*
X80410335Y-119045764D01*
X80138016Y-119040855D01*
X80054696Y-119042716D01*
X79815344Y-119050350D01*
X79673446Y-119042767D01*
X79599686Y-119012396D01*
X79564747Y-118951666D01*
X79554136Y-118913442D01*
X79549245Y-118779921D01*
X79571087Y-118567000D01*
X79614992Y-118318336D01*
X79620564Y-118292512D01*
X79674375Y-117988277D01*
X79711858Y-117662979D01*
X79724249Y-117414750D01*
X79724250Y-117008859D01*
X80133568Y-116965025D01*
X80386203Y-116954275D01*
X80741007Y-116962871D01*
X81174790Y-116989813D01*
X81612019Y-117028767D01*
X82043928Y-117069604D01*
X82375859Y-117093797D01*
X82633663Y-117101936D01*
X82843186Y-117094613D01*
X83030278Y-117072418D01*
X83088373Y-117062500D01*
X83345440Y-117001021D01*
X83613807Y-116913270D01*
X83851233Y-116815166D01*
X84015476Y-116722626D01*
X84037208Y-116704945D01*
X84021305Y-116644033D01*
X83927778Y-116535497D01*
X83783230Y-116404277D01*
X83614266Y-116275314D01*
X83502500Y-116203667D01*
X83286168Y-116091788D01*
X83051695Y-116002823D01*
X82780655Y-115933750D01*
X82454626Y-115881550D01*
X82055183Y-115843202D01*
X81563904Y-115815685D01*
X81026000Y-115797630D01*
X79629000Y-115760500D01*
X79587546Y-115316000D01*
X79553976Y-115015099D01*
X79510011Y-114696460D01*
X79476036Y-114490500D01*
X79443416Y-114231895D01*
X79434938Y-113977302D01*
X79444228Y-113846942D01*
G36*
X79784416Y-96430867D02*
G01*
X79925975Y-95888313D01*
X80125147Y-95454997D01*
X80440657Y-95037445D01*
X80844082Y-94695279D01*
X81321155Y-94428466D01*
X81857607Y-94236973D01*
X82439173Y-94120768D01*
X83051584Y-94079818D01*
X83680574Y-94114091D01*
X84311875Y-94223554D01*
X84931219Y-94408176D01*
X85524340Y-94667923D01*
X86076971Y-95002763D01*
X86574843Y-95412663D01*
X86633140Y-95469801D01*
X87057055Y-95976348D01*
X87380544Y-96539632D01*
X87598263Y-97142159D01*
X87704868Y-97766438D01*
X87695017Y-98394975D01*
X87634988Y-98749565D01*
X87446353Y-99303100D01*
X87152437Y-99791904D01*
X86761320Y-100208504D01*
X86281081Y-100545425D01*
X85719800Y-100795195D01*
X85298358Y-100910933D01*
X84883169Y-100967660D01*
X84393265Y-100984303D01*
X83873764Y-100962837D01*
X83796574Y-100954015D01*
X83796574Y-100725063D01*
X84461892Y-100714519D01*
X85065074Y-100598560D01*
X85599218Y-100385599D01*
X86057417Y-100084047D01*
X86432769Y-99702318D01*
X86718367Y-99248823D01*
X86907307Y-98731974D01*
X86992685Y-98160185D01*
X86967596Y-97541868D01*
X86857081Y-96996250D01*
X86655868Y-96458278D01*
X86360734Y-95936968D01*
X85992307Y-95458101D01*
X85571214Y-95047457D01*
X85118086Y-94730817D01*
X84990646Y-94663670D01*
X84551757Y-94476344D01*
X84119234Y-94354319D01*
X83655028Y-94290574D01*
X83121092Y-94278093D01*
X82931000Y-94283711D01*
X82428647Y-94315727D01*
X82040528Y-94369321D01*
X81755192Y-94447827D01*
X81561190Y-94554578D01*
X81447072Y-94692908D01*
X81435000Y-94719304D01*
X81370259Y-94842890D01*
X81248847Y-95046154D01*
X81086207Y-95304236D01*
X80897782Y-95592276D01*
X80827639Y-95696993D01*
X80574499Y-96077670D01*
X80386445Y-96377513D01*
X80254021Y-96618509D01*
X80167771Y-96822646D01*
X80118239Y-97011914D01*
X80095970Y-97208299D01*
X80091422Y-97409000D01*
X80136027Y-97904067D01*
X80273865Y-98362394D01*
X80513514Y-98801158D01*
X80863550Y-99237531D01*
X81145563Y-99519840D01*
X81743614Y-100003351D01*
X82373388Y-100364188D01*
X83036369Y-100603028D01*
X83734042Y-100720544D01*
X83796574Y-100725063D01*
X83796574Y-100954015D01*
X83369782Y-100905236D01*
X82926439Y-100813475D01*
X82899250Y-100805939D01*
X82198370Y-100556211D01*
X81558893Y-100224931D01*
X80994732Y-99822549D01*
X80519802Y-99359517D01*
X80148017Y-98846286D01*
X80049044Y-98665125D01*
X79856766Y-98159876D01*
X79749066Y-97598109D01*
X79725198Y-97011286D01*
X79784416Y-96430867D01*
X79784416Y-96430867D01*
G37*
X79784416Y-96430867D02*
X79925975Y-95888313D01*
X80125147Y-95454997D01*
X80440657Y-95037445D01*
X80844082Y-94695279D01*
X81321155Y-94428466D01*
X81857607Y-94236973D01*
X82439173Y-94120768D01*
X83051584Y-94079818D01*
X83680574Y-94114091D01*
X84311875Y-94223554D01*
X84931219Y-94408176D01*
X85524340Y-94667923D01*
X86076971Y-95002763D01*
X86574843Y-95412663D01*
X86633140Y-95469801D01*
X87057055Y-95976348D01*
X87380544Y-96539632D01*
X87598263Y-97142159D01*
X87704868Y-97766438D01*
X87695017Y-98394975D01*
X87634988Y-98749565D01*
X87446353Y-99303100D01*
X87152437Y-99791904D01*
X86761320Y-100208504D01*
X86281081Y-100545425D01*
X85719800Y-100795195D01*
X85298358Y-100910933D01*
X84883169Y-100967660D01*
X84393265Y-100984303D01*
X83873764Y-100962837D01*
X83796574Y-100954015D01*
X83796574Y-100725063D01*
X84461892Y-100714519D01*
X85065074Y-100598560D01*
X85599218Y-100385599D01*
X86057417Y-100084047D01*
X86432769Y-99702318D01*
X86718367Y-99248823D01*
X86907307Y-98731974D01*
X86992685Y-98160185D01*
X86967596Y-97541868D01*
X86857081Y-96996250D01*
X86655868Y-96458278D01*
X86360734Y-95936968D01*
X85992307Y-95458101D01*
X85571214Y-95047457D01*
X85118086Y-94730817D01*
X84990646Y-94663670D01*
X84551757Y-94476344D01*
X84119234Y-94354319D01*
X83655028Y-94290574D01*
X83121092Y-94278093D01*
X82931000Y-94283711D01*
X82428647Y-94315727D01*
X82040528Y-94369321D01*
X81755192Y-94447827D01*
X81561190Y-94554578D01*
X81447072Y-94692908D01*
X81435000Y-94719304D01*
X81370259Y-94842890D01*
X81248847Y-95046154D01*
X81086207Y-95304236D01*
X80897782Y-95592276D01*
X80827639Y-95696993D01*
X80574499Y-96077670D01*
X80386445Y-96377513D01*
X80254021Y-96618509D01*
X80167771Y-96822646D01*
X80118239Y-97011914D01*
X80095970Y-97208299D01*
X80091422Y-97409000D01*
X80136027Y-97904067D01*
X80273865Y-98362394D01*
X80513514Y-98801158D01*
X80863550Y-99237531D01*
X81145563Y-99519840D01*
X81743614Y-100003351D01*
X82373388Y-100364188D01*
X83036369Y-100603028D01*
X83734042Y-100720544D01*
X83796574Y-100725063D01*
X83796574Y-100954015D01*
X83369782Y-100905236D01*
X82926439Y-100813475D01*
X82899250Y-100805939D01*
X82198370Y-100556211D01*
X81558893Y-100224931D01*
X80994732Y-99822549D01*
X80519802Y-99359517D01*
X80148017Y-98846286D01*
X80049044Y-98665125D01*
X79856766Y-98159876D01*
X79749066Y-97598109D01*
X79725198Y-97011286D01*
X79784416Y-96430867D01*
D11*
X20811926Y-86847550D02*
X20478593Y-86371360D01*
X20240498Y-86847550D02*
X20240498Y-85847550D01*
X20621450Y-85847550D01*
X20716688Y-85895170D01*
X20764307Y-85942789D01*
X20811926Y-86038027D01*
X20811926Y-86180884D01*
X20764307Y-86276122D01*
X20716688Y-86323741D01*
X20621450Y-86371360D01*
X20240498Y-86371360D01*
X21240498Y-86323741D02*
X21573831Y-86323741D01*
X21716688Y-86847550D02*
X21240498Y-86847550D01*
X21240498Y-85847550D01*
X21716688Y-85847550D01*
X22478593Y-86323741D02*
X22145260Y-86323741D01*
X22145260Y-86847550D02*
X22145260Y-85847550D01*
X22621450Y-85847550D01*
X23145260Y-85847550D02*
X23145260Y-86085646D01*
X22907164Y-85990408D02*
X23145260Y-86085646D01*
X23383355Y-85990408D01*
X23002402Y-86276122D02*
X23145260Y-86085646D01*
X23288117Y-86276122D01*
X23907164Y-85847550D02*
X23907164Y-86085646D01*
X23669069Y-85990408D02*
X23907164Y-86085646D01*
X24145260Y-85990408D01*
X23764307Y-86276122D02*
X23907164Y-86085646D01*
X24050021Y-86276122D01*
X225599426Y-124947550D02*
X225266093Y-124471360D01*
X225027998Y-124947550D02*
X225027998Y-123947550D01*
X225408950Y-123947550D01*
X225504188Y-123995170D01*
X225551807Y-124042789D01*
X225599426Y-124138027D01*
X225599426Y-124280884D01*
X225551807Y-124376122D01*
X225504188Y-124423741D01*
X225408950Y-124471360D01*
X225027998Y-124471360D01*
X226027998Y-124423741D02*
X226361331Y-124423741D01*
X226504188Y-124947550D02*
X226027998Y-124947550D01*
X226027998Y-123947550D01*
X226504188Y-123947550D01*
X227266093Y-124423741D02*
X226932760Y-124423741D01*
X226932760Y-124947550D02*
X226932760Y-123947550D01*
X227408950Y-123947550D01*
X227932760Y-123947550D02*
X227932760Y-124185646D01*
X227694664Y-124090408D02*
X227932760Y-124185646D01*
X228170855Y-124090408D01*
X227789902Y-124376122D02*
X227932760Y-124185646D01*
X228075617Y-124376122D01*
X228694664Y-123947550D02*
X228694664Y-124185646D01*
X228456569Y-124090408D02*
X228694664Y-124185646D01*
X228932760Y-124090408D01*
X228551807Y-124376122D02*
X228694664Y-124185646D01*
X228837521Y-124376122D01*
X225599426Y-86847550D02*
X225266093Y-86371360D01*
X225027998Y-86847550D02*
X225027998Y-85847550D01*
X225408950Y-85847550D01*
X225504188Y-85895170D01*
X225551807Y-85942789D01*
X225599426Y-86038027D01*
X225599426Y-86180884D01*
X225551807Y-86276122D01*
X225504188Y-86323741D01*
X225408950Y-86371360D01*
X225027998Y-86371360D01*
X226027998Y-86323741D02*
X226361331Y-86323741D01*
X226504188Y-86847550D02*
X226027998Y-86847550D01*
X226027998Y-85847550D01*
X226504188Y-85847550D01*
X227266093Y-86323741D02*
X226932760Y-86323741D01*
X226932760Y-86847550D02*
X226932760Y-85847550D01*
X227408950Y-85847550D01*
X227932760Y-85847550D02*
X227932760Y-86085646D01*
X227694664Y-85990408D02*
X227932760Y-86085646D01*
X228170855Y-85990408D01*
X227789902Y-86276122D02*
X227932760Y-86085646D01*
X228075617Y-86276122D01*
X228694664Y-85847550D02*
X228694664Y-86085646D01*
X228456569Y-85990408D02*
X228694664Y-86085646D01*
X228932760Y-85990408D01*
X228551807Y-86276122D02*
X228694664Y-86085646D01*
X228837521Y-86276122D01*
X301799426Y-86847550D02*
X301466093Y-86371360D01*
X301227998Y-86847550D02*
X301227998Y-85847550D01*
X301608950Y-85847550D01*
X301704188Y-85895170D01*
X301751807Y-85942789D01*
X301799426Y-86038027D01*
X301799426Y-86180884D01*
X301751807Y-86276122D01*
X301704188Y-86323741D01*
X301608950Y-86371360D01*
X301227998Y-86371360D01*
X302227998Y-86323741D02*
X302561331Y-86323741D01*
X302704188Y-86847550D02*
X302227998Y-86847550D01*
X302227998Y-85847550D01*
X302704188Y-85847550D01*
X303466093Y-86323741D02*
X303132760Y-86323741D01*
X303132760Y-86847550D02*
X303132760Y-85847550D01*
X303608950Y-85847550D01*
X304132760Y-85847550D02*
X304132760Y-86085646D01*
X303894664Y-85990408D02*
X304132760Y-86085646D01*
X304370855Y-85990408D01*
X303989902Y-86276122D02*
X304132760Y-86085646D01*
X304275617Y-86276122D01*
X304894664Y-85847550D02*
X304894664Y-86085646D01*
X304656569Y-85990408D02*
X304894664Y-86085646D01*
X305132760Y-85990408D01*
X304751807Y-86276122D02*
X304894664Y-86085646D01*
X305037521Y-86276122D01*
X301799426Y-124947550D02*
X301466093Y-124471360D01*
X301227998Y-124947550D02*
X301227998Y-123947550D01*
X301608950Y-123947550D01*
X301704188Y-123995170D01*
X301751807Y-124042789D01*
X301799426Y-124138027D01*
X301799426Y-124280884D01*
X301751807Y-124376122D01*
X301704188Y-124423741D01*
X301608950Y-124471360D01*
X301227998Y-124471360D01*
X302227998Y-124423741D02*
X302561331Y-124423741D01*
X302704188Y-124947550D02*
X302227998Y-124947550D01*
X302227998Y-123947550D01*
X302704188Y-123947550D01*
X303466093Y-124423741D02*
X303132760Y-124423741D01*
X303132760Y-124947550D02*
X303132760Y-123947550D01*
X303608950Y-123947550D01*
X304132760Y-123947550D02*
X304132760Y-124185646D01*
X303894664Y-124090408D02*
X304132760Y-124185646D01*
X304370855Y-124090408D01*
X303989902Y-124376122D02*
X304132760Y-124185646D01*
X304275617Y-124376122D01*
X304894664Y-123947550D02*
X304894664Y-124185646D01*
X304656569Y-124090408D02*
X304894664Y-124185646D01*
X305132760Y-124090408D01*
X304751807Y-124376122D02*
X304894664Y-124185646D01*
X305037521Y-124376122D01*
X97011926Y-124947550D02*
X96678593Y-124471360D01*
X96440498Y-124947550D02*
X96440498Y-123947550D01*
X96821450Y-123947550D01*
X96916688Y-123995170D01*
X96964307Y-124042789D01*
X97011926Y-124138027D01*
X97011926Y-124280884D01*
X96964307Y-124376122D01*
X96916688Y-124423741D01*
X96821450Y-124471360D01*
X96440498Y-124471360D01*
X97440498Y-124423741D02*
X97773831Y-124423741D01*
X97916688Y-124947550D02*
X97440498Y-124947550D01*
X97440498Y-123947550D01*
X97916688Y-123947550D01*
X98678593Y-124423741D02*
X98345260Y-124423741D01*
X98345260Y-124947550D02*
X98345260Y-123947550D01*
X98821450Y-123947550D01*
X99345260Y-123947550D02*
X99345260Y-124185646D01*
X99107164Y-124090408D02*
X99345260Y-124185646D01*
X99583355Y-124090408D01*
X99202402Y-124376122D02*
X99345260Y-124185646D01*
X99488117Y-124376122D01*
X100107164Y-123947550D02*
X100107164Y-124185646D01*
X99869069Y-124090408D02*
X100107164Y-124185646D01*
X100345260Y-124090408D01*
X99964307Y-124376122D02*
X100107164Y-124185646D01*
X100250021Y-124376122D01*
X97011926Y-86847550D02*
X96678593Y-86371360D01*
X96440498Y-86847550D02*
X96440498Y-85847550D01*
X96821450Y-85847550D01*
X96916688Y-85895170D01*
X96964307Y-85942789D01*
X97011926Y-86038027D01*
X97011926Y-86180884D01*
X96964307Y-86276122D01*
X96916688Y-86323741D01*
X96821450Y-86371360D01*
X96440498Y-86371360D01*
X97440498Y-86323741D02*
X97773831Y-86323741D01*
X97916688Y-86847550D02*
X97440498Y-86847550D01*
X97440498Y-85847550D01*
X97916688Y-85847550D01*
X98678593Y-86323741D02*
X98345260Y-86323741D01*
X98345260Y-86847550D02*
X98345260Y-85847550D01*
X98821450Y-85847550D01*
X99345260Y-85847550D02*
X99345260Y-86085646D01*
X99107164Y-85990408D02*
X99345260Y-86085646D01*
X99583355Y-85990408D01*
X99202402Y-86276122D02*
X99345260Y-86085646D01*
X99488117Y-86276122D01*
X100107164Y-85847550D02*
X100107164Y-86085646D01*
X99869069Y-85990408D02*
X100107164Y-86085646D01*
X100345260Y-85990408D01*
X99964307Y-86276122D02*
X100107164Y-86085646D01*
X100250021Y-86276122D01*
X20811926Y-124947550D02*
X20478593Y-124471360D01*
X20240498Y-124947550D02*
X20240498Y-123947550D01*
X20621450Y-123947550D01*
X20716688Y-123995170D01*
X20764307Y-124042789D01*
X20811926Y-124138027D01*
X20811926Y-124280884D01*
X20764307Y-124376122D01*
X20716688Y-124423741D01*
X20621450Y-124471360D01*
X20240498Y-124471360D01*
X21240498Y-124423741D02*
X21573831Y-124423741D01*
X21716688Y-124947550D02*
X21240498Y-124947550D01*
X21240498Y-123947550D01*
X21716688Y-123947550D01*
X22478593Y-124423741D02*
X22145260Y-124423741D01*
X22145260Y-124947550D02*
X22145260Y-123947550D01*
X22621450Y-123947550D01*
X23145260Y-123947550D02*
X23145260Y-124185646D01*
X22907164Y-124090408D02*
X23145260Y-124185646D01*
X23383355Y-124090408D01*
X23002402Y-124376122D02*
X23145260Y-124185646D01*
X23288117Y-124376122D01*
X23907164Y-123947550D02*
X23907164Y-124185646D01*
X23669069Y-124090408D02*
X23907164Y-124185646D01*
X24145260Y-124090408D01*
X23764307Y-124376122D02*
X23907164Y-124185646D01*
X24050021Y-124376122D01*
M02*
