G04 #@! TF.GenerationSoftware,KiCad,Pcbnew,(5.1.4)-1*
G04 #@! TF.CreationDate,2020-05-01T00:58:15-05:00*
G04 #@! TF.ProjectId,augioS_switchplate,61756769-6f53-45f7-9377-69746368706c,rev?*
G04 #@! TF.SameCoordinates,Original*
G04 #@! TF.FileFunction,Profile,NP*
%FSLAX46Y46*%
G04 Gerber Fmt 4.6, Leading zero omitted, Abs format (unit mm)*
G04 Created by KiCad (PCBNEW (5.1.4)-1) date 2020-05-01 00:58:15*
%MOMM*%
%LPD*%
G04 APERTURE LIST*
%ADD10C,0.200000*%
G04 APERTURE END LIST*
D10*
X19620500Y-73069700D02*
X5619640Y-73069700D01*
X19620500Y-73669100D02*
X19620500Y-73069700D01*
X20421100Y-73669100D02*
X19620500Y-73669100D01*
X20421100Y-86469700D02*
X20421100Y-73669100D01*
X19620500Y-86469700D02*
X20421100Y-86469700D01*
X19620500Y-87070400D02*
X19620500Y-86469700D01*
X5619640Y-87070400D02*
X19620500Y-87070400D01*
X5619640Y-86469700D02*
X5619640Y-87070400D01*
X4819020Y-86469700D02*
X5619640Y-86469700D01*
X4819020Y-73669100D02*
X4819020Y-86469700D01*
X5619640Y-73669100D02*
X4819020Y-73669100D01*
X5619640Y-73069700D02*
X5619640Y-73669100D01*
X38670400Y-73069700D02*
X24671000Y-73069700D01*
X38670400Y-73669100D02*
X38670400Y-73069700D01*
X39471200Y-73669100D02*
X38670400Y-73669100D01*
X39471200Y-86469700D02*
X39471200Y-73669100D01*
X38670400Y-86469700D02*
X39471200Y-86469700D01*
X38670400Y-87070400D02*
X38670400Y-86469700D01*
X24671000Y-87070400D02*
X38670400Y-87070400D01*
X24671000Y-86469700D02*
X24671000Y-87070400D01*
X23870400Y-86469700D02*
X24671000Y-86469700D01*
X23870400Y-73669100D02*
X23870400Y-86469700D01*
X24671000Y-73669100D02*
X23870400Y-73669100D01*
X24671000Y-73069700D02*
X24671000Y-73669100D01*
X57720400Y-73069700D02*
X43721200Y-73069700D01*
X57720400Y-73669100D02*
X57720400Y-73069700D01*
X58521200Y-73669100D02*
X57720400Y-73669100D01*
X58521200Y-86469700D02*
X58521200Y-73669100D01*
X57720400Y-86469700D02*
X58521200Y-86469700D01*
X57720400Y-87070400D02*
X57720400Y-86469700D01*
X43721200Y-87070400D02*
X57720400Y-87070400D01*
X43721200Y-86469700D02*
X43721200Y-87070400D01*
X42920400Y-86469700D02*
X43721200Y-86469700D01*
X42920400Y-73669100D02*
X42920400Y-86469700D01*
X43721200Y-73669100D02*
X42920400Y-73669100D01*
X43721200Y-73069700D02*
X43721200Y-73669100D01*
X76770400Y-73069700D02*
X62771200Y-73069700D01*
X76770400Y-73669100D02*
X76770400Y-73069700D01*
X77571200Y-73669100D02*
X76770400Y-73669100D01*
X77571200Y-86469700D02*
X77571200Y-73669100D01*
X76770400Y-86469700D02*
X77571200Y-86469700D01*
X76770400Y-87070400D02*
X76770400Y-86469700D01*
X62771200Y-87070400D02*
X76770400Y-87070400D01*
X62771200Y-86469700D02*
X62771200Y-87070400D01*
X61970400Y-86469700D02*
X62771200Y-86469700D01*
X61970400Y-73669100D02*
X61970400Y-86469700D01*
X62771200Y-73669100D02*
X61970400Y-73669100D01*
X62771200Y-73069700D02*
X62771200Y-73669100D01*
X100583000Y-73069700D02*
X86582200Y-73069700D01*
X100583000Y-73669100D02*
X100583000Y-73069700D01*
X101382000Y-73669100D02*
X100583000Y-73669100D01*
X101382000Y-86469700D02*
X101382000Y-73669100D01*
X100583000Y-86469700D02*
X101382000Y-86469700D01*
X100583000Y-87070400D02*
X100583000Y-86469700D01*
X86582200Y-87070400D02*
X100583000Y-87070400D01*
X86582200Y-86469700D02*
X86582200Y-87070400D01*
X85782900Y-86469700D02*
X86582200Y-86469700D01*
X85782900Y-73669100D02*
X85782900Y-86469700D01*
X86582200Y-73669100D02*
X85782900Y-73669100D01*
X86582200Y-73069700D02*
X86582200Y-73669100D01*
X119633000Y-73069700D02*
X105632000Y-73069700D01*
X119633000Y-73669100D02*
X119633000Y-73069700D01*
X120432000Y-73669100D02*
X119633000Y-73669100D01*
X120432000Y-86469700D02*
X120432000Y-73669100D01*
X119633000Y-86469700D02*
X120432000Y-86469700D01*
X119633000Y-87070400D02*
X119633000Y-86469700D01*
X105632000Y-87070400D02*
X119633000Y-87070400D01*
X105632000Y-86469700D02*
X105632000Y-87070400D01*
X104833000Y-86469700D02*
X105632000Y-86469700D01*
X104833000Y-73669100D02*
X104833000Y-86469700D01*
X105632000Y-73669100D02*
X104833000Y-73669100D01*
X105632000Y-73069700D02*
X105632000Y-73669100D01*
X138683000Y-73069700D02*
X124682000Y-73069700D01*
X138683000Y-73669100D02*
X138683000Y-73069700D01*
X139482000Y-73669100D02*
X138683000Y-73669100D01*
X139482000Y-86469700D02*
X139482000Y-73669100D01*
X138683000Y-86469700D02*
X139482000Y-86469700D01*
X138683000Y-87070400D02*
X138683000Y-86469700D01*
X124682000Y-87070400D02*
X138683000Y-87070400D01*
X124682000Y-86469700D02*
X124682000Y-87070400D01*
X123883000Y-86469700D02*
X124682000Y-86469700D01*
X123883000Y-73669100D02*
X123883000Y-86469700D01*
X124682000Y-73669100D02*
X123883000Y-73669100D01*
X124682000Y-73069700D02*
X124682000Y-73669100D01*
X157733000Y-73069700D02*
X143732000Y-73069700D01*
X157733000Y-73669100D02*
X157733000Y-73069700D01*
X158532000Y-73669100D02*
X157733000Y-73669100D01*
X158532000Y-86469700D02*
X158532000Y-73669100D01*
X157733000Y-86469700D02*
X158532000Y-86469700D01*
X157733000Y-87070400D02*
X157733000Y-86469700D01*
X143732000Y-87070400D02*
X157733000Y-87070400D01*
X143732000Y-86469700D02*
X143732000Y-87070400D01*
X142933000Y-86469700D02*
X143732000Y-86469700D01*
X142933000Y-73669100D02*
X142933000Y-86469700D01*
X143732000Y-73669100D02*
X142933000Y-73669100D01*
X143732000Y-73069700D02*
X143732000Y-73669100D01*
X176783000Y-73069700D02*
X162782000Y-73069700D01*
X176783000Y-73669100D02*
X176783000Y-73069700D01*
X177582000Y-73669100D02*
X176783000Y-73669100D01*
X177582000Y-86469700D02*
X177582000Y-73669100D01*
X176783000Y-86469700D02*
X177582000Y-86469700D01*
X176783000Y-87070400D02*
X176783000Y-86469700D01*
X162782000Y-87070400D02*
X176783000Y-87070400D01*
X162782000Y-86469700D02*
X162782000Y-87070400D01*
X161983000Y-86469700D02*
X162782000Y-86469700D01*
X161983000Y-73669100D02*
X161983000Y-86469700D01*
X162782000Y-73669100D02*
X161983000Y-73669100D01*
X162782000Y-73069700D02*
X162782000Y-73669100D01*
X195833000Y-73069700D02*
X181832000Y-73069700D01*
X195833000Y-73669100D02*
X195833000Y-73069700D01*
X196632000Y-73669100D02*
X195833000Y-73669100D01*
X196632000Y-86469700D02*
X196632000Y-73669100D01*
X195833000Y-86469700D02*
X196632000Y-86469700D01*
X195833000Y-87070400D02*
X195833000Y-86469700D01*
X181832000Y-87070400D02*
X195833000Y-87070400D01*
X181832000Y-86469700D02*
X181832000Y-87070400D01*
X181033000Y-86469700D02*
X181832000Y-86469700D01*
X181033000Y-73669100D02*
X181033000Y-86469700D01*
X181832000Y-73669100D02*
X181033000Y-73669100D01*
X181832000Y-73069700D02*
X181832000Y-73669100D01*
X214883000Y-73069700D02*
X200882000Y-73069700D01*
X214883000Y-73669100D02*
X214883000Y-73069700D01*
X215682000Y-73669100D02*
X214883000Y-73669100D01*
X215682000Y-86469700D02*
X215682000Y-73669100D01*
X214883000Y-86469700D02*
X215682000Y-86469700D01*
X214883000Y-87070400D02*
X214883000Y-86469700D01*
X200882000Y-87070400D02*
X214883000Y-87070400D01*
X200882000Y-86469700D02*
X200882000Y-87070400D01*
X200083000Y-86469700D02*
X200882000Y-86469700D01*
X200083000Y-73669100D02*
X200083000Y-86469700D01*
X200882000Y-73669100D02*
X200083000Y-73669100D01*
X200882000Y-73069700D02*
X200882000Y-73669100D01*
X233933000Y-73069700D02*
X219932000Y-73069700D01*
X233933000Y-73669100D02*
X233933000Y-73069700D01*
X234732000Y-73669100D02*
X233933000Y-73669100D01*
X234732000Y-86469700D02*
X234732000Y-73669100D01*
X233933000Y-86469700D02*
X234732000Y-86469700D01*
X233933000Y-87070400D02*
X233933000Y-86469700D01*
X219932000Y-87070400D02*
X233933000Y-87070400D01*
X219932000Y-86469700D02*
X219932000Y-87070400D01*
X219133000Y-86469700D02*
X219932000Y-86469700D01*
X219133000Y-73669100D02*
X219133000Y-86469700D01*
X219932000Y-73669100D02*
X219133000Y-73669100D01*
X219932000Y-73069700D02*
X219932000Y-73669100D01*
X252983000Y-73069700D02*
X238982000Y-73069700D01*
X252983000Y-73669100D02*
X252983000Y-73069700D01*
X253782000Y-73669100D02*
X252983000Y-73669100D01*
X253782000Y-86469700D02*
X253782000Y-73669100D01*
X252983000Y-86469700D02*
X253782000Y-86469700D01*
X252983000Y-87070400D02*
X252983000Y-86469700D01*
X238982000Y-87070400D02*
X252983000Y-87070400D01*
X238982000Y-86469700D02*
X238982000Y-87070400D01*
X238183000Y-86469700D02*
X238982000Y-86469700D01*
X238183000Y-73669100D02*
X238183000Y-86469700D01*
X238982000Y-73669100D02*
X238183000Y-73669100D01*
X238982000Y-73069700D02*
X238982000Y-73669100D01*
X272033000Y-73069700D02*
X258031999Y-73069700D01*
X272033000Y-73669100D02*
X272033000Y-73069700D01*
X272832000Y-73669100D02*
X272033000Y-73669100D01*
X272832000Y-86469700D02*
X272832000Y-73669100D01*
X272033000Y-86469700D02*
X272832000Y-86469700D01*
X272033000Y-87070400D02*
X272033000Y-86469700D01*
X258031999Y-87070400D02*
X272033000Y-87070400D01*
X258031999Y-86469700D02*
X258031999Y-87070400D01*
X257233000Y-86469700D02*
X258031999Y-86469700D01*
X257233000Y-73669100D02*
X257233000Y-86469700D01*
X258031999Y-73669100D02*
X257233000Y-73669100D01*
X258031999Y-73069700D02*
X258031999Y-73669100D01*
X291083000Y-73069700D02*
X277082000Y-73069700D01*
X291083000Y-73669100D02*
X291083000Y-73069700D01*
X291882000Y-73669100D02*
X291083000Y-73669100D01*
X291882000Y-86469700D02*
X291882000Y-73669100D01*
X291083000Y-86469700D02*
X291882000Y-86469700D01*
X291083000Y-87070400D02*
X291083000Y-86469700D01*
X277082000Y-87070400D02*
X291083000Y-87070400D01*
X277082000Y-86469700D02*
X277082000Y-87070400D01*
X276283000Y-86469700D02*
X277082000Y-86469700D01*
X276283000Y-73669100D02*
X276283000Y-86469700D01*
X277082000Y-73669100D02*
X276283000Y-73669100D01*
X277082000Y-73069700D02*
X277082000Y-73669100D01*
X314895000Y-73069700D02*
X300896000Y-73069700D01*
X314895000Y-73669100D02*
X314895000Y-73069700D01*
X315696000Y-73669100D02*
X314895000Y-73669100D01*
X315696000Y-86469700D02*
X315696000Y-73669100D01*
X314895000Y-86469700D02*
X315696000Y-86469700D01*
X314895000Y-87070400D02*
X314895000Y-86469700D01*
X300896000Y-87070400D02*
X314895000Y-87070400D01*
X300896000Y-86469700D02*
X300896000Y-87070400D01*
X300095000Y-86469700D02*
X300896000Y-86469700D01*
X300095000Y-73669100D02*
X300095000Y-86469700D01*
X300896000Y-73669100D02*
X300095000Y-73669100D01*
X300896000Y-73069700D02*
X300896000Y-73669100D01*
X19620500Y-92121200D02*
X5619640Y-92121200D01*
X19620500Y-92720500D02*
X19620500Y-92121200D01*
X20421100Y-92720500D02*
X19620500Y-92720500D01*
X20421100Y-105521099D02*
X20421100Y-92720500D01*
X19620500Y-105521099D02*
X20421100Y-105521099D01*
X19620500Y-106120399D02*
X19620500Y-105521099D01*
X5619640Y-106120399D02*
X19620500Y-106120399D01*
X5619640Y-105521099D02*
X5619640Y-106120399D01*
X4819020Y-105521099D02*
X5619640Y-105521099D01*
X4819020Y-92720500D02*
X4819020Y-105521099D01*
X5619640Y-92720500D02*
X4819020Y-92720500D01*
X5619640Y-92121200D02*
X5619640Y-92720500D01*
X38670400Y-92121200D02*
X24671000Y-92121200D01*
X38670400Y-92720500D02*
X38670400Y-92121200D01*
X39471200Y-92720500D02*
X38670400Y-92720500D01*
X39471200Y-105521099D02*
X39471200Y-92720500D01*
X38670400Y-105521099D02*
X39471200Y-105521099D01*
X38670400Y-106120399D02*
X38670400Y-105521099D01*
X24671000Y-106120399D02*
X38670400Y-106120399D01*
X24671000Y-105521099D02*
X24671000Y-106120399D01*
X23870400Y-105521099D02*
X24671000Y-105521099D01*
X23870400Y-92720500D02*
X23870400Y-105521099D01*
X24671000Y-92720500D02*
X23870400Y-92720500D01*
X24671000Y-92121200D02*
X24671000Y-92720500D01*
X57720400Y-92121200D02*
X43721200Y-92121200D01*
X57720400Y-92720500D02*
X57720400Y-92121200D01*
X58521200Y-92720500D02*
X57720400Y-92720500D01*
X58521200Y-105521099D02*
X58521200Y-92720500D01*
X57720400Y-105521099D02*
X58521200Y-105521099D01*
X57720400Y-106120399D02*
X57720400Y-105521099D01*
X43721200Y-106120399D02*
X57720400Y-106120399D01*
X43721200Y-105521099D02*
X43721200Y-106120399D01*
X42920400Y-105521099D02*
X43721200Y-105521099D01*
X42920400Y-92720500D02*
X42920400Y-105521099D01*
X43721200Y-92720500D02*
X42920400Y-92720500D01*
X43721200Y-92121200D02*
X43721200Y-92720500D01*
X76770400Y-92121200D02*
X62771200Y-92121200D01*
X76770400Y-92720500D02*
X76770400Y-92121200D01*
X77571200Y-92720500D02*
X76770400Y-92720500D01*
X77571200Y-105521099D02*
X77571200Y-92720500D01*
X76770400Y-105521099D02*
X77571200Y-105521099D01*
X76770400Y-106120399D02*
X76770400Y-105521099D01*
X62771200Y-106120399D02*
X76770400Y-106120399D01*
X62771200Y-105521099D02*
X62771200Y-106120399D01*
X61970400Y-105521099D02*
X62771200Y-105521099D01*
X61970400Y-92720500D02*
X61970400Y-105521099D01*
X62771200Y-92720500D02*
X61970400Y-92720500D01*
X62771200Y-92121200D02*
X62771200Y-92720500D01*
X102963000Y-92121200D02*
X88963500Y-92121200D01*
X102963000Y-92720500D02*
X102963000Y-92121200D01*
X103764000Y-92720500D02*
X102963000Y-92720500D01*
X103764000Y-105521099D02*
X103764000Y-92720500D01*
X102963000Y-105521099D02*
X103764000Y-105521099D01*
X102963000Y-106120399D02*
X102963000Y-105521099D01*
X88963500Y-106120399D02*
X102963000Y-106120399D01*
X88963500Y-105521099D02*
X88963500Y-106120399D01*
X88164100Y-105521099D02*
X88963500Y-105521099D01*
X88164100Y-92720500D02*
X88164100Y-105521099D01*
X88963500Y-92720500D02*
X88164100Y-92720500D01*
X88963500Y-92121200D02*
X88963500Y-92720500D01*
X124395000Y-92121200D02*
X110396000Y-92121200D01*
X124395000Y-92720500D02*
X124395000Y-92121200D01*
X125196000Y-92720500D02*
X124395000Y-92720500D01*
X125196000Y-105521099D02*
X125196000Y-92720500D01*
X124395000Y-105521099D02*
X125196000Y-105521099D01*
X124395000Y-106120399D02*
X124395000Y-105521099D01*
X110396000Y-106120399D02*
X124395000Y-106120399D01*
X110396000Y-105521099D02*
X110396000Y-106120399D01*
X109595000Y-105521099D02*
X110396000Y-105521099D01*
X109595000Y-92720500D02*
X109595000Y-105521099D01*
X110396000Y-92720500D02*
X109595000Y-92720500D01*
X110396000Y-92121200D02*
X110396000Y-92720500D01*
X143445000Y-92121200D02*
X129446000Y-92121200D01*
X143445000Y-92720500D02*
X143445000Y-92121200D01*
X144246000Y-92720500D02*
X143445000Y-92720500D01*
X144246000Y-105521099D02*
X144246000Y-92720500D01*
X143445000Y-105521099D02*
X144246000Y-105521099D01*
X143445000Y-106120399D02*
X143445000Y-105521099D01*
X129446000Y-106120399D02*
X143445000Y-106120399D01*
X129446000Y-105521099D02*
X129446000Y-106120399D01*
X128645000Y-105521099D02*
X129446000Y-105521099D01*
X128645000Y-92720500D02*
X128645000Y-105521099D01*
X129446000Y-92720500D02*
X128645000Y-92720500D01*
X129446000Y-92121200D02*
X129446000Y-92720500D01*
X162495000Y-92121200D02*
X148496000Y-92121200D01*
X162495000Y-92720500D02*
X162495000Y-92121200D01*
X163296000Y-92720500D02*
X162495000Y-92720500D01*
X163296000Y-105521099D02*
X163296000Y-92720500D01*
X162495000Y-105521099D02*
X163296000Y-105521099D01*
X162495000Y-106120399D02*
X162495000Y-105521099D01*
X148496000Y-106120399D02*
X162495000Y-106120399D01*
X148496000Y-105521099D02*
X148496000Y-106120399D01*
X147695000Y-105521099D02*
X148496000Y-105521099D01*
X147695000Y-92720500D02*
X147695000Y-105521099D01*
X148496000Y-92720500D02*
X147695000Y-92720500D01*
X148496000Y-92121200D02*
X148496000Y-92720500D01*
X181545000Y-92121200D02*
X167546000Y-92121200D01*
X181545000Y-92720500D02*
X181545000Y-92121200D01*
X182346000Y-92720500D02*
X181545000Y-92720500D01*
X182346000Y-105521099D02*
X182346000Y-92720500D01*
X181545000Y-105521099D02*
X182346000Y-105521099D01*
X181545000Y-106120399D02*
X181545000Y-105521099D01*
X167546000Y-106120399D02*
X181545000Y-106120399D01*
X167546000Y-105521099D02*
X167546000Y-106120399D01*
X166745000Y-105521099D02*
X167546000Y-105521099D01*
X166745000Y-92720500D02*
X166745000Y-105521099D01*
X167546000Y-92720500D02*
X166745000Y-92720500D01*
X167546000Y-92121200D02*
X167546000Y-92720500D01*
X200595000Y-92121200D02*
X186596000Y-92121200D01*
X200595000Y-92720500D02*
X200595000Y-92121200D01*
X201396000Y-92720500D02*
X200595000Y-92720500D01*
X201396000Y-105521099D02*
X201396000Y-92720500D01*
X200595000Y-105521099D02*
X201396000Y-105521099D01*
X200595000Y-106120399D02*
X200595000Y-105521099D01*
X186596000Y-106120399D02*
X200595000Y-106120399D01*
X186596000Y-105521099D02*
X186596000Y-106120399D01*
X185795000Y-105521099D02*
X186596000Y-105521099D01*
X185795000Y-92720500D02*
X185795000Y-105521099D01*
X186596000Y-92720500D02*
X185795000Y-92720500D01*
X186596000Y-92121200D02*
X186596000Y-92720500D01*
X219645000Y-92121200D02*
X205646000Y-92121200D01*
X219645000Y-92720500D02*
X219645000Y-92121200D01*
X220446000Y-92720500D02*
X219645000Y-92720500D01*
X220446000Y-105521099D02*
X220446000Y-92720500D01*
X219645000Y-105521099D02*
X220446000Y-105521099D01*
X219645000Y-106120399D02*
X219645000Y-105521099D01*
X205646000Y-106120399D02*
X219645000Y-106120399D01*
X205646000Y-105521099D02*
X205646000Y-106120399D01*
X204845000Y-105521099D02*
X205646000Y-105521099D01*
X204845000Y-92720500D02*
X204845000Y-105521099D01*
X205646000Y-92720500D02*
X204845000Y-92720500D01*
X205646000Y-92121200D02*
X205646000Y-92720500D01*
X238695000Y-92121200D02*
X224696000Y-92121200D01*
X238695000Y-92720500D02*
X238695000Y-92121200D01*
X239496000Y-92720500D02*
X238695000Y-92720500D01*
X239496000Y-105521099D02*
X239496000Y-92720500D01*
X238695000Y-105521099D02*
X239496000Y-105521099D01*
X238695000Y-106120399D02*
X238695000Y-105521099D01*
X224696000Y-106120399D02*
X238695000Y-106120399D01*
X224696000Y-105521099D02*
X224696000Y-106120399D01*
X223895000Y-105521099D02*
X224696000Y-105521099D01*
X223895000Y-92720500D02*
X223895000Y-105521099D01*
X224696000Y-92720500D02*
X223895000Y-92720500D01*
X224696000Y-92121200D02*
X224696000Y-92720500D01*
X257745000Y-92121200D02*
X243746000Y-92121200D01*
X257745000Y-92720500D02*
X257745000Y-92121200D01*
X258546000Y-92720500D02*
X257745000Y-92720500D01*
X258546000Y-105521099D02*
X258546000Y-92720500D01*
X257745000Y-105521099D02*
X258546000Y-105521099D01*
X257745000Y-106120399D02*
X257745000Y-105521099D01*
X243746000Y-106120399D02*
X257745000Y-106120399D01*
X243746000Y-105521099D02*
X243746000Y-106120399D01*
X242945000Y-105521099D02*
X243746000Y-105521099D01*
X242945000Y-92720500D02*
X242945000Y-105521099D01*
X243746000Y-92720500D02*
X242945000Y-92720500D01*
X243746000Y-92121200D02*
X243746000Y-92720500D01*
X276795000Y-92121200D02*
X262796000Y-92121200D01*
X276795000Y-92720500D02*
X276795000Y-92121200D01*
X277596000Y-92720500D02*
X276795000Y-92720500D01*
X277596000Y-105521099D02*
X277596000Y-92720500D01*
X276795000Y-105521099D02*
X277596000Y-105521099D01*
X276795000Y-106120399D02*
X276795000Y-105521099D01*
X262796000Y-106120399D02*
X276795000Y-106120399D01*
X262796000Y-105521099D02*
X262796000Y-106120399D01*
X261995000Y-105521099D02*
X262796000Y-105521099D01*
X261995000Y-92720500D02*
X261995000Y-105521099D01*
X262796000Y-92720500D02*
X261995000Y-92720500D01*
X262796000Y-92121200D02*
X262796000Y-92720500D01*
X295845000Y-92121200D02*
X281846000Y-92121200D01*
X295845000Y-92720500D02*
X295845000Y-92121200D01*
X296646000Y-92720500D02*
X295845000Y-92720500D01*
X296646000Y-105521099D02*
X296646000Y-92720500D01*
X295845000Y-105521099D02*
X296646000Y-105521099D01*
X295845000Y-106120399D02*
X295845000Y-105521099D01*
X281846000Y-106120399D02*
X295845000Y-106120399D01*
X281846000Y-105521099D02*
X281846000Y-106120399D01*
X281045000Y-105521099D02*
X281846000Y-105521099D01*
X281045000Y-92720500D02*
X281045000Y-105521099D01*
X281846000Y-92720500D02*
X281045000Y-92720500D01*
X281846000Y-92121200D02*
X281846000Y-92720500D01*
X317277000Y-92121200D02*
X303276000Y-92121200D01*
X317277000Y-92720500D02*
X317277000Y-92121200D01*
X318076000Y-92720500D02*
X317277000Y-92720500D01*
X318076000Y-105521099D02*
X318076000Y-92720500D01*
X317277000Y-105521099D02*
X318076000Y-105521099D01*
X317277000Y-106120399D02*
X317277000Y-105521099D01*
X303276000Y-106120399D02*
X317277000Y-106120399D01*
X303276000Y-105521099D02*
X303276000Y-106120399D01*
X302477000Y-105521099D02*
X303276000Y-105521099D01*
X302477000Y-92720500D02*
X302477000Y-105521099D01*
X303276000Y-92720500D02*
X302477000Y-92720500D01*
X303276000Y-92121200D02*
X303276000Y-92720500D01*
X19620500Y-111171200D02*
X5619640Y-111171200D01*
X19620500Y-111770500D02*
X19620500Y-111171200D01*
X20421100Y-111770500D02*
X19620500Y-111770500D01*
X20421100Y-124571100D02*
X20421100Y-111770500D01*
X19620500Y-124571100D02*
X20421100Y-124571100D01*
X19620500Y-125170500D02*
X19620500Y-124571100D01*
X5619640Y-125170500D02*
X19620500Y-125170500D01*
X5619640Y-124571100D02*
X5619640Y-125170500D01*
X4819020Y-124571100D02*
X5619640Y-124571100D01*
X4819020Y-111770500D02*
X4819020Y-124571100D01*
X5619640Y-111770500D02*
X4819020Y-111770500D01*
X5619640Y-111171200D02*
X5619640Y-111770500D01*
X38670400Y-111171200D02*
X24671000Y-111171200D01*
X38670400Y-111770500D02*
X38670400Y-111171200D01*
X39471200Y-111770500D02*
X38670400Y-111770500D01*
X39471200Y-124571100D02*
X39471200Y-111770500D01*
X38670400Y-124571100D02*
X39471200Y-124571100D01*
X38670400Y-125170500D02*
X38670400Y-124571100D01*
X24671000Y-125170500D02*
X38670400Y-125170500D01*
X24671000Y-124571100D02*
X24671000Y-125170500D01*
X23870400Y-124571100D02*
X24671000Y-124571100D01*
X23870400Y-111770500D02*
X23870400Y-124571100D01*
X24671000Y-111770500D02*
X23870400Y-111770500D01*
X24671000Y-111171200D02*
X24671000Y-111770500D01*
X57720400Y-111171200D02*
X43721200Y-111171200D01*
X57720400Y-111770500D02*
X57720400Y-111171200D01*
X58521200Y-111770500D02*
X57720400Y-111770500D01*
X58521200Y-124571100D02*
X58521200Y-111770500D01*
X57720400Y-124571100D02*
X58521200Y-124571100D01*
X57720400Y-125170500D02*
X57720400Y-124571100D01*
X43721200Y-125170500D02*
X57720400Y-125170500D01*
X43721200Y-124571100D02*
X43721200Y-125170500D01*
X42920400Y-124571100D02*
X43721200Y-124571100D01*
X42920400Y-111770500D02*
X42920400Y-124571100D01*
X43721200Y-111770500D02*
X42920400Y-111770500D01*
X43721200Y-111171200D02*
X43721200Y-111770500D01*
X76770400Y-111171200D02*
X62771200Y-111171200D01*
X76770400Y-111770500D02*
X76770400Y-111171200D01*
X77571200Y-111770500D02*
X76770400Y-111770500D01*
X77571200Y-124571100D02*
X77571200Y-111770500D01*
X76770400Y-124571100D02*
X77571200Y-124571100D01*
X76770400Y-125170500D02*
X76770400Y-124571100D01*
X62771200Y-125170500D02*
X76770400Y-125170500D01*
X62771200Y-124571100D02*
X62771200Y-125170500D01*
X61970400Y-124571100D02*
X62771200Y-124571100D01*
X61970400Y-111770500D02*
X61970400Y-124571100D01*
X62771200Y-111770500D02*
X61970400Y-111770500D01*
X62771200Y-111171200D02*
X62771200Y-111770500D01*
X105345000Y-111171200D02*
X91346200Y-111171200D01*
X105345000Y-111770500D02*
X105345000Y-111171200D01*
X106146000Y-111770500D02*
X105345000Y-111770500D01*
X106146000Y-124571100D02*
X106146000Y-111770500D01*
X105345000Y-124571100D02*
X106146000Y-124571100D01*
X105345000Y-125170500D02*
X105345000Y-124571100D01*
X91346200Y-125170500D02*
X105345000Y-125170500D01*
X91346200Y-124571100D02*
X91346200Y-125170500D01*
X90545400Y-124571100D02*
X91346200Y-124571100D01*
X90545400Y-111770500D02*
X90545400Y-124571100D01*
X91346200Y-111770500D02*
X90545400Y-111770500D01*
X91346200Y-111171200D02*
X91346200Y-111770500D01*
X129157999Y-111171200D02*
X115157000Y-111171200D01*
X129157999Y-111770500D02*
X129157999Y-111171200D01*
X129957000Y-111770500D02*
X129157999Y-111770500D01*
X129957000Y-124571100D02*
X129957000Y-111770500D01*
X129157999Y-124571100D02*
X129957000Y-124571100D01*
X129157999Y-125170500D02*
X129157999Y-124571100D01*
X115157000Y-125170500D02*
X129157999Y-125170500D01*
X115157000Y-124571100D02*
X115157000Y-125170500D01*
X114358000Y-124571100D02*
X115157000Y-124571100D01*
X114358000Y-111770500D02*
X114358000Y-124571100D01*
X115157000Y-111770500D02*
X114358000Y-111770500D01*
X115157000Y-111171200D02*
X115157000Y-111770500D01*
X148208000Y-111171200D02*
X134207000Y-111171200D01*
X148208000Y-111770500D02*
X148208000Y-111171200D01*
X149007000Y-111770500D02*
X148208000Y-111770500D01*
X149007000Y-124571100D02*
X149007000Y-111770500D01*
X148208000Y-124571100D02*
X149007000Y-124571100D01*
X148208000Y-125170500D02*
X148208000Y-124571100D01*
X134207000Y-125170500D02*
X148208000Y-125170500D01*
X134207000Y-124571100D02*
X134207000Y-125170500D01*
X133407999Y-124571100D02*
X134207000Y-124571100D01*
X133407999Y-111770500D02*
X133407999Y-124571100D01*
X134207000Y-111770500D02*
X133407999Y-111770500D01*
X134207000Y-111171200D02*
X134207000Y-111770500D01*
X167258000Y-111171200D02*
X153257000Y-111171200D01*
X167258000Y-111770500D02*
X167258000Y-111171200D01*
X168057000Y-111770500D02*
X167258000Y-111770500D01*
X168057000Y-124571100D02*
X168057000Y-111770500D01*
X167258000Y-124571100D02*
X168057000Y-124571100D01*
X167258000Y-125170500D02*
X167258000Y-124571100D01*
X153257000Y-125170500D02*
X167258000Y-125170500D01*
X153257000Y-124571100D02*
X153257000Y-125170500D01*
X152458000Y-124571100D02*
X153257000Y-124571100D01*
X152458000Y-111770500D02*
X152458000Y-124571100D01*
X153257000Y-111770500D02*
X152458000Y-111770500D01*
X153257000Y-111171200D02*
X153257000Y-111770500D01*
X186308000Y-111171200D02*
X172307000Y-111171200D01*
X186308000Y-111770500D02*
X186308000Y-111171200D01*
X187107000Y-111770500D02*
X186308000Y-111770500D01*
X187107000Y-124571100D02*
X187107000Y-111770500D01*
X186308000Y-124571100D02*
X187107000Y-124571100D01*
X186308000Y-125170500D02*
X186308000Y-124571100D01*
X172307000Y-125170500D02*
X186308000Y-125170500D01*
X172307000Y-124571100D02*
X172307000Y-125170500D01*
X171508000Y-124571100D02*
X172307000Y-124571100D01*
X171508000Y-111770500D02*
X171508000Y-124571100D01*
X172307000Y-111770500D02*
X171508000Y-111770500D01*
X172307000Y-111171200D02*
X172307000Y-111770500D01*
X205358000Y-111171200D02*
X191357000Y-111171200D01*
X205358000Y-111770500D02*
X205358000Y-111171200D01*
X206157000Y-111770500D02*
X205358000Y-111770500D01*
X206157000Y-124571100D02*
X206157000Y-111770500D01*
X205358000Y-124571100D02*
X206157000Y-124571100D01*
X205358000Y-125170500D02*
X205358000Y-124571100D01*
X191357000Y-125170500D02*
X205358000Y-125170500D01*
X191357000Y-124571100D02*
X191357000Y-125170500D01*
X190558000Y-124571100D02*
X191357000Y-124571100D01*
X190558000Y-111770500D02*
X190558000Y-124571100D01*
X191357000Y-111770500D02*
X190558000Y-111770500D01*
X191357000Y-111171200D02*
X191357000Y-111770500D01*
X224408000Y-111171200D02*
X210407000Y-111171200D01*
X224408000Y-111770500D02*
X224408000Y-111171200D01*
X225207000Y-111770500D02*
X224408000Y-111770500D01*
X225207000Y-124571100D02*
X225207000Y-111770500D01*
X224408000Y-124571100D02*
X225207000Y-124571100D01*
X224408000Y-125170500D02*
X224408000Y-124571100D01*
X210407000Y-125170500D02*
X224408000Y-125170500D01*
X210407000Y-124571100D02*
X210407000Y-125170500D01*
X209608000Y-124571100D02*
X210407000Y-124571100D01*
X209608000Y-111770500D02*
X209608000Y-124571100D01*
X210407000Y-111770500D02*
X209608000Y-111770500D01*
X210407000Y-111171200D02*
X210407000Y-111770500D01*
X243458000Y-111171200D02*
X229457000Y-111171200D01*
X243458000Y-111770500D02*
X243458000Y-111171200D01*
X244257000Y-111770500D02*
X243458000Y-111770500D01*
X244257000Y-124571100D02*
X244257000Y-111770500D01*
X243458000Y-124571100D02*
X244257000Y-124571100D01*
X243458000Y-125170500D02*
X243458000Y-124571100D01*
X229457000Y-125170500D02*
X243458000Y-125170500D01*
X229457000Y-124571100D02*
X229457000Y-125170500D01*
X228658000Y-124571100D02*
X229457000Y-124571100D01*
X228658000Y-111770500D02*
X228658000Y-124571100D01*
X229457000Y-111770500D02*
X228658000Y-111770500D01*
X229457000Y-111171200D02*
X229457000Y-111770500D01*
X262507999Y-111171200D02*
X248507000Y-111171200D01*
X262507999Y-111770500D02*
X262507999Y-111171200D01*
X263307000Y-111770500D02*
X262507999Y-111770500D01*
X263307000Y-124571100D02*
X263307000Y-111770500D01*
X262507999Y-124571100D02*
X263307000Y-124571100D01*
X262507999Y-125170500D02*
X262507999Y-124571100D01*
X248507000Y-125170500D02*
X262507999Y-125170500D01*
X248507000Y-124571100D02*
X248507000Y-125170500D01*
X247708000Y-124571100D02*
X248507000Y-124571100D01*
X247708000Y-111770500D02*
X247708000Y-124571100D01*
X248507000Y-111770500D02*
X247708000Y-111770500D01*
X248507000Y-111171200D02*
X248507000Y-111770500D01*
X281558000Y-111171200D02*
X267557000Y-111171200D01*
X281558000Y-111770500D02*
X281558000Y-111171200D01*
X282357000Y-111770500D02*
X281558000Y-111770500D01*
X282357000Y-124571100D02*
X282357000Y-111770500D01*
X281558000Y-124571100D02*
X282357000Y-124571100D01*
X281558000Y-125170500D02*
X281558000Y-124571100D01*
X267557000Y-125170500D02*
X281558000Y-125170500D01*
X267557000Y-124571100D02*
X267557000Y-125170500D01*
X266757999Y-124571100D02*
X267557000Y-124571100D01*
X266757999Y-111770500D02*
X266757999Y-124571100D01*
X267557000Y-111770500D02*
X266757999Y-111770500D01*
X267557000Y-111171200D02*
X267557000Y-111770500D01*
X300608000Y-111171200D02*
X286607000Y-111171200D01*
X300608000Y-111770500D02*
X300608000Y-111171200D01*
X301407000Y-111770500D02*
X300608000Y-111770500D01*
X301407000Y-124571100D02*
X301407000Y-111770500D01*
X300608000Y-124571100D02*
X301407000Y-124571100D01*
X300608000Y-125170500D02*
X300608000Y-124571100D01*
X286607000Y-125170500D02*
X300608000Y-125170500D01*
X286607000Y-124571100D02*
X286607000Y-125170500D01*
X285808000Y-124571100D02*
X286607000Y-124571100D01*
X285808000Y-111770500D02*
X285808000Y-124571100D01*
X286607000Y-111770500D02*
X285808000Y-111770500D01*
X286607000Y-111171200D02*
X286607000Y-111770500D01*
X319658000Y-111171200D02*
X305657000Y-111171200D01*
X319658000Y-111770500D02*
X319658000Y-111171200D01*
X320457000Y-111770500D02*
X319658000Y-111770500D01*
X320457000Y-124571100D02*
X320457000Y-111770500D01*
X319658000Y-124571100D02*
X320457000Y-124571100D01*
X319658000Y-125170500D02*
X319658000Y-124571100D01*
X305657000Y-125170500D02*
X319658000Y-125170500D01*
X305657000Y-124571100D02*
X305657000Y-125170500D01*
X304858000Y-124571100D02*
X305657000Y-124571100D01*
X304858000Y-111770500D02*
X304858000Y-124571100D01*
X305657000Y-111770500D02*
X304858000Y-111770500D01*
X305657000Y-111171200D02*
X305657000Y-111770500D01*
X19620500Y-130221000D02*
X5619640Y-130221000D01*
X19620500Y-130819099D02*
X19620500Y-130221000D01*
X20421100Y-130819099D02*
X19620500Y-130819099D01*
X20421100Y-143621070D02*
X20421100Y-130819099D01*
X19620500Y-143621070D02*
X20421100Y-143621070D01*
X19620500Y-144220510D02*
X19620500Y-143621070D01*
X5619640Y-144220510D02*
X19620500Y-144220510D01*
X5619640Y-143621070D02*
X5619640Y-144220510D01*
X4819020Y-143621070D02*
X5619640Y-143621070D01*
X4819020Y-130819099D02*
X4819020Y-143621070D01*
X5619640Y-130819099D02*
X4819020Y-130819099D01*
X5619640Y-130221000D02*
X5619640Y-130819099D01*
X38670400Y-130221000D02*
X24671000Y-130221000D01*
X38670400Y-130819099D02*
X38670400Y-130221000D01*
X39471200Y-130819099D02*
X38670400Y-130819099D01*
X39471200Y-143621070D02*
X39471200Y-130819099D01*
X38670400Y-143621070D02*
X39471200Y-143621070D01*
X38670400Y-144220510D02*
X38670400Y-143621070D01*
X24671000Y-144220510D02*
X38670400Y-144220510D01*
X24671000Y-143621070D02*
X24671000Y-144220510D01*
X23870400Y-143621070D02*
X24671000Y-143621070D01*
X23870400Y-130819099D02*
X23870400Y-143621070D01*
X24671000Y-130819099D02*
X23870400Y-130819099D01*
X24671000Y-130221000D02*
X24671000Y-130819099D01*
X57720400Y-130221000D02*
X43721200Y-130221000D01*
X57720400Y-130819099D02*
X57720400Y-130221000D01*
X58521200Y-130819099D02*
X57720400Y-130819099D01*
X58521200Y-143621070D02*
X58521200Y-130819099D01*
X57720400Y-143621070D02*
X58521200Y-143621070D01*
X57720400Y-144220510D02*
X57720400Y-143621070D01*
X43721200Y-144220510D02*
X57720400Y-144220510D01*
X43721200Y-143621070D02*
X43721200Y-144220510D01*
X42920400Y-143621070D02*
X43721200Y-143621070D01*
X42920400Y-130819099D02*
X42920400Y-143621070D01*
X43721200Y-130819099D02*
X42920400Y-130819099D01*
X43721200Y-130221000D02*
X43721200Y-130819099D01*
X76770400Y-130221000D02*
X62771200Y-130221000D01*
X76770400Y-130819099D02*
X76770400Y-130221000D01*
X77571200Y-130819099D02*
X76770400Y-130819099D01*
X77571200Y-143621070D02*
X77571200Y-130819099D01*
X76770400Y-143621070D02*
X77571200Y-143621070D01*
X76770400Y-144220510D02*
X76770400Y-143621070D01*
X62771200Y-144220510D02*
X76770400Y-144220510D01*
X62771200Y-143621070D02*
X62771200Y-144220510D01*
X61970400Y-143621070D02*
X62771200Y-143621070D01*
X61970400Y-130819099D02*
X61970400Y-143621070D01*
X62771200Y-130819099D02*
X61970400Y-130819099D01*
X62771200Y-130221000D02*
X62771200Y-130819099D01*
X100583000Y-130221000D02*
X86582200Y-130221000D01*
X100583000Y-130819099D02*
X100583000Y-130221000D01*
X101382000Y-130819099D02*
X100583000Y-130819099D01*
X101382000Y-143621070D02*
X101382000Y-130819099D01*
X100583000Y-143621070D02*
X101382000Y-143621070D01*
X100583000Y-144220510D02*
X100583000Y-143621070D01*
X86582200Y-144220510D02*
X100583000Y-144220510D01*
X86582200Y-143621070D02*
X86582200Y-144220510D01*
X85782900Y-143621070D02*
X86582200Y-143621070D01*
X85782900Y-130819099D02*
X85782900Y-143621070D01*
X86582200Y-130819099D02*
X85782900Y-130819099D01*
X86582200Y-130221000D02*
X86582200Y-130819099D01*
X119633000Y-130221000D02*
X105632000Y-130221000D01*
X119633000Y-130819099D02*
X119633000Y-130221000D01*
X120432000Y-130819099D02*
X119633000Y-130819099D01*
X120432000Y-143621070D02*
X120432000Y-130819099D01*
X119633000Y-143621070D02*
X120432000Y-143621070D01*
X119633000Y-144220510D02*
X119633000Y-143621070D01*
X105632000Y-144220510D02*
X119633000Y-144220510D01*
X105632000Y-143621070D02*
X105632000Y-144220510D01*
X104833000Y-143621070D02*
X105632000Y-143621070D01*
X104833000Y-130819099D02*
X104833000Y-143621070D01*
X105632000Y-130819099D02*
X104833000Y-130819099D01*
X105632000Y-130221000D02*
X105632000Y-130819099D01*
X138683000Y-130221000D02*
X124682000Y-130221000D01*
X138683000Y-130819099D02*
X138683000Y-130221000D01*
X139482000Y-130819099D02*
X138683000Y-130819099D01*
X139482000Y-143621070D02*
X139482000Y-130819099D01*
X138683000Y-143621070D02*
X139482000Y-143621070D01*
X138683000Y-144220510D02*
X138683000Y-143621070D01*
X124682000Y-144220510D02*
X138683000Y-144220510D01*
X124682000Y-143621070D02*
X124682000Y-144220510D01*
X123883000Y-143621070D02*
X124682000Y-143621070D01*
X123883000Y-130819099D02*
X123883000Y-143621070D01*
X124682000Y-130819099D02*
X123883000Y-130819099D01*
X124682000Y-130221000D02*
X124682000Y-130819099D01*
X157733000Y-130221000D02*
X143732000Y-130221000D01*
X157733000Y-130819099D02*
X157733000Y-130221000D01*
X158532000Y-130819099D02*
X157733000Y-130819099D01*
X158532000Y-143621070D02*
X158532000Y-130819099D01*
X157733000Y-143621070D02*
X158532000Y-143621070D01*
X157733000Y-144220510D02*
X157733000Y-143621070D01*
X143732000Y-144220510D02*
X157733000Y-144220510D01*
X143732000Y-143621070D02*
X143732000Y-144220510D01*
X142933000Y-143621070D02*
X143732000Y-143621070D01*
X142933000Y-130819099D02*
X142933000Y-143621070D01*
X143732000Y-130819099D02*
X142933000Y-130819099D01*
X143732000Y-130221000D02*
X143732000Y-130819099D01*
X179163000Y-130221000D02*
X165163000Y-130221000D01*
X179163000Y-130819099D02*
X179163000Y-130221000D01*
X179964000Y-130819099D02*
X179163000Y-130819099D01*
X179964000Y-143621070D02*
X179964000Y-130819099D01*
X179163000Y-143621070D02*
X179964000Y-143621070D01*
X179163000Y-144220510D02*
X179163000Y-143621070D01*
X165163000Y-144220510D02*
X179163000Y-144220510D01*
X165163000Y-143621070D02*
X165163000Y-144220510D01*
X164364000Y-143621070D02*
X165163000Y-143621070D01*
X164364000Y-130819099D02*
X164364000Y-143621070D01*
X165163000Y-130819099D02*
X164364000Y-130819099D01*
X165163000Y-130221000D02*
X165163000Y-130819099D01*
X241077000Y-130221000D02*
X227076000Y-130221000D01*
X241077000Y-130819099D02*
X241077000Y-130221000D01*
X241876000Y-130819099D02*
X241077000Y-130819099D01*
X241876000Y-143621070D02*
X241876000Y-130819099D01*
X241077000Y-143621070D02*
X241876000Y-143621070D01*
X241077000Y-144220510D02*
X241077000Y-143621070D01*
X227076000Y-144220510D02*
X241077000Y-144220510D01*
X227076000Y-143621070D02*
X227076000Y-144220510D01*
X226277000Y-143621070D02*
X227076000Y-143621070D01*
X226277000Y-130819099D02*
X226277000Y-143621070D01*
X227076000Y-130819099D02*
X226277000Y-130819099D01*
X227076000Y-130221000D02*
X227076000Y-130819099D01*
X262507999Y-130221000D02*
X248507000Y-130221000D01*
X262507999Y-130819099D02*
X262507999Y-130221000D01*
X263307000Y-130819099D02*
X262507999Y-130819099D01*
X263307000Y-143621070D02*
X263307000Y-130819099D01*
X262507999Y-143621070D02*
X263307000Y-143621070D01*
X262507999Y-144220510D02*
X262507999Y-143621070D01*
X248507000Y-144220510D02*
X262507999Y-144220510D01*
X248507000Y-143621070D02*
X248507000Y-144220510D01*
X247708000Y-143621070D02*
X248507000Y-143621070D01*
X247708000Y-130819099D02*
X247708000Y-143621070D01*
X248507000Y-130819099D02*
X247708000Y-130819099D01*
X248507000Y-130221000D02*
X248507000Y-130819099D01*
X281558000Y-130221000D02*
X267557000Y-130221000D01*
X281558000Y-130819099D02*
X281558000Y-130221000D01*
X282357000Y-130819099D02*
X281558000Y-130819099D01*
X282357000Y-143621070D02*
X282357000Y-130819099D01*
X281558000Y-143621070D02*
X282357000Y-143621070D01*
X281558000Y-144220510D02*
X281558000Y-143621070D01*
X267557000Y-144220510D02*
X281558000Y-144220510D01*
X267557000Y-143621070D02*
X267557000Y-144220510D01*
X266757999Y-143621070D02*
X267557000Y-143621070D01*
X266757999Y-130819099D02*
X266757999Y-143621070D01*
X267557000Y-130819099D02*
X266757999Y-130819099D01*
X267557000Y-130221000D02*
X267557000Y-130819099D01*
X300608000Y-130221000D02*
X286607000Y-130221000D01*
X300608000Y-130819099D02*
X300608000Y-130221000D01*
X301407000Y-130819099D02*
X300608000Y-130819099D01*
X301407000Y-143621070D02*
X301407000Y-130819099D01*
X300608000Y-143621070D02*
X301407000Y-143621070D01*
X300608000Y-144220510D02*
X300608000Y-143621070D01*
X286607000Y-144220510D02*
X300608000Y-144220510D01*
X286607000Y-143621070D02*
X286607000Y-144220510D01*
X285808000Y-143621070D02*
X286607000Y-143621070D01*
X285808000Y-130819099D02*
X285808000Y-143621070D01*
X286607000Y-130819099D02*
X285808000Y-130819099D01*
X286607000Y-130221000D02*
X286607000Y-130819099D01*
X319658000Y-130221000D02*
X305657000Y-130221000D01*
X319658000Y-130819099D02*
X319658000Y-130221000D01*
X320457000Y-130819099D02*
X319658000Y-130819099D01*
X320457000Y-143621070D02*
X320457000Y-130819099D01*
X319658000Y-143621070D02*
X320457000Y-143621070D01*
X319658000Y-144220510D02*
X319658000Y-143621070D01*
X305657000Y-144220510D02*
X319658000Y-144220510D01*
X305657000Y-143621070D02*
X305657000Y-144220510D01*
X304858000Y-143621070D02*
X305657000Y-143621070D01*
X304858000Y-130819099D02*
X304858000Y-143621070D01*
X305657000Y-130819099D02*
X304858000Y-130819099D01*
X305657000Y-130221000D02*
X305657000Y-130819099D01*
X210120000Y-130221000D02*
X196121000Y-130221000D01*
X210120000Y-130819099D02*
X210120000Y-130221000D01*
X210921000Y-130819099D02*
X210120000Y-130819099D01*
X210921000Y-134920100D02*
X210921000Y-130819099D01*
X211646000Y-134920100D02*
X210921000Y-134920100D01*
X211646000Y-131690000D02*
X211646000Y-134920100D01*
X213370000Y-131690000D02*
X211646000Y-131690000D01*
X213370000Y-130770900D02*
X213370000Y-131690000D01*
X216670000Y-130770900D02*
X213370000Y-130770900D01*
X216670000Y-131690000D02*
X216670000Y-130770900D01*
X218396000Y-131690000D02*
X216670000Y-131690000D01*
X218396000Y-134920100D02*
X218396000Y-131690000D01*
X219221000Y-134920100D02*
X218396000Y-134920100D01*
X219221000Y-137720300D02*
X219221000Y-134920100D01*
X218396000Y-137720300D02*
X219221000Y-137720300D01*
X218396000Y-143990360D02*
X218396000Y-137720300D01*
X216670000Y-143990360D02*
X218396000Y-143990360D01*
X216670000Y-144970160D02*
X216670000Y-143990360D01*
X213370000Y-144970160D02*
X216670000Y-144970160D01*
X213370000Y-143990360D02*
X213370000Y-144970160D01*
X211646000Y-143990360D02*
X213370000Y-143990360D01*
X211646000Y-139520000D02*
X211646000Y-143990360D01*
X210921000Y-139520000D02*
X211646000Y-139520000D01*
X210921000Y-143621070D02*
X210921000Y-139520000D01*
X210120000Y-143621070D02*
X210921000Y-143621070D01*
X210120000Y-144220510D02*
X210120000Y-143621070D01*
X196121000Y-144220510D02*
X210120000Y-144220510D01*
X196121000Y-143621070D02*
X196121000Y-144220510D01*
X195320000Y-143621070D02*
X196121000Y-143621070D01*
X195320000Y-139520000D02*
X195320000Y-143621070D01*
X194595000Y-139520000D02*
X195320000Y-139520000D01*
X194595000Y-143990360D02*
X194595000Y-139520000D01*
X192870000Y-143990360D02*
X194595000Y-143990360D01*
X192870000Y-144970160D02*
X192870000Y-143990360D01*
X189570000Y-144970160D02*
X192870000Y-144970160D01*
X189570000Y-143990360D02*
X189570000Y-144970160D01*
X187846000Y-143990360D02*
X189570000Y-143990360D01*
X187846000Y-137720300D02*
X187846000Y-143990360D01*
X187021000Y-137720300D02*
X187846000Y-137720300D01*
X187021000Y-134920100D02*
X187021000Y-137720300D01*
X187846000Y-134920100D02*
X187021000Y-134920100D01*
X187846000Y-131690000D02*
X187846000Y-134920100D01*
X189570000Y-131690000D02*
X187846000Y-131690000D01*
X189570000Y-130770900D02*
X189570000Y-131690000D01*
X192870000Y-130770900D02*
X189570000Y-130770900D01*
X192870000Y-131690000D02*
X192870000Y-130770900D01*
X194595000Y-131690000D02*
X192870000Y-131690000D01*
X194595000Y-134920100D02*
X194595000Y-131690000D01*
X195320000Y-134920100D02*
X194595000Y-134920100D01*
X195320000Y-130819099D02*
X195320000Y-134920100D01*
X196121000Y-130819099D02*
X195320000Y-130819099D01*
X196121000Y-130221000D02*
X196121000Y-130819099D01*
X2096000Y-67545300D02*
X323183000Y-67545300D01*
X1938900Y-67552000D02*
X2096000Y-67545300D01*
X1781800Y-67569900D02*
X1938900Y-67552000D01*
X1628840Y-67600300D02*
X1781800Y-67569900D01*
X1475880Y-67643000D02*
X1628840Y-67600300D01*
X1329810Y-67698000D02*
X1475880Y-67643000D01*
X1187870Y-67762900D02*
X1329810Y-67698000D01*
X1050060Y-67839800D02*
X1187870Y-67762900D01*
X919152Y-67927000D02*
X1050060Y-67839800D01*
X796505Y-68024700D02*
X919152Y-67927000D01*
X680752Y-68130900D02*
X796505Y-68024700D01*
X574643Y-68246600D02*
X680752Y-68130900D01*
X476800Y-68369000D02*
X574643Y-68246600D01*
X389985Y-68500200D02*
X476800Y-68369000D01*
X312815Y-68637800D02*
X389985Y-68500200D01*
X248047Y-68780000D02*
X312815Y-68637800D01*
X192925Y-68926000D02*
X248047Y-68780000D01*
X150206Y-69078800D02*
X192925Y-68926000D01*
X119889Y-69231900D02*
X150206Y-69078800D01*
X101975Y-69388900D02*
X119889Y-69231900D01*
X95084Y-69545900D02*
X101975Y-69388900D01*
X95084Y-147746910D02*
X95084Y-69545900D01*
X101975Y-147902630D02*
X95084Y-147746910D01*
X119889Y-148058340D02*
X101975Y-147902630D01*
X150206Y-148212680D02*
X119889Y-148058340D01*
X192925Y-148364270D02*
X150206Y-148212680D01*
X248047Y-148511720D02*
X192925Y-148364270D01*
X312815Y-148653660D02*
X248047Y-148511720D01*
X389985Y-148790080D02*
X312815Y-148653660D01*
X476800Y-148921000D02*
X389985Y-148790080D01*
X574643Y-149045020D02*
X476800Y-148921000D01*
X680752Y-149160773D02*
X574643Y-149045020D01*
X796505Y-149266882D02*
X680752Y-149160773D01*
X919152Y-149364725D02*
X796505Y-149266882D01*
X1050060Y-149451540D02*
X919152Y-149364725D01*
X1187870Y-149528710D02*
X1050060Y-149451540D01*
X1329810Y-149593480D02*
X1187870Y-149528710D01*
X1475880Y-149648600D02*
X1329810Y-149593480D01*
X1628840Y-149689941D02*
X1475880Y-149648600D01*
X1781800Y-149721636D02*
X1628840Y-149689941D01*
X1938900Y-149739551D02*
X1781800Y-149721636D01*
X2096000Y-149746441D02*
X1938900Y-149739551D01*
X323183000Y-149745063D02*
X2096000Y-149746441D01*
X323340000Y-149739551D02*
X323183000Y-149745063D01*
X323496000Y-149721636D02*
X323340000Y-149739551D01*
X323650000Y-149689941D02*
X323496000Y-149721636D01*
X323802000Y-149648600D02*
X323650000Y-149689941D01*
X323948000Y-149593480D02*
X323802000Y-149648600D01*
X324091000Y-149528710D02*
X323948000Y-149593480D01*
X324229000Y-149451540D02*
X324091000Y-149528710D01*
X324360000Y-149364725D02*
X324229000Y-149451540D01*
X324483000Y-149266882D02*
X324360000Y-149364725D01*
X324597000Y-149160773D02*
X324483000Y-149266882D01*
X324704000Y-149045020D02*
X324597000Y-149160773D01*
X324801000Y-148921000D02*
X324704000Y-149045020D01*
X324889000Y-148790080D02*
X324801000Y-148921000D01*
X324965000Y-148653660D02*
X324889000Y-148790080D01*
X325031000Y-148511720D02*
X324965000Y-148653660D01*
X325086000Y-148364270D02*
X325031000Y-148511720D01*
X325129000Y-148212680D02*
X325086000Y-148364270D01*
X325159000Y-148058340D02*
X325129000Y-148212680D01*
X325177000Y-147902630D02*
X325159000Y-148058340D01*
X325184000Y-147746910D02*
X325177000Y-147902630D01*
X325184000Y-69545900D02*
X325184000Y-147746910D01*
X325177000Y-69388900D02*
X325184000Y-69545900D01*
X325159000Y-69231900D02*
X325177000Y-69388900D01*
X325129000Y-69078800D02*
X325159000Y-69231900D01*
X325086000Y-68926000D02*
X325129000Y-69078800D01*
X325031000Y-68780000D02*
X325086000Y-68926000D01*
X324965000Y-68637800D02*
X325031000Y-68780000D01*
X324889000Y-68500200D02*
X324965000Y-68637800D01*
X324801000Y-68369000D02*
X324889000Y-68500200D01*
X324704000Y-68246600D02*
X324801000Y-68369000D01*
X324597000Y-68130900D02*
X324704000Y-68246600D01*
X324483000Y-68024700D02*
X324597000Y-68130900D01*
X324360000Y-67927000D02*
X324483000Y-68024700D01*
X324229000Y-67839800D02*
X324360000Y-67927000D01*
X324091000Y-67762900D02*
X324229000Y-67839800D01*
X323948000Y-67698000D02*
X324091000Y-67762900D01*
X323802000Y-67643000D02*
X323948000Y-67698000D01*
X323650000Y-67600300D02*
X323802000Y-67643000D01*
X323496000Y-67569900D02*
X323650000Y-67600300D01*
X323340000Y-67552000D02*
X323496000Y-67569900D01*
X323183000Y-67545300D02*
X323340000Y-67552000D01*
M02*
